<svg xmlns="http://www.w3.org/2000/svg" width="295" height="380" viewBox="0 0 295 380">
  <g id="Grupo_980845" data-name="Grupo 980845" transform="translate(-1125 -3421)">
    <rect id="Rect치ngulo_306716" data-name="Rect치ngulo 306716" width="295" height="380" rx="10" transform="translate(1125 3421)" fill="#faebcd"/>
    <g id="Grupo_980804" data-name="Grupo 980804" transform="translate(1158.801 3480.893)">
      <rect id="Rect치ngulo_308324" data-name="Rect치ngulo 308324" width="205" height="205" transform="translate(0.199 0.108)" fill="none"/>
      <g id="Grupo_980807" data-name="Grupo 980807" transform="translate(14.853 15.751)">
        <g id="Grupo_980778" data-name="Grupo 980778" transform="translate(0 0)">
          <path id="Trazado_640765" data-name="Trazado 640765" d="M517.525,1104.394c-.073.152-.159.3-.217.458-.756,2.051-1.963,3.032-3.607,2.924-1.691-.111-2.718-1.185-3.207-3.356.142-.66.258-1.328.431-1.981,2.337-8.78,4.7-17.555,7.018-26.339a4.76,4.76,0,1,0-9.15-2.611c-2.791,10.291-5.5,20.6-8.242,30.908a10.628,10.628,0,0,1-1,2.108,3.043,3.043,0,0,1-3.291,1.169,3.38,3.38,0,0,1-2.669-3.267c.106-.552.181-1.112.325-1.654q2.715-10.23,5.447-20.455c1.665-6.274,3.373-12.537,4.943-18.835a4.561,4.561,0,0,0-3.354-5.488,4.694,4.694,0,0,0-5.661,2.832,16.233,16.233,0,0,0-.594,1.939q-3.17,11.772-6.328,23.548c-1.586,5.933-3.65,11.794-2.795,18.1-.6,2.27-1.812,3.425-3.536,3.374-1.673-.049-2.778-1.155-3.367-3.374q.022-22.679.027-45.357a4.754,4.754,0,1,0-9.506.169c-.036,5.1-.017,10.193-.01,15.29q.02,14.949.051,29.9c-.672,2.292-1.755,3.393-3.447,3.367-2.218-.035-3.054-1.6-3.636-3.416-1.354-5.12-2.6-10.273-4.1-15.351a4.617,4.617,0,0,0-7.014-2.521,4.715,4.715,0,0,0-2.013,5.308c1.048,4.211,2.138,8.411,3.211,12.616-.51,2.257-1.631,3.373-3.39,3.379-1.683.005-2.932-1.08-3.465-3.148-1.056-4.1-2.382-8.135-3.147-12.308a11.275,11.275,0,0,1,6.468-12.242,2.081,2.081,0,0,0,1.473-2.362c-.065-5.495-.041-10.991-.026-16.486.042-15.678,9.9-28.159,25.151-31.834,1.087-.262,2.744-.084,3.161-.735.574-.9.235-2.389.256-3.625s-.016-2.494.009-3.739c.046-2.32,1.411-3.9,3.364-3.922s3.388,1.559,3.43,3.854c.036,1.926.094,3.858-.022,5.777-.082,1.348.235,1.881,1.706,2.137,11.526,2,19.618,8.5,24.381,19.127a29.8,29.8,0,0,1,2.492,13.067c-.032,1.251.149,1.8,1.612,2.038a11.384,11.384,0,0,1,9.083,13.209c-.09.49-.125.99-.205,1.636a11.88,11.88,0,0,1,7.284,1.313,11.575,11.575,0,0,1,5.57,13.347c-.989,3.944-2.082,7.863-3.162,11.783-.574,2.082-1.8,3.14-3.473,3.113-1.742-.027-2.943-1.224-3.4-3.39,1.16-4.478,2.348-8.95,3.469-13.438a4.733,4.733,0,1,0-9.105-2.588C520.262,1093.686,518.922,1099.049,517.525,1104.394ZM458.3,1079.9a19.786,19.786,0,0,1,4.022,2.843v-2.872c.017-2.035.046-4.07.049-6.106.008-4.145,0-4.11-4.109-4.1-1,0-1.383.181-1.341,1.283.092,2.43.081,4.866,0,7.3C456.887,1079.316,457.272,1079.817,458.3,1079.9Zm28.277-13.586c.57-2,1.154-4,1.706-6.008,1.369-4.979,4.463-8.175,9.6-9.149a11.824,11.824,0,0,1,8.018,1.586c-2.978-9.154-11.945-16.524-20.326-16.853v33.945l.191.039Q486.169,1068.093,486.572,1066.314Zm-7.856-24.215c0-1.7-.037-3.4.014-5.093.029-.948,0-1.354-1.247-1.121a25.248,25.248,0,0,0-20.524,24.107c-.072,2.9-.072,2.9,2.713,2.9,2.693,0,2.812-.006,2.675-2.769-.436-8.862,7.8-14.673,15.346-11.936.859.312,1.06.013,1.037-.824C478.682,1045.608,478.716,1043.852,478.716,1042.1Z" transform="translate(-395.029 -933.657)" fill="#020202"/>
          <path id="Trazado_640766" data-name="Trazado 640766" d="M535.287,941.809q0-14.533,0-29.065c0-3.48,1.117-4.6,4.561-4.61,2.1,0,4.2-.054,6.289.022,1.054.038,1.469-.181,1.426-1.355-.1-2.716-.047-5.437-.027-8.157.02-2.784,1.289-4.1,4.034-4.107q21.675-.023,43.351,0c2.65,0,3.968,1.332,3.97,4q.021,29.659,0,59.318c0,2.669-1.316,3.976-3.958,4.012-2.266.031-4.536.071-6.8-.021-1.144-.046-1.565.2-1.515,1.444.107,2.658.046,5.324.029,7.987-.018,2.955-1.279,4.2-4.289,4.2q-21.421.01-42.841,0c-2.994,0-4.227-1.245-4.23-4.257Q535.277,956.51,535.287,941.809Zm6.8-.065q0,12.748,0,25.5c0,.787-.181,1.472,1.129,1.465q17.766-.086,35.533-.013c.905,0,1.122-.264,1.12-1.137q-.042-17.592.011-35.185c0-1.148-.428-1.257-1.373-1.244-3.4.047-6.8.028-10.2.016-3.324-.011-4.522-1.193-4.532-4.467-.012-3.456-.05-6.913.025-10.368.024-1.135-.318-1.407-1.422-1.4-6.29.054-12.581.065-18.871-.007-1.245-.014-1.45.378-1.443,1.516C542.114,924.86,542.091,933.3,542.091,941.744ZM592.1,928.326c0-8.5-.021-17,.026-25.5.006-1.133-.2-1.536-1.448-1.531q-17.51.079-35.022.009c-1,0-1.423.186-1.341,1.289a30.01,30.01,0,0,1,0,4.245c-.071,1.063.271,1.335,1.318,1.315,3.512-.068,7.027.017,10.54-.044a5.261,5.261,0,0,1,4.079,1.7q7.335,7.449,14.75,14.819a5.354,5.354,0,0,1,1.674,4.087c-.044,7.478-.019,14.957-.019,22.436,0,3.943,0,3.872,3.937,3.952,1.353.028,1.54-.43,1.533-1.625C592.074,945.1,592.1,936.711,592.1,928.326Zm-21.387-8.041c-.7,3.945-.518,4.17,3.384,4.078.215-.005.451.029.534-.154Z" transform="translate(-424.727 -894.524)"/>
          <path id="Trazado_640767" data-name="Trazado 640767" d="M433.27,931.9c2.68.724,3.392,1.646,3.395,4.456q.009,10.538,0,21.076c0,3.24-1.182,4.423-4.4,4.434-2.153.007-4.309.057-6.459-.023-1.069-.039-1.458.2-1.418,1.364.095,2.716.047,5.438.026,8.157-.022,2.784-1.291,4.1-4.044,4.1q-21.675.023-43.351,0c-2.646,0-3.959-1.335-3.961-4.005q-.02-29.659,0-59.318c0-2.663,1.322-3.969,3.967-4,2.323-.03,4.648-.057,6.969.017,1.009.033,1.37-.178,1.333-1.279-.091-2.716-.043-5.438-.027-8.157.018-2.894,1.27-4.184,4.128-4.186q21.59-.017,43.181,0c2.759,0,4.034,1.309,4.049,4.093.022,3.8.015,7.592,0,11.388-.008,2.646-.776,3.6-3.392,4.281-2.616-.677-3.39-1.635-3.405-4.274-.014-2.38-.08-4.763.028-7.138.057-1.263-.281-1.6-1.569-1.589-10.315.059-20.63.029-30.946.037-1.691,0-3.963-.591-4.922.263-1.1.98-.172,3.3-.378,5.025-.162,1.357.4,1.566,1.608,1.537,3.342-.08,6.688.027,10.031-.05a5.571,5.571,0,0,1,4.387,1.785q7.261,7.4,14.629,14.7a5.526,5.526,0,0,1,1.706,4.246c-.049,7.423-.021,14.846-.021,22.269,0,4.014,0,3.97,4.067,3.983,1.112,0,1.413-.294,1.4-1.4-.057-5.779-.031-11.559-.025-17.339C429.868,933.55,430.592,932.619,433.27,931.9Zm-53.414,9.9q0,12.749-.012,25.5c0,.874-.025,1.415,1.193,1.409q17.681-.081,35.364-.013c.927,0,1.242-.2,1.238-1.192q-.053-17.592,0-35.185c0-1.009-.326-1.2-1.253-1.19q-5.354.077-10.711.01c-2.887-.035-4.112-1.29-4.132-4.172-.024-3.512-.055-7.027.021-10.538.026-1.165-.252-1.533-1.475-1.52q-9.35.1-18.7,0c-1.276-.016-1.576.3-1.566,1.569C379.887,924.913,379.857,933.355,379.857,941.8Zm28.571-21.337c-.195,4.935-.8,3.794,3.869,3.86.031,0,.063-.087.042-.055Z" transform="translate(-373.05 -894.525)"/>
          <path id="Trazado_640768" data-name="Trazado 640768" d="M442.085,934.993c-2.679.716-3.4,1.647-3.405,4.45-.007,5.78-.032,11.56.025,17.339.01,1.111-.291,1.408-1.4,1.4-4.067-.013-4.067.031-4.067-3.983,0-7.422-.028-14.846.021-22.268a5.526,5.526,0,0,0-1.706-4.246q-7.364-7.3-14.629-14.7a5.57,5.57,0,0,0-4.387-1.785c-3.343.078-6.689-.029-10.031.051-1.2.029-1.77-.181-1.608-1.537.206-1.721-.723-4.045.378-5.025.959-.855,3.23-.262,4.922-.263,10.315-.009,20.63.021,30.946-.037,1.288-.007,1.626.325,1.569,1.588-.108,2.375-.042,4.758-.028,7.138.015,2.639.789,3.6,3.405,4.273q-.007,2.556-.014,5.111c-2.318.7-3.426,1.874-3.379,3.571.047,1.719,1.223,2.874,3.4,3.337Q442.087,932.2,442.085,934.993Z" transform="translate(-381.865 -897.615)" fill="#809cf6"/>
          <path id="Trazado_640769" data-name="Trazado 640769" d="M481.9,1121.665q-.026-14.948-.051-29.9c-.007-5.1-.025-10.193.01-15.29a4.754,4.754,0,1,1,9.506-.169q.033,22.679-.027,45.357Z" transform="translate(-407.703 -950.925)" fill="#f6cdaf"/>
          <path id="Trazado_640770" data-name="Trazado 640770" d="M505.815,1123.288c-.855-6.311,1.208-12.172,2.795-18.1q3.149-11.778,6.328-23.548a16.288,16.288,0,0,1,.594-1.939,4.694,4.694,0,0,1,5.661-2.832,4.562,4.562,0,0,1,3.354,5.489c-1.571,6.3-3.279,12.561-4.943,18.834q-2.715,10.231-5.447,20.455c-.144.542-.219,1.1-.325,1.654Z" transform="translate(-415.276 -952.546)" fill="#f4cbae"/>
          <path id="Trazado_640771" data-name="Trazado 640771" d="M527.894,1128.94c2.741-10.3,5.451-20.617,8.242-30.908a4.76,4.76,0,1,1,9.15,2.611c-2.32,8.785-4.68,17.56-7.018,26.34-.173.652-.289,1.32-.431,1.98Z" transform="translate(-422.372 -958.198)" fill="#f4cbae"/>
          <path id="Trazado_640772" data-name="Trazado 640772" d="M552.8,1135.96c1.4-5.346,2.737-10.708,4.219-16.031a4.733,4.733,0,1,1,9.105,2.588c-1.121,4.488-2.309,8.96-3.469,13.439Z" transform="translate(-430.306 -965.222)" fill="#f4cbae"/>
          <path id="Trazado_640773" data-name="Trazado 640773" d="M455.406,1136.337c-1.073-4.2-2.163-8.405-3.211-12.616a4.715,4.715,0,0,1,2.013-5.308,4.617,4.617,0,0,1,7.014,2.521c1.5,5.078,2.747,10.23,4.1,15.351Z" transform="translate(-398.206 -965.592)" fill="#f4cbae"/>
          <path id="Trazado_640774" data-name="Trazado 640774" d="M502.648,969.554c0,2.2.031,4.41-.008,6.614-.04,2.3-1.475,3.85-3.443,3.819a3.472,3.472,0,0,1-3.342-3.745q-.061-6.784,0-13.568a3.468,3.468,0,0,1,3.352-3.734c1.969-.024,3.394,1.528,3.432,3.829C502.678,965.031,502.648,967.292,502.648,969.554Z" transform="translate(-412.157 -915.043)" fill="#020202"/>
          <path id="Trazado_640775" data-name="Trazado 640775" d="M514.291,1000.526c.1-2,5.7-7.618,7.709-7.727a3.161,3.161,0,0,1,3.108,1.658,2.954,2.954,0,0,1-.124,3.5,34.067,34.067,0,0,1-5.5,5.5,2.982,2.982,0,0,1-3.506.161A3.255,3.255,0,0,1,514.291,1000.526Z" transform="translate(-418.038 -925.825)" fill="#060606"/>
          <path id="Trazado_640776" data-name="Trazado 640776" d="M477.929,1004.165a3.316,3.316,0,0,1-2.168-1.113c-1.389-1.325-2.77-2.664-4.078-4.068-1.542-1.655-1.581-3.6-.2-4.988s3.356-1.361,4.985.167c1.523,1.428,3,2.917,4.393,4.468a3.08,3.08,0,0,1,.455,3.632A3.464,3.464,0,0,1,477.929,1004.165Z" transform="translate(-404.086 -925.888)" fill="#060606"/>
          <path id="Trazado_640777" data-name="Trazado 640777" d="M499.307,1004.477a3.483,3.483,0,0,1-3.428-3.29,3.387,3.387,0,1,1,6.773-.091A3.493,3.493,0,0,1,499.307,1004.477Z" transform="translate(-412.174 -927.406)" fill="#060606"/>
          <path id="Trazado_640778" data-name="Trazado 640778" d="M459.836,937.947c-2.173-.463-3.349-1.618-3.4-3.337-.046-1.7,1.061-2.868,3.379-3.572a4.128,4.128,0,0,1,2.988,1.933C463.936,935.164,462.646,937.341,459.836,937.947Z" transform="translate(-399.611 -906.155)" fill="#060606"/>
          <path id="Trazado_640779" data-name="Trazado 640779" d="M505.919,1074.948v-30.405c8.381.329,17.348,7.7,20.326,16.853a11.822,11.822,0,0,0-8.018-1.586c-5.142.975-8.236,4.17-9.6,9.149-.551,2.007-1.136,4.005-1.706,6.008Z" transform="translate(-415.372 -942.309)" fill="#b6e1f9"/>
          <path id="Trazado_640780" data-name="Trazado 640780" d="M485.676,1050.719c0,1.754-.035,3.509.015,5.262.023.837-.179,1.135-1.037.824-7.543-2.737-15.782,3.073-15.346,11.935.136,2.763.018,2.77-2.675,2.77-2.784,0-2.784,0-2.713-2.9a25.249,25.249,0,0,1,20.524-24.107c1.25-.232,1.276.173,1.247,1.121C485.639,1047.323,485.676,1049.022,485.676,1050.719Z" transform="translate(-401.989 -942.277)" fill="#b5e1f8"/>
          <path id="Trazado_640781" data-name="Trazado 640781" d="M465.242,1104.34c-1.023-.083-1.409-.583-1.375-1.653.077-2.43.088-4.867,0-7.3-.042-1.1.344-1.28,1.341-1.283,4.111-.012,4.117-.047,4.109,4.1,0,2.036-.032,4.071-.049,6.107Z" transform="translate(-401.976 -958.097)" fill="#8ad4f8"/>
          <path id="Trazado_640782" data-name="Trazado 640782" d="M465.888,1109.11l4.022-.028v2.871A19.814,19.814,0,0,0,465.888,1109.11Z" transform="translate(-402.621 -962.867)" fill="#ecf0f7"/>
          <path id="Trazado_640783" data-name="Trazado 640783" d="M505.919,1089.16l1,.019-.806,3.56-.191-.039Z" transform="translate(-415.372 -956.521)" fill="#8ad4f8"/>
          <path id="Trazado_640784" data-name="Trazado 640784" d="M545.259,951.269c0-8.442.023-16.884-.027-25.326-.007-1.138.2-1.529,1.443-1.516,6.289.072,12.581.061,18.871.007,1.1-.009,1.447.263,1.422,1.4-.075,3.454-.036,6.911-.025,10.368.01,3.274,1.208,4.456,4.532,4.467,3.4.012,6.8.031,10.2-.016.945-.013,1.378.1,1.373,1.244q-.073,17.592-.011,35.185c0,.874-.215,1.14-1.12,1.137q-17.766-.046-35.533.013c-1.31.007-1.129-.678-1.129-1.465Q545.263,964.017,545.259,951.269Zm18.861-.625H569.9c.113,0,.227,0,.339,0,2.236-.116,3.655-1.45,3.642-3.424s-1.433-3.339-3.684-3.365q-6.029-.066-12.06,0c-2.267.023-3.7,1.352-3.731,3.323-.034,2.038,1.425,3.41,3.773,3.461C560.156,950.678,562.139,950.644,564.121,950.644Zm.034,6.8c-1.982,0-3.964-.027-5.945.008-2.362.041-3.823,1.38-3.807,3.421.016,1.965,1.446,3.334,3.7,3.361q6.029.074,12.06,0c2.258-.026,3.693-1.379,3.719-3.337.027-2.048-1.426-3.4-3.778-3.447C568.119,957.414,566.136,957.443,564.155,957.443Z" transform="translate(-427.895 -904.049)" fill="#edf0f7"/>
          <path id="Trazado_640785" data-name="Trazado 640785" d="M600.986,931.493c0,8.385-.024,16.771.026,25.155.008,1.2-.179,1.653-1.532,1.625-3.936-.08-3.937-.009-3.937-3.952,0-7.479-.025-14.958.019-22.436a5.352,5.352,0,0,0-1.674-4.087q-7.415-7.369-14.75-14.819a5.261,5.261,0,0,0-4.079-1.7c-3.512.061-7.027-.023-10.54.044-1.047.02-1.39-.252-1.318-1.315a30.006,30.006,0,0,0,0-4.246c-.082-1.1.338-1.291,1.341-1.289q17.51.05,35.021-.01c1.249-.006,1.454.4,1.448,1.531C600.965,914.5,600.986,922.994,600.986,931.493Z" transform="translate(-433.615 -897.691)" fill="#809cf6"/>
          <path id="Trazado_640786" data-name="Trazado 640786" d="M587.121,932.325l3.917,3.924c-.083.183-.318.149-.534.154C586.6,936.495,586.424,936.27,587.121,932.325Z" transform="translate(-441.137 -906.565)" fill="#e3b770"/>
          <path id="Trazado_640787" data-name="Trazado 640787" d="M383.023,951.321c0-8.442.031-16.885-.033-25.326-.01-1.267.29-1.585,1.566-1.57q9.349.112,18.7,0c1.223-.013,1.5.355,1.475,1.52-.076,3.511-.046,7.025-.021,10.537.02,2.882,1.244,4.137,4.132,4.172q5.354.065,10.711-.01c.927-.014,1.256.181,1.253,1.19q-.055,17.593,0,35.185c0,.994-.311,1.195-1.238,1.192q-17.682-.044-35.364.013c-1.217.005-1.195-.536-1.193-1.409Q383.041,964.07,383.023,951.321Zm17.927-.679c2.038,0,4.078.037,6.116-.01,2.209-.05,3.734-1.436,3.777-3.337.044-1.949-1.543-3.426-3.828-3.447q-5.945-.053-11.892,0c-2.3.018-3.878,1.463-3.861,3.414s1.591,3.334,3.912,3.374C397.1,950.67,399.024,950.643,400.949,950.643Zm.269,6.8c-2.038,0-4.078-.028-6.115.008-2.291.04-3.875,1.486-3.842,3.436a3.5,3.5,0,0,0,3.762,3.347q6.03.068,12.061,0a3.5,3.5,0,0,0,3.757-3.353c.029-1.951-1.556-3.391-3.848-3.431C405.069,957.416,403.143,957.443,401.218,957.443Z" transform="translate(-376.216 -904.049)" fill="#ecf0f7"/>
          <path id="Trazado_640788" data-name="Trazado 640788" d="M424.9,932.583l3.91,3.805c.021-.031-.011.056-.042.055C424.1,936.378,424.706,937.518,424.9,932.583Z" transform="translate(-389.523 -906.647)" fill="#e3b770"/>
          <path id="Trazado_640789" data-name="Trazado 640789" d="M568.406,959.709c-1.982,0-3.965.034-5.945-.009-2.348-.051-3.807-1.422-3.773-3.46.033-1.971,1.463-3.3,3.73-3.324q6.03-.059,12.06,0c2.251.025,3.672,1.385,3.684,3.365s-1.406,3.307-3.642,3.424c-.112.006-.226,0-.339,0Z" transform="translate(-432.181 -913.114)" fill="#020202"/>
          <path id="Trazado_640790" data-name="Trazado 640790" d="M568.441,972.871c1.982,0,3.964-.029,5.945.007,2.352.045,3.8,1.4,3.778,3.447-.026,1.957-1.461,3.31-3.719,3.336q-6.029.07-12.06,0c-2.25-.027-3.68-1.4-3.7-3.361-.016-2.041,1.445-3.38,3.807-3.421C564.477,972.844,566.459,972.871,568.441,972.871Z" transform="translate(-432.181 -919.476)" fill="#020202"/>
          <path id="Trazado_640791" data-name="Trazado 640791" d="M404.815,959.71c-1.925,0-3.851.026-5.776-.007-2.321-.04-3.894-1.421-3.912-3.374s1.565-3.4,3.861-3.414q5.946-.049,11.892,0c2.286.02,3.873,1.5,3.829,3.447-.042,1.9-1.567,3.287-3.777,3.337C408.893,959.746,406.854,959.709,404.815,959.71Z" transform="translate(-380.082 -913.116)" fill="#020202"/>
          <path id="Trazado_640792" data-name="Trazado 640792" d="M405.084,972.871c1.925,0,3.851-.027,5.775.007,2.292.041,3.877,1.48,3.848,3.431a3.5,3.5,0,0,1-3.757,3.353q-6.03.07-12.061,0a3.5,3.5,0,0,1-3.762-3.347c-.033-1.951,1.551-3.4,3.841-3.436C401.006,972.843,403.046,972.871,405.084,972.871Z" transform="translate(-380.082 -919.477)" fill="#020202"/>
        </g>
      </g>
    </g>
  </g>
</svg>
