<svg xmlns="http://www.w3.org/2000/svg" width="205" height="205" viewBox="0 0 205 205">
  <g id="Grupo_980803" data-name="Grupo 980803" transform="translate(-0.199)">
    <rect id="Rectángulo_308324" data-name="Rectángulo 308324" width="205" height="205" transform="translate(0.199 0)" fill="none"/>
    <g id="Grupo_980806" data-name="Grupo 980806" transform="translate(24.331 24.086)">
      <path id="Trazado_640686" data-name="Trazado 640686" d="M79.134,599.726,53.457,574.069c-1.271-1.269-2.572-2.511-3.8-3.822a11.974,11.974,0,0,1,.084-16.909q3.734-3.885,7.622-7.622a11.971,11.971,0,0,1,16.913-.015c2.813,2.7,5.5,5.523,8.545,8.588,0-3.21-.009-6.01,0-8.81.01-2.335.919-3.241,3.274-3.241q56.848-.006,113.7,0c2.35,0,3.272.911,3.272,3.245q.007,70.141-.008,140.281a12.98,12.98,0,0,1-13.22,13.256q-52.111.04-104.222,0a13.009,13.009,0,0,1-13.243-13.232c-.038-7.131-.009-14.262-.008-21.394,0-.7.111-1.323-.823-1.691-.9-.356-1.171.252-1.6.668-1.095,1.06-2.15,2.161-3.248,3.217-1.512,1.453-2.806,1.5-4.26.062q-5-4.931-9.937-9.927c-1.448-1.466-1.423-2.766.017-4.257,1.133-1.174,2.309-2.308,3.462-3.464.378-.378.756-.684.443-1.378a1.227,1.227,0,0,0-1.334-.872c-1.9.043-3.811.028-5.717.011-2.156-.019-3.13-.946-3.137-3.05q-.029-7.431,0-14.861c.009-2.017.991-2.965,3.029-2.989q2.859-.033,5.718,0c.635.007,1.091-.05,1.408-.764.329-.74-.011-1.089-.45-1.52-1.163-1.145-2.332-2.286-3.462-3.464-1.378-1.438-1.422-2.747-.052-4.138q4.985-5.062,10.049-10.045c1.4-1.376,2.7-1.343,4.139.03,1.219,1.165,2.4,2.367,3.579,3.577a1.07,1.07,0,0,0,1.4.34,1.133,1.133,0,0,0,.786-1.227c-.036-1.85-.018-3.7-.011-5.552.01-2.475.878-3.359,3.306-3.376C76.7,599.72,77.718,599.726,79.134,599.726Zm9.189,9.077c-.193.229-.251.265-.251.3q-.014,28.826-.04,57.651c0,.889.387.926,1.074.925q18.542-.022,37.084.007c.847,0,1.116-.216,1.09-1.081-.062-2.066-.031-4.137-.016-6.206.016-2.243.934-3.169,3.171-3.181,2.94-.016,5.881-.033,8.821.015.842.014,1.115-.206,1.1-1.078-.058-2.612-.08-5.228,0-7.838.042-1.289-.094-2.263-1.5-2.771a3.308,3.308,0,0,1-2.02-1.825c-.824-2.518-2.766-2.271-4.705-2.186a2.384,2.384,0,0,1-.489,0c-1.339-.22-1.937.146-1.8,1.687.167,1.891.057,3.807.035,5.712-.024,2.044-.973,3.046-2.976,3.05q-12.742.027-25.485,0a2.576,2.576,0,0,1-2.891-2.8q-.043-10.288,0-20.578a2.5,2.5,0,0,1,2.612-2.732q13.068-.052,26.138,0a2.5,2.5,0,0,1,2.587,2.592c.06,1.249.006,2.5.02,3.756.014,1.3-.448,3.024.2,3.785.771.9,2.552.161,3.886.3a1.994,1.994,0,0,0,2.234-1.28c2.65-4.8,9.582-5.456,12.714-.963a4.723,4.723,0,0,0,5.033,2.24,3.243,3.243,0,0,1,.816,0c.975.154,1.323-.168,1.277-1.219-.092-2.119-.054-4.245-.018-6.368a2.584,2.584,0,0,1,2.823-2.861q12.825-.036,25.649,0a2.576,2.576,0,0,1,2.876,2.809q.043,10.208,0,20.415a2.58,2.58,0,0,1-2.8,2.887q-12.906.038-25.812,0a2.566,2.566,0,0,1-2.738-2.783c-.037-1.088,0-2.177-.011-3.266-.02-1.406.491-3.357-.228-4.081-.929-.936-2.873-.2-4.374-.312a1.285,1.285,0,0,0-1.491.876,6.708,6.708,0,0,1-3.505,3.495,1.33,1.33,0,0,0-.864,1.5c.024,2.885.046,5.771-.011,8.655-.018.915.228,1.2,1.163,1.177,2.994-.06,5.99-.043,8.985-.014a2.631,2.631,0,0,1,2.936,2.921c.033,2.068.067,4.14-.017,6.2-.043,1.057.248,1.356,1.329,1.347,6.262-.055,12.525-.03,18.787-.026,2.565,0,3.43.863,3.433,3.415q.01,7.35,0,14.7a7.852,7.852,0,0,0,10.621,7.487c3.219-1.227,5.061-4.035,5.062-7.8q.007-68.267.032-136.534c0-1.21-.269-1.513-1.5-1.51q-31.366.065-62.733.031c-14.7,0-29.407.017-44.11-.031-1.218,0-1.55.276-1.509,1.5.1,2.991.071,5.988.012,8.98a3.183,3.183,0,0,0,1.027,2.563q9.522,9.419,18.955,18.929c.641.644,1.1,1.271,1.858.1a1.861,1.861,0,0,1,1.6-.681c3.54,0,7.081-.056,10.618.019a2.534,2.534,0,0,1,2.4,3.422,2.674,2.674,0,0,1-2.814,1.782c-2.9-.018-5.807-.006-8.983-.006a21.357,21.357,0,0,1,3.044,4.188,1.78,1.78,0,0,0,1.915,1.054q14.621-.04,29.242-.016a14.09,14.09,0,0,1,1.47.02,2.6,2.6,0,0,1-.024,5.188,12.622,12.622,0,0,1-1.306.019H118.343c.383,1.414.818,2.648,1.032,3.921.185,1.105.712,1.332,1.747,1.327,8.767-.04,17.535-.026,26.3-.021,2.174,0,3.394.984,3.354,2.669-.038,1.626-1.22,2.553-3.308,2.555q-12.171.009-24.342,0H121.19c.813,2.982,1.69,5.779,2.307,8.633.332,1.535,1.008,1.867,2.5,1.857q16.581-.107,33.163,0c1.624.011,2.14-.285,2.132-2.046-.077-17.311-.047-34.623-.045-51.935,0-2.7.826-3.547,3.461-3.549q9.639-.007,19.277,0c2.542,0,3.4.873,3.4,3.447q.006,22.7,0,45.4c0,2.549-.873,3.411-3.438,3.414-5.391.005-10.783.034-16.173-.026-1.091-.012-1.37.306-1.323,1.353.084,1.847.026,3.7.023,5.551-.005,2.769-.815,3.575-3.6,3.576q-19.85,0-39.7.012a11.387,11.387,0,0,1-3.054-.418q-8.328-2.275-16.658-4.544C98.058,614.212,92.532,613.024,88.323,608.8Zm91.174,85a14.318,14.318,0,0,1-2.584-8.5c.062-3.645-.047-7.292.048-10.936.033-1.249-.327-1.5-1.524-1.495-8.327.056-16.654.029-24.981.029q-35.677,0-71.353-.026c-1.158,0-1.584.183-1.545,1.472.106,3.479.036,6.964.037,10.446,0,5.975,3.046,9.012,9.04,9.012H179.5ZM166.474,584.056c0,6.529.026,13.059-.026,19.588-.009,1.074.286,1.349,1.345,1.334,4.354-.061,8.708-.044,13.062-.01.886.007,1.335-.054,1.331-1.178q-.069-19.75-.009-39.5c0-.928-.259-1.176-1.175-1.166-4.408.046-8.818.06-13.225-.007-1.091-.016-1.334.31-1.326,1.353C166.5,571,166.474,577.527,166.474,584.056Zm-83.679,26.11h.029V608.86c0-4.076,0-4.049-4.139-3.929-.841.025-1.141.227-1.108,1.1.064,1.685.008,3.374.021,5.061a2.792,2.792,0,0,1-2,2.844c-1.314.511-2.617,1.059-3.891,1.663a2.748,2.748,0,0,1-3.422-.574c-1-1-2.024-1.98-3-3-.486-.513-.843-.719-1.442-.1-1.774,1.843-3.592,3.643-5.424,5.43-.5.491-.526.834-.006,1.326,1.068,1.009,2.09,2.066,3.124,3.11a2.75,2.75,0,0,1,.556,3.424c-.608,1.272-1.152,2.576-1.664,3.89a2.79,2.79,0,0,1-2.853,1.984c-1.633-.015-3.27.066-4.9-.028-1.053-.061-1.27.324-1.247,1.294.062,2.665.056,5.333,0,8-.018.9.2,1.249,1.165,1.206,1.684-.076,3.374-.02,5.062-.02a2.715,2.715,0,0,1,2.736,1.907c.518,1.312,1.036,2.629,1.66,3.891a2.8,2.8,0,0,1-.576,3.558c-1,1-1.975,2.029-3.012,2.991-.582.539-.551.9.008,1.444,1.8,1.741,3.582,3.5,5.308,5.314.653.687,1.029.469,1.56-.1.969-1.031,1.988-2.015,3-3a2.687,2.687,0,0,1,3.285-.553q1.994.923,4.04,1.732a2.725,2.725,0,0,1,1.922,2.726q0,1.143,0,2.286c0,4.091,0,4.053,4.108,3.964.981-.021,1.152-.371,1.137-1.236-.046-2.666-.065-5.334.007-8,.027-1.006-.275-1.233-1.262-1.3a20.9,20.9,0,0,1-3.316-41.274c1.5-.355,3.683.218,4.364-.924C83.352,613.763,82.794,611.8,82.794,610.166Zm31.231,36.6c3.1,0,6.2-.025,9.3.016.9.012,1.364-.1,1.347-1.2-.065-4.459-.045-8.918-.012-13.376.006-.824-.2-1.136-1.084-1.131q-9.383.052-18.765,0c-.878-.005-1.1.29-1.091,1.123.034,4.459.054,8.918-.011,13.377-.016,1.1.428,1.225,1.34,1.211C108.041,646.737,111.033,646.764,114.025,646.764Zm57.635,0c3.1,0,6.2-.03,9.3.018.9.014,1.224-.205,1.213-1.165q-.073-6.69,0-13.381c.01-.957-.314-1.171-1.212-1.167q-9.223.052-18.445,0c-.968-.007-1.313.2-1.3,1.249q.091,6.607,0,13.217c-.014,1.043.325,1.27,1.3,1.252C165.564,646.728,168.612,646.764,171.66,646.764ZM93.352,606.177c3.036,2.428,6.755,3.1,10.337,4.151a1.723,1.723,0,0,0,1.988-.54c2.2-2.258,4.32-4.623,6.719-6.653a4.3,4.3,0,0,0,1.456-5.448c-1.034-2.9-1.674-5.937-3.683-8.342Zm-10.527,17.09a9.284,9.284,0,0,1,.012-1.467c.184-1.129-.395-1.2-1.3-1.141a15.684,15.684,0,0,0-1.7,31.029c2.985.524,2.985.524,2.985-2.4a7.993,7.993,0,0,1,.006-.978c.133-1.06-.086-1.507-1.378-1.678a10.323,10.323,0,0,1-9.075-9.946,10.133,10.133,0,0,1,8.357-10.5c1.928-.327,2.4-1.06,2.091-2.748A.9.9,0,0,1,82.824,623.267Zm17.093-31.4c-.384-.415-.7-.778-1.036-1.118Q87.815,579.677,76.735,568.62c-.989-.985-1.844-2.706-3.075-2.689s-1.987,1.827-3.089,2.69c-1.024.8-.788,1.334.041,2.156q11.116,11.02,22.158,22.116c3.45,3.448,3.45,3.449,6.621-.371C99.555,592.323,99.714,592.118,99.917,591.865ZM51.443,561.849a7.232,7.232,0,0,0,1.694,4.482c.591.717,1.01.909,1.788.121q7.735-7.835,15.573-15.568c.715-.707.551-1.093-.09-1.677a6.738,6.738,0,0,0-9.076-.011c-2.809,2.644-5.5,5.413-8.193,8.182A6.461,6.461,0,0,0,51.443,561.849Zm28.429-2.917a6.181,6.181,0,0,1-1.061,1.432c-1.4,1.047-1.172,1.8.013,2.97,7.7,7.589,15.325,15.263,22.973,22.908,2.075,2.075,2.05,2.052,4.089-.174.538-.587.508-.908-.031-1.445Q93.382,572.2,80.936,559.742A2.469,2.469,0,0,0,79.872,558.932Zm12.178,41.133a2.338,2.338,0,0,0-.951-1.417q-6.11-6.133-12.241-12.247c-4.044-4.042-8.1-8.067-12.114-12.142-.693-.7-1.171-.858-1.791-.009a3.507,3.507,0,0,1-.807.805c-1.2.831-.881,1.46.041,2.373,8.007,7.932,15.957,15.923,23.948,23.871.4.4.74,1.381,1.485.907A18.75,18.75,0,0,0,92.051,600.064Zm51.041,62.383h-6.685c-3.979,0-3.93,0-3.947,3.934,0,1.112.355,1.322,1.374,1.313,5.217-.048,10.434-.022,15.652-.022,4.046,0,4.011,0,3.942-4.1-.016-.956-.322-1.16-1.207-1.146C149.179,662.477,146.135,662.447,143.092,662.447Zm-66.784-107.4a11.883,11.883,0,0,0-1.08-.977c-.454-.331-.682.151-.922.391-5.272,5.256-10.522,10.533-15.813,15.77-.659.652-.505,1,.062,1.558.53.522.862.623,1.44.041q7.867-7.924,15.777-15.806A1.143,1.143,0,0,0,76.307,555.051Zm6.514,81.3c0-1.414-.049-2.831.018-4.243.045-.951-.316-1.1-1.155-.915a5.246,5.246,0,0,0,.076,10.249c.759.152,1.1.01,1.074-.848C82.785,639.185,82.821,637.77,82.821,636.355Zm33.142-29.313a1.37,1.37,0,0,0-.273.167c-1.5,1.493-3.006,2.979-4.482,4.495-.407.418-.131.64.338.762q2.825.741,5.643,1.512c.787.216,1-.059.8-.816-.516-1.878-1.014-3.76-1.518-5.641C116.4,607.257,116.341,606.983,115.964,607.042Zm26.986,29.269a2.612,2.612,0,1,0,2.606,2.576A2.626,2.626,0,0,0,142.95,636.311Z" transform="translate(-46.205 -542.21)" fill="#010101"/>
      <path id="Trazado_640687" data-name="Trazado 640687" d="M110.374,611.557c4.209,4.22,9.734,5.408,15.134,6.879q8.329,2.271,16.658,4.544a11.392,11.392,0,0,0,3.054.418q19.85-.028,39.7-.013c2.789,0,3.6-.807,3.6-3.576,0-1.851.062-3.7-.023-5.551-.048-1.047.232-1.364,1.323-1.353,5.391.06,10.783.031,16.173.026,2.565,0,3.437-.865,3.438-3.414q.006-22.7,0-45.4c0-2.574-.859-3.444-3.4-3.447q-9.639-.009-19.277,0c-2.635,0-3.461.849-3.461,3.548,0,17.312-.031,34.624.045,51.935.008,1.761-.509,2.057-2.132,2.046q-16.581-.113-33.163,0c-1.49.009-2.165-.322-2.5-1.857-.617-2.854-1.495-5.652-2.307-8.633h1.939q12.171,0,24.342,0c2.088,0,3.27-.928,3.308-2.555.04-1.685-1.18-2.668-3.354-2.669-8.767,0-17.535-.019-26.3.021-1.036,0-1.562-.222-1.747-1.327-.213-1.272-.649-2.507-1.032-3.921h28.684a12.57,12.57,0,0,0,1.306-.019,2.6,2.6,0,0,0,.024-5.188,14.123,14.123,0,0,0-1.47-.02q-14.621,0-29.242.016a1.78,1.78,0,0,1-1.915-1.054,21.351,21.351,0,0,0-3.044-4.188c3.176,0,6.08-.012,8.983.006a2.674,2.674,0,0,0,2.814-1.782,2.534,2.534,0,0,0-2.4-3.422c-3.537-.075-7.078-.022-10.618-.019a1.862,1.862,0,0,0-1.6.681c-.754,1.168-1.217.541-1.858-.1q-9.45-9.493-18.955-18.929a3.183,3.183,0,0,1-1.027-2.562c.06-2.993.088-5.99-.012-8.981-.041-1.229.291-1.508,1.509-1.5,14.7.047,29.406.031,44.109.031q31.367,0,62.733-.031c1.23,0,1.5.3,1.5,1.51q-.052,68.267-.032,136.534c0,3.763-1.843,6.572-5.062,7.8A7.852,7.852,0,0,1,204.2,688.54q.016-7.35,0-14.7c0-2.552-.869-3.412-3.433-3.415-6.262,0-12.525-.029-18.787.026-1.081.009-1.372-.29-1.329-1.347.084-2.065.05-4.136.017-6.2a2.632,2.632,0,0,0-2.936-2.921c-2.995-.029-5.991-.045-8.985.015-.935.018-1.181-.263-1.163-1.177.058-2.884.035-5.77.011-8.655a1.329,1.329,0,0,1,.864-1.5,6.709,6.709,0,0,0,3.505-3.495,1.284,1.284,0,0,1,1.491-.876c1.5.116,3.445-.623,4.374.312.719.724.208,2.675.228,4.081.014,1.089-.026,2.178.011,3.266a2.566,2.566,0,0,0,2.738,2.783q12.906.044,25.812,0a2.58,2.58,0,0,0,2.8-2.887q.034-10.207,0-20.415a2.576,2.576,0,0,0-2.875-2.809q-12.825-.031-25.649,0a2.585,2.585,0,0,0-2.823,2.861c-.036,2.123-.074,4.249.018,6.368.046,1.051-.3,1.372-1.277,1.218a3.24,3.24,0,0,0-.816,0,4.723,4.723,0,0,1-5.033-2.24c-3.131-4.493-10.064-3.838-12.714.963a1.994,1.994,0,0,1-2.234,1.28c-1.334-.143-3.115.6-3.886-.3-.653-.761-.19-2.486-.2-3.786-.014-1.252.041-2.506-.02-3.755a2.5,2.5,0,0,0-2.587-2.593q-13.069-.052-26.138,0a2.5,2.5,0,0,0-2.612,2.732q-.045,10.289,0,20.578a2.576,2.576,0,0,0,2.891,2.795q12.743.03,25.486,0c2,0,2.952-1.006,2.976-3.05.022-1.905.132-3.822-.035-5.712-.137-1.541.462-1.907,1.8-1.686a2.393,2.393,0,0,0,.489,0c1.94-.085,3.882-.331,4.705,2.186a3.308,3.308,0,0,0,2.02,1.825c1.411.508,1.546,1.482,1.5,2.771-.084,2.61-.062,5.227,0,7.838.019.872-.254,1.091-1.1,1.078-2.94-.049-5.881-.031-8.821-.015-2.237.012-3.154.938-3.171,3.181-.015,2.069-.046,4.139.016,6.205.026.865-.243,1.083-1.09,1.081q-18.543-.039-37.084-.007c-.687,0-1.076-.036-1.074-.925q.047-28.826.04-57.651C110.122,611.823,110.181,611.787,110.374,611.557Zm41.561-40.437q-8.81,0-17.62,0c-2.085,0-3.258.928-3.292,2.559-.033,1.647,1.154,2.662,3.189,2.663q17.7.011,35.4,0c2.041,0,3.233-1,3.212-2.642s-1.2-2.577-3.273-2.58Q160.745,571.113,151.935,571.121Zm10.4,15.682c2.5,0,5,.018,7.5-.006,1.872-.018,3.048-1.1,3-2.683-.044-1.528-1.178-2.529-2.983-2.535q-7.416-.028-14.832,0c-1.921.006-3.074,1.006-3.081,2.6s1.156,2.606,3.062,2.621C157.441,586.818,159.886,586.8,162.331,586.8Zm-18.245-26.135c-1.683,0-3.367-.031-5.049.008a2.6,2.6,0,0,0-2.787,2.559,2.572,2.572,0,0,0,2.7,2.644q5.13.068,10.261,0a2.606,2.606,0,1,0-.075-5.2C147.452,560.637,145.768,560.668,144.086,560.668Zm20.947,5.226c1.683,0,3.367.035,5.049-.01a2.606,2.606,0,1,0,.006-5.2c-3.366-.041-6.732-.035-10.1,0a2.613,2.613,0,1,0-.005,5.21C161.666,565.926,163.35,565.9,165.033,565.894Z" transform="translate(-68.255 -544.964)" fill="#e9edf0"/>
      <path id="Trazado_640688" data-name="Trazado 640688" d="M196.032,762.711H103.171c-5.995,0-9.04-3.036-9.04-9.012,0-3.482.069-6.967-.037-10.446-.039-1.289.388-1.473,1.545-1.472q35.676.051,71.353.026c8.327,0,16.655.027,24.981-.03,1.2-.008,1.556.246,1.524,1.495-.1,3.643.013,7.291-.048,10.936A14.318,14.318,0,0,0,196.032,762.711Z" transform="translate(-62.739 -611.116)" fill="#d9dbdd"/>
      <path id="Trazado_640689" data-name="Trazado 640689" d="M229.887,595.081c0-6.529.024-13.059-.024-19.588-.008-1.043.235-1.37,1.326-1.353,4.408.066,8.817.052,13.225.006.916-.01,1.177.238,1.175,1.166q-.044,19.752.009,39.5c0,1.125-.445,1.186-1.331,1.178-4.354-.035-8.708-.051-13.062.01-1.059.014-1.353-.26-1.345-1.334C229.913,608.14,229.887,601.61,229.887,595.081Z" transform="translate(-109.619 -553.236)" fill="#d9dbdd"/>
      <path id="Trazado_640690" data-name="Trazado 640690" d="M85.551,643.226c0,1.632.557,3.6-.161,4.8-.681,1.142-2.864.57-4.364.924a20.9,20.9,0,0,0,3.316,41.274c.987.065,1.29.292,1.262,1.3-.073,2.665-.054,5.333-.007,8,.015.865-.156,1.215-1.137,1.236-4.109.089-4.108.126-4.108-3.964q0-1.143,0-2.286a2.725,2.725,0,0,0-1.922-2.726q-2.043-.809-4.04-1.732a2.687,2.687,0,0,0-3.285.553c-1.012.989-2.031,1.973-3,3-.531.565-.907.783-1.56.1-1.726-1.813-3.509-3.573-5.308-5.314-.558-.541-.59-.9-.008-1.444,1.037-.961,2.012-1.99,3.012-2.991a2.8,2.8,0,0,0,.576-3.558c-.625-1.262-1.143-2.58-1.66-3.892a2.715,2.715,0,0,0-2.736-1.906c-1.688,0-3.378-.056-5.062.02-.962.043-1.183-.306-1.165-1.206.054-2.666.06-5.334,0-8-.023-.97.194-1.355,1.247-1.294,1.628.094,3.265.012,4.9.027a2.789,2.789,0,0,0,2.853-1.984c.512-1.313,1.056-2.618,1.664-3.89a2.749,2.749,0,0,0-.556-3.424c-1.034-1.045-2.056-2.1-3.124-3.111-.52-.491-.5-.835.006-1.326,1.831-1.787,3.649-3.587,5.424-5.43.6-.623.956-.417,1.442.1.975,1.025,2,2.007,3,3a2.749,2.749,0,0,0,3.422.573c1.274-.6,2.577-1.152,3.891-1.663a2.793,2.793,0,0,0,2-2.844c-.013-1.687.043-3.375-.021-5.061-.033-.872.266-1.074,1.108-1.1,4.14-.12,4.139-.147,4.139,3.929v1.306Z" transform="translate(-48.961 -575.27)" fill="#4e95df"/>
      <path id="Trazado_640691" data-name="Trazado 640691" d="M144.352,693.627c-2.992,0-5.984-.028-8.975.017-.913.014-1.356-.114-1.34-1.211.065-4.459.045-8.918.011-13.376-.007-.833.213-1.129,1.091-1.123q9.383.051,18.765,0c.887,0,1.089.308,1.084,1.131-.033,4.459-.054,8.918.012,13.376.016,1.107-.446,1.215-1.347,1.2C150.553,693.6,147.452,693.627,144.352,693.627Z" transform="translate(-76.532 -589.074)" fill="#d85047"/>
      <path id="Trazado_640692" data-name="Trazado 640692" d="M232.316,693.626c-3.048,0-6.1-.037-9.141.022-.972.018-1.312-.209-1.3-1.252q.09-6.607,0-13.217c-.014-1.046.331-1.256,1.3-1.249q9.223.06,18.445,0c.9,0,1.222.21,1.212,1.167q-.073,6.69,0,13.381c.01.96-.317,1.18-1.213,1.165C238.52,693.6,235.418,693.626,232.316,693.626Z" transform="translate(-106.862 -589.071)" fill="#66bd89"/>
      <path id="Trazado_640693" data-name="Trazado 640693" d="M118.216,631.034,135.034,614.2c2.009,2.405,2.649,5.445,3.683,8.342a4.3,4.3,0,0,1-1.456,5.448c-2.4,2.03-4.518,4.4-6.719,6.653a1.723,1.723,0,0,1-1.988.54C124.971,634.137,121.252,633.462,118.216,631.034Z" transform="translate(-71.069 -567.068)" fill="#f6e7d8"/>
      <path id="Trazado_640694" data-name="Trazado 640694" d="M93.867,664.63a.9.9,0,0,0,0,.163c.312,1.688-.162,2.421-2.091,2.748a10.133,10.133,0,0,0-8.357,10.5,10.323,10.323,0,0,0,9.075,9.946c1.292.171,1.51.618,1.378,1.678a7.982,7.982,0,0,0-.006.978c0,2.928,0,2.928-2.985,2.4a15.684,15.684,0,0,1,1.7-31.029c.907-.063,1.486.012,1.3,1.141A9.282,9.282,0,0,0,93.867,664.63Z" transform="translate(-57.248 -583.574)" fill="#e6eaed"/>
      <path id="Trazado_640695" data-name="Trazado 640695" d="M112.41,604.375c-.2.253-.362.457-.528.656-3.171,3.82-3.171,3.82-6.62.371Q94.192,594.335,83.1,583.286c-.829-.822-1.065-1.354-.041-2.156,1.1-.863,1.866-2.673,3.089-2.69s2.086,1.7,3.075,2.689q11.093,11.043,22.146,22.128C111.712,603.6,112.026,603.959,112.41,604.375Z" transform="translate(-58.697 -554.72)" fill="#3e77b2"/>
      <path id="Trazado_640696" data-name="Trazado 640696" d="M54.206,564.608a6.461,6.461,0,0,1,1.7-4.472c2.689-2.769,5.384-5.538,8.193-8.182a6.738,6.738,0,0,1,9.076.011c.641.584.8.97.09,1.677q-7.831,7.739-15.573,15.568c-.778.788-1.2.6-1.788-.12A7.232,7.232,0,0,1,54.206,564.608Z" transform="translate(-48.967 -544.97)" fill="#d64f46"/>
      <path id="Trazado_640697" data-name="Trazado 640697" d="M96.56,567.75a2.469,2.469,0,0,1,1.064.81q12.46,12.44,24.919,24.881c.539.537.57.858.031,1.445-2.039,2.226-2.013,2.248-4.089.174-7.648-7.645-15.27-15.318-22.973-22.908-1.185-1.167-1.414-1.923-.013-2.97A6.186,6.186,0,0,0,96.56,567.75Z" transform="translate(-62.892 -551.029)" fill="#4e95e0"/>
      <path id="Trazado_640698" data-name="Trazado 640698" d="M101.1,616.655A18.756,18.756,0,0,1,98.67,618.8c-.745.475-1.08-.5-1.485-.907-7.991-7.948-15.941-15.938-23.948-23.871-.922-.913-1.239-1.543-.041-2.373A3.5,3.5,0,0,0,74,590.84c.621-.849,1.1-.695,1.791.008,4.011,4.074,8.071,8.1,12.114,12.142q6.123,6.121,12.241,12.247A2.338,2.338,0,0,1,101.1,616.655Z" transform="translate(-55.255 -558.801)" fill="#4e95e0"/>
      <path id="Trazado_640699" data-name="Trazado 640699" d="M188.581,725.847c3.043,0,6.087.03,9.129-.019.885-.014,1.191.19,1.207,1.146.069,4.1.1,4.1-3.942,4.1-5.217,0-10.435-.026-15.652.022-1.019.009-1.379-.2-1.374-1.313.017-3.933-.031-3.933,3.947-3.933Z" transform="translate(-91.694 -605.61)" fill="#f7d25a"/>
      <path id="Trazado_640700" data-name="Trazado 640700" d="M82.56,561.248a1.142,1.142,0,0,1-.536.977q-7.888,7.9-15.777,15.806c-.578.582-.911.481-1.44-.041-.568-.559-.721-.906-.062-1.558,5.291-5.236,10.541-10.513,15.813-15.769.241-.24.469-.723.922-.392A11.87,11.87,0,0,1,82.56,561.248Z" transform="translate(-52.457 -548.408)" fill="#f7d25a"/>
      <path id="Trazado_640701" data-name="Trazado 640701" d="M99.377,683.248c0,1.415-.036,2.83.013,4.243.03.858-.315,1-1.074.848a5.246,5.246,0,0,1-.076-10.249c.839-.188,1.2-.036,1.155.915C99.328,680.417,99.377,681.833,99.377,683.248Z" transform="translate(-62.76 -589.104)" fill="#3e77b2"/>
      <path id="Trazado_640702" data-name="Trazado 640702" d="M150.144,641.228c.375-.058.431.215.5.479.5,1.881,1,3.763,1.518,5.641.208.758-.009,1.032-.8.816q-2.817-.771-5.643-1.512c-.469-.122-.745-.344-.338-.762,1.476-1.516,2.983-3,4.482-4.495A1.357,1.357,0,0,1,150.144,641.228Z" transform="translate(-80.383 -576.397)" fill="#404447"/>
      <path id="Trazado_640703" data-name="Trazado 640703" d="M192.592,685.938a2.612,2.612,0,1,1-2.614,2.566A2.635,2.635,0,0,1,192.592,685.938Z" transform="translate(-95.847 -591.837)" fill="#4b90d7"/>
      <path id="Trazado_640704" data-name="Trazado 640704" d="M162.987,582.161q8.81,0,17.62,0c2.071,0,3.253.948,3.273,2.58s-1.171,2.641-3.212,2.642q-17.7.01-35.4,0c-2.036,0-3.223-1.016-3.189-2.663.033-1.631,1.207-2.557,3.292-2.559Q154.177,582.153,162.987,582.161Z" transform="translate(-79.307 -556.004)" fill="#010101"/>
      <path id="Trazado_640705" data-name="Trazado 640705" d="M184.411,603.353c-2.445,0-4.889.014-7.335-.005-1.906-.015-3.069-1.031-3.062-2.621s1.16-2.593,3.081-2.6q7.416-.022,14.832,0c1.805.006,2.939,1.007,2.983,2.535.046,1.588-1.129,2.665-3,2.683C189.41,603.371,186.91,603.353,184.411,603.353Z" transform="translate(-90.335 -561.513)" fill="#030303"/>
      <path id="Trazado_640706" data-name="Trazado 640706" d="M157.894,566.191c1.683,0,3.367-.031,5.049.009a2.606,2.606,0,1,1,.075,5.2q-5.13.067-10.261,0a2.572,2.572,0,0,1-2.7-2.644,2.6,2.6,0,0,1,2.787-2.559C154.527,566.159,156.211,566.191,157.894,566.191Z" transform="translate(-82.063 -550.487)" fill="#030303"/>
      <path id="Trazado_640707" data-name="Trazado 640707" d="M189.869,571.415c-1.683,0-3.366.031-5.049-.008a2.613,2.613,0,1,1,.005-5.21c3.367-.032,6.733-.037,10.1,0a2.606,2.606,0,1,1-.006,5.2C193.237,571.45,191.553,571.414,189.869,571.415Z" transform="translate(-93.092 -550.484)" fill="#030303"/>
    </g>
  </g>
</svg>
