<svg xmlns="http://www.w3.org/2000/svg" width="399" height="342.213" viewBox="0 0 399 342.213">
  <g id="Grupo_952144" data-name="Grupo 952144" transform="translate(-301.318 -70.745)">
    <g id="Bags" transform="translate(484.51 297.711)">
      <g id="Grupo_101901" data-name="Grupo 101901" transform="translate(0)">
        <g id="Grupo_101878" data-name="Grupo 101878" transform="translate(25.899)">
          <g id="Grupo_101874" data-name="Grupo 101874">
            <g id="Grupo_101863" data-name="Grupo 101863" transform="translate(21.596)">
              <g id="Grupo_101862" data-name="Grupo 101862">
                <g id="Grupo_101861" data-name="Grupo 101861">
                  <g id="Grupo_101860" data-name="Grupo 101860">
                    <path id="Trazado_132950" data-name="Trazado 132950" d="M239.175,365.135c-.053.005-.1-.729-.358-2.027a25.358,25.358,0,0,0-1.62-5.332,20.321,20.321,0,0,0-4.611-6.764,12.864,12.864,0,0,0-18.091-.059,20.236,20.236,0,0,0-4.641,6.743,25.249,25.249,0,0,0-1.639,5.326c-.258,1.3-.313,2.03-.365,2.025a2.123,2.123,0,0,1,.009-.535,15.017,15.017,0,0,1,.165-1.523,23.121,23.121,0,0,1,1.506-5.43,20.135,20.135,0,0,1,4.652-6.941,13.226,13.226,0,0,1,18.719.062,20.184,20.184,0,0,1,4.621,6.961,23.124,23.124,0,0,1,1.486,5.436,14.746,14.746,0,0,1,.159,1.524A2.2,2.2,0,0,1,239.175,365.135Z" transform="translate(-207.839 -346.767)" fill="#455a64"/>
                  </g>
                </g>
              </g>
            </g>
            <g id="Grupo_101867" data-name="Grupo 101867" transform="translate(27.006)">
              <g id="Grupo_101866" data-name="Grupo 101866">
                <g id="Grupo_101865" data-name="Grupo 101865">
                  <g id="Grupo_101864" data-name="Grupo 101864">
                    <path id="Trazado_132951" data-name="Trazado 132951" d="M245.388,365.135c-.053.005-.1-.729-.358-2.027a25.358,25.358,0,0,0-1.62-5.332,20.307,20.307,0,0,0-4.611-6.764,12.863,12.863,0,0,0-18.09-.059,20.227,20.227,0,0,0-4.642,6.743,25.249,25.249,0,0,0-1.639,5.326c-.258,1.3-.312,2.03-.365,2.025a2.212,2.212,0,0,1,.01-.535,14.7,14.7,0,0,1,.164-1.523,23.128,23.128,0,0,1,1.507-5.43,20.11,20.11,0,0,1,4.652-6.941,13.226,13.226,0,0,1,18.719.062,20.193,20.193,0,0,1,4.62,6.961,23.135,23.135,0,0,1,1.487,5.436,15.253,15.253,0,0,1,.159,1.524A2.217,2.217,0,0,1,245.388,365.135Z" transform="translate(-214.053 -346.767)" fill="#455a64"/>
                  </g>
                </g>
              </g>
            </g>
            <g id="Grupo_101870" data-name="Grupo 101870" transform="translate(0 15.97)">
              <g id="Grupo_101869" data-name="Grupo 101869">
                <g id="Grupo_101868" data-name="Grupo 101868">
                  <path id="Trazado_132952" data-name="Trazado 132952" d="M189.161,365.578l61.084-.466,1.333,83.266H183.032Z" transform="translate(-183.032 -365.112)" fill="#ebebeb"/>
                </g>
              </g>
            </g>
            <g id="Grupo_101873" data-name="Grupo 101873" transform="translate(67.213 15.97)">
              <g id="Grupo_101872" data-name="Grupo 101872">
                <g id="Grupo_101871" data-name="Grupo 101871">
                  <path id="Trazado_132953" data-name="Trazado 132953" d="M260.24,365.112h7.668l6.6,83.266H261.573Z" transform="translate(-260.24 -365.112)" fill="#e0e0e0"/>
                </g>
              </g>
            </g>
          </g>
          <g id="Grupo_101877" data-name="Grupo 101877" transform="translate(14.278 48.752)">
            <g id="Grupo_101876" data-name="Grupo 101876">
              <g id="Grupo_101875" data-name="Grupo 101875">
                <rect id="Rectángulo_36578" data-name="Rectángulo 36578" width="39.99" height="6.7" fill="#fff"/>
              </g>
            </g>
          </g>
        </g>
        <g id="Grupo_101900" data-name="Grupo 101900" transform="translate(0 24.553)">
          <g id="Grupo_101896" data-name="Grupo 101896">
            <g id="Grupo_101882" data-name="Grupo 101882" transform="translate(19.533)">
              <g id="Grupo_101881" data-name="Grupo 101881">
                <g id="Grupo_101880" data-name="Grupo 101880">
                  <g id="Grupo_101879" data-name="Grupo 101879">
                    <path id="Trazado_132954" data-name="Trazado 132954" d="M200.914,391.894a33.518,33.518,0,0,0-1.615-6.75,19,19,0,0,0-3.707-6.2,9.422,9.422,0,0,0-14.495-.054,18.9,18.9,0,0,0-3.73,6.179,33.563,33.563,0,0,0-1.637,6.742,1.974,1.974,0,0,1,0-.492c.011-.323.045-.8.125-1.4a23.514,23.514,0,0,1,1.2-5,18.889,18.889,0,0,1,3.741-6.4,9.748,9.748,0,0,1,15.1.057A18.981,18.981,0,0,1,199.611,385a23.528,23.528,0,0,1,1.185,5c.077.606.111,1.08.12,1.4A1.9,1.9,0,0,1,200.914,391.894Z" transform="translate(-175.719 -374.971)" fill="#263238"/>
                  </g>
                </g>
              </g>
            </g>
            <g id="Grupo_101886" data-name="Grupo 101886" transform="translate(23.881)">
              <g id="Grupo_101885" data-name="Grupo 101885">
                <g id="Grupo_101884" data-name="Grupo 101884">
                  <g id="Grupo_101883" data-name="Grupo 101883">
                    <path id="Trazado_132955" data-name="Trazado 132955" d="M205.909,391.894a33.519,33.519,0,0,0-1.615-6.75,19,19,0,0,0-3.707-6.2,9.422,9.422,0,0,0-14.495-.054,18.9,18.9,0,0,0-3.73,6.179,33.554,33.554,0,0,0-1.637,6.742,1.916,1.916,0,0,1,0-.492c.011-.323.045-.8.124-1.4a23.53,23.53,0,0,1,1.2-5,18.861,18.861,0,0,1,3.741-6.4,9.747,9.747,0,0,1,15.1.057A18.981,18.981,0,0,1,204.606,385a23.532,23.532,0,0,1,1.185,5c.077.606.111,1.08.12,1.4A1.9,1.9,0,0,1,205.909,391.894Z" transform="translate(-180.714 -374.971)" fill="#263238"/>
                  </g>
                </g>
              </g>
            </g>
            <g id="Grupo_101889" data-name="Grupo 101889" transform="translate(0 13.655)">
              <g id="Grupo_101888" data-name="Grupo 101888">
                <g id="Grupo_101887" data-name="Grupo 101887">
                  <path id="Trazado_132956" data-name="Trazado 132956" d="M158.209,391l49.108-.341,1.072,60.934H153.282Z" transform="translate(-153.282 -390.656)" fill="#f0bd51"/>
                </g>
              </g>
            </g>
            <g id="Grupo_101892" data-name="Grupo 101892" transform="translate(54.036 13.655)">
              <g id="Grupo_101891" data-name="Grupo 101891">
                <g id="Grupo_101890" data-name="Grupo 101890">
                  <path id="Trazado_132957" data-name="Trazado 132957" d="M215.353,390.656h6.165l5.308,60.934h-10.4Z" transform="translate(-215.353 -390.656)" fill="#ff725e"/>
                </g>
              </g>
            </g>
            <g id="Grupo_101895" data-name="Grupo 101895" transform="translate(54.036 13.655)" opacity="0.3">
              <g id="Grupo_101894" data-name="Grupo 101894">
                <g id="Grupo_101893" data-name="Grupo 101893">
                  <path id="Trazado_132958" data-name="Trazado 132958" d="M215.353,390.656h6.165l5.308,60.934h-10.4Z" transform="translate(-215.353 -390.656)" fill="#f0bd51"/>
                </g>
              </g>
            </g>
          </g>
          <g id="Grupo_101899" data-name="Grupo 101899" transform="translate(13.512 34.352)">
            <g id="Grupo_101898" data-name="Grupo 101898">
              <g id="Grupo_101897" data-name="Grupo 101897">
                <rect id="Rectángulo_36579" data-name="Rectángulo 36579" width="32.15" height="6.157" fill="#fff"/>
              </g>
            </g>
          </g>
        </g>
      </g>
    </g>
    <g id="Character_2" data-name="Character 2" transform="translate(538.201 84.768)">
      <g id="Grupo_102124" data-name="Grupo 102124">
        <g id="Grupo_101916" data-name="Grupo 101916" transform="translate(0 96.781)">
          <g id="Grupo_101903" data-name="Grupo 101903">
            <g id="Grupo_101902" data-name="Grupo 101902">
              <path id="Trazado_132959" data-name="Trazado 132959" d="M532.4,237.8a29.5,29.5,0,0,0,4.032,4.325c1.6,1.17,2.9,1.124,4.35,3.564s3.125,4.994,3.125,4.994,6.642,2.819,6.415,2.987-2.7,9.892-2.7,9.892l-11.59-5.908-13.836-3.864-7.258-7.314.2-.817-.977-1.561s.413-2.2,2.354-1.139c0,0-.834-2.28,2.013-1.319s8.331,3.968,8.7,3.943,5.249.549,5.249.549l2.1-.774a5.856,5.856,0,0,1-2.805-2.282c-.892-1.588-2.27-2.361-1.664-3.966A2.1,2.1,0,0,1,532.4,237.8Z" transform="translate(-514.161 -237.78)" fill="#ffbf9d"/>
            </g>
          </g>
          <g id="Grupo_101906" data-name="Grupo 101906" transform="translate(5.916 9.725)">
            <g id="Grupo_101905" data-name="Grupo 101905">
              <g id="Grupo_101904" data-name="Grupo 101904">
                <path id="Trazado_132960" data-name="Trazado 132960" d="M536.8,251.356a4.27,4.27,0,0,1-.771-.126,11.321,11.321,0,0,0-2.132-.066,31.046,31.046,0,0,0-7.066,1.46l-.065.021-.063-.022-1.542-.552-.764-.275-.064-.023-.033-.052-1.715-2.677a1.971,1.971,0,0,0-.958-.874,1.215,1.215,0,0,0-1.1.211l.052-.166a22.412,22.412,0,0,1,.941,5c-.029,0-.1-.488-.324-1.347s-.531-2.088-.933-3.571l-.027-.1.079-.063a1.544,1.544,0,0,1,1.422-.3,2.3,2.3,0,0,1,1.169,1.013l1.726,2.652-.1-.075.765.275,1.539.555h-.128a27.6,27.6,0,0,1,7.179-1.348,9.254,9.254,0,0,1,2.169.188A2.613,2.613,0,0,1,536.8,251.356Z" transform="translate(-520.236 -247.767)" fill="#ff9a6c"/>
              </g>
            </g>
          </g>
          <g id="Grupo_101909" data-name="Grupo 101909" transform="translate(2.459 4.999)">
            <g id="Grupo_101908" data-name="Grupo 101908">
              <g id="Grupo_101907" data-name="Grupo 101907">
                <path id="Trazado_132961" data-name="Trazado 132961" d="M525.636,248.034a66.566,66.566,0,0,1-8.949-5.114,66.869,66.869,0,0,1,8.949,5.114Z" transform="translate(-516.686 -242.914)" fill="#ff9a6c"/>
              </g>
            </g>
          </g>
          <g id="Grupo_101912" data-name="Grupo 101912" transform="translate(0.774 7.584)">
            <g id="Grupo_101911" data-name="Grupo 101911">
              <g id="Grupo_101910" data-name="Grupo 101910">
                <path id="Trazado_132962" data-name="Trazado 132962" d="M519.7,248.311c-.043.037-.284-.179-.649-.538a9.987,9.987,0,0,0-1.492-1.273,3.984,3.984,0,0,0-1.783-.647c-.49-.045-.8.032-.82-.028-.019-.042.279-.226.826-.254a3.453,3.453,0,0,1,1.994.595,6.275,6.275,0,0,1,1.486,1.419C519.579,248,519.742,248.277,519.7,248.311Z" transform="translate(-514.956 -245.568)" fill="#ff9a6c"/>
              </g>
            </g>
          </g>
          <g id="Grupo_101915" data-name="Grupo 101915" transform="translate(11.127 8.609)">
            <g id="Grupo_101914" data-name="Grupo 101914">
              <g id="Grupo_101913" data-name="Grupo 101913">
                <path id="Trazado_132963" data-name="Trazado 132963" d="M528.589,246.632a7,7,0,0,0-2.93,4.541c-.048,0-.108-.325-.044-.852a4.8,4.8,0,0,1,2.179-3.379C528.248,246.667,528.57,246.588,528.589,246.632Z" transform="translate(-525.587 -246.62)" fill="#ff9a6c"/>
              </g>
            </g>
          </g>
        </g>
        <g id="Grupo_101978" data-name="Grupo 101978" transform="translate(65.843)">
          <g id="Grupo_101919" data-name="Grupo 101919" transform="translate(21.571 17.236)">
            <g id="Grupo_101918" data-name="Grupo 101918">
              <g id="Grupo_101917" data-name="Grupo 101917">
                <path id="Trazado_132964" data-name="Trazado 132964" d="M639.185,171.989a9.509,9.509,0,0,1-1.953-2.457,7.446,7.446,0,0,1,0-3.547,9.471,9.471,0,0,0-3-8.366c-2.387-1.962-6.263-2.126-8.455.052l-18.022,11.612a17.823,17.823,0,0,0-3.645,13.544,8.425,8.425,0,0,0,2.462,5.238c1.49,1.29,3.944,1.6,5.4.269a7.854,7.854,0,0,0,13.973,3.73,6.068,6.068,0,0,0,10.721-3.29c.132-1.405-.221-2.863.195-4.211.483-1.569,1.893-2.644,2.813-4A7.284,7.284,0,0,0,639.185,171.989Z" transform="translate(-603.93 -156.092)" fill="#263238"/>
              </g>
            </g>
          </g>
          <g id="Grupo_101977" data-name="Grupo 101977">
            <g id="Grupo_101922" data-name="Grupo 101922" transform="translate(0 0.101)">
              <g id="Grupo_101921" data-name="Grupo 101921">
                <g id="Grupo_101920" data-name="Grupo 101920">
                  <path id="Trazado_132965" data-name="Trazado 132965" d="M626.567,163.339a5.835,5.835,0,0,0-.267-7.617c1.162-1.326.838-3.444-.244-4.833a11.921,11.921,0,0,0-4.329-3.008,8.192,8.192,0,0,0-9.339-6.167c-2.01-3.113-6.509-3.746-10.164-2.84a9.855,9.855,0,0,1-2.708.48,16.063,16.063,0,0,1-1.994-.34c-3.663-.61-7.407,1.794-8.964,5.087a6.58,6.58,0,0,1-.837,1.529,9.206,9.206,0,0,1-1.871,1.356,5.71,5.71,0,0,0-2.4,4.164c-.11,1.393.291,2.889-.356,4.136a21.073,21.073,0,0,0-1.147,1.771c-.75,1.893,1.357,3.927.881,5.9-.1.4-.3.775-.427,1.169a3.467,3.467,0,0,0,.131,2.482,4.99,4.99,0,0,1,.734,1.806,5.581,5.581,0,0,1-.349,1.441c-.291,1.179,2.17,5.849,3.2,6.531l31.419,1.354a5.8,5.8,0,0,0,4.723-4.779,2.056,2.056,0,0,1,.333-1.118,2.539,2.539,0,0,1,.877-.514c2.062-.99,2.4-3.694,2.272-5.933a2.672,2.672,0,0,1,.051-.936A3.429,3.429,0,0,1,626.567,163.339Z" transform="translate(-581.778 -138.495)" fill="#263238"/>
                </g>
              </g>
            </g>
            <g id="Grupo_101925" data-name="Grupo 101925" transform="translate(34.159 58.388)">
              <g id="Grupo_101924" data-name="Grupo 101924">
                <g id="Grupo_101923" data-name="Grupo 101923">
                  <path id="Trazado_132966" data-name="Trazado 132966" d="M616.948,198.409l-.09-.037A.051.051,0,0,1,616.948,198.409Z" transform="translate(-616.857 -198.353)" fill="#ffbf9d"/>
                </g>
              </g>
            </g>
            <g id="Grupo_101928" data-name="Grupo 101928" transform="translate(2.365 7.765)">
              <g id="Grupo_101927" data-name="Grupo 101927">
                <g id="Grupo_101926" data-name="Grupo 101926">
                  <path id="Trazado_132967" data-name="Trazado 132967" d="M584.939,159.685c.551-6.144,7.1-11.6,8.851-11.936a13.006,13.006,0,0,1,7.467-1.263,21.211,21.211,0,0,1,7.964,2.169,16.349,16.349,0,0,1,8.4,14.625L616,197.008c-3.654,4.03-13.681,7.492-13.681,7.492s-6.383,1.449-8.208-1.1c0,0,.8-11.6.8-11.583,0,0-8.943-1.532-10.355-11.827C583.854,174.867,584.327,166.51,584.939,159.685Z" transform="translate(-584.207 -146.366)" fill="#ffbf9d"/>
                </g>
              </g>
            </g>
            <g id="Grupo_101931" data-name="Grupo 101931" transform="translate(5.833 28.044)">
              <g id="Grupo_101930" data-name="Grupo 101930">
                <g id="Grupo_101929" data-name="Grupo 101929">
                  <path id="Trazado_132968" data-name="Trazado 132968" d="M587.77,168.349a1.328,1.328,0,0,0,1.267,1.358,1.281,1.281,0,0,0,1.419-1.153,1.328,1.328,0,0,0-1.265-1.358A1.281,1.281,0,0,0,587.77,168.349Z" transform="translate(-587.768 -167.192)" fill="#263238"/>
                </g>
              </g>
            </g>
            <g id="Grupo_101934" data-name="Grupo 101934" transform="translate(5.392 23.757)">
              <g id="Grupo_101933" data-name="Grupo 101933">
                <g id="Grupo_101932" data-name="Grupo 101932">
                  <path id="Trazado_132969" data-name="Trazado 132969" d="M587.334,164.11c.164.175,1.2-.538,2.654-.5,1.449.019,2.5.772,2.658.6.079-.075-.084-.389-.539-.728a3.763,3.763,0,0,0-2.122-.694,3.619,3.619,0,0,0-2.117.612C587.413,163.725,587.255,164.032,587.334,164.11Z" transform="translate(-587.315 -162.789)" fill="#263238"/>
                </g>
              </g>
            </g>
            <g id="Grupo_101937" data-name="Grupo 101937" transform="translate(9.948 24.68)">
              <g id="Grupo_101936" data-name="Grupo 101936">
                <g id="Grupo_101935" data-name="Grupo 101935">
                  <path id="Trazado_132970" data-name="Trazado 132970" d="M595.664,175.515a9.861,9.861,0,0,0-2.345-.47c-.37-.047-.719-.127-.775-.375a1.8,1.8,0,0,1,.275-1.065q.555-1.3,1.164-2.727c1.619-3.881,2.8-7.077,2.641-7.14s-1.6,3.034-3.223,6.916c-.39.958-.763,1.871-1.119,2.744a2.047,2.047,0,0,0-.228,1.414.926.926,0,0,0,.6.543,2.614,2.614,0,0,0,.627.1A9.631,9.631,0,0,0,595.664,175.515Z" transform="translate(-591.994 -163.737)" fill="#263238"/>
                </g>
              </g>
            </g>
            <g id="Grupo_101940" data-name="Grupo 101940" transform="translate(13.035 49.856)">
              <g id="Grupo_101939" data-name="Grupo 101939">
                <g id="Grupo_101938" data-name="Grupo 101938">
                  <path id="Trazado_132971" data-name="Trazado 132971" d="M595.164,192.915a27.416,27.416,0,0,0,14.215-3.324s-3.587,7.278-14.083,6.067Z" transform="translate(-595.164 -189.591)" fill="#ff9a6c"/>
                </g>
              </g>
            </g>
            <g id="Grupo_101943" data-name="Grupo 101943" transform="translate(6.481 18.275)">
              <g id="Grupo_101942" data-name="Grupo 101942">
                <g id="Grupo_101941" data-name="Grupo 101941">
                  <path id="Trazado_132972" data-name="Trazado 132972" d="M588.459,158.326c.236.352,1.352.147,2.647.283,1.3.1,2.362.495,2.655.191.131-.149,0-.49-.444-.848a4.213,4.213,0,0,0-4.272-.382C588.548,157.845,588.358,158.155,588.459,158.326Z" transform="translate(-588.433 -157.159)" fill="#263238"/>
                </g>
              </g>
            </g>
            <g id="Grupo_101946" data-name="Grupo 101946" transform="translate(19.131 29.009)">
              <g id="Grupo_101945" data-name="Grupo 101945">
                <g id="Grupo_101944" data-name="Grupo 101944">
                  <path id="Trazado_132973" data-name="Trazado 132973" d="M604.117,169.451a1.335,1.335,0,0,1-1.382,1.246,1.273,1.273,0,0,1-1.312-1.268,1.335,1.335,0,0,1,1.38-1.247A1.276,1.276,0,0,1,604.117,169.451Z" transform="translate(-601.424 -168.182)" fill="#263238"/>
                </g>
              </g>
            </g>
            <g id="Grupo_101949" data-name="Grupo 101949" transform="translate(19.929 24.561)">
              <g id="Grupo_101948" data-name="Grupo 101948">
                <g id="Grupo_101947" data-name="Grupo 101947">
                  <path id="Trazado_132974" data-name="Trazado 132974" d="M607.558,165.161c-.178.161-1.151-.637-2.6-.721-1.445-.1-2.554.559-2.7.376-.073-.081.118-.38.6-.681a3.775,3.775,0,0,1,2.176-.513,3.6,3.6,0,0,1,2.055.788C607.513,164.771,607.644,165.089,607.558,165.161Z" transform="translate(-602.244 -163.615)" fill="#263238"/>
                </g>
              </g>
            </g>
            <g id="Grupo_101952" data-name="Grupo 101952" transform="translate(19.939 18.917)">
              <g id="Grupo_101951" data-name="Grupo 101951">
                <g id="Grupo_101950" data-name="Grupo 101950">
                  <path id="Trazado_132975" data-name="Trazado 132975" d="M607.76,159.462c-.306.3-1.4-.1-2.744-.194-1.339-.137-2.495.065-2.735-.285-.105-.17.094-.481.611-.755a4.234,4.234,0,0,1,2.265-.391,4.16,4.16,0,0,1,2.149.778C607.761,158.973,607.9,159.313,607.76,159.462Z" transform="translate(-602.253 -157.819)" fill="#263238"/>
                </g>
              </g>
            </g>
            <g id="Grupo_101955" data-name="Grupo 101955" transform="translate(33.831 31.647)">
              <g id="Grupo_101954" data-name="Grupo 101954">
                <g id="Grupo_101953" data-name="Grupo 101953">
                  <path id="Trazado_132976" data-name="Trazado 132976" d="M616.536,173.6c.021-.763.971-2.543,1.747-2.642,2.072-.265,5.788-.015,5.695,5.1-.128,6.994-7.3,5.425-7.306,5.224C616.664,181.131,616.463,176.241,616.536,173.6Z" transform="translate(-616.52 -170.891)" fill="#ffbf9d"/>
                </g>
              </g>
            </g>
            <g id="Grupo_101958" data-name="Grupo 101958" transform="translate(36 34.013)">
              <g id="Grupo_101957" data-name="Grupo 101957">
                <g id="Grupo_101956" data-name="Grupo 101956">
                  <path id="Trazado_132977" data-name="Trazado 132977" d="M618.754,178.832c.032-.021.123.088.332.185a1.277,1.277,0,0,0,.934.035,3,3,0,0,0,1.478-2.68,3.936,3.936,0,0,0-.317-1.751,1.42,1.42,0,0,0-.922-.95.641.641,0,0,0-.743.32c-.1.194-.056.334-.094.346-.021.018-.152-.12-.089-.407a.772.772,0,0,1,.29-.434.957.957,0,0,1,.693-.166,1.743,1.743,0,0,1,1.284,1.107,4.054,4.054,0,0,1,.4,1.957,3.161,3.161,0,0,1-1.876,2.988,1.367,1.367,0,0,1-1.138-.205C618.763,179,618.729,178.844,618.754,178.832Z" transform="translate(-618.747 -173.321)" fill="#ff9a6c"/>
                </g>
              </g>
            </g>
            <g id="Grupo_101961" data-name="Grupo 101961" transform="translate(1.506 4.487)">
              <g id="Grupo_101960" data-name="Grupo 101960">
                <g id="Grupo_101959" data-name="Grupo 101959">
                  <path id="Trazado_132978" data-name="Trazado 132978" d="M583.324,159.656a4.062,4.062,0,0,0,2.378-3.693c.952.3,1.958-.88,2.539-1.677s1.278-1.189,1.26-2.167a1.071,1.071,0,0,1,.087-.566c.152-.265.495-.344.794-.428a4.746,4.746,0,0,0,3.246-3.177,10.375,10.375,0,0,0,4.89.911,3.934,3.934,0,0,0,6.575-.118,3.469,3.469,0,0,0,2.286,1.732,10.582,10.582,0,0,0,2.968.231,4,4,0,0,0,2.587,4.608c.253.083.546.166.657.4s-.025.526-.13.776a3.141,3.141,0,0,0,2.062,4.072,2.32,2.32,0,0,0,.123,3.694c.257.16.592.352.544.647a.653.653,0,0,1-.164.294,4.547,4.547,0,0,0-1.19,2.283,1.7,1.7,0,0,0,1.371,1.906,2.234,2.234,0,0,0-.949,1.509c-.026.608.587,1.242,1.174,1.037.249-.088,3.835-.685,4-.888,2.1-2.637-.377-5.666-.492-9a21.291,21.291,0,0,0-2.854-9.523,15.852,15.852,0,0,0-2.457-3.433,21.6,21.6,0,0,0-3.867-2.927,19.945,19.945,0,0,0-5.68-2.815c-3.844-.985-7.9.286-11.545,1.824a17.005,17.005,0,0,0-3.951,2.144,14.955,14.955,0,0,0-3.387,4.1,18.282,18.282,0,0,0-2.779,7.095" transform="translate(-583.324 -143)" fill="#263238"/>
                </g>
              </g>
            </g>
            <g id="Grupo_101964" data-name="Grupo 101964" transform="translate(0.163)">
              <g id="Grupo_101963" data-name="Grupo 101963">
                <g id="Grupo_101962" data-name="Grupo 101962">
                  <path id="Trazado_132979" data-name="Trazado 132979" d="M581.945,157.054a2.657,2.657,0,0,1,.406-.74c.159-.229.38-.495.592-.836a3.208,3.208,0,0,0,.437-1.3,9.96,9.96,0,0,0,.015-1.73,7.478,7.478,0,0,1,.113-2.074,5.793,5.793,0,0,1,1.909-3.146,8.946,8.946,0,0,1,1.154-.793,4.441,4.441,0,0,0,1.114-.888,5.633,5.633,0,0,0,.715-1.3,9.107,9.107,0,0,1,1.813-2.658,9.335,9.335,0,0,1,2.833-2.013,8.609,8.609,0,0,1,1.742-.588,7.918,7.918,0,0,1,1.889-.16,9.265,9.265,0,0,1,.963.1c.319.057.634.131.948.195a4.75,4.75,0,0,0,1.915.052c.645-.107,1.28-.316,1.947-.461a12.918,12.918,0,0,1,4.141-.262,11.2,11.2,0,0,1,2.092.432,7.066,7.066,0,0,1,3.545,2.417l.256.351-.113-.047a8.183,8.183,0,0,1,6.136,1.377,7.774,7.774,0,0,1,3.326,4.876l-.055-.072a23.005,23.005,0,0,1,2.476,1.359,7.5,7.5,0,0,1,2,1.843,4.725,4.725,0,0,1,.866,2.438,3.248,3.248,0,0,1-.749,2.346l0-.117a5.72,5.72,0,0,1,1.551,3.633,5.822,5.822,0,0,1-.84,3.455,5.742,5.742,0,0,1-.5.68,7.563,7.563,0,0,0-.51.612,1.474,1.474,0,0,0-.274.679,4.209,4.209,0,0,0,0,.726,11.207,11.207,0,0,1-.149,2.652,5.48,5.48,0,0,1-.761,2,3.484,3.484,0,0,1-1.146,1.105c-.376.229-.706.313-.891.437a1.675,1.675,0,0,0-.267.2.827.827,0,0,1,.252-.226c.184-.135.514-.229.878-.46a3.473,3.473,0,0,0,1.106-1.1,5.446,5.446,0,0,0,.727-1.978,11.221,11.221,0,0,0,.126-2.627,4.254,4.254,0,0,1,0-.749,1.6,1.6,0,0,1,.29-.737,7.752,7.752,0,0,1,.516-.626,5.558,5.558,0,0,0,1.28-4.036,5.56,5.56,0,0,0-1.518-3.522l-.055-.057.053-.06a3.073,3.073,0,0,0,.7-2.222,4.537,4.537,0,0,0-.838-2.339,7.307,7.307,0,0,0-1.954-1.79,22.931,22.931,0,0,0-2.457-1.343l-.046-.022-.01-.049a7.576,7.576,0,0,0-3.247-4.741,7.974,7.974,0,0,0-5.97-1.341l-.068.014-.045-.06-.247-.339a6.855,6.855,0,0,0-3.437-2.342,10.85,10.85,0,0,0-2.047-.425,12.651,12.651,0,0,0-4.071.254c-.654.139-1.294.35-1.958.459a5.051,5.051,0,0,1-1.006.076,6.076,6.076,0,0,1-.985-.131c-.319-.064-.632-.139-.944-.195a8.747,8.747,0,0,0-.936-.1,7.7,7.7,0,0,0-1.838.151,8.457,8.457,0,0,0-1.7.571,9.181,9.181,0,0,0-2.784,1.965,8.969,8.969,0,0,0-1.791,2.6,5.7,5.7,0,0,1-.742,1.33,4.575,4.575,0,0,1-1.156.916,8.669,8.669,0,0,0-1.141.774,5.678,5.678,0,0,0-1.886,3.064,7.419,7.419,0,0,0-.128,2.045,9.815,9.815,0,0,1-.035,1.745,3.237,3.237,0,0,1-.466,1.319c-.221.344-.448.6-.611.828a4.074,4.074,0,0,0-.343.526C581.977,156.988,581.951,157.056,581.945,157.054Z" transform="translate(-581.945 -138.392)" fill="#455a64"/>
                </g>
              </g>
            </g>
            <g id="Grupo_101967" data-name="Grupo 101967" transform="translate(16.323 0.707)">
              <g id="Grupo_101966" data-name="Grupo 101966">
                <g id="Grupo_101965" data-name="Grupo 101965">
                  <path id="Trazado_132980" data-name="Trazado 132980" d="M609.5,140.105c-.011.016-.186-.111-.53-.287a4.925,4.925,0,0,0-1.549-.486,4.571,4.571,0,0,0-4.561,2.11,3.8,3.8,0,0,0-.378.781.855.855,0,0,0,.031.738l.168.242-.287-.088a3.038,3.038,0,0,0-2.223.2,2.829,2.829,0,0,0-1.251,1.262,3.007,3.007,0,0,0-.312,1.144c-.017.28,0,.434-.016.436s-.017-.037-.029-.111a1.882,1.882,0,0,1-.028-.327,2.821,2.821,0,0,1,.263-1.2,2.91,2.91,0,0,1,1.288-1.363,3.189,3.189,0,0,1,2.371-.238l-.119.156a1.045,1.045,0,0,1-.062-.914,4,4,0,0,1,.4-.83,4.776,4.776,0,0,1,2.307-1.908,4.676,4.676,0,0,1,2.463-.24,4.539,4.539,0,0,1,1.567.562,3.236,3.236,0,0,1,.374.252C609.47,140.064,609.51,140.1,609.5,140.105Z" transform="translate(-598.54 -139.118)" fill="#455a64"/>
                </g>
              </g>
            </g>
            <g id="Grupo_101970" data-name="Grupo 101970" transform="translate(31.209 15.841)">
              <g id="Grupo_101969" data-name="Grupo 101969">
                <g id="Grupo_101968" data-name="Grupo 101968">
                  <path id="Trazado_132981" data-name="Trazado 132981" d="M624.913,155.435c.007,0,0,.046-.021.129a1.164,1.164,0,0,1-.168.334,1.918,1.918,0,0,1-1.175.718,3.736,3.736,0,0,1-2.041-.271,11.88,11.88,0,0,1-1.119-.465,1.943,1.943,0,0,1-.965-.907l-.042-.114.168.055a8.275,8.275,0,0,1-2.16,1.189,3.779,3.779,0,0,1-2.018.149,2.7,2.7,0,0,1-1.225-.582,1.674,1.674,0,0,1-.251-.266c-.049-.067-.072-.1-.067-.109s.125.126.372.312a2.8,2.8,0,0,0,1.2.5,3.721,3.721,0,0,0,1.923-.186,8.465,8.465,0,0,0,2.1-1.176l.117-.084.051.138.035.1a1.758,1.758,0,0,0,.864.8c.359.183.739.328,1.091.466a3.675,3.675,0,0,0,1.939.307,1.908,1.908,0,0,0,1.139-.621A2.929,2.929,0,0,0,624.913,155.435Z" transform="translate(-613.827 -154.66)" fill="#e0e0e0"/>
                </g>
              </g>
            </g>
            <g id="Grupo_101973" data-name="Grupo 101973" transform="translate(15.097 38.924)">
              <g id="Grupo_101972" data-name="Grupo 101972">
                <g id="Grupo_101971" data-name="Grupo 101971">
                  <path id="Trazado_132982" data-name="Trazado 132982" d="M597.41,179.34a2.446,2.446,0,0,1,2.168-.968,2.237,2.237,0,0,1,1.564.785,1.417,1.417,0,0,1,.151,1.615,1.64,1.64,0,0,1-1.766.5,5.135,5.135,0,0,1-1.763-.987,1.5,1.5,0,0,1-.4-.39.455.455,0,0,1-.012-.505" transform="translate(-597.282 -178.364)" fill="#ff9a6c"/>
                </g>
              </g>
            </g>
            <g id="Grupo_101976" data-name="Grupo 101976" transform="translate(14.355 37.474)">
              <g id="Grupo_101975" data-name="Grupo 101975">
                <g id="Grupo_101974" data-name="Grupo 101974">
                  <path id="Trazado_132983" data-name="Trazado 132983" d="M600.745,176.876c-.221-.007-.183,1.466-1.416,2.545s-2.8.961-2.809,1.167c-.018.093.357.277,1.021.277a3.667,3.667,0,0,0,2.348-.89,3.2,3.2,0,0,0,1.093-2.133C601.02,177.226,600.845,176.864,600.745,176.876Z" transform="translate(-596.519 -176.876)" fill="#263238"/>
                </g>
              </g>
            </g>
          </g>
        </g>
        <g id="Grupo_102038" data-name="Grupo 102038" transform="translate(75.833 285.117)">
          <g id="Grupo_101986" data-name="Grupo 101986" transform="translate(0.016 18.656)">
            <g id="Grupo_101985" data-name="Grupo 101985">
              <g id="Grupo_101984" data-name="Grupo 101984">
                <g id="Grupo_101983" data-name="Grupo 101983">
                  <g id="Grupo_101982" data-name="Grupo 101982">
                    <g id="Grupo_101981" data-name="Grupo 101981">
                      <g id="Grupo_101980" data-name="Grupo 101980">
                        <g id="Grupo_101979" data-name="Grupo 101979">
                          <path id="Trazado_132984" data-name="Trazado 132984" d="M608.707,450.82l.006.945s-16.514,6.592-16.66,9.636l32.916-.468-.609-10.586A19.419,19.419,0,0,1,608.707,450.82Z" transform="translate(-592.053 -450.348)" fill="#263238"/>
                        </g>
                      </g>
                    </g>
                  </g>
                </g>
              </g>
            </g>
          </g>
          <g id="Grupo_101994" data-name="Grupo 101994" transform="translate(0 26.697)">
            <g id="Grupo_101993" data-name="Grupo 101993">
              <g id="Grupo_101992" data-name="Grupo 101992">
                <g id="Grupo_101991" data-name="Grupo 101991">
                  <g id="Grupo_101990" data-name="Grupo 101990">
                    <g id="Grupo_101989" data-name="Grupo 101989">
                      <g id="Grupo_101988" data-name="Grupo 101988">
                        <g id="Grupo_101987" data-name="Grupo 101987">
                          <path id="Trazado_132985" data-name="Trazado 132985" d="M624.969,461.15l-.147-2.545-31.495,1.381s-1.456.637-1.275,1.633Z" transform="translate(-592.037 -458.605)" fill="#455a64"/>
                        </g>
                      </g>
                    </g>
                  </g>
                </g>
              </g>
            </g>
          </g>
          <g id="Grupo_102003" data-name="Grupo 102003" transform="translate(16.561 20.014)">
            <g id="Grupo_102002" data-name="Grupo 102002">
              <g id="Grupo_102001" data-name="Grupo 102001">
                <g id="Grupo_102000" data-name="Grupo 102000">
                  <g id="Grupo_101999" data-name="Grupo 101999">
                    <g id="Grupo_101998" data-name="Grupo 101998">
                      <g id="Grupo_101997" data-name="Grupo 101997">
                        <g id="Grupo_101996" data-name="Grupo 101996">
                          <g id="Grupo_101995" data-name="Grupo 101995">
                            <path id="Trazado_132986" data-name="Trazado 132986" d="M609.045,451.894c.008.155.812.213,1.611.7.812.468,1.23,1.135,1.377,1.072.148-.032-.106-.958-1.084-1.533S609.008,451.752,609.045,451.894Z" transform="translate(-609.044 -451.742)" fill="#fff"/>
                          </g>
                        </g>
                      </g>
                    </g>
                  </g>
                </g>
              </g>
            </g>
          </g>
          <g id="Grupo_102012" data-name="Grupo 102012" transform="translate(13.129 21.53)">
            <g id="Grupo_102011" data-name="Grupo 102011">
              <g id="Grupo_102010" data-name="Grupo 102010">
                <g id="Grupo_102009" data-name="Grupo 102009">
                  <g id="Grupo_102008" data-name="Grupo 102008">
                    <g id="Grupo_102007" data-name="Grupo 102007">
                      <g id="Grupo_102006" data-name="Grupo 102006">
                        <g id="Grupo_102005" data-name="Grupo 102005">
                          <g id="Grupo_102004" data-name="Grupo 102004">
                            <path id="Trazado_132987" data-name="Trazado 132987" d="M605.521,453.364c-.034.151.666.405,1.222,1.056.575.633.723,1.342.883,1.333.152.022.249-.889-.458-1.685S605.522,453.216,605.521,453.364Z" transform="translate(-605.52 -453.299)" fill="#fff"/>
                          </g>
                        </g>
                      </g>
                    </g>
                  </g>
                </g>
              </g>
            </g>
          </g>
          <g id="Grupo_102021" data-name="Grupo 102021" transform="translate(9.904 22.954)">
            <g id="Grupo_102020" data-name="Grupo 102020">
              <g id="Grupo_102019" data-name="Grupo 102019">
                <g id="Grupo_102018" data-name="Grupo 102018">
                  <g id="Grupo_102017" data-name="Grupo 102017">
                    <g id="Grupo_102016" data-name="Grupo 102016">
                      <g id="Grupo_102015" data-name="Grupo 102015">
                        <g id="Grupo_102014" data-name="Grupo 102014">
                          <g id="Grupo_102013" data-name="Grupo 102013">
                            <path id="Trazado_132988" data-name="Trazado 132988" d="M603.534,457.426c.146.031.358-.749-.067-1.594s-1.183-1.173-1.249-1.043c-.089.13.407.579.745,1.278C603.318,456.759,603.374,457.414,603.534,457.426Z" transform="translate(-602.207 -454.761)" fill="#fff"/>
                          </g>
                        </g>
                      </g>
                    </g>
                  </g>
                </g>
              </g>
            </g>
          </g>
          <g id="Grupo_102022" data-name="Grupo 102022" transform="translate(26.025)">
            <path id="Trazado_132989" data-name="Trazado 132989" d="M636.429,452.209a30.752,30.752,0,0,0-.934-3.014l-.186-.471-.012.013-2.858-17.547-11.8,1.215,2.122,19.988c-.028-.026-.058-.049-.087-.076l-.815,2.41-3.063,16.92a2.2,2.2,0,0,0,1.581,2.525,2.373,2.373,0,0,0,2.358-.654c3.094-3.356,14.411-15.75,14.138-17.264Z" transform="translate(-618.763 -431.189)" fill="#263238"/>
          </g>
          <g id="Grupo_102025" data-name="Grupo 102025" transform="translate(28.057 23.655)">
            <g id="Grupo_102024" data-name="Grupo 102024">
              <g id="Grupo_102023" data-name="Grupo 102023">
                <path id="Trazado_132990" data-name="Trazado 132990" d="M620.85,474.882l15.948-19.4.084.884a2.394,2.394,0,0,1-.647,2.029c-1.252,1.951-4.815,6.388-13.376,15.754a2.364,2.364,0,0,1-2.01.734Z" transform="translate(-620.85 -455.481)" fill="#455a64"/>
              </g>
            </g>
          </g>
          <g id="Grupo_102028" data-name="Grupo 102028" transform="translate(27.568 31.375)">
            <g id="Grupo_102027" data-name="Grupo 102027">
              <g id="Grupo_102026" data-name="Grupo 102026">
                <path id="Trazado_132991" data-name="Trazado 132991" d="M625.042,465.52a6.845,6.845,0,0,0-2.1-1.452,7.359,7.359,0,0,0-2.6-.234c-.023-.05.241-.237.754-.352a3.759,3.759,0,0,1,2.019.155,3.514,3.514,0,0,1,1.611,1.149C625.031,465.193,625.1,465.5,625.042,465.52Z" transform="translate(-620.348 -463.409)" fill="#fff"/>
              </g>
            </g>
          </g>
          <g id="Grupo_102031" data-name="Grupo 102031" transform="translate(26.706 35.176)">
            <g id="Grupo_102030" data-name="Grupo 102030">
              <g id="Grupo_102029" data-name="Grupo 102029">
                <path id="Trazado_132992" data-name="Trazado 132992" d="M623.7,468.557a19.419,19.419,0,0,0-2.048-.724,20.019,20.019,0,0,0-2.19-.072,2.654,2.654,0,0,1,2.287-.38C623.092,467.627,623.814,468.491,623.7,468.557Z" transform="translate(-619.462 -467.313)" fill="#fff"/>
              </g>
            </g>
          </g>
          <g id="Grupo_102034" data-name="Grupo 102034" transform="translate(28.426 27.622)">
            <g id="Grupo_102033" data-name="Grupo 102033">
              <g id="Grupo_102032" data-name="Grupo 102032">
                <path id="Trazado_132993" data-name="Trazado 132993" d="M627.665,461.576a23.261,23.261,0,0,0-3.079-1.318,24.076,24.076,0,0,0-3.356-.431,5.336,5.336,0,0,1,3.493-.012A5.02,5.02,0,0,1,627.665,461.576Z" transform="translate(-621.229 -459.555)" fill="#fff"/>
              </g>
            </g>
          </g>
          <g id="Grupo_102037" data-name="Grupo 102037" transform="translate(27.552 18.362)">
            <g id="Grupo_102036" data-name="Grupo 102036">
              <g id="Grupo_102035" data-name="Grupo 102035">
                <path id="Trazado_132994" data-name="Trazado 132994" d="M622.309,450.046a14.23,14.23,0,0,1,.165,2.617v.011l0,.017c-.175,1.126-.42,2.567-.7,4.129-.335,1.85-.662,3.522-.919,4.728a9.471,9.471,0,0,1-.5,1.938,9.562,9.562,0,0,1,.21-1.987c.183-1.219.463-2.9.8-4.748.282-1.563.56-3,.79-4.114l0,.027A14.183,14.183,0,0,1,622.309,450.046Z" transform="translate(-620.331 -450.046)" fill="#455a64"/>
              </g>
            </g>
          </g>
        </g>
        <g id="Grupo_102052" data-name="Grupo 102052" transform="translate(54.563 126.378)">
          <g id="Grupo_102041" data-name="Grupo 102041" transform="translate(24.756 12.793)">
            <g id="Grupo_102040" data-name="Grupo 102040">
              <g id="Grupo_102039" data-name="Grupo 102039">
                <path id="Trazado_132995" data-name="Trazado 132995" d="M641.6,320.413c4.142-19.336-8.613-39.1-8.613-39.1L599.8,307.455s-7.027,78.244-2.876,88.391S621,447.4,621,447.4l15.274-3.579s-5.659-33.742-10.194-42.3c-3.265-6.164-8.605-9.092-6.114-17.126S638.214,336.233,641.6,320.413Z" transform="translate(-595.617 -281.312)" fill="#263238"/>
              </g>
            </g>
          </g>
          <g id="Grupo_102044" data-name="Grupo 102044" transform="translate(0.459)">
            <g id="Grupo_102043" data-name="Grupo 102043">
              <g id="Grupo_102042" data-name="Grupo 102042">
                <path id="Trazado_132996" data-name="Trazado 132996" d="M572.41,289.47l-.032-.025a171.36,171.36,0,0,1,8.01-21.271s10.367,8.191,19.827,10.084,30.538-6.909,30.538-6.909l3.749,13.469-30.309,19.962c1.129,2.257,3.681,8.723,1.988,18.577-2.131,12.419,2.133,46.775,8.361,68.762s6.628,54.624,6.628,54.624c-4.154,2.283-8.72,1.649-13.024-.7,0,0-3.062-8.183-7.206-21.869-5.676-18.745-6.327-24.866-6.741-30.786s-6.444-27.9-17.24-55.382C567.06,312.8,571.59,292.642,572.41,289.47Z" transform="translate(-570.665 -268.174)" fill="#263238"/>
              </g>
            </g>
          </g>
          <g id="Grupo_102047" data-name="Grupo 102047" transform="translate(19.615 25.827)">
            <g id="Grupo_102046" data-name="Grupo 102046">
              <g id="Grupo_102045" data-name="Grupo 102045">
                <path id="Trazado_132997" data-name="Trazado 132997" d="M590.338,294.7a1.7,1.7,0,0,1,.173.214l.482.649,1.849,2.543,6.926,9.634.025.036,0,.042c-.337,3.607-.465,7.8-.7,12.459s-.481,9.8-.753,15.313c-.3,5.513-.617,11.406-.951,17.58-.38,6.174-.706,12.63-1.346,19.27-.665,5.524-1.252,10.949-.765,16.167a37.825,37.825,0,0,0,.543,3.845,24.687,24.687,0,0,0,.946,3.684c.9,2.342,1.954,4.61,2.95,6.815,4.031,8.822,7.807,16.707,10.951,23.338,3.155,6.613,5.71,11.971,7.485,15.69.873,1.842,1.555,3.278,2.025,4.27l.519,1.114c.115.252.164.386.164.386s-.075-.122-.2-.367l-.557-1.1-2.1-4.238c-1.8-3.707-4.4-9.045-7.607-15.636-3.179-6.618-6.984-14.489-11.037-23.307-1-2.212-2.051-4.459-2.977-6.846a25.006,25.006,0,0,1-.964-3.733,38.014,38.014,0,0,1-.554-3.883c-.5-5.265.094-10.728.759-16.246.636-6.613.968-13.08,1.355-19.248.347-6.174.677-12.064.985-17.577.291-5.513.562-10.646.807-15.309s.4-8.854.767-12.463l.021.078c-2.923-4.151-5.237-7.436-6.829-9.7-.778-1.116-1.379-1.98-1.8-2.579l-.455-.668A1.579,1.579,0,0,1,590.338,294.7Z" transform="translate(-590.338 -294.697)" fill="#455a64"/>
              </g>
            </g>
          </g>
          <g id="Grupo_102051" data-name="Grupo 102051" transform="translate(0 9.431)">
            <g id="Grupo_102050" data-name="Grupo 102050">
              <g id="Grupo_102049" data-name="Grupo 102049">
                <g id="Grupo_102048" data-name="Grupo 102048">
                  <path id="Trazado_132998" data-name="Trazado 132998" d="M582.121,351.983a4.46,4.46,0,0,1-.321-.713q-.31-.784-.823-2.081c-.7-1.812-1.691-4.445-2.852-7.721s-2.487-7.2-3.774-11.615a116.261,116.261,0,0,1-3.382-14.577,65.049,65.049,0,0,1,1.49-27.009,48,48,0,0,1,2.84-7.737c.389-.893.782-1.542,1.015-2a4.287,4.287,0,0,1,.4-.673,4.307,4.307,0,0,1-.3.722c-.2.47-.564,1.132-.921,2.034a53.126,53.126,0,0,0-2.665,7.75,66.681,66.681,0,0,0-1.327,26.829,121.232,121.232,0,0,0,3.327,14.523c1.258,4.411,2.547,8.339,3.659,11.629l2.691,7.772.728,2.116A4.236,4.236,0,0,1,582.121,351.983Z" transform="translate(-570.194 -277.859)" fill="#455a64"/>
                </g>
              </g>
            </g>
          </g>
        </g>
        <g id="Grupo_102073" data-name="Grupo 102073" transform="translate(27.06 58.208)">
          <g id="Grupo_102068" data-name="Grupo 102068">
            <g id="Grupo_102056" data-name="Grupo 102056" transform="translate(0 8.638)">
              <g id="Grupo_102055" data-name="Grupo 102055">
                <g id="Grupo_102054" data-name="Grupo 102054">
                  <g id="Grupo_102053" data-name="Grupo 102053">
                    <path id="Trazado_132999" data-name="Trazado 132999" d="M578.8,207.039s-4.036,1.213-7.449,8.513c-2.724,5.825-4,38.736-4,38.736L545.4,249.775l-3.448,16.508s18.445,7.371,30.15,11.224c5.3,1.746,9.481-4.425,10.081-6.027,1.926-5.138-.595-42.688-.595-42.688Z" transform="translate(-541.95 -207.039)" fill="#f0bd51"/>
                  </g>
                </g>
              </g>
            </g>
            <g id="Grupo_102065" data-name="Grupo 102065" transform="translate(32.941)">
              <g id="Grupo_102060" data-name="Grupo 102060">
                <g id="Grupo_102059" data-name="Grupo 102059">
                  <g id="Grupo_102058" data-name="Grupo 102058">
                    <g id="Grupo_102057" data-name="Grupo 102057">
                      <path id="Trazado_133000" data-name="Trazado 133000" d="M577.862,218.722l1.825-11.916c1.784-1.891,13.781-5.242,13.781-5.242,14.162,3.253,21.008-3.178,22.47-3.392,1.013-.148,11.833,3.28,11.833,3.28l5.455,31.872s-1.3,23.2-1.4,23.369,1.405,18.394,1.405,18.394-24.5,8.457-35.32,10.92-22.131-11.392-22.131-11.392c2.445-6.453,3.481-14.267,2.971-23.573Z" transform="translate(-575.778 -198.168)" fill="#f0bd51"/>
                    </g>
                  </g>
                </g>
              </g>
              <g id="Grupo_102064" data-name="Grupo 102064" transform="translate(22.293 36.802)">
                <g id="Grupo_102063" data-name="Grupo 102063">
                  <g id="Grupo_102062" data-name="Grupo 102062">
                    <g id="Grupo_102061" data-name="Grupo 102061">
                      <path id="Trazado_133001" data-name="Trazado 133001" d="M598.755,235.961c.1,0,.1,1.079.445,2.762a17.387,17.387,0,0,0,7.295,10.827c1.429.954,2.43,1.359,2.393,1.45a2.1,2.1,0,0,1-.732-.214,11.109,11.109,0,0,1-1.863-.918,15.137,15.137,0,0,1-2.473-1.85,16.273,16.273,0,0,1-4.2-6.239,15.135,15.135,0,0,1-.785-2.988,11.07,11.07,0,0,1-.152-2.071A2.1,2.1,0,0,1,598.755,235.961Z" transform="translate(-598.671 -235.961)" fill="#263238"/>
                    </g>
                  </g>
                </g>
              </g>
            </g>
            <g id="Grupo_102067" data-name="Grupo 102067" transform="translate(31.967 31.636)">
              <g id="Grupo_102066" data-name="Grupo 102066">
                <path id="Trazado_133002" data-name="Trazado 133002" d="M575.575,230.656a44.1,44.1,0,0,0-.432,6.637,40.6,40.6,0,0,0,.841,7.155,86.168,86.168,0,0,0,2.3,8.551,11.8,11.8,0,0,1,.471,2.32c.11.763.181,1.521.233,2.268a25.914,25.914,0,0,1-.009,4.315,31.966,31.966,0,0,1-1.612,7.1,47.216,47.216,0,0,0-1.241,4.712,14.622,14.622,0,0,1-.372,1.754,1.614,1.614,0,0,1,.018-.465c.033-.3.065-.752.16-1.323a37.551,37.551,0,0,1,1.092-4.778,33.413,33.413,0,0,0,1.49-7.036,26.3,26.3,0,0,0-.021-4.24c-.054-.736-.127-1.483-.237-2.239a11.449,11.449,0,0,0-.459-2.244,79.474,79.474,0,0,1-2.269-8.6,38.343,38.343,0,0,1-.741-7.24c-.031-1.037.065-1.976.106-2.8.105-.818.168-1.525.276-2.095.11-.518.2-.947.278-1.3A1.63,1.63,0,0,1,575.575,230.656Z" transform="translate(-574.778 -230.656)" fill="#263238"/>
              </g>
            </g>
          </g>
          <g id="Grupo_102072" data-name="Grupo 102072" transform="translate(78.808 3.284)">
            <g id="Grupo_102069" data-name="Grupo 102069">
              <path id="Trazado_133003" data-name="Trazado 133003" d="M629.006,201.541s10.826,1.177,14.44,15.067c1.912,7.351,9.869,55.142,9.227,59.249s-.76,31.6-.76,31.6l-16.257-3.1.216-35.769-8.277-37.025-4.714-20.126Z" transform="translate(-622.881 -201.541)" fill="#f0bd51"/>
            </g>
            <g id="Grupo_102071" data-name="Grupo 102071" transform="translate(2.218 22.174)">
              <g id="Grupo_102070" data-name="Grupo 102070">
                <path id="Trazado_133004" data-name="Trazado 133004" d="M625.166,224.312c.136-.032,2.114,7.833,4.417,17.566s4.061,17.653,3.924,17.685-2.114-7.832-4.418-17.568S625.029,224.344,625.166,224.312Z" transform="translate(-625.158 -224.312)" fill="#f0bd51"/>
              </g>
            </g>
          </g>
        </g>
        <g id="Grupo_102123" data-name="Grupo 102123" transform="translate(90.149 165.183)">
          <g id="Grupo_102074" data-name="Grupo 102074" transform="translate(37.039 27.315)">
            <rect id="Rectángulo_36580" data-name="Rectángulo 36580" width="0.974" height="3.746" fill="#e0e0e0"/>
          </g>
          <g id="Grupo_102115" data-name="Grupo 102115" transform="translate(0 30.736)">
            <g id="Grupo_102076" data-name="Grupo 102076" transform="translate(41.115 0.621)">
              <g id="Grupo_102075" data-name="Grupo 102075">
                <path id="Trazado_133005" data-name="Trazado 133005" d="M656.113,340.226l23.7,63.611L665.5,409.289l-16.538-66.1Z" transform="translate(-648.96 -340.226)" fill="#e0e0e0"/>
              </g>
            </g>
            <g id="Grupo_102078" data-name="Grupo 102078" transform="translate(24.089 2.729)">
              <g id="Grupo_102077" data-name="Grupo 102077">
                <path id="Trazado_133006" data-name="Trazado 133006" d="M665.039,409.346l-31.827-11.2-1.736-55.758,17.025.855Z" transform="translate(-631.476 -342.39)" fill="#e0e0e0"/>
              </g>
            </g>
            <g id="Grupo_102081" data-name="Grupo 102081" transform="translate(57.642 59.104)">
              <g id="Grupo_102080" data-name="Grupo 102080">
                <g id="Grupo_102079" data-name="Grupo 102079">
                  <path id="Trazado_133007" data-name="Trazado 133007" d="M665.943,410.864a18.276,18.276,0,0,1,.774-3.026c.544-1.855,1.334-4.416,2.246-7.266l.093-.288.279.12.592.254c2.883,1.244,5.481,2.4,7.35,3.257a19.929,19.929,0,0,1,2.981,1.5,19.862,19.862,0,0,1-3.135-1.139c-1.909-.768-4.531-1.865-7.414-3.107l-.592-.256.371-.168c-.919,2.847-1.77,5.39-2.409,7.215A18.025,18.025,0,0,1,665.943,410.864Z" transform="translate(-665.933 -400.284)" fill="#263238"/>
                </g>
              </g>
            </g>
            <g id="Grupo_102084" data-name="Grupo 102084" transform="translate(44.8 2.039)">
              <g id="Grupo_102083" data-name="Grupo 102083">
                <g id="Grupo_102082" data-name="Grupo 102082">
                  <path id="Trazado_133008" data-name="Trazado 133008" d="M652.749,341.682c.146-.041,3.876,12.785,8.331,28.643s7.947,28.753,7.8,28.794-3.876-12.781-8.332-28.644S652.6,341.724,652.749,341.682Z" transform="translate(-652.745 -341.682)" fill="#263238"/>
                </g>
              </g>
            </g>
            <g id="Grupo_102086" data-name="Grupo 102086" transform="translate(24.089 2.729)" opacity="0.3">
              <g id="Grupo_102085" data-name="Grupo 102085">
                <path id="Trazado_133009" data-name="Trazado 133009" d="M665.039,409.346l-31.827-11.2-1.736-55.758,17.025.855Z" transform="translate(-631.476 -342.39)"/>
              </g>
            </g>
            <g id="Grupo_102088" data-name="Grupo 102088" transform="translate(32.813 8.9)">
              <g id="Grupo_102087" data-name="Grupo 102087">
                <path id="Trazado_133010" data-name="Trazado 133010" d="M659.993,415.45l-19.559,4.864,5.395-71.448,1.542-.138Z" transform="translate(-640.434 -348.728)" fill="#455a64"/>
              </g>
            </g>
            <g id="Grupo_102090" data-name="Grupo 102090" transform="translate(13.612 5.105)">
              <g id="Grupo_102089" data-name="Grupo 102089">
                <path id="Trazado_133011" data-name="Trazado 133011" d="M639.917,420.212l-19.2-16.293,8.767-59.089,15.828,3.933Z" transform="translate(-620.716 -344.831)" fill="#455a64"/>
              </g>
            </g>
            <g id="Grupo_102092" data-name="Grupo 102092" transform="translate(13.612 5.105)" opacity="0.3">
              <g id="Grupo_102091" data-name="Grupo 102091">
                <path id="Trazado_133012" data-name="Trazado 133012" d="M639.917,420.212l-19.2-16.293,8.767-59.089,15.828,3.933Z" transform="translate(-620.716 -344.831)"/>
              </g>
            </g>
            <g id="Grupo_102095" data-name="Grupo 102095" transform="translate(32.809 68.093)">
              <g id="Grupo_102094" data-name="Grupo 102094">
                <g id="Grupo_102093" data-name="Grupo 102093">
                  <path id="Trazado_133013" data-name="Trazado 133013" d="M640.434,421.908a4.182,4.182,0,0,1,.591-.908c.408-.561,1.014-1.363,1.77-2.347,1.514-1.966,3.634-4.658,6-7.611l1.064-1.322.165-.206.211.156c2.726,2.018,5.124,3.825,6.831,5.143a23.348,23.348,0,0,1,2.68,2.2,23.152,23.152,0,0,1-2.9-1.906c-1.764-1.239-4.2-2.992-6.937-5l.375-.05-1.06,1.326c-2.369,2.952-4.538,5.606-6.13,7.51-.8.952-1.447,1.717-1.907,2.237A4.028,4.028,0,0,1,640.434,421.908Z" transform="translate(-640.431 -409.515)" fill="#263238"/>
                </g>
              </g>
            </g>
            <g id="Grupo_102098" data-name="Grupo 102098" transform="translate(38.861 9.078)">
              <g id="Grupo_102097" data-name="Grupo 102097">
                <g id="Grupo_102096" data-name="Grupo 102096">
                  <path id="Trazado_133014" data-name="Trazado 133014" d="M646.667,348.91c.152-.01,1.075,13.279,2.061,29.678s1.662,29.7,1.51,29.714-1.075-13.276-2.061-29.681S646.515,348.919,646.667,348.91Z" transform="translate(-646.646 -348.91)" fill="#263238"/>
                </g>
              </g>
            </g>
            <g id="Grupo_102100" data-name="Grupo 102100" transform="translate(12.904 5.032)">
              <g id="Grupo_102099" data-name="Grupo 102099">
                <path id="Trazado_133015" data-name="Trazado 133015" d="M641.323,345.11l-2.946,53.877-18.388-2.368,19.952-51.863Z" transform="translate(-619.989 -344.755)" fill="#f0bd51"/>
              </g>
            </g>
            <g id="Grupo_102102" data-name="Grupo 102102" transform="translate(0 0.706)">
              <g id="Grupo_102101" data-name="Grupo 102101">
                <path id="Trazado_133016" data-name="Trazado 133016" d="M619.642,396.5l-12.9-10.531,20.252-45.658,12.6,4.326Z" transform="translate(-606.738 -340.312)" fill="#ff725e"/>
              </g>
            </g>
            <g id="Grupo_102104" data-name="Grupo 102104" transform="translate(0 0.706)" opacity="0.3">
              <g id="Grupo_102103" data-name="Grupo 102103">
                <path id="Trazado_133017" data-name="Trazado 133017" d="M619.642,396.5l-12.9-10.531,20.252-45.658,12.6,4.326Z" transform="translate(-606.738 -340.312)" fill="#f0bd51"/>
              </g>
            </g>
            <g id="Grupo_102107" data-name="Grupo 102107" transform="translate(12.903 51.66)">
              <g id="Grupo_102106" data-name="Grupo 102106">
                <g id="Grupo_102105" data-name="Grupo 102105">
                  <path id="Trazado_133018" data-name="Trazado 133018" d="M619.989,397.874a19.622,19.622,0,0,1,2.935-1.5c1.841-.86,4.4-2.014,7.241-3.257l.926-.4.174-.076.131.135c2.011,2.047,3.781,3.888,5.036,5.231a16.818,16.818,0,0,1,1.945,2.237,16.586,16.586,0,0,1-2.211-1.975c-1.325-1.274-3.142-3.069-5.161-5.107l.3.058-.925.406c-2.84,1.243-5.424,2.341-7.305,3.109A19.39,19.39,0,0,1,619.989,397.874Z" transform="translate(-619.988 -392.639)" fill="#263238"/>
                </g>
              </g>
            </g>
            <g id="Grupo_102110" data-name="Grupo 102110" transform="translate(24.107 5.214)">
              <g id="Grupo_102109" data-name="Grupo 102109">
                <g id="Grupo_102108" data-name="Grupo 102108">
                  <path id="Trazado_133019" data-name="Trazado 133019" d="M640.949,344.942c.15.03-1.844,10.526-4.452,23.441s-4.845,23.363-4.994,23.333,1.844-10.525,4.454-23.444S640.8,344.912,640.949,344.942Z" transform="translate(-631.495 -344.942)" fill="#263238"/>
                </g>
              </g>
            </g>
            <g id="Grupo_102112" data-name="Grupo 102112" transform="translate(28.542)">
              <g id="Grupo_102111" data-name="Grupo 102111">
                <path id="Trazado_133020" data-name="Trazado 133020" d="M655.774,340.209l-19.725-.621.534,2.979,12.038.6Z" transform="translate(-636.049 -339.588)" fill="#263238"/>
              </g>
            </g>
            <g id="Grupo_102114" data-name="Grupo 102114" transform="translate(34.125 7.447)">
              <g id="Grupo_102113" data-name="Grupo 102113">
                <path id="Trazado_133021" data-name="Trazado 133021" d="M647.406,348.688l-5.624-1.453v.577l4.081,1.014Z" transform="translate(-641.782 -347.236)" fill="#263238"/>
              </g>
            </g>
          </g>
          <g id="Grupo_102116" data-name="Grupo 102116" transform="translate(38.387 27.315)">
            <rect id="Rectángulo_36581" data-name="Rectángulo 36581" width="0.974" height="3.746" fill="#e0e0e0"/>
          </g>
          <g id="Grupo_102120" data-name="Grupo 102120" transform="translate(27.931)">
            <g id="Grupo_102119" data-name="Grupo 102119">
              <g id="Grupo_102118" data-name="Grupo 102118">
                <g id="Grupo_102117" data-name="Grupo 102117">
                  <path id="Trazado_133022" data-name="Trazado 133022" d="M641.053,310.189a6.436,6.436,0,0,1-1.725,3.828,15.353,15.353,0,0,0-2.342,5.264s-1.176,7.261-1.443,9.614-.243,4.5,1.613,4.032,2.392-1.9,2.627-6.214l1.043-2.3,1.044,1.725.332,6.509s-4.93,2.216-4.574,3.508,1.241,1.058,1.241,1.058l.783.709,7.441-2.51,2.431-9.2-1.082-11.73.293-4.908-8.148-1.555Z" transform="translate(-635.421 -308.024)" fill="#ffbf9d"/>
                </g>
              </g>
            </g>
          </g>
          <g id="Grupo_102121" data-name="Grupo 102121" transform="translate(29.075 24.159)">
            <path id="Trazado_133023" data-name="Trazado 133023" d="M637.555,343.4l-.959-.175c.07-.378,1.736-9.255,5.5-10.388l.281.932C639.723,334.565,638,340.989,637.555,343.4Z" transform="translate(-636.596 -332.834)" fill="#e0e0e0"/>
          </g>
          <g id="Grupo_102122" data-name="Grupo 102122" transform="translate(27.219 24.159)">
            <path id="Trazado_133024" data-name="Trazado 133024" d="M635.586,342.851l-.9-.381c.147-.348,3.657-8.521,7.353-9.636l.281.932C639.618,334.582,636.542,340.6,635.586,342.851Z" transform="translate(-634.69 -332.834)" fill="#e0e0e0"/>
          </g>
        </g>
      </g>
    </g>
    <g id="Character_1" data-name="Character 1" transform="translate(301.318 72.692)">
      <g id="Grupo_102234" data-name="Grupo 102234" transform="translate(0 0)">
        <g id="Grupo_102125" data-name="Grupo 102125" transform="translate(0.249 0.201)">
          <ellipse id="Elipse_5255" data-name="Elipse 5255" cx="117.766" cy="117.766" rx="117.766" ry="117.766" fill="#f5f5f5"/>
        </g>
        <g id="Grupo_102127" data-name="Grupo 102127">
          <g id="Grupo_102126" data-name="Grupo 102126">
            <path id="Trazado_133025" data-name="Trazado 133025" d="M278.383,190.745s-.034-.647-.075-1.91c-.019-.633-.043-1.418-.072-2.351s-.048-2.021-.168-3.247q-.145-1.843-.326-4.117c-.154-1.512-.4-3.157-.619-4.944a124.121,124.121,0,0,0-2.4-12.193A116.626,116.626,0,0,0,269.9,147.2a113.615,113.615,0,0,0-8.191-16.578,119.042,119.042,0,0,0-29.886-33.432,117.32,117.32,0,0,0-49.508-21.97,119.525,119.525,0,0,0-46.069.53,116.03,116.03,0,0,0-31.01,11.319,123.821,123.821,0,0,0-14.481,9.17A128.813,128.813,0,0,0,77.5,107.661a126.846,126.846,0,0,0-11.611,13.551A115.819,115.819,0,0,0,56.3,136.636c-.676,1.369-1.44,2.7-2.047,4.109q-.948,2.1-1.9,4.2c-1.134,2.862-2.307,5.724-3.242,8.684a114.381,114.381,0,0,0-4.477,18.182,117.293,117.293,0,0,0,0,37.835,114.651,114.651,0,0,0,4.474,18.188c.936,2.961,2.108,5.823,3.241,8.688q.952,2.1,1.9,4.2c.605,1.41,1.371,2.741,2.047,4.11a115.631,115.631,0,0,0,9.583,15.431,126.7,126.7,0,0,0,11.613,13.556,128.851,128.851,0,0,0,13.264,11.427,117.755,117.755,0,0,0,29.779,16.011,125.269,125.269,0,0,0,15.719,4.482,119.5,119.5,0,0,0,46.073.528A117.3,117.3,0,0,0,231.834,284.3a119.042,119.042,0,0,0,29.883-33.432,113.688,113.688,0,0,0,8.189-16.577,116.658,116.658,0,0,0,4.825-14.784,124.029,124.029,0,0,0,2.394-12.192c.221-1.786.465-3.431.62-4.943q.178-2.271.325-4.116c.12-1.226.146-2.312.168-3.246s.053-1.718.073-2.351c.04-1.262.074-1.909.074-1.909s0,.646-.023,1.91q-.019.95-.047,2.353c-.015.936-.033,2.022-.144,3.25l-.3,4.122c-.147,1.514-.382,3.162-.6,4.952a122.672,122.672,0,0,1-2.352,12.219,116.438,116.438,0,0,1-4.792,14.825,113.563,113.563,0,0,1-8.171,16.632,119.142,119.142,0,0,1-29.908,33.57,117.606,117.606,0,0,1-49.646,22.1,119.826,119.826,0,0,1-46.242-.494,116.4,116.4,0,0,1-31.144-11.347,124.468,124.468,0,0,1-14.545-9.2,129.247,129.247,0,0,1-13.323-11.469,126.931,126.931,0,0,1-11.664-13.607,116.106,116.106,0,0,1-9.627-15.492c-.679-1.376-1.447-2.712-2.056-4.128q-.952-2.1-1.908-4.219c-1.14-2.876-2.317-5.751-3.257-8.724a115.075,115.075,0,0,1-4.5-18.264,117.767,117.767,0,0,1,0-37.994,114.883,114.883,0,0,1,4.5-18.259c.94-2.973,2.117-5.846,3.258-8.721q.955-2.113,1.907-4.218c.611-1.414,1.378-2.75,2.057-4.126a116.3,116.3,0,0,1,9.626-15.487,127.174,127.174,0,0,1,11.663-13.6A129.172,129.172,0,0,1,90.477,95.854a118.131,118.131,0,0,1,29.9-16.057,125.758,125.758,0,0,1,15.78-4.489,119.883,119.883,0,0,1,46.238-.5,117.606,117.606,0,0,1,49.645,22.1,119.146,119.146,0,0,1,29.911,33.569,113.5,113.5,0,0,1,8.173,16.633,116.523,116.523,0,0,1,4.793,14.825,122.964,122.964,0,0,1,2.353,12.221c.215,1.79.45,3.438.6,4.952q.167,2.275.3,4.123c.111,1.229.128,2.315.144,3.251s.034,1.719.047,2.353C278.383,190.1,278.383,190.745,278.383,190.745Z" transform="translate(-42.602 -72.778)" fill="#263238"/>
          </g>
        </g>
        <g id="Grupo_102233" data-name="Grupo 102233" transform="translate(55.673 13.717)">
          <g id="Grupo_102200" data-name="Grupo 102200" transform="translate(0 76.116)">
            <g id="Grupo_102128" data-name="Grupo 102128" transform="translate(26.527 109.38)">
              <path id="Trazado_133026" data-name="Trazado 133026" d="M128.437,311.9s18.022,6.025,37.821,5.4c22.039-.7,36.376-6.378,36.376-6.378L194.592,280.8l-25.423,7.724-31.318-4.512Z" transform="translate(-128.437 -280.799)" fill="#263238"/>
            </g>
            <g id="Grupo_102179" data-name="Grupo 102179">
              <g id="Grupo_102136" data-name="Grupo 102136" transform="translate(36.014 0.028)">
                <g id="Grupo_102130" data-name="Grupo 102130">
                  <g id="Grupo_102129" data-name="Grupo 102129">
                    <path id="Trazado_133027" data-name="Trazado 133027" d="M181.26,177.391l-3.79-9.588-22.608-1.191-9.235,1.19-1.016,2.657-6.267,110.882s21.9,4.418,32.848,2.881,23.82-6.53,23.82-6.53v-63.06Z" transform="translate(-138.344 -166.612)" fill="#f5f5f5"/>
                  </g>
                </g>
                <g id="Grupo_102133" data-name="Grupo 102133" transform="translate(8.888 14.129)">
                  <g id="Grupo_102132" data-name="Grupo 102132">
                    <g id="Grupo_102131" data-name="Grupo 102131">
                      <path id="Trazado_133028" data-name="Trazado 133028" d="M147.625,182.519a1.051,1.051,0,0,0,.156.2c.129.144.291.325.49.549.436.474,1.084,1.158,1.932,2a79.075,79.075,0,0,0,7.4,6.479l.108.083.093-.1a83.7,83.7,0,0,0,6.786-8.492l.669-.972-.271,0,5.434,7.316a3.767,3.767,0,0,0,.753.764,1.426,1.426,0,0,0,1.05.285,1.706,1.706,0,0,0,.911-.514,8.664,8.664,0,0,0,.622-.731l2.145-2.685,3.078-3.891.822-1.064a2.555,2.555,0,0,0,.269-.385,2.613,2.613,0,0,0-.32.344l-.869,1.027-3.159,3.825-2.177,2.66c-.387.464-.78,1.032-1.365,1.13s-1.12-.418-1.52-.95c-1.659-2.248-3.482-4.721-5.406-7.329l-.138-.188-.133.193-.667.968a88.109,88.109,0,0,1-6.733,8.483l.2-.018a88.685,88.685,0,0,1-7.458-6.369c-.864-.823-1.53-1.486-1.987-1.939l-.523-.517A1.049,1.049,0,0,0,147.625,182.519Z" transform="translate(-147.625 -181.366)" fill="#263238"/>
                    </g>
                  </g>
                </g>
                <g id="Grupo_102135" data-name="Grupo 102135" transform="translate(8.497 14.874)" opacity="0.3">
                  <g id="Grupo_102134" data-name="Grupo 102134">
                    <path id="Trazado_133029" data-name="Trazado 133029" d="M173.437,189.584s-2.865,3.531-3.672,2.645-5.05-7.462-5.559-7.735-5.64,8.944-7.654,8.3-9.194-7.823-9.194-7.823l-.141-2.826,10.46,9.518,7.428-9.458,6.249,8.13S172.677,191.371,173.437,189.584Z" transform="translate(-147.217 -182.144)"/>
                  </g>
                </g>
              </g>
              <g id="Grupo_102138" data-name="Grupo 102138" transform="translate(62.341 16.137)">
                <g id="Grupo_102137" data-name="Grupo 102137">
                  <path id="Trazado_133030" data-name="Trazado 133030" d="M169.423,285.606a6.293,6.293,0,0,0,.01-1.04q-.036-1.107-.1-2.978c-.107-2.647-.26-6.37-.445-10.946-.388-9.242-.909-22.01-1.4-36.113s-.848-26.883-1.1-36.13c-.13-4.578-.237-8.3-.311-10.951q-.069-1.87-.11-2.976a6.321,6.321,0,0,0-.082-1.037,6.6,6.6,0,0,0-.046,1.039q0,1.108-.01,2.979c.027,2.649.064,6.376.109,10.956.137,9.251.427,22.03.915,36.142s1.081,26.876,1.584,36.113c.27,4.572.49,8.293.647,10.938q.135,1.867.215,2.972A6.312,6.312,0,0,0,169.423,285.606Z" transform="translate(-165.835 -183.434)" fill="#263238"/>
                </g>
              </g>
              <g id="Grupo_102144" data-name="Grupo 102144" transform="translate(75.29 1.417)">
                <g id="Grupo_102139" data-name="Grupo 102139" transform="translate(9.319 72.134)" opacity="0.3">
                  <path id="Trazado_133031" data-name="Trazado 133031" d="M190.318,243.387c-1.819,27.263-2.084,41.847,2.441,68.794,2.029-.388,4.8-1.125,7.768-1.952C196.566,284.25,194.278,269.366,190.318,243.387Z" transform="translate(-189.087 -243.387)"/>
                </g>
                <g id="Grupo_102140" data-name="Grupo 102140">
                  <path id="Trazado_133032" data-name="Trazado 133032" d="M206.4,265.854s.183-3.263.237-4.145l.674-13.3,1.613-27.823,7.4-31.69c-1.355-4.344-4.915-9-9.023-10.426-.323-.112-.655-.2-.986-.286l-9.045-2.27-7-1.369-10.919-6.48s10.031,60.691,10.676,76.3,6.716,64.482,6.716,64.482a95.852,95.852,0,0,0,25.289-10.16Z" transform="translate(-179.356 -168.063)" fill="#449c6e"/>
                </g>
                <g id="Grupo_102143" data-name="Grupo 102143" transform="translate(10.918 6.479)">
                  <g id="Grupo_102142" data-name="Grupo 102142">
                    <g id="Grupo_102141" data-name="Grupo 102141">
                      <path id="Trazado_133033" data-name="Trazado 133033" d="M191.243,236.919a.676.676,0,0,0,.054-.168c.033-.13.074-.294.124-.5.107-.464.256-1.107.444-1.922.348-1.678.843-4.108,1.3-7.138s.909-6.652,1.26-10.687.637-8.479.856-13.146c.078-1.743.154-3.455.23-5.126q.055-1.251.108-2.472.03-.612.059-1.213l.018-.6,0-.306c0-.052,0-.105-.011-.163a.542.542,0,0,0-.028-.113.289.289,0,0,0-.039-.063.183.183,0,0,0-.179-.047c-.119.058-.082.067-.116.1l.228-.05-3.588-2.5-.023.26,3.9-1.826.1-.05-.029-.11c-.586-2.218-1.291-4.186-1.9-5.929s-1.2-3.244-1.673-4.476-.866-2.194-1.138-2.846l-.315-.741a1.325,1.325,0,0,0-.123-.249,1.411,1.411,0,0,0,.082.264c.071.192.162.441.278.757l1.066,2.872c.456,1.24,1.006,2.749,1.61,4.494s1.282,3.72,1.848,5.922l.077-.16-3.911,1.805-.237.109.214.15,3.58,2.519.228-.05c0,.021-.112-.082-.105-.083,0-.028,0,0-.012,0a.109.109,0,0,1-.066.036l-.051.021h0l0,.006,0,.026.01.133v.289l-.019.595q-.03.6-.062,1.21-.056,1.221-.114,2.476c-.076,1.67-.153,3.381-.233,5.124-.219,4.664-.491,9.1-.829,13.135s-.759,7.65-1.187,10.679-.883,5.463-1.191,7.147c-.163.82-.291,1.466-.383,1.934-.037.206-.068.372-.092.5A.772.772,0,0,0,191.243,236.919Z" transform="translate(-190.757 -174.829)" fill="#263238"/>
                    </g>
                  </g>
                </g>
              </g>
              <g id="Grupo_102178" data-name="Grupo 102178">
                <g id="Grupo_102145" data-name="Grupo 102145" transform="translate(6.878)">
                  <path id="Trazado_133034" data-name="Trazado 133034" d="M145.479,180.125l-1.053-13.542c-3,2.684-8.628,7.859-8.628,7.859l-24.025,8.807,8.538,86.291-12.392,29.088c7.4,3.7,18.405,8.472,26.3,10.389,3.743-18.143,4.287-17.723,9.4-45.615S145.479,180.125,145.479,180.125Z" transform="translate(-107.919 -166.583)" fill="#449c6e"/>
                </g>
                <g id="Grupo_102147" data-name="Grupo 102147" transform="translate(12.131 105.206)" opacity="0.3">
                  <g id="Grupo_102146" data-name="Grupo 102146">
                    <path id="Trazado_133035" data-name="Trazado 133035" d="M174.888,283.405s1.64,2.132-1.968,2.787-44.483-2.365-44.483-2.365L113.4,290.949l1.953-5.378,10.624-9.13Z" transform="translate(-113.404 -276.441)"/>
                  </g>
                </g>
                <g id="Grupo_102149" data-name="Grupo 102149" transform="translate(0 16.665)">
                  <g id="Grupo_102148" data-name="Grupo 102148">
                    <path id="Trazado_133036" data-name="Trazado 133036" d="M111.468,183.985s-7.281,3.573-8.373,13.745c-.961,8.948-2.536,63.877-2.342,68.31s4.018,16.951,10.88,17.387c10.831.688,13.811-7.67,13.811-7.67L122.535,247.7Z" transform="translate(-100.737 -183.985)" fill="#449c6e"/>
                  </g>
                </g>
                <g id="Grupo_102152" data-name="Grupo 102152" transform="translate(33.598 7.858)">
                  <g id="Grupo_102151" data-name="Grupo 102151">
                    <g id="Grupo_102150" data-name="Grupo 102150">
                      <path id="Trazado_133037" data-name="Trazado 133037" d="M140.5,233.952a.631.631,0,0,0-.018-.166c-.023-.127-.052-.284-.087-.479-.088-.444-.21-1.056-.363-1.832-.292-1.6-.733-3.9-1.14-6.771-.857-5.735-1.587-13.718-2.008-22.558-.1-2.083-.194-4.118-.287-6.087q-.066-1.478-.13-2.9-.037-.711-.075-1.407-.013-.346-.026-.689l0-.336c0-.055,0-.11.009-.158,0-.021.008-.051.008-.051s0,0-.01.017a.171.171,0,0,1-.022.023.131.131,0,0,1-.1.033c-.038.01-.1-.045-.089-.038l-.008-.01.222.049,3.578-2.522.2-.144-.226-.1-3.912-1.8.07.147a46.358,46.358,0,0,0,.8-4.762c.182-1.41.358-2.621.553-3.6a21.959,21.959,0,0,1,.554-2.241c.077-.236.139-.424.188-.574a.883.883,0,0,0,.054-.2.817.817,0,0,0-.089.186c-.052.126-.135.312-.223.563a18.323,18.323,0,0,0-.622,2.236c-.216.983-.415,2.2-.615,3.6s-.415,3.009-.842,4.728l-.025.1.1.045,3.9,1.83-.021-.247-3.59,2.5.222.048-.033-.044a.2.2,0,0,0-.124-.06.189.189,0,0,0-.117.041.128.128,0,0,0-.034.04.172.172,0,0,0-.027.057.542.542,0,0,0-.023.116c-.007.065-.009.124-.011.184v.35q.012.346.024.7.034.7.07,1.408.06,1.424.123,2.9c.091,1.97.186,4.006.282,6.089a216.738,216.738,0,0,0,2.108,22.576c.438,2.871.915,5.173,1.245,6.762.18.771.322,1.379.425,1.82l.119.472A.63.63,0,0,0,140.5,233.952Z" transform="translate(-135.821 -174.789)" fill="#263238"/>
                    </g>
                  </g>
                </g>
                <g id="Grupo_102154" data-name="Grupo 102154" transform="translate(22.008 44.186)">
                  <g id="Grupo_102153" data-name="Grupo 102153">
                    <path id="Trazado_133038" data-name="Trazado 133038" d="M126.209,212.726l51.458,2.627a2.37,2.37,0,0,1,2.246,2.234l3.416,61.039a2.37,2.37,0,0,1-2.49,2.5l-49.931-2.611a2.37,2.37,0,0,1-2.237-2.175l-4.944-61.055A2.37,2.37,0,0,1,126.209,212.726Z" transform="translate(-123.718 -212.723)" fill="#263238"/>
                  </g>
                </g>
                <g id="Grupo_102157" data-name="Grupo 102157" transform="translate(13.696 30.813)">
                  <g id="Grupo_102156" data-name="Grupo 102156">
                    <g id="Grupo_102155" data-name="Grupo 102155">
                      <path id="Trazado_133039" data-name="Trazado 133039" d="M115.041,198.758a3.625,3.625,0,0,0,.083.549q.112.577.3,1.558c.273,1.383.656,3.331,1.127,5.725.94,4.836,2.169,11.531,3.344,18.955s2.068,14.174,2.665,19.065c.29,2.423.526,4.394.693,5.793q.122.993.194,1.575a3.43,3.43,0,0,0,.09.547,3.484,3.484,0,0,0-.023-.553q-.049-.586-.132-1.581c-.12-1.373-.319-3.358-.589-5.807-.537-4.9-1.4-11.658-2.569-19.09s-2.443-14.123-3.443-18.949c-.5-2.413-.921-4.363-1.231-5.706q-.228-.972-.362-1.546A3.469,3.469,0,0,0,115.041,198.758Z" transform="translate(-115.039 -198.758)" fill="#263238"/>
                    </g>
                  </g>
                </g>
                <g id="Grupo_102172" data-name="Grupo 102172" transform="translate(10.168 79.494)">
                  <g id="Grupo_102159" data-name="Grupo 102159" transform="translate(0.729)">
                    <g id="Grupo_102158" data-name="Grupo 102158">
                      <path id="Trazado_133040" data-name="Trazado 133040" d="M124.665,254.26s-2.963.17-5.585,4.558l-5.014,3.192s-4.388,6.9,0,13.334,9.688.969,9.688.969,5.3,2.626,6.781,2.168a105.607,105.607,0,0,0,12.993-7.1c.436-.369,3.669-4.081,3.669-4.081s4.48-.961,4.993-1.987.55-3.38-2.471-3.152c0,0,2.939-.886,3.281-2.367s-.026-3.415-5.212-2.675-15.185,3.519-16.342,3.236a.725.725,0,0,1,.114-1.311c.373-.173,12.127-4.744,14.023-5.263,2.04-.56,2.333-5.108-1.885-4.025s-17.951,4.388-17.951,4.388Z" transform="translate(-112.116 -249.592)" fill="#ffbf9d"/>
                    </g>
                  </g>
                  <g id="Grupo_102162" data-name="Grupo 102162" transform="translate(21.029 17.769)">
                    <g id="Grupo_102161" data-name="Grupo 102161">
                      <g id="Grupo_102160" data-name="Grupo 102160">
                        <path id="Trazado_133041" data-name="Trazado 133041" d="M133.314,272.5a17.686,17.686,0,0,0,2.179-.662c1.335-.436,3.182-1.027,5.238-1.627s3.931-1.093,5.292-1.442a17.775,17.775,0,0,0,2.192-.613,2.149,2.149,0,0,0-.61.066c-.389.063-.948.171-1.637.317-1.376.292-3.268.752-5.331,1.353s-3.9,1.23-5.222,1.724c-.659.246-1.188.456-1.55.612A2.16,2.16,0,0,0,133.314,272.5Z" transform="translate(-133.314 -268.146)" fill="#ff9a6c"/>
                      </g>
                    </g>
                  </g>
                  <g id="Grupo_102165" data-name="Grupo 102165" transform="translate(19.341 12.567)">
                    <g id="Grupo_102164" data-name="Grupo 102164">
                      <g id="Grupo_102163" data-name="Grupo 102163">
                        <path id="Trazado_133042" data-name="Trazado 133042" d="M131.551,266.816a3.513,3.513,0,0,0,.77-.052c.493-.054,1.2-.148,2.08-.279,1.753-.26,4.167-.681,6.812-1.247s5.02-1.172,6.726-1.653c.853-.24,1.541-.444,2.012-.6a3.39,3.39,0,0,0,.724-.269,3.455,3.455,0,0,0-.758.145l-2.037.494c-1.719.421-4.1.989-6.735,1.555s-5.041,1.021-6.781,1.34l-2.061.383A3.4,3.4,0,0,0,131.551,266.816Z" transform="translate(-131.551 -262.714)" fill="#ff9a6c"/>
                      </g>
                    </g>
                  </g>
                  <g id="Grupo_102168" data-name="Grupo 102168" transform="translate(5.056 15.493)">
                    <g id="Grupo_102167" data-name="Grupo 102167">
                      <g id="Grupo_102166" data-name="Grupo 102166">
                        <path id="Trazado_133043" data-name="Trazado 133043" d="M116.654,265.77a1.7,1.7,0,0,0-.01.54,9.164,9.164,0,0,0,.2,1.457,12.994,12.994,0,0,0,5.235,7.943,9.07,9.07,0,0,0,1.261.753,1.664,1.664,0,0,0,.5.2c.029-.053-.651-.406-1.622-1.147a14.236,14.236,0,0,1-5.145-7.8C116.771,266.528,116.714,265.765,116.654,265.77Z" transform="translate(-116.635 -265.77)" fill="#ff9a6c"/>
                      </g>
                    </g>
                  </g>
                  <g id="Grupo_102171" data-name="Grupo 102171" transform="translate(0 11.992)">
                    <g id="Grupo_102170" data-name="Grupo 102170">
                      <g id="Grupo_102169" data-name="Grupo 102169">
                        <path id="Trazado_133044" data-name="Trazado 133044" d="M114.77,277.558c.049-.042-.642-.711-1.42-2.018A11.574,11.574,0,0,1,113,264.217c.7-1.354,1.343-2.063,1.293-2.1a2.289,2.289,0,0,0-.469.48,9.8,9.8,0,0,0-1.031,1.512,11.187,11.187,0,0,0,.36,11.557,9.719,9.719,0,0,0,1.124,1.444A2.3,2.3,0,0,0,114.77,277.558Z" transform="translate(-111.355 -262.114)" fill="#263238"/>
                      </g>
                    </g>
                  </g>
                </g>
                <g id="Grupo_102175" data-name="Grupo 102175" transform="translate(1.991 81.761)">
                  <g id="Grupo_102174" data-name="Grupo 102174">
                    <g id="Grupo_102173" data-name="Grupo 102173">
                      <path id="Trazado_133045" data-name="Trazado 133045" d="M102.817,255.218c.039.056.84-.563,2.291-1.27a16.67,16.67,0,0,1,2.639-1.009,16.865,16.865,0,0,1,6.855-.512,16.819,16.819,0,0,1,2.76.606c1.54.485,2.424.977,2.454.916a2.864,2.864,0,0,0-.605-.37,6.249,6.249,0,0,0-.748-.364,10.125,10.125,0,0,0-1.027-.406,15.112,15.112,0,0,0-2.792-.687,16.008,16.008,0,0,0-6.983.522A15.166,15.166,0,0,0,105,253.737a10.223,10.223,0,0,0-.954.555,6.05,6.05,0,0,0-.687.471A2.912,2.912,0,0,0,102.817,255.218Z" transform="translate(-102.816 -251.959)" fill="#263238"/>
                    </g>
                  </g>
                </g>
                <g id="Grupo_102177" data-name="Grupo 102177" transform="translate(31.049 8.967)" opacity="0.3">
                  <g id="Grupo_102176" data-name="Grupo 102176">
                    <path id="Trazado_133046" data-name="Trazado 133046" d="M137.738,175.946S133.4,186.063,134,186.905s2.891,1.445,2.891,1.445-3.737,1.615-3.734,3.049c.006,2.855,4.007,19.766,4.007,19.766l-.987-20.652L139.763,188l-3.905-1.816Z" transform="translate(-133.159 -175.946)"/>
                  </g>
                </g>
              </g>
            </g>
            <g id="Grupo_102193" data-name="Grupo 102193" transform="translate(140.952 27.168)">
              <g id="Grupo_102180" data-name="Grupo 102180" transform="translate(0 9.608)">
                <path id="Trazado_133047" data-name="Trazado 133047" d="M247.922,228.825s6.162-8.041,7.691-10.871a16.09,16.09,0,0,1,4.942-5.836c2.392-1.944,8.986-6.589,11.374-6.3s11.8-.83,11.8-.83l-7.1,11.158s2.14,7.791.475,9.532-1.435,1.339-3.816,2.114-11.343,1.3-11.474,1.551-5.215,8.212-5.215,8.212Z" transform="translate(-247.922 -204.985)" fill="#ffbf9d"/>
              </g>
              <g id="Grupo_102181" data-name="Grupo 102181" transform="translate(29.184)">
                <path id="Trazado_133048" data-name="Trazado 133048" d="M279.532,210.361,303.64,197l.719-1.442a.365.365,0,0,0-.307-.527l-1.548-.081L278.4,208.311Z" transform="translate(-278.396 -194.952)" fill="#263238"/>
              </g>
              <g id="Grupo_102182" data-name="Grupo 102182" transform="translate(31.692 7.183)">
                <path id="Trazado_133049" data-name="Trazado 133049" d="M290.952,202.551s-1.915-.739-3.424,1.84a48.879,48.879,0,0,0-2.38,4.57,17.33,17.33,0,0,1-1.777.388l-2.356,3.3.713,2.094s4.835-.888,5.751-2.291a51.738,51.738,0,0,0,3.771-8.65C291.378,202.77,290.952,202.551,290.952,202.551Z" transform="translate(-281.015 -202.452)" fill="#ffbf9d"/>
              </g>
              <g id="Grupo_102186" data-name="Grupo 102186" transform="translate(16.263 10.906)">
                <g id="Grupo_102183" data-name="Grupo 102183" transform="translate(0.261 0.265)">
                  <path id="Trazado_133050" data-name="Trazado 133050" d="M274.233,221.944l.963-1.768-1.674-1.762s-3.356,1.312-4.648-.213-.929-1.676-.929-1.676l4.419-1.552-2.732-.527s-3.623,1.46-4.454-.669l.136-1.293a33.7,33.7,0,0,1,5.023-1.265,62.916,62.916,0,0,1,6.659.342h0l-4.652-1.207a7.608,7.608,0,0,1-2.96-.095,1.353,1.353,0,0,1-.783-1.937h0a1.349,1.349,0,0,1,.634-.595,12.179,12.179,0,0,1,3.634-1.1c1.633-.108,7.1.6,8.5,1.765s1.609,1.734,1.214,3.179a21.306,21.306,0,0,1-1.945,3.947,6.5,6.5,0,0,1-.744,3.151s.943,3.231-2.05,7.072" transform="translate(-265.177 -206.618)" fill="#ffbf9d"/>
                </g>
                <g id="Grupo_102185" data-name="Grupo 102185">
                  <g id="Grupo_102184" data-name="Grupo 102184">
                    <path id="Trazado_133051" data-name="Trazado 133051" d="M277.827,225.732a2.308,2.308,0,0,0,.337-.39,8.992,8.992,0,0,0,.828-1.244,9.166,9.166,0,0,0,.914-2.228,7.126,7.126,0,0,0,.128-3.257l-.02.137a6.2,6.2,0,0,0,.8-3.246l-.029.105c.452-.732.9-1.508,1.323-2.354a6.6,6.6,0,0,0,.858-2.873,2.305,2.305,0,0,0-.723-1.5,5.057,5.057,0,0,0-1.3-1.041,13.252,13.252,0,0,0-3.241-.985,29.88,29.88,0,0,0-3.5-.479,8.177,8.177,0,0,0-1.87.029,10.858,10.858,0,0,0-1.833.5q-.448.159-.89.345a3.333,3.333,0,0,0-.912.486,1.655,1.655,0,0,0-.295,2.1,1.574,1.574,0,0,0,.918.687,5.25,5.25,0,0,0,1.015.179,8.724,8.724,0,0,0,2.045-.083l-.119,0,1.9.492,2.756.714.1-.548c-2.087-.183-4.115-.364-6.127-.361a12.485,12.485,0,0,0-2.938.507c-.935.249-1.839.52-2.725.808l-.161.052-.016.168c-.045.439-.089.869-.132,1.294l-.007.064.023.056a1.985,1.985,0,0,0,.987,1.049,2.972,2.972,0,0,0,1.334.259,7.372,7.372,0,0,0,2.459-.512l-.133.012,2.734.514-.032-.431-3.293,1.179-.768.276-.189.067-.094.034-.047.016-.026.01a.24.24,0,0,0-.095.072c-.16.333-.01.428.019.577a6.342,6.342,0,0,0,.9,1.274,2.263,2.263,0,0,0,1.29.743,4.594,4.594,0,0,0,1.344.063,8.855,8.855,0,0,0,2.241-.542l-.138-.031,1.7,1.732-.013-.1-.69,1.355a2.119,2.119,0,0,0-.2.453,2.064,2.064,0,0,0,.274-.413l.763-1.315.03-.052-.043-.047-1.642-1.791-.055-.06-.083.03a8.813,8.813,0,0,1-2.173.469,2.69,2.69,0,0,1-2.333-.73,6.125,6.125,0,0,1-.822-1.2.841.841,0,0,1-.05-.148c-.013-.059.029-.036-.109-.1l-.013-.014-.009-.011c-.075-.114.1.146.072.125l-.022.011.02-.007.047-.016.094-.032.19-.065.77-.265,3.3-1.137.783-.269-.815-.162-2.729-.541-.064-.012-.07.026a6.962,6.962,0,0,1-2.284.458,1.8,1.8,0,0,1-1.843-1l.016.12c.046-.425.092-.854.14-1.293l-.178.219c.873-.278,1.776-.544,2.7-.784a11.985,11.985,0,0,1,2.813-.478c1.952,0,4,.187,6.064.371l.1-.548-2.756-.715-1.9-.492-.056-.014-.063.011a8.257,8.257,0,0,1-1.9.078,4.708,4.708,0,0,1-.909-.158,1.016,1.016,0,0,1-.6-.447,1.1,1.1,0,0,1,.191-1.4,2.962,2.962,0,0,1,.758-.392q.428-.181.861-.336a10.315,10.315,0,0,1,1.735-.478,7.659,7.659,0,0,1,1.749-.031,29.5,29.5,0,0,1,3.443.449,12.988,12.988,0,0,1,3.116.916,4.655,4.655,0,0,1,1.178.934,1.848,1.848,0,0,1,.61,1.2,6.279,6.279,0,0,1-.783,2.664c-.4.832-.838,1.613-1.271,2.337l-.029.048v.058a5.933,5.933,0,0,1-.688,3.055l-.039.061.018.076a7.018,7.018,0,0,1-.062,3.1,9.488,9.488,0,0,1-.82,2.205C278.24,225.159,277.784,225.7,277.827,225.732Z" transform="translate(-264.904 -206.341)" fill="#ff9a6c"/>
                  </g>
                </g>
              </g>
              <g id="Grupo_102188" data-name="Grupo 102188" transform="translate(11.223 24.188)">
                <g id="Grupo_102187" data-name="Grupo 102187">
                  <path id="Trazado_133052" data-name="Trazado 133052" d="M272.724,223.381a5.429,5.429,0,0,0-1.656-1.153,16.992,16.992,0,0,0-9.449-1.956,5.414,5.414,0,0,0-1.978.4,34.917,34.917,0,0,1,6.73.44A35.039,35.039,0,0,1,272.724,223.381Z" transform="translate(-259.641 -220.209)" fill="#ff9a6c"/>
                </g>
              </g>
              <g id="Grupo_102190" data-name="Grupo 102190" transform="translate(23.322 18.896)">
                <g id="Grupo_102189" data-name="Grupo 102189">
                  <path id="Trazado_133053" data-name="Trazado 133053" d="M272.276,215.322c.035.093.548-.1,1.381-.175a4.965,4.965,0,0,1,3.056.835,15.532,15.532,0,0,1,2.508,2.178c.607.618,1,.99,1.065.938s-.23-.508-.769-1.2a10.662,10.662,0,0,0-2.5-2.388,4.732,4.732,0,0,0-3.408-.755A2.437,2.437,0,0,0,272.276,215.322Z" transform="translate(-272.275 -214.684)" fill="#ff9a6c"/>
                </g>
              </g>
              <g id="Grupo_102192" data-name="Grupo 102192" transform="translate(28.137 16.014)">
                <g id="Grupo_102191" data-name="Grupo 102191">
                  <path id="Trazado_133054" data-name="Trazado 133054" d="M277.3,211.741a10.138,10.138,0,0,1,2.242,1.531c1.058,1.068,1.573,2.228,1.729,2.165a3.827,3.827,0,0,0-1.33-2.559,4.176,4.176,0,0,0-1.769-1.108C277.65,211.622,277.309,211.673,277.3,211.741Z" transform="translate(-277.303 -211.675)" fill="#ff9a6c"/>
                </g>
              </g>
            </g>
            <g id="Grupo_102199" data-name="Grupo 102199" transform="translate(102.097 14.902)">
              <g id="Grupo_102194" data-name="Grupo 102194" transform="translate(1.881)">
                <path id="Trazado_133055" data-name="Trazado 133055" d="M213.172,182.144l4.424,7.346,15.488,44.157,14.51-14.982,15.013,14.982s-18.325,24.635-21.477,28.581c-5.037,6.306-19.078,5.892-24.133-5.311-4.338-9.614-7.685-16.124-7.685-16.124l.828-18.619Z" transform="translate(-209.313 -182.144)" fill="#449c6e"/>
              </g>
              <g id="Grupo_102196" data-name="Grupo 102196" transform="translate(0 17.221)">
                <g id="Grupo_102195" data-name="Grupo 102195">
                  <path id="Trazado_133056" data-name="Trazado 133056" d="M211.33,200.126a1.057,1.057,0,0,1,.011.268l-.018.785c-.03.726-.07,1.734-.122,3.015-.129,2.656-.312,6.433-.538,11.084-.5,9.39-1.2,22.3-1.965,36.557-.305,5.4-.6,10.6-.87,15.389l-.023-.116,11.14,23.608,3.183,6.847q.526,1.164.831,1.837a4.533,4.533,0,0,1,.262.646,4.5,4.5,0,0,1-.336-.611l-.9-1.8c-.787-1.617-1.908-3.915-3.308-6.788l-11.3-23.531-.026-.055,0-.061c.263-4.79.55-9.993.847-15.39.824-14.256,1.569-27.162,2.111-36.549.292-4.647.53-8.422.7-11.075.091-1.279.163-2.285.215-3.01.028-.32.051-.577.068-.782A1.081,1.081,0,0,1,211.33,200.126Z" transform="translate(-207.349 -200.126)" fill="#263238"/>
                </g>
              </g>
              <g id="Grupo_102198" data-name="Grupo 102198" transform="translate(23.611 51.535)">
                <g id="Grupo_102197" data-name="Grupo 102197">
                  <path id="Trazado_133057" data-name="Trazado 133057" d="M232.077,250.33a8.264,8.264,0,0,1-.049-2.137c.048-1.317.19-3.133.461-5.127s.625-3.782.932-5.064a8.309,8.309,0,0,1,.621-2.044c.143.033-.522,3.212-1.058,7.176S232.222,250.335,232.077,250.33Z" transform="translate(-232.004 -235.958)" fill="#263238"/>
                </g>
              </g>
            </g>
          </g>
          <g id="Grupo_102232" data-name="Grupo 102232" transform="translate(24.483)">
            <g id="Grupo_102225" data-name="Grupo 102225">
              <g id="Grupo_102201" data-name="Grupo 102201" transform="translate(37.645 23.176)">
                <path id="Trazado_133058" data-name="Trazado 133058" d="M192.188,111.3s5.914,22.11,6.423,37.755l.169,5.213s-13.049,10.835-23.994,11.5l-9.173-22.558Z" transform="translate(-165.613 -111.302)" fill="#263238"/>
              </g>
              <g id="Grupo_102202" data-name="Grupo 102202" transform="translate(5.124)">
                <path id="Trazado_133059" data-name="Trazado 133059" d="M132.79,123.839c2.495-10.784,3.452-23.335,12.42-30.367,6.655-5.217,14.237-6.673,22.686-6.32,4.161.174,8.858,2.094,12.482,4.146,4.968,2.813,7.072,8.516,9.47,13.7,4.8,10.381,4.194,24.437.941,28.345L147.41,156.248c-8.662-4.509-14.089-6.3-15.473-17.85A42.3,42.3,0,0,1,132.79,123.839Z" transform="translate(-131.654 -87.102)" fill="#263238"/>
              </g>
              <g id="Grupo_102203" data-name="Grupo 102203" transform="translate(14.691 6.779)">
                <path id="Trazado_133060" data-name="Trazado 133060" d="M146.094,102.341l27.3-8.055c8.794-1.282,15.094,9.361,16,18.2,1.007,9.822,1.85,21.853.973,29.246-1.765,14.865-13.013,17.19-13.013,17.19-.006-.049.078,5.966.078,5.966L165,178.1l-19-12.7-4.344-57.61A5.2,5.2,0,0,1,146.094,102.341Z" transform="translate(-141.643 -94.181)" fill="#ffbf9d"/>
              </g>
              <g id="Grupo_102205" data-name="Grupo 102205" transform="translate(56.088 38.713)">
                <g id="Grupo_102204" data-name="Grupo 102204">
                  <path id="Trazado_133061" data-name="Trazado 133061" d="M188.648,129.167a1.9,1.9,0,0,1-1.753,1.983,1.813,1.813,0,0,1-2.02-1.631,1.9,1.9,0,0,1,1.75-1.984A1.815,1.815,0,0,1,188.648,129.167Z" transform="translate(-184.871 -127.527)" fill="#263238"/>
                </g>
              </g>
              <g id="Grupo_102207" data-name="Grupo 102207" transform="translate(53.144 32.144)">
                <g id="Grupo_102206" data-name="Grupo 102206">
                  <path id="Trazado_133062" data-name="Trazado 133062" d="M189.289,122.517c-.225.256-1.7-.75-3.741-.665-2.038.056-3.493,1.165-3.723.923-.113-.106.109-.561.741-1.061a5.2,5.2,0,0,1,2.969-1.045,4.993,4.993,0,0,1,2.99.837C189.17,121.963,189.4,122.4,189.289,122.517Z" transform="translate(-181.797 -120.667)" fill="#263238"/>
                </g>
              </g>
              <g id="Grupo_102209" data-name="Grupo 102209" transform="translate(38.593 38.713)">
                <g id="Grupo_102208" data-name="Grupo 102208">
                  <path id="Trazado_133063" data-name="Trazado 133063" d="M170.38,129.167a1.9,1.9,0,0,1-1.752,1.983,1.814,1.814,0,0,1-2.021-1.631,1.9,1.9,0,0,1,1.751-1.984A1.814,1.814,0,0,1,170.38,129.167Z" transform="translate(-166.603 -127.527)" fill="#263238"/>
                </g>
              </g>
              <g id="Grupo_102211" data-name="Grupo 102211" transform="translate(33.088 32.384)">
                <g id="Grupo_102210" data-name="Grupo 102210">
                  <path id="Trazado_133064" data-name="Trazado 133064" d="M168.348,122.768c-.226.256-1.7-.749-3.742-.664-2.038.056-3.493,1.164-3.723.923-.113-.106.106-.561.742-1.062a5.2,5.2,0,0,1,2.968-1.045,5,5,0,0,1,2.99.837C168.227,122.215,168.458,122.653,168.348,122.768Z" transform="translate(-160.854 -120.918)" fill="#263238"/>
                </g>
              </g>
              <g id="Grupo_102213" data-name="Grupo 102213" transform="translate(46.902 30.502)">
                <g id="Grupo_102212" data-name="Grupo 102212">
                  <path id="Trazado_133065" data-name="Trazado 133065" d="M176.9,135.9a13.491,13.491,0,0,1,3.288-.729c.519-.074,1.007-.2,1.081-.555a2.652,2.652,0,0,0-.408-1.529q-.809-1.86-1.7-3.9c-2.36-5.56-4.09-10.14-3.865-10.233s2.319,4.337,4.68,9.9q.853,2.057,1.632,3.929a3.02,3.02,0,0,1,.35,2.033,1.31,1.31,0,0,1-.826.795,3.551,3.551,0,0,1-.879.158A13.329,13.329,0,0,1,176.9,135.9Z" transform="translate(-175.279 -118.952)" fill="#263238"/>
                </g>
              </g>
              <g id="Grupo_102215" data-name="Grupo 102215" transform="translate(30.47 67.023)">
                <g id="Grupo_102214" data-name="Grupo 102214">
                  <path id="Trazado_133066" data-name="Trazado 133066" d="M178.112,161.587a37.606,37.606,0,0,1-19.992-4.5s5.3,10.145,20.029,8.181Z" transform="translate(-158.12 -157.088)" fill="#ff9a6c"/>
                </g>
              </g>
              <g id="Grupo_102216" data-name="Grupo 102216" transform="translate(41.57 50.532)">
                <path id="Trazado_133067" data-name="Trazado 133067" d="M170.052,141.319a2.957,2.957,0,0,1,2.4-1.436,3.845,3.845,0,0,1,3.571,1.6,2.388,2.388,0,0,1,.223,1.719c-.117.3-.023.149-.242.36a6.732,6.732,0,0,1-2.682,1.813,2.887,2.887,0,0,1-3.091-1A2.947,2.947,0,0,1,170.052,141.319Z" transform="translate(-169.711 -139.868)" fill="#ff9a6c"/>
              </g>
              <g id="Grupo_102218" data-name="Grupo 102218" transform="translate(41.928 49.186)">
                <g id="Grupo_102217" data-name="Grupo 102217">
                  <path id="Trazado_133068" data-name="Trazado 133068" d="M170.37,138.463c.33-.034.434,2.179,2.4,3.663s4.309,1.136,4.339,1.444c.037.138-.506.454-1.5.526a5.511,5.511,0,0,1-3.617-1.08,4.8,4.8,0,0,1-1.869-3.078C170,139.017,170.218,138.458,170.37,138.463Z" transform="translate(-170.085 -138.463)" fill="#263238"/>
                </g>
              </g>
              <g id="Grupo_102220" data-name="Grupo 102220" transform="translate(32.171 25.589)">
                <g id="Grupo_102219" data-name="Grupo 102219">
                  <path id="Trazado_133069" data-name="Trazado 133069" d="M169.078,115c-.147.572-2.2.507-4.554,1.026-2.365.472-4.218,1.356-4.583.892-.164-.223.121-.776.846-1.386a8.119,8.119,0,0,1,6.961-1.46C168.657,114.343,169.139,114.735,169.078,115Z" transform="translate(-159.896 -113.823)" fill="#263238"/>
                </g>
              </g>
              <g id="Grupo_102222" data-name="Grupo 102222" transform="translate(52.836 25.779)">
                <g id="Grupo_102221" data-name="Grupo 102221">
                  <path id="Trazado_133070" data-name="Trazado 133070" d="M189.107,116.747c-.464.4-1.949-.3-3.813-.592-1.856-.351-3.5-.192-3.79-.723-.126-.257.19-.68.943-1.014a5.821,5.821,0,0,1,3.214-.3,5.745,5.745,0,0,1,2.913,1.363C189.165,116.046,189.313,116.548,189.107,116.747Z" transform="translate(-181.476 -114.021)" fill="#263238"/>
                </g>
              </g>
              <g id="Grupo_102223" data-name="Grupo 102223" transform="translate(46.536 5.292)">
                <path id="Trazado_133071" data-name="Trazado 133071" d="M174.9,92.628c.026.106.046.215.07.321l-.052.021C174.909,92.856,174.9,92.742,174.9,92.628Z" transform="translate(-174.897 -92.628)" fill="#263238"/>
              </g>
              <g id="Grupo_102224" data-name="Grupo 102224" transform="translate(0 3.572)">
                <path id="Trazado_133072" data-name="Trazado 133072" d="M151.269,164.053a2.473,2.473,0,0,0,3.1-1.954,30.458,30.458,0,0,0,.075-8.989c-.48-4.1-3.263-8.4-3.608-12.513-.661-7.853.031-12.255.909-18.849a15.654,15.654,0,0,0,9.608-5.548c2.963-3.454,4.755-7.735,6.5-11.938a20,20,0,0,1-4.02,11.483,5.384,5.384,0,0,0,4.6-1.5,12.017,12.017,0,0,0,2.7-4.2,32.779,32.779,0,0,0,2.617-11.82,42.475,42.475,0,0,1-1.931,17.259,7.384,7.384,0,0,1,3.213.123,3.52,3.52,0,0,0,3.056-.649,3.834,3.834,0,0,0,.837-1.97,44.3,44.3,0,0,0,.491-15.038,45.911,45.911,0,0,1,3.389,8.334,16.15,16.15,0,0,1,.062,8.892,1.3,1.3,0,0,0,1.835-.012,3.107,3.107,0,0,0,.8-1.856,22.855,22.855,0,0,0-.486-7.485c1.478,2.618,1.968,5.657,2.785,8.551s2.117,5.861,4.632,7.509a39.4,39.4,0,0,0-.369-11.339,34.269,34.269,0,0,0-3.324-9,26.711,26.711,0,0,0-5.991-8.338c-4.354-3.813-6.173-2.171-8.953-.718l-.327.138c-.011-.068-.013-.137-.023-.2l-.125-.592a41.7,41.7,0,0,0-21.962,1.028c-5.241,1.707-5.722,12.992-7,7.63-.773-3.245-4.979-.283-5.031-.19-6.181,11.149-12.732,28.834-13.033,56.779h0Z" transform="translate(-126.303 -90.832)" fill="#263238"/>
              </g>
            </g>
            <g id="Grupo_102231" data-name="Grupo 102231" transform="translate(8.213 0)">
              <g id="Grupo_102227" data-name="Grupo 102227" transform="translate(16.191 48.704)">
                <g id="Grupo_102226" data-name="Grupo 102226">
                  <path id="Trazado_133073" data-name="Trazado 133073" d="M151.866,138.858a16.143,16.143,0,0,0,13.56,8.192.6.6,0,0,0,0-1.2,14.923,14.923,0,0,1-12.527-7.6c-.373-.674-1.408-.071-1.033.6Z" transform="translate(-151.786 -137.959)" fill="#449c6e"/>
                </g>
              </g>
              <g id="Grupo_102228" data-name="Grupo 102228" transform="translate(26.783 54.961)">
                <path id="Trazado_133074" data-name="Trazado 133074" d="M167.48,149.6l-2.637-.414a2.363,2.363,0,0,1-1.968-2.7h0a2.363,2.363,0,0,1,2.7-1.968l2.637.413a2.364,2.364,0,0,1,1.968,2.7h0A2.363,2.363,0,0,1,167.48,149.6Z" transform="translate(-162.846 -144.493)" fill="#449c6e"/>
              </g>
              <g id="Grupo_102229" data-name="Grupo 102229" transform="translate(0 34.735)">
                <ellipse id="Elipse_5256" data-name="Elipse 5256" cx="10.856" cy="10.856" rx="10.856" ry="10.856" fill="#449c6e"/>
              </g>
              <g id="Grupo_102230" data-name="Grupo 102230" transform="translate(7.787)">
                <path id="Trazado_133075" data-name="Trazado 133075" d="M143.069,123.386s-1.919-25.912,16.112-35.754l4.879-.53s-18.614,10.456-14.724,38.713Z" transform="translate(-143.01 -87.102)" fill="#449c6e"/>
              </g>
            </g>
          </g>
        </g>
      </g>
    </g>
    <g id="Speech_Bubble_1" data-name="Speech Bubble 1" transform="translate(469.679 70.744)">
      <g id="Grupo_102247" data-name="Grupo 102247" transform="translate(0 0)">
        <g id="Grupo_102242" data-name="Grupo 102242">
          <g id="Grupo_102241" data-name="Grupo 102241">
            <g id="Grupo_102240" data-name="Grupo 102240">
              <g id="Grupo_102239" data-name="Grupo 102239">
                <g id="Grupo_102238" data-name="Grupo 102238">
                  <g id="Grupo_102235" data-name="Grupo 102235" transform="translate(0.302 0.376)">
                    <path id="Trazado_133076" data-name="Trazado 133076" d="M236.1,140.381l7.785-3.9a33.212,33.212,0,1,0-10.843-4.9l-.017-.006Z" transform="translate(-218.723 -71.137)" fill="#fff"/>
                  </g>
                  <g id="Grupo_102237" data-name="Grupo 102237">
                    <g id="Grupo_102236" data-name="Grupo 102236">
                      <path id="Trazado_133077" data-name="Trazado 133077" d="M236.083,140.365a4.17,4.17,0,0,1-.218-.535l-.618-1.659-2.389-6.562a.159.159,0,0,1,.095-.2.174.174,0,0,1,.108,0l.018.007-.144.281a33.026,33.026,0,0,1-10.7-11.967,34.165,34.165,0,0,1-3.386-10.067,33.385,33.385,0,0,1,.236-12.074,34.1,34.1,0,0,1,5.241-12.271,32.734,32.734,0,0,1,10.512-9.888,34.232,34.232,0,0,1,14.654-4.577,33.6,33.6,0,0,1,28.7,12.708,34.14,34.14,0,0,1,6.5,14.078,32.642,32.642,0,0,1-.353,14.561,34.179,34.179,0,0,1-5.743,12.163,33.537,33.537,0,0,1-8.933,8.236l-2.463,1.386c-.817.434-1.671.756-2.482,1.128a30.033,30.033,0,0,1-4.886,1.611,32.983,32.983,0,0,1-16.006-.107l.106-.011-5.86,2.836-1.5.711a3.961,3.961,0,0,1-.5.217,5.5,5.5,0,0,1,.523-.294l1.5-.791,5.694-2.954a.158.158,0,0,1,.106-.012,33.109,33.109,0,0,0,15.812-.079,29.839,29.839,0,0,0,4.8-1.625c.794-.374,1.633-.7,2.432-1.128l2.41-1.377a33.086,33.086,0,0,0,8.722-8.133,33.616,33.616,0,0,0,5.578-11.944,32.016,32.016,0,0,0,.306-14.243,33.463,33.463,0,0,0-6.378-13.747,32.9,32.9,0,0,0-28.041-12.415,33.556,33.556,0,0,0-14.328,4.449,32.1,32.1,0,0,0-10.31,9.644,33.532,33.532,0,0,0-5.185,12,32.924,32.924,0,0,0-.3,11.847,33.831,33.831,0,0,0,3.258,9.927,33.121,33.121,0,0,0,10.433,11.939.159.159,0,0,1,.043.22.164.164,0,0,1-.186.06l-.017-.007.2-.2,2.182,6.53c.238.726.422,1.295.561,1.72C236.026,140.144,236.088,140.351,236.083,140.365Z" transform="translate(-218.408 -70.744)" fill="#263238"/>
                    </g>
                  </g>
                </g>
              </g>
            </g>
          </g>
        </g>
        <g id="Grupo_102246" data-name="Grupo 102246" transform="translate(19.323 31.371)">
          <g id="Grupo_102243" data-name="Grupo 102243">
            <path id="Trazado_133078" data-name="Trazado 133078" d="M245.838,107.13a3.626,3.626,0,1,1-3.626-3.627A3.626,3.626,0,0,1,245.838,107.13Z" transform="translate(-238.586 -103.503)" fill="#263238"/>
          </g>
          <g id="Grupo_102244" data-name="Grupo 102244" transform="translate(12.215)">
            <path id="Trazado_133079" data-name="Trazado 133079" d="M258.594,107.13a3.627,3.627,0,1,1-3.627-3.627A3.627,3.627,0,0,1,258.594,107.13Z" transform="translate(-251.341 -103.503)" fill="#263238"/>
          </g>
          <g id="Grupo_102245" data-name="Grupo 102245" transform="translate(24.108)">
            <path id="Trazado_133080" data-name="Trazado 133080" d="M271.012,107.13a3.626,3.626,0,1,1-3.626-3.627A3.626,3.626,0,0,1,271.012,107.13Z" transform="translate(-263.76 -103.503)" fill="#263238"/>
          </g>
        </g>
      </g>
    </g>
  </g>
</svg>
