<svg id="Grupo_952052" data-name="Grupo 952052" xmlns="http://www.w3.org/2000/svg" width="86.425" height="86.425" viewBox="0 0 86.425 86.425">
  <g id="Grupo_952049" data-name="Grupo 952049" transform="translate(4.27 4.285)">
    <path id="Trazado_628687" data-name="Trazado 628687" d="M1702.807,227.58a11.893,11.893,0,0,1,5.74,1.648c.377.208.571.217.869-.14,6.5-7.757,14.881-12.584,24.415-15.6a70.179,70.179,0,0,1,15.161-3.007l.075-.007c1.949-.18,2.562.433,2.386,2.371-.2,2.2-.467,4.381-.869,6.549a64.356,64.356,0,0,1-7.626,21.145,45.965,45.965,0,0,1-10.056,11.9c-.384.324-.418.539-.176.986,2.787,5.15,2.017,10.29-2.289,14.277a22.713,22.713,0,0,1-14.5,5.993,1.59,1.59,0,0,1-1.759-.9,1.644,1.644,0,0,1,.494-1.915,9.5,9.5,0,0,0,2.568-7.231c-.045-.984-.409-1.216-1.3-.852a55.827,55.827,0,0,1-6.242,2.115,4.66,4.66,0,0,1-2.689.065c-.248-.077-.411-.122-.547.17-2.179,4.664-6.3,6.548-10.97,7.632a46.225,46.225,0,0,1-5.314.892c-1.274.143-2.073-.562-1.945-1.783a35.828,35.828,0,0,1,2.334-9.934,12.28,12.28,0,0,1,5.861-6.322c.439-.233.647-.392.468-.944-.445-1.372.164-2.643.528-3.92a44.687,44.687,0,0,1,1.72-4.856c.331-.8.092-1.179-.8-1.228a9.567,9.567,0,0,0-7.2,2.448c-.132.118-.256.246-.392.359a1.481,1.481,0,0,1-1.631.251,1.447,1.447,0,0,1-.905-1.451,21.165,21.165,0,0,1,1.356-7.046,20.455,20.455,0,0,1,6.018-9.059A10.773,10.773,0,0,1,1702.807,227.58Zm14.6,31.263c.142-.063.308-.126.464-.208,1.366-.711,2.757-1.382,4.094-2.148,10.421-5.97,18.12-14.308,22.317-25.69a.867.867,0,0,0-.212-1.1q-5.94-5.885-11.83-11.82a.833.833,0,0,0-1.032-.264c-13.129,4.858-22.024,14.163-27.989,26.562a.576.576,0,0,0,.137.783q6.81,6.789,13.607,13.59C1717.083,258.665,1717.184,258.826,1717.407,258.843Zm-25.73-15.787a12.7,12.7,0,0,1,4.843-1.372,7.4,7.4,0,0,1,4.013.458c.328.168.34-.121.411-.265a60.848,60.848,0,0,1,5.92-9.618c.2-.26.208-.4-.121-.559-2.947-1.463-5.847-1.579-8.614.387-2.973,2.113-4.64,5.151-5.823,8.5A10.289,10.289,0,0,0,1691.677,243.055Zm27.216,27.149a2.125,2.125,0,0,0,.348,0,19.5,19.5,0,0,0,9.189-4.76c3.049-2.924,3.682-6.474,1.9-10.089-.227-.46-.384-.524-.8-.2a49,49,0,0,1-5.432,3.615c-1.316.754-2.667,1.447-4,2.18-.156.086-.516.084-.3.452a5.384,5.384,0,0,1,.5,2.876A13.836,13.836,0,0,1,1718.892,270.2Zm-27.035.179a30.779,30.779,0,0,0,7.148-1.937,9.579,9.579,0,0,0,4.886-4.966.725.725,0,0,0-.175-.985c-1.1-1.052-2.156-2.14-3.232-3.215-1.7-1.7-1.694-1.692-3.7-.325-3.946,2.694-4.436,7.011-5.258,11.173C1691.474,270.407,1691.661,270.406,1691.858,270.384Zm53.793-43.61a72.215,72.215,0,0,0,2.619-12.449c.074-.593-.062-.763-.661-.664-1.6.267-3.21.454-4.8.743a60.489,60.489,0,0,0-7.648,1.881Zm-37.442,35.356a1.192,1.192,0,0,0,.171-.017,49.906,49.906,0,0,0,5.552-1.783c.5-.193.138-.372-.009-.52q-5.9-5.911-11.805-11.817c-.316-.318-.429-.3-.59.128-.619,1.657-1.155,3.339-1.638,5.041a1.56,1.56,0,0,0,.439,1.655q3.375,3.391,6.764,6.766A1.728,1.728,0,0,0,1708.209,262.129Z" transform="translate(-1673.597 -210.449)" fill="#030202"/>
    <path id="Trazado_628688" data-name="Trazado 628688" d="M1682.214,280.31a1.854,1.854,0,0,1-.57,1.217q-5.029,5.02-10.054,10.043a1.53,1.53,0,1,1-2.136-2.159q4.989-5.006,9.988-10a1.583,1.583,0,0,1,1.854-.467A1.524,1.524,0,0,1,1682.214,280.31Z" transform="translate(-1668.855 -227.197)" fill="#030303"/>
    <path id="Trazado_628689" data-name="Trazado 628689" d="M1671.22,309.237a1.522,1.522,0,0,1-1.169-2.282,3.1,3.1,0,0,1,.491-.576q4.888-4.891,9.778-9.78a1.823,1.823,0,0,1,1.451-.7,1.517,1.517,0,0,1,1.129,2.378,3.706,3.706,0,0,1-.457.507q-4.861,4.863-9.724,9.725A1.943,1.943,0,0,1,1671.22,309.237Z" transform="translate(-1669.094 -231.383)" fill="#030303"/>
    <path id="Trazado_628690" data-name="Trazado 628690" d="M1687.463,309.238a1.514,1.514,0,0,1-1.313-2.232,2.463,2.463,0,0,1,.423-.531q4.966-4.974,9.938-9.943a1.719,1.719,0,0,1,1.4-.629,1.519,1.519,0,0,1,1.1,2.392,3.476,3.476,0,0,1-.407.449q-4.889,4.89-9.78,9.78A1.864,1.864,0,0,1,1687.463,309.238Z" transform="translate(-1673.047 -231.383)" fill="#030303"/>
    <path id="Trazado_628691" data-name="Trazado 628691" d="M1685.393,264.584a1.48,1.48,0,0,1,1.446.837,1.341,1.341,0,0,1-.2,1.624c-1.48,1.524-2.976,3.034-4.51,4.5a1.434,1.434,0,0,1-2.051-.118,1.463,1.463,0,0,1-.052-2c1.475-1.527,2.991-3.016,4.5-4.511A1.176,1.176,0,0,1,1685.393,264.584Z" transform="translate(-1671.501 -223.711)" fill="#030303"/>
    <path id="Trazado_628692" data-name="Trazado 628692" d="M1715.487,294.716a1.509,1.509,0,0,1-.54,1.037c-1.361,1.358-2.714,2.725-4.083,4.075a1.548,1.548,0,0,1-2.232.14,1.509,1.509,0,0,1,.083-2.278q2.052-2.08,4.131-4.134a1.451,1.451,0,0,1,1.729-.377A1.523,1.523,0,0,1,1715.487,294.716Z" transform="translate(-1678.483 -230.682)" fill="#030303"/>
    <path id="Trazado_628693" data-name="Trazado 628693" d="M1722.246,261.14c-.223-.017-.323-.177-.445-.3q-6.8-6.8-13.607-13.59a.576.576,0,0,1-.137-.783c5.965-12.4,14.86-21.7,27.989-26.562a.833.833,0,0,1,1.032.264q5.895,5.931,11.83,11.82a.867.867,0,0,1,.212,1.1c-4.2,11.382-11.9,19.72-22.317,25.69-1.336.766-2.727,1.437-4.094,2.148C1722.554,261.014,1722.388,261.077,1722.246,261.14Zm11.075-17.788a7.6,7.6,0,1,0-7.614-7.6A7.6,7.6,0,0,0,1733.321,243.352Zm-10.7,4.68a.946.946,0,0,0,.643-.192,17.118,17.118,0,0,0,2.728-2.725,1.5,1.5,0,0,0-2.023-2.066,15.688,15.688,0,0,0-2.732,2.72,1.3,1.3,0,0,0-.009,1.506A1.5,1.5,0,0,0,1722.622,248.033Zm-4.417,4.292a1.512,1.512,0,0,0,1.552-1.512,1.538,1.538,0,0,0-1.49-1.511,1.51,1.51,0,0,0-1.538,1.523A1.484,1.484,0,0,0,1718.2,252.325Z" transform="translate(-1678.436 -212.746)" fill="#fdfdfd"/>
    <path id="Trazado_628694" data-name="Trazado 628694" d="M1692.8,249.6a10.282,10.282,0,0,1,.63-2.467c1.184-3.351,2.851-6.39,5.823-8.5,2.767-1.966,5.667-1.851,8.614-.387.329.164.317.3.121.559a60.857,60.857,0,0,0-5.92,9.618c-.071.144-.084.433-.411.265a7.4,7.4,0,0,0-4.013-.458A12.7,12.7,0,0,0,1692.8,249.6Z" transform="translate(-1674.722 -216.989)" fill="#e95e51"/>
    <path id="Trazado_628695" data-name="Trazado 628695" d="M1728.849,284.645a13.84,13.84,0,0,0,1.4-5.93,5.387,5.387,0,0,0-.5-2.876c-.217-.368.143-.366.3-.452,1.328-.733,2.68-1.425,4-2.18a49,49,0,0,0,5.432-3.615c.421-.322.578-.258.8.2,1.787,3.615,1.154,7.165-1.9,10.089a19.5,19.5,0,0,1-9.189,4.76A2.122,2.122,0,0,1,1728.849,284.645Z" transform="translate(-1683.553 -224.889)" fill="#e95e51"/>
    <path id="Trazado_628696" data-name="Trazado 628696" d="M1692.932,285.8c-.2.022-.384.023-.328-.254.822-4.162,1.312-8.479,5.258-11.173,2-1.367,2-1.372,3.7.325,1.075,1.074,2.136,2.162,3.232,3.215a.725.725,0,0,1,.175.984,9.579,9.579,0,0,1-4.886,4.966A30.779,30.779,0,0,1,1692.932,285.8Z" transform="translate(-1674.671 -225.868)" fill="#f7db85"/>
    <path id="Trazado_628697" data-name="Trazado 628697" d="M1760.885,227.808l-10.493-10.488a60.482,60.482,0,0,1,7.648-1.881c1.594-.289,3.206-.476,4.8-.743.6-.1.735.07.661.664A72.227,72.227,0,0,1,1760.885,227.808Z" transform="translate(-1688.831 -211.482)" fill="#e95e51"/>
    <path id="Trazado_628698" data-name="Trazado 628698" d="M1711.974,274.241a1.729,1.729,0,0,1-1.117-.547q-3.386-3.379-6.764-6.766a1.56,1.56,0,0,1-.439-1.655c.483-1.7,1.019-3.384,1.638-5.041.161-.432.274-.446.59-.128q5.9,5.916,11.805,11.817c.147.148.509.328.009.52a49.912,49.912,0,0,1-5.552,1.783A1.191,1.191,0,0,1,1711.974,274.241Z" transform="translate(-1677.362 -222.56)" fill="#e85e51"/>
    <path id="Trazado_628699" data-name="Trazado 628699" d="M1739.079,246.054a7.6,7.6,0,0,1-.048-15.2,7.6,7.6,0,1,1,.048,15.2Zm-.052-3.043a4.554,4.554,0,1,0-4.519-4.553A4.533,4.533,0,0,0,1739.027,243.01Z" transform="translate(-1684.194 -215.447)" fill="#030303"/>
    <path id="Trazado_628700" data-name="Trazado 628700" d="M1726.85,255.494a1.5,1.5,0,0,1-1.394-.757,1.3,1.3,0,0,1,.009-1.506,15.673,15.673,0,0,1,2.732-2.72,1.5,1.5,0,0,1,2.022,2.066,17.125,17.125,0,0,1-2.728,2.725A.947.947,0,0,1,1726.85,255.494Z" transform="translate(-1682.664 -220.208)" fill="#070707"/>
    <path id="Trazado_628701" data-name="Trazado 628701" d="M1721.049,261.889a1.484,1.484,0,0,1-1.475-1.5,1.51,1.51,0,0,1,1.538-1.523,1.538,1.538,0,0,1,1.49,1.511A1.512,1.512,0,0,1,1721.049,261.889Z" transform="translate(-1681.281 -222.31)" fill="#050505"/>
    <path id="Trazado_628702" data-name="Trazado 628702" d="M1740.015,244a4.554,4.554,0,0,1,.015-9.108,4.554,4.554,0,1,1-.015,9.108Z" transform="translate(-1685.182 -216.437)" fill="#8ed4e2"/>
  </g>
  <rect id="Rectángulo_306506" data-name="Rectángulo 306506" width="86.425" height="86.425" transform="translate(0)" fill="none"/>
</svg>
