<svg xmlns="http://www.w3.org/2000/svg" width="205" height="205" viewBox="0 0 205 205">
  <g id="Grupo_980805" data-name="Grupo 980805" transform="translate(0.071 0.37)">
    <rect id="Rectángulo_308324" data-name="Rectángulo 308324" width="205" height="205" transform="translate(-0.071 -0.37)" fill="none"/>
    <g id="Grupo_980808" data-name="Grupo 980808" transform="translate(18.838 19.641)">
      <path id="Trazado_640793" data-name="Trazado 640793" d="M165.419,858.386c.086,1.957-.221,3.927.184,5.874q-7.5,13-14.979,26.006a1.829,1.829,0,0,1-1.894,1.081c-1.714-.074-3.435-.06-5.152-.015-8.165.217-14.639,3.662-18.831,10.672-5.9,9.862-11.534,19.882-17.21,29.875-2.518,4.432-.826,9.447,3.762,11.73a14.6,14.6,0,0,0,7.562,1.349c-1.3,7.75-2.582,15.4-3.866,23.058-.245,1.463-.373,2.92,1.169,3.793,1.483.84,2.7.21,3.889-.778,4.756-3.949,9.479-7.942,14.349-11.749a22.192,22.192,0,0,0,5.962-7.17c1.068-1.986,1.694-4.77,3.652-5.584,2-.83,4.616-.169,6.962-.161-1.331,3.052-3.583,5.48-5.5,8.135-.453.018-.906.048-1.359.054-3.136.045-4.226,1.935-2.725,4.732-1.73,2.289-4.065,4.006-5.884,6.211-.79.019-1.58.047-2.37.055-2.966.029-4.048,1.629-2.99,4.426a96.833,96.833,0,0,1-17.615,11.045,115.688,115.688,0,0,1-17.23,6.467,2.55,2.55,0,0,1-.34.046c-15.518.005-31.037-.013-46.555.047-1.426.005-1.23-.742-1.23-1.6q0-58.917-.028-117.835c0-1.285.313-1.61,1.6-1.6,8.36.063,16.721.035,25.081.031,4.215,0,6.342-2.125,6.344-6.335,0-8.36.03-16.719-.03-25.078-.009-1.269.288-1.611,1.59-1.609q39.682.063,79.366,0c1.3,0,1.605.332,1.592,1.607-.068,6.584-.038,13.169-.028,19.754C162.669,857.107,163.247,857.81,165.419,858.386Zm-93.493,13.7c-3.435,0-6.87-.01-10.305,0-2.476.009-3.434.955-3.438,3.42q-.017,10.3,0,20.609c0,2.483.953,3.453,3.4,3.457q10.306.018,20.611,0c2.543,0,3.472-.961,3.477-3.56.009-4.408.027-8.816-.017-13.223a2.821,2.821,0,0,1,.93-2.244q4.117-4.019,8.139-8.134a2.754,2.754,0,1,0-3.866-3.9c-1.327,1.262-2.617,2.565-3.885,3.886-.783.817-1.413,1.792-2.49.245-.424-.609-1.317-.573-2.081-.57C78.911,872.09,75.419,872.081,71.926,872.081Zm13.686,40.357a3.557,3.557,0,0,0-3.575-1.886c-6.811.043-13.623.012-20.435.023-2.464,0-3.416.961-3.419,3.437q-.015,10.3,0,20.6c0,2.474.959,3.44,3.415,3.444q10.3.016,20.607,0c2.535,0,3.464-.965,3.468-3.568.009-4.407.026-8.814-.017-13.221a2.819,2.819,0,0,1,.928-2.244c2.665-2.6,5.284-5.239,7.9-7.886,1.437-1.454,1.588-3.046.462-4.235-1.176-1.243-2.856-1.13-4.353.371C88.94,908.936,87.338,910.646,85.613,912.438Zm0,38.485a3.368,3.368,0,0,0-3.21-1.878c-6.983.036-13.966.007-20.95.023-2.251,0-3.258,1-3.264,3.244q-.026,10.475,0,20.949c0,2.263,1,3.282,3.222,3.288q10.475.028,20.951,0c2.331-.005,3.305-1.005,3.313-3.375.015-4.465.028-8.929-.014-13.393a2.808,2.808,0,0,1,.914-2.251c2.667-2.593,5.284-5.237,7.9-7.884,1.492-1.511,1.612-3.177.367-4.357-1.188-1.128-2.787-.982-4.231.465C88.952,947.412,87.348,949.12,85.61,950.923Zm38.376-100.835q14.591,0,29.181,0a8.076,8.076,0,0,0,1.71-.062,2.729,2.729,0,0,0-.064-5.386,7.692,7.692,0,0,0-1.54-.048q-29.1,0-58.189,0c-.4,0-.8-.021-1.2.012a2.739,2.739,0,0,0,.065,5.477c.456.032.915.01,1.373.01Zm.156,5.5q-14.5,0-29.009,0a7.676,7.676,0,0,0-1.709.066,2.729,2.729,0,0,0-.033,5.356,7.213,7.213,0,0,0,1.709.073q29.1,0,58.189,0a11.145,11.145,0,0,0,1.372-.026,2.706,2.706,0,0,0,2.48-2.793,2.656,2.656,0,0,0-2.448-2.648,9.668,9.668,0,0,0-1.543-.03Q138.646,855.585,124.141,855.586Zm.012,21.994H100.643a8.817,8.817,0,0,0-1.541.036,2.732,2.732,0,0,0-.057,5.414,7.844,7.844,0,0,0,1.54.047q23.6,0,47.193,0c.4,0,.8.021,1.2-.013a2.736,2.736,0,0,0,.059-5.468c-.454-.043-.915-.017-1.372-.017Zm-10.99,11c-4.4,0-8.8.009-13.2-.008a3.158,3.158,0,0,0-2.381.75,2.561,2.561,0,0,0-.7,2.967,2.868,2.868,0,0,0,3.008,1.8c8.8-.014,17.6,0,26.407-.011,2.127,0,3.395-1.081,3.362-2.8s-1.278-2.692-3.46-2.7Q119.679,888.566,113.163,888.577Zm-8.276,71.479c1.826,0,3.654.045,5.478-.014a2.734,2.734,0,1,0-.017-5.465q-5.392-.077-10.786,0a2.74,2.74,0,1,0,.018,5.473C101.347,960.1,103.118,960.058,104.887,960.056Zm-1.366-38.49c1.369,0,2.74.046,4.106-.012a2.735,2.735,0,1,0-.035-5.468q-4.02-.082-8.042,0a2.714,2.714,0,0,0-2.867,2.752,2.744,2.744,0,0,0,2.9,2.723C100.9,921.6,102.209,921.568,103.521,921.567Zm-.141,49.489c1.369,0,2.74.035,4.107-.009a2.751,2.751,0,0,0,2.924-2.7,2.713,2.713,0,0,0-2.849-2.771q-4.02-.077-8.042,0a2.71,2.71,0,0,0-2.837,2.781,2.748,2.748,0,0,0,2.933,2.694C100.869,971.089,102.125,971.056,103.38,971.056Zm-2.616-38.487c2.813,0,4.1-.828,4.148-2.679.054-1.911-1.3-2.826-4.169-2.825-2.773,0-4.068.882-4.061,2.761S97.991,932.569,100.764,932.569Z" transform="translate(-41.662 -828.072)" fill="#f5c481"/>
      <path id="Trazado_640794" data-name="Trazado 640794" d="M177.742,952.264c-2.346-.008-4.964-.669-6.962.161-1.958.813-2.585,3.6-3.652,5.583a22.2,22.2,0,0,1-5.962,7.171c-4.869,3.807-9.593,7.8-14.349,11.749-1.19.988-2.406,1.619-3.889.778-1.542-.874-1.414-2.331-1.169-3.793,1.284-7.655,2.566-15.308,3.866-23.058a14.6,14.6,0,0,1-7.562-1.349c-4.588-2.282-6.28-7.3-3.762-11.729,5.676-9.993,11.313-20.013,17.21-29.876,4.192-7.01,10.666-10.455,18.832-10.672,1.717-.046,3.438-.059,5.152.014a1.829,1.829,0,0,0,1.894-1.081q7.457-13.023,14.979-26.006c2.408-4.151,4.724-8.36,7.253-12.438a10.346,10.346,0,0,1,10.835-5.087,10.471,10.471,0,0,1,8.982,7.694,10.987,10.987,0,0,1-1.282,9.214q-7.51,12.984-14.977,25.993a2.9,2.9,0,0,0-.7,1.649,25.643,25.643,0,0,1,5.569.531,19.452,19.452,0,0,1,10.582,6.6c1.286,1.536,2.547,3.094,3.862,4.6a13.4,13.4,0,0,0,9.734,4.762c1.565.082,2.88.437,3.283,2.129.423,1.771-.539,2.809-2.087,3.439a19.6,19.6,0,0,1-16.155-7.956c-.458-.585-1-1.107-1.422-1.719-3.883-5.684-9.433-7.439-16-6.861a1.34,1.34,0,0,0-1.242.689q-4.433,7.735-8.924,15.437c-.393.673-.24.906.413,1.269,3.91,2.178,5.532,5.567,4.559,9.35-1.021,3.97-4.194,6.256-8.716,6.258q-13.909.008-27.819,0c-.572,0-1.148-.025-1.716.029a6.009,6.009,0,0,0-5.455,5.282,5.5,5.5,0,0,0,4.437,5.55,11.015,11.015,0,0,0,2.22.128c10.189.008,20.378.068,30.566-.022a28.291,28.291,0,0,1,13.862,3.235,20.068,20.068,0,0,0,9.74,2.3c6.01-.039,12.02.026,18.03-.036a3.6,3.6,0,0,1,3.558,1.845c.118,2.683-.8,3.674-3.464,3.679-6.127.008-12.254-.014-18.38.008a25.844,25.844,0,0,1-11.9-2.826c-2.352-1.186-4.721-2.32-7.43-2.4a7.171,7.171,0,0,0-1.316-.246C186.495,952.237,182.119,952.254,177.742,952.264Zm-7.225-22.05c1.546,0,3.1-.079,4.637.025a2.3,2.3,0,0,0,2.429-1.4c2.752-4.886,5.585-9.725,8.389-14.581q9.314-16.128,18.654-32.241c.674-1.156.6-1.716-.614-2.354-2.278-1.195-4.515-2.485-6.682-3.871-1.125-.72-1.57-.481-2.2.619q-10.594,18.461-21.285,36.866-4.426,7.653-8.844,15.31c-.917,1.6-.89,1.618.878,1.627C167.425,930.22,168.971,930.214,170.517,930.214Zm2.745-27.319a16.722,16.722,0,0,0-17.136,7.95c-1.851,3.091-3.607,6.239-5.4,9.363Q145.039,930.1,139.363,940c-1.294,2.264-.754,3.752,1.625,4.771a8.648,8.648,0,0,0,3.866.577c.907-.04,1.263-.172,1-1.312a11.052,11.052,0,0,1,10.508-13.77,2.244,2.244,0,0,0,2.1-1.325c4.634-8.089,9.317-16.152,13.966-24.233C172.759,904.141,173.277,903.632,173.263,902.9Zm35.874-44.873a5.123,5.123,0,0,0-4.769,2.5c-1.746,2.883-3.375,5.837-5.1,8.732-.452.757-.361,1.153.413,1.586,2.544,1.421,5.055,2.9,7.574,4.366.544.316.991.507,1.4-.226,1.765-3.137,3.737-6.171,5.3-9.4A5.349,5.349,0,0,0,209.136,858.022ZM164.042,952.21c-1.419,0-2.543.027-3.665-.006-2.16-.063-4.335.219-6.476-.332s-2.869-.052-3.255,2.2q-1.066,6.23-2.072,12.47a1.574,1.574,0,0,0,.258,1.561c3.118-2.565,6.1-5.215,9.287-7.58C160.974,958.41,162.127,955.26,164.042,952.21Zm19.1-22.024a32.035,32.035,0,0,0,3.926-.033,2.538,2.538,0,0,0,2.331-2.562,2.761,2.761,0,0,0-2.144-2.768.94.94,0,0,0-1.3.452C185.074,926.857,184.156,928.418,183.139,930.185Z" transform="translate(-68.427 -833.968)" fill="#242021"/>
      <path id="Trazado_640795" data-name="Trazado 640795" d="M162.938,855.905c-2.172-.577-2.75-1.279-2.753-3.465-.01-6.585-.04-13.169.028-19.754.013-1.274-.295-1.608-1.592-1.607q-39.683.063-79.366,0c-1.3,0-1.6.339-1.59,1.609.06,8.359.034,16.719.03,25.078,0,4.21-2.129,6.332-6.344,6.335-8.36,0-16.721.032-25.081-.031-1.286-.01-1.6.315-1.6,1.6q.056,58.917.028,117.835c0,.858-.2,1.606,1.23,1.6,15.518-.061,31.037-.042,46.555-.048a2.57,2.57,0,0,0,.34-.046c.228.018.455.055.683.055q32.641,0,65.283.036c1.353,0,1.414-.554,1.41-1.612q-.044-15.374-.014-30.748c0-2.19.583-2.9,2.751-3.465,2.167.581,2.74,1.282,2.742,3.475q.01,17.179,0,34.358c0,2.478-.96,3.455-3.407,3.455q-59.789.007-119.579,0c-2.559,0-3.488-.947-3.488-3.544q0-62.36-.023-124.721a4.561,4.561,0,0,1,1.465-3.487q15.973-15.854,31.885-31.771a4.568,4.568,0,0,1,3.488-1.453q42.952.045,85.9.023c2.913,0,3.756.853,3.758,3.793q0,11.511,0,23.02C165.675,854.618,165.105,855.317,162.938,855.905ZM72.2,835.51,49.3,858.6c7.241,0,14.653-.007,22.065.008,1.048,0,.826-.723.828-1.307.012-3.144.006-6.288.006-9.432Z" transform="translate(-39.181 -825.59)" fill="#221f20"/>
      <path id="Trazado_640796" data-name="Trazado 640796" d="M241.405,976.673a3.6,3.6,0,0,0-3.558-1.845c-6.01.062-12.02,0-18.03.036a20.077,20.077,0,0,1-9.741-2.3,28.286,28.286,0,0,0-13.862-3.236c-10.187.09-20.377.03-30.566.022a11.05,11.05,0,0,1-2.22-.128,5.5,5.5,0,0,1-4.437-5.55,6.008,6.008,0,0,1,5.455-5.282c.568-.054,1.144-.029,1.716-.029q13.909,0,27.818,0c4.522,0,7.7-2.289,8.716-6.258.972-3.783-.649-7.172-4.559-9.35-.654-.364-.806-.6-.413-1.27q4.495-7.7,8.924-15.437a1.339,1.339,0,0,1,1.242-.689c6.569-.579,12.119,1.176,16,6.86.417.612.964,1.134,1.422,1.719a19.605,19.605,0,0,0,16.155,7.956Q241.438,959.281,241.405,976.673Z" transform="translate(-76.475 -856.612)" fill="#f4bdad"/>
      <path id="Trazado_640797" data-name="Trazado 640797" d="M187.181,1002.736c-2.169.569-2.749,1.275-2.751,3.465q-.011,15.374.014,30.749c0,1.058-.057,1.614-1.411,1.611q-32.641-.072-65.283-.036c-.228,0-.455-.036-.683-.055A115.714,115.714,0,0,0,134.3,1032a96.819,96.819,0,0,0,17.615-11.045,3.148,3.148,0,0,0,1.918,1.034c7.538.023,15.077.051,22.615-.008a2.58,2.58,0,0,0,2.46-2.782,2.652,2.652,0,0,0-2.45-2.638,9.9,9.9,0,0,0-1.539-.031l-17.644-.057c1.82-2.2,4.154-3.922,5.884-6.211a4.409,4.409,0,0,0,2.57.787c3.32-.039,6.642,0,9.963-.02,2.012-.013,3.24-1.092,3.228-2.765s-1.236-2.706-3.264-2.729c-2.8-.03-5.609-.041-8.413-.059,1.918-2.654,4.17-5.083,5.5-8.134,4.377-.01,8.753-.027,13.129-.019a7.19,7.19,0,0,1,1.316.246Q187.184,1000.154,187.181,1002.736Z" transform="translate(-63.426 -879.049)" fill="#f4b766"/>
      <path id="Trazado_640798" data-name="Trazado 640798" d="M76.909,887.443c3.492,0,6.985.008,10.477-.006.763,0,1.656-.039,2.081.57,1.077,1.547,1.707.572,2.49-.245,1.268-1.322,2.558-2.625,3.885-3.886a2.754,2.754,0,1,1,3.866,3.9q-4.022,4.114-8.139,8.134a2.821,2.821,0,0,0-.93,2.244c.044,4.407.026,8.815.017,13.223-.005,2.6-.935,3.556-3.477,3.56q-10.3.014-20.611,0c-2.449,0-3.4-.974-3.4-3.457q-.014-10.305,0-20.609c0-2.465.962-3.411,3.438-3.42C70.039,887.434,73.473,887.443,76.909,887.443Zm.024,5.5c-2.345,0-4.689,0-7.035,0-.656,0-1.382-.031-1.214.925.147.838-.676,2.106.814,2.4a4.639,4.639,0,0,1,2.418,1.508q2.056,2.07,4.128,4.122c.382.377.739,1,1.392.343q3.7-3.7,7.4-7.4a1.409,1.409,0,0,0,.267-1.448c-.191-.713-.846-.428-1.305-.433C81.508,892.928,79.22,892.944,76.933,892.944Zm8.223,9.572c-2.413,2.481-4.576,4.708-6.727,6.92,1.784,0,3.714-.025,5.641.012.811.017,1.116-.273,1.1-1.092C85.129,906.529,85.156,904.7,85.156,902.516Zm-10.427,6.921-6.066-6.707c0,1.906.039,3.669-.016,5.428-.029.928.228,1.333,1.233,1.3C71.754,909.39,73.63,909.437,74.729,909.437Z" transform="translate(-46.645 -843.434)" fill="#232020"/>
      <path id="Trazado_640799" data-name="Trazado 640799" d="M90.595,945.2c1.725-1.792,3.327-3.5,4.981-5.16,1.5-1.5,3.176-1.613,4.353-.37,1.125,1.189.975,2.782-.462,4.236-2.614,2.647-5.234,5.29-7.9,7.886a2.819,2.819,0,0,0-.928,2.244c.043,4.407.025,8.815.017,13.222,0,2.6-.933,3.564-3.468,3.567q-10.3.016-20.607,0c-2.456,0-3.412-.97-3.415-3.444q-.016-10.3,0-20.6c0-2.476.955-3.433,3.419-3.437,6.811-.011,13.623.02,20.435-.023A3.557,3.557,0,0,1,90.595,945.2Zm-13.672,3.633c-2.345,0-4.69.006-7.035,0-.665,0-1.374-.012-1.2.937.15.835-.677,2.1.832,2.393a4.577,4.577,0,0,1,2.417,1.512q2.052,2.073,4.12,4.13c.386.383.743.98,1.394.327q3.693-3.707,7.394-7.407a1.4,1.4,0,0,0,.256-1.45c-.2-.707-.852-.419-1.311-.426C81.5,948.822,79.21,948.838,76.923,948.838Zm-2.016,16.491-6.242-6.847c0,2.086.024,3.909-.012,5.731-.015.78.211,1.147,1.061,1.13C71.649,965.3,73.586,965.329,74.907,965.329Zm10.249-6.434-6.267,6.434c1.37,0,3.35-.02,5.329.01.79.013.952-.386.945-1.064C85.142,962.444,85.156,960.613,85.156,958.895Z" transform="translate(-46.645 -860.838)" fill="#232020"/>
      <path id="Trazado_640800" data-name="Trazado 640800" d="M90.591,1001.085c1.738-1.8,3.342-3.51,5-5.168,1.444-1.447,3.043-1.592,4.231-.465,1.245,1.181,1.125,2.847-.367,4.357-2.615,2.647-5.232,5.292-7.9,7.885a2.808,2.808,0,0,0-.914,2.251c.043,4.464.03,8.929.014,13.393-.008,2.369-.982,3.369-3.313,3.375q-10.475.022-20.951,0c-2.226-.005-3.218-1.025-3.222-3.288q-.023-10.474,0-20.948c.006-2.24,1.012-3.239,3.264-3.244,6.984-.016,13.967.013,20.95-.023A3.367,3.367,0,0,1,90.591,1001.085Zm-13.546,3.639q-3.175,0-6.349,0c-2.188,0-2.178.016-2.048,2.187.039.654.158,1.116.909,1.173a3.66,3.66,0,0,1,2.287,1.391q2.112,2.134,4.238,4.255c.4.407.769.9,1.4.261q3.624-3.655,7.278-7.281a1.459,1.459,0,0,0,.317-1.591c-.226-.667-.879-.374-1.342-.381C81.507,1004.706,79.276,1004.723,77.046,1004.723Zm-2.118,16.493-6.264-6.791c0,2.022.041,3.844-.017,5.664-.03.949.388,1.158,1.23,1.139C71.756,1021.188,73.637,1021.216,74.927,1021.216Zm3.57,0c1.731,0,3.665,0,5.6,0,.536,0,1.056,0,1.054-.763-.008-1.964,0-3.928,0-6.367Z" transform="translate(-46.644 -878.232)" fill="#232020"/>
      <path id="Trazado_640801" data-name="Trazado 640801" d="M143.888,855.067H115.223c-.458,0-.917.022-1.373-.01a2.739,2.739,0,0,1-.065-5.477c.4-.033.8-.012,1.2-.012q29.094,0,58.189,0a7.687,7.687,0,0,1,1.54.048,2.729,2.729,0,0,1,.064,5.386,8.068,8.068,0,0,1-1.71.062Q158.479,855.07,143.888,855.067Z" transform="translate(-61.565 -833.051)" fill="#231f20"/>
      <path id="Trazado_640802" data-name="Trazado 640802" d="M144.051,865.534H173.06a9.676,9.676,0,0,1,1.543.03,2.656,2.656,0,0,1,2.448,2.648,2.706,2.706,0,0,1-2.48,2.793,11.121,11.121,0,0,1-1.372.026q-29.094,0-58.189,0a7.226,7.226,0,0,1-1.709-.073,2.729,2.729,0,0,1,.033-5.356,7.7,7.7,0,0,1,1.709-.066Q129.547,865.532,144.051,865.534Z" transform="translate(-61.572 -838.021)" fill="#231f20"/>
      <path id="Trazado_640803" data-name="Trazado 640803" d="M146.551,897.469h23.511c.457,0,.918-.026,1.372.017a2.736,2.736,0,0,1-.058,5.468c-.4.035-.8.013-1.2.013q-23.6,0-47.193,0a7.872,7.872,0,0,1-1.54-.047,2.732,2.732,0,0,1,.057-5.414,8.829,8.829,0,0,1,1.541-.036Z" transform="translate(-64.06 -847.961)" fill="#231f20"/>
      <path id="Trazado_640804" data-name="Trazado 640804" d="M135.543,913.44q6.517,0,13.033,0c2.183,0,3.428.989,3.46,2.7s-1.235,2.794-3.362,2.8c-8.8.01-17.6,0-26.407.011a2.868,2.868,0,0,1-3.008-1.8,2.56,2.56,0,0,1,.7-2.967,3.158,3.158,0,0,1,2.381-.75C126.74,913.449,131.142,913.441,135.543,913.44Z" transform="translate(-64.042 -852.934)" fill="#232020"/>
      <path id="Trazado_640805" data-name="Trazado 640805" d="M172.841,1025.134l17.644.057a9.9,9.9,0,0,1,1.539.031,2.652,2.652,0,0,1,2.45,2.638,2.58,2.58,0,0,1-2.46,2.782c-7.538.059-15.077.031-22.615.008a3.156,3.156,0,0,1-1.918-1.034c-1.058-2.8.024-4.4,2.99-4.427C171.262,1025.181,172.052,1025.153,172.841,1025.134Z" transform="translate(-78.996 -887.705)" fill="#232020"/>
      <path id="Trazado_640806" data-name="Trazado 640806" d="M127.274,1014.737c-1.769,0-3.54.039-5.307-.01a2.74,2.74,0,1,1-.018-5.472q5.393-.066,10.786,0a2.733,2.733,0,1,1,.017,5.465C130.928,1014.782,129.1,1014.737,127.274,1014.737Z" transform="translate(-64.05 -882.753)" fill="#252121"/>
      <path id="Trazado_640807" data-name="Trazado 640807" d="M187.769,1009.165c2.8.019,5.609.029,8.413.059,2.028.022,3.252,1.059,3.264,2.729s-1.216,2.753-3.228,2.765c-3.321.021-6.643-.019-9.963.021a4.406,4.406,0,0,1-2.57-.787c-1.5-2.8-.412-4.687,2.725-4.732C186.864,1009.213,187.316,1009.184,187.769,1009.165Z" transform="translate(-83.956 -882.736)" fill="#252121"/>
      <path id="Trazado_640808" data-name="Trazado 640808" d="M125.908,958.85c-1.312,0-2.625.037-3.936-.009a2.744,2.744,0,0,1-2.9-2.723,2.714,2.714,0,0,1,2.867-2.752q4.02-.074,8.042,0a2.735,2.735,0,1,1,.035,5.469C128.648,958.895,127.277,958.849,125.908,958.85Z" transform="translate(-64.05 -865.354)" fill="#252221"/>
      <path id="Trazado_640809" data-name="Trazado 640809" d="M125.767,1030.7c-1.255,0-2.511.033-3.765-.008A2.747,2.747,0,0,1,119.07,1028a2.709,2.709,0,0,1,2.837-2.781q4.02-.08,8.042,0a2.713,2.713,0,0,1,2.849,2.77,2.751,2.751,0,0,1-2.924,2.7C128.507,1030.739,127.136,1030.7,125.767,1030.7Z" transform="translate(-64.049 -887.72)" fill="#252221"/>
      <path id="Trazado_640810" data-name="Trazado 640810" d="M123.151,974.83c-2.773,0-4.074-.874-4.081-2.742s1.287-2.76,4.061-2.761c2.873,0,4.223.914,4.169,2.825C127.246,974,125.964,974.831,123.151,974.83Z" transform="translate(-64.049 -870.333)" fill="#252221"/>
      <path id="Trazado_640811" data-name="Trazado 640811" d="M184.651,940.554c-1.546,0-3.092.006-4.638,0-1.768-.008-1.8-.03-.878-1.627q4.4-7.665,8.844-15.309,10.655-18.426,21.285-36.866c.631-1.1,1.076-1.339,2.2-.619,2.167,1.386,4.4,2.676,6.682,3.871,1.218.639,1.288,1.2.614,2.354q-9.378,16.09-18.654,32.24c-2.8,4.856-5.636,9.7-8.389,14.581a2.3,2.3,0,0,1-2.429,1.4C187.749,940.475,186.2,940.554,184.651,940.554Z" transform="translate(-82.561 -844.308)" fill="#225fc5"/>
      <path id="Trazado_640812" data-name="Trazado 640812" d="M175.768,925.58c.014.737-.5,1.246-.831,1.815-4.649,8.081-9.332,16.143-13.966,24.233a2.244,2.244,0,0,1-2.1,1.325,11.052,11.052,0,0,0-10.508,13.769c.261,1.14-.1,1.272-1,1.312a8.646,8.646,0,0,1-3.866-.577c-2.379-1.019-2.919-2.508-1.625-4.771q5.661-9.907,11.362-19.792c1.8-3.124,3.551-6.272,5.4-9.363A16.722,16.722,0,0,1,175.768,925.58Z" transform="translate(-70.933 -856.653)" fill="#f0a894"/>
      <path id="Trazado_640813" data-name="Trazado 640813" d="M238.9,860.515a5.349,5.349,0,0,1,4.82,7.552c-1.563,3.232-3.536,6.266-5.3,9.4-.413.733-.86.542-1.4.226-2.519-1.466-5.03-2.945-7.574-4.366-.774-.433-.865-.829-.413-1.585,1.727-2.9,3.355-5.849,5.1-8.732A5.122,5.122,0,0,1,238.9,860.515Z" transform="translate(-98.194 -836.461)" fill="#c42931"/>
      <path id="Trazado_640814" data-name="Trazado 640814" d="M170.978,997.03c-1.915,3.05-3.068,6.2-5.924,8.317-3.189,2.366-6.169,5.015-9.287,7.58a1.575,1.575,0,0,1-.258-1.561q1.008-6.24,2.072-12.47c.386-2.256,1.118-2.753,3.255-2.2s4.315.269,6.476.332C168.435,997.057,169.559,997.03,170.978,997.03Z" transform="translate(-75.363 -878.789)" fill="#225fc5"/>
      <path id="Trazado_640815" data-name="Trazado 640815" d="M205.741,962.828c1.017-1.767,1.935-3.328,2.814-4.912a.94.94,0,0,1,1.3-.452A2.762,2.762,0,0,1,212,960.232a2.539,2.539,0,0,1-2.331,2.563A32.123,32.123,0,0,1,205.741,962.828Z" transform="translate(-91.029 -866.611)" fill="#edaf9d"/>
      <path id="Trazado_640816" data-name="Trazado 640816" d="M76.77,839.994v12.359c0,3.144.006,6.289-.006,9.433,0,.583.22,1.308-.828,1.307-7.412-.015-14.824-.008-22.065-.008Z" transform="translate(-43.754 -830.073)" fill="#e95c37"/>
      <path id="Trazado_640817" data-name="Trazado 640817" d="M79.387,897.461c2.287,0,4.575-.017,6.862.013.459.005,1.114-.28,1.305.433a1.409,1.409,0,0,1-.267,1.448q-3.7,3.7-7.4,7.4c-.653.654-1.01.034-1.392-.343q-2.078-2.048-4.128-4.122a4.64,4.64,0,0,0-2.418-1.507c-1.49-.3-.667-1.565-.814-2.4-.168-.956.558-.927,1.214-.925C74.7,897.465,77.042,897.461,79.387,897.461Z" transform="translate(-49.099 -847.95)" fill="#70a83e"/>
      <path id="Trazado_640818" data-name="Trazado 640818" d="M92.058,911.377c0,2.183-.028,4.012.012,5.84.018.818-.287,1.108-1.1,1.092-1.928-.038-3.857-.012-5.641-.012Z" transform="translate(-53.547 -852.296)" fill="#70a83e"/>
      <path id="Trazado_640819" data-name="Trazado 640819" d="M77.209,918.395c-1.1,0-2.975-.047-4.849.019-1.006.035-1.262-.369-1.233-1.3.055-1.759.016-3.522.016-5.428Z" transform="translate(-49.125 -852.391)" fill="#70a83e"/>
      <path id="Trazado_640820" data-name="Trazado 640820" d="M79.378,953.347c2.288,0,4.576-.017,6.864.013.459.006,1.114-.282,1.311.426a1.4,1.4,0,0,1-.256,1.45q-3.7,3.7-7.394,7.407c-.651.653-1.008.055-1.394-.327q-2.071-2.054-4.12-4.13a4.577,4.577,0,0,0-2.417-1.512c-1.509-.29-.682-1.557-.832-2.393-.171-.948.539-.94,1.2-.937C74.688,953.353,77.033,953.347,79.378,953.347Z" transform="translate(-49.1 -865.346)" fill="#70a83e"/>
      <path id="Trazado_640821" data-name="Trazado 640821" d="M77.39,974.215c-1.321,0-3.258-.029-5.193.014-.85.018-1.076-.349-1.061-1.129.036-1.823.012-3.645.012-5.732Z" transform="translate(-49.128 -869.724)" fill="#70a83e"/>
      <path id="Trazado_640822" data-name="Trazado 640822" d="M92.267,967.967c0,1.718-.014,3.549.008,5.379.008.677-.155,1.076-.945,1.064-1.979-.029-3.959-.01-5.329-.01Z" transform="translate(-53.755 -869.911)" fill="#70a83e"/>
      <path id="Trazado_640823" data-name="Trazado 640823" d="M79.508,1009.231c2.231,0,4.462-.017,6.692.014.463.007,1.116-.287,1.342.381a1.459,1.459,0,0,1-.317,1.591q-3.648,3.631-7.278,7.281c-.632.638-1,.146-1.4-.261q-2.121-2.126-4.238-4.255a3.661,3.661,0,0,0-2.287-1.391c-.751-.057-.87-.519-.909-1.173-.13-2.172-.14-2.186,2.048-2.187Q76.333,1009.229,79.508,1009.231Z" transform="translate(-49.106 -882.74)" fill="#70a83e"/>
      <path id="Trazado_640824" data-name="Trazado 640824" d="M77.408,1030.13c-1.29,0-3.172-.029-5.051.012-.842.018-1.26-.19-1.23-1.139.058-1.819.017-3.642.017-5.664Z" transform="translate(-49.125 -887.148)" fill="#70a83e"/>
      <path id="Trazado_640825" data-name="Trazado 640825" d="M85.432,1029.975l6.65-7.13c0,2.44,0,4.4,0,6.367,0,.763-.517.763-1.054.763C89.1,1029.974,87.163,1029.975,85.432,1029.975Z" transform="translate(-53.579 -886.992)" fill="#70a83e"/>
    </g>
  </g>
</svg>
