<svg xmlns="http://www.w3.org/2000/svg" width="295" height="130" viewBox="0 0 295 130">
  <g id="Grupo_980841" data-name="Grupo 980841" transform="translate(-180 -3981)">
    <rect id="Rect치ngulo_306702" data-name="Rect치ngulo 306702" width="295" height="130" transform="translate(180 3981)" fill="#e2d9ff" opacity="0.5"/>
    <g id="Grupo_955179" data-name="Grupo 955179" transform="translate(0 -2095.5)">
      <rect id="Rect치ngulo_34178" data-name="Rect치ngulo 34178" width="85" height="85" transform="translate(180 6099)" fill="none"/>
      <g id="Grupo_930281" data-name="Grupo 930281" transform="translate(-2733.283 5329.821)">
        <path id="Trazado_611576" data-name="Trazado 611576" d="M2932.73,822.591c0-3.155-.007-6.208.008-9.261,0-.378-.124-.46-.474-.454-1.263.019-2.528-.021-3.79.021-.519.017-.617-.16-.607-.633.029-1.465-.028-2.932.025-4.4a3.693,3.693,0,0,0-.693-2.263,19.774,19.774,0,0,0-2.627-2.927,26.2,26.2,0,0,1-4.37-5.206c-5.169-8.819-.032-20.62,9.987-22.947a15.765,15.765,0,0,1,19.327,12.883c.208,1.217.208,1.217,1.414,1.217,3.411,0,6.822-.011,10.233.011.542,0,.776-.093.834-.707a15.647,15.647,0,1,1,.044,4.366c-.216-1.243-.216-1.243-1.466-1.243-3.436,0-6.873.007-10.309-.01-.424,0-.633.068-.674.546a15.071,15.071,0,0,1-4.4,9.158c-.934.994-1.91,1.948-2.866,2.921a12.709,12.709,0,0,0-1.736,2.1,3.8,3.8,0,0,0-.561,1.232c-.189.908-.072,1.035.84,1.035,4.371,0,8.742-.006,13.114.009.478,0,.727-.064.892-.607a6.029,6.029,0,0,1,11.525.01.7.7,0,0,0,.82.6c2.046-.035,4.093,0,6.139-.026.479-.006.634.1.631.61-.013,1.827.01,1.828-1.828,1.828-1.668,0-3.335.013-5-.01-.407-.006-.6.083-.736.509a6.034,6.034,0,0,1-11.6-.032.579.579,0,0,0-.678-.477q-6.785.023-13.569,0c-.476,0-.646.124-.569.586a2.444,2.444,0,0,1,0,.378c0,.5-.168,1.122.062,1.483s.842-.076,1.3-.021a3.512,3.512,0,0,1,1.831.637c.354.282.56.206.9-.016a3.525,3.525,0,0,1,5.193,1.433c.223.466.394.6.934.474a3.583,3.583,0,0,1,4.322,3.491c.033,2.627.023,5.255,0,7.882,0,.5.081.689.641.678,2.045-.038,4.093-.029,6.139,0,.453.006.595-.124.649-.575a15.758,15.758,0,1,1,0,3.611c-.048-.453-.153-.644-.669-.635-2.1.035-4.194.023-6.291.007-.4,0-.6.039-.677.527a14.639,14.639,0,0,1-2.032,5.57,1.538,1.538,0,0,0-.177.869q0,4.282,0,8.565a3.646,3.646,0,0,1-3.892,3.88q-7.049.007-14.1,0a3.638,3.638,0,0,1-3.841-3.853c-.007-2.754,0-5.508,0-8.261a.942.942,0,0,0-.3-.87,11.072,11.072,0,0,1-4.009-7.308,39.427,39.427,0,0,0-2.707-9.182,3.2,3.2,0,0,1,3.245-4.475,5.982,5.982,0,0,1,5.427,4.24c.22.746.312,1.53.461,2.3A1.009,1.009,0,0,0,2932.73,822.591ZM2920.6,790.306a12.756,12.756,0,0,0,3.823,8.743c1.51,1.627,3.428,2.952,4.491,4.894a3.023,3.023,0,0,0,3.511,1.662.278.278,0,0,1,.076,0c.315.05.476-.085.635-.372a3.523,3.523,0,0,1,5.318-1.368c.232.14.35.2.537-.05a64.063,64.063,0,0,1,4.506-4.8,13.011,13.011,0,0,0,3.665-10.938,13.343,13.343,0,0,0-26.561,2.23Zm20.393,44.406c2.88,0,5.76-.012,8.639.013a.885.885,0,0,0,.929-.554,12.174,12.174,0,0,0,1.418-4.362c.348-3.628.1-7.268.142-10.9a1.162,1.162,0,0,0-1.234-1.168,1.192,1.192,0,0,0-1.164,1.167c-.033.63-.011,1.262-.011,1.894,0,1.822,0,1.8-1.861,1.8-.481,0-.584-.138-.577-.594.027-1.768.018-3.536.007-5.3a1.232,1.232,0,0,0-1.178-1.388c-.738-.02-1.234.526-1.24,1.4-.011,1.339,0,2.677,0,4.016,0,1.895,0,1.873-1.867,1.87-.491,0-.576-.157-.569-.6.024-1.743.014-3.486.008-5.229,0-.9-.453-1.442-1.186-1.458-.759-.016-1.232.543-1.235,1.484-.006,1.415,0,2.829,0,4.244,0,1.546,0,1.5-1.57,1.567-.771.035-.879-.224-.874-.917.031-4.8.017-9.6.016-14.4,0-1.1-.4-1.668-1.191-1.682-.812-.015-1.232.568-1.233,1.715q0,.455,0,.909,0,6.971,0,13.943A2.576,2.576,0,0,1,2932.89,825a2.542,2.542,0,0,1-2.773-2.308c-.109-.57-.192-1.144-.29-1.716a3.631,3.631,0,0,0-2.858-3.152c-.466-.106-.962-.247-1.338.2-.363.43-.113.861.063,1.276a41.633,41.633,0,0,1,2.823,9.936,8.208,8.208,0,0,0,2.965,5.129,1.461,1.461,0,0,0,1.025.354C2935.335,834.706,2938.165,834.712,2940.994,834.712Zm28.283-34.553a8.662,8.662,0,0,1,3.188-4.911c.253-.224.264-.333.033-.578a3.621,3.621,0,0,1-.955-2.707c.021-.682-.015-1.365.012-2.046a.786.786,0,0,0-.417-.789,4.113,4.113,0,0,1,.28-7.238,2.388,2.388,0,0,0,.771-.694,5.446,5.446,0,0,1,4.413-2.267c1.01-.026,2.022-.023,3.032,0a6.132,6.132,0,0,1,5.953,3.906,6.053,6.053,0,0,1-1.341,6.918,1.769,1.769,0,0,0-.577,1.453,4.205,4.205,0,0,1-1.039,3.58c-.259.251,0,.343.141.452a9.322,9.322,0,0,1,1.41,1.368,9.093,9.093,0,0,1,1.75,3.567,13.177,13.177,0,0,0,4.457-14.165,13.339,13.339,0,0,0-25.531-.076A13.179,13.179,0,0,0,2969.277,800.159Zm-28.054,36.98c-2.626,0-5.253.013-7.879-.012-.5,0-.629.133-.624.626.025,2.525.008,5.05.013,7.575,0,1.083.43,1.51,1.517,1.51q6.97.006,13.94,0c1.088,0,1.517-.427,1.519-1.508.006-2.525-.011-5.05.013-7.575,0-.49-.12-.633-.621-.628C2946.476,837.153,2943.849,837.14,2941.223,837.14Zm28.03,1.827a1.694,1.694,0,0,0-.13-1.984,14.64,14.64,0,0,1-2.3-9.887,10.89,10.89,0,0,1,21.234-1.545c1.151,4.123.165,7.942-2,11.5a1.636,1.636,0,0,0-.077,1.912c4.148-2.951,6.015-9.147,4.346-14.372a13.349,13.349,0,0,0-25.452.074A13.2,13.2,0,0,0,2969.253,838.967Zm12.317-5.718a8.911,8.911,0,0,1,2.324,1.854c.3.36.436.155.585-.134a11.9,11.9,0,0,0,1.448-7.883,8.458,8.458,0,0,0-14.443-4.265,8.678,8.678,0,0,0-2.161,8.069,12.934,12.934,0,0,0,1.414,4.052c.1.181.169.582.511.215a9.882,9.882,0,0,1,2.1-1.72c.244-.148.215-.3.033-.477a6.841,6.841,0,0,1-1.851-5.632.945.945,0,0,1,.468-.856c1.293-.836,2.583-1.679,3.842-2.562a.846.846,0,0,1,1.081-.007c1.939,1.182,3.861,2.4,5.857,3.478a1.531,1.531,0,0,1,.877,1.823c-.015.1-.031.2-.046.3A6.472,6.472,0,0,1,2981.57,833.249Zm-3.112-51.9c-.693,0-1.249-.013-1.8,0a2.766,2.766,0,0,0-2.365,1.143,4.827,4.827,0,0,1-1.89,1.64,1.661,1.661,0,0,0-.4,2.6.76.76,0,0,0,1.173.166c.692-.506,1.42-.962,2.134-1.439,1.419-.948,1.433-.957,2.374.464a5.642,5.642,0,0,0,3.91,2.6.637.637,0,0,0,.615-.15,3.937,3.937,0,0,0,1.4-3.795,3.835,3.835,0,0,0-2.8-3.084A8.972,8.972,0,0,0,2978.457,781.35Zm-.886,60.643a13.844,13.844,0,0,0,5.575-1.212.664.664,0,0,0,.448-.867,6.436,6.436,0,0,0-1.594-3.287c-.333-.376-.552-.441-.939-.028-.984,1.049-2.039,2.032-3.033,3.071-.322.335-.5.35-.828.005-1.012-1.059-2.08-2.063-3.088-3.125-.341-.359-.536-.307-.832.017a6.417,6.417,0,0,0-1.638,3.263c-.091.508,0,.762.5.978A13.992,13.992,0,0,0,2977.572,841.993Zm-13.3-32.74a3.638,3.638,0,1,0-3.611,3.628A3.658,3.658,0,0,0,2964.267,809.253Zm13.337-15.777c.732,0,1.464.007,2.2,0a1.68,1.68,0,0,0,1.435-2.41c-.069-.139-.184-.145-.306-.17a7.874,7.874,0,0,1-4.593-2.716c-.2-.239-.339-.244-.614-.08-1.744,1.041-1.75,1.031-1.75,3.027,0,.354-.011.707,0,1.06a1.209,1.209,0,0,0,1.281,1.284C2976.039,793.492,2976.822,793.475,2977.6,793.477Zm-.01,38.809a3.675,3.675,0,0,0,3.378-2.25c.207-.484.209-.791-.332-1.088-1.234-.676-2.423-1.436-3.635-2.154-.263-.156-.518-.473-.865-.149-.688.644-1.993.754-2.127,1.813A3.554,3.554,0,0,0,2977.594,832.286Zm-1.2-32.74c0-.984-.028-1.969.011-2.951.022-.539-.144-.56-.6-.419a6.144,6.144,0,0,0-4.209,5.069.531.531,0,0,0,.334.654,14.352,14.352,0,0,0,3.9,1.153c.509.074.588-.109.574-.555C2976.379,801.514,2976.4,800.529,2976.4,799.545Zm2.427-.022c0,1.034.014,2.069-.007,3.1-.008.371.1.477.474.431a13.256,13.256,0,0,0,4.042-1.187.465.465,0,0,0,.3-.528,6.192,6.192,0,0,0-4.344-5.208c-.394-.1-.478-.019-.471.361C2978.837,797.505,2978.825,798.514,2978.825,799.524Zm-47.344,10.932c1.248,0,1.248,0,1.248-1.251,0-1.173,0-1.173-1.176-1.173-1.248,0-1.248,0-1.248,1.251C2930.306,810.455,2930.306,810.455,2931.482,810.455Zm44.371,24.589c.591.524,1.073.947,1.549,1.378.128.115.242.179.384.036l1.46-1.485A5.289,5.289,0,0,0,2975.852,835.044Z" transform="translate(0 0)" fill="#020202"/>
        <path id="Trazado_611577" data-name="Trazado 611577" d="M3111.108,885.836c1.211,0,1.211,0,1.211,1.215s0,1.211-1.216,1.211-1.21,0-1.21-1.215S3109.894,885.836,3111.108,885.836Z" transform="translate(-133.494 -77.805)"/>
        <path id="Trazado_611578" data-name="Trazado 611578" d="M3128.293,887.051c0,1.211,0,1.211-1.215,1.211s-1.211,0-1.211-1.215,0-1.21,1.215-1.21S3128.293,885.836,3128.293,887.051Z" transform="translate(-144.616 -77.805)"/>
        <path id="Trazado_611579" data-name="Trazado 611579" d="M2926.19,795.818a13.342,13.342,0,0,1,26.561-2.23,13.011,13.011,0,0,1-3.666,10.938,64.062,64.062,0,0,0-4.506,4.8c-.187.248-.3.191-.536.05a3.524,3.524,0,0,0-5.319,1.368c-.158.287-.32.422-.635.372a.28.28,0,0,0-.076,0,3.024,3.024,0,0,1-3.511-1.662c-1.062-1.942-2.98-3.267-4.491-4.894A12.757,12.757,0,0,1,2926.19,795.818Zm9.411,2.394c-.216,0-.291.15-.394.249-.345.334-.66.7-1.026,1.009-.351.295-.275.483.019.77,1.265,1.235,2.523,2.477,3.747,3.752.408.425.6.466.966-.064,2.622-3.8,5.279-7.574,7.925-11.356.967-1.382.95-1.358-.378-2.345-.5-.37-.726-.346-1.09.184-2.229,3.243-4.518,6.444-6.74,9.691-.421.615-.642.551-1.069.063-.514-.587-1.1-1.116-1.652-1.668C2935.8,798.391,2935.691,798.294,2935.6,798.212Z" transform="translate(-5.588 -5.512)" fill="#fae8ae"/>
        <path id="Trazado_611580" data-name="Trazado 611580" d="M2957.688,906.969c-2.83,0-5.659-.006-8.489.007a1.46,1.46,0,0,1-1.025-.354,8.208,8.208,0,0,1-2.965-5.129,41.621,41.621,0,0,0-2.822-9.936c-.175-.415-.425-.846-.062-1.276.376-.446.872-.306,1.337-.2a3.632,3.632,0,0,1,2.858,3.152c.1.572.181,1.146.29,1.716a2.542,2.542,0,0,0,2.773,2.308,2.576,2.576,0,0,0,2.267-2.822q0-6.971,0-13.943v-.909c0-1.147.421-1.73,1.233-1.715.789.014,1.191.58,1.191,1.682,0,4.8.015,9.6-.016,14.4-.005.693.1.953.874.917,1.568-.072,1.57-.021,1.57-1.567,0-1.414,0-2.829,0-4.244,0-.941.477-1.5,1.236-1.484.732.016,1.182.556,1.186,1.458.007,1.743.017,3.486-.008,5.229-.006.444.078.6.57.6,1.868,0,1.868.025,1.868-1.87,0-1.339-.008-2.677,0-4.016.007-.875.5-1.421,1.241-1.4a1.232,1.232,0,0,1,1.178,1.388c.01,1.768.019,3.536-.007,5.3-.007.456.1.593.577.594,1.861,0,1.86.023,1.861-1.8,0-.631-.022-1.264.011-1.894a1.193,1.193,0,0,1,1.164-1.167,1.162,1.162,0,0,1,1.234,1.169c-.044,3.635.206,7.275-.141,10.9a12.189,12.189,0,0,1-1.418,4.362.886.886,0,0,1-.929.554C2963.448,906.956,2960.568,906.969,2957.688,906.969Z" transform="translate(-16.694 -72.256)" fill="#e9d0b6"/>
        <path id="Trazado_611581" data-name="Trazado 611581" d="M3074.967,805.681a13.178,13.178,0,0,1-4.421-14.23,13.338,13.338,0,0,1,25.531.076,13.177,13.177,0,0,1-4.457,14.165,9.092,9.092,0,0,0-1.75-3.567,9.316,9.316,0,0,0-1.411-1.368c-.139-.109-.4-.2-.141-.452a4.206,4.206,0,0,0,1.039-3.58,1.77,1.77,0,0,1,.577-1.453,6.053,6.053,0,0,0,1.341-6.918,6.133,6.133,0,0,0-5.953-3.906c-1.01-.021-2.022-.023-3.032,0a5.446,5.446,0,0,0-4.413,2.267,2.388,2.388,0,0,1-.771.694,4.113,4.113,0,0,0-.279,7.238.787.787,0,0,1,.417.789c-.026.681.009,1.364-.011,2.046a3.62,3.62,0,0,0,.955,2.707c.231.245.22.353-.033.578A8.662,8.662,0,0,0,3074.967,805.681Z" transform="translate(-105.69 -5.521)" fill="#e3e6e9"/>
        <path id="Trazado_611582" data-name="Trazado 611582" d="M2974.592,981.643c2.626,0,5.253.014,7.879-.012.5,0,.626.139.621.628-.024,2.525-.008,5.05-.013,7.575,0,1.081-.431,1.507-1.519,1.508q-6.97.005-13.94,0c-1.088,0-1.514-.427-1.517-1.51-.005-2.525.012-5.05-.013-7.575-.005-.493.126-.631.623-.626C2969.339,981.656,2971.966,981.643,2974.592,981.643Z" transform="translate(-33.37 -144.503)" fill="#80b0ec"/>
        <path id="Trazado_611583" data-name="Trazado 611583" d="M3074.936,933.452a13.2,13.2,0,0,1-4.378-14.3,13.349,13.349,0,0,1,25.452-.074c1.669,5.226-.2,11.421-4.346,14.372a1.635,1.635,0,0,1,.077-1.912c2.168-3.556,3.154-7.376,2-11.5a10.89,10.89,0,0,0-21.234,1.545,14.64,14.64,0,0,0,2.3,9.887A1.693,1.693,0,0,1,3074.936,933.452Z" transform="translate(-105.683 -94.486)" fill="#e1e4e7"/>
        <path id="Trazado_611584" data-name="Trazado 611584" d="M3098.376,938.807a6.475,6.475,0,0,0,2.044-3.746c.014-.1.031-.2.045-.3a1.53,1.53,0,0,0-.877-1.823c-2-1.079-3.919-2.3-5.857-3.478a.846.846,0,0,0-1.081.007c-1.26.883-2.549,1.727-3.842,2.562a.944.944,0,0,0-.468.856,6.842,6.842,0,0,0,1.851,5.632c.182.177.211.329-.033.477a9.857,9.857,0,0,0-2.1,1.72c-.343.367-.41-.033-.511-.215a12.922,12.922,0,0,1-1.414-4.052,8.678,8.678,0,0,1,2.161-8.069,8.458,8.458,0,0,1,14.444,4.265,11.9,11.9,0,0,1-1.449,7.883c-.15.289-.284.494-.585.134A8.9,8.9,0,0,0,3098.376,938.807Z" transform="translate(-116.806 -105.558)" fill="#646b75"/>
        <path id="Trazado_611585" data-name="Trazado 611585" d="M3100.815,797.985a8.971,8.971,0,0,1,2.346.153,3.835,3.835,0,0,1,2.8,3.084,3.938,3.938,0,0,1-1.4,3.795.636.636,0,0,1-.615.15,5.639,5.639,0,0,1-3.91-2.6c-.941-1.42-.955-1.411-2.374-.464-.714.477-1.442.933-2.134,1.439a.76.76,0,0,1-1.173-.166,1.66,1.66,0,0,1,.4-2.6,4.823,4.823,0,0,0,1.89-1.64,2.767,2.767,0,0,1,2.365-1.143C3099.566,797.972,3100.122,797.985,3100.815,797.985Z" transform="translate(-122.357 -16.635)" fill="#656c75"/>
        <path id="Trazado_611586" data-name="Trazado 611586" d="M3100.088,984.608a14,14,0,0,1-5.431-1.183c-.5-.216-.589-.47-.5-.978a6.413,6.413,0,0,1,1.638-3.263c.3-.324.49-.376.832-.017,1.008,1.062,2.076,2.066,3.088,3.125.329.345.507.33.828-.005.995-1.039,2.05-2.022,3.034-3.071.387-.413.606-.348.939.028a6.434,6.434,0,0,1,1.594,3.287.665.665,0,0,1-.448.867A13.846,13.846,0,0,1,3100.088,984.608Z" transform="translate(-122.517 -142.615)" fill="#b9d888"/>
        <path id="Trazado_611587" data-name="Trazado 611587" d="M3053.275,881.5a3.638,3.638,0,1,1-3.589-3.647A3.662,3.662,0,0,1,3053.275,881.5Zm-3.662,1.2a1.212,1.212,0,1,0-1.186-1.216A1.223,1.223,0,0,0,3049.613,882.7Z" transform="translate(-89.008 -72.247)" fill="#ec8672"/>
        <path id="Trazado_611588" data-name="Trazado 611588" d="M3105.527,825.335c-.782,0-1.565.016-2.347-.005a1.209,1.209,0,0,1-1.281-1.284c-.015-.353,0-.706,0-1.06,0-2,.006-1.987,1.75-3.027.275-.164.413-.159.614.08a7.874,7.874,0,0,0,4.593,2.716c.122.025.236.03.306.17a1.68,1.68,0,0,1-1.435,2.409C3106.992,825.343,3106.26,825.336,3105.527,825.335Z" transform="translate(-127.923 -31.859)" fill="#e8ceb4"/>
        <path id="Trazado_611589" data-name="Trazado 611589" d="M3105.564,952.439a3.554,3.554,0,0,1-3.581-3.828c.134-1.059,1.439-1.169,2.127-1.813.346-.324.6-.007.865.149,1.212.717,2.4,1.477,3.635,2.154.541.3.538.6.332,1.088A3.676,3.676,0,0,1,3105.564,952.439Z" transform="translate(-127.969 -120.154)" fill="#e8ceb4"/>
        <path id="Trazado_611590" data-name="Trazado 611590" d="M3098.872,850.005c0,.984-.02,1.969.009,2.952.013.446-.066.629-.574.555a14.348,14.348,0,0,1-3.9-1.153.531.531,0,0,1-.334-.654,6.145,6.145,0,0,1,4.209-5.069c.457-.141.621-.121.6.418C3098.844,848.036,3098.872,849.021,3098.872,850.005Z" transform="translate(-122.473 -50.46)" fill="#ec8672"/>
        <path id="Trazado_611591" data-name="Trazado 611591" d="M3117.864,849.97c0-1.009.011-2.019-.006-3.028-.007-.379.077-.463.471-.36a6.193,6.193,0,0,1,4.344,5.208.465.465,0,0,1-.3.528,13.256,13.256,0,0,1-4.042,1.187c-.376.046-.481-.06-.474-.431C3117.877,852.04,3117.864,851,3117.864,849.97Z" transform="translate(-139.038 -50.446)" fill="#ec8672"/>
        <path id="Trazado_611592" data-name="Trazado 611592" d="M2959.317,888.263c-1.176,0-1.176,0-1.176-1.173,0-1.251,0-1.251,1.249-1.251,1.176,0,1.176,0,1.176,1.173C2960.565,888.263,2960.565,888.263,2959.317,888.263Z" transform="translate(-27.835 -77.807)" fill="#aab1bb"/>
        <path id="Trazado_611593" data-name="Trazado 611593" d="M3108.093,974.047a5.289,5.289,0,0,1,3.393-.072l-1.46,1.485c-.141.144-.256.08-.384-.036C3109.166,974.994,3108.684,974.571,3108.093,974.047Z" transform="translate(-132.241 -139.003)" fill="#e8ceb4"/>
        <path id="Trazado_611594" data-name="Trazado 611594" d="M2953.389,816.485c.089.082.2.179.309.284.555.552,1.137,1.081,1.652,1.668.428.488.648.552,1.069-.063,2.221-3.248,4.511-6.449,6.74-9.692.364-.53.593-.554,1.09-.184,1.328.987,1.345.963.378,2.345-2.646,3.782-5.3,7.557-7.925,11.356-.366.53-.558.489-.965.064-1.225-1.275-2.482-2.517-3.747-3.752-.294-.287-.37-.475-.02-.77.367-.307.682-.675,1.026-1.009C2953.1,816.635,2953.172,816.484,2953.389,816.485Z" transform="translate(-23.375 -23.785)" fill="#050504"/>
        <path id="Trazado_611595" data-name="Trazado 611595" d="M3055.176,888.261a1.212,1.212,0,1,1,1.235-1.169A1.221,1.221,0,0,1,3055.176,888.261Z" transform="translate(-94.571 -77.807)" fill="#0b0605"/>
      </g>
    </g>
  </g>
</svg>
