<svg xmlns="http://www.w3.org/2000/svg" width="295" height="152" viewBox="0 0 295 152">
  <g id="Grupo_980842" data-name="Grupo 980842" transform="translate(-1125 -2649)">
    <rect id="Rect치ngulo_306730" data-name="Rect치ngulo 306730" width="295" height="152" transform="translate(1125 2649)" fill="#e2d9ff" opacity="0.5"/>
    <g id="Grupo_955129" data-name="Grupo 955129" transform="translate(1154.5 -3430)">
      <rect id="Rect치ngulo_34178" data-name="Rect치ngulo 34178" width="85" height="85" transform="translate(180 6099)" fill="none"/>
      <g id="Grupo_955157" data-name="Grupo 955157" transform="translate(-634.266 6085.103)">
        <path id="Trazado_630509" data-name="Trazado 630509" d="M883.776,130.179a9.8,9.8,0,0,1-2.866-7.836c.067-1.553.016-3.112.01-4.669a9.1,9.1,0,0,1,.346-2.522,9.228,9.228,0,0,1,9.55-6.72,9.117,9.117,0,0,1,8.412,7.925,58.089,58.089,0,0,1,.074,8.112,5.274,5.274,0,0,1-.154.944,9.34,9.34,0,0,1-2.607,4.737c1.149.069,2.206.008,3.261.128a13.267,13.267,0,0,1,11.336,10.61,15.242,15.242,0,0,1,.247,2.733c-.007,2.345,0,4.69,0,7.036,0,1.056-.469,1.528-1.518,1.529q-19.734,0-39.469,0a1.307,1.307,0,0,1-1.5-1.48c0-2.537-.026-5.075.007-7.612a13.231,13.231,0,0,1,12.926-12.912C882.423,130.171,883.02,130.179,883.776,130.179Zm4.393,19.447a1.236,1.236,0,0,0-.041-.213q-3.351-8.138-6.7-16.277c-.138-.337-.32-.351-.634-.315a10.666,10.666,0,0,0-9.336,10.285c-.028,1.982.013,3.965-.021,5.948-.008.495.138.585.6.583,4.115-.019,8.23-.011,12.345-.011Zm3.9-.052a.889.889,0,0,0,.168.047q8.091,0,16.182.013c.366,0,.407-.142.4-.448-.013-2.089.034-4.18-.021-6.267a10.691,10.691,0,0,0-9.2-10.09c-.521-.064-.691.108-.866.538q-2.187,5.375-4.41,10.736Q893.208,146.836,892.073,149.574Zm4.72-26.978c0-.82-.017-1.374.006-1.927.014-.333-.047-.481-.436-.49a12.857,12.857,0,0,1-5.8-1.531.77.77,0,0,0-.824-.006,12.886,12.886,0,0,1-5.8,1.537c-.358.01-.467.109-.458.469.025,1.022-.008,2.045.016,3.067a6.643,6.643,0,0,0,11.912,3.856A7.09,7.09,0,0,0,896.793,122.6Zm-6.655,24.955,6.112-14.817H895.7c-1.3,0-2.6.01-3.9-.007-.314,0-.394.095-.387.4.019.852.015,1.7,0,2.556a1.284,1.284,0,1,1-2.555-.02q-.014-1.278,0-2.556c0-.256-.039-.379-.341-.375-1.465.015-2.931.007-4.5.007Zm5.959-29.929c.734.023.742.016.671-.623-.024-.211-.066-.421-.1-.63a6.667,6.667,0,0,0-6.993-5.38,6.744,6.744,0,0,0-6.184,6.108c-.033.487.138.566.566.535a10.328,10.328,0,0,0,4.951-1.527,1.892,1.892,0,0,1,2.294.017A10.288,10.288,0,0,0,896.1,117.622Z" transform="translate(-33.373 -63.033)" fill="#020202"/>
        <path id="Trazado_630510" data-name="Trazado 630510" d="M998.2,53.131c0-1.833-.008-3.667.007-5.5,0-.372-.051-.538-.492-.6a11.783,11.783,0,1,1,3.587-.009c-.511.073-.549.266-.548.68q.018,6.2.007,12.408c0,1.233-.421,1.655-1.648,1.656q-2.943,0-5.885,0c-.971,0-1.564-.5-1.55-1.3.013-.774.592-1.254,1.531-1.256,1.514,0,3.028-.012,4.541.007.359,0,.463-.091.46-.455C998.193,56.884,998.2,55.008,998.2,53.131Zm-7.934-17.767a9.214,9.214,0,1,0,9.285-9.173A9.235,9.235,0,0,0,990.269,35.365Z" transform="translate(-121.729 0)" fill="#020202"/>
        <path id="Trazado_630511" data-name="Trazado 630511" d="M853.579,44.089a9.533,9.533,0,0,1-.842,3.1c-.98-.275-1.287-.147-1.952.814a9.2,9.2,0,0,1-16.563-7.2,9.206,9.206,0,0,1,16.558-3.222c.687.942.971,1.084,1.956.814a9.476,9.476,0,0,1,.843,3.1c-.813.272-1.167.667-1.167,1.3S852.766,43.816,853.579,44.089Zm-13.711-5.9a1.294,1.294,0,0,0-1.143.767,1.193,1.193,0,0,0,.256,1.415q1.017,1.063,2.078,2.083c.263.252.269.407,0,.66-.665.631-1.308,1.285-1.948,1.942a1.293,1.293,0,1,0,1.831,1.793c.656-.641,1.309-1.285,1.943-1.947.23-.24.377-.253.613-.006.633.663,1.285,1.308,1.942,1.948a1.285,1.285,0,0,0,1.969.137c.556-.567.5-1.283-.174-1.97-.626-.64-1.253-1.281-1.9-1.9-.266-.252-.266-.407,0-.659.65-.615,1.276-1.256,1.9-1.9.673-.687.731-1.4.176-1.971a1.287,1.287,0,0,0-1.969.136c-.656.64-1.308,1.285-1.942,1.948-.234.245-.382.239-.613,0-.634-.662-1.3-1.3-1.94-1.95A1.574,1.574,0,0,0,839.868,38.194Z" transform="translate(-7.42 -7.384)" fill="#e5888e"/>
        <path id="Trazado_630512" data-name="Trazado 630512" d="M845.316,31.01c-.985.27-1.269.128-1.956-.814A9.206,9.206,0,0,0,826.8,33.418a9.2,9.2,0,0,0,16.563,7.2c.665-.961.972-1.089,1.952-.814a1.328,1.328,0,0,1,.3,2.054,11.532,11.532,0,0,1-8.083,5.175c-.378.059-.49.157-.488.54q.022,5.6,0,11.192c0,.372.114.454.465.45,1.514-.018,3.027-.012,4.541-.006.919,0,1.521.513,1.526,1.272,0,.774-.582,1.283-1.5,1.285q-2.974.007-5.948,0c-1.185,0-1.631-.44-1.631-1.611,0-4.136-.011-8.272.012-12.407,0-.5-.119-.653-.635-.735a11.758,11.758,0,0,1-.025-23.208,11.432,11.432,0,0,1,11.734,5.1A1.331,1.331,0,0,1,845.316,31.01Z" transform="translate(0 -0.003)" fill="#020202"/>
        <path id="Trazado_630513" data-name="Trazado 630513" d="M907.029,67.044c-.814-.273-1.167-.667-1.167-1.3s.354-1.028,1.167-1.3c.894.122,1.37.557,1.388,1.269C908.435,66.445,907.942,66.919,907.029,67.044Z" transform="translate(-60.87 -30.339)" fill="#070606"/>
        <path id="Trazado_630514" data-name="Trazado 630514" d="M895.579,220.363h-3.784c-4.115,0-8.23-.008-12.345.011-.463,0-.609-.088-.6-.583.034-1.982-.007-3.965.021-5.948a10.666,10.666,0,0,1,9.336-10.285c.314-.036.5-.022.634.315q3.338,8.143,6.7,16.277A1.238,1.238,0,0,1,895.579,220.363Z" transform="translate(-40.784 -133.77)" fill="#a0dbf0"/>
        <path id="Trazado_630515" data-name="Trazado 630515" d="M959.316,220.335q1.133-2.743,2.261-5.472,2.211-5.365,4.41-10.736c.175-.43.345-.6.866-.538a10.691,10.691,0,0,1,9.2,10.09c.055,2.088.008,4.178.021,6.267,0,.306-.039.449-.4.448q-8.091-.02-16.182-.013A.889.889,0,0,1,959.316,220.335Z" transform="translate(-100.617 -133.794)" fill="#a0dbf0"/>
        <path id="Trazado_630516" data-name="Trazado 630516" d="M939.1,151.921a7.09,7.09,0,0,1-1.389,4.976A6.643,6.643,0,0,1,925.8,153.04c-.024-1.022.008-2.045-.016-3.067-.009-.36.1-.459.458-.469a12.887,12.887,0,0,0,5.8-1.537.77.77,0,0,1,.824.006,12.856,12.856,0,0,0,5.8,1.531c.389.01.45.157.436.49C939.086,150.547,939.1,151.1,939.1,151.921Z" transform="translate(-75.683 -92.358)" fill="#f3bfa2"/>
        <path id="Trazado_630517" data-name="Trazado 630517" d="M934.046,218.053l-6.112-14.817c1.565,0,3.031.008,4.5-.007.3,0,.345.119.341.375q-.018,1.278,0,2.556a1.284,1.284,0,1,0,2.555.02c.011-.852.015-1.7,0-2.556-.007-.3.073-.4.387-.4,1.3.017,2.6.007,3.9.007h.553Z" transform="translate(-77.282 -133.535)" fill="#fcfcfc"/>
        <path id="Trazado_630518" data-name="Trazado 630518" d="M938.437,125.062a10.288,10.288,0,0,1-4.8-1.5,1.892,1.892,0,0,0-2.294-.017,10.326,10.326,0,0,1-4.951,1.527c-.428.031-.6-.048-.566-.535a6.744,6.744,0,0,1,6.184-6.108,6.667,6.667,0,0,1,6.993,5.38c.036.21.079.419.1.63C939.179,125.078,939.17,125.084,938.437,125.062Z" transform="translate(-75.713 -70.473)" fill="#858ea2"/>
        <path id="Trazado_630519" data-name="Trazado 630519" d="M997.689,42.759a9.214,9.214,0,1,1,9.143,9.253A9.228,9.228,0,0,1,997.689,42.759Zm8.209,3.633a1.354,1.354,0,0,0,1.086-.513c1.445-1.45,2.9-2.893,4.34-4.345a1.286,1.286,0,0,0,.154-1.969,1.319,1.319,0,0,0-1.97.172c-1.089,1.082-2.178,2.164-3.252,3.262-.239.245-.389.3-.643.018-.429-.473-.893-.916-1.352-1.361a1.282,1.282,0,0,0-1.922-.136,1.26,1.26,0,0,0,.09,1.921c.819.84,1.656,1.661,2.486,2.49A1.325,1.325,0,0,0,1005.9,46.393Z" transform="translate(-129.149 -7.395)" fill="#dae890"/>
        <path id="Trazado_630520" data-name="Trazado 630520" d="M853.256,51.593a1.574,1.574,0,0,1,1.081.53c.644.652,1.306,1.288,1.94,1.95.231.242.378.248.613,0,.633-.663,1.285-1.308,1.942-1.948a1.287,1.287,0,0,1,1.969-.136c.556.569.5,1.283-.176,1.971-.627.64-1.253,1.281-1.9,1.9-.266.252-.266.407,0,.659.65.615,1.277,1.256,1.9,1.9.673.687.73,1.4.174,1.97a1.285,1.285,0,0,1-1.969-.137c-.656-.64-1.309-1.285-1.942-1.948-.236-.247-.383-.234-.613.006-.634.662-1.288,1.306-1.943,1.947a1.293,1.293,0,1,1-1.831-1.793c.64-.657,1.283-1.311,1.948-1.942.267-.253.261-.408,0-.66q-1.063-1.017-2.078-2.083a1.193,1.193,0,0,1-.256-1.415A1.294,1.294,0,0,1,853.256,51.593Z" transform="translate(-20.808 -20.784)" fill="#050303"/>
        <path id="Trazado_630521" data-name="Trazado 630521" d="M1018.215,62.667a1.324,1.324,0,0,1-.983-.462c-.83-.829-1.667-1.65-2.486-2.49a1.26,1.26,0,0,1-.09-1.921,1.282,1.282,0,0,1,1.922.136c.459.445.923.888,1.352,1.361.254.281.4.227.643-.018,1.073-1.1,2.162-2.18,3.252-3.262a1.319,1.319,0,0,1,1.97-.172,1.286,1.286,0,0,1-.155,1.969c-1.443,1.452-2.895,2.9-4.34,4.345A1.353,1.353,0,0,1,1018.215,62.667Z" transform="translate(-141.467 -23.669)" fill="#030302"/>
      </g>
    </g>
  </g>
</svg>
