<svg id="Grupo_980802" data-name="Grupo 980802" xmlns="http://www.w3.org/2000/svg" width="204" height="205" viewBox="0 0 204 205">
  <g id="Grupo_980799" data-name="Grupo 980799" transform="translate(20.518 20.123)">
    <g id="Grupo_980777" data-name="Grupo 980777" transform="translate(0 0)">
      <path id="Trazado_640708" data-name="Trazado 640708" d="M382.412,644.212c-2.036-.018-2.56-.47-3.2-2.591-.29-.954-.027-2.317-.793-2.8-.736-.463-1.952-.165-2.958-.193a5.6,5.6,0,0,1-5.688-5.658c-.049-2.4,0-4.8-.013-7.194a5.364,5.364,0,0,1,2.453-4.747,1.764,1.764,0,0,0,.844-1.681c.078-3.937-.275-7.883.244-11.812,1.208-9.164,9.414-16.693,18.666-16.867q11.345-.212,22.7,0a19.677,19.677,0,0,1,18.807,18.464c.145,3.351.081,6.712.064,10.069a1.856,1.856,0,0,0,.9,1.836A5.467,5.467,0,0,1,436.9,625.8c.043,2.343.056,4.69,0,7.033a5.7,5.7,0,0,1-5.913,5.8c-2.855.054-2.824.062-3.554,2.678a19.491,19.491,0,0,1-12.368,13.615,1.652,1.652,0,0,0-1.2,1.686,5.877,5.877,0,0,0,2.108,5.279,14.378,14.378,0,0,0,6.678,4.022c2.981.744,5.87,1.856,8.808,2.781a20.786,20.786,0,0,1,9.08,5.635c.039-.83.082-1.376.086-1.924.033-5.167.015-10.335.109-15.5.037-2.058.714-2.621,2.84-2.856,1.523.553,2.005,1.66,1.97,3.238-.088,3.931-.04,7.864-.092,11.8-.011.864.209,1.237,1.151,1.215,2.391-.056,4.785-.064,7.174,0,1,.028,1.1-.426,1.1-1.24-.031-3.454.01-6.909-.023-10.364-.015-1.608.6-2.653,2.249-2.96,1.963.345,2.553,1.008,2.556,2.969.009,6.874.029,13.747-.02,20.62-.008,1.125.315,1.45,1.431,1.424,3.035-.07,6.073-.009,9.111-.024a4.071,4.071,0,0,1,3.166,1.263,4.431,4.431,0,0,1,.7,5.047c-2.686,6.774-5.312,13.572-8.018,20.338-.483,1.209-.318,1.554,1.034,1.53q5.912-.109,11.828,0c1.191.022,1.539-.318,1.534-1.521-.047-9.271-.034-18.542-.013-27.813a2.957,2.957,0,0,0-.706-2.028c-2.808-3.416-5.465-6.962-8.4-10.262-2.147-2.414-3-4.948-2.071-8.052.325-1.085.063-1.674-1.22-1.733a5.838,5.838,0,0,1-5.558-4.273c-.993-2.751-2.113-5.458-3.031-8.234-.416-1.258-.97-1.459-2.017-.824l-.31.158a12.881,12.881,0,0,0-6.635,3.2,4.117,4.117,0,0,1-3.992,1.26c-1.438-2.354-1.323-3.09.759-4.872a19.187,19.187,0,0,1,6.635-3.711,99.274,99.274,0,0,1,9.567-3c3.691-.792,5.864-3.428,8.329-5.8a1.529,1.529,0,0,0,.405-1.149c.186-3.328.17-3.284-2.78-4.745a19.447,19.447,0,0,1-11.011-14.2c-.234-1.167-.662-1.576-1.84-1.474a10.034,10.034,0,0,1-3.017-.14,5.659,5.659,0,0,1-4.348-5.61c-.051-2.343-.038-4.688,0-7.031a5.486,5.486,0,0,1,2.454-4.765,1.867,1.867,0,0,0,.924-1.824c-.028-3.249-.082-6.5.044-9.746a19.708,19.708,0,0,1,19.425-18.84q10.706-.1,21.414,0A19.812,19.812,0,0,1,513,581.1c.1,3.086.042,6.179.021,9.268a1.936,1.936,0,0,0,.919,1.963,5.106,5.106,0,0,1,2.358,4.466c.009,2.5.053,5.008-.008,7.51a5.582,5.582,0,0,1-5.624,5.547c-1.01.028-2.212-.289-2.976.156-.8.463-.537,1.824-.828,2.771A19.727,19.727,0,0,1,494.6,626.125a1.817,1.817,0,0,0-1.332,1.94,5.725,5.725,0,0,0,1.978,4.864,15.312,15.312,0,0,0,7.052,4.308c3.384.887,6.7,2.054,10,3.23a18.656,18.656,0,0,1,12.561,17.521q.108,12.384,0,24.769a16.444,16.444,0,0,1-12.685,15.989c-1.159.286-1.594.682-1.576,1.965.085,6.071.046,12.145.035,18.217-.008,4.461-2.206,6.626-6.7,6.627-11.4,0-22.8-.013-34.2.015-1.645,0-2.808-.479-3.144-2.229.325-2.022.973-2.577,3.085-2.582q14.487-.033,28.975-.056c1.912.018,3.826.01,5.738.063,1.035.03,1.445-.437,1.432-1.43-.02-1.541-.028-3.084.006-4.625.015-.706-.138-1.081-.958-1.055-2.07.065-4.143.06-6.214.083q-17.144-.035-34.289-.085a1.074,1.074,0,0,0-1.145.84q-1.659,4.385-3.34,8.763c-.615,1.735-1.792,2.336-3.665,2.333q-44.266-.075-88.531-.036c-4.307,0-6.511-2.184-6.512-6.453q0-15.66,0-31.32c.007-9.294,5-16.144,13.865-19.014,3.535-1.144,7.045-2.384,10.629-3.352,2.7-.728,4.037-2.993,5.942-4.623a2.989,2.989,0,0,0,1.181-2.117c.237-2.271-.207-3.889-2.747-4.356a5.384,5.384,0,0,1-1.564-.776c-1.919-1.1-2.212-1.988-1.37-4.065a2.953,2.953,0,0,1,3.787-.1,12.552,12.552,0,0,0,6.3,1.961c3.548.089,7.1.008,10.653,0a15.012,15.012,0,0,0,15.026-11.57c.738-3.2.053-6.5.467-9.691a13.455,13.455,0,0,0-4.437-12.378,4.142,4.142,0,0,1-.3-.375,1.823,1.823,0,0,0-2.76-.474c-8.4,3.911-16.781,4.047-25.141-.1a2,2,0,0,0-2.78.652c-1.378,1.753-2.77,3.5-4.2,5.2a2.486,2.486,0,0,0-.472,1.781c.006,3.773.015,7.547,0,11.32a18.429,18.429,0,0,0,.65,4.878C384.447,642.564,384.182,643.2,382.412,644.212Zm67.648,30.925c-1.211-.019-2.425-.006-3.633-.071-.768-.042-1.026.251-.995,1,.233,5.689-1.267,4.59,4.626,4.574a.926.926,0,0,0,.154.036c4.856.3,4.838.3,4.681-4.526-.025-.778-.159-1.157-1.04-1.1C452.592,675.14,451.324,675.114,450.06,675.137Zm-45.081-18.884c-2.17-.018-4.339-.016-6.508-.067-.659-.015-.9.153-.945.865-.1,1.7.038,3.2,1.562,4.352a23.547,23.547,0,0,1,2.552,2.606c1.728,1.8,1.728,1.8,3.365-.132,1.081-1.077,2.167-2.149,3.241-3.234.7-.71,1.34-3.423.812-4.095-.639-.812-1.658-.237-2.5-.346A9.463,9.463,0,0,0,404.979,656.253Zm72.265-28.772c-.211-.054-.291.022-.234.235a4.943,4.943,0,0,0,1.908,5.326,17.746,17.746,0,0,1,2.022,2.042c1.922,1.978,1.922,1.978,3.721-.195.979-.973,1.9-2.023,2.953-2.9,1.433-1.193,1.079-2.813.779-4.129-.238-1.047-1.659-.247-2.534-.418a5.451,5.451,0,0,0-1.27.044Zm33.494,65.448c-.277.942-.2,1.439,1.005,1.021a11.787,11.787,0,0,0,8.045-8.7,21.48,21.48,0,0,0,.286-5.71c-.022-1.461.694-3.516-.308-4.229-1.018-.725-2.949-.169-4.481-.174-1.219-.019-2.44,0-3.655-.072-.779-.045-1.008.257-1,1C510.681,681.688,510.7,687.308,510.737,692.928ZM494.5,652.9c.317,0,.635,0,.951.013a3.143,3.143,0,0,0,3.646-2.675,52.977,52.977,0,0,1,2.017-5.516c1.02-2.734,1.018-2.734-1.842-3.383a1.439,1.439,0,0,0-2.169.271c-3.718,4.23-7.51,8.394-11.3,12.563a2.108,2.108,0,0,0-.632,1.549c.042,3.452.049,6.9.069,10.357v4.555c2.233-2.761,4.223-5.229,6.223-7.689a1.952,1.952,0,0,0,.317-1.79c-.409-1.973-.745-3.962-1.11-5.945C491.189,653.182,492.838,653.03,494.5,652.9Zm-107.43,67.785c1.958.021,3.916.031,5.874.072a.981.981,0,0,0,1.1-.672c.414-1.124.856-2.236,1.319-3.435-.455-.028-.717-.06-.979-.058q-3.017.019-6.034.051-9.906-.028-19.812-.054c-2.715-.006-2.678,0-2.578,2.774.038,1.038.453,1.4,1.457,1.4C373.971,720.722,380.521,720.711,387.072,720.689Zm88.854-55.541,4.159,5.282c.3-4.776.278-9.387.32-14a3.426,3.426,0,0,0-.95-2.563c-3.458-3.756-6.929-7.5-10.242-11.386-1.19-1.394-2.256-1.9-3.846-.895-.5.491-2.193-.323-1.577,1.387,1.024,2.843,2.1,5.665,3.134,8.506a1.772,1.772,0,0,0,1.785,1.289c1.167.045,2.334.138,3.5.266,1.9.209,2.721,1.248,2.462,3.152a14.84,14.84,0,0,1-.593,2.961C473.191,661.647,474.008,663.551,475.926,665.148Zm-109.9,46.337c-.044.222.039.315.266.26l24.292-.01c1.962.021,3.924.03,5.887.072a.973.973,0,0,0,1.111-.643c1.028-2.667,2.077-5.325,3.129-7.983.238-.6.117-.892-.583-.876-2.119.047-4.238.071-6.356.1q-13.422-.044-26.844-.1c-.812-.005-.977.305-.964,1.031C366.016,706.053,366.014,708.769,366.031,711.485ZM493.223,566.719c-7.289-.015-14.584-.2-21.867.005a14.662,14.662,0,0,0-13.642,11.681c-.779,3.681-.247,7.426-.353,11.141-.016.552-.39,1.371.492,1.625a1.773,1.773,0,0,0,2.039-.833c1.11-1.494,2.316-2.916,3.477-4.371,2.651-3.323,5.621-3.884,9.433-2.061a21.877,21.877,0,0,0,19.833.015c2.812-1.366,5.374-1.418,7.97.3.424.473.868.93,1.268,1.422,1.343,1.651,2.693,3.3,3.992,4.982a1.841,1.841,0,0,0,1.87.564c.525-.042.509-.47.5-.839-.115-3.824.322-7.665-.3-11.472C506.8,571.976,500.1,566.448,493.223,566.719Zm-71.988,46.332c1.619,1.97,3.264,3.918,4.842,5.92.575.729,1.179,1.286,2.126.977s.491-1.181.5-1.787c.034-2.978.1-5.963-.044-8.936a14.854,14.854,0,0,0-15.046-13.732c-7.237-.015-14.478-.19-21.71,0a14.809,14.809,0,0,0-13.807,12.469c-.525,3.442-.168,6.906-.237,10.359-.011.547-.426,1.386.471,1.627a1.82,1.82,0,0,0,2.076-.779c1.14-1.537,2.368-3.011,3.576-4.5,2.684-3.3,5.587-3.808,9.454-1.96a21.814,21.814,0,0,0,19.691.006C416.005,611.331,418.6,611.271,421.234,613.051Zm84.5,59.754c.026-.584.073-1.167.074-1.75q.011-6.149.005-12.3c0-1.313.32-2.469,1.749-2.888,1.641-.482,3,.554,3.072,2.466.1,2.552.042,5.109.045,7.664,0,4.491,0,4.491,4.609,4.215,1.221.019,2.445-.008,3.661.072.933.062,1.163-.315,1.153-1.192-.043-3.825.141-7.66-.071-11.473a13.274,13.274,0,0,0-6.936-11.447c-1.523-1.155-3.4-1.454-5.12-2.141-.986-.394-1.473-.243-1.839.846-.949,2.822-2.022,5.6-3.067,8.392a5.846,5.846,0,0,1-5.451,4.213c-1.391.069-1.709.56-1.293,1.881.91,2.894.146,5.332-1.883,7.633-2.958,3.352-5.673,6.919-8.493,10.393a2.571,2.571,0,0,0-.769,1.688q.028,14.385,0,28.772c0,.744.228,1.042,1.005,1.033,4.154-.05,8.308-.061,12.462-.086,1.914.026,3.831,0,5.74.1,1.133.06,1.448-.352,1.434-1.452-.054-4.1-.014-8.2-.023-12.292Q505.775,683.978,505.735,672.806Zm-18.576-50.239A14.918,14.918,0,0,0,502.5,610.042c.7-5.023.151-10.1.3-15.144a1.287,1.287,0,0,0-.336-.869c-1.5-1.863-2.989-3.738-4.507-5.588a1.694,1.694,0,0,0-2.5-.428c-8.449,3.966-16.89,4.154-25.316-.065a2.156,2.156,0,0,0-1.694-.182c-.967.315-5.671,6.466-5.67,7.457,0,4.417-.079,8.839.068,13.252a14.819,14.819,0,0,0,10.821,13.514C478.109,623.2,482.656,622.465,487.159,622.567Zm-78.23,60.516a8.3,8.3,0,0,1,6.352-2.393c4.464.077,8.931,0,13.4-.02l.128.053.128-.053,6.406-.036c.894.029,1.788.046,2.681.09.939.047.973-.34.53-1.015a12.248,12.248,0,0,0-4.8-4.665,7.809,7.809,0,0,0-1.484-.9c-4.382-1.475-8.785-2.888-13.165-4.371-.711-.24-.97.169-1.31.564-1.461,1.7-2.892,3.415-4.379,5.087-2.4,2.694-5.458,2.694-7.87.04-.712-.784-1.38-2.128-2.16-2.2-.994-.09-1.553,1.378-2.28,2.189-2.357,2.628-5.577,2.654-7.893.006q-2.209-2.526-4.349-5.113a1.249,1.249,0,0,0-1.61-.485c-3.979,1.343-8.033,2.475-11.97,3.927a13.3,13.3,0,0,0-9.035,10.859c-.66,4.009-.145,8.082-.269,12.124-.026.853.578.73,1.093.732,2.024.007,4.049.018,6.074,0,2.532-.022,2.231.321,2.25-2.172.022-2.77-.049-5.543.052-8.31a2.352,2.352,0,0,1,3.434-2.248,2.655,2.655,0,0,1,1.362,2.685c0,2.931.018,5.861-.008,8.791-.007.8.084,1.289,1.1,1.275,4.9-.068,9.8-.072,14.7-.1,1.749.025,3.505-.043,5.244.1,1.3.109,1.81-.414,2.282-1.567C405.321,691.66,406.6,687.151,408.929,683.083ZM448.783,720.7c1.063.018,2.125.049,3.188.051,3.662.006,3.664,0,4.982-3.352q5.94-15.114,11.877-30.228c.65-1.654.646-1.666-1.191-1.657-1.807.009-3.613.043-5.419.066-.478-.023-.955-.067-1.432-.067q-22.692-.006-45.385,0c-2.442,0-2.706.186-3.621,2.518q-6.086,15.5-12.154,31.013c-.2.515-.627,1.014-.361,1.711q9.646,0,19.318,0Q433.683,720.735,448.783,720.7Zm-20.691-91.446c0,1.22.027,2.441-.011,3.66-.02.676.206.98.905.931a10.4,10.4,0,0,1,1.591,0c1.207.1,1.584-.5,1.56-1.621-.042-1.908-.065-3.821.007-5.728.05-1.323-.468-1.79-1.775-1.741-2.762.105-2.219-.283-2.275,2.271C428.077,627.77,428.091,628.513,428.091,629.255Zm29.886-28.8A23.405,23.405,0,0,1,458,597.6c.172-1.39-.413-1.676-1.687-1.625-2.364.1-2.368.024-2.369,2.411,0,1.592.07,3.187-.021,4.773-.083,1.443.416,2.01,1.91,1.933,2.53-.131,2.1.262,2.142-2.085C457.99,602.157,457.978,601.308,457.978,600.459Zm-79.5,28.879c0-1.223-.035-2.448.013-3.669.028-.707-.228-.948-.913-.894a15.116,15.116,0,0,1-1.755.006c-.861-.03-1.274.343-1.267,1.227.018,2.234.007,4.468.011,6.7a.98.98,0,0,0,.719,1.088c2.152.673,3.192-.042,3.192-2.226Zm129.121-28.863c0,1.17.043,2.343-.015,3.51-.04.8.171,1.189,1.045,1.083a9.681,9.681,0,0,1,1.594-.008c.849.04,1.3-.3,1.3-1.194-.014-2.234-.005-4.468-.006-6.7a.994.994,0,0,0-.849-1.14c-2.418-.546-3.063-.062-3.063,2.375Zm-112.225,63.6-.672.429c-2.386,1.512-2.516,2.388-.673,4.523.314.363.628.724.937,1.091,2.323,2.753,2.3,2.733,4.53-.123.489-.625.388-.952-.109-1.444-1.211-1.2-2.384-2.437-3.551-3.68A3.833,3.833,0,0,1,395.37,664.079Zm18.939,2.834c-.693-.7-1.421-1.379-2.08-2.119-.48-.54-.8-.628-1.344-.028-1.206,1.339-2.5,2.6-3.744,3.9-.207.215-.634.47-.4.76.818,1.038,1.7,2.025,2.6,3,.142.155.377-.026.525-.2q2.065-2.419,4.137-4.833A5.213,5.213,0,0,0,414.309,666.914Zm79.332-28.673c-.036-.127-.035-.248-.095-.308a10.356,10.356,0,0,0-2.412-2.279c-.743-.356-1.131.876-1.717,1.351a15.7,15.7,0,0,0-1.34,1.366c-2.189,2.274-2.167,2.254.027,4.612.526.564.8.65,1.327.023,1.2-1.421,2.48-2.776,3.724-4.161C493.331,638.648,493.486,638.434,493.641,638.241Zm-16.919,5.435c2.929-3.044,2.929-3.044.141-5.918l-.334-.344c-2.163-2.23-2.145-2.214-4.259.158-.408.458-.446.707-.031,1.155C473.753,640.357,475.229,642.021,476.722,643.676Zm8.66,3.684a14.908,14.908,0,0,0-2.542-3.033,13.493,13.493,0,0,0-2.674,2.865,10.383,10.383,0,0,0,2.521,2.966A12.154,12.154,0,0,0,485.382,647.36Z" transform="translate(-361.18 -561.823)" fill="#030303"/>
      <path id="Trazado_640709" data-name="Trazado 640709" d="M419.777,681.985c-3.551.009-7.1.09-10.652,0a12.552,12.552,0,0,1-6.3-1.961,2.954,2.954,0,0,0-3.787.1,13.823,13.823,0,0,1-3.667-4.114c-.285-.453-.511-.932-1.042-1.152,1.771-1.012,2.035-1.649,1.5-3.628a18.431,18.431,0,0,1-.65-4.878c.018-3.773.008-7.547,0-11.32a2.486,2.486,0,0,1,.472-1.781c1.434-1.707,2.826-3.451,4.2-5.2a2,2,0,0,1,2.78-.652c8.36,4.149,16.745,4.013,25.141.1.433.371.307.878.307,1.343.006,6.277.074,12.555-.035,18.83a16.008,16.008,0,0,1-1.493,6.29A20.137,20.137,0,0,1,419.777,681.985Zm-4.594-5.4a7.4,7.4,0,0,0,5.107-2.021,2.456,2.456,0,0,0,.3-3.434,2.261,2.261,0,0,0-3.28-.277,2.82,2.82,0,0,1-4.12-.053,2.253,2.253,0,0,0-3.286.164,2.344,2.344,0,0,0,.172,3.422A7.4,7.4,0,0,0,415.182,676.585Zm2.405-14.318h-.007c0-1.008.048-2.018-.012-3.022a2.162,2.162,0,0,0-2.22-2.228,2.1,2.1,0,0,0-2.453,1.971,44.522,44.522,0,0,0-.008,6.51,2.2,2.2,0,0,0,2.438,2.036,2.319,2.319,0,0,0,2.254-2.4C417.625,664.178,417.588,663.222,417.588,662.267Z" transform="translate(-373.092 -592.468)" fill="#f8decf"/>
      <path id="Trazado_640710" data-name="Trazado 640710" d="M515.273,808.439q1.672-4.381,3.34-8.763a1.074,1.074,0,0,1,1.145-.841q17.144.066,34.289.085,0,3.481,0,6.963-14.488.027-28.975.056c-2.112,0-2.76.559-3.085,2.582Z" transform="translate(-416.561 -647.006)" fill="#c9beba"/>
      <path id="Trazado_640711" data-name="Trazado 640711" d="M503.333,702.015c-1.646.307-2.264,1.352-2.249,2.96.033,3.454-.008,6.909.023,10.363.008.814-.1,1.268-1.1,1.24-2.389-.067-4.783-.059-7.174,0-.942.022-1.162-.351-1.151-1.215.052-3.932,0-7.865.092-11.8.035-1.578-.446-2.685-1.97-3.238a16.566,16.566,0,0,1,1.815-4.232c.267-.419.382-1.038,1.073-1.031a4.116,4.116,0,0,0,3.992-1.259,12.882,12.882,0,0,1,6.635-3.2q.021,5.566.043,11.133C503.353,701.827,503.342,701.921,503.333,702.015Z" transform="translate(-407.409 -608.106)" fill="#8f8a8a"/>
      <path id="Trazado_640712" data-name="Trazado 640712" d="M470.1,790.1q-15.1.027-30.2.052-9.666.011-19.318,0c-.265-.7.16-1.2.361-1.711Q427,772.923,433.1,757.426c.915-2.332,1.179-2.518,3.621-2.518q22.692,0,45.385,0c.477,0,.954.044,1.432.068a11.8,11.8,0,0,1-.4,1.689c-3.088,7.833-6.241,15.642-9.28,23.494C472.583,783.461,471.1,786.689,470.1,790.1Zm-12.995-26.2a13.77,13.77,0,0,0-8.146,2.336c-4.345,3.03-4.305,8.084.054,11.1,4.4,3.046,11.718,3.091,16.192.1,4.592-3.07,4.573-8.333-.058-11.376A14.039,14.039,0,0,0,457.109,763.895Z" transform="translate(-382.5 -631.217)" fill="#c9beba"/>
      <path id="Trazado_640713" data-name="Trazado 640713" d="M398.685,757.955c-4.9.027-9.8.031-14.7.1-1.012.014-1.1-.476-1.1-1.275.026-2.93.012-5.86.008-8.791a2.655,2.655,0,0,0-1.363-2.685,2.352,2.352,0,0,0-3.434,2.248c-.1,2.767-.03,5.54-.052,8.31-.019,2.493.282,2.15-2.25,2.172-2.024.018-4.049.007-6.074,0-.515,0-1.118.12-1.093-.732.124-4.042-.391-8.114.268-12.124a13.3,13.3,0,0,1,9.035-10.859c3.936-1.453,7.991-2.584,11.969-3.927a1.249,1.249,0,0,1,1.61.485q2.137,2.588,4.349,5.113c2.316,2.647,5.535,2.622,7.893-.007.726-.811,1.286-2.278,2.28-2.189.78.07,1.448,1.414,2.159,2.2,2.412,2.653,5.475,2.654,7.87-.04,1.486-1.672,2.918-3.392,4.379-5.087.34-.4.6-.8,1.31-.565,4.38,1.482,8.783,2.9,13.165,4.371a7.816,7.816,0,0,1,1.484.9c.372,1.908,1.409,3.628,1.586,5.591l-6.405.036h-.257c-4.466.015-8.932.1-13.4.02a8.3,8.3,0,0,0-6.352,2.393c-1.063-.017-2.129.007-3.189-.058a5.093,5.093,0,0,0-5.566,3.565Q400.755,752.535,398.685,757.955Z" transform="translate(-363.832 -622.348)" fill="#5d8bcf"/>
      <path id="Trazado_640714" data-name="Trazado 640714" d="M544.146,637.067c-4.5-.1-9.05.63-13.5-.577a14.819,14.819,0,0,1-10.821-13.514c-.147-4.413-.067-8.835-.068-13.252,0-.991,4.7-7.142,5.67-7.457a2.158,2.158,0,0,1,1.694.182c8.426,4.219,16.867,4.031,25.316.065q.009,10.543.012,21.085a7.331,7.331,0,0,1-.127,1.262A18.2,18.2,0,0,1,544.146,637.067Zm-4.412-5.478a7.4,7.4,0,0,0,5.175-2.123,2.335,2.335,0,0,0,.238-3.3,2.235,2.235,0,0,0-3.271-.343,2.889,2.889,0,0,1-4.247-.087,2.2,2.2,0,0,0-3.167.212,2.361,2.361,0,0,0,.029,3.306A7.368,7.368,0,0,0,539.734,631.588Zm2.429-14.214h-.006c0-1.008.071-2.022-.017-3.022a2.332,2.332,0,0,0-2.555-2.262,2.249,2.249,0,0,0-2.2,2.428c-.045,1.855-.043,3.714,0,5.569a2.387,2.387,0,0,0,2.288,2.548,2.459,2.459,0,0,0,2.476-2.4C542.222,619.288,542.163,618.329,542.163,617.374Z" transform="translate(-418.167 -576.323)" fill="#f8decf"/>
      <path id="Trazado_640715" data-name="Trazado 640715" d="M584.859,716.228c-4.608.277-4.605.277-4.609-4.214,0-2.555.051-5.112-.045-7.663-.072-1.911-1.432-2.948-3.072-2.466-1.429.419-1.748,1.575-1.749,2.888q0,6.148-.005,12.3c0,.583-.048,1.167-.074,1.75-1.01,0-2.02-.008-3.031-.006-2.815,0-4.035,1.242-4.036,4.1q-.011,15.948-.019,31.9c-4.154.025-8.309.036-12.462.086-.777.009-1.007-.288-1.005-1.033q.025-14.386,0-28.772a2.573,2.573,0,0,1,.769-1.688c2.821-3.473,5.536-7.04,8.493-10.392,2.029-2.3,2.793-4.739,1.883-7.633-.416-1.32-.1-1.812,1.293-1.881a5.846,5.846,0,0,0,5.451-4.213c1.045-2.788,2.118-5.57,3.067-8.392.366-1.089.853-1.239,1.839-.846,1.719.687,3.6.986,5.12,2.141a4.857,4.857,0,0,0,.229.911,22.635,22.635,0,0,1,1.956,9.408C584.9,707.08,584.861,711.654,584.859,716.228Z" transform="translate(-430.75 -607.836)" fill="#8f8a8a"/>
      <path id="Trazado_640716" data-name="Trazado 640716" d="M430.532,631.893c-2.635-1.78-5.229-1.72-8.108-.332a21.812,21.812,0,0,1-19.691-.006c-3.867-1.848-6.77-1.338-9.454,1.96-1.209,1.485-2.437,2.958-3.576,4.5a1.819,1.819,0,0,1-2.076.779c-.9-.241-.482-1.08-.472-1.627.069-3.453-.288-6.917.237-10.359A14.809,14.809,0,0,1,401.2,614.336c7.232-.19,14.473-.016,21.71,0,.1.179.156.427.309.53a17.148,17.148,0,0,1,7.521,12.222A8.113,8.113,0,0,1,430.532,631.893Z" transform="translate(-370.477 -580.664)" fill="#8f8a8a"/>
      <path id="Trazado_640717" data-name="Trazado 640717" d="M554.513,586.923c-2.6-1.722-5.157-1.669-7.97-.3a21.877,21.877,0,0,1-19.833-.015c-3.812-1.824-6.782-1.263-9.433,2.061-1.161,1.455-2.367,2.877-3.476,4.371a1.773,1.773,0,0,1-2.039.833c-.882-.254-.508-1.073-.492-1.625.106-3.715-.426-7.46.353-11.141a14.662,14.662,0,0,1,13.642-11.681c7.284-.2,14.578-.02,21.867-.005.114.231.169.539.352.68a18.614,18.614,0,0,1,5.7,6.714A15.259,15.259,0,0,1,554.513,586.923Z" transform="translate(-415.09 -564.52)" fill="#8f8a8a"/>
      <path id="Trazado_640718" data-name="Trazado 640718" d="M510.921,701.73c.009-.095.02-.188.032-.282.454-.366.272-.878.273-1.328.011-3.321,0-6.643-.005-9.964,1.046-.635,1.6-.434,2.017.824.917,2.776,2.038,5.483,3.031,8.234a5.838,5.838,0,0,0,5.559,4.273c1.284.058,1.545.648,1.22,1.733-.93,3.1-.076,5.638,2.071,8.053,2.935,3.3,5.592,6.846,8.4,10.262a2.957,2.957,0,0,1,.706,2.028c-.021,9.271-.035,18.542.013,27.813.006,1.2-.342,1.543-1.534,1.521q-5.913-.105-11.828,0c-1.352.024-1.517-.321-1.034-1.53,2.705-6.766,5.332-13.563,8.018-20.337a4.431,4.431,0,0,0-.695-5.047A4.071,4.071,0,0,0,524,726.719c-3.037.016-6.076-.046-9.111.024-1.116.025-1.439-.3-1.431-1.424.049-6.873.029-13.747.02-20.62C513.474,702.738,512.884,702.075,510.921,701.73Z" transform="translate(-414.997 -607.82)" fill="#8e8989"/>
      <path id="Trazado_640719" data-name="Trazado 640719" d="M575.776,771.059q.01-15.949.019-31.9c0-2.858,1.221-4.1,4.036-4.1,1.01,0,2.02,0,3.031.006q.033,11.173.065,22.346c.009,4.1-.031,8.2.023,12.292.015,1.1-.3,1.511-1.434,1.452C579.607,771.058,577.69,771.085,575.776,771.059Z" transform="translate(-438.306 -624.085)" fill="#7d7b7b"/>
      <path id="Trazado_640720" data-name="Trazado 640720" d="M393.275,790.552l-24.292.01-.266-.26c-.017-2.716-.015-5.432-.063-8.148-.013-.726.152-1.036.964-1.031q13.422.082,26.844.1a8.065,8.065,0,0,1-.624,2.093C395.091,785.77,393.681,787.984,393.275,790.552Z" transform="translate(-363.866 -640.64)" fill="#f8decf"/>
      <path id="Trazado_640721" data-name="Trazado 640721" d="M497.932,790.1c1-3.407,2.48-6.635,3.757-9.936,3.039-7.852,6.191-15.661,9.28-23.494a11.8,11.8,0,0,0,.4-1.689c1.806-.023,3.612-.057,5.419-.066,1.838-.01,1.841,0,1.191,1.656Q512.042,771.684,506.1,786.8c-1.318,3.355-1.32,3.358-4.982,3.352C500.058,790.147,498.995,790.116,497.932,790.1Z" transform="translate(-410.329 -631.219)" fill="#b5aaaa"/>
      <path id="Trazado_640722" data-name="Trazado 640722" d="M557.839,637.05a18.2,18.2,0,0,0,8.179-12.206,7.336,7.336,0,0,0,.127-1.262q0-10.542-.012-21.085a1.694,1.694,0,0,1,2.5.428c1.517,1.85,3.005,3.725,4.507,5.588a1.285,1.285,0,0,1,.336.869c-.144,5.048.409,10.121-.3,15.144A14.917,14.917,0,0,1,557.839,637.05Z" transform="translate(-431.86 -576.306)" fill="#f4cdbf"/>
      <path id="Trazado_640723" data-name="Trazado 640723" d="M434.057,681.964a20.143,20.143,0,0,0,6.781-8.027,16.01,16.01,0,0,0,1.493-6.29c.108-6.275.041-12.553.035-18.83,0-.464.125-.971-.308-1.343a1.823,1.823,0,0,1,2.76.474,4.163,4.163,0,0,0,.3.375,13.456,13.456,0,0,1,4.438,12.378c-.414,3.2.271,6.487-.467,9.691A15.012,15.012,0,0,1,434.057,681.964Z" transform="translate(-387.372 -592.447)" fill="#f4cdbf"/>
      <path id="Trazado_640724" data-name="Trazado 640724" d="M574.685,586.968a15.259,15.259,0,0,0-1.331-10.112,18.615,18.615,0,0,0-5.7-6.714c-.183-.141-.237-.45-.352-.68,6.876-.272,13.577,5.256,14.707,12.162.623,3.807.186,7.649.3,11.472.011.369.028.8-.5.839a1.841,1.841,0,0,1-1.87-.564c-1.3-1.685-2.649-3.331-3.992-4.982C575.553,587.9,575.109,587.44,574.685,586.968Z" transform="translate(-435.262 -564.565)" fill="#7d7b7b"/>
      <path id="Trazado_640725" data-name="Trazado 640725" d="M450.651,631.934a8.112,8.112,0,0,0,.206-4.806,17.148,17.148,0,0,0-7.521-12.222c-.152-.1-.208-.35-.309-.53a14.854,14.854,0,0,1,15.046,13.732c.142,2.973.077,5.957.043,8.936-.007.607.448,1.48-.5,1.787s-1.551-.248-2.126-.977C453.915,635.852,452.269,633.9,450.651,631.934Z" transform="translate(-390.596 -580.705)" fill="#7d7b7b"/>
      <path id="Trazado_640726" data-name="Trazado 640726" d="M523.821,686.047c1.59-1.008,2.657-.5,3.846.895,3.313,3.881,6.784,7.63,10.242,11.386a3.426,3.426,0,0,1,.95,2.563c-.042,4.609-.018,9.219-.32,14l-4.16-5.282a.921.921,0,0,0,.358-.84c0-3.088.025-6.178-.018-9.266a3.372,3.372,0,0,0-.976-2.286c-2.1-2.253-4.257-4.461-6.168-6.865C526.383,688.851,524.775,687.734,523.821,686.047Z" transform="translate(-419.633 -606.279)" fill="#b5aaaa"/>
      <path id="Trazado_640727" data-name="Trazado 640727" d="M415.587,765.42q2.071-5.42,4.141-10.84a5.093,5.093,0,0,1,5.566-3.566c1.06.065,2.126.041,3.189.058-2.329,4.068-3.609,8.578-5.371,12.883-.472,1.152-.982,1.676-2.282,1.567C419.092,765.377,417.336,765.444,415.587,765.42Z" transform="translate(-380.734 -629.813)" fill="#3f73c4"/>
      <path id="Trazado_640728" data-name="Trazado 640728" d="M600.521,717.54c0-4.574.041-9.148-.008-13.722a22.641,22.641,0,0,0-1.956-9.408,4.873,4.873,0,0,1-.229-.911,13.274,13.274,0,0,1,6.936,11.448c.212,3.814.028,7.648.071,11.473.01.877-.22,1.254-1.153,1.192C602.965,717.532,601.742,717.56,600.521,717.54Z" transform="translate(-446.411 -609.148)" fill="#7d7b7b"/>
      <path id="Trazado_640729" data-name="Trazado 640729" d="M389.738,807.521c-6.551.022-13.1.033-19.651.075-1,.006-1.42-.36-1.457-1.4-.1-2.776-.137-2.78,2.578-2.774q9.906.023,19.812.054C390.728,804.869,389.7,806.027,389.738,807.521Z" transform="translate(-363.845 -648.655)" fill="#8f8a8a"/>
      <path id="Trazado_640730" data-name="Trazado 640730" d="M554.814,710.49c-.02-3.453-.028-6.9-.069-10.357a2.109,2.109,0,0,1,.632-1.549c3.786-4.169,7.578-8.333,11.3-12.563a1.439,1.439,0,0,1,2.169-.271c-1.248.861-1.341,2.342-1.82,3.578-1.025,2.644-2.439,5.149-2.952,7.983-1.664.126-3.313.279-3.826,2.31-.317,0-.634,0-.951,0-2.2.048-2.908.972-2.423,3.153.149.665.318,1.328.442,2A5.058,5.058,0,0,1,554.814,710.49Z" transform="translate(-430.747 -606.229)" fill="#c9beba"/>
      <path id="Trazado_640731" data-name="Trazado 640731" d="M599.118,738.6c1.532.005,3.462-.551,4.481.173,1,.713.285,2.768.307,4.229a21.477,21.477,0,0,1-.286,5.71,11.787,11.787,0,0,1-8.044,8.7c-1.206.418-1.282-.078-1.005-1.02a11.4,11.4,0,0,0,4.2-6.867C599.581,745.923,598.977,742.242,599.118,738.6Z" transform="translate(-445.013 -625.285)" fill="#ebc5b7"/>
      <path id="Trazado_640732" data-name="Trazado 640732" d="M522.861,686.343c.954,1.688,2.562,2.8,3.754,4.3,1.912,2.4,4.073,4.612,6.168,6.865a3.372,3.372,0,0,1,.976,2.286c.044,3.088.018,6.177.019,9.266a.922.922,0,0,1-.358.84c-1.918-1.6-2.735-3.5-1.852-6a14.82,14.82,0,0,0,.592-2.962c.258-1.9-.56-2.943-2.462-3.152-1.161-.128-2.329-.221-3.5-.266a1.772,1.772,0,0,1-1.785-1.289c-1.031-2.84-2.111-5.663-3.134-8.506C520.668,686.02,522.358,686.834,522.861,686.343Z" transform="translate(-418.674 -606.576)" fill="#c9beba"/>
      <path id="Trazado_640733" data-name="Trazado 640733" d="M599.132,738.668c-.141,3.643.462,7.323-.352,10.925a11.4,11.4,0,0,1-4.2,6.867c-.033-5.62-.056-11.24-.108-16.86-.007-.746.222-1.048,1-1C596.693,738.666,597.913,738.649,599.132,738.668Z" transform="translate(-445.027 -625.354)" fill="#f8decf"/>
      <path id="Trazado_640734" data-name="Trazado 640734" d="M407.089,790.551c.406-2.568,1.816-4.782,2.563-7.232a8.061,8.061,0,0,0,.624-2.093c2.118-.033,4.238-.058,6.356-.1.7-.016.822.274.584.876-1.052,2.657-2.1,5.316-3.129,7.983a.973.973,0,0,1-1.111.643C411.013,790.581,409.051,790.572,407.089,790.551Z" transform="translate(-377.68 -640.639)" fill="#ebc5b7"/>
      <path id="Trazado_640735" data-name="Trazado 640735" d="M549.574,671.725c-1.8,2.173-1.8,2.173-3.721.195a17.774,17.774,0,0,0-2.022-2.042,4.943,4.943,0,0,1-1.908-5.326l.234-.235,7.344,0Q549.537,668.022,549.574,671.725Z" transform="translate(-426.093 -598.66)" fill="#f4cdbf"/>
      <path id="Trazado_640736" data-name="Trazado 640736" d="M425.381,716.819c-1.637,1.932-1.637,1.932-3.365.131a23.532,23.532,0,0,0-2.552-2.605c-1.523-1.156-1.667-2.655-1.562-4.352.044-.713.286-.881.946-.865,2.168.05,4.338.048,6.508.067Q425.368,713.007,425.381,716.819Z" transform="translate(-381.556 -614.764)" fill="#f4cdbf"/>
      <path id="Trazado_640737" data-name="Trazado 640737" d="M575.794,805.885q0-3.481,0-6.963c2.071-.023,4.143-.018,6.214-.083.821-.026.974.349.958,1.055-.034,1.541-.026,3.083-.006,4.624.013.992-.4,1.459-1.432,1.43C579.62,805.9,577.706,805.9,575.794,805.885Z" transform="translate(-438.313 -647.007)" fill="#b5aaaa"/>
      <path id="Trazado_640738" data-name="Trazado 640738" d="M554.853,718.48a5.058,5.058,0,0,0,2.5-5.716c-.124-.671-.293-1.333-.441-2-.485-2.18.224-3.1,2.423-3.153.317-.007.633,0,.951,0,.365,1.983.7,3.972,1.109,5.945a1.952,1.952,0,0,1-.316,1.791c-2,2.46-3.99,4.928-6.223,7.689Z" transform="translate(-430.786 -614.219)" fill="#b5aaaa"/>
      <path id="Trazado_640739" data-name="Trazado 640739" d="M569.3,697.518c.513-2.833,1.926-5.339,2.952-7.982.479-1.236.572-2.717,1.82-3.578,2.86.649,2.862.65,1.842,3.383a53.013,53.013,0,0,0-2.017,5.516,3.143,3.143,0,0,1-3.646,2.675C569.937,697.518,569.619,697.522,569.3,697.518Z" transform="translate(-435.979 -606.437)" fill="#b5aaaa"/>
      <path id="Trazado_640740" data-name="Trazado 640740" d="M465.625,664.562c0-.742-.014-1.486,0-2.227.056-2.554-.487-2.166,2.275-2.271,1.307-.049,1.825.418,1.775,1.741-.072,1.907-.049,3.819-.007,5.728.024,1.118-.352,1.722-1.56,1.622a10.381,10.381,0,0,0-1.591,0c-.7.049-.926-.255-.905-.931C465.652,667,465.625,665.783,465.625,664.562Z" transform="translate(-398.713 -597.13)" fill="#ebc5b7"/>
      <path id="Trazado_640741" data-name="Trazado 640741" d="M510.006,619.615c0,.849.012,1.7,0,2.546-.04,2.347.388,1.954-2.142,2.085-1.495.077-1.993-.49-1.91-1.933.091-1.586.021-3.181.021-4.773,0-2.387,0-2.316,2.369-2.411,1.275-.052,1.86.234,1.688,1.625A23.411,23.411,0,0,0,510.006,619.615Z" transform="translate(-413.208 -580.979)" fill="#ebc5b7"/>
      <path id="Trazado_640742" data-name="Trazado 640742" d="M385.977,664.653v2.234c0,2.184-1.04,2.9-3.192,2.226a.98.98,0,0,1-.719-1.088c0-2.234.007-4.468-.011-6.7-.007-.883.406-1.257,1.267-1.227a15.186,15.186,0,0,0,1.755-.007c.685-.054.942.187.913.894C385.941,662.205,385.977,663.43,385.977,664.653Z" transform="translate(-368.682 -597.138)" fill="#f4cdbf"/>
      <path id="Trazado_640743" data-name="Trazado 640743" d="M589.729,619.551v-2.074c0-2.437.646-2.921,3.063-2.375a.994.994,0,0,1,.849,1.14c0,2.234-.007,4.467.006,6.7.006.9-.446,1.234-1.3,1.194a9.66,9.66,0,0,0-1.594.008c-.874.106-1.085-.281-1.045-1.083C589.772,621.894,589.729,620.721,589.729,619.551Z" transform="translate(-443.314 -580.899)" fill="#f4cdbf"/>
      <path id="Trazado_640744" data-name="Trazado 640744" d="M413.088,721.45a3.842,3.842,0,0,0,.462.8c1.167,1.243,2.339,2.48,3.551,3.68.5.492.6.818.11,1.444-2.233,2.857-2.208,2.877-4.53.123-.309-.366-.623-.728-.937-1.091-1.843-2.134-1.713-3.01.673-4.523Z" transform="translate(-378.898 -619.193)" fill="#e4eef5"/>
      <path id="Trazado_640745" data-name="Trazado 640745" d="M439.831,724.437a5.1,5.1,0,0,1-.313.485q-2.066,2.419-4.137,4.833c-.148.173-.384.353-.525.2-.894-.975-1.78-1.962-2.6-3-.23-.291.2-.545.4-.76,1.249-1.3,2.539-2.564,3.744-3.9.541-.6.864-.512,1.344.028C438.411,723.059,439.138,723.738,439.831,724.437Z" transform="translate(-386.702 -619.346)" fill="#e4eef5"/>
      <path id="Trazado_640746" data-name="Trazado 640746" d="M563.921,679.628c-.155.194-.31.407-.486.6-1.243,1.385-2.522,2.74-3.724,4.161-.53.627-.8.541-1.327-.023-2.195-2.358-2.216-2.338-.028-4.612a15.713,15.713,0,0,1,1.34-1.366c.586-.475.974-1.707,1.718-1.351a10.356,10.356,0,0,1,2.412,2.279C563.886,679.38,563.885,679.5,563.921,679.628Z" transform="translate(-431.46 -603.209)" fill="#e4eef5"/>
      <path id="Trazado_640747" data-name="Trazado 640747" d="M538.867,685.163c-1.494-1.655-2.97-3.319-4.482-4.949-.415-.448-.377-.7.031-1.155,2.114-2.371,2.1-2.388,4.259-.158l.334.343C541.8,682.119,541.8,682.119,538.867,685.163Z" transform="translate(-423.325 -603.309)" fill="#e4eef5"/>
      <path id="Trazado_640748" data-name="Trazado 640748" d="M401.6,807.523c-.034-1.494.99-2.652,1.281-4.043q3.017-.027,6.035-.051c.262,0,.524.03.979.058-.463,1.2-.905,2.311-1.319,3.435a.981.981,0,0,1-1.1.672C405.515,807.554,403.556,807.545,401.6,807.523Z" transform="translate(-375.706 -648.657)" fill="#7d7b7b"/>
      <path id="Trazado_640749" data-name="Trazado 640749" d="M499.925,738.661c1.264-.022,2.532,0,3.792-.083.881-.061,1.015.318,1.04,1.1.157,4.822.176,4.822-4.681,4.526a.937.937,0,0,1-.154-.037Q499.923,741.412,499.925,738.661Z" transform="translate(-411.044 -625.347)" fill="#ebc5b7"/>
      <path id="Trazado_640750" data-name="Trazado 640750" d="M497.322,738.669q0,2.751,0,5.5c-5.893.016-4.393,1.115-4.626-4.574-.031-.748.227-1.041.995-1C494.9,738.663,496.111,738.65,497.322,738.669Z" transform="translate(-408.442 -625.355)" fill="#f8decf"/>
      <path id="Trazado_640751" data-name="Trazado 640751" d="M429.578,716.775q-.012-3.813-.026-7.625a9.444,9.444,0,0,1,1.577-.049c.843.109,1.862-.466,2.5.346.528.671-.108,3.384-.812,4.095C431.745,714.626,430.658,715.7,429.578,716.775Z" transform="translate(-385.753 -614.72)" fill="#ebaf9f"/>
      <path id="Trazado_640752" data-name="Trazado 640752" d="M553.9,671.627q-.036-3.7-.073-7.406a5.439,5.439,0,0,1,1.27-.044c.875.172,2.3-.629,2.534.418.3,1.316.654,2.936-.779,4.129C555.793,669.6,554.877,670.653,553.9,671.627Z" transform="translate(-430.417 -598.562)" fill="#ebaf9f"/>
      <path id="Trazado_640753" data-name="Trazado 640753" d="M552.138,693.649a12.162,12.162,0,0,1-2.7,2.8,10.385,10.385,0,0,1-2.521-2.966,13.489,13.489,0,0,1,2.674-2.865A14.9,14.9,0,0,1,552.138,693.649Z" transform="translate(-427.935 -608.112)" fill="#d25b68"/>
      <path id="Trazado_640754" data-name="Trazado 640754" d="M476.057,744.155c-.176-1.964-1.214-3.683-1.585-5.591a12.248,12.248,0,0,1,4.8,4.665c.443.676.409,1.062-.53,1.015C477.845,744.2,476.951,744.184,476.057,744.155Z" transform="translate(-401.897 -625.344)" fill="#3f73c4"/>
      <path id="Trazado_640755" data-name="Trazado 640755" d="M511.215,690.353c0,3.321.016,6.643.005,9.965,0,.449.181.961-.273,1.327q-.021-5.567-.042-11.134Z" transform="translate(-414.991 -608.017)" fill="#b5aaaa"/>
      <path id="Trazado_640756" data-name="Trazado 640756" d="M466.547,747.348h.257l-.129.053Z" transform="translate(-399.049 -628.501)" fill="#3f73c4"/>
      <path id="Trazado_640757" data-name="Trazado 640757" d="M368.747,795.452l.266.26C368.786,795.767,368.7,795.674,368.747,795.452Z" transform="translate(-363.895 -645.79)" fill="#ebc5b7"/>
      <path id="Trazado_640758" data-name="Trazado 640758" d="M542.219,664.308l-.234.235C541.928,664.33,542.008,664.254,542.219,664.308Z" transform="translate(-426.155 -598.65)" fill="#ebaf9f"/>
      <path id="Trazado_640759" data-name="Trazado 640759" d="M423.553,689.531a7.4,7.4,0,0,1-5.1-2.2,2.344,2.344,0,0,1-.172-3.422,2.254,2.254,0,0,1,3.286-.164,2.82,2.82,0,0,0,4.12.053,2.261,2.261,0,0,1,3.281.277,2.455,2.455,0,0,1-.3,3.433A7.4,7.4,0,0,1,423.553,689.531Z" transform="translate(-381.463 -605.415)" fill="#060505"/>
      <path id="Trazado_640760" data-name="Trazado 640760" d="M427.938,667.832c0,.955.037,1.912-.009,2.864a2.319,2.319,0,0,1-2.254,2.4,2.2,2.2,0,0,1-2.437-2.037,44.525,44.525,0,0,1,.008-6.51,2.1,2.1,0,0,1,2.453-1.97,2.161,2.161,0,0,1,2.22,2.228c.06,1,.012,2.014.012,3.021Z" transform="translate(-383.442 -598.034)" fill="#060505"/>
      <path id="Trazado_640761" data-name="Trazado 640761" d="M471.261,768.938A14.039,14.039,0,0,1,479.3,771.1c4.631,3.044,4.65,8.307.058,11.376-4.474,2.992-11.795,2.947-16.192-.1-4.36-3.02-4.4-8.074-.055-11.1A13.774,13.774,0,0,1,471.261,768.938Zm.423,10.942a8.852,8.852,0,0,0,5.361-1.635c1.236-.943,1.207-1.878.015-2.867-2.623-2.174-8.806-2.185-11.444-.019-1.2.989-1.235,1.924,0,2.863A9.515,9.515,0,0,0,471.684,779.88Z" transform="translate(-396.651 -636.26)" fill="#030303"/>
      <path id="Trazado_640762" data-name="Trazado 640762" d="M547.622,644.483a7.362,7.362,0,0,1-5.243-2.338,2.361,2.361,0,0,1-.029-3.306,2.2,2.2,0,0,1,3.167-.212,2.889,2.889,0,0,0,4.247.087,2.235,2.235,0,0,1,3.271.343,2.335,2.335,0,0,1-.237,3.3A7.4,7.4,0,0,1,547.622,644.483Z" transform="translate(-426.055 -589.218)" fill="#060505"/>
      <path id="Trazado_640763" data-name="Trazado 640763" d="M552.045,622.939c0,.954.059,1.914-.014,2.863a2.458,2.458,0,0,1-2.476,2.4,2.387,2.387,0,0,1-2.288-2.548c-.04-1.856-.042-3.714,0-5.569a2.249,2.249,0,0,1,2.2-2.428,2.332,2.332,0,0,1,2.555,2.262c.088,1,.017,2.014.017,3.022Z" transform="translate(-428.049 -581.887)" fill="#060505"/>
      <path id="Trazado_640764" data-name="Trazado 640764" d="M474.392,782.575a9.518,9.518,0,0,1-6.066-1.659c-1.236-.938-1.2-1.874,0-2.863,2.638-2.166,8.822-2.155,11.444.019,1.191.988,1.22,1.924-.015,2.867A8.853,8.853,0,0,1,474.392,782.575Z" transform="translate(-399.359 -638.955)" fill="#e4eef5"/>
    </g>
  </g>
  <rect id="Rectángulo_308324" data-name="Rectángulo 308324" width="204" height="205" transform="translate(0 0)" fill="none"/>
</svg>
