<svg id="Grupo_952055" data-name="Grupo 952055" xmlns="http://www.w3.org/2000/svg" width="86.425" height="86.425" viewBox="0 0 86.425 86.425">
  <rect id="Rectángulo_306506" data-name="Rectángulo 306506" width="86.425" height="86.425" transform="translate(0)" fill="none"/>
  <g id="Grupo_952059" data-name="Grupo 952059" transform="translate(4.535 4.55)">
    <path id="Trazado_628630" data-name="Trazado 628630" d="M1864.863,230.945c1.081-.379,2.078-.726,3.072-1.078q9.589-3.389,16.614,3.96a1.266,1.266,0,0,0,.172.117,1.581,1.581,0,0,0,.108-.942,12.523,12.523,0,1,1,7.985,11.151c-.331-.128-.6-.313-.664.283a30.306,30.306,0,0,1-1.673,6.856,1.406,1.406,0,0,0,.077,1.163,6.189,6.189,0,0,1-5.322,8.738c-.5.024-.686.142-.809.647a13.536,13.536,0,0,1-6.161,8.54.705.705,0,0,0-.385.932,9.175,9.175,0,0,1,.353,1.751.985.985,0,0,0,.976,1.05c.741.111,1.465.33,2.2.5.939.216.939.214.925-.726a13.717,13.717,0,1,1,16.645,13.166c-.592.131-.632.286-.431.794a22.9,22.9,0,0,1,1.256,9.11c-.009.356-.126.458-.451.422a4.092,4.092,0,0,0-.467,0q-27.792,0-55.583.02c-.771,0-.89-.206-.909-.928a21.535,21.535,0,0,1,2.181-10.782,19.917,19.917,0,0,1,14.128-10.592c1.545-.337,3.075-.738,4.62-1.071a.628.628,0,0,0,.586-.6c0-.025.007-.051.011-.077a7.228,7.228,0,0,0,.416-2.431c-.143-.8-1.206-1-1.825-1.517a13.874,13.874,0,0,1-4.737-7.582c-.111-.47-.273-.6-.745-.624a6.169,6.169,0,0,1-5.321-8.673,1.416,1.416,0,0,0,.069-1.036c-.307-1.071-.649-2.136-.865-3.226-.133-.668-.442-.773-1.049-.77-4.833.025-9.667.015-14.5.013-1.973,0-2.925-.943-2.925-2.9q0-10.83,0-21.662a2.552,2.552,0,0,1,2.876-2.868q13.33,0,26.661,0c1.954,0,2.893.952,2.894,2.931C1864.864,225.618,1864.863,228.233,1864.863,230.945Zm17.462,22.975c0-2.235.008-4.053,0-5.871a4.137,4.137,0,0,0-4.331-4.289,16.537,16.537,0,0,0-9.165,3.041,28.4,28.4,0,0,1-8.519,4.068c-.5.124-.433.412-.433.737,0,2.364,0,4.727,0,7.089a11.212,11.212,0,0,0,22.318,1.576C1882.5,258.022,1882.231,255.759,1882.325,253.92Zm7.472-10.792c.048-2.464-1.229-4.31-3.373-4.522a3.372,3.372,0,0,1-2.654-1.753,11.192,11.192,0,0,0-.756-.99c-3.2-3.711-7.264-5.387-12.041-4.234a101.54,101.54,0,0,0-14.373,5.051,7.085,7.085,0,0,0-4.026,8.2c.327,1.466.783,2.9,1.146,4.362.118.471.282.516.683.286a5.547,5.547,0,0,1,3.056-.769,8.2,8.2,0,0,0,2.6-.4,29.1,29.1,0,0,0,7.709-3.831,19.2,19.2,0,0,1,8.68-3.185,7.884,7.884,0,0,1,5.323.981,6.607,6.607,0,0,1,3.055,5.722c0,.285-.193.7.4.722a5.75,5.75,0,0,1,2.735.808c.346.2.449.06.541-.236A27.553,27.553,0,0,0,1889.8,243.129Zm-32.418-9.49c1.591-.569,3.091-1.129,4.609-1.635.425-.142.38-.411.38-.716,0-2.675-.022-5.349.015-8.023.009-.6-.162-.711-.728-.709q-13.014.029-26.028,0c-.589,0-.716.147-.714.722q.033,10.516,0,21.032c0,.585.139.721.719.718,4.572-.027,9.144-.015,13.715-.015h.711a6.89,6.89,0,0,1-.149-1.85c.1-.6-.166-.657-.672-.653-2.909.022-5.818,0-8.729.022-.469,0-.614-.1-.606-.591.031-2.129.023-4.258,0-6.388,0-.4.094-.532.513-.524,1.324.027,2.649-.005,3.974.019.4.008.529-.1.521-.516-.025-1.324.007-2.648-.018-3.972-.009-.411.114-.525.52-.517,1.324.025,2.649-.008,3.974.019.417.009.521-.123.514-.523-.024-1.3.017-2.6-.022-3.894-.015-.5.142-.6.608-.591,2.078.026,4.157.034,6.235,0,.562-.01.675.156.669.689C1857.363,228.33,1857.379,230.926,1857.379,233.638Zm38.238,48.8a18.8,18.8,0,0,1,1.153,1.753.95.95,0,0,0,1.178.554,11.414,11.414,0,0,0,9.313-10.464,11.231,11.231,0,1,0-22.424.124,1.242,1.242,0,0,0,1.011,1.351,19.016,19.016,0,0,1,8.385,5.165,6.042,6.042,0,0,1,.406.525,1.32,1.32,0,0,0,.163-.632,1.363,1.363,0,0,0-.814-1.589,3.347,3.347,0,0,1-1.682-3.058c-.027-1.236-.025-1.236,1.188-1.236,1.234,0,1.234,0,1.308,1.2a1.7,1.7,0,0,0,2.36,1.28.346.346,0,0,0,.122-.175,1.645,1.645,0,0,0-1.424-2.306,3.746,3.746,0,0,1-3.554-3.811q-.011-.9,0-1.792c.007-.593-.2-1.378.1-1.731.354-.419,1.169-.143,1.778-.125.532.015.631-.169.63-.657-.006-1.923.011-1.91,1.964-1.865.4.009.557.091.528.515-.037.543.017,1.092-.018,1.635a.755.755,0,0,0,.5.826,3.571,3.571,0,0,1,2,3.12c.086,1.394.068,1.4-1.334,1.4-1.109,0-1.109,0-1.153-1.116a1.679,1.679,0,0,0-2.358-1.361.342.342,0,0,0-.126.172,1.652,1.652,0,0,0,1.5,2.313,3.756,3.756,0,0,1,3.475,3.65c.02.727,0,1.454,0,2.181,0,1.642,0,1.684-1.639,1.624-.729-.027-.9.2-.872.89C1897.329,282.366,1897.292,282.366,1895.617,282.441Zm-28.247,12.44a1.737,1.737,0,0,0-.114-.31q-5.406-7.857-10.805-15.719c-.295-.431-.556-.32-.911-.176a17.5,17.5,0,0,0-10.645,15.492c-.008.592.148.732.727.727,3.325-.028,6.65-.013,9.975-.013Zm7.408-.079a2.01,2.01,0,0,0,.322.073q10.832,0,21.662.012c.392,0,.579-.088.532-.517-.064-.566-.063-1.14-.143-1.7a17.162,17.162,0,0,0-10.521-14,.631.631,0,0,0-.944.282c-1.141,1.7-2.318,3.382-3.481,5.071C1879.748,287.582,1877.293,291.151,1874.778,294.8Zm22.571-58.521c.857,0,1.714-.013,2.572.007.327.008.525-.054.625-.406a11.881,11.881,0,0,0,0-6.678.479.479,0,0,0-.542-.412q-2.689.024-5.378,0a.519.519,0,0,0-.6.446,11.884,11.884,0,0,0,0,6.6c.107.383.318.456.673.448C1895.582,236.268,1896.465,236.282,1897.349,236.282Zm-21.46,37.792c-.108-.559-.231-1.115-.321-1.676-.079-.49-.208-.677-.795-.5a13.022,13.022,0,0,1-6.07.332c-.647-.111-1.442-.682-1.876-.294-.4.36-.3,1.26-.483,1.9-.113.392.033.56.336.738q2.006,1.181,4,2.391a.647.647,0,0,0,.777.043c1.366-.842,2.747-1.657,4.124-2.482C1875.754,274.426,1875.966,274.347,1875.889,274.074Zm-2.322,4.574c2.208,1.26,4.3,2.445,6.38,3.65.31.18.4.013.541-.188.91-1.325,1.81-2.658,2.743-3.966.32-.449.145-.515-.286-.612-1.643-.368-3.277-.773-4.914-1.168a1.085,1.085,0,0,0-.886.127C1876,277.2,1874.839,277.884,1873.567,278.648Zm-4.945-.006c-1.274-.764-2.452-1.46-3.616-2.177a1,1,0,0,0-.815-.1c-1.663.4-3.322.813-4.99,1.182-.452.1-.5.208-.241.579.926,1.314,1.842,2.634,2.733,3.972.214.322.378.323.678.144.89-.53,1.8-1.032,2.7-1.548C1866.225,280.024,1867.384,279.354,1868.622,278.642Zm2.484,8.76a3.512,3.512,0,0,1-.7-.008c-.725-.149-.993.212-1.151.86-.231.954-.521,1.9-.834,2.828a.973.973,0,0,0,.147,1c.567.772,1.107,1.567,1.631,2.369a.9.9,0,0,0,.815.45,1.053,1.053,0,0,0,1.068-.566c.573-.924,1.5-1.743,1.722-2.731.184-.819-.425-1.82-.694-2.737C1872.678,287.4,1872.673,287.4,1871.106,287.4Zm31.919-51.121c1.118,0,2.175-.005,3.231,0,.323,0,.355-.225.434-.447a9.643,9.643,0,0,0,0-6.621c-.1-.285-.214-.428-.538-.421-.907.018-1.816.016-2.724,0-.333-.005-.389.112-.312.414A13.949,13.949,0,0,1,1903.025,236.28Zm-13.207-7.442V228.8a6.244,6.244,0,0,1-.932-.008c-.66-.1-.946.177-1.128.8a10.117,10.117,0,0,0-.053,5.666c.2.733.48,1.174,1.36,1.038a9.73,9.73,0,0,1,1.94-.012c.472.022.545-.1.431-.566a13.7,13.7,0,0,1-.219-5.322c.079-.52.5-1.215.176-1.506C1891.094,228.625,1890.36,228.838,1889.818,228.838Zm-5,26.143c0,1.089.026,2.18-.011,3.268-.016.468.181.5.548.456a3.756,3.756,0,0,0,.007-7.447c-.475-.06-.562.1-.552.533C1884.838,252.853,1884.819,253.918,1884.819,254.981Zm-27.441.062c0-1.09-.021-2.181.01-3.27.013-.462-.125-.572-.572-.5a3.755,3.755,0,0,0,.037,7.427c.4.055.549-.022.535-.463C1857.357,257.172,1857.379,256.108,1857.379,255.043Zm13.456,29.864c2.017,0,2.017,0,2.845-1.541.733-1.365.649-1.25-.592-2.164a2.947,2.947,0,0,0-3.985.008c-1.233.9-1.25.763-.6,2.176C1869.039,284.535,1869.665,285.318,1870.834,284.907Zm-18.444-48.153a9.912,9.912,0,0,1,2.008-1.7.9.9,0,0,0,.492-.939c-.02-1.557-.008-3.113-.008-4.669,0-2,0-1.988-2.02-1.9-.37.017-.483.112-.481.485C1852.4,230.881,1852.39,233.733,1852.39,236.754Zm-2.5-.475v-1.864c0-1.934,0-1.918-1.949-1.885-.447.008-.56.14-.553.569.022,1.683.01,3.366.01,5.049,0,1.991,0,1.979,2.026,1.883.377-.018.48-.128.474-.491C1849.88,238.455,1849.893,237.367,1849.893,236.279ZM1866.455,289c.375-1.464,1.089-2.611.147-4.036-1.169-1.775-1.044-1.848-2.849-.667-.272.178-.351.293-.142.589C1864.534,286.191,1865.434,287.516,1866.455,289Zm9.272-.109a1.639,1.639,0,0,0,.214-.182q.884-1.277,1.763-2.556c1.21-1.759,1.2-1.748-.749-2.706-.319-.156-.44-.11-.59.182-.415.8-.849,1.6-1.286,2.39a.728.728,0,0,0-.052.6C1875.249,287.346,1875.476,288.077,1875.727,288.888Zm19.531-50.081a17.417,17.417,0,0,0,1.764,2.751c.185.241.323.282.526.012a17.162,17.162,0,0,0,1.767-2.763Zm.03-12.557h4.027a18.254,18.254,0,0,0-1.7-2.66c-.22-.3-.383-.361-.628-.024A17.563,17.563,0,0,0,1895.287,226.249Zm5.218,15.629a9.161,9.161,0,0,0,4.563-3.1c-.932,0-1.677.023-2.417-.009a.68.68,0,0,0-.75.487C1901.507,240.147,1901.009,240.989,1900.506,241.878Zm-.171-18.806a22.148,22.148,0,0,1,1.646,2.91c.074.163.145.328.376.326.857,0,1.714,0,2.736,0A10.2,10.2,0,0,0,1900.335,223.073Zm-10.816,3.236c.966,0,1.738,0,2.508,0,.172,0,.371.061.483-.147.52-.975,1.039-1.951,1.645-3.087A10.331,10.331,0,0,0,1889.518,226.309Zm-45.932,13.712c1.319,0,1.319,0,1.319-1.329,0-1.163,0-1.163-1.176-1.163-1.318,0-1.318,0-1.318,1.33C1842.411,240.021,1842.411,240.021,1843.586,240.021Zm47.613-1.175c.608,1.348.946,2.935,2.906,3.009a16.825,16.825,0,0,1-1.164-2.113A1.24,1.24,0,0,0,1891.2,238.846Z" transform="translate(-1832.43 -220.072)" fill="#020202"/>
    <path id="Trazado_628631" data-name="Trazado 628631" d="M1832.433,285.469a5.638,5.638,0,0,1,8.122-5.21,1.176,1.176,0,0,0,1.2.016,5.639,5.639,0,0,1,7.181,1.824,5.429,5.429,0,0,1-1.024,7.291c-2.079,1.8-4.222,3.523-6.323,5.3-.314.266-.505.291-.835.011-2.1-1.776-4.226-3.519-6.33-5.289A5.318,5.318,0,0,1,1832.433,285.469Zm5.611-3.284a3.037,3.037,0,0,0-2.919,1.938,2.9,2.9,0,0,0,.79,3.267c1.611,1.389,3.267,2.726,4.89,4.1a.468.468,0,0,0,.726,0c1.625-1.373,3.288-2.7,4.885-4.106a2.757,2.757,0,0,0,.864-2.969,2.867,2.867,0,0,0-2.312-2.163,3.154,3.154,0,0,0-3.052.945c-.765.785-.789.778-1.519,0A3.042,3.042,0,0,0,1838.044,282.185Z" transform="translate(-1832.431 -233.559)" fill="#040303"/>
    <path id="Trazado_628632" data-name="Trazado 628632" d="M1890.351,260.848c-.094,1.838.171,4.1-.134,6.351a11.219,11.219,0,0,1-22.318-1.576c0-2.363,0-4.726,0-7.089,0-.324-.069-.613.433-.737a28.405,28.405,0,0,0,8.519-4.068,16.537,16.537,0,0,1,9.165-3.041,4.137,4.137,0,0,1,4.331,4.289C1890.359,256.8,1890.351,258.613,1890.351,260.848Zm-11.285,10.936A6.983,6.983,0,0,0,1885,268.7c.785-1.127.77-1.137-.425-1.731a2.84,2.84,0,0,1-.415-.211c-.5-.361-.766-.281-1.1.292a4.527,4.527,0,0,1-7.306.7c-.359-.4-.4-1.224-1.014-1.2-.521.022-1.013.483-1.539.7-.45.187-.482.391-.243.806A6.966,6.966,0,0,0,1879.065,271.784Zm-6.168-8.626a1.246,1.246,0,1,0-1.255-1.217A1.257,1.257,0,0,0,1872.9,263.158Zm13.709-1.229a1.246,1.246,0,1,0-1.244,1.229A1.253,1.253,0,0,0,1886.607,261.929Z" transform="translate(-1840.456 -227)" fill="#e9cfb5"/>
    <path id="Trazado_628633" data-name="Trazado 628633" d="M1895.635,246.4a27.54,27.54,0,0,1-1.292,6.205c-.091.3-.194.438-.541.236a5.749,5.749,0,0,0-2.735-.808c-.6-.019-.4-.436-.4-.722a6.607,6.607,0,0,0-3.055-5.722,7.884,7.884,0,0,0-5.323-.981,19.2,19.2,0,0,0-8.679,3.185,29.1,29.1,0,0,1-7.709,3.831,8.2,8.2,0,0,1-2.6.4,5.546,5.546,0,0,0-3.056.769c-.4.23-.566.185-.683-.286-.364-1.458-.819-2.9-1.147-4.362a7.086,7.086,0,0,1,4.026-8.2,101.561,101.561,0,0,1,14.373-5.051c4.777-1.153,8.836.523,12.041,4.234a11.2,11.2,0,0,1,.757.99,3.372,3.372,0,0,0,2.654,1.753C1894.407,242.093,1895.683,243.939,1895.635,246.4Z" transform="translate(-1838.268 -223.347)" fill="#a97a4d"/>
    <path id="Trazado_628634" data-name="Trazado 628634" d="M1858.1,234.364c0-2.713-.016-5.308.013-7.9.006-.532-.108-.7-.669-.689-2.078.037-4.156.029-6.235,0-.467-.005-.623.093-.608.591.04,1.3,0,2.6.022,3.894.007.4-.1.532-.514.523-1.325-.026-2.65.006-3.974-.019-.406-.008-.528.106-.52.517.026,1.324-.007,2.648.018,3.972.009.412-.116.524-.521.516-1.325-.024-2.65.009-3.974-.019-.419-.009-.516.126-.513.524.019,2.129.026,4.258,0,6.388-.007.494.138.6.606.591,2.91-.022,5.819,0,8.729-.022.506,0,.771.05.672.653a6.9,6.9,0,0,0,.149,1.85h-.71c-4.572,0-9.144-.012-13.715.015-.58,0-.722-.133-.72-.718q.034-10.516,0-21.032c0-.575.125-.723.714-.722q13.015.033,26.028,0c.566,0,.736.111.728.709-.038,2.674-.016,5.349-.015,8.023,0,.306.045.574-.38.716C1861.2,233.235,1859.7,233.795,1858.1,234.364Z" transform="translate(-1833.156 -220.798)" fill="#e5e8eb"/>
    <path id="Trazado_628635" data-name="Trazado 628635" d="M1910.937,294.844c1.675-.075,1.711-.076,1.659-1.65-.023-.692.143-.917.872-.89,1.638.06,1.639.018,1.639-1.624,0-.727.015-1.455,0-2.181a3.756,3.756,0,0,0-3.475-3.65,1.652,1.652,0,0,1-1.5-2.313.344.344,0,0,1,.126-.172,1.679,1.679,0,0,1,2.359,1.361c.043,1.116.043,1.116,1.153,1.116,1.4,0,1.42,0,1.334-1.4a3.57,3.57,0,0,0-2-3.12.755.755,0,0,1-.5-.826c.035-.543-.019-1.092.018-1.635.029-.425-.132-.506-.528-.515-1.952-.046-1.969-.059-1.964,1.865,0,.487-.1.672-.63.657-.609-.018-1.424-.294-1.778.125-.3.353-.09,1.137-.1,1.731s-.007,1.195,0,1.792a3.747,3.747,0,0,0,3.554,3.811,1.645,1.645,0,0,1,1.424,2.306.348.348,0,0,1-.122.175,1.7,1.7,0,0,1-2.36-1.28c-.073-1.2-.073-1.2-1.308-1.2-1.212,0-1.215,0-1.188,1.236a3.348,3.348,0,0,0,1.682,3.058,1.364,1.364,0,0,1,.815,1.589,1.323,1.323,0,0,1-.163.632,6,6,0,0,0-.406-.525,19.017,19.017,0,0,0-8.385-5.165,1.242,1.242,0,0,1-1.011-1.351,11.231,11.231,0,1,1,22.424-.124,11.413,11.413,0,0,1-9.312,10.464.95.95,0,0,1-1.178-.554A18.838,18.838,0,0,0,1910.937,294.844Z" transform="translate(-1847.75 -232.474)" fill="#f3d57e"/>
    <path id="Trazado_628636" data-name="Trazado 628636" d="M1871.016,311.985h-11.773c-3.325,0-6.65-.015-9.975.013-.578.005-.735-.135-.727-.727a17.5,17.5,0,0,1,10.645-15.492c.355-.143.616-.255.911.176q5.384,7.872,10.805,15.719A1.751,1.751,0,0,1,1871.016,311.985Z" transform="translate(-1836.076 -237.175)" fill="#848e99"/>
    <path id="Trazado_628637" data-name="Trazado 628637" d="M1887.164,311.908l7.427-10.789c1.163-1.689,2.34-3.367,3.481-5.071a.631.631,0,0,1,.945-.282,17.162,17.162,0,0,1,10.521,14c.08.564.079,1.138.142,1.7.048.429-.139.518-.531.517q-10.832-.015-21.662-.012A2.01,2.01,0,0,1,1887.164,311.908Z" transform="translate(-1844.816 -237.177)" fill="#848e99"/>
    <path id="Trazado_628638" data-name="Trazado 628638" d="M1915.228,238.832c-.884,0-1.767-.014-2.65.007-.354.008-.565-.065-.672-.448a11.884,11.884,0,0,1,0-6.6.519.519,0,0,1,.595-.446q2.689.028,5.378,0a.479.479,0,0,1,.542.412,11.883,11.883,0,0,1,0,6.678c-.1.352-.3.414-.625.406C1916.943,238.819,1916.085,238.832,1915.228,238.832Z" transform="translate(-1850.31 -222.623)" fill="#82d1ed"/>
    <path id="Trazado_628639" data-name="Trazado 628639" d="M1885.8,289.2c.077.273-.135.352-.311.457-1.376.825-2.757,1.64-4.124,2.482a.647.647,0,0,1-.777-.043q-1.99-1.209-4-2.391c-.3-.178-.449-.346-.336-.738.185-.644.08-1.544.483-1.9.434-.388,1.229.183,1.876.294a13.022,13.022,0,0,0,6.07-.332c.587-.179.716.009.795.5C1885.566,288.089,1885.689,288.646,1885.8,289.2Z" transform="translate(-1842.338 -235.203)" fill="#e8ceb5"/>
    <path id="Trazado_628640" data-name="Trazado 628640" d="M1885.6,295.1c1.272-.764,2.432-1.448,3.578-2.156a1.085,1.085,0,0,1,.886-.127c1.636.395,3.271.8,4.914,1.168.432.1.607.162.286.612-.933,1.308-1.833,2.641-2.743,3.966-.138.2-.23.368-.541.188C1889.9,297.545,1887.807,296.361,1885.6,295.1Z" transform="translate(-1844.462 -236.525)" fill="#e2e5e8"/>
    <path id="Trazado_628641" data-name="Trazado 628641" d="M1876.334,295.093c-1.238.713-2.4,1.383-3.557,2.049-.9.516-1.8,1.018-2.695,1.548-.3.179-.464.178-.678-.144-.891-1.338-1.807-2.658-2.733-3.972-.261-.371-.21-.48.241-.579,1.669-.369,3.328-.785,4.99-1.182a1,1,0,0,1,.816.1C1873.883,293.633,1875.06,294.328,1876.334,295.093Z" transform="translate(-1840.143 -236.523)" fill="#e2e5e8"/>
    <path id="Trazado_628642" data-name="Trazado 628642" d="M1881.611,307.082c1.567,0,1.572,0,2,1.465.269.917.878,1.917.694,2.737-.223.988-1.149,1.807-1.722,2.731a1.053,1.053,0,0,1-1.068.566.9.9,0,0,1-.815-.45c-.525-.8-1.064-1.6-1.631-2.369a.974.974,0,0,1-.147-1c.313-.932.6-1.874.834-2.828.158-.648.426-1.01,1.151-.86A3.512,3.512,0,0,0,1881.611,307.082Z" transform="translate(-1842.935 -239.753)" fill="#f3d57e"/>
    <path id="Trazado_628643" data-name="Trazado 628643" d="M1923.672,238.832a13.95,13.95,0,0,0,.088-7.07c-.077-.3-.021-.419.312-.414.908.015,1.817.016,2.724,0,.323-.007.437.136.538.421a9.642,9.642,0,0,1,0,6.621c-.079.222-.112.45-.434.447C1925.847,238.826,1924.79,238.832,1923.672,238.832Z" transform="translate(-1853.078 -222.623)" fill="#82d1ed"/>
    <path id="Trazado_628644" data-name="Trazado 628644" d="M1905.873,231.379c.542,0,1.277-.213,1.575.057.322.291-.1.986-.176,1.506a13.7,13.7,0,0,0,.219,5.322c.114.468.041.589-.431.566a9.737,9.737,0,0,0-1.941.012c-.88.136-1.156-.3-1.36-1.038a10.119,10.119,0,0,1,.052-5.666c.182-.627.468-.908,1.128-.8a6.244,6.244,0,0,0,.932.008Z" transform="translate(-1848.486 -222.613)" fill="#82d1ed"/>
    <path id="Trazado_628645" data-name="Trazado 628645" d="M1900.138,264.1c0-1.063.019-2.128-.009-3.19-.011-.429.077-.593.552-.533a3.756,3.756,0,0,1-.007,7.447c-.367.043-.564.012-.548-.456C1900.164,266.279,1900.138,265.188,1900.138,264.1Z" transform="translate(-1847.749 -229.19)" fill="#e8ceb5"/>
    <path id="Trazado_628646" data-name="Trazado 628646" d="M1863.581,264.162c0,1.065-.022,2.129.01,3.193.013.441-.14.518-.535.463a3.755,3.755,0,0,1-.037-7.427c.447-.071.585.039.572.5C1863.56,261.981,1863.581,263.072,1863.581,264.162Z" transform="translate(-1838.633 -229.192)" fill="#e8ceb5"/>
    <path id="Trazado_628647" data-name="Trazado 628647" d="M1881.26,302.56c-1.169.411-1.8-.372-2.328-1.521-.655-1.414-.637-1.273.6-2.176a2.947,2.947,0,0,1,3.985-.008c1.241.914,1.325.8.592,2.164C1883.277,302.56,1883.277,302.56,1881.26,302.56Z" transform="translate(-1842.856 -237.726)" fill="#f3d57e"/>
    <path id="Trazado_628648" data-name="Trazado 628648" d="M1858.226,238.931c0-3.021.006-5.873-.008-8.724,0-.373.111-.468.481-.485,2.02-.091,2.019-.1,2.019,1.9,0,1.557-.012,3.113.008,4.669a.9.9,0,0,1-.492.939A9.907,9.907,0,0,0,1858.226,238.931Z" transform="translate(-1838.266 -222.249)" fill="#bbda89"/>
    <path id="Trazado_628649" data-name="Trazado 628649" d="M1854.269,239.92c0,1.088-.013,2.176.007,3.263.007.363-.1.473-.474.491-2.027.1-2.026.108-2.026-1.883,0-1.683.013-3.366-.01-5.049-.006-.429.107-.562.553-.569,1.949-.033,1.949-.049,1.949,1.885Z" transform="translate(-1836.806 -223.714)" fill="#bbda89"/>
    <path id="Trazado_628650" data-name="Trazado 628650" d="M1875.539,307.548c-1.02-1.481-1.921-2.806-2.844-4.115-.209-.3-.13-.411.142-.589,1.8-1.181,1.679-1.108,2.849.667C1876.628,304.938,1875.914,306.085,1875.539,307.548Z" transform="translate(-1841.515 -238.624)" fill="#c7cbd2"/>
    <path id="Trazado_628651" data-name="Trazado 628651" d="M1888.173,307.4c-.25-.811-.477-1.542-.7-2.275a.728.728,0,0,1,.053-.6c.437-.792.872-1.586,1.286-2.39.15-.292.271-.338.59-.182,1.953.959,1.959.948.749,2.706q-.88,1.279-1.763,2.556A1.63,1.63,0,0,1,1888.173,307.4Z" transform="translate(-1844.877 -238.581)" fill="#c7cbd2"/>
    <path id="Trazado_628652" data-name="Trazado 628652" d="M1913.633,244.286h4.057a17.163,17.163,0,0,1-1.767,2.763c-.2.269-.341.229-.526-.012A17.417,17.417,0,0,1,1913.633,244.286Z" transform="translate(-1850.806 -225.552)" fill="#82d1ed"/>
    <path id="Trazado_628653" data-name="Trazado 628653" d="M1913.672,227.2a17.564,17.564,0,0,1,1.7-2.684c.246-.337.408-.275.628.024a18.254,18.254,0,0,1,1.7,2.66Z" transform="translate(-1850.814 -221.027)" fill="#82d1ed"/>
    <path id="Trazado_628654" data-name="Trazado 628654" d="M1920.416,247.345c.5-.889,1-1.732,1.4-2.627a.68.68,0,0,1,.75-.487c.741.033,1.485.009,2.417.009A9.162,9.162,0,0,1,1920.416,247.345Z" transform="translate(-1852.341 -225.539)" fill="#7fcce7"/>
    <path id="Trazado_628655" data-name="Trazado 628655" d="M1920.195,223.95a10.2,10.2,0,0,1,4.758,3.235c-1.022,0-1.879,0-2.736,0-.231,0-.3-.163-.376-.326A22.153,22.153,0,0,0,1920.195,223.95Z" transform="translate(-1852.291 -220.95)" fill="#7fcce7"/>
    <path id="Trazado_628656" data-name="Trazado 628656" d="M1906.215,227.186a10.333,10.333,0,0,1,4.636-3.236c-.606,1.137-1.125,2.112-1.645,3.087-.111.208-.311.146-.483.147C1907.953,227.189,1907.181,227.186,1906.215,227.186Z" transform="translate(-1849.127 -220.95)" fill="#7fcce7"/>
    <path id="Trazado_628657" data-name="Trazado 628657" d="M1846.505,245.127c-1.175,0-1.175,0-1.175-1.162,0-1.33,0-1.33,1.318-1.33,1.176,0,1.176,0,1.176,1.163C1847.823,245.127,1847.823,245.127,1846.505,245.127Z" transform="translate(-1835.349 -225.178)" fill="#bbda89"/>
    <path id="Trazado_628658" data-name="Trazado 628658" d="M1908.388,244.308a1.24,1.24,0,0,1,1.741.9,16.829,16.829,0,0,0,1.165,2.113C1909.333,247.244,1909,245.656,1908.388,244.308Z" transform="translate(-1849.619 -225.534)" fill="#7fcce7"/>
    <path id="Trazado_628659" data-name="Trazado 628659" d="M1838.772,282.916a3.042,3.042,0,0,1,2.354,1.007c.73.782.754.789,1.519,0a3.153,3.153,0,0,1,3.052-.945,2.867,2.867,0,0,1,2.312,2.163,2.756,2.756,0,0,1-.864,2.969c-1.6,1.405-3.26,2.734-4.885,4.106a.468.468,0,0,1-.726,0c-1.623-1.374-3.279-2.711-4.89-4.1a2.9,2.9,0,0,1-.79-3.267A3.037,3.037,0,0,1,1838.772,282.916Z" transform="translate(-1833.159 -234.29)" fill="#ec8673"/>
    <path id="Trazado_628660" data-name="Trazado 628660" d="M1880.5,276.419a6.966,6.966,0,0,1-6.107-3.729c-.24-.415-.208-.619.243-.806.525-.218,1.018-.679,1.539-.7.617-.027.655.794,1.014,1.2a4.527,4.527,0,0,0,7.306-.7c.336-.573.606-.654,1.1-.292a2.83,2.83,0,0,0,.416.211c1.195.593,1.21.6.425,1.731A6.983,6.983,0,0,1,1880.5,276.419Z" transform="translate(-1841.893 -231.635)" fill="#040303"/>
    <path id="Trazado_628661" data-name="Trazado 628661" d="M1873.993,266.076a1.246,1.246,0,1,1,1.236-1.237A1.253,1.253,0,0,1,1873.993,266.076Z" transform="translate(-1841.552 -229.919)" fill="#0b0a09"/>
    <path id="Trazado_628662" data-name="Trazado 628662" d="M1891.35,264.848a1.246,1.246,0,1,1-1.209-1.263A1.257,1.257,0,0,1,1891.35,264.848Z" transform="translate(-1845.2 -229.919)" fill="#0b0a09"/>
  </g>
</svg>
