<svg xmlns="http://www.w3.org/2000/svg" width="113" height="113" viewBox="0 0 113 113">
  <g id="Grupo_952071" data-name="Grupo 952071" transform="translate(-424 -4330)">
    <circle id="Elipse_7706" data-name="Elipse 7706" cx="46" cy="46" r="46" transform="translate(435 4341)" fill="#583cb6"/>
    <rect id="Rectángulo_306469" data-name="Rectángulo 306469" width="113" height="113" transform="translate(424 4330)" fill="none"/>
    <g id="Grupo_952070" data-name="Grupo 952070" transform="translate(433.127 4340.041)">
      <path id="Trazado_628863" data-name="Trazado 628863" d="M1624.471,107.633q0,1.813,0,3.626c-1.228.3-1.415.554-1.506,2.029-1.032,1.806-1.785,3.75-2.82,5.56a46.255,46.255,0,0,1-6.708,9.246,44.888,44.888,0,0,1-4.974,4.615,43.309,43.309,0,0,1-7.879,4.816,37.577,37.577,0,0,0-4.162,1.84c-.521.018-1.043.011-1.561.059-.587.055-.808-.142-.79-.763.042-1.412-.01-2.826.018-4.239a7.278,7.278,0,0,0-1.577-4.7c-1.006-1.317-1.993-2.649-2.992-3.972a4.208,4.208,0,0,1-.989-2.526q-.022-9.447-.007-18.893a2.178,2.178,0,0,1,1.083-1.918,2.288,2.288,0,0,1,3.551,1.954c.057,2.7.036,5.407.015,8.11a3.7,3.7,0,0,0,1.751,3.33c2.494,1.68,4.941,3.429,7.427,5.121a6.277,6.277,0,0,1,2.952,5.594c-.023,1.566-.01,3.133,0,4.7.005,1.071.523,1.717,1.366,1.731s1.392-.635,1.4-1.694c.008-1.628,0-3.256,0-4.884a8.76,8.76,0,0,0-3.958-7.582c-2.442-1.7-4.878-3.411-7.347-5.074a1.665,1.665,0,0,1-.829-1.576q.037-14.7.018-29.4a6.43,6.43,0,0,1,.07-1.1,2.241,2.241,0,0,1,2.139-1.929,2.3,2.3,0,0,1,2.359,1.671,4.4,4.4,0,0,1,.142,1.367q0,11.382,0,22.764a6.208,6.208,0,0,0,.024.92,1.247,1.247,0,0,0,1.14,1.141,1.3,1.3,0,0,0,1.475-.837,2.8,2.8,0,0,0,.126-1.18q0-13.824,0-27.648c0-.338-.009-.677.017-1.013a2.3,2.3,0,0,1,4.3-.96,3.239,3.239,0,0,1,.339,1.779q0,13.916,0,27.832a2.786,2.786,0,0,0,.119,1.18,1.3,1.3,0,0,0,1.469.848,1.256,1.256,0,0,0,1.151-1.133,5.7,5.7,0,0,0,.025-.92q0-11.382,0-22.763a5.978,5.978,0,0,1,.074-1.191,2.308,2.308,0,0,1,4.541.063,7.211,7.211,0,0,1,.086,1.283q.007,11.244.005,22.487a6.432,6.432,0,0,0,.048,1.1,1.22,1.22,0,0,0,1.194,1.078,1.235,1.235,0,0,0,1.411-.918,3.9,3.9,0,0,0,.11-1.092q.009-7.419.005-14.838c0-1.413-.025-2.827.032-4.238a2.264,2.264,0,0,1,1.948-2.134,2.359,2.359,0,0,1,2.5,1.48A3.7,3.7,0,0,1,1623,87.3q0,9.262,0,18.524C1623,107.041,1623.314,107.42,1624.471,107.633Z" transform="translate(-1531.353 -71.985)" fill="#f7dcce"/>
      <path id="Trazado_628864" data-name="Trazado 628864" d="M1619.678,102.9c-1.158-.212-1.474-.592-1.474-1.81q0-9.262,0-18.524a3.7,3.7,0,0,0-.191-1.449,2.36,2.36,0,0,0-2.5-1.48,2.264,2.264,0,0,0-1.948,2.134c-.058,1.411-.032,2.825-.032,4.238q0,7.419-.005,14.838a3.9,3.9,0,0,1-.11,1.092,1.235,1.235,0,0,1-1.411.918,1.22,1.22,0,0,1-1.194-1.078,6.432,6.432,0,0,1-.048-1.1q0-11.243-.005-22.487a7.222,7.222,0,0,0-.086-1.283,2.308,2.308,0,0,0-4.541-.063,5.978,5.978,0,0,0-.074,1.191q-.006,11.381,0,22.763a5.714,5.714,0,0,1-.025.92,1.256,1.256,0,0,1-1.151,1.133,1.3,1.3,0,0,1-1.469-.848,2.786,2.786,0,0,1-.119-1.18q0-13.916,0-27.832a3.239,3.239,0,0,0-.339-1.779,2.3,2.3,0,0,0-4.3.96c-.026.336-.017.675-.017,1.013q0,13.824,0,27.648a2.8,2.8,0,0,1-.126,1.18,1.3,1.3,0,0,1-1.475.837,1.247,1.247,0,0,1-1.14-1.141,6.208,6.208,0,0,1-.024-.92q0-11.382,0-22.764a4.4,4.4,0,0,0-.142-1.367,2.3,2.3,0,0,0-2.359-1.671,2.241,2.241,0,0,0-2.139,1.929,6.442,6.442,0,0,0-.07,1.1q0,14.7-.018,29.4a1.665,1.665,0,0,0,.829,1.576c2.469,1.662,4.906,3.372,7.347,5.074a8.76,8.76,0,0,1,3.958,7.582c0,1.628.006,3.256,0,4.884-.005,1.059-.55,1.707-1.4,1.694s-1.361-.66-1.366-1.731c-.007-1.567-.021-3.134,0-4.7a6.277,6.277,0,0,0-2.952-5.594c-2.485-1.693-4.933-3.441-7.426-5.121a3.7,3.7,0,0,1-1.752-3.33c.022-2.7.042-5.407-.015-8.11a2.289,2.289,0,0,0-3.552-1.954,2.178,2.178,0,0,0-1.083,1.918q-.011,9.446.007,18.893a4.208,4.208,0,0,0,.99,2.526c1,1.323,1.985,2.655,2.992,3.972a7.278,7.278,0,0,1,1.577,4.7c-.029,1.413.024,2.827-.018,4.239-.019.621.2.818.79.763.518-.048,1.04-.042,1.561-.059.335.018.67.052,1.006.052q10.134,0,20.268-.006a15.943,15.943,0,0,0,3.378-.1c.023-1.1.1-2.2.06-3.3a23.784,23.784,0,0,1,.915-7.547,19.218,19.218,0,0,0,.758-3.4c.4-3.916.14-7.849.159-11.775.091-1.475.278-1.727,1.506-2.029a1.673,1.673,0,0,1,1.307,1.922q-.056,4.839,0,9.678a30.1,30.1,0,0,1-1.34,7.495,17.853,17.853,0,0,0-.53,4.279q.018,14.84.006,29.681c0,1.681-.383,2.069-2.042,2.069h-30.7c-1.715,0-2.081-.375-2.083-2.123,0-1.075,0-2.151,0-3.226.005-1.215.276-1.56,1.448-1.868a1.536,1.536,0,0,1,1.327,1.789c-.037.642.039,1.292-.02,1.93s.206.756.779.743c1.594-.035,3.19-.01,4.785-.012l20.611-.028c.795.01,1.592-.016,2.383.042.606.044.766-.161.759-.76-.03-2.966,0-5.933-.023-8.9-.008-.934.427-2.233-.187-2.71-.681-.53-1.933-.166-2.936-.119-3.433-.012-6.866-.03-10.3-.034-5-.006-10,.01-14.993-.016-.657,0-.957.113-.88.842.067.637-.006,1.287.018,1.93a1.472,1.472,0,0,1-1.327,1.682c-1.119-.256-1.443-.635-1.444-1.764q-.009-6.313,0-12.625c0-1.216.408-1.67,1.63-1.72.5-.021.614-.188.607-.65-.026-1.6-.007-3.194-.02-4.791a4.221,4.221,0,0,0-.956-2.536c-1.016-1.348-2.023-2.7-3.045-4.046a7.487,7.487,0,0,1-1.564-4.7c.02-5.959.1-11.92-.026-17.877a5.2,5.2,0,0,1,7.106-5.17,1.1,1.1,0,0,0,.273.037,2.115,2.115,0,0,0,.082-.993c.006-5.437,0-10.874.007-16.311a5.141,5.141,0,0,1,4.014-5.348,5.583,5.583,0,0,1,3.419.39,13.03,13.03,0,0,1,.227-1.745,5.092,5.092,0,0,1,9.976.975c.042.579.061.768.753.545a5.022,5.022,0,0,1,6.662,4.17c.08.52.134.708.763.5a5.093,5.093,0,0,1,6.762,4.96c.026,6.358,0,12.717.014,19.076A1.508,1.508,0,0,1,1619.678,102.9Zm-6.454,40.666c.854.013,1.709.007,2.562.045.434.02.588-.114.572-.562-.032-.915.015-1.833-.016-2.748-.032-.936.419-2.291-.179-2.7-.685-.466-1.934-.106-2.938-.105a.867.867,0,0,0-.18-.038q-12.675-.005-25.351-.018c-.554,0-.654.2-.645.692.028,1.536.06,3.074-.011,4.607-.036.777.257.879.931.876,5.131-.025,10.263-.009,15.395-.016C1606.65,143.6,1609.937,143.577,1613.224,143.565Z" transform="translate(-1526.56 -67.251)" fill="#030303"/>
      <path id="Trazado_628865" data-name="Trazado 628865" d="M1483.545,97.544c1.169.386,1.4.694,1.4,1.929q0,12.81,0,25.62a5.152,5.152,0,0,1-5.513,5.447c-.768,0-1.54.049-2.3-.014-.682-.058-.805.208-.789.828.043,1.627,0,3.256.02,4.884a1.527,1.527,0,0,1-.737,1.564,1.614,1.614,0,0,1-1.72-.238c-3.531-2.219-7.073-4.418-10.6-6.644a2.429,2.429,0,0,0-1.374-.387q-11.292.017-22.583.007c-3.509,0-5.607-2.1-5.607-5.617q0-19.953,0-39.905c0-3.62,2.081-5.682,5.729-5.683h39.821c3.562,0,5.654,2.1,5.66,5.676,0,2.4.01,4.792,0,7.188-.006,1.092-.316,1.452-1.387,1.727-1.109-.283-1.363-.584-1.368-1.72-.01-2.087-.081-4.178.014-6.261.156-3.41-1.135-4.1-4.219-3.8-.152-.014-.3-.041-.457-.041q-19.174,0-38.347,0c-1.784,0-2.672.943-2.673,2.775q0,20,0,40c0,2.034.866,2.891,2.921,2.891q11.477,0,22.953-.01a3.518,3.518,0,0,1,1.99.56c2.667,1.7,5.354,3.362,8.04,5.027a2.853,2.853,0,0,0,1.172.6v-2.319c0-.768-.018-1.537.006-2.3a1.4,1.4,0,0,1,1.541-1.548c.951-.026,1.9-.027,2.855-.04.245.013.489.034.733.036,2.78.016,3.468-.672,3.468-3.46q0-12.413,0-24.825C1482.19,98.166,1482.342,97.957,1483.545,97.544Z" transform="translate(-1433.739 -74.871)" fill="#030303"/>
      <path id="Trazado_628866" data-name="Trazado 628866" d="M1593.966,285.889a1.472,1.472,0,0,0,1.326-1.682c-.025-.643.049-1.293-.018-1.93-.077-.729.223-.845.88-.842,5,.027,10,.01,14.993.016,3.433,0,6.866.022,10.3.034l0,12.446-20.611.028c-1.6,0-3.191-.023-4.785.012-.573.013-.837-.1-.779-.743s-.017-1.289.02-1.931a1.536,1.536,0,0,0-1.327-1.789Z" transform="translate(-1534.789 -202.33)" fill="#c5b0e5"/>
      <path id="Trazado_628867" data-name="Trazado 628867" d="M1553.543,86.836c3.084-.305,4.375.389,4.219,3.8-.1,2.083-.025,4.173-.015,6.261.005,1.136.258,1.437,1.368,1.72q-.007,1.809-.014,3.619c-1.2.413-1.355.622-1.356,1.943q0,12.413,0,24.825c0,2.788-.688,3.477-3.468,3.46-.245,0-.489-.023-.733-.036a6.579,6.579,0,0,0,.761-3.338q-.038-19.6,0-39.194A6.081,6.081,0,0,0,1553.543,86.836Z" transform="translate(-1509.296 -79.562)" fill="#c75f8b"/>
      <path id="Trazado_628868" data-name="Trazado 628868" d="M1636.458,179.081c-.019,3.926.243,7.859-.159,11.775a19.208,19.208,0,0,1-.758,3.4,23.784,23.784,0,0,0-.915,7.547c.036,1.1-.036,2.2-.06,3.3a15.944,15.944,0,0,1-3.378.1q-10.134.025-20.268.006c-.335,0-.67-.034-1.006-.052a37.569,37.569,0,0,1,4.162-1.84,43.31,43.31,0,0,0,7.879-4.816,44.876,44.876,0,0,0,4.974-4.615,46.251,46.251,0,0,0,6.708-9.246C1634.673,182.831,1635.427,180.887,1636.458,179.081Z" transform="translate(-1544.848 -137.779)" fill="#f4cabe"/>
      <path id="Trazado_628869" data-name="Trazado 628869" d="M1623.669,263.42c-3.287.013-6.574.032-9.861.036-5.132.006-10.263-.01-15.395.016-.673,0-.967-.1-.931-.876.071-1.533.039-3.072.011-4.607-.009-.495.091-.694.645-.693q12.675.028,25.351.018a.867.867,0,0,1,.18.038Q1623.669,260.386,1623.669,263.42Z" transform="translate(-1537.006 -187.106)" fill="#f7f5f8"/>
      <path id="Trazado_628870" data-name="Trazado 628870" d="M1668.375,293.734l0-12.446c1-.047,2.255-.411,2.936.119.614.477.179,1.776.187,2.71.025,2.966-.007,5.933.023,8.9.006.6-.153.8-.759.76C1669.967,293.719,1669.17,293.745,1668.375,293.734Z" transform="translate(-1581.715 -202.134)" fill="#b095d6"/>
      <path id="Trazado_628871" data-name="Trazado 628871" d="M1668.39,263.288q0-3.034,0-6.068c1,0,2.253-.361,2.938.105.6.407.147,1.762.179,2.7.031.915-.016,1.833.016,2.748.016.448-.138.582-.572.562C1670.1,263.3,1669.244,263.3,1668.39,263.288Z" transform="translate(-1581.726 -186.975)" fill="#eee8f6"/>
      <path id="Trazado_628872" data-name="Trazado 628872" d="M1482.714,86.871a6.078,6.078,0,0,1,.761,3.06q-.035,19.6,0,39.194a6.578,6.578,0,0,1-.761,3.338c-.951.012-1.9.013-2.855.04a1.4,1.4,0,0,0-1.541,1.548c-.023.767-.005,1.536-.005,2.3v2.319a2.851,2.851,0,0,1-1.172-.6c-2.687-1.665-5.373-3.331-8.04-5.027a3.517,3.517,0,0,0-1.99-.56q-11.476.025-22.953.01c-2.055,0-2.921-.857-2.921-2.891q0-20,0-40c0-1.832.888-2.774,2.673-2.775q19.173-.012,38.347,0C1482.409,86.829,1482.561,86.856,1482.714,86.871Zm-18.658,3.166a12.133,12.133,0,0,0-12.16,12.279,4.349,4.349,0,0,0,8.545,1.051,8.087,8.087,0,0,0,.177-1.457,3.447,3.447,0,1,1,4.227,3.705,7.4,7.4,0,0,0-5.15,7.558,4.438,4.438,0,0,0,3.846,4.186,4.3,4.3,0,0,0,4.632-2.988,1.684,1.684,0,0,1,1.047-1.121,12.178,12.178,0,0,0-5.164-23.214Zm4.37,34.913a4.367,4.367,0,1,0-4.332,4.354A4.394,4.394,0,0,0,1468.426,124.95Z" transform="translate(-1438.467 -79.597)" fill="#d07aa2"/>
      <path id="Trazado_628873" data-name="Trazado 628873" d="M1482.256,95.519a12.178,12.178,0,0,1,5.164,23.213,1.684,1.684,0,0,0-1.047,1.121,4.3,4.3,0,0,1-4.632,2.988,4.438,4.438,0,0,1-3.846-4.186,7.4,7.4,0,0,1,5.15-7.558,3.491,3.491,0,0,0,2.617-2.893,3.448,3.448,0,1,0-6.844-.813,8.087,8.087,0,0,1-.177,1.457,4.349,4.349,0,0,1-8.545-1.051A12.133,12.133,0,0,1,1482.256,95.519Zm9.436,12.248a9.416,9.416,0,0,0-18.83-.2,1.544,1.544,0,0,0,1.52,1.711,1.563,1.563,0,0,0,1.648-1.6c.012-.153,0-.308.018-.46a6.023,6.023,0,0,1,4.05-5.331,5.852,5.852,0,0,1,6.529,1.417,5.926,5.926,0,0,1,1.486,6.521,6.038,6.038,0,0,1-4.043,3.847,4.651,4.651,0,0,0-3.411,4.778,1.652,1.652,0,0,0,1.542,1.648,1.529,1.529,0,0,0,1.622-1.523,1.964,1.964,0,0,1,1.613-2.016A9.394,9.394,0,0,0,1491.692,107.767Z" transform="translate(-1456.666 -85.079)" fill="#040303"/>
      <path id="Trazado_628874" data-name="Trazado 628874" d="M1499.943,182.555a4.367,4.367,0,1,1-4.3-4.389A4.387,4.387,0,0,1,1499.943,182.555Zm-4.321-1.617a1.649,1.649,0,0,0-1.642,1.535,1.619,1.619,0,0,0,1.6,1.657,1.579,1.579,0,0,0,1.58-1.571A1.6,1.6,0,0,0,1495.623,180.938Z" transform="translate(-1469.984 -137.202)" fill="#040303"/>
      <path id="Trazado_628875" data-name="Trazado 628875" d="M1496.419,112.51a9.393,9.393,0,0,1-6.257,8.791,1.964,1.964,0,0,0-1.613,2.016,1.529,1.529,0,0,1-1.622,1.523,1.652,1.652,0,0,1-1.542-1.648,4.651,4.651,0,0,1,3.411-4.778,6.038,6.038,0,0,0,4.043-3.847,5.926,5.926,0,0,0-1.486-6.521,5.851,5.851,0,0,0-6.529-1.417,6.023,6.023,0,0,0-4.05,5.331c-.018.152-.006.307-.018.46a1.563,1.563,0,0,1-1.648,1.6,1.544,1.544,0,0,1-1.52-1.711,9.416,9.416,0,0,1,18.83.2Z" transform="translate(-1461.393 -89.823)" fill="#ece6f3"/>
      <path id="Trazado_628876" data-name="Trazado 628876" d="M1500.352,185.67a1.6,1.6,0,0,1,1.538,1.621,1.579,1.579,0,0,1-1.579,1.571,1.619,1.619,0,0,1-1.6-1.657A1.649,1.649,0,0,1,1500.352,185.67Z" transform="translate(-1474.713 -141.934)" fill="#e8e2ef"/>
    </g>
  </g>
</svg>
