<svg xmlns="http://www.w3.org/2000/svg" width="63.662" height="63.583" viewBox="0 0 63.662 63.583">
  <g id="Grupo_952064" data-name="Grupo 952064" transform="translate(-1879.523 -17.818)">
    <path id="Trazado_628804" data-name="Trazado 628804" d="M1911.061,62.719a8.468,8.468,0,0,0-2.414,1.913,1.3,1.3,0,0,0-2.037.274,18.92,18.92,0,0,0-3,5.389,7.168,7.168,0,0,1-8.189,4.505,7.255,7.255,0,0,1-5.763-7.254q0-11.708,0-23.415a16.512,16.512,0,0,1,.165-2.476,16.23,16.23,0,1,1,32.1,4.795,19.366,19.366,0,0,1-5.837,11.364,1.282,1.282,0,0,0-.232,1.961c-.65.433-1.3.87-1.953,1.3-.205.133-.431.235-.647.351-.642-.627-1.162-.751-1.732-.414S1910.794,61.919,1911.061,62.719Zm-5.556-30.6a11.639,11.639,0,0,0-9.406,5.194,5.9,5.9,0,0,0,1.369,8.577,3.815,3.815,0,0,1-2.085,6.942,1.279,1.279,0,0,0-1.347,1.306,1.3,1.3,0,0,0,1.472,1.176,6.323,6.323,0,0,0,6.06-5.931,6.221,6.221,0,0,0-2.7-5.548,3.419,3.419,0,0,1-1.088-4.549,9.344,9.344,0,0,1,17.433,4.47c.051.936.5,1.443,1.27,1.426.782-.017,1.241-.6,1.212-1.55A11.97,11.97,0,0,0,1905.505,32.115Zm4.785,23.807a1.232,1.232,0,0,0-1.92-1.023,22.179,22.179,0,0,0-7.068,5.646,21.762,21.762,0,0,0-3.585,6.045,1.232,1.232,0,0,0,2.256.993c.086-.164.156-.337.228-.508a19.95,19.95,0,0,1,9.161-9.889A1.373,1.373,0,0,0,1910.291,55.922Zm.582-12.066a5.065,5.065,0,0,0-4.863-4.908,1.253,1.253,0,0,0-1.367,1.143,1.222,1.222,0,0,0,1.225,1.336,2.548,2.548,0,0,1,2.528,2.54,1.219,1.219,0,0,0,1.287,1.213A1.251,1.251,0,0,0,1910.873,43.856Z" transform="translate(-7.608 -7.468)" fill="#e8bb8e"/>
    <path id="Trazado_628805" data-name="Trazado 628805" d="M1908.243,52.306a1.282,1.282,0,0,1,.232-1.961,19.366,19.366,0,0,0,5.837-11.364,16.23,16.23,0,1,0-32.1-4.795,16.512,16.512,0,0,0-.165,2.476q.009,11.708,0,23.415a7.255,7.255,0,0,0,5.763,7.254A7.168,7.168,0,0,0,1896,62.826a18.92,18.92,0,0,1,3-5.389,1.3,1.3,0,0,1,2.037-.274c.425.7.453,1.168,0,1.7a16.167,16.167,0,0,0-2.659,4.727,9.5,9.5,0,0,1-7.261,6.186,9.671,9.671,0,0,1-11.53-9.164c-.069-8.3-.1-16.6.012-24.9.113-8.485,6.7-16.016,15.14-17.572a18.554,18.554,0,0,1,21.385,12.929c2.121,7.407.219,14-4.7,19.8a17.56,17.56,0,0,1-1.256,1.29A1.265,1.265,0,0,1,1908.243,52.306Z" fill="#020202"/>
    <path id="Trazado_628806" data-name="Trazado 628806" d="M2023.283,132.169a27.636,27.636,0,0,1,7.962-19.475,1.3,1.3,0,0,1,2.174,0q1.518,1.511,3.031,3.029c.841.842.854,1.43.039,2.275a19.632,19.632,0,0,0-5.533,11.328,19.965,19.965,0,0,0,5.245,16.7c1.175,1.29,1.2,1.64-.022,2.858-.937.937-1.869,1.878-2.812,2.809a1.269,1.269,0,0,1-2.086-.016A27.629,27.629,0,0,1,2023.283,132.169Zm2.492-.125a25.231,25.231,0,0,0,5.881,16.349c.674.818.681.812,1.407.086a6.044,6.044,0,0,1,.62-.608c.421-.313.335-.545.026-.92a22.5,22.5,0,0,1-4.788-20.208,21.424,21.424,0,0,1,4.809-9.392c.307-.355.35-.574-.032-.883a6.236,6.236,0,0,1-.921-.92c-.318-.392-.514-.341-.829.028A25.115,25.115,0,0,0,2025.775,132.044Z" transform="translate(-107.979 -70.822)" fill="#020303"/>
    <path id="Trazado_628807" data-name="Trazado 628807" d="M2063.257,153.355A17.831,17.831,0,0,1,2068.3,140.9a1.28,1.28,0,0,1,2.132-.043q1.61,1.594,3.2,3.2a1.274,1.274,0,0,1,.033,2.01,10.409,10.409,0,0,0-.033,14.511,1.282,1.282,0,0,1-.01,2.054q-1.593,1.611-3.2,3.2a1.277,1.277,0,0,1-2.087-.019A17.786,17.786,0,0,1,2063.257,153.355Zm6.184,9.984c.48-.491.906-.972,1.383-1.4.326-.291.279-.477.033-.8a12.971,12.971,0,0,1-.7-14.607c.307-.5,1-.958.878-1.466s-.8-.848-1.187-1.3c-.334-.393-.521-.342-.815.054a15.3,15.3,0,0,0-2.314,14.878A13.866,13.866,0,0,0,2069.441,163.339Z" transform="translate(-138.004 -92)" fill="#020303"/>
    <path id="Trazado_628808" data-name="Trazado 628808" d="M2103.275,174.6a7.839,7.839,0,0,1,2.173-5.412,1.271,1.271,0,0,1,2.043-.036q1.634,1.615,3.248,3.25a1.219,1.219,0,0,1,.18,1.817.63.63,0,0,0,0,.835,1.2,1.2,0,0,1-.139,1.771q-1.655,1.681-3.338,3.335a1.243,1.243,0,0,1-2-.071A7.919,7.919,0,0,1,2103.275,174.6Zm3.384-2.868a5.094,5.094,0,0,0,.021,5.76c.517-.54,1.028-1.078,1.546-1.61a.413.413,0,0,0,.138-.44,2.727,2.727,0,0,1-.006-1.588.414.414,0,0,0-.116-.447C2107.713,172.862,2107.195,172.3,2106.659,171.734Z" transform="translate(-168.062 -113.296)" fill="#020203"/>
    <path id="Trazado_628809" data-name="Trazado 628809" d="M1975.286,162.493c-.267-.8-.114-1.374.458-1.713s1.09-.213,1.732.414c.32,1.154-.248,1.98-1.274,1.868A1.416,1.416,0,0,1,1975.286,162.493Z" transform="translate(-71.833 -107.242)" fill="#070605"/>
    <path id="Trazado_628810" data-name="Trazado 628810" d="M1918.731,45.255a11.97,11.97,0,0,1,12.192,11.512c.028.947-.43,1.533-1.212,1.55-.767.017-1.22-.491-1.27-1.426a9.344,9.344,0,0,0-17.433-4.47,3.419,3.419,0,0,0,1.088,4.549,6.221,6.221,0,0,1,2.7,5.548,6.323,6.323,0,0,1-6.06,5.931,1.3,1.3,0,0,1-1.472-1.176,1.279,1.279,0,0,1,1.346-1.306,3.815,3.815,0,0,0,2.085-6.942,5.9,5.9,0,0,1-1.369-8.577A11.639,11.639,0,0,1,1918.731,45.255Z" transform="translate(-20.834 -20.608)" fill="#030202"/>
    <path id="Trazado_628811" data-name="Trazado 628811" d="M1934.345,137.266a1.374,1.374,0,0,1-.93,1.263,19.95,19.95,0,0,0-9.161,9.889c-.072.171-.142.344-.228.508a1.232,1.232,0,0,1-2.256-.993,21.762,21.762,0,0,1,3.585-6.045,22.181,22.181,0,0,1,7.068-5.646A1.232,1.232,0,0,1,1934.345,137.266Z" transform="translate(-31.662 -88.812)" fill="#030302"/>
    <path id="Trazado_628812" data-name="Trazado 628812" d="M1956.094,77.612a1.251,1.251,0,0,1-1.191,1.325,1.219,1.219,0,0,1-1.287-1.213,2.548,2.548,0,0,0-2.528-2.54,1.222,1.222,0,0,1-1.225-1.336,1.253,1.253,0,0,1,1.367-1.143A5.065,5.065,0,0,1,1956.094,77.612Z" transform="translate(-52.83 -41.225)" fill="#030302"/>
    <path id="Trazado_628813" data-name="Trazado 628813" d="M2033.3,141.607a25.115,25.115,0,0,1,6.175-16.468c.315-.369.511-.42.829-.028a6.23,6.23,0,0,0,.921.92c.382.308.338.528.032.883a21.424,21.424,0,0,0-4.809,9.392,22.5,22.5,0,0,0,4.787,20.208c.309.375.4.607-.026.92a6.043,6.043,0,0,0-.62.608c-.726.726-.733.732-1.407-.086A25.231,25.231,0,0,1,2033.3,141.607Z" transform="translate(-115.5 -80.384)" fill="#9ed8ee"/>
    <path id="Trazado_628814" data-name="Trazado 628814" d="M2076.936,172.961a13.865,13.865,0,0,1-2.729-4.644,15.3,15.3,0,0,1,2.314-14.878c.294-.4.482-.448.815-.054.387.456,1.072.806,1.187,1.3s-.571.966-.877,1.466a12.971,12.971,0,0,0,.7,14.607c.246.325.293.511-.033.8C2077.843,171.988,2077.416,172.47,2076.936,172.961Z" transform="translate(-145.499 -101.622)" fill="#9ed8ee"/>
  </g>
</svg>
