<svg xmlns="http://www.w3.org/2000/svg" width="59.961" height="67.319" viewBox="0 0 59.961 67.319">
  <g id="Grupo_952063" data-name="Grupo 952063" transform="translate(-1426.722 10.349)">
    <path id="Trazado_628786" data-name="Trazado 628786" d="M1442.247-6.34h2.588a1.136,1.136,0,0,0,1.295.93c2.538-.019,5.076-.01,7.613-.007q5.808.007,11.615.02,0,5.572,0,11.144c-.486.471-.97.944-1.462,1.409-.112.106-.226.314-.4.038a1.193,1.193,0,0,0-1.162-.447q-3.351.005-6.7,0-5.913,0-11.826,0c-.8,0-1.218.337-1.233.956-.016.647.418,1,1.245,1.016.153,0,.307,0,.46,0q8.541,0,17.082,0a1.264,1.264,0,0,1,.8.126c-.2.161-.367.285-.519.428q-2.973,2.784-5.943,5.571a2.658,2.658,0,0,0-.887,2.833.748.748,0,0,1-.09.554,2.911,2.911,0,0,1-1.112,1.136,5.573,5.573,0,0,1-3.636.962c-2.078-.079-4.16-.027-6.241-.017-.835,0-1.3.516-1.126,1.215.15.592.6.756,1.153.755q2.792,0,5.585,0h.748a4.316,4.316,0,0,0-.256,2.737c.092.329-.134.421-.341.54-.832.481-1.667.957-2.5,1.442-.712.416-.916.948-.584,1.5.313.518.875.605,1.547.223.854-.486,1.7-.985,2.554-1.475.178-.1.328-.258.571-.047a4.3,4.3,0,0,0,5.606.306c.374-.237.527-.164.733.2,1.084,1.9,2.2,3.779,3.289,5.67.079.137.251.266.132.5h-16.8a5.521,5.521,0,0,0-.591.009.97.97,0,0,0-.2,1.89,2.664,2.664,0,0,0,.777.072q8.837.006,17.673.007c.231,0,.5-.1.689.1a14.635,14.635,0,0,0,2.964,2.03q.009,1.519.018,3.039a3.271,3.271,0,0,0-.411,1.825c.027.612-.02,1.228.014,1.839.025.454-.07.672-.584.766a2.232,2.232,0,0,0-1.915,1.907c-.1.605-.368.645-.86.644q-12.747-.017-25.495-.014c-.669,0-1.611.3-1.937-.127-.342-.447-.094-1.338-.124-2.034-.012-.284.08-.408.362-.51a4.534,4.534,0,0,0,0-8.662.446.446,0,0,1-.368-.505c.013-1.161.019-2.322,0-3.483-.006-.316.139-.4.392-.488a4.538,4.538,0,0,0,.017-8.649c-.312-.106-.411-.222-.407-.537.016-1.139.023-2.278,0-3.417-.008-.337.132-.439.411-.538a4.535,4.535,0,0,0-.022-8.645.465.465,0,0,1-.383-.547c.009-1.073.027-2.148-.008-3.22-.015-.441.115-.614.544-.771a4.3,4.3,0,0,0,2.989-3.8,3.986,3.986,0,0,0-2.219-4.324,1.94,1.94,0,0,1-1.3-2.407.611.611,0,0,0,0-.2c-.086-.476.131-.571.577-.566,2.1.024,4.205,0,6.308.018A1.122,1.122,0,0,0,1442.247-6.34Z" transform="translate(-5.366 -2.953)" fill="#ecebed"/>
    <path id="Trazado_628787" data-name="Trazado 628787" d="M1459.991,35.036a14.642,14.642,0,0,1-2.964-2.03c-.187-.205-.458-.1-.689-.1q-8.837-.008-17.673-.007a2.664,2.664,0,0,1-.777-.072.97.97,0,0,1,.2-1.89,5.523,5.523,0,0,1,.591-.009h16.8c.119-.234-.053-.363-.132-.5-1.093-1.892-2.2-3.773-3.289-5.67-.207-.362-.359-.434-.733-.2a4.3,4.3,0,0,1-5.606-.306c-.243-.211-.393-.056-.571.047-.853.49-1.7.989-2.554,1.475-.672.382-1.233.295-1.547-.223-.331-.548-.128-1.081.584-1.5.83-.485,1.666-.961,2.5-1.442.206-.119.432-.211.341-.54a4.316,4.316,0,0,1,.256-2.737h-.748q-2.792,0-5.585,0c-.552,0-1-.164-1.153-.755-.177-.7.291-1.212,1.126-1.215,2.081-.01,4.163-.062,6.241.017a5.572,5.572,0,0,0,3.636-.962,2.909,2.909,0,0,0,1.112-1.136.748.748,0,0,0,.09-.554,2.658,2.658,0,0,1,.887-2.833q2.979-2.778,5.943-5.571c.152-.143.323-.267.519-.428a1.264,1.264,0,0,0-.8-.126q-8.541-.007-17.082,0c-.153,0-.306,0-.46,0-.827-.015-1.26-.369-1.245-1.016.015-.619.428-.955,1.233-.956q5.912-.008,11.826,0,3.351,0,6.7,0a1.193,1.193,0,0,1,1.162.447c.174.276.288.067.4-.038.491-.465.975-.939,1.462-1.409C1461,1.861,1462,.926,1463.013,0a.709.709,0,0,0,.227-.58q-.008-3.669,0-7.337c0-.326-.074-.471-.435-.46-.937.028-1.876.021-2.815.028q-5.808-.01-11.615-.02c-2.538,0-5.075-.012-7.614.007a1.136,1.136,0,0,1-1.295-.93c.183-.841.436-1.051,1.3-1.051q11.075,0,22.15,0a2.089,2.089,0,0,1,2.287,2.282c.012,1.819,0,3.637,0,5.456,0,.169.016.338.027.571A5.818,5.818,0,0,1,1468-2.866a5.1,5.1,0,0,1,4.1,1.861q.874,1.024,1.678,2.106c.23.308.4.343.729.141,1.178-.712,2.383-1.38,3.571-2.076a1.72,1.72,0,0,1,1.972-.043c.279.19.435.02.64-.084a8.253,8.253,0,0,1,2.349-1.126,3.089,3.089,0,0,1,3.4,1.87,3.083,3.083,0,0,1-1.074,3.731,10.148,10.148,0,0,1-.9.542c-.576.322-1.177.556-1.125,1.442.028.474-.426.836-.862,1.086-.853.49-1.695,1-2.561,1.465-.349.188-.357.314-.113.612.984,1.2,1.924,2.443,2.914,3.641a5.445,5.445,0,0,1,.969,5.763c-.9,2.392-1.737,4.806-2.607,7.207-.286.79-.533.945-1.365.9-.683-.5-.779-.776-.5-1.556.88-2.446,1.757-4.893,2.654-7.332a3.458,3.458,0,0,0-.592-3.624c-.748-.915-1.467-1.854-2.217-2.767-.427-.519-.75-1.416-1.312-1.454-.583-.04-1.212.592-1.82.931-.018.01-.028.033-.042.051q-3.356,1.917-6.712,3.834c-.834.477-.86.492-.483,1.353a4.741,4.741,0,0,1-.406,4.742c-.613.957-1.174,1.947-1.763,2.919-.445.733-.744.851-1.579.634-1.268-.331-2.533-.675-3.8-.991a1.976,1.976,0,0,1-1.12-.734c-1.594-2-3.2-4-4.812-5.99a2.471,2.471,0,0,0-2.678-.953,2.514,2.514,0,0,0-1.515,3.812q2.616,4.547,5.275,9.069c2.595,4.432,1.517,3.361,5.937,5.862,1.173.663,2.125,1.3,1.8,2.837-.056.268.075.393.367.391q4.234-.03,8.469-.045c.808.014,1.618.007,2.424.052.459.025.636-.12.584-.586a10.591,10.591,0,0,1,1.009-5.535c.229-.518.389-1.067.584-1.6.3-.824.545-.974,1.422-.887a1.118,1.118,0,0,1,.444,1.53c-.277.688-.465,1.414-.773,2.087a9.426,9.426,0,0,0-.73,4.476c.02.4.133.5.515.542a2.093,2.093,0,0,1,1.9,2.073c.025.854.028,1.709,0,2.562-.012.372.08.518.469.595a2.5,2.5,0,0,1,2.146,2.647q.01,5.29,0,10.58c0,.932-.336,1.271-1.26,1.271q-11.663,0-23.327,0c-.925,0-1.269-.339-1.271-1.268-.006-2.672-.02-5.345.012-8.017.007-.561-.155-.675-.691-.674q-13.6.026-27.2.012a2.127,2.127,0,0,1-2.261-1.326,2.2,2.2,0,0,1-.133-.836c0-.745,0-1.49,0-2.234,0-1.3.354-1.751,1.61-2.09a2.572,2.572,0,0,0,.661-4.721,2.9,2.9,0,0,0-.856-.311,1.676,1.676,0,0,1-1.412-1.788q-.015-2.234,0-4.469a1.672,1.672,0,0,1,1.4-1.795,2.594,2.594,0,0,0,2.155-2.528,2.686,2.686,0,0,0-2.189-2.577,1.6,1.6,0,0,1-1.366-1.748c-.011-1.38,0-2.76,0-4.14,0-1.407.312-1.828,1.642-2.2a2.454,2.454,0,0,0,1.875-2.06,2.468,2.468,0,0,0-1.109-2.559,2.694,2.694,0,0,0-.962-.4,1.681,1.681,0,0,1-1.444-1.826q-.012-2.234,0-4.469A1.655,1.655,0,0,1,1428.1,1.2a2.59,2.59,0,0,0,2.18-2.579,2.586,2.586,0,0,0-2.221-2.537,1.673,1.673,0,0,1-1.328-1.658c-.018-.92-.021-1.84,0-2.76a2.019,2.019,0,0,1,2.013-2.006c2.343-.021,4.687-.009,7.031-.006a1.018,1.018,0,0,1,1.1,1.05,1.122,1.122,0,0,1-1.293.929c-2.1-.02-4.205.006-6.308-.018-.446-.005-.663.089-.577.566a.611.611,0,0,1,0,.2,1.94,1.94,0,0,0,1.3,2.407,3.986,3.986,0,0,1,2.219,4.324,4.3,4.3,0,0,1-2.989,3.8c-.429.157-.558.329-.544.771.035,1.072.017,2.146.008,3.22a.465.465,0,0,0,.384.547,4.535,4.535,0,0,1,.022,8.645c-.279.1-.419.2-.411.538.026,1.138.02,2.278,0,3.417,0,.315.094.43.406.537a4.538,4.538,0,0,1-.017,8.649c-.253.091-.4.173-.392.488.022,1.16.017,2.322,0,3.483a.446.446,0,0,0,.368.505,4.534,4.534,0,0,1,0,8.662c-.282.1-.374.226-.362.51.03.7-.218,1.587.124,2.034.326.427,1.268.127,1.937.127q12.747.013,25.494.014c.492,0,.76-.039.86-.644a2.232,2.232,0,0,1,1.915-1.907c.514-.094.61-.312.584-.766-.034-.612.013-1.227-.015-1.839a3.272,3.272,0,0,1,.411-1.825,2.357,2.357,0,0,1,1.7-.86c.244,0,.343-.1.352-.353.014-.409.007-.751-.465-.956C1461.039,35.665,1460.524,35.33,1459.991,35.036Zm-13.537-13.3a2.1,2.1,0,0,0,1.716,1.676,2.944,2.944,0,0,0,2.426-.725c.2-.144.055-.316-.029-.458-.31-.523-.627-1.042-.942-1.562a8.722,8.722,0,0,1-.947-2.235c-.476.276-.9.495-1.3.759A2.187,2.187,0,0,0,1446.454,21.733Zm29.051,17.484q-6.725-.017-13.45-.038c-.378,0-.49.162-.481.517.017.743.023,1.488,0,2.231-.013.375.113.485.481.479,1.2-.02,2.406,0,3.61-.008q4.921-.012,9.842-.028c.782.009,1.565,0,2.347.034.354.014.445-.125.437-.455-.019-.761-.021-1.523,0-2.285.01-.379-.145-.5-.5-.484C1477.026,39.2,1476.266,39.206,1475.505,39.216ZM1480.3,3.177c-.319-.572-.664-1.132-.949-1.721-.219-.453-.417-.515-.877-.247Q1469.6,6.366,1460.7,11.482c-1.42.82-2.834,1.649-4.263,2.453-.328.185-.387.285-.093.584.489.5.917,1.053,1.37,1.585.321.414.672.808.953,1.248s.54.4.947.166c3.038-1.775,6.089-3.529,9.136-5.289q6.048-3.493,12.1-6.977c.379-.217.511-.4.231-.791S1480.559,3.607,1480.3,3.177ZM1466.925-.634a2.539,2.539,0,0,0-1.142.736q-6.8,6.384-13.595,12.775c-.131.123-.346.2-.336.4a6.09,6.09,0,0,0,3.736-1.092c2-1.25,4.076-2.377,6.118-3.561q4.337-2.514,8.671-5.035l2-1.111A30.56,30.56,0,0,0,1470.3-.02,2.922,2.922,0,0,0,1466.925-.634ZM1477.992,44.4a.721.721,0,0,0-.129-.024q-9.03,0-18.062,0c-.658,0-.822.212-.822.973,0,3.022.014,6.043-.016,9.065-.005.536.191.592.642.588,2.78-.018,5.561-.006,8.341-.01q5.089-.007,10.178-.022c.786.008,1.573,0,2.358.032.38.017.416-.159.415-.468q-.012-4.687,0-9.375c0-.514-.235-.784-.743-.786C1479.432,44.374,1478.712,44.393,1477.992,44.4ZM1465.209,21.39l.137.019q.739-1.23,1.479-2.46a2.96,2.96,0,0,0-.122-2.99.275.275,0,0,0-.112-.14,2.744,2.744,0,0,0-1.378.947C1465.2,18.308,1465.209,19.849,1465.209,21.39Zm-1.969-1.81c0-.481,0-.962,0-1.442,0-.265-.014-.451-.353-.25-.769.456-1.547.9-2.323,1.343-.152.087-.241.163-.1.348.623.813,1.2,1.664,2.373,1.752.349.026.414-.07.4-.373C1463.229,20.5,1463.24,20.039,1463.24,19.58ZM1484.706.971a1.117,1.117,0,0,0-1.561-1.038c-.536.233-1.024.576-1.542.855-.241.13-.2.263-.1.475.813,1.737.939,1.779,2.541.758a1.975,1.975,0,0,0,.313-.233A1.081,1.081,0,0,0,1484.706.971Z" transform="translate(0 0)" fill="#030303"/>
    <path id="Trazado_628788" data-name="Trazado 628788" d="M1604.926,65.772c.014-.017.024-.041.041-.051.608-.339,1.237-.971,1.82-.931.562.038.885.935,1.312,1.454.75.913,1.469,1.852,2.217,2.767a3.459,3.459,0,0,1,.592,3.624c-.9,2.439-1.774,4.886-2.654,7.332-.281.78-.185,1.056.5,1.556l-.827,2.431c-.877-.088-1.12.062-1.422.887-.2.533-.355,1.082-.584,1.6a10.591,10.591,0,0,0-1.009,5.535c.052.466-.126.611-.584.586-.806-.045-1.616-.037-2.424-.052,0-.635.045-1.273,0-1.9a5.741,5.741,0,0,1,.45-2.426q1.039-2.829,2.063-5.664c1.073-2.956,2.155-5.91,3.213-8.871a5.2,5.2,0,0,0,.488-3.242C1607.577,68.5,1606.121,67.224,1604.926,65.772Z" transform="translate(-129.035 -55.348)" fill="#dead9e"/>
    <path id="Trazado_628789" data-name="Trazado 628789" d="M1553.039-2.841c.938-.007,1.877,0,2.815-.028.361-.011.437.134.435.46q-.015,3.669,0,7.337a.709.709,0,0,1-.227.58c-1.012.927-2.016,1.863-3.023,2.8Q1553.038,2.731,1553.039-2.841Z" transform="translate(-93.047 -5.509)" fill="#dedce0"/>
    <path id="Trazado_628790" data-name="Trazado 628790" d="M1553.043,161.973c.533.294,1.047.628,1.6.87.472.205.479.547.465.956-.009.252-.107.354-.352.353a2.358,2.358,0,0,0-1.7.86Q1553.052,163.492,1553.043,161.973Z" transform="translate(-93.052 -126.937)" fill="#dedce0"/>
    <path id="Trazado_628791" data-name="Trazado 628791" d="M1542.756,68.523c1.2,1.453,2.651,2.726,3.19,4.63a5.2,5.2,0,0,1-.488,3.242c-1.058,2.962-2.139,5.915-3.213,8.871q-1.029,2.833-2.063,5.664a5.745,5.745,0,0,0-.45,2.426c.046.632,0,1.27,0,1.9q-4.235.021-8.47.045c-.292,0-.423-.123-.367-.391.323-1.541-.629-2.173-1.8-2.837-4.42-2.5-3.342-1.43-5.937-5.862q-2.65-4.527-5.276-9.069a2.514,2.514,0,0,1,1.515-3.812,2.472,2.472,0,0,1,2.678.953c1.608,1.993,3.218,3.985,4.813,5.99a1.975,1.975,0,0,0,1.12.734c1.272.316,2.537.66,3.8.991.835.218,1.134.1,1.579-.634.589-.972,1.15-1.962,1.763-2.919a4.742,4.742,0,0,0,.406-4.742c-.377-.861-.352-.876.483-1.353Q1539.4,70.438,1542.756,68.523Z" transform="translate(-66.865 -58.099)" fill="#f5cdbf"/>
    <path id="Trazado_628792" data-name="Trazado 628792" d="M1568.3,208.033q-5.089.012-10.178.022c-2.781,0-5.561-.008-8.341.01-.451,0-.647-.052-.642-.588.03-3.021.012-6.043.015-9.065,0-.762.164-.973.822-.973q9.031-.009,18.062,0a.723.723,0,0,1,.129.024,11.48,11.48,0,0,1,.132,1.226C1568.31,201.8,1568.3,204.919,1568.3,208.033Z" transform="translate(-90.176 -153.06)" fill="#89b5f4"/>
    <path id="Trazado_628793" data-name="Trazado 628793" d="M1540.666,30.755q-4.336,2.518-8.671,5.035c-2.042,1.183-4.119,2.31-6.118,3.561a6.089,6.089,0,0,1-3.736,1.092c-.01-.195.205-.273.336-.4q6.793-6.392,13.595-12.775a2.54,2.54,0,0,1,1.142-.736.839.839,0,0,1,.582.383c.327.4.668.8.966,1.225A18.47,18.47,0,0,1,1540.666,30.755Z" transform="translate(-70.288 -27.17)" fill="#f4cbbd"/>
    <path id="Trazado_628794" data-name="Trazado 628794" d="M1540.044,47.983c-.453-.531-.881-1.089-1.37-1.585-.294-.3-.235-.4.093-.584,1.428-.8,2.843-1.633,4.263-2.453q8.889-5.131,17.771-10.273c.461-.268.658-.206.877.247.285.589.63,1.149.949,1.721-.955.526-1.918,1.038-2.862,1.583-2.645,1.523-5.281,3.062-7.923,4.589q-4.162,2.406-8.329,4.8C1542.363,46.691,1541.2,47.332,1540.044,47.983Z" transform="translate(-82.327 -31.879)" fill="#5767c3"/>
    <path id="Trazado_628795" data-name="Trazado 628795" d="M1544.407,53.934c1.157-.65,2.319-1.292,3.47-1.953q4.169-2.393,8.329-4.8c2.642-1.528,5.278-3.066,7.923-4.589.944-.544,1.907-1.056,2.862-1.583.259.43.494.876.783,1.284s.148.573-.231.791q-6.058,3.474-12.1,6.977c-3.047,1.76-6.1,3.514-9.136,5.289-.407.238-.667.271-.947-.166S1544.728,54.348,1544.407,53.934Z" transform="translate(-86.69 -37.83)" fill="#3d50bb"/>
    <path id="Trazado_628796" data-name="Trazado 628796" d="M1572.971,180.891q-4.921.014-9.842.028c-1.2,0-2.407-.012-3.61.008-.369.006-.495-.1-.481-.479.026-.743.02-1.488,0-2.231-.009-.355.1-.519.481-.517q6.725.026,13.451.038Q1572.972,179.314,1572.971,180.891Z" transform="translate(-97.467 -138.522)" fill="#d27aa2"/>
    <path id="Trazado_628797" data-name="Trazado 628797" d="M1621.522,208.032c0-3.115.008-6.23,0-9.344a11.448,11.448,0,0,0-.132-1.226c.72-.01,1.44-.029,2.16-.027.509,0,.744.272.743.786q-.008,4.688,0,9.375c0,.308-.035.484-.415.468C1623.1,208.03,1622.308,208.04,1621.522,208.032Z" transform="translate(-143.397 -153.058)" fill="#6092eb"/>
    <path id="Trazado_628798" data-name="Trazado 628798" d="M1582.823,29.971a18.47,18.47,0,0,0-1.9-2.612c-.3-.425-.639-.821-.966-1.225a.839.839,0,0,0-.582-.383,2.922,2.922,0,0,1,3.374.614,30.61,30.61,0,0,1,2.077,2.494Z" transform="translate(-112.445 -26.386)" fill="#dead9e"/>
    <path id="Trazado_628799" data-name="Trazado 628799" d="M1611.942,180.893q0-1.577,0-3.153c.76-.011,1.521-.012,2.281-.036.356-.012.511.1.5.484-.021.761-.019,1.523,0,2.285.008.33-.083.469-.437.455C1613.508,180.9,1612.724,180.9,1611.942,180.893Z" transform="translate(-136.438 -138.524)" fill="#bb61a2"/>
    <path id="Trazado_628800" data-name="Trazado 628800" d="M1501.334,102.221a2.187,2.187,0,0,1,.927-2.545c.4-.264.821-.482,1.3-.759a8.718,8.718,0,0,0,.947,2.235,1.209,1.209,0,0,1-.514.47A4.065,4.065,0,0,1,1501.334,102.221Z" transform="translate(-54.88 -80.489)" fill="#5767c3"/>
    <path id="Trazado_628801" data-name="Trazado 628801" d="M1501.644,108.473a4.065,4.065,0,0,0,2.656-.6,1.209,1.209,0,0,0,.514-.47c.315.52.633,1.039.942,1.562.084.142.234.313.029.458a2.944,2.944,0,0,1-2.426.725A2.1,2.1,0,0,1,1501.644,108.473Z" transform="translate(-55.19 -86.74)" fill="#3d50bb"/>
    <path id="Trazado_628802" data-name="Trazado 628802" d="M1557.422,98.317c0,.459-.011.918,0,1.377.01.3-.055.4-.4.373-1.175-.088-1.75-.939-2.373-1.752-.142-.185-.053-.262.1-.348.776-.445,1.553-.887,2.323-1.343.339-.2.356-.015.353.25C1557.418,97.355,1557.422,97.836,1557.422,98.317Z" transform="translate(-94.183 -78.736)" fill="#d7d5d9"/>
    <path id="Trazado_628803" data-name="Trazado 628803" d="M1637.7,29.461a1.083,1.083,0,0,1-.351.816,1.964,1.964,0,0,1-.313.233c-1.6,1.02-1.728.978-2.541-.758-.1-.212-.139-.345.1-.475.518-.279,1.005-.622,1.542-.855A1.118,1.118,0,0,1,1637.7,29.461Z" transform="translate(-152.996 -28.489)" fill="#cd779e"/>
  </g>
</svg>
