<svg xmlns="http://www.w3.org/2000/svg" width="86.425" height="86.425" viewBox="0 0 86.425 86.425">
  <g id="Grupo_952056" data-name="Grupo 952056" transform="translate(0 0)">
    <rect id="Rectángulo_306506" data-name="Rectángulo 306506" width="86.425" height="86.425" transform="translate(0 0.001)" fill="none"/>
    <g id="Grupo_952060" data-name="Grupo 952060" transform="translate(14.721 6.003)">
      <path id="Trazado_628738" data-name="Trazado 628738" d="M1675.979,153.254q0,5.494,0,10.988a4.963,4.963,0,0,1-5.225,5.252c-.877,0-1.757-.045-2.631.008a48.7,48.7,0,0,1-10.905-.994c-3.99-.658-7.987-1.279-11.982-1.9a5.022,5.022,0,0,0-1.816.3q-5.7,1.211-11.392,2.478a4.909,4.909,0,0,1-1.072.112q-3.328,0-6.656,0a4.964,4.964,0,0,1-5.292-5.261q-.006-10.795,0-21.59a8.729,8.729,0,0,1,7.612-9.052c3.9-.7,7.8-1.455,11.7-2.166.376-.069.519-.19.512-.586-.022-1.367-.02-2.734,0-4.1a1.068,1.068,0,0,0-.351-.806,12.166,12.166,0,0,1-3.355-7.935c-.019-.379-.1-.49-.5-.543a4.942,4.942,0,0,1,.022-9.839c.443-.055.472-.22.469-.566-.012-1.419-.017-2.837,0-4.256a5.167,5.167,0,0,1,5.282-5.2,1.219,1.219,0,0,0,.851-.247,8.773,8.773,0,0,1,4.992-2.049,36.835,36.835,0,0,1,7.489.058,7.309,7.309,0,0,1,6.135,6.712,1.714,1.714,0,0,1-.218,1.263.607.607,0,0,0-.075.582,10.769,10.769,0,0,1,.309,3.144c-.014.353.036.508.473.563a4.941,4.941,0,0,1,.011,9.838c-.411.054-.478.181-.5.549a12.211,12.211,0,0,1-3.36,7.934,1.071,1.071,0,0,0-.347.808c.02,1.341.03,2.683,0,4.024-.012.476.165.589.6.669,4.08.747,8.16,1.494,12.228,2.3a8.576,8.576,0,0,1,6.994,8.453C1676,145.877,1675.979,149.565,1675.979,153.254Zm-22.319-24v-1.018a12.505,12.505,0,0,1-12.329.008c-.015.194-.032.3-.03.4,0,.205.015.41.023.614a.6.6,0,0,0-.011.077c-.077,2.086-.078,2.089,1.9,2.747,1.412.47,2.827,1.3,4.24,1.294,1.439,0,2.88-.813,4.316-1.287C1653.773,131.426,1653.77,131.419,1653.661,129.255Zm8.7,17.954v0c.592,0,1.186.024,1.776-.017.524-.036.756.115.706.678-.045.5-.009,1.017-.009,1.531a1.313,1.313,0,0,0,.833-.3,4.873,4.873,0,0,1,2.871-.679c1.439.061,2.884,0,4.326.026.514.012.656-.161.649-.659-.026-1.8,0-3.6-.013-5.408a6.119,6.119,0,0,0-3.1-5.507,4.708,4.708,0,0,0-1.714-.672c-2.04-.4-4.084-.79-6.125-1.19-.656-.129-.541.185-.374.586q1.232,2.954,2.444,5.918c.445,1.088.113,1.736-1.034,1.983q-1.959.423-3.929.789c-.535.1-.8.237-.585.884.294.874.434,1.8.69,2.686a1.7,1.7,0,0,1-.12,1.339l-2.753,3.038a7.7,7.7,0,0,0,4.931-1.191.878.878,0,0,0,.533-.9C1662.336,149.169,1662.359,148.189,1662.362,147.209Zm-13.014-20.015a9.764,9.764,0,0,0,7.917-8.234,63.687,63.687,0,0,0,.138-7.032.727.727,0,0,0-.206-.481,30.54,30.54,0,0,1-4.2-7.181.525.525,0,0,0-.71-.373c-3.247-.009-6.495-.007-9.742-.039-.453,0-.551.255-.692.561a37.681,37.681,0,0,1-4.048,7,1.3,1.3,0,0,0-.224.865c0,1.752-.01,3.5,0,5.258A9.883,9.883,0,0,0,1649.348,127.194Zm17.521,39.823H1671a2.474,2.474,0,0,0,2.494-2.434c.027-2.32,0-4.64.017-6.96,0-.464-.155-.626-.616-.653q-7.982-.462-15.961-.955-2.853-.173-5.7-.353c-2.852-.183-5.7-.364-8.553-.564-.488-.035-.7.122-.737.621-.153,2.337-.306,4.674-.5,7.008-.055.654.2.815.8.906,4.754.728,9.5,1.532,14.255,2.232C1660.094,166.4,1663.662,167.347,1666.869,167.017Zm-28.785-14.774c-.834-.932-1.579-1.809-2.374-2.64a1.671,1.671,0,0,1-.482-1.815c.268-.857.386-1.763.675-2.611.222-.652-.056-.788-.589-.888-1.314-.245-2.627-.5-3.934-.785-1.144-.246-1.469-.9-1.021-1.991.808-1.977,1.627-3.951,2.442-5.926.068-.164.214-.347.109-.507-.118-.178-.325-.06-.5-.028-1.9.349-3.8.682-5.688,1.046a6.009,6.009,0,0,0-5.124,5.177,53.936,53.936,0,0,0-.113,6.792c-.01.467.332.371.6.373,1.263.006,2.529.055,3.789-.012a5.99,5.99,0,0,1,3.832.873c.114.077.257.185.449.042,0-.105,0-.233,0-.36.019-1.817.019-1.8,1.824-1.79.49,0,.692.117.665.642-.041.8-.009,1.6-.012,2.4,0,.289.008.529.327.707A7.872,7.872,0,0,0,1638.083,152.243Zm-16.6,3.01c0,1.288.013,2.576-.007,3.864-.006.367.1.5.474.476a47.172,47.172,0,0,1,10.37.826c.486.078.563-.1.616-.495q.352-2.6.747-5.2a.705.705,0,0,0-.447-.9c-1.83-.877-3.637-1.805-5.45-2.719a1.714,1.714,0,0,0-.809-.2c-1.649.01-3.3.02-4.947-.005-.437-.006-.566.118-.556.556C1621.5,152.728,1621.484,153.991,1621.484,155.253Zm30.743-2.627c.722.178,1.265-.257,1.783-.868.934-1.1,1.914-2.159,2.894-3.218a.89.89,0,0,0,.248-.962c-.333-1.188-.609-2.391-.9-3.592a1.25,1.25,0,0,1,1.1-1.74c1.284-.265,2.568-.537,3.859-.765.538-.095.617-.29.406-.775a37.978,37.978,0,0,1-1.741-4.289,2.951,2.951,0,0,0-3.064-2.477.932.932,0,0,1-.229-.036c-.552-.138-.8.033-.953.632-1.448,5.656-2.939,11.3-4.412,16.95C1650.908,152.665,1650.915,152.668,1652.227,152.626Zm-9.584.011c.284,0,.386,0,.49,0,.931.028.933.028.7-.865q-.414-1.607-.832-3.212c-1.229-4.7-2.466-9.4-3.675-14.111-.122-.474-.3-.664-.785-.559-.679.145-1.364.261-2.047.384a.8.8,0,0,0-.686.521q-1.2,2.972-2.447,5.922c-.215.5-.1.672.425.765,1.291.228,2.574.5,3.859.767a1.25,1.25,0,0,1,1.082,1.75c-.284,1.175-.551,2.355-.878,3.517a.946.946,0,0,0,.237,1.035c1,1.073,2,2.157,2.95,3.272C1641.524,152.391,1642.032,152.793,1642.642,152.637Zm-14.886,14.38a28.045,28.045,0,0,0,3.938-.118c2.212-.46,4.418-.947,6.625-1.431.246-.054.694-.008.579-.407-.1-.357.169-.927-.615-1.021-1.681-.2-3.344-.544-5.015-.819-3.672-.6-7.32-1.421-11.087-1.171-.51.034-.755.116-.709.682s0,1.133.011,1.7a2.5,2.5,0,0,0,2.576,2.584C1625.194,167.025,1626.328,167.017,1627.757,167.017Zm18.5-22.592c0,1.958.022,3.917-.01,5.874a9.782,9.782,0,0,0,.323,2.124c.128.631.594.441.972.458s.772.1.885-.471a10.351,10.351,0,0,0,.318-2.125c-.026-3.014-.011-6.028-.011-9.042,0-1.133,0-2.267,0-3.4,0-.441-.913-1.379-1.281-1.341a2.153,2.153,0,0,0-1.192,1.432Q1646.252,141.179,1646.254,144.424Zm15.824,9.264.052.146c.486.031.974.064,1.46.094,3.111.193,6.221.373,9.33.589.5.035.612-.106.592-.575-.036-.823-.032-1.649,0-2.472.017-.43-.1-.573-.549-.562-1.184.031-2.374.072-3.554-.006a5.994,5.994,0,0,0-3.447.819C1664.7,152.432,1663.374,153.038,1662.078,153.689Zm-22.632,2.429c.061-1.2.061-1.21-1.006-1.284-.564-.039-1.137-.01-1.693-.1-.5-.078-.621.136-.676.56-.22,1.681-.431,3.366-.707,5.038-.082.495.132.566.493.639.856.173,1.719.322,2.559.556.546.152.66-.038.689-.527C1639.205,159.335,1639.335,157.669,1639.446,156.118Zm8.172-54.73c1.034,0,1.9,0,2.77,0a.726.726,0,0,0,.54-.252q1.393-1.4,2.793-2.787c.315-.31.24-.433-.169-.538a12.224,12.224,0,0,0-2.694-.134c-.3-.009-.456.218-.615.416C1649.4,99.138,1648.573,100.188,1647.618,101.388Zm-10.022,5.784c.779-1.173,1.211-2.3,1.8-3.333a5.57,5.57,0,0,0,.679-3.107c-.026-.634-.287-.706-.766-.5a2.568,2.568,0,0,0-1.691,2.218C1637.524,103.949,1637.6,105.458,1637.6,107.172Zm9.721-9.407a6.554,6.554,0,0,0-4.073,1.152,2.117,2.117,0,0,0-.686,2.232.442.442,0,0,0,.114.189,3.814,3.814,0,0,0,1.867-.121C1645.462,100.087,1646.37,98.945,1647.317,97.766Zm-12.209,14.8c0-.693-.019-1.387.007-2.079.016-.417-.154-.46-.5-.385a2.483,2.483,0,0,0,.008,4.864c.359.073.514.008.5-.4C1635.089,113.906,1635.108,113.238,1635.108,112.57Zm24.77-.034c0,.669.015,1.338-.006,2-.012.357.06.513.467.438a2.491,2.491,0,0,0-.008-4.893c-.313-.052-.474-.01-.459.368C1659.9,111.147,1659.877,111.842,1659.877,112.536Zm-6.731,21.706-3.09,1.045,2.336,1.863Zm-10.548,2.906,2.348-1.872-3.1-1.022Zm14.718-30a6.751,6.751,0,0,0-.046-2.16c-.257-1.223-.381-1.321-1.654-1A14.016,14.016,0,0,0,1657.316,107.149Zm-.137-5.785a3.928,3.928,0,0,0-.732-1.619c-.139-.2-.312-.274-.5-.067a12.975,12.975,0,0,0-1.585,1.686Zm-13.435,38.044c-.758.709-.041,1.262,0,1.822Zm7.5,1.671c.518-1.032.519-1.193,0-1.546Z" transform="translate(-1619.005 -95.129)" fill="#020202"/>
      <path id="Trazado_628739" data-name="Trazado 628739" d="M1673.625,185.085c-3.207.33-6.775-.622-10.382-1.153-4.758-.7-9.5-1.5-14.255-2.232-.6-.091-.852-.252-.8-.906.2-2.334.349-4.671.5-7.008.032-.5.249-.655.737-.621,2.85.2,5.7.381,8.554.564q2.852.183,5.7.353,7.981.483,15.962.955c.461.027.619.189.616.653-.018,2.32.01,4.64-.017,6.96a2.474,2.474,0,0,1-2.494,2.434h-4.13Zm-15.6-4.952c1.177,0,1.177,0,1.177-1.185,0-1.293,0-1.293-1.3-1.293-1.177,0-1.177,0-1.177,1.185C1656.725,180.133,1656.725,180.133,1658.027,180.133Zm-6.256-1.313c.022,1.5-.178,1.3.972,1.31,1.506.015,1.506,0,1.507-1.007,0-1.467,0-1.467-1.05-1.467C1651.772,177.655,1651.772,177.655,1651.771,178.82Z" transform="translate(-1625.761 -113.197)" fill="#4f5d75"/>
      <path id="Trazado_628740" data-name="Trazado 628740" d="M1654.945,129.823a9.882,9.882,0,0,1-11.761-9.654c-.013-1.753,0-3.506,0-5.258a1.293,1.293,0,0,1,.224-.865,37.693,37.693,0,0,0,4.047-7c.141-.306.239-.566.692-.561,3.247.032,6.495.03,9.743.039a18.62,18.62,0,0,1,.62,4.9c-1.147.334-1.7.948-1.7,1.877s.549,1.538,1.7,1.88c0,1.955.044,3.911-.01,5.864a12.549,12.549,0,0,1-1.989,6.612C1656.025,128.4,1655.469,129.1,1654.945,129.823Zm-3.748-7.23a13,13,0,0,0,5.488-1.014c.579-.253.839-.486.361-1.074a5.619,5.619,0,0,1-.625-1.06c-.162-.329-.336-.369-.658-.192a6.97,6.97,0,0,1-1.667.581,14.579,14.579,0,0,1-4.067.266c-.551-.015-.677.145-.671.68C1649.382,122.594,1649.359,122.594,1651.2,122.594Zm-3.643-11.144a1.855,1.855,0,1,0,1.817,1.912A1.869,1.869,0,0,0,1647.554,111.449Z" transform="translate(-1624.602 -97.758)" fill="#f4c8a7"/>
      <path id="Trazado_628741" data-name="Trazado 628741" d="M1638.814,164.252a7.872,7.872,0,0,1-5.127-1.3c-.319-.178-.327-.418-.327-.707,0-.8-.028-1.6.013-2.4.027-.526-.176-.639-.665-.642-1.806-.009-1.806-.026-1.824,1.79,0,.128,0,.255,0,.36-.193.143-.336.035-.449-.042a5.991,5.991,0,0,0-3.832-.873c-1.26.067-2.526.018-3.789.012-.264,0-.606.095-.6-.373a53.936,53.936,0,0,1,.113-6.792,6.009,6.009,0,0,1,5.124-5.177c1.893-.363,3.792-.7,5.688-1.046.173-.032.38-.15.5.028.105.16-.041.343-.109.507-.814,1.975-1.633,3.948-2.441,5.926-.448,1.1-.122,1.745,1.021,1.991,1.307.281,2.619.539,3.934.785.532.1.811.235.589.888-.29.848-.407,1.754-.676,2.611a1.672,1.672,0,0,0,.482,1.815C1637.235,162.443,1637.98,163.32,1638.814,164.252Z" transform="translate(-1619.735 -107.138)" fill="#4f5d75"/>
      <path id="Trazado_628742" data-name="Trazado 628742" d="M1622.228,172.06c0-1.262.019-2.525-.01-3.786-.01-.438.118-.562.556-.556,1.649.025,3.3.015,4.947.005a1.714,1.714,0,0,1,.809.2c1.813.914,3.619,1.842,5.45,2.719a.705.705,0,0,1,.447.9q-.4,2.595-.747,5.2c-.054.4-.131.573-.616.495a47.167,47.167,0,0,0-10.369-.826c-.376.023-.48-.108-.474-.476C1622.24,174.636,1622.228,173.348,1622.228,172.06Z" transform="translate(-1619.749 -111.937)" fill="#f4c8a7"/>
      <path id="Trazado_628743" data-name="Trazado 628743" d="M1661.882,164.3c-1.312.041-1.319.039-1.01-1.141,1.474-5.649,2.965-11.294,4.412-16.95.154-.6.4-.771.953-.632a.932.932,0,0,0,.229.036,2.951,2.951,0,0,1,3.064,2.477,38.022,38.022,0,0,0,1.741,4.289c.21.486.131.681-.406.775-1.291.228-2.575.5-3.859.765a1.25,1.25,0,0,0-1.1,1.74c.291,1.2.567,2.4.9,3.592a.89.89,0,0,1-.248.962c-.98,1.059-1.96,2.119-2.894,3.218C1663.148,164.039,1662.6,164.473,1661.882,164.3Z" transform="translate(-1628.661 -106.799)" fill="#586885"/>
      <path id="Trazado_628744" data-name="Trazado 628744" d="M1646.939,164.308c-.611.156-1.119-.246-1.6-.814-.954-1.115-1.947-2.2-2.949-3.272a.945.945,0,0,1-.237-1.035c.327-1.163.595-2.342.878-3.517a1.25,1.25,0,0,0-1.082-1.75c-1.284-.266-2.568-.539-3.858-.767-.521-.092-.639-.26-.425-.765q1.255-2.947,2.447-5.922a.8.8,0,0,1,.686-.521c.683-.124,1.369-.239,2.047-.384.489-.1.662.085.785.559,1.209,4.708,2.446,9.408,3.675,14.111q.419,1.6.832,3.212c.23.894.228.894-.7.865C1647.325,164.305,1647.222,164.308,1646.939,164.308Z" transform="translate(-1623.301 -106.8)" fill="#586885"/>
      <path id="Trazado_628745" data-name="Trazado 628745" d="M1683.464,149.46a6.119,6.119,0,0,1,3.1,5.507c.016,1.8-.013,3.606.013,5.408.007.5-.135.671-.649.659-1.441-.031-2.886.035-4.325-.026a4.873,4.873,0,0,0-2.871.679,1.315,1.315,0,0,1-.833.3c0-.514-.035-1.026.01-1.531.05-.563-.182-.714-.706-.678-.59.041-1.185.014-1.777.017a4.551,4.551,0,0,1,1.365-1.712,63.011,63.011,0,0,0,4.949-5.949A10.26,10.26,0,0,0,1683.464,149.46Z" transform="translate(-1632.068 -107.71)" fill="#475369"/>
      <path id="Trazado_628746" data-name="Trazado 628746" d="M1658.491,129.826c.523-.72,1.08-1.419,1.564-2.164a12.549,12.549,0,0,0,1.989-6.612c.054-1.953.01-3.909.01-5.864,1.266-.128,2.01-.822,2.01-1.879s-.742-1.751-2.01-1.878a18.62,18.62,0,0,0-.62-4.9.525.525,0,0,1,.709.373,30.536,30.536,0,0,0,4.2,7.181.727.727,0,0,1,.206.481,63.687,63.687,0,0,1-.138,7.032A9.764,9.764,0,0,1,1658.491,129.826Z" transform="translate(-1628.148 -97.761)" fill="#f2c097"/>
      <path id="Trazado_628747" data-name="Trazado 628747" d="M1628.5,187.167c-1.429,0-2.563.008-3.7,0a2.5,2.5,0,0,1-2.576-2.584c-.007-.566.035-1.136-.011-1.7s.2-.649.709-.682c3.766-.25,7.414.568,11.087,1.171,1.671.275,3.334.619,5.015.819.784.094.513.663.615,1.021.115.4-.333.353-.579.407-2.207.484-4.413.971-6.625,1.431A28.048,28.048,0,0,1,1628.5,187.167Z" transform="translate(-1619.747 -115.28)" fill="#424e63"/>
      <path id="Trazado_628748" data-name="Trazado 628748" d="M1682.454,148.89a10.25,10.25,0,0,1-1.727,2.671,63.03,63.03,0,0,1-4.949,5.949,4.548,4.548,0,0,0-1.365,1.712l0,0c-.543.075-.749.582-1.117.879a4.186,4.186,0,0,1-1.592,1.116,1.7,1.7,0,0,0,.12-1.339c-.256-.888-.4-1.812-.69-2.686-.218-.648.051-.785.585-.884q1.97-.367,3.929-.789c1.146-.247,1.479-.9,1.034-1.983q-1.212-2.964-2.444-5.918c-.167-.4-.282-.715.374-.586,2.041.4,4.085.786,6.125,1.19A4.706,4.706,0,0,1,1682.454,148.89Z" transform="translate(-1631.058 -107.14)" fill="#4f5d74"/>
      <path id="Trazado_628749" data-name="Trazado 628749" d="M1654.461,156.89q0-3.246,0-6.492a2.154,2.154,0,0,1,1.192-1.432c.368-.038,1.279.9,1.281,1.341.007,1.133,0,2.267,0,3.4,0,3.014-.015,6.028.011,9.042a10.368,10.368,0,0,1-.318,2.125c-.113.571-.51.487-.885.471s-.844.173-.972-.458a9.8,9.8,0,0,1-.323-2.124C1654.483,160.807,1654.461,158.848,1654.461,156.89Z" transform="translate(-1627.212 -107.595)" fill="#4b8ed1"/>
      <path id="Trazado_628750" data-name="Trazado 628750" d="M1675.057,170.49c1.3-.651,2.619-1.256,3.882-1.966a5.994,5.994,0,0,1,3.447-.819c1.18.078,2.37.037,3.554.006.446-.012.566.131.549.562-.031.823-.035,1.649,0,2.472.021.469-.092.61-.592.575-3.108-.217-6.219-.4-9.33-.589-.486-.03-.974-.062-1.46-.094Z" transform="translate(-1631.984 -111.931)" fill="#f3c7a6"/>
      <path id="Trazado_628751" data-name="Trazado 628751" d="M1660.375,139.538c.11,2.164.112,2.171-1.888,2.832-1.436.474-2.876,1.285-4.315,1.287-1.413,0-2.828-.825-4.24-1.294-1.982-.659-1.981-.662-1.9-2.747a.668.668,0,0,1,.012-.077,11.237,11.237,0,0,0,12.336,0Z" transform="translate(-1625.719 -105.412)" fill="#f3c7a6"/>
      <path id="Trazado_628752" data-name="Trazado 628752" d="M1644.37,174.074c-.111,1.551-.241,3.218-.341,4.886-.029.489-.143.679-.689.527-.84-.234-1.7-.383-2.559-.556-.361-.073-.576-.144-.493-.639.276-1.672.487-3.357.707-5.038.056-.424.177-.639.676-.56.556.087,1.13.058,1.694.1C1644.43,172.864,1644.43,172.869,1644.37,174.074Z" transform="translate(-1623.929 -113.085)" fill="#dbdbd9"/>
      <path id="Trazado_628753" data-name="Trazado 628753" d="M1660.379,139.231a11.237,11.237,0,0,1-12.336,0c-.009-.2-.021-.409-.023-.614,0-.1.014-.2.03-.4a12.506,12.506,0,0,0,12.329-.008Z" transform="translate(-1625.723 -105.105)" fill="#efb589"/>
      <path id="Trazado_628754" data-name="Trazado 628754" d="M1671.071,164.9a4.185,4.185,0,0,0,1.591-1.116c.369-.3.574-.8,1.117-.879,0,.98-.026,1.96,0,2.939a.878.878,0,0,1-.533.9,7.7,7.7,0,0,1-4.931,1.191Z" transform="translate(-1630.423 -110.822)" fill="#475369"/>
      <path id="Trazado_628755" data-name="Trazado 628755" d="M1656.239,102.154c.956-1.2,1.787-2.25,2.626-3.293.158-.2.311-.425.615-.416a12.226,12.226,0,0,1,2.694.134c.409.1.484.227.169.538q-1.4,1.387-2.793,2.787a.726.726,0,0,1-.54.252C1658.141,102.15,1657.273,102.154,1656.239,102.154Z" transform="translate(-1627.626 -95.895)" fill="#71442e"/>
      <path id="Trazado_628756" data-name="Trazado 628756" d="M1643.19,108.679c0-1.714-.072-3.224.025-4.721a2.568,2.568,0,0,1,1.691-2.218c.479-.207.739-.134.765.5a5.571,5.571,0,0,1-.679,3.107C1644.4,106.381,1643.969,107.506,1643.19,108.679Z" transform="translate(-1624.599 -96.636)" fill="#663d28"/>
      <path id="Trazado_628757" data-name="Trazado 628757" d="M1654.385,98.551c-.947,1.18-1.855,2.321-2.777,3.453a3.815,3.815,0,0,1-1.868.121.441.441,0,0,1-.114-.189,2.117,2.117,0,0,1,.686-2.232A6.553,6.553,0,0,1,1654.385,98.551Z" transform="translate(-1626.073 -95.915)" fill="#71442e"/>
      <path id="Trazado_628758" data-name="Trazado 628758" d="M1639.213,117.073c0,.668-.019,1.336.008,2,.017.406-.137.47-.5.4a2.483,2.483,0,0,1-.008-4.864c.351-.075.521-.032.505.385C1639.194,115.686,1639.213,116.38,1639.213,117.073Z" transform="translate(-1623.11 -99.633)" fill="#efb589"/>
      <path id="Trazado_628759" data-name="Trazado 628759" d="M1672.191,117.037c0-.694.018-1.389-.007-2.082-.015-.378.146-.42.459-.368a2.491,2.491,0,0,1,.008,4.893c-.407.075-.479-.081-.467-.438C1672.206,118.375,1672.191,117.706,1672.191,117.037Z" transform="translate(-1631.318 -99.631)" fill="#efb589"/>
      <path id="Trazado_628760" data-name="Trazado 628760" d="M1662.5,146.028l-.755,2.908-2.336-1.863Z" transform="translate(-1628.361 -106.915)" fill="#dbdbd9"/>
      <path id="Trazado_628761" data-name="Trazado 628761" d="M1649.479,148.937l-.755-2.894,3.1,1.022Z" transform="translate(-1625.886 -106.918)" fill="#dbdbd9"/>
      <path id="Trazado_628762" data-name="Trazado 628762" d="M1668.348,109.772a14.006,14.006,0,0,1-1.7-3.156c1.273-.325,1.4-.227,1.654,1A6.765,6.765,0,0,1,1668.348,109.772Z" transform="translate(-1630.037 -97.752)" fill="#663d28"/>
      <path id="Trazado_628763" data-name="Trazado 628763" d="M1667.831,102.7h-2.822a12.975,12.975,0,0,1,1.585-1.686c.193-.207.366-.131.5.067A3.929,3.929,0,0,1,1667.831,102.7Z" transform="translate(-1629.657 -96.463)" fill="#71442e"/>
      <path id="Trazado_628764" data-name="Trazado 628764" d="M1651.094,152.751v1.822C1651.052,154.013,1650.335,153.46,1651.094,152.751Z" transform="translate(-1626.355 -108.472)" fill="#efb589"/>
      <path id="Trazado_628765" data-name="Trazado 628765" d="M1660.953,154.459v-1.546C1661.472,153.266,1661.471,153.427,1660.953,154.459Z" transform="translate(-1628.718 -108.509)" fill="#efb589"/>
      <path id="Trazado_628766" data-name="Trazado 628766" d="M1660.6,181.487c-1.3,0-1.3,0-1.3-1.293,0-1.185,0-1.185,1.177-1.185,1.3,0,1.3,0,1.3,1.293C1661.777,181.487,1661.777,181.487,1660.6,181.487Z" transform="translate(-1628.335 -114.552)" fill="#020202"/>
      <path id="Trazado_628767" data-name="Trazado 628767" d="M1652.852,180.174c0-1.165,0-1.165,1.429-1.164,1.05,0,1.05,0,1.05,1.467,0,1.011,0,1.022-1.507,1.007C1652.674,181.473,1652.874,181.674,1652.852,180.174Z" transform="translate(-1626.842 -114.552)" fill="#020202"/>
      <path id="Trazado_628768" data-name="Trazado 628768" d="M1653.06,126.41c-1.839,0-1.816,0-1.838-1.813-.006-.535.12-.7.671-.68a14.582,14.582,0,0,0,4.067-.266,6.976,6.976,0,0,0,1.667-.581c.321-.177.5-.137.658.192a5.611,5.611,0,0,0,.625,1.06c.478.589.218.821-.361,1.074A13,13,0,0,1,1653.06,126.41Z" transform="translate(-1626.465 -101.575)" fill="#040303"/>
      <path id="Trazado_628769" data-name="Trazado 628769" d="M1648.3,112.946a1.855,1.855,0,1,1-1.892,1.836A1.873,1.873,0,0,1,1648.3,112.946Z" transform="translate(-1625.351 -99.255)" fill="#040303"/>
      <path id="Trazado_628770" data-name="Trazado 628770" d="M1662.615,112.916c1.268.128,2.009.82,2.01,1.878s-.744,1.751-2.01,1.879c-1.151-.342-1.7-.945-1.7-1.88S1661.468,113.25,1662.615,112.916Z" transform="translate(-1628.709 -99.248)" fill="#040303"/>
    </g>
  </g>
</svg>
