<svg xmlns="http://www.w3.org/2000/svg" width="125" height="125" viewBox="0 0 125 125">
  <g id="Grupo_969983" data-name="Grupo 969983" transform="translate(-1157 -6949)">
    <circle id="Elipse_7708" data-name="Elipse 7708" cx="62.5" cy="62.5" r="62.5" transform="translate(1157 6949)" fill="#ef8b53"/>
    <g id="Grupo_952165" data-name="Grupo 952165" transform="translate(-428.993 6871.052)">
      <path id="Trazado_628738" data-name="Trazado 628738" d="M1679.973,157.329q0,5.879,0,11.758a5.311,5.311,0,0,1-5.591,5.62c-.938,0-1.88-.048-2.816.009a52.112,52.112,0,0,1-11.67-1.064c-4.27-.7-8.546-1.368-12.822-2.037a5.375,5.375,0,0,0-1.943.322q-6.1,1.3-12.191,2.652a5.254,5.254,0,0,1-1.147.12q-3.561,0-7.123,0a5.312,5.312,0,0,1-5.663-5.63q-.006-11.552,0-23.1a9.341,9.341,0,0,1,8.145-9.687c4.177-.749,8.345-1.557,12.522-2.318.4-.074.555-.2.547-.627-.024-1.463-.021-2.926,0-4.389a1.142,1.142,0,0,0-.375-.863,13.02,13.02,0,0,1-3.59-8.491c-.021-.405-.109-.524-.539-.581a5.288,5.288,0,0,1,.024-10.529c.474-.058.505-.235.5-.606-.012-1.518-.018-3.036,0-4.554a5.529,5.529,0,0,1,5.652-5.569,1.3,1.3,0,0,0,.911-.264,9.388,9.388,0,0,1,5.342-2.193,39.416,39.416,0,0,1,8.013.063,7.822,7.822,0,0,1,6.565,7.182,1.834,1.834,0,0,1-.234,1.352.649.649,0,0,0-.081.623,11.526,11.526,0,0,1,.33,3.364c-.016.377.038.544.506.6a5.287,5.287,0,0,1,.012,10.528c-.44.058-.511.193-.532.588a13.067,13.067,0,0,1-3.6,8.49,1.146,1.146,0,0,0-.371.865c.021,1.435.032,2.871,0,4.306-.013.509.177.63.641.715,4.366.8,8.731,1.6,13.085,2.46a9.177,9.177,0,0,1,7.485,9.046C1680,149.434,1679.973,153.382,1679.973,157.329Zm-23.883-25.681v-1.09a13.382,13.382,0,0,1-13.193.008c-.016.208-.034.317-.032.425,0,.22.016.438.025.657a.659.659,0,0,0-.012.082c-.082,2.232-.083,2.235,2.037,2.94,1.511.5,3.025,1.386,4.537,1.385,1.54,0,3.082-.87,4.618-1.377C1656.21,133.971,1656.208,133.963,1656.09,131.648Zm9.311,19.213,0,0c.633,0,1.269.025,1.9-.018.561-.039.809.123.756.725-.048.54-.01,1.088-.01,1.638a1.405,1.405,0,0,0,.891-.319,5.215,5.215,0,0,1,3.072-.726c1.54.066,3.086,0,4.629.028.55.012.7-.172.694-.706-.028-1.928,0-3.858-.014-5.787a6.548,6.548,0,0,0-3.315-5.893,5.037,5.037,0,0,0-1.833-.719c-2.183-.433-4.371-.845-6.555-1.274-.7-.138-.579.2-.4.627q1.319,3.161,2.615,6.333c.476,1.164.121,1.858-1.106,2.122q-2.1.453-4.2.845c-.573.106-.86.253-.626.946.315.935.464,1.924.738,2.874A1.821,1.821,0,0,1,1662.5,153l-2.946,3.251a8.236,8.236,0,0,0,5.277-1.275.939.939,0,0,0,.57-.967C1665.373,152.957,1665.4,151.909,1665.4,150.86Zm-13.926-21.418a10.448,10.448,0,0,0,8.472-8.811,68.113,68.113,0,0,0,.147-7.525.778.778,0,0,0-.22-.515,32.679,32.679,0,0,1-4.491-7.685.562.562,0,0,0-.76-.4c-3.475-.01-6.95-.007-10.425-.042-.485,0-.59.273-.741.6a40.338,40.338,0,0,1-4.331,7.494,1.385,1.385,0,0,0-.239.925c0,1.875-.011,3.751,0,5.626A10.575,10.575,0,0,0,1651.475,129.442Zm18.749,42.614h4.419a2.647,2.647,0,0,0,2.669-2.6c.029-2.483,0-4.965.018-7.448,0-.5-.166-.67-.66-.7q-8.541-.495-17.08-1.022-3.053-.185-6.1-.378c-3.052-.2-6.1-.39-9.153-.6-.522-.037-.754.131-.789.664-.164,2.5-.327,5-.537,7.5-.059.7.216.872.854.97,5.088.78,10.162,1.64,15.254,2.389C1662.974,171.391,1666.793,172.409,1670.224,172.057Zm-30.8-15.81c-.892-1-1.69-1.936-2.54-2.826a1.789,1.789,0,0,1-.516-1.942c.287-.917.413-1.886.723-2.794.238-.7-.06-.844-.63-.95-1.406-.262-2.811-.539-4.21-.84-1.224-.263-1.572-.959-1.093-2.131.865-2.116,1.741-4.228,2.613-6.341.073-.176.229-.372.117-.543-.126-.19-.348-.064-.533-.03-2.029.373-4.062.73-6.087,1.119a6.43,6.43,0,0,0-5.483,5.54,57.712,57.712,0,0,0-.121,7.269c-.011.5.355.4.638.4,1.352.007,2.706.059,4.055-.012a6.41,6.41,0,0,1,4.1.934c.122.082.275.2.481.045,0-.113,0-.249,0-.386.02-1.944.02-1.926,1.952-1.916.524,0,.74.125.712.687-.044.853-.009,1.709-.013,2.564,0,.309.008.566.35.757A8.424,8.424,0,0,0,1639.421,156.247Zm-17.763,3.221c0,1.378.013,2.756-.008,4.135-.006.393.1.534.507.509a50.477,50.477,0,0,1,11.1.884c.52.084.6-.1.659-.53q.376-2.784.8-5.56a.755.755,0,0,0-.479-.959c-1.959-.938-3.892-1.932-5.832-2.909a1.834,1.834,0,0,0-.866-.211c-1.765.011-3.529.021-5.294-.006-.468-.007-.605.127-.594.6C1621.677,156.765,1621.657,158.117,1621.657,159.468Zm32.9-2.811c.772.19,1.354-.275,1.908-.928,1-1.177,2.048-2.311,3.1-3.444a.953.953,0,0,0,.266-1.03c-.356-1.271-.652-2.559-.963-3.844a1.337,1.337,0,0,1,1.174-1.862c1.374-.284,2.748-.575,4.13-.819.575-.1.66-.31.435-.83a40.631,40.631,0,0,1-1.863-4.59,3.158,3.158,0,0,0-3.279-2.651,1,1,0,0,1-.245-.039c-.59-.148-.855.035-1.02.677-1.549,6.052-3.145,12.093-4.722,18.138C1653.145,156.7,1653.152,156.7,1654.556,156.657Zm-10.256.012c.3,0,.414,0,.524,0,1,.03,1,.03.753-.926q-.443-1.719-.89-3.437c-1.315-5.033-2.639-10.063-3.932-15.1-.131-.507-.316-.71-.84-.6-.726.155-1.46.279-2.191.411a.856.856,0,0,0-.734.558q-1.281,3.18-2.618,6.338c-.23.54-.1.72.454.818,1.382.244,2.755.536,4.129.821a1.338,1.338,0,0,1,1.158,1.872c-.3,1.257-.59,2.52-.94,3.764a1.012,1.012,0,0,0,.254,1.108c1.073,1.148,2.135,2.308,3.156,3.5C1643.1,156.405,1643.646,156.835,1644.3,156.668Zm-15.929,15.388a30.012,30.012,0,0,0,4.215-.127c2.367-.492,4.728-1.013,7.09-1.531.263-.058.743-.008.62-.436-.109-.382.18-.992-.659-1.092-1.8-.214-3.578-.582-5.366-.877-3.93-.646-7.833-1.52-11.864-1.253-.546.036-.807.124-.759.73s0,1.212.012,1.818a2.676,2.676,0,0,0,2.756,2.765C1625.628,172.066,1626.841,172.057,1628.37,172.057Zm19.794-24.176c0,2.1.023,4.191-.011,6.286a10.466,10.466,0,0,0,.345,2.273c.137.675.636.472,1.04.49s.826.107.947-.5a11.083,11.083,0,0,0,.34-2.274c-.027-3.225-.012-6.451-.012-9.676,0-1.213.005-2.426,0-3.639,0-.472-.977-1.476-1.371-1.435a2.3,2.3,0,0,0-1.276,1.532Q1648.162,144.407,1648.164,147.88Zm16.933,9.914.056.156c.521.034,1.042.068,1.562.1,3.329.206,6.658.4,9.984.631.535.038.655-.113.634-.615-.039-.881-.035-1.765,0-2.645.018-.46-.111-.613-.588-.6-1.267.033-2.54.077-3.8-.007a6.414,6.414,0,0,0-3.689.877C1667.9,156.45,1666.485,157.1,1665.1,157.794Zm-24.219,2.6c.065-1.289.065-1.3-1.077-1.374-.6-.042-1.217-.011-1.812-.1-.535-.084-.664.146-.724.6-.235,1.8-.461,3.6-.756,5.391-.088.53.141.606.528.684.916.185,1.84.345,2.738.6.585.163.707-.041.738-.564C1640.621,163.837,1640.76,162.053,1640.879,160.394Zm8.745-58.567c1.107,0,2.036,0,2.964,0a.778.778,0,0,0,.578-.27q1.491-1.495,2.989-2.983c.337-.332.257-.464-.181-.576a13.08,13.08,0,0,0-2.883-.144c-.325-.01-.489.234-.658.445C1651.535,99.419,1650.646,100.542,1649.623,101.827Zm-10.724,6.19c.834-1.256,1.3-2.459,1.928-3.566a5.96,5.96,0,0,0,.727-3.325c-.028-.678-.307-.756-.819-.535a2.748,2.748,0,0,0-1.809,2.373C1638.822,104.567,1638.9,106.182,1638.9,108.017Zm10.4-10.066a7.014,7.014,0,0,0-4.358,1.233,2.266,2.266,0,0,0-.734,2.389.474.474,0,0,0,.122.2,4.082,4.082,0,0,0,2-.129C1647.317,100.435,1648.289,99.213,1649.3,97.95Zm-13.065,15.842c0-.742-.021-1.484.008-2.225.017-.447-.165-.492-.54-.412a2.657,2.657,0,0,0,.008,5.205c.385.078.55.009.532-.425C1636.216,115.223,1636.237,114.507,1636.237,113.793Zm26.506-.036c0,.715.016,1.432-.007,2.145-.012.382.064.549.5.469a2.666,2.666,0,0,0-.009-5.236c-.335-.056-.507-.011-.492.394C1662.762,112.27,1662.743,113.014,1662.743,113.756Zm-7.2,23.228-3.307,1.118,2.5,1.993Zm-11.288,3.109,2.513-2L1643.443,137Zm15.75-32.1a7.22,7.22,0,0,0-.049-2.312c-.275-1.308-.408-1.414-1.77-1.066A15,15,0,0,0,1660,107.992Zm-.147-6.19a4.2,4.2,0,0,0-.784-1.733c-.149-.212-.334-.294-.54-.072a13.882,13.882,0,0,0-1.7,1.8Zm-14.377,40.712c-.811.759-.044,1.35,0,1.95Zm8.022,1.788c.554-1.1.555-1.276,0-1.654Z" transform="translate(0 0)" fill="#020202"/>
      <path id="Trazado_628739" data-name="Trazado 628739" d="M1675.409,185.921c-3.432.353-7.25-.665-11.11-1.233-5.092-.749-10.167-1.609-15.254-2.389-.637-.1-.912-.27-.853-.97.21-2.5.373-5,.537-7.5.034-.534.266-.7.789-.664,3.05.214,6.1.408,9.153.6q3.052.2,6.1.378,8.541.517,17.08,1.022c.493.029.663.2.659.7-.02,2.483.011,4.965-.018,7.448a2.647,2.647,0,0,1-2.669,2.6h-4.419Zm-16.692-5.3c1.259,0,1.259,0,1.259-1.268,0-1.383,0-1.383-1.392-1.383-1.26,0-1.26,0-1.26,1.268C1657.324,180.622,1657.324,180.622,1658.717,180.622Zm-6.694-1.405c.024,1.605-.19,1.39,1.04,1.4,1.612.016,1.612,0,1.613-1.078,0-1.57,0-1.57-1.123-1.57C1652.023,177.97,1652.023,177.97,1652.023,179.216Z" transform="translate(-5.184 -13.864)" fill="#4f5d75"/>
      <path id="Trazado_628740" data-name="Trazado 628740" d="M1655.77,131.459a10.575,10.575,0,0,1-12.585-10.331c-.014-1.876,0-3.751,0-5.626a1.385,1.385,0,0,1,.239-.925,40.331,40.331,0,0,0,4.331-7.494c.151-.327.256-.605.741-.6,3.475.035,6.95.032,10.426.042a19.927,19.927,0,0,1,.664,5.248c-1.228.358-1.822,1.014-1.818,2.009s.587,1.645,1.818,2.011c0,2.092.047,4.185-.011,6.275a13.43,13.43,0,0,1-2.128,7.075C1656.926,129.941,1656.33,130.689,1655.77,131.459Zm-4.01-7.736a13.913,13.913,0,0,0,5.872-1.085c.619-.271.9-.52.386-1.15a6.021,6.021,0,0,1-.669-1.134c-.173-.352-.36-.395-.7-.206a7.461,7.461,0,0,1-1.784.622,15.6,15.6,0,0,1-4.352.285c-.59-.016-.724.155-.718.728C1649.817,123.723,1649.792,123.724,1651.76,123.723Zm-3.9-11.925a1.985,1.985,0,1,0,1.945,2.046A2,2,0,0,0,1647.861,111.8Z" transform="translate(-4.295 -2.017)" fill="#f4c8a7"/>
      <path id="Trazado_628741" data-name="Trazado 628741" d="M1639.981,165.462a8.423,8.423,0,0,1-5.486-1.4c-.341-.191-.35-.447-.35-.757,0-.855-.03-1.711.013-2.564.028-.562-.188-.684-.712-.687-1.932-.01-1.932-.028-1.952,1.916,0,.137,0,.273,0,.386-.206.153-.359.037-.481-.045a6.409,6.409,0,0,0-4.1-.934c-1.349.072-2.7.019-4.055.012-.283,0-.649.1-.638-.4a57.735,57.735,0,0,1,.121-7.269,6.43,6.43,0,0,1,5.483-5.54c2.025-.389,4.058-.746,6.087-1.119.185-.035.407-.16.533.03.113.171-.044.367-.117.543-.871,2.113-1.748,4.225-2.613,6.341-.479,1.172-.131,1.868,1.093,2.131,1.4.3,2.8.577,4.209.84.57.106.868.252.63.95-.31.908-.436,1.877-.723,2.794a1.789,1.789,0,0,0,.516,1.942C1638.291,163.526,1639.089,164.464,1639.981,165.462Z" transform="translate(-0.56 -9.215)" fill="#4f5d75"/>
      <path id="Trazado_628742" data-name="Trazado 628742" d="M1622.228,172.365c0-1.35.02-2.7-.01-4.052-.011-.469.126-.6.594-.6,1.765.027,3.529.016,5.294.006a1.834,1.834,0,0,1,.866.211c1.94.978,3.873,1.971,5.832,2.909a.755.755,0,0,1,.479.959q-.423,2.777-.8,5.56c-.058.425-.14.613-.66.53a50.474,50.474,0,0,0-11.1-.884c-.4.025-.514-.116-.507-.509C1622.242,175.121,1622.228,173.743,1622.228,172.365Z" transform="translate(-0.571 -12.897)" fill="#f4c8a7"/>
      <path id="Trazado_628743" data-name="Trazado 628743" d="M1661.965,165.611c-1.4.044-1.411.042-1.081-1.221,1.577-6.045,3.172-12.086,4.721-18.138.165-.641.429-.825,1.02-.677a1,1,0,0,0,.245.039,3.158,3.158,0,0,1,3.279,2.651,40.7,40.7,0,0,0,1.863,4.59c.225.52.141.729-.435.83-1.382.244-2.756.535-4.13.819a1.337,1.337,0,0,0-1.175,1.862c.311,1.284.607,2.572.963,3.844a.952.952,0,0,1-.266,1.03c-1.049,1.133-2.1,2.267-3.1,3.444C1663.319,165.337,1662.737,165.8,1661.965,165.611Z" transform="translate(-7.409 -8.955)" fill="#586885"/>
      <path id="Trazado_628744" data-name="Trazado 628744" d="M1647.6,165.624c-.654.167-1.2-.263-1.717-.871-1.021-1.193-2.083-2.354-3.156-3.5a1.011,1.011,0,0,1-.254-1.108c.35-1.244.636-2.506.94-3.764a1.338,1.338,0,0,0-1.158-1.872c-1.374-.285-2.748-.576-4.129-.821-.557-.1-.684-.278-.455-.818q1.343-3.154,2.618-6.338a.855.855,0,0,1,.734-.558c.731-.132,1.464-.256,2.191-.411.524-.112.709.091.84.6,1.293,5.038,2.617,10.068,3.932,15.1q.448,1.717.89,3.437c.246.956.244.956-.752.926C1648.01,165.621,1647.9,165.624,1647.6,165.624Z" transform="translate(-3.297 -8.955)" fill="#586885"/>
      <path id="Trazado_628745" data-name="Trazado 628745" d="M1684.028,149.46a6.548,6.548,0,0,1,3.315,5.893c.016,1.929-.014,3.858.014,5.787.007.534-.144.718-.694.706-1.542-.033-3.088.038-4.629-.028a5.216,5.216,0,0,0-3.072.726,1.406,1.406,0,0,1-.891.319c0-.55-.038-1.1.01-1.638.053-.6-.195-.764-.756-.725-.631.044-1.267.015-1.9.018a4.87,4.87,0,0,1,1.46-1.832,67.493,67.493,0,0,0,5.3-6.366A10.982,10.982,0,0,0,1684.028,149.46Z" transform="translate(-10.024 -9.653)" fill="#475369"/>
      <path id="Trazado_628746" data-name="Trazado 628746" d="M1658.491,131.461c.56-.771,1.155-1.518,1.673-2.316a13.428,13.428,0,0,0,2.128-7.075c.057-2.09.011-4.183.011-6.275,1.355-.137,2.151-.88,2.151-2.011s-.794-1.873-2.151-2.01a19.932,19.932,0,0,0-.664-5.248.562.562,0,0,1,.759.4,32.683,32.683,0,0,0,4.491,7.685.778.778,0,0,1,.22.515,68.173,68.173,0,0,1-.147,7.525A10.448,10.448,0,0,1,1658.491,131.461Z" transform="translate(-7.016 -2.019)" fill="#f2c097"/>
      <path id="Trazado_628747" data-name="Trazado 628747" d="M1628.94,187.519c-1.529,0-2.742.009-3.955,0a2.676,2.676,0,0,1-2.756-2.765c-.007-.606.037-1.215-.012-1.818s.213-.694.759-.73c4.03-.267,7.934.608,11.864,1.253,1.788.294,3.568.663,5.366.877.839.1.549.71.659,1.092.123.428-.357.378-.62.436-2.361.518-4.723,1.039-7.09,1.531A30.011,30.011,0,0,1,1628.94,187.519Z" transform="translate(-0.57 -15.462)" fill="#424e63"/>
      <path id="Trazado_628748" data-name="Trazado 628748" d="M1683.253,149.023a10.976,10.976,0,0,1-1.848,2.858,67.471,67.471,0,0,1-5.3,6.366,4.868,4.868,0,0,0-1.461,1.832l0,0c-.581.08-.8.623-1.2.941a4.478,4.478,0,0,1-1.7,1.194,1.822,1.822,0,0,0,.128-1.433c-.274-.95-.424-1.939-.739-2.874-.234-.693.054-.84.627-.947q2.108-.392,4.2-.845c1.227-.265,1.582-.958,1.106-2.122q-1.3-3.171-2.615-6.333c-.178-.429-.3-.766.4-.627,2.184.428,4.371.841,6.555,1.274A5.038,5.038,0,0,1,1683.253,149.023Z" transform="translate(-9.249 -9.216)" fill="#4f5d74"/>
      <path id="Trazado_628749" data-name="Trazado 628749" d="M1654.462,157.446q0-3.473,0-6.947a2.3,2.3,0,0,1,1.275-1.532c.394-.041,1.368.963,1.371,1.435.007,1.213,0,2.426,0,3.639,0,3.225-.016,6.451.011,9.676a11.092,11.092,0,0,1-.341,2.274c-.121.611-.546.521-.947.5s-.9.185-1.04-.49a10.481,10.481,0,0,1-.345-2.273C1654.485,161.637,1654.462,159.541,1654.462,157.446Z" transform="translate(-6.298 -9.565)" fill="#4b8ed1"/>
      <path id="Trazado_628750" data-name="Trazado 628750" d="M1675.057,170.687c1.387-.7,2.8-1.345,4.155-2.1a6.414,6.414,0,0,1,3.689-.877c1.263.084,2.536.039,3.8.007.477-.012.606.141.588.6-.034.881-.038,1.765,0,2.645.022.5-.1.653-.633.615-3.326-.232-6.655-.424-9.984-.631-.52-.032-1.042-.067-1.562-.1Z" transform="translate(-9.959 -12.892)" fill="#f3c7a6"/>
      <path id="Trazado_628751" data-name="Trazado 628751" d="M1661.243,139.538c.118,2.316.12,2.323-2.021,3.03-1.536.507-3.078,1.375-4.618,1.377-1.512,0-3.026-.882-4.537-1.385-2.121-.7-2.12-.708-2.038-2.94a.707.707,0,0,1,.012-.082,12.024,12.024,0,0,0,13.2,0Z" transform="translate(-5.152 -7.89)" fill="#f3c7a6"/>
      <path id="Trazado_628752" data-name="Trazado 628752" d="M1644.657,174.172c-.119,1.659-.258,3.443-.365,5.228-.031.523-.153.727-.738.564-.9-.251-1.822-.41-2.738-.6-.387-.078-.616-.155-.528-.684.295-1.789.521-3.592.756-5.391.059-.454.189-.683.724-.6.6.093,1.209.062,1.812.1C1644.722,172.877,1644.722,172.883,1644.657,174.172Z" transform="translate(-3.778 -13.778)" fill="#dbdbd9"/>
      <path id="Trazado_628753" data-name="Trazado 628753" d="M1661.245,139.3a12.024,12.024,0,0,1-13.2,0c-.009-.219-.022-.437-.025-.657,0-.109.016-.217.032-.425a13.382,13.382,0,0,0,13.193-.008Z" transform="translate(-5.155 -7.655)" fill="#efb589"/>
      <path id="Trazado_628754" data-name="Trazado 628754" d="M1671.264,165.037a4.479,4.479,0,0,0,1.7-1.194c.395-.318.614-.861,1.2-.941,0,1.048-.028,2.1,0,3.145a.94.94,0,0,1-.571.967,8.235,8.235,0,0,1-5.277,1.275Z" transform="translate(-8.762 -12.042)" fill="#475369"/>
      <path id="Trazado_628755" data-name="Trazado 628755" d="M1656.239,102.415c1.023-1.284,1.912-2.408,2.81-3.524.169-.211.333-.455.658-.445a13.082,13.082,0,0,1,2.883.144c.437.112.518.243.181.576q-1.5,1.484-2.989,2.983a.777.777,0,0,1-.578.27C1658.275,102.411,1657.346,102.415,1656.239,102.415Z" transform="translate(-6.616 -0.588)" fill="#71442e"/>
      <path id="Trazado_628756" data-name="Trazado 628756" d="M1643.192,109.173c0-1.835-.077-3.45.027-5.052a2.749,2.749,0,0,1,1.809-2.373c.512-.221.791-.144.819.535a5.962,5.962,0,0,1-.727,3.325C1644.488,106.714,1644.026,107.917,1643.192,109.173Z" transform="translate(-4.292 -1.156)" fill="#663d28"/>
      <path id="Trazado_628757" data-name="Trazado 628757" d="M1654.726,98.553c-1.013,1.262-1.985,2.484-2.972,3.695a4.083,4.083,0,0,1-2,.129.474.474,0,0,1-.122-.2,2.266,2.266,0,0,1,.734-2.389A7.013,7.013,0,0,1,1654.726,98.553Z" transform="translate(-5.424 -0.603)" fill="#71442e"/>
      <path id="Trazado_628758" data-name="Trazado 628758" d="M1639.387,117.248c0,.715-.02,1.43.008,2.143.018.434-.147.5-.532.425a2.657,2.657,0,0,1-.008-5.205c.375-.08.558-.035.54.412C1639.367,115.764,1639.387,116.507,1639.387,117.248Z" transform="translate(-3.15 -3.456)" fill="#efb589"/>
      <path id="Trazado_628759" data-name="Trazado 628759" d="M1672.191,117.21c0-.743.02-1.486-.007-2.228-.016-.4.156-.45.492-.394a2.666,2.666,0,0,1,.009,5.236c-.436.081-.512-.086-.5-.469C1672.208,118.642,1672.191,117.926,1672.191,117.21Z" transform="translate(-9.448 -3.454)" fill="#efb589"/>
      <path id="Trazado_628760" data-name="Trazado 628760" d="M1662.719,146.028l-.807,3.112-2.5-1.993Z" transform="translate(-7.18 -9.043)" fill="#dbdbd9"/>
      <path id="Trazado_628761" data-name="Trazado 628761" d="M1649.532,149.14l-.808-3.1,3.321,1.094Z" transform="translate(-5.28 -9.046)" fill="#dbdbd9"/>
      <path id="Trazado_628762" data-name="Trazado 628762" d="M1668.467,110a14.991,14.991,0,0,1-1.819-3.377c1.362-.348,1.494-.243,1.77,1.066A7.242,7.242,0,0,1,1668.467,110Z" transform="translate(-8.465 -2.013)" fill="#663d28"/>
      <path id="Trazado_628763" data-name="Trazado 628763" d="M1668.028,102.825h-3.02a13.882,13.882,0,0,1,1.7-1.8c.206-.222.391-.141.54.072A4.2,4.2,0,0,1,1668.028,102.825Z" transform="translate(-8.174 -1.023)" fill="#71442e"/>
      <path id="Trazado_628764" data-name="Trazado 628764" d="M1651.118,152.751v1.95C1651.073,154.1,1650.306,153.51,1651.118,152.751Z" transform="translate(-5.64 -10.238)" fill="#efb589"/>
      <path id="Trazado_628765" data-name="Trazado 628765" d="M1660.953,154.567v-1.654C1661.508,153.291,1661.507,153.463,1660.953,154.567Z" transform="translate(-7.453 -10.267)" fill="#efb589"/>
      <path id="Trazado_628766" data-name="Trazado 628766" d="M1660.692,181.661c-1.393,0-1.393,0-1.393-1.383,0-1.268,0-1.268,1.26-1.268,1.393,0,1.393,0,1.392,1.383C1661.951,181.661,1661.951,181.661,1660.692,181.661Z" transform="translate(-7.159 -14.904)" fill="#020202"/>
      <path id="Trazado_628767" data-name="Trazado 628767" d="M1652.852,180.256c0-1.247,0-1.247,1.53-1.246,1.123,0,1.123,0,1.123,1.57,0,1.082,0,1.094-1.613,1.078C1652.662,181.646,1652.876,181.861,1652.852,180.256Z" transform="translate(-6.014 -14.904)" fill="#020202"/>
      <path id="Trazado_628768" data-name="Trazado 628768" d="M1653.189,126.652c-1.968,0-1.943,0-1.967-1.94-.007-.572.128-.744.718-.728a15.6,15.6,0,0,0,4.352-.285,7.461,7.461,0,0,0,1.784-.622c.344-.189.53-.146.7.206a6,6,0,0,0,.668,1.134c.512.63.233.879-.387,1.15A13.912,13.912,0,0,1,1653.189,126.652Z" transform="translate(-5.724 -4.946)" fill="#040303"/>
      <path id="Trazado_628769" data-name="Trazado 628769" d="M1648.435,112.946a1.985,1.985,0,1,1-2.025,1.965A2,2,0,0,1,1648.435,112.946Z" transform="translate(-4.869 -3.166)" fill="#040303"/>
      <path id="Trazado_628770" data-name="Trazado 628770" d="M1662.734,112.916c1.357.137,2.15.877,2.151,2.01s-.8,1.874-2.151,2.011c-1.231-.366-1.814-1.011-1.818-2.011S1661.506,113.274,1662.734,112.916Z" transform="translate(-7.447 -3.16)" fill="#040303"/>
    </g>
  </g>
</svg>
