<svg xmlns="http://www.w3.org/2000/svg" width="125" height="125" viewBox="0 0 125 125">
  <g id="Grupo_969974" data-name="Grupo 969974" transform="translate(-1157 -6494)">
    <circle id="Elipse_7652" data-name="Elipse 7652" cx="62.5" cy="62.5" r="62.5" transform="translate(1157 6494)" fill="#ef8b53"/>
    <g id="Grupo_952163" data-name="Grupo 952163" transform="translate(-220.688 6263.738)">
      <path id="Trazado_629089" data-name="Trazado 629089" d="M1441.212,260.319h-27.08a1.6,1.6,0,0,0-1.6,1.6v23.014a1.6,1.6,0,0,0,1.6,1.6H1428.3c1.533,1.391,6.1,4.681,6.16,4.865.05.15.237-2.928.349-4.865h6.4a1.6,1.6,0,0,0,1.6-1.6V261.919A1.6,1.6,0,0,0,1441.212,260.319Z" transform="translate(-3.388 -2.631)" fill="#e0e8ec"/>
      <path id="Trazado_629090" data-name="Trazado 629090" d="M1479.569,318.567a1.166,1.166,0,0,1,1,1.325c-.014,2.7,0,5.4-.006,8.1,0,1.1-.341,1.437-1.441,1.437H1412.2c-2.808,0-4.394-1.587-4.395-4.395,0-2.7.007-5.4-.005-8.1a1.145,1.145,0,0,1,.986-1.326c.861.129,1.145.44,1.15,1.3.007,1.326.035,2.653-.013,3.978-.022.59.187.689.72.688q14.739-.022,29.477,0c.573,0,.7-.171.7-.717-.019-5.541-.009-11.083-.014-16.624a1.839,1.839,0,0,0-2.093-2.091q-13.318,0-26.636,0a1.872,1.872,0,0,0-2.138,2.126c0,2.368,0,4.736,0,7.1,0,.93-.21,1.185-1.134,1.419a1.181,1.181,0,0,1-1-1.312c.008-2.487-.008-4.974.007-7.461a3.918,3.918,0,0,1,4-4.006c4.192-.017,8.383,0,12.575-.005,4.358,0,8.715-.011,13.072.014.539,0,.654-.137.651-.66q-.034-6.715,0-13.43c0-.487-.067-.615-.611-.537a34.532,34.532,0,0,1-4.963.084c-.6,0-.832.1-.779.758.068.847.015,1.7.017,2.557a1.146,1.146,0,0,1-.623,1.178,1.177,1.177,0,0,1-1.306-.261c-1.635-1.289-3.286-2.558-4.913-3.859a1.614,1.614,0,0,0-1.1-.364q-5.755.019-11.509.007a4.2,4.2,0,0,1-4.511-4.526q0-9.913,0-19.825a4.182,4.182,0,0,1,4.466-4.492c.474,0,.949-.02,1.421.009a1.057,1.057,0,0,1,.01,2.113c-.543.032-1.089,0-1.633.013a2.018,2.018,0,0,0-2.125,2.084q-.018,10.2,0,20.394a2.046,2.046,0,0,0,2.262,2.1q6.11.008,12.219-.007a2.033,2.033,0,0,1,1.363.469c1.214.974,2.448,1.921,3.747,2.936a8.654,8.654,0,0,0,.091-2.007c.029-1.06.345-1.383,1.413-1.39l3.906-.025c.567.008,1.135.015,1.7.025.213,0,.357-.017.306-.308a37.013,37.013,0,0,1-.148-5.453,3.876,3.876,0,0,1,1.67-3.418.628.628,0,0,0,.334-.561q-.031-5.572-.04-11.145c.011-.52.037-1.041.03-1.561a2.018,2.018,0,0,0-2.143-2.129c-1.562-.015-3.125,0-4.687,0h-12.785a4.112,4.112,0,0,1-.638-.013,1.06,1.06,0,0,1-.013-2.107,3.333,3.333,0,0,1,.567-.013q8.665,0,17.33,0a4.175,4.175,0,0,1,4.505,4.515c0,.947,0,1.894,0,2.85.268.025.289-.216.381-.349a15.272,15.272,0,0,1,12.843-7.009c1.42-.037,2.841-.019,4.262,0a5.315,5.315,0,0,1,5.073,3.727c.139.439.305.578.767.581a6.79,6.79,0,0,1,7.1,7.159q.009,2.664,0,5.328a.733.733,0,0,0,.315.715,3.857,3.857,0,0,1,1.706,3.33c.007,1.468,0,2.936,0,4.4a3.828,3.828,0,0,1-1.03,2.718,1.092,1.092,0,0,0-.282.834q.008,7.708-.005,15.416a.634.634,0,0,0,.536.735,11.085,11.085,0,0,1,7.961,10.856c0,.568-.039,1.14.01,1.7a1.371,1.371,0,0,1-1.006,1.628c-.994-.327-1.133-.521-1.136-1.574,0-.8.041-1.611-.019-2.41a8.752,8.752,0,0,0-4.331-7.217h0l-.172-.1a5.5,5.5,0,0,0-1.732-.783c-1.957-.54-3.932-1.016-5.874-1.607-.684-.208-.878-.007-1.093.584-.9,2.46-1.861,4.9-2.764,7.356a3.1,3.1,0,0,1-5.893.249c-.449-.982-.939-1.945-1.458-3.016-.524,1.077-1.015,2.035-1.459,3.015a3.1,3.1,0,0,1-5.893-.246c-.823-2.237-1.686-4.459-2.53-6.688-.59-1.557-.589-1.557-2.142-1.028a.527.527,0,0,1-.067.022c-.268.052-.329.193-.232.45a4.669,4.669,0,0,1,.172,1.685q0,7.708.007,15.415c0,.534-.239,1.212.122,1.565.329.322.993.08,1.508.1.855.036,1.253.366,1.24,1.2-.025,1.5.227,3.028-.391,4.531h6.376c5.469,0,10.937-.014,16.406.018.654,0,.773-.188.751-.783-.046-1.229-.024-2.462-.01-3.693.009-.822.43-1.286,1.108-1.265.662.02,1.013.442,1.019,1.265.009,1.326.014,2.652-.005,3.978-.005.364.087.5.471.488,1.159-.03,2.319-.024,3.478-.031.9.008,1.793-.019,2.685.036.566.035.756-.092.744-.709-.044-2.216-.019-4.433-.016-6.65C1478.431,319.02,1478.673,318.733,1479.569,318.567Zm-13.053-55a4.735,4.735,0,0,0-2.108-.5c-.5-.05-.645.134-.639.631.025,2.124.145,4.26-.029,6.37-.161,1.961.844,3.393,1.7,4.963,0-.853.24-1.508,1.193-1.627.683.009,1.367,0,2.048.034.46.026.547-.183.543-.587-.018-1.791.046-3.585-.031-5.372A4.285,4.285,0,0,0,1466.516,263.571Zm-15.354,33.309c-.007.994-.033,1.988-.016,2.982a3.941,3.941,0,0,0,7.84.5,19.523,19.523,0,0,0,.039-3.472c.013-.448,0-.9.046-1.344.063-.58-.162-.595-.641-.457a12.584,12.584,0,0,1-5.62.265c-.547-.091-1.245-.644-1.6-.195C1450.925,295.518,1451.158,296.29,1451.161,296.881Zm-9.252,26.857c-.307-.011-.614-.032-.921-.032q-14.884,0-29.769,0c-1.287,0-1.287,0-1.286,1.309,0,1.637.642,2.282,2.268,2.282q14.209,0,28.419,0c.236,0,.473-.016.709-.024.117.009.234.025.35.025,1.514,0,2.109-.883,2.036-3.006C1443.695,323.632,1443.695,323.632,1441.91,323.738Zm21.738-35.686a.572.572,0,0,0,.738-.335c1.322-2.454,1.142-5.113,1.1-7.755a.479.479,0,0,0-.078-.194q-.794-1.5-1.59-2.99l-1.48-2.973a7.541,7.541,0,0,1-.568.845,7.011,7.011,0,0,1-5.7,2.364c-1.206-.047-2.415-.012-3.623-.007a10.854,10.854,0,0,0-7.43,2.885.859.859,0,0,0-.356.719c.033,1.065-.03,2.137.069,3.195a10.409,10.409,0,0,0,17.115,7.114c.227-.183.425-.4.748-.709-1.9,0-3.619.008-5.34-.007-.292,0-.409.178-.57.347a2.121,2.121,0,1,1,0-2.795.791.791,0,0,0,.646.33C1459.434,288.063,1461.541,288.061,1463.648,288.053Zm-2-21.341c0-1.515.014-3.031,0-4.546a3.187,3.187,0,0,0-3-3.348,43.431,43.431,0,0,0-6.027.087,13.367,13.367,0,0,0-11.7,14.076c.017.395.179.473.519.464.639-.016,1.278-.011,1.917,0,.9.013,1.3.395,1.339,1.292.026.662,0,1.325.01,1.988,0,.16-.013.4.079.465.186.142.335-.085.483-.183a12.763,12.763,0,0,1,4.771-1.912,32.167,32.167,0,0,1,6.16-.207,5.208,5.208,0,0,0,4.047-1.7c.341-.361.689-.719,1.057-1.051a1.056,1.056,0,0,0,.351-.877C1461.636,269.742,1461.646,268.226,1461.645,266.711Zm-21.429,26.328q0,3.2,0,6.393c0,.9.525,1.3,1.412,1.07,2.285-.6,4.565-1.216,6.852-1.8.428-.11.547-.321.537-.744-.027-1.136-.024-2.273,0-3.409a.843.843,0,0,0-.47-.844,12.616,12.616,0,0,1-5.137-6.073c-.232-.556-.159-1.375-.693-1.628-.5-.239-1.212-.015-1.82-.08s-.695.207-.689.727C1440.229,288.778,1440.216,290.908,1440.216,293.039Zm29.71.424c0-2.3-.01-4.591.009-6.885,0-.465-.086-.663-.616-.659-1.668.012-1.668-.012-1.684,1.642a2.491,2.491,0,0,1-1.9,2.581,1.034,1.034,0,0,0-.588.351,12.266,12.266,0,0,1-3.539,3.23.755.755,0,0,0-.406.744c.02,1.135.042,2.273-.007,3.406-.024.544.192.73.673.855,2.468.639,4.935,1.283,7.387,1.978.64.181.686-.038.681-.57C1469.913,297.912,1469.926,295.688,1469.926,293.464Zm-19.235,16.729a1.022,1.022,0,0,0,.927-.651c.535-1.13,1.079-2.256,1.646-3.369.2-.384.161-.52-.281-.685a6.149,6.149,0,0,1-3.48-3.25c-.231-.48-.065-1.3-.64-1.4-.522-.1-1.124.278-1.7.4-.334.071-.418.166-.287.506q1.5,3.895,2.967,7.8A.967.967,0,0,0,1450.69,310.193Zm8.758,0a1.043,1.043,0,0,0,.952-.793c.783-2.1,1.6-4.185,2.375-6.284.212-.57.767-1.269.521-1.689-.266-.455-1.151-.371-1.743-.588-.391-.143-.464.018-.545.34a5.989,5.989,0,0,1-3.894,4.346c-.323.122-.407.212-.248.531.59,1.181,1.162,2.371,1.736,3.56A.984.984,0,0,0,1459.448,310.193Zm8.188-30.511v2.558c0,1.586,0,1.586,1.592,1.559a1.827,1.827,0,0,0,2.009-1.969c.021-1.089-.043-2.181.015-3.267.139-2.638-.738-3.106-3.07-2.985a.351.351,0,0,1-.071,0c-.377-.055-.487.114-.481.481C1467.648,277.266,1467.636,278.474,1467.636,279.682Zm-25.105.063v-2.624c0-1.584,0-1.584-1.621-1.544a1.849,1.849,0,0,0-1.98,2c-.012,1.087.046,2.177-.012,3.262-.138,2.562.747,3.076,3.022,2.969.45-.021.615-.115.6-.592C1442.508,282.062,1442.531,280.9,1442.531,279.745Z" fill="#020202"/>
      <path id="Trazado_629091" data-name="Trazado 629091" d="M1411.277,427.136c.923-.233,1.133-.488,1.134-1.419,0-2.368,0-4.736,0-7.1a1.872,1.872,0,0,1,2.138-2.126q13.318,0,26.636,0a1.839,1.839,0,0,1,2.093,2.091c.005,5.541-.005,11.083.014,16.624,0,.546-.128.718-.7.717q-14.739-.027-29.478,0c-.533,0-.741-.1-.72-.688.049-1.324.021-2.652.013-3.978,0-.862-.288-1.174-1.149-1.3Q1411.269,428.543,1411.277,427.136Zm16.593-4.864a3.927,3.927,0,1,0,3.9,3.921A3.909,3.909,0,0,0,1427.87,422.272Z" transform="translate(-2.479 -114.341)" fill="#a0a9b4"/>
      <path id="Trazado_629092" data-name="Trazado 629092" d="M1441.85,292.668a9.687,9.687,0,1,1,9.763-9.336A9.692,9.692,0,0,1,1441.85,292.668Zm.01-2.14a7.549,7.549,0,1,0-7.449-7.775A7.549,7.549,0,0,0,1441.86,290.528Z" transform="translate(-17.51 -11.912)" fill="#040403"/>
      <path id="Trazado_629093" data-name="Trazado 629093" d="M1640.629,425.087a8.751,8.751,0,0,1,4.331,7.217c.06.8.017,1.606.019,2.41,0,1.053.142,1.247,1.136,1.574q0,1.386,0,2.773c-.9.166-1.138.453-1.139,1.384,0,2.217-.028,4.434.016,6.65.012.617-.178.743-.744.709-.892-.055-1.79-.028-2.685-.036q0-9.118.008-18.235a17.324,17.324,0,0,0-.223-1.958C1641.255,426.7,1640.677,425.971,1640.629,425.087Z" transform="translate(-166.551 -120.494)" fill="#bae2f4"/>
      <path id="Trazado_629094" data-name="Trazado 629094" d="M1561.84,418.585c.047.884.626,1.611.724,2.487a17.352,17.352,0,0,1,.223,1.958q-.016,9.118-.008,18.235c-1.16.008-2.319,0-3.478.031-.384.01-.477-.124-.471-.488.019-1.326.014-2.652.005-3.978-.006-.824-.357-1.245-1.019-1.265-.678-.02-1.1.444-1.108,1.265-.013,1.231-.036,2.464.01,3.693.022.595-.1.787-.751.783-5.469-.032-10.937-.018-16.406-.018h-6.376c.619-1.5.367-3.03.391-4.531.014-.838-.385-1.168-1.24-1.2-.515-.022-1.179.22-1.508-.1-.361-.353-.12-1.031-.122-1.565q-.016-7.707-.007-15.415a4.669,4.669,0,0,0-.172-1.685c-.1-.257-.035-.4.232-.45a.527.527,0,0,0,.067-.022c1.553-.529,1.552-.529,2.142,1.028.845,2.229,1.708,4.451,2.53,6.688a3.1,3.1,0,0,0,5.893.246c.444-.979.935-1.937,1.459-3.015.52,1.07,1.009,2.034,1.458,3.016a3.1,3.1,0,0,0,5.893-.249c.9-2.459,1.866-4.9,2.764-7.356.215-.59.409-.792,1.093-.584,1.941.591,3.917,1.067,5.874,1.607a5.509,5.509,0,0,1,1.732.783c.02.1.07.144.172.1Z" transform="translate(-87.762 -113.993)" fill="#d6ecf7"/>
      <path id="Trazado_629095" data-name="Trazado 629095" d="M1544.843,272.03c0,1.515-.009,3.03.007,4.545a1.056,1.056,0,0,1-.351.877c-.369.332-.716.69-1.058,1.051a5.207,5.207,0,0,1-4.047,1.7,32.167,32.167,0,0,0-6.16.207,12.764,12.764,0,0,0-4.771,1.912c-.148.1-.3.325-.483.183-.092-.07-.077-.3-.079-.465-.008-.663.016-1.327-.01-1.988-.035-.9-.443-1.28-1.339-1.292-.639-.009-1.278-.013-1.917,0-.34.009-.5-.069-.519-.464a13.367,13.367,0,0,1,11.7-14.076,43.426,43.426,0,0,1,6.027-.087,3.186,3.186,0,0,1,3,3.348C1544.856,269,1544.843,270.514,1544.843,272.03Z" transform="translate(-83.198 -5.318)" fill="#9f5c42"/>
      <path id="Trazado_629096" data-name="Trazado 629096" d="M1556.284,331.188c-2.107.009-4.214.011-6.321.033a.792.792,0,0,1-.646-.33,2.12,2.12,0,1,0,0,2.795c.161-.169.278-.35.57-.347,1.721.015,3.443.007,5.34.007-.323.308-.521.526-.748.709a10.409,10.409,0,0,1-17.115-7.114c-.1-1.058-.036-2.13-.069-3.195a.859.859,0,0,1,.356-.719,10.855,10.855,0,0,1,7.43-2.885c1.208,0,2.417-.04,3.623.007a7.011,7.011,0,0,0,5.7-2.364,7.521,7.521,0,0,0,.568-.845l1.48,2.973q-.012,4.687-.025,9.375A6.683,6.683,0,0,1,1556.284,331.188Z" transform="translate(-92.636 -43.135)" fill="#f3cfa7"/>
      <path id="Trazado_629097" data-name="Trazado 629097" d="M1446.7,495.789c-.236.009-.473.024-.709.024q-14.209,0-28.419,0c-1.627,0-2.266-.646-2.268-2.282,0-1.309,0-1.309,1.286-1.309q14.884,0,29.769,0c.307,0,.614.021.921.032A6.284,6.284,0,0,1,1446.7,495.789Z" transform="translate(-5.373 -168.518)" fill="#818a93"/>
      <path id="Trazado_629098" data-name="Trazado 629098" d="M1521.654,366.528c0-2.131.013-4.262-.01-6.392-.006-.52.076-.792.689-.727s1.316-.159,1.82.08c.534.253.461,1.072.693,1.628a12.616,12.616,0,0,0,5.137,6.073.843.843,0,0,1,.47.844c-.023,1.136-.026,2.273,0,3.409.01.422-.108.634-.537.744-2.288.588-4.568,1.205-6.852,1.8-.887.232-1.411-.173-1.412-1.07Q1521.652,369.725,1521.654,366.528Z" transform="translate(-81.438 -73.489)" fill="#894f3b"/>
      <path id="Trazado_629099" data-name="Trazado 629099" d="M1604.1,367.035c0,2.224-.012,4.448.009,6.672.005.532-.041.751-.681.57-2.453-.695-4.919-1.339-7.387-1.978-.481-.125-.7-.311-.673-.855.049-1.134.027-2.271.007-3.406a.755.755,0,0,1,.406-.744,12.263,12.263,0,0,0,3.539-3.23,1.034,1.034,0,0,1,.588-.351,2.491,2.491,0,0,0,1.9-2.581c.016-1.654.016-1.63,1.684-1.642.529,0,.62.194.616.659C1604.089,362.444,1604.1,364.739,1604.1,367.035Z" transform="translate(-134.173 -73.571)" fill="#894f3b"/>
      <path id="Trazado_629100" data-name="Trazado 629100" d="M1567.938,398a19.523,19.523,0,0,1-.039,3.472,3.941,3.941,0,0,1-7.84-.5c-.016-.994.01-1.988.016-2.982a28.7,28.7,0,0,0,3.684.451A25.8,25.8,0,0,0,1567.938,398Z" transform="translate(-108.914 -101.116)" fill="#f3cfa7"/>
      <path id="Trazado_629101" data-name="Trazado 629101" d="M1607.164,289.561c-.953.119-1.188.774-1.193,1.628-.854-1.571-1.859-3-1.7-4.963.174-2.11.054-4.246.029-6.37-.006-.5.141-.681.639-.631a4.731,4.731,0,0,1,2.108.5,6.8,6.8,0,0,0,.125,1.613C1607.156,284.076,1607.164,286.819,1607.164,289.561Z" transform="translate(-140.533 -16.149)" fill="#9f5c42"/>
      <path id="Trazado_629102" data-name="Trazado 629102" d="M1548.74,421.2a.965.965,0,0,1-.849-.649q-1.473-3.9-2.967-7.8c-.131-.341-.047-.436.287-.506.576-.122,1.178-.5,1.7-.4.574.108.408.923.64,1.4a6.149,6.149,0,0,0,3.48,3.25c.443.164.477.3.281.685-.567,1.114-1.112,2.24-1.646,3.369A1.021,1.021,0,0,1,1548.74,421.2Z" transform="translate(-98.049 -111.011)" fill="#f0f6f9"/>
      <path id="Trazado_629103" data-name="Trazado 629103" d="M1582.554,421.121a.983.983,0,0,1-.846-.577c-.575-1.189-1.147-2.379-1.737-3.56-.159-.319-.075-.409.248-.531a5.989,5.989,0,0,0,3.894-4.346c.081-.323.155-.483.546-.34.592.217,1.477.132,1.743.588.246.42-.309,1.118-.521,1.689-.78,2.1-1.592,4.186-2.375,6.284A1.042,1.042,0,0,1,1582.554,421.121Z" transform="translate(-123.105 -110.928)" fill="#f0f6f9"/>
      <path id="Trazado_629104" data-name="Trazado 629104" d="M1617.983,327.223c0-1.208.012-2.416-.007-3.623-.006-.368.1-.536.481-.481a.351.351,0,0,0,.071,0c2.332-.121,3.209.347,3.07,2.985-.057,1.086.006,2.178-.015,3.267a1.827,1.827,0,0,1-2.009,1.969c-1.592.027-1.592.027-1.592-1.559Z" transform="translate(-150.347 -47.541)" fill="#d28386"/>
      <path id="Trazado_629105" data-name="Trazado 629105" d="M1520.7,327.305c0,1.158-.022,2.317.011,3.474.014.477-.152.571-.6.592-2.275.106-3.16-.408-3.022-2.969.058-1.084,0-2.174.012-3.262a1.849,1.849,0,0,1,1.98-2c1.621-.041,1.621-.041,1.621,1.544Q1520.7,325.993,1520.7,327.305Z" transform="translate(-78.167 -47.56)" fill="#d28386"/>
      <path id="Trazado_629106" data-name="Trazado 629106" d="M1614.088,290.829c0-2.743-.008-5.485.009-8.227a6.8,6.8,0,0,1-.124-1.613,4.284,4.284,0,0,1,2.675,3.915c.077,1.788.013,3.581.031,5.372,0,.4-.083.612-.543.587C1615.455,290.826,1614.771,290.838,1614.088,290.829Z" transform="translate(-147.457 -17.417)" fill="#894f3b"/>
      <path id="Trazado_629107" data-name="Trazado 629107" d="M1603.992,338.657a6.679,6.679,0,0,0,.147-1.9q.012-4.687.025-9.375.8,1.495,1.59,2.99a.479.479,0,0,1,.078.194c.04,2.642.22,5.3-1.1,7.755A.572.572,0,0,1,1603.992,338.657Z" transform="translate(-140.344 -50.605)" fill="#edb687"/>
      <path id="Trazado_629108" data-name="Trazado 629108" d="M1567.758,393.228a25.8,25.8,0,0,1-4.178.446,28.7,28.7,0,0,1-3.684-.451c0-.591-.237-1.362.049-1.726.353-.449,1.051.1,1.6.195a12.584,12.584,0,0,0,5.62-.265c.479-.137.7-.122.641.457C1567.756,392.328,1567.771,392.78,1567.758,393.228Z" transform="translate(-108.735 -96.342)" fill="#edb687"/>
      <path id="Trazado_629109" data-name="Trazado 629109" d="M1525.595,495.743a6.285,6.285,0,0,0,.579-3.533c1.785-.106,1.785-.106,1.807.552.072,2.123-.522,3-2.036,3.006C1525.829,495.768,1525.712,495.751,1525.595,495.743Z" transform="translate(-84.265 -168.472)" fill="#5d6871"/>
      <path id="Trazado_629110" data-name="Trazado 629110" d="M1640.19,424.823c-.1.039-.152-.008-.172-.1Z" transform="translate(-166.114 -120.23)" fill="#bae2f4"/>
      <path id="Trazado_629111" data-name="Trazado 629111" d="M1459.684,436.815a3.927,3.927,0,1,1-.071,7.853,3.927,3.927,0,0,1,.071-7.853Zm1.769,3.889a1.756,1.756,0,0,0-1.818-1.756,1.786,1.786,0,0,0-1.766,1.82,1.806,1.806,0,0,0,1.828,1.766A1.786,1.786,0,0,0,1461.453,440.7Z" transform="translate(-34.292 -128.883)" fill="#040403"/>
      <path id="Trazado_629112" data-name="Trazado 629112" d="M1447.224,295.9a7.549,7.549,0,1,1,7.616-7.241A7.551,7.551,0,0,1,1447.224,295.9Zm.095-2.179a5.839,5.839,0,0,0,4.055-1.6,1.068,1.068,0,0,0,.2-1.569c-.426-.507-1.017-.511-1.625-.011a3.777,3.777,0,0,1-5.271,0c-.611-.5-1.2-.49-1.623.02a1.056,1.056,0,0,0,.21,1.566A5.748,5.748,0,0,0,1447.319,293.719Zm-3.3-6.1a1.416,1.416,0,0,0,1.427-1.442,1.466,1.466,0,0,0-1.4-1.413,1.434,1.434,0,0,0-1.447,1.426A1.39,1.39,0,0,0,1444.019,287.617Zm6.589,0a1.392,1.392,0,0,0,1.427-1.43,1.428,1.428,0,0,0-1.376-1.427,1.478,1.478,0,0,0-1.481,1.413A1.432,1.432,0,0,0,1450.608,287.618Z" transform="translate(-22.874 -17.281)" fill="#f0de77"/>
      <path id="Trazado_629113" data-name="Trazado 629113" d="M1466.813,446.065a1.786,1.786,0,0,1-1.756,1.83,1.807,1.807,0,0,1-1.828-1.766,1.786,1.786,0,0,1,1.766-1.82A1.756,1.756,0,0,1,1466.813,446.065Z" transform="translate(-39.653 -134.244)" fill="#f0f6f9"/>
      <path id="Trazado_629114" data-name="Trazado 629114" d="M1454.909,317.269a5.752,5.752,0,0,1-4.054-1.594,1.057,1.057,0,0,1-.21-1.566c.426-.51,1.013-.518,1.623-.02a3.777,3.777,0,0,0,5.271,0c.608-.5,1.2-.5,1.625.011a1.068,1.068,0,0,1-.2,1.569A5.845,5.845,0,0,1,1454.909,317.269Z" transform="translate(-30.464 -40.83)" fill="#040403"/>
      <path id="Trazado_629115" data-name="Trazado 629115" d="M1451.108,297.574a1.39,1.39,0,0,1-1.425-1.429,1.434,1.434,0,0,1,1.447-1.426,1.466,1.466,0,0,1,1.4,1.413A1.416,1.416,0,0,1,1451.108,297.574Z" transform="translate(-29.963 -27.238)" fill="#040403"/>
      <path id="Trazado_629116" data-name="Trazado 629116" d="M1474.24,297.573a1.433,1.433,0,0,1-1.43-1.444,1.478,1.478,0,0,1,1.481-1.413,1.428,1.428,0,0,1,1.376,1.427A1.392,1.392,0,0,1,1474.24,297.573Z" transform="translate(-46.506 -27.236)" fill="#040403"/>
    </g>
  </g>
</svg>
