<svg xmlns="http://www.w3.org/2000/svg" width="295" height="133" viewBox="0 0 295 133">
  <g id="Grupo_980841" data-name="Grupo 980841" transform="translate(-1125 -8793.795)">
    <rect id="Rect치ngulo_306545" data-name="Rect치ngulo 306545" width="295" height="133" transform="translate(1125 8793.795)" fill="#f7e9e1" opacity="0.5"/>
    <g id="Grupo_952190" data-name="Grupo 952190" transform="translate(1155 2718.295)">
      <rect id="Rect치ngulo_34178" data-name="Rect치ngulo 34178" width="85" height="85" transform="translate(180 6099)" fill="none"/>
      <g id="Grupo_952191" data-name="Grupo 952191" transform="translate(-1491.019 5571.077)">
        <path id="Trazado_629352" data-name="Trazado 629352" d="M1710.516,537.407c3.654,0,7.309.012,10.963-.005a6.321,6.321,0,0,1,4.863,2.107c1.76,1.885,3.52,3.771,5.32,5.618a6.6,6.6,0,0,1,1.972,4.932c-.029,1.59-.021,3.182,0,4.772.018,1.369-.088,2.74.061,4.107,1.35.013,2.7.02,4.05.043.536.009,1.074.03,1.608.083a8.068,8.068,0,0,1,7.069,7.3c.023.343.038.687.038,1.031q0,13.832,0,27.664a8.1,8.1,0,0,1-5.8,8.053,8.186,8.186,0,0,1-2.35.333c-6.1,0-12.21.005-18.314,0a8.093,8.093,0,0,1-8.171-8.117c0-.227.253-.694-.3-.648-.41.034-1.032-.318-1.093.531a2.373,2.373,0,0,1-.592,1.336.519.519,0,0,0-.03.79,3.263,3.263,0,0,1,.338,3.635,3.351,3.351,0,0,1-3.172,1.945c-5.675.015-11.35,0-17.025.016a11.351,11.351,0,0,1-2.685-.258,8.828,8.828,0,0,1,.763-17.28c.273-.039.49-.028.438-.432a3.159,3.159,0,0,1,.75-2.516c.21-.25.135-.368-.029-.584a3.327,3.327,0,0,1-.389-3.693,3.364,3.364,0,0,1,3.225-1.956c1.183,0,1.183-.011,1.183-1.163q0-15.605,0-31.211a6.1,6.1,0,0,1,4.137-6.109,6.79,6.79,0,0,1,2.219-.324Q1705.035,537.415,1710.516,537.407Zm-24.1,50.536a6.022,6.022,0,0,0-2.341,1.8c1.1.068,1.1.064,1.638-.69.251-.348.526-.679.789-1.018.043-.052.175-.075.107-.16C1686.552,587.812,1686.459,587.866,1686.412,587.943Zm5.439,12.9a4.8,4.8,0,0,0,.759.128,6.89,6.89,0,0,0,5.523-11.378,6.4,6.4,0,0,0-6.154-2.266,2.342,2.342,0,0,0-.383.015,6.884,6.884,0,0,0-5.39,8.156A6.765,6.765,0,0,0,1691.851,600.846Zm50.341-.734a5.856,5.856,0,0,0,2.314-4.926q0-13.949,0-27.9a6.06,6.06,0,0,0-6.252-6.344c-6.078-.043-12.156-.019-18.234-.006a5.656,5.656,0,0,0-3.914,1.377,5.589,5.589,0,0,0-2.312,4.6q-.047,14.275-.006,28.55a6.042,6.042,0,0,0,5.935,6.014c6.272.054,12.546.032,18.819,0A5.379,5.379,0,0,0,1742.192,600.112ZM1710.5,589.005a3.436,3.436,0,0,1-.722,2.655c-.348.4-.1.591.125.833a6.1,6.1,0,0,0,1.827.067c.124-.091.1-.229.1-.353q-.009-1.609-.024-3.217c.008-.257.024-.514.024-.772q0-10.441,0-20.883a8.756,8.756,0,0,1,.21-2.109,8.123,8.123,0,0,1,8.045-6.244q5.382-.031,10.764.011c.616.006.726-.189.721-.752-.027-2.729-.01-5.457-.012-8.186,0-.3-.024-.6-.035-.9-.015-.382-.169-.533-.592-.528-2.17.025-4.34.012-6.51.012-1.277,0-1.526-.253-1.526-1.556,0-2.32-.011-4.641.009-6.961,0-.467-.065-.661-.614-.659q-11.409.032-22.818.014a3.541,3.541,0,0,0-1.326.2,3.944,3.944,0,0,0-2.858,4.155q0,15.849,0,31.7c0,.107.008.215,0,.322-.023.278.1.375.377.369.837-.019,1.673-.021,2.51-.029,2.874.008,5.747.035,8.621.017a3.394,3.394,0,0,1,3.312,1.9,3.323,3.323,0,0,1-.373,3.793.356.356,0,0,0-.01.533,3.408,3.408,0,0,1,.016,4.384c-.138.194-.225.311-.022.531A3.842,3.842,0,0,1,1710.5,589.005Zm-10.973-10.721c-2.49,0-4.981-.007-7.471,0a1.41,1.41,0,0,0-1.507,1.753,1.463,1.463,0,0,0,1.61,1.087q7.278,0,14.556,0c1.053,0,1.706-.545,1.714-1.413s-.638-1.429-1.689-1.43Q1703.135,578.279,1699.528,578.284Zm-.035,4.915c-2.471,0-4.941-.006-7.412,0a1.436,1.436,0,0,0-1.572,1.424c0,.421.1.672.618.655a11.445,11.445,0,0,1,5.37.731.621.621,0,0,0,.254.03c3.437,0,6.875.007,10.312-.01a1.364,1.364,0,0,0,1.362-1.291,1.447,1.447,0,0,0-1.585-1.54C1704.392,583.193,1701.943,583.2,1699.494,583.2Zm-.859,17.65h2.921c1.76,0,3.521.008,5.281,0a1.49,1.49,0,0,0,1.6-1.415,1.42,1.42,0,0,0-1.567-1.424c-1.846-.01-3.692,0-5.538,0-.211,0-.438-.038-.567.2A9.757,9.757,0,0,1,1698.635,600.849Zm.847-12.732a9.533,9.533,0,0,1,1.522,2.407.636.636,0,0,0,.724.452c1.7-.017,3.392,0,5.088-.01a1.445,1.445,0,0,0,1.624-1.368,1.474,1.474,0,0,0-1.6-1.476C1704.432,588.108,1702.028,588.117,1699.482,588.117Zm5,7.81c.774,0,1.548.013,2.321,0a1.5,1.5,0,0,0,1.636-1.454,1.476,1.476,0,0,0-1.6-1.422c-1.547-.031-3.094-.006-4.641-.014-.31,0-.486.064-.453.431a6.611,6.611,0,0,1-.093,1.925c-.092.448.092.558.509.545C1702.939,595.91,1703.713,595.928,1704.486,595.927Zm20.479-54.846c0,1.824.011,3.472-.008,5.119,0,.41.228.373.492.373,1.308,0,2.616,0,3.923-.007.213,0,.456.091.679-.111ZM1683.5,595.221c-.955,0-.956,0-.687.882q.047.153.1.3a1.383,1.383,0,0,0,1.513.42c.027-.024.061-.07.056-.1a8.284,8.284,0,0,0-.308-1.366C1684.067,595.09,1683.71,595.267,1683.5,595.221Zm-.157-1.947c.886,0,.969-.1,1.016-1.208.026-.609-.452-.314-.691-.326-.772-.041-1.081.3-1.059,1.241C1682.622,593.577,1683.146,593.119,1683.341,593.274Zm3.1,6.911c-.935-1.473-.982-1.5-1.89-1.277A3.543,3.543,0,0,0,1686.446,600.185Z" transform="translate(0)" fill="#030302"/>
        <path id="Trazado_629353" data-name="Trazado 629353" d="M1748.558,545.586a3.542,3.542,0,0,1,1.326-.2q11.409,0,22.818-.014c.549,0,.618.192.614.659-.02,2.32-.009,4.641-.009,6.961,0,1.3.248,1.556,1.526,1.556,2.17,0,4.34.014,6.51-.012.423,0,.578.145.592.528.011.3.035.6.036.9,0,2.728-.016,5.457.012,8.186.006.563-.1.757-.72.752q-5.382-.049-10.764-.011a8.123,8.123,0,0,0-8.046,6.244,8.761,8.761,0,0,0-.21,2.109q.006,10.441,0,20.883c0,.257-.016.514-.025.771l-1.3.016a3.845,3.845,0,0,0-.789-1.662c-.2-.22-.117-.337.022-.531a3.408,3.408,0,0,0-.015-4.384.356.356,0,0,1,.01-.533,3.323,3.323,0,0,0,.373-3.793,3.393,3.393,0,0,0-3.312-1.9c-2.873.018-5.747-.009-8.621-.017q0-17.775-.006-35.55C1748.58,546.229,1748.566,545.907,1748.558,545.586Zm8.973,29.845c-.013,1.279-.494,1.829-1.587,1.982a2.655,2.655,0,0,1-2.548-.9c-.31-.361-.671-.576-1.106-.209a.945.945,0,0,0-.239,1.271,2.3,2.3,0,0,0,.695.749,3.383,3.383,0,0,0,1.451.663c.425.072.538.266.485.643a.315.315,0,0,0,0,.064c.044.645.382,1.026.918,1.034.563.008.9-.383.951-1.071.018-.245-.13-.533.306-.648,2.04-.539,2.75-2.406,2.368-4.511a3.57,3.57,0,0,0-2.471-2.653,14.58,14.58,0,0,1-2.07-.872,1.415,1.415,0,0,1-.677-1.545,1.29,1.29,0,0,1,1.1-1.111,3.573,3.573,0,0,1,2.615.351.776.776,0,0,0,1.19-.333.838.838,0,0,0-.357-1.21,2.972,2.972,0,0,0-1.323-.466c-.49-.049-.75-.188-.7-.78a.9.9,0,0,0-.888-.987.969.969,0,0,0-.953,1.008.56.56,0,0,0,0,.129c.069.444-.086.664-.548.823a2.718,2.718,0,0,0-1.826,2,3.122,3.122,0,0,0,1.738,3.858c.708.351,1.465.6,2.187.928A1.874,1.874,0,0,1,1757.531,575.431Zm9.738-12.039q3.93,0,7.86,0a3.22,3.22,0,0,0,.7-.051.953.953,0,0,0,.017-1.853,3.016,3.016,0,0,0-.7-.057q-7.827,0-15.655,0a3.453,3.453,0,0,0-.7.052.952.952,0,0,0-.017,1.855,3.205,3.205,0,0,0,.7.054Q1763.371,563.4,1767.269,563.392Zm-6.632-4.841h8.117c1.027,0,1.507-.317,1.493-.986-.013-.652-.478-.955-1.464-.955h-16.234c-.129,0-.258,0-.387,0-.677.02-1.121.417-1.11.99a.981.981,0,0,0,1.08.947C1754.968,558.554,1757.8,558.55,1760.637,558.551Zm-7.065,4.839c.493,0,.987.019,1.479,0a.952.952,0,0,0,1.03-.989.932.932,0,0,0-.994-.956c-1.007-.03-2.015-.028-3.022,0a.979.979,0,0,0-1.015.953,1,1,0,0,0,1.043.993C1752.584,563.409,1753.078,563.39,1753.572,563.39Zm20.824-4.842v0h1.091c.043,0,.086,0,.128,0a.965.965,0,0,0,.958-.927.947.947,0,0,0-.946-1c-.812-.028-1.626-.024-2.439,0a.964.964,0,1,0-.012,1.928C1773.582,558.564,1773.989,558.548,1774.4,558.548Z" transform="translate(-50.417 -5.914)" fill="#f7d9af"/>
        <path id="Trazado_629354" data-name="Trazado 629354" d="M1816.926,629.818a5.657,5.657,0,0,1,3.914-1.377c6.078-.013,12.156-.037,18.234.006a6.06,6.06,0,0,1,6.253,6.345q.021,13.949,0,27.9a5.856,5.856,0,0,1-2.314,4.926c-.257-.007-.514-.019-.771-.019q-9.588,0-19.176-.009a4.514,4.514,0,0,1-2.537-.762c.773-.008,1.546,0,2.318-.026a2.037,2.037,0,0,0,2.07-2.09q.021-1.61,0-3.221a1.938,1.938,0,0,0-1.875-2.055,32.887,32.887,0,0,0-3.6,0,1.935,1.935,0,0,0-1.892,2.039c-.019.794-.015,1.588-.022,2.382-.26-.051-.309-.288-.382-.477a7.97,7.97,0,0,1-.611-2.869q.005-13.145,0-26.29A15.377,15.377,0,0,1,1816.926,629.818Zm10.581,9.932c.28.826.5.991,1.345.991q5.062,0,10.124,0a3.224,3.224,0,0,0,3.408-3.14,31.079,31.079,0,0,0,0-3.865,3.118,3.118,0,0,0-3.191-3.067q-9.22-.042-18.441,0a3.151,3.151,0,0,0-3.2,3.259q-.023,1.741,0,3.482a3.248,3.248,0,0,0,3.35,3.33c1.053.013,2.106.007,3.16,0,.8,0,1.043-.2,1.266-.99Zm14.989,19.126h0c0-1.74.021-3.481-.007-5.221a2.434,2.434,0,0,0-2.235-2.481,12.3,12.3,0,0,0-2.894,0,2.478,2.478,0,0,0-2.239,2.492q-.026,5.189,0,10.378a2.735,2.735,0,0,0,2.254,2.686,10.321,10.321,0,0,0,2.121.065,2.779,2.779,0,0,0,3-2.957C1842.505,662.186,1842.5,660.531,1842.5,658.877Zm-12.485-.336c.515,0,1.03.012,1.544,0a2.063,2.063,0,0,0,2.115-2.12q.028-1.576,0-3.153a1.967,1.967,0,0,0-1.911-2.1,29.915,29.915,0,0,0-3.6-.007,1.922,1.922,0,0,0-1.872,1.93c-.051,1.156-.054,2.317,0,3.473a2.01,2.01,0,0,0,2.115,1.974C1828.938,658.55,1829.475,658.541,1830.011,658.541Zm-.05,8.261c.493,0,.987,0,1.48,0a2.082,2.082,0,0,0,2.232-2.2q.016-1.512,0-3.025a2.028,2.028,0,0,0-2.054-2.171c-1.113-.047-2.232-.047-3.345.008a1.928,1.928,0,0,0-1.982,1.955c-.058,1.155-.057,2.318,0,3.473a2.005,2.005,0,0,0,2.063,1.958C1828.888,666.814,1829.424,666.8,1829.961,666.8Zm-5.037-11.981c0-.536.009-1.073,0-1.609a1.946,1.946,0,0,0-1.76-2.033,19.527,19.527,0,0,0-3.853,0,1.916,1.916,0,0,0-1.756,1.964q-.029,1.673,0,3.346a1.992,1.992,0,0,0,1.973,2.04c1.136.041,2.275.04,3.411,0a2.021,2.021,0,0,0,1.988-2.1C1824.931,655.894,1824.923,655.357,1824.923,654.821Zm5.042-5v0c.557,0,1.116.019,1.672,0a2,2,0,0,0,2.026-1.988c.037-1.135.038-2.274,0-3.409a2.011,2.011,0,0,0-1.985-1.974q-1.7-.043-3.409,0a1.965,1.965,0,0,0-1.969,1.9c-.045,1.2-.045,2.4,0,3.6a1.922,1.922,0,0,0,1.925,1.863C1828.806,649.847,1829.386,649.826,1829.965,649.826Zm-12.418-3.71c0,.558-.01,1.115,0,1.673a1.967,1.967,0,0,0,1.966,2.032c1.157.032,2.316.034,3.473,0a1.965,1.965,0,0,0,1.931-2q.027-1.672,0-3.346a2.008,2.008,0,0,0-2-2.015c-1.136-.026-2.274-.029-3.41,0a2,2,0,0,0-1.957,1.988C1817.534,645,1817.548,645.558,1817.547,646.116Zm21.261,3.711c.579,0,1.159.021,1.737,0a1.949,1.949,0,0,0,1.938-1.923c.034-1.157.032-2.316,0-3.473a1.985,1.985,0,0,0-1.969-1.972q-1.7-.043-3.409,0a2.014,2.014,0,0,0-1.987,1.969c-.031,1.136-.027,2.273,0,3.409a2,2,0,0,0,1.953,1.991C1837.649,649.849,1838.229,649.827,1838.807,649.827Z" transform="translate(-100.825 -67.503)" fill="#8bc594"/>
        <path id="Trazado_629355" data-name="Trazado 629355" d="M1811.363,633.825a15.373,15.373,0,0,0-.4,4.394q.015,13.145,0,26.29a7.97,7.97,0,0,0,.612,2.869c.073.189.121.426.382.477.007.256.016.512.019.768a2.051,2.051,0,0,0,2.219,2.188c.256,0,.512.013.768.02a4.514,4.514,0,0,0,2.537.762q9.588.016,19.176.009c.257,0,.514.012.771.019a5.379,5.379,0,0,1-3.654,1.371c-6.273.027-12.547.05-18.819,0a6.042,6.042,0,0,1-5.935-6.014q-.036-14.275.006-28.55A5.589,5.589,0,0,1,1811.363,633.825Z" transform="translate(-95.262 -71.51)" fill="#6ab66f"/>
        <path id="Trazado_629356" data-name="Trazado 629356" d="M1740.343,546.188c.008.322.022.643.022.965q0,17.775.006,35.549c-.837.008-1.674.009-2.511.029-.275.006-.4-.091-.377-.369.009-.107,0-.215,0-.322q0-15.848,0-31.7A3.944,3.944,0,0,1,1740.343,546.188Z" transform="translate(-42.202 -6.516)" fill="#f4c482"/>
        <path id="Trazado_629357" data-name="Trazado 629357" d="M1714.565,730.316a6.4,6.4,0,0,1,6.154,2.266,6.89,6.89,0,0,1-5.523,11.378,4.8,4.8,0,0,1-.759-.128c-.012-.145-.115-.214-.222-.294a7.742,7.742,0,0,1-2.309-2.714,8.06,8.06,0,0,1,2.09-9.931C1714.205,730.731,1714.5,730.627,1714.565,730.316Zm2.658,4.675a.952.952,0,0,0,.961-.842.965.965,0,0,0-.711-1.092,1.373,1.373,0,0,1-.947-.813c-.24-.6-1.256-.695-1.481-.13-.292.734-.924,1.061-1.362,1.6a1.978,1.978,0,0,0-.415,1.065,2.257,2.257,0,0,0,1.47,2.579c.428.2.879.346,1.3.559a.741.741,0,0,1,.377.931c-.114.429-.468.466-.819.458a1.246,1.246,0,0,1-.9-.442.843.843,0,0,0-1.256-.13,1.024,1.024,0,0,0-.169,1.393,2.1,2.1,0,0,0,1.059.806.617.617,0,0,1,.463.465.9.9,0,0,0,.935.736.921.921,0,0,0,.939-.736.65.65,0,0,1,.359-.482,2.451,2.451,0,0,0,1.364-2.5,2.491,2.491,0,0,0-1.626-2.345c-.432-.188-.867-.371-1.292-.574a.45.45,0,0,1-.26-.535c.05-.237.243-.277.439-.305a1.917,1.917,0,0,1,1.069.152C1716.891,734.89,1717.077,734.94,1717.224,734.991Z" transform="translate(-22.586 -142.986)" fill="#dd8931"/>
        <path id="Trazado_629358" data-name="Trazado 629358" d="M1728.035,695.62q3.607,0,7.214,0c1.051,0,1.7.555,1.689,1.43s-.662,1.412-1.715,1.413q-7.278,0-14.556,0a1.463,1.463,0,0,1-1.61-1.087,1.41,1.41,0,0,1,1.507-1.753C1723.054,695.614,1725.545,695.62,1728.035,695.62Z" transform="translate(-28.507 -117.337)" fill="#f1a84d"/>
        <path id="Trazado_629359" data-name="Trazado 629359" d="M1728.006,714.644c2.449,0,4.9-.006,7.348,0a1.447,1.447,0,0,1,1.585,1.54,1.364,1.364,0,0,1-1.363,1.291c-3.437.018-6.875.01-10.312.01a.621.621,0,0,1-.254-.03,11.447,11.447,0,0,0-5.37-.731c-.522.017-.621-.234-.618-.655a1.436,1.436,0,0,1,1.572-1.424C1723.064,714.638,1725.535,714.644,1728.006,714.644Z" transform="translate(-28.512 -131.445)" fill="#f09b3c"/>
        <path id="Trazado_629360" data-name="Trazado 629360" d="M1707.718,730.637c-.068.311-.36.415-.568.578a8.06,8.06,0,0,0-2.091,9.931,7.742,7.742,0,0,0,2.309,2.714c.107.08.209.149.222.294a6.765,6.765,0,0,1-5.645-5.345,6.884,6.884,0,0,1,5.39-8.156A2.358,2.358,0,0,1,1707.718,730.637Z" transform="translate(-15.74 -143.307)" fill="#b87228"/>
        <path id="Trazado_629361" data-name="Trazado 629361" d="M1750.468,774.783a9.756,9.756,0,0,0,2.13-2.644c.129-.239.356-.2.568-.2,1.846,0,3.692-.008,5.538,0a1.42,1.42,0,0,1,1.567,1.424,1.49,1.49,0,0,1-1.6,1.415c-1.76.011-3.521,0-5.281,0Z" transform="translate(-51.833 -173.934)" fill="#9d6220"/>
        <path id="Trazado_629362" data-name="Trazado 629362" d="M1753.746,733.676c2.546,0,4.95-.009,7.354,0a1.474,1.474,0,0,1,1.6,1.476,1.445,1.445,0,0,1-1.624,1.368c-1.7.009-3.392-.006-5.088.01a.636.636,0,0,1-.724-.452A9.521,9.521,0,0,0,1753.746,733.676Z" transform="translate(-54.264 -145.559)" fill="#dd8931"/>
        <path id="Trazado_629363" data-name="Trazado 629363" d="M1764.926,755.6c-.774,0-1.548-.017-2.321.007-.417.013-.6-.1-.509-.545a6.607,6.607,0,0,0,.094-1.925c-.033-.367.143-.433.453-.431,1.547.008,3.095-.017,4.641.014a1.476,1.476,0,0,1,1.6,1.422,1.5,1.5,0,0,1-1.636,1.454C1766.474,755.613,1765.7,755.6,1764.926,755.6Z" transform="translate(-60.439 -159.673)" fill="#b87228"/>
        <path id="Trazado_629364" data-name="Trazado 629364" d="M1852.353,551.644l5.086,5.374c-.223.2-.466.109-.679.111-1.308.011-2.615,0-3.923.007-.264,0-.5.037-.492-.373C1852.364,555.116,1852.353,553.468,1852.353,551.644Z" transform="translate(-127.387 -10.562)" fill="#f1a84d"/>
        <path id="Trazado_629365" data-name="Trazado 629365" d="M1793.826,737.078l1.3-.016q.013,1.608.024,3.217c0,.124.028.261-.1.353a6.093,6.093,0,0,1-1.827-.067c-.224-.242-.473-.434-.125-.833A3.436,3.436,0,0,0,1793.826,737.078Z" transform="translate(-83.325 -148.072)" fill="#f4c482"/>
        <path id="Trazado_629366" data-name="Trazado 629366" d="M1689.471,761.135c.211.046.568-.132.675.142a8.27,8.27,0,0,1,.308,1.366c.006.028-.028.074-.055.1a1.383,1.383,0,0,1-1.513-.42c-.037-.1-.071-.2-.1-.3C1688.516,761.134,1688.516,761.134,1689.471,761.135Z" transform="translate(-5.973 -165.914)" fill="#b87228"/>
        <path id="Trazado_629367" data-name="Trazado 629367" d="M1689.168,749.064c-.195-.155-.72.3-.734-.294-.022-.936.287-1.282,1.059-1.241.238.013.716-.282.691.326C1690.136,748.968,1690.054,749.064,1689.168,749.064Z" transform="translate(-5.826 -155.79)" fill="#b87228"/>
        <path id="Trazado_629368" data-name="Trazado 629368" d="M1696.526,733.106c-.264.339-.539.669-.79,1.017-.543.754-.538.758-1.638.69a6.021,6.021,0,0,1,2.341-1.8A.943.943,0,0,0,1696.526,733.106Z" transform="translate(-10.028 -145.068)" fill="#b87228"/>
        <path id="Trazado_629369" data-name="Trazado 629369" d="M1697.866,776.424a3.543,3.543,0,0,1-1.89-1.277C1696.884,774.92,1696.931,774.951,1697.866,776.424Z" transform="translate(-11.421 -176.239)" fill="#b87228"/>
        <path id="Trazado_629370" data-name="Trazado 629370" d="M1703.16,732.738c.047-.077.14-.131.193-.065.068.085-.064.108-.107.16A.96.96,0,0,1,1703.16,732.738Z" transform="translate(-16.749 -144.795)" fill="#b87228"/>
        <path id="Trazado_629371" data-name="Trazado 629371" d="M1767.141,631.449a1.874,1.874,0,0,0-1.3-1.788c-.723-.324-1.479-.577-2.187-.928a3.122,3.122,0,0,1-1.738-3.858,2.719,2.719,0,0,1,1.826-2c.461-.159.617-.379.548-.823a.567.567,0,0,1,0-.129.969.969,0,0,1,.953-1.008.9.9,0,0,1,.888.987c-.046.591.214.73.7.78a2.971,2.971,0,0,1,1.323.466.838.838,0,0,1,.356,1.21.776.776,0,0,1-1.19.333,3.573,3.573,0,0,0-2.615-.351,1.29,1.29,0,0,0-1.1,1.111,1.415,1.415,0,0,0,.677,1.545,14.586,14.586,0,0,0,2.07.872,3.569,3.569,0,0,1,2.471,2.653c.383,2.1-.328,3.972-2.367,4.511-.437.115-.288.4-.306.648-.049.687-.388,1.078-.951,1.071-.536-.008-.874-.388-.918-1.034a.3.3,0,0,1,0-.064c.052-.377-.06-.571-.486-.643a3.382,3.382,0,0,1-1.45-.663,2.3,2.3,0,0,1-.695-.749.945.945,0,0,1,.239-1.271c.435-.367.8-.152,1.106.209a2.655,2.655,0,0,0,2.548.9C1766.646,633.279,1767.127,632.729,1767.141,631.449Z" transform="translate(-60.026 -61.932)" fill="#030302"/>
        <path id="Trazado_629372" data-name="Trazado 629372" d="M1794.489,609.462q-3.9,0-7.8,0a3.2,3.2,0,0,1-.7-.054.952.952,0,0,1,.017-1.855,3.447,3.447,0,0,1,.7-.052q7.827,0,15.655,0a3.019,3.019,0,0,1,.7.057.953.953,0,0,1-.017,1.853,3.222,3.222,0,0,1-.7.051Q1798.418,609.465,1794.489,609.462Z" transform="translate(-77.637 -51.984)" fill="#0e0c0a"/>
        <path id="Trazado_629373" data-name="Trazado 629373" d="M1767.8,590.791c-2.834,0-5.669,0-8.5,0a.981.981,0,0,1-1.081-.947c-.011-.572.433-.969,1.11-.99.129,0,.258,0,.386,0h16.234c.986,0,1.451.3,1.464.955.014.669-.466.986-1.493.986Z" transform="translate(-57.575 -38.154)" fill="#030302"/>
        <path id="Trazado_629374" data-name="Trazado 629374" d="M1760.722,609.436c-.493,0-.987.019-1.479,0a1,1,0,0,1-1.043-.993.979.979,0,0,1,1.015-.953c1.007-.028,2.015-.029,3.022,0a.932.932,0,0,1,.994.956.952.952,0,0,1-1.03.989C1761.709,609.454,1761.215,609.435,1760.722,609.436Z" transform="translate(-57.567 -51.959)" fill="#0e0c0a"/>
        <path id="Trazado_629375" data-name="Trazado 629375" d="M1842.233,590.762c-.406,0-.814.016-1.219,0a.964.964,0,1,1,.012-1.928c.812-.021,1.626-.025,2.438,0a.947.947,0,0,1,.946,1,.965.965,0,0,1-.958.927c-.042,0-.086,0-.128,0h-1.091Z" transform="translate(-118.254 -38.128)" fill="#030302"/>
        <path id="Trazado_629376" data-name="Trazado 629376" d="M1844.01,651.759h-2.183a1.05,1.05,0,0,0-1.2-.957c-.463.012-.927-.023-1.391-.037a10.6,10.6,0,0,1-.011-6.121.647.647,0,0,1,.126-.025q8.121,0,16.243,0a1.234,1.234,0,0,1,1.343,1.327c.028,1.03.012,2.062.01,3.094,0,1.346-.424,1.766-1.778,1.766q-4.9,0-9.8,0C1844.465,650.808,1844.3,650.925,1844.01,651.759Z" transform="translate(-117.328 -79.51)" fill="#5499da"/>
        <path id="Trazado_629377" data-name="Trazado 629377" d="M1825.63,645.143c.464.014.928.049,1.391.037a1.05,1.05,0,0,1,1.2.957c-.223.788-.468.986-1.267.99-1.053.006-2.106.012-3.16,0a3.248,3.248,0,0,1-3.35-3.33q-.02-1.741,0-3.482a3.15,3.15,0,0,1,3.2-3.259q9.22-.046,18.441,0a3.118,3.118,0,0,1,3.191,3.067,31.032,31.032,0,0,1,0,3.865,3.223,3.223,0,0,1-3.408,3.14q-5.062.012-10.124,0c-.848,0-1.065-.165-1.344-.991.3-.834.455-.951,1.364-.951q4.9,0,9.8,0c1.355,0,1.776-.42,1.778-1.766,0-1.031.018-2.063-.01-3.094a1.234,1.234,0,0,0-1.343-1.327q-8.121-.015-16.243,0a.644.644,0,0,0-.126.025c-.619-.01-1.239-.04-1.857-.025a1.271,1.271,0,0,0-1.375,1.417q-.018,1.668,0,3.336a1.3,1.3,0,0,0,1.323,1.423C1824.349,645.206,1824.991,645.156,1825.63,645.143Z" transform="translate(-103.72 -73.889)" fill="#020404"/>
        <path id="Trazado_629378" data-name="Trazado 629378" d="M1895.811,723.941c0,1.654.009,3.309,0,4.963a2.778,2.778,0,0,1-3,2.957,10.318,10.318,0,0,1-2.121-.065,2.735,2.735,0,0,1-2.254-2.686q-.029-5.188,0-10.378a2.477,2.477,0,0,1,2.239-2.492,12.309,12.309,0,0,1,2.894,0,2.434,2.434,0,0,1,2.235,2.481c.027,1.74.007,3.481.007,5.221Zm-5.418,4.454c-.08,1.289.14,1.529,1.407,1.529h.644c1.283,0,1.484-.221,1.391-1.526q.014-4.764.029-9.529a.622.622,0,0,0-.71-.708q-1.03,0-2.061,0c-.517,0-.728.274-.726.769Q1890.383,723.662,1890.393,728.395Z" transform="translate(-154.14 -132.567)" fill="#030302"/>
        <path id="Trazado_629379" data-name="Trazado 629379" d="M1857.908,723.662c-.536,0-1.073.01-1.609,0a2.011,2.011,0,0,1-2.115-1.974c-.053-1.155-.05-2.317,0-3.473a1.922,1.922,0,0,1,1.872-1.93,29.925,29.925,0,0,1,3.6.007,1.967,1.967,0,0,1,1.911,2.1q.028,1.576,0,3.153a2.063,2.063,0,0,1-2.115,2.12C1858.938,723.674,1858.423,723.663,1857.908,723.662Zm-.039-5.421c-.473.043-1.207-.241-1.58.107-.41.383-.131,1.136-.136,1.724-.013,1.652,0,1.652,1.68,1.652,1.8,0,1.8,0,1.8-1.815C1859.637,718.241,1859.637,718.241,1857.869,718.241Z" transform="translate(-128.722 -132.624)" fill="#020404"/>
        <path id="Trazado_629380" data-name="Trazado 629380" d="M1857.857,755.633c-.536,0-1.073.012-1.609,0a2.005,2.005,0,0,1-2.063-1.958c-.054-1.155-.054-2.318,0-3.473a1.928,1.928,0,0,1,1.982-1.955c1.113-.054,2.232-.055,3.345-.007a2.028,2.028,0,0,1,2.054,2.171q.017,1.512,0,3.025a2.083,2.083,0,0,1-2.232,2.2C1858.844,755.638,1858.35,755.633,1857.857,755.633Zm.05-5.423c-1.773,0-1.773,0-1.764,1.762.008,1.713.008,1.713,1.75,1.716s1.733,0,1.737-1.744S1859.635,750.21,1857.907,750.21Z" transform="translate(-128.721 -156.334)" fill="#020404"/>
        <path id="Trazado_629381" data-name="Trazado 629381" d="M1827.818,719.865c0,.536.008,1.073,0,1.609a2.021,2.021,0,0,1-1.988,2.1c-1.135.04-2.275.041-3.41,0a1.992,1.992,0,0,1-1.973-2.04q-.027-1.673,0-3.346a1.916,1.916,0,0,1,1.756-1.964,19.536,19.536,0,0,1,3.853,0,1.946,1.946,0,0,1,1.76,2.033C1827.827,718.793,1827.818,719.329,1827.818,719.865Zm-1.947.048h.005c0-.408-.017-.816.005-1.222.021-.37-.076-.549-.494-.536-.836.027-1.673.019-2.509,0-.347-.007-.507.088-.5.468.022.857.02,1.716.007,2.573-.005.329.108.459.445.453q1.254-.024,2.509,0c.376.007.558-.111.534-.516S1825.872,720.321,1825.872,719.914Z" transform="translate(-103.72 -132.547)" fill="#030302"/>
        <path id="Trazado_629382" data-name="Trazado 629382" d="M1823.393,755.683c-.256-.007-.512-.018-.768-.02a2.051,2.051,0,0,1-2.219-2.188c0-.256-.013-.512-.019-.768.007-.794,0-1.589.022-2.382a1.935,1.935,0,0,1,1.892-2.039,32.861,32.861,0,0,1,3.6,0,1.938,1.938,0,0,1,1.875,2.055q.024,1.61,0,3.221a2.037,2.037,0,0,1-2.07,2.09C1824.939,755.679,1824.166,755.675,1823.393,755.683Zm-1.061-3.733c.025.554-.152,1.27.128,1.62.333.415,1.085.087,1.652.145.021,0,.043,0,.064,0,1.67.006,1.685.006,1.664-1.637-.007-.591.259-1.346-.13-1.73-.359-.355-1.1-.1-1.675-.107C1822.348,750.226,1822.348,750.235,1822.332,751.949Z" transform="translate(-103.686 -156.36)" fill="#030302"/>
        <path id="Trazado_629383" data-name="Trazado 629383" d="M1857.912,690.04c-.579,0-1.159.021-1.737,0a1.922,1.922,0,0,1-1.925-1.864c-.049-1.2-.049-2.4,0-3.6a1.965,1.965,0,0,1,1.969-1.9q1.7-.041,3.409,0a2.011,2.011,0,0,1,1.985,1.974c.039,1.135.037,2.273,0,3.409a2,2,0,0,1-2.026,1.988c-.557.023-1.115,0-1.672,0Zm1.769-3.669h0c0-.429-.012-.858,0-1.286.013-.357-.132-.5-.492-.491q-1.254.023-2.508,0c-.346-.006-.51.09-.5.468.021.857.021,1.715.009,2.572,0,.328.108.463.446.453.621-.017,1.243,0,1.865,0,1.166,0,1.166,0,1.172-1.133C1859.681,686.757,1859.68,686.564,1859.68,686.371Z" transform="translate(-128.772 -107.717)" fill="#030302"/>
        <path id="Trazado_629384" data-name="Trazado 629384" d="M1820.456,686.33c0-.558-.013-1.115,0-1.673a2,2,0,0,1,1.957-1.988c1.136-.032,2.274-.028,3.41,0a2.007,2.007,0,0,1,2,2.015q.03,1.673,0,3.346a1.965,1.965,0,0,1-1.931,2c-1.157.036-2.317.035-3.474,0a1.967,1.967,0,0,1-1.965-2.032C1820.445,687.445,1820.455,686.887,1820.456,686.33Zm3.756,1.753c.468-.063,1.206.255,1.563-.13s.1-1.1.111-1.675c.017-1.679.007-1.691-1.7-1.673-.569.006-1.3-.256-1.665.122s-.106,1.1-.11,1.673C1822.4,688.083,1822.406,688.083,1824.211,688.083Z" transform="translate(-103.734 -107.716)" fill="#030302"/>
        <path id="Trazado_629385" data-name="Trazado 629385" d="M1892.1,690.041c-.579,0-1.159.022-1.737,0a2,2,0,0,1-1.953-1.99c-.025-1.136-.029-2.273,0-3.409a2.014,2.014,0,0,1,1.987-1.969q1.7-.042,3.409,0a1.985,1.985,0,0,1,1.97,1.972c.029,1.157.031,2.316,0,3.473a1.949,1.949,0,0,1-1.938,1.923C1893.263,690.062,1892.683,690.041,1892.1,690.041Zm1.712-3.259c.01-.578.009-1.156.033-1.734.013-.32-.078-.462-.43-.454-.878.021-1.758.02-2.636,0-.343-.007-.454.121-.441.449.025.578.024,1.156.033,1.734a6.323,6.323,0,0,1-.032.7c-.078.515.137.669.635.632.551-.04,1.106-.009,1.66-.009C1893.913,688.1,1893.913,688.1,1893.816,686.782Z" transform="translate(-154.122 -107.717)" fill="#030302"/>
        <path id="Trazado_629386" data-name="Trazado 629386" d="M1723.082,739.4c-.147-.051-.332-.1-.506-.177a1.918,1.918,0,0,0-1.069-.152c-.2.029-.389.068-.439.305a.45.45,0,0,0,.26.535c.425.2.86.385,1.292.574a2.49,2.49,0,0,1,1.626,2.345,2.451,2.451,0,0,1-1.364,2.5.65.65,0,0,0-.359.482.921.921,0,0,1-.939.736.9.9,0,0,1-.935-.736.618.618,0,0,0-.463-.465,2.1,2.1,0,0,1-1.059-.806,1.024,1.024,0,0,1,.169-1.393.843.843,0,0,1,1.256.131,1.246,1.246,0,0,0,.9.441c.352.008.705-.029.819-.458a.741.741,0,0,0-.376-.931c-.42-.213-.87-.362-1.3-.559a2.257,2.257,0,0,1-1.47-2.579,1.98,1.98,0,0,1,.415-1.065c.438-.541,1.07-.869,1.362-1.6.225-.565,1.241-.465,1.481.13a1.373,1.373,0,0,0,.947.813.965.965,0,0,1,.711,1.092A.952.952,0,0,1,1723.082,739.4Z" transform="translate(-28.445 -147.395)" fill="#030302"/>
        <path id="Trazado_629387" data-name="Trazado 629387" d="M1831.217,650.768c-.64.013-1.281.063-1.919.03a1.3,1.3,0,0,1-1.323-1.423q-.017-1.668,0-3.335a1.271,1.271,0,0,1,1.375-1.417c.619-.015,1.238.015,1.857.025A10.6,10.6,0,0,0,1831.217,650.768Z" transform="translate(-109.307 -79.514)" fill="#3b7fc5"/>
        <path id="Trazado_629388" data-name="Trazado 629388" d="M1895.983,734.154q-.012-4.732-.026-9.465c0-.495.209-.77.726-.769q1.031,0,2.061,0a.621.621,0,0,1,.71.708q-.017,4.764-.029,9.529A9.439,9.439,0,0,1,1895.983,734.154Z" transform="translate(-159.731 -138.326)" fill="#f09b3c"/>
        <path id="Trazado_629389" data-name="Trazado 629389" d="M1896.016,763.527a9.437,9.437,0,0,0,3.442,0c.093,1.305-.108,1.526-1.391,1.526h-.643C1896.156,765.056,1895.936,764.816,1896.016,763.527Z" transform="translate(-159.764 -167.699)" fill="#dd8931"/>
        <path id="Trazado_629390" data-name="Trazado 629390" d="M1863.378,723.81c1.768,0,1.768,0,1.765,1.668,0,1.815,0,1.815-1.8,1.815-1.677,0-1.693,0-1.68-1.652.005-.588-.274-1.341.136-1.724C1862.171,723.569,1862.9,723.853,1863.378,723.81Z" transform="translate(-134.231 -138.193)" fill="#467b4b"/>
        <path id="Trazado_629391" data-name="Trazado 629391" d="M1863.64,755.971c1.728,0,1.728,0,1.724,1.735s0,1.747-1.737,1.744-1.742,0-1.75-1.716C1861.867,755.971,1861.867,755.971,1863.64,755.971Z" transform="translate(-134.454 -162.095)" fill="#467b4b"/>
        <path id="Trazado_629392" data-name="Trazado 629392" d="M1831.465,725.73c0,.407-.019.816.005,1.222s-.158.523-.534.516q-1.254-.023-2.509,0c-.337.007-.45-.123-.446-.453.013-.858.016-1.716-.007-2.573-.01-.38.15-.475.5-.468.836.017,1.673.024,2.509,0,.418-.013.515.166.494.536-.023.406-.005.815-.005,1.222Z" transform="translate(-109.313 -138.364)" fill="#467b4b"/>
        <path id="Trazado_629393" data-name="Trazado 629393" d="M1827.824,757.459c.016-1.714.016-1.723,1.7-1.709.573,0,1.316-.248,1.674.107.389.384.123,1.139.13,1.73.02,1.643.006,1.643-1.664,1.637-.022,0-.043,0-.064,0-.567-.058-1.319.27-1.651-.146C1827.672,758.729,1827.849,758.013,1827.824,757.459Z" transform="translate(-109.178 -161.87)" fill="#467b4b"/>
        <path id="Trazado_629394" data-name="Trazado 629394" d="M1865.348,691.957c0,.193,0,.386,0,.579-.006,1.133-.006,1.133-1.172,1.133-.622,0-1.244-.013-1.865,0-.338.01-.451-.125-.446-.453.011-.857.012-1.715-.009-2.572-.01-.378.155-.475.5-.468q1.253.024,2.508,0c.36-.007.5.134.492.491-.016.428,0,.858,0,1.286Z" transform="translate(-134.439 -113.303)" fill="#467b4b"/>
        <path id="Trazado_629395" data-name="Trazado 629395" d="M1829.591,693.465c-1.805,0-1.815,0-1.8-1.683,0-.572-.246-1.3.11-1.673s1.1-.116,1.665-.122c1.71-.018,1.72-.006,1.7,1.673-.006.572.237,1.3-.111,1.675S1830.059,693.4,1829.591,693.465Z" transform="translate(-109.114 -113.098)" fill="#467b4b"/>
        <path id="Trazado_629396" data-name="Trazado 629396" d="M1895.968,692.366c-.01-.578-.009-1.156-.033-1.734-.014-.328.1-.456.441-.449.879.019,1.758.02,2.636,0,.351-.008.443.134.429.454-.025.577-.024,1.155-.033,1.733Z" transform="translate(-159.713 -113.305)" fill="#f09b3c"/>
        <path id="Trazado_629397" data-name="Trazado 629397" d="M1895.931,698.634l3.44,0c.1,1.319.1,1.319-1.177,1.319-.553,0-1.109-.031-1.66.009-.5.036-.713-.118-.635-.632A6.323,6.323,0,0,0,1895.931,698.634Z" transform="translate(-159.676 -119.573)" fill="#dd8931"/>
      </g>
    </g>
  </g>
</svg>
