<svg xmlns="http://www.w3.org/2000/svg" width="88.215" height="88.215" viewBox="0 0 88.215 88.215">
  <g id="Grupo_954193" data-name="Grupo 954193" transform="translate(-435.393 -1955)">
    <g id="Grupo_952195" data-name="Grupo 952195" transform="translate(132.393 -1974)">
      <g id="Grupo_951854" data-name="Grupo 951854" transform="translate(303 3929)">
        <path id="Trazado_621807" data-name="Trazado 621807" d="M44.107,0A44.107,44.107,0,1,1,0,44.107,44.107,44.107,0,0,1,44.107,0Z" fill="#449c6e"/>
      </g>
    </g>
    <g id="Grupo_952049" data-name="Grupo 952049" transform="translate(-1230.854 1747.176)">
      <path id="Trazado_628687" data-name="Trazado 628687" d="M1703.765,228.7a12.675,12.675,0,0,1,6.116,1.756c.4.222.608.231.926-.149,6.927-8.266,15.858-13.41,26.017-16.62a74.786,74.786,0,0,1,16.156-3.2l.08-.007c2.078-.192,2.73.462,2.543,2.527-.213,2.34-.5,4.668-.926,6.979a68.576,68.576,0,0,1-8.126,22.533,48.985,48.985,0,0,1-10.716,12.682c-.409.345-.445.574-.187,1.051,2.971,5.488,2.15,10.965-2.439,15.214a24.2,24.2,0,0,1-15.456,6.387,1.694,1.694,0,0,1-1.874-.959,1.751,1.751,0,0,1,.526-2.04,10.123,10.123,0,0,0,2.736-7.705c-.048-1.048-.435-1.3-1.386-.908a59.508,59.508,0,0,1-6.652,2.254,4.965,4.965,0,0,1-2.866.069c-.265-.082-.438-.13-.583.181-2.322,4.97-6.709,6.978-11.69,8.133a49.262,49.262,0,0,1-5.663.951c-1.358.152-2.209-.6-2.073-1.9a38.185,38.185,0,0,1,2.487-10.586,13.086,13.086,0,0,1,6.246-6.737c.468-.248.689-.418.5-1.006-.474-1.462.175-2.817.563-4.177a47.567,47.567,0,0,1,1.833-5.175c.353-.849.1-1.256-.849-1.308a10.194,10.194,0,0,0-7.676,2.608c-.141.126-.273.262-.418.382a1.578,1.578,0,0,1-1.738.267,1.541,1.541,0,0,1-.965-1.546,22.554,22.554,0,0,1,1.445-7.508,21.8,21.8,0,0,1,6.413-9.653A11.48,11.48,0,0,1,1703.765,228.7Zm15.558,33.315c.151-.068.328-.134.495-.221,1.456-.758,2.938-1.473,4.362-2.289,11.105-6.362,19.309-15.247,23.781-27.376a.924.924,0,0,0-.226-1.176q-6.33-6.271-12.607-12.6a.888.888,0,0,0-1.1-.282c-13.991,5.177-23.469,15.093-29.826,28.305a.613.613,0,0,0,.146.834q7.257,7.235,14.5,14.482C1718.979,261.83,1719.086,262,1719.323,262.019ZM1691.9,245.2a13.531,13.531,0,0,1,5.161-1.462,7.888,7.888,0,0,1,4.276.488c.349.179.363-.129.438-.282a64.849,64.849,0,0,1,6.309-10.249c.209-.278.222-.422-.129-.6-3.14-1.559-6.23-1.682-9.179.413-3.168,2.251-4.944,5.49-6.206,9.06A10.958,10.958,0,0,0,1691.9,245.2Zm29,28.931a2.263,2.263,0,0,0,.371,0,20.783,20.783,0,0,0,9.792-5.072c3.249-3.116,3.923-6.9,2.02-10.751-.242-.49-.409-.558-.858-.215a52.245,52.245,0,0,1-5.788,3.852c-1.4.8-2.842,1.542-4.258,2.323-.166.092-.549.089-.318.482a5.738,5.738,0,0,1,.536,3.065A14.746,14.746,0,0,1,1720.907,274.127Zm-28.809.191a32.8,32.8,0,0,0,7.618-2.065,10.207,10.207,0,0,0,5.206-5.292.772.772,0,0,0-.187-1.049c-1.167-1.122-2.3-2.281-3.444-3.426-1.809-1.808-1.805-1.8-3.941-.346-4.2,2.871-4.727,7.471-5.6,11.906C1691.689,274.343,1691.888,274.341,1692.1,274.318Zm57.324-46.472a76.936,76.936,0,0,0,2.791-13.266c.079-.632-.066-.813-.7-.707-1.7.285-3.42.484-5.119.792a64.463,64.463,0,0,0-8.15,2Zm-39.9,37.676a1.275,1.275,0,0,0,.182-.018,53.189,53.189,0,0,0,5.917-1.9c.532-.205.147-.4-.01-.554q-6.289-6.3-12.58-12.593c-.337-.339-.458-.323-.629.137-.66,1.766-1.231,3.558-1.745,5.372a1.662,1.662,0,0,0,.467,1.764q3.6,3.613,7.208,7.21A1.841,1.841,0,0,0,1709.522,265.521Z" transform="translate(-3.782)" fill="#030202"/>
      <path id="Trazado_628688" data-name="Trazado 628688" d="M1683.09,280.409a1.975,1.975,0,0,1-.607,1.3q-5.359,5.35-10.714,10.7a1.641,1.641,0,0,1-2.44.131,1.624,1.624,0,0,1,.164-2.432q5.316-5.334,10.644-10.657a1.687,1.687,0,0,1,1.975-.5A1.624,1.624,0,0,1,1683.09,280.409Z" transform="translate(0 -13.36)" fill="#030303"/>
      <path id="Trazado_628689" data-name="Trazado 628689" d="M1671.312,310.113a1.621,1.621,0,0,1-1.245-2.431,3.3,3.3,0,0,1,.523-.614q5.209-5.212,10.42-10.422a1.943,1.943,0,0,1,1.546-.743,1.617,1.617,0,0,1,1.2,2.534,3.94,3.94,0,0,1-.487.54q-5.181,5.182-10.363,10.364A2.07,2.07,0,0,1,1671.312,310.113Z" transform="translate(-0.19 -16.7)" fill="#030303"/>
      <path id="Trazado_628690" data-name="Trazado 628690" d="M1687.561,310.114a1.614,1.614,0,0,1-1.4-2.378,2.634,2.634,0,0,1,.451-.566q5.292-5.3,10.591-10.6a1.832,1.832,0,0,1,1.494-.67,1.619,1.619,0,0,1,1.175,2.549,3.694,3.694,0,0,1-.434.479q-5.21,5.211-10.422,10.422A1.986,1.986,0,0,1,1687.561,310.114Z" transform="translate(-3.344 -16.7)" fill="#030303"/>
      <path id="Trazado_628691" data-name="Trazado 628691" d="M1685.77,264.584a1.577,1.577,0,0,1,1.541.892,1.429,1.429,0,0,1-.214,1.731c-1.577,1.624-3.172,3.233-4.806,4.8a1.529,1.529,0,0,1-2.186-.126,1.559,1.559,0,0,1-.055-2.13c1.572-1.628,3.188-3.213,4.8-4.807A1.254,1.254,0,0,1,1685.77,264.584Z" transform="translate(-2.11 -10.58)" fill="#030303"/>
      <path id="Trazado_628692" data-name="Trazado 628692" d="M1715.969,294.826a1.609,1.609,0,0,1-.575,1.1c-1.451,1.447-2.892,2.9-4.35,4.342a1.65,1.65,0,0,1-2.379.15,1.608,1.608,0,0,1,.089-2.427q2.187-2.217,4.4-4.4a1.547,1.547,0,0,1,1.843-.4A1.623,1.623,0,0,1,1715.969,294.826Z" transform="translate(-7.68 -16.141)" fill="#030303"/>
      <path id="Trazado_628693" data-name="Trazado 628693" d="M1723.184,263.852c-.237-.018-.344-.189-.474-.319q-7.25-7.241-14.5-14.482a.613.613,0,0,1-.146-.834c6.357-13.213,15.835-23.129,29.826-28.305a.888.888,0,0,1,1.1.282q6.281,6.32,12.607,12.6a.924.924,0,0,1,.226,1.176c-4.472,12.129-12.676,21.014-23.781,27.376-1.424.816-2.906,1.531-4.362,2.289C1723.512,263.717,1723.335,263.784,1723.184,263.852Zm11.8-18.956a8.1,8.1,0,1,0-8.114-8.1A8.1,8.1,0,0,0,1734.986,244.9Zm-11.4,4.988a1.009,1.009,0,0,0,.685-.2,18.243,18.243,0,0,0,2.907-2.9,1.6,1.6,0,0,0-2.155-2.2,16.708,16.708,0,0,0-2.912,2.9,1.38,1.38,0,0,0-.01,1.605A1.594,1.594,0,0,0,1723.584,249.884Zm-4.707,4.574a1.612,1.612,0,0,0,1.654-1.611,1.639,1.639,0,0,0-1.587-1.61,1.609,1.609,0,0,0-1.639,1.623A1.581,1.581,0,0,0,1718.877,254.458Z" transform="translate(-7.643 -1.833)" fill="#fdfdfd"/>
      <path id="Trazado_628694" data-name="Trazado 628694" d="M1692.8,250.413a10.964,10.964,0,0,1,.671-2.629c1.261-3.571,3.038-6.809,6.206-9.06,2.949-2.1,6.039-1.972,9.179-.413.351.175.338.319.129.6a64.847,64.847,0,0,0-6.308,10.249c-.076.154-.089.461-.438.282a7.887,7.887,0,0,0-4.276-.488A13.531,13.531,0,0,0,1692.8,250.413Z" transform="translate(-4.68 -5.218)" fill="#e95e51"/>
      <path id="Trazado_628695" data-name="Trazado 628695" d="M1728.849,285.647a14.747,14.747,0,0,0,1.5-6.319,5.74,5.74,0,0,0-.536-3.065c-.231-.393.153-.39.318-.482,1.415-.781,2.856-1.519,4.258-2.323a52.216,52.216,0,0,0,5.788-3.852c.449-.344.616-.275.858.215,1.9,3.852,1.23,7.635-2.02,10.751a20.781,20.781,0,0,1-9.792,5.072A2.262,2.262,0,0,1,1728.849,285.647Z" transform="translate(-11.725 -11.52)" fill="#e95e51"/>
      <path id="Trazado_628696" data-name="Trazado 628696" d="M1692.954,286.618c-.209.023-.409.025-.35-.271.876-4.435,1.4-9.035,5.6-11.906,2.135-1.457,2.132-1.462,3.941.346,1.146,1.145,2.276,2.3,3.444,3.426a.772.772,0,0,1,.187,1.049,10.208,10.208,0,0,1-5.206,5.292A32.8,32.8,0,0,1,1692.954,286.618Z" transform="translate(-4.639 -12.3)" fill="#f7db85"/>
      <path id="Trazado_628697" data-name="Trazado 628697" d="M1761.574,228.67l-11.182-11.176a64.461,64.461,0,0,1,8.15-2c1.7-.308,3.416-.507,5.119-.792.638-.106.783.075.7.707A76.948,76.948,0,0,1,1761.574,228.67Z" transform="translate(-15.935 -0.825)" fill="#e95e51"/>
      <path id="Trazado_628698" data-name="Trazado 628698" d="M1712.526,275.183a1.842,1.842,0,0,1-1.19-.582q-3.608-3.6-7.208-7.21a1.663,1.663,0,0,1-.467-1.764c.514-1.814,1.085-3.606,1.745-5.372.171-.46.292-.475.629-.137q6.282,6.3,12.58,12.593c.157.158.542.349.01.554a53.186,53.186,0,0,1-5.917,1.9A1.272,1.272,0,0,1,1712.526,275.183Z" transform="translate(-6.786 -9.662)" fill="#e85e51"/>
      <path id="Trazado_628699" data-name="Trazado 628699" d="M1739.579,247.051a8.1,8.1,0,0,1-.051-16.2,8.1,8.1,0,1,1,.051,16.2Zm-.056-3.243a4.853,4.853,0,1,0-4.815-4.852A4.831,4.831,0,0,0,1739.524,243.808Z" transform="translate(-12.236 -3.988)" fill="#030303"/>
      <path id="Trazado_628700" data-name="Trazado 628700" d="M1726.957,255.836a1.594,1.594,0,0,1-1.485-.807,1.38,1.38,0,0,1,.01-1.605,16.707,16.707,0,0,1,2.912-2.9,1.6,1.6,0,0,1,2.155,2.2,18.24,18.24,0,0,1-2.907,2.9A1.009,1.009,0,0,1,1726.957,255.836Z" transform="translate(-11.016 -7.785)" fill="#070707"/>
      <path id="Trazado_628701" data-name="Trazado 628701" d="M1721.146,262.088a1.581,1.581,0,0,1-1.572-1.6,1.609,1.609,0,0,1,1.639-1.623,1.639,1.639,0,0,1,1.587,1.61A1.611,1.611,0,0,1,1721.146,262.088Z" transform="translate(-9.912 -9.463)" fill="#050505"/>
      <path id="Trazado_628702" data-name="Trazado 628702" d="M1740.312,244.6a4.853,4.853,0,0,1,.016-9.705,4.853,4.853,0,1,1-.016,9.705Z" transform="translate(-13.024 -4.777)" fill="#8ed4e2"/>
    </g>
  </g>
</svg>
