<svg xmlns="http://www.w3.org/2000/svg" width="88.215" height="88.215" viewBox="0 0 88.215 88.215">
  <g id="Grupo_954191" data-name="Grupo 954191" transform="translate(-1065.393 -1955)">
    <g id="Grupo_952197" data-name="Grupo 952197" transform="translate(762.393 -1974)">
      <g id="Grupo_951854" data-name="Grupo 951854" transform="translate(303 3929)">
        <path id="Trazado_621807" data-name="Trazado 621807" d="M44.107,0A44.107,44.107,0,1,1,0,44.107,44.107,44.107,0,0,1,44.107,0Z" fill="#449c6e"/>
      </g>
    </g>
    <g id="Grupo_954187" data-name="Grupo 954187" transform="translate(361.27 1809.934)">
      <path id="Trazado_629782" data-name="Trazado 629782" d="M706.425,209.726a3.391,3.391,0,0,0-.385-1.575c-.3-.55-.071-.766.448-.976q16.78-6.783,33.555-13.58a1.244,1.244,0,0,0,.885-1.093c.221-1.329.539-2.642.813-3.963a4.2,4.2,0,0,1,1.6-2.672c.365-.265.326-.467.231-.846a2.045,2.045,0,0,0-2.229-1.795,26.262,26.262,0,0,1-5.891-.717,15.931,15.931,0,0,1-5.121-2.175,6.729,6.729,0,0,0-3.3-1.052c-1.545-.157-3.09-.314-4.632-.5a8.084,8.084,0,0,1-7.074-6.244,7.846,7.846,0,0,1,3.9-8.627c.387-.229.471-.389.283-.788a9.358,9.358,0,0,1-.529-1.451,4.232,4.232,0,0,1,2.9-5.583q6.915-2.5,13.835-4.982,7.848-2.826,15.7-5.654c2.848-1.026,5-.012,5.954,2.851.192.575.361.783,1.06.673a7.35,7.35,0,0,1,7.527,3.614,7.491,7.491,0,0,1-.452,8.494c-1.267,1.637-2.589,3.232-3.914,4.822a2.836,2.836,0,0,0-.642,1.381,16.4,16.4,0,0,1-3.67,7.859c-1.068,1.28-2.16,2.54-3.238,3.811a2.8,2.8,0,0,0,.353,2.334c.177.112.323-.029.462-.09,1.863-.812,3.739-1.6,5.578-2.462a4.377,4.377,0,0,1,5.67,2.5c1.152,2.965,2.234,5.956,3.346,8.937q2.343,6.283,4.685,12.567a4.336,4.336,0,0,1-2.309,5.89q-2.686,1.363-5.4,2.675c-.445.215-.577.4-.352.9.735,1.649,1.424,3.318,2.091,5a.8.8,0,0,0,.9.579c1.265-.03,2.531-.027,3.8-.007a4.614,4.614,0,0,1,4.556,3.167c.315.8.564,1.629.924,2.407.283.611.077.818-.487,1.036q-8.62,3.342-17.222,6.727c-1.735.679-3.473,1.349-5.2,2.05-.453.184-.694.17-.877-.354-.385-1.109-.867-2.184-1.257-3.291a3.922,3.922,0,0,1,1-4.351q1.524-1.525,3.112-2.985a.777.777,0,0,0,.235-.962q-1.146-3.38-2.227-6.781a.709.709,0,0,0-.691-.6c-2.113-.235-4.223-.5-6.332-.772a1.7,1.7,0,0,0-.9.229q-19.817,8.214-39.626,16.448c-.784.327-1.111.193-1.326-.574a3.662,3.662,0,0,0-.454-1.017c-.324-.492-.123-.757.317-.971a4.685,4.685,0,0,0,.574-.159q12-4.981,24.014-9.952c.587-.242.7-.441.5-1.041q-2.189-6.436-4.3-12.9c-.247-.761-.527-.895-1.272-.593-6.063,2.456-12.145,4.865-18.21,7.317C707.195,210.072,706.812,210.129,706.425,209.726Zm52.154-46.3a14.764,14.764,0,0,0-.383-3.416c-.961-3.605-2.3-7.09-3.445-10.634-.408-1.259-.982-1.529-2.227-1.082q-14.779,5.31-29.552,10.632c-1.2.432-1.482,1.077-1.011,2.282,1.19,3.045,2.366,6.1,3.6,9.123a15.33,15.33,0,0,0,11.505,9.652,56.616,56.616,0,0,0,7.2.754,1.084,1.084,0,0,1,1.109.829c.27.815.633,1.6.937,2.4.125.331.253.434.625.271q2.088-.916,4.208-1.755c.424-.169.485-.355.306-.766-.32-.735-.55-1.51-.867-2.246a.933.933,0,0,1,.189-1.143c1.338-1.5,2.636-3.039,3.946-4.567A15.588,15.588,0,0,0,758.579,163.429Zm-.027,47.886a2.428,2.428,0,0,0,1.4-.328q4.892-2.434,9.8-4.839c2.215-1.09,2.267-1.243,1.334-3.533-.176-.431-.356-.558-.82-.389-1.373.5-2.763.958-4.148,1.429-2.022.689-1.989.677-2.664-1.355-.207-.623-.024-.784.515-.949,1.728-.528,3.437-1.115,5.164-1.643.567-.174.706-.382.452-.966-.469-1.076-.863-2.187-1.237-3.3-.155-.463-.329-.547-.79-.382-1.4.5-2.825.958-4.245,1.414-.673.216-1.491.831-1.981.525-.472-.294-.5-1.273-.766-1.932-.2-.48-.091-.682.414-.844,1.829-.587,3.634-1.247,5.465-1.828.526-.167.684-.331.455-.876-.455-1.083-.88-2.182-1.243-3.3-.186-.572-.426-.6-.937-.418-1.433.506-2.886.956-4.334,1.419-2.069.662-2.054.653-2.687-1.455-.155-.514-.043-.692.464-.842,1.347-.4,2.674-.864,4.007-1.308.761-.253,1.9-.307,2.179-.825.326-.6-.42-1.5-.7-2.264-.571-1.578-1.149-1.814-2.672-1.163-4.8,2.052-9.577,4.147-14.4,6.13a3.074,3.074,0,0,0-2.207,2.713c-.251,2.128-.917,4.135-.049,6.381,1.631,4.219,2.918,8.57,4.362,12.862.108.321.094.747.626.805C752.389,210.6,755.47,210.959,758.552,211.315Zm-19.436-1.778c.031.262-.17.315-.365.378a12.6,12.6,0,0,0-1.387.465c-.671.308-.966.171-1.2-.579-.975-3.121-2.033-6.215-3.042-9.325-.162-.5-.349-.727-.908-.472-.677.309-1.385.555-2.086.809-.394.142-.511.319-.36.766q2.258,6.686,4.462,13.389c.166.5.373.609.866.4q5.191-2.2,10.4-4.358c.46-.19.515-.4.368-.832q-2.245-6.6-4.457-13.21c-.167-.5-.368-.611-.869-.4-1.453.616-2.914,1.219-4.4,1.75-.605.216-.622.478-.442,1.009,1.083,3.176,2.135,6.362,3.2,9.545C738.97,209.089,739.041,209.308,739.116,209.537Zm30.9,11.1a13.8,13.8,0,0,0-3.306.186c-1.69.555-3.379,1.114-5.073,1.658a2.038,2.038,0,0,0-.825.438c-1.46,1.386-2.932,2.757-4.384,4.151a1.668,1.668,0,0,0-.4,1.9c.184.518.4.705,1,.459,5.555-2.262,11.126-4.485,16.691-6.722.862-.346.969-.755.379-1.491a1.562,1.562,0,0,0-1.29-.577C771.946,220.637,771.083,220.635,770.016,220.635Zm-44.329-44.362c-.405-.594-.73-1.061-1.047-1.534-1.577-2.355-2.441-5.043-3.536-7.622-.22-.517-.379-.594-.835-.259a4.784,4.784,0,0,0-2.106,4.689,4.7,4.7,0,0,0,3.529,4.209A34.622,34.622,0,0,0,725.687,176.273Zm33.006-24.3c.534,1.616,1.025,3.172,1.563,4.711A26.436,26.436,0,0,1,761.4,161.6c.673-.849,1.257-1.549,1.8-2.279a4.539,4.539,0,0,0,.24-5.316A4.48,4.48,0,0,0,758.693,151.975Zm-.28,62.442c.581,1.712,1.138,3.336,1.68,4.966.125.375.309.367.644.249,1.353-.476,2.713-.936,4.084-1.357.508-.156.523-.371.329-.8-.615-1.36-1.223-2.723-1.776-4.108-.207-.519-.415-.532-.879-.324C761.2,213.621,760.022,214.526,758.413,214.416Z" transform="translate(0)" fill="#030302"/>
      <path id="Trazado_629783" data-name="Trazado 629783" d="M707.271,318.208c.387.4.77.346,1.275.142,6.065-2.452,12.147-4.861,18.21-7.317.746-.3,1.025-.168,1.272.593q2.1,6.465,4.3,12.9c.2.6.092.8-.5,1.041q-12.018,4.948-24.014,9.952a4.683,4.683,0,0,1-.574.159C707.213,329.854,707.154,324.03,707.271,318.208Z" transform="translate(-0.846 -108.482)" fill="#4a4a54"/>
      <path id="Trazado_629784" data-name="Trazado 629784" d="M923.17,256.415c0,1.335,0,1.335-1.282,1.576a7.088,7.088,0,0,0-5.872,7.155c-.034,1.325-.034,1.325-1.3,1.325-1.528,0-1.528,0-1.569-1.562a7.039,7.039,0,0,0-6.543-6.971c-.472-.038-.7-.155-.63-.647a1.306,1.306,0,0,0,0-.172,4.545,4.545,0,0,1,.065-1.87c.283-.552,1.126-.286,1.714-.431a7.163,7.163,0,0,0,5.394-6.867c.036-1.534.036-1.534,1.513-1.534,1.321,0,1.321,0,1.358,1.36a7.021,7.021,0,0,0,6.665,7.2c.443.045.522.2.493.572C923.153,255.838,923.17,256.127,923.17,256.415Zm-8.594,3.462a10.573,10.573,0,0,1,3.409-3.422,10.673,10.673,0,0,1-3.408-3.435,10.614,10.614,0,0,1-3.426,3.441A10.19,10.19,0,0,1,914.576,259.877Z" transform="translate(-130.842 -66.306)" fill="#040404"/>
      <path id="Trazado_629785" data-name="Trazado 629785" d="M889.488,173.623c0-1.323,0-1.323,1.228-1.554a7.108,7.108,0,0,0,5.963-7.332c.01-1.166.01-1.166,1.193-1.166,1.579,0,1.579,0,1.655,1.566a7.062,7.062,0,0,0,6.608,7c.433.038.608.129.582.589a6.434,6.434,0,0,1-.068,2.045c-.3.683-1.212.317-1.84.488a7.21,7.21,0,0,0-5.277,6.784,5.467,5.467,0,0,0,0,.947c.068.545-.15.7-.676.664-.657-.047-1.452.2-1.947-.084-.581-.339-.177-1.206-.239-1.837a7.051,7.051,0,0,0-6.607-6.642c-.446-.04-.62-.163-.575-.608A8.483,8.483,0,0,0,889.488,173.623Zm12.02-.017a10.864,10.864,0,0,1-3.416-3.408,10.8,10.8,0,0,1-3.4,3.416,10.314,10.314,0,0,1,3.151,3.043c.147.227.263.378.48.039A10.46,10.46,0,0,1,901.507,173.606Z" transform="translate(-120.094 -12.106)" fill="#040404"/>
      <path id="Trazado_629786" data-name="Trazado 629786" d="M724.327,256.447a1.019,1.019,0,0,0,0,.172c.162.926-.107,1.264-1.159,1.391a7.014,7.014,0,0,0-6.032,7.166c-.018,1.294-.018,1.294-1.32,1.294-1.466,0-1.466,0-1.528-1.435a7.017,7.017,0,0,0-6.682-7.1c-.435-.049-.515-.213-.5-.589a5.958,5.958,0,0,1,.063-2.047c.292-.663,1.2-.33,1.826-.5a7.2,7.2,0,0,0,5.3-7.208c.016-1.172.016-1.172,1.186-1.172,1.608,0,1.608,0,1.662,1.564a7.029,7.029,0,0,0,6.281,6.955c.839.093,1,.382.907,1.081A3.255,3.255,0,0,0,724.327,256.447Zm-5.2,0a11.038,11.038,0,0,1-3.418-3.408,10.789,10.789,0,0,1-3.41,3.411,9.888,9.888,0,0,1,3.119,2.99c.232.357.38.325.6-.009A10.106,10.106,0,0,1,719.128,256.451Z" transform="translate(-0.742 -66.306)" fill="#040303"/>
      <path id="Trazado_629787" data-name="Trazado 629787" d="M788.543,169.159a15.589,15.589,0,0,1-3.865,10.338c-1.309,1.528-2.608,3.065-3.946,4.567a.933.933,0,0,0-.189,1.143c.317.737.547,1.511.867,2.246.179.411.118.6-.306.766q-2.118.842-4.208,1.755c-.372.163-.5.06-.625-.271-.3-.8-.666-1.589-.937-2.4a1.084,1.084,0,0,0-1.109-.829,56.617,56.617,0,0,1-7.2-.754,15.33,15.33,0,0,1-11.505-9.652c-1.233-3.028-2.408-6.079-3.6-9.123-.471-1.2-.187-1.85,1.011-2.282q14.774-5.322,29.552-10.632c1.245-.447,1.819-.177,2.227,1.082,1.149,3.544,2.484,7.029,3.445,10.634A14.77,14.77,0,0,1,788.543,169.159Zm-4.574-.206a22.188,22.188,0,0,0-2.7-9.666c-.733-1.411-.742-1.406-2.1-.518a5.613,5.613,0,0,1-.652.418c-.407.192-.435.4-.2.787a19.5,19.5,0,0,1,2.259,5.56c.774,3.227.784,6.37-1.089,9.3-.332.52-1.142.934-.99,1.486s.889.935,1.3,1.444.669.367,1.044-.062A12.823,12.823,0,0,0,783.969,168.953Z" transform="translate(-29.965 -5.731)" fill="#e7a543"/>
      <path id="Trazado_629788" data-name="Trazado 629788" d="M830.4,279.352c-3.082-.356-6.163-.72-9.247-1.06-.532-.059-.518-.485-.626-.805-1.444-4.292-2.732-8.643-4.362-12.862-.869-2.246-.2-4.253.049-6.381a3.074,3.074,0,0,1,2.207-2.713c4.826-1.983,9.606-4.078,14.4-6.13,1.523-.651,2.1-.415,2.672,1.163.278.768,1.024,1.669.7,2.264-.284.518-1.419.572-2.18.825-1.334.443-2.66.909-4.007,1.308-.508.15-.619.328-.464.842.634,2.108.618,2.117,2.687,1.455,1.448-.463,2.9-.914,4.334-1.419.511-.181.751-.155.938.418.363,1.117.788,2.215,1.243,3.3.229.545.071.709-.455.876-1.831.581-3.636,1.241-5.465,1.828-.5.162-.61.365-.414.844.269.659.294,1.638.766,1.932.49.306,1.308-.309,1.981-.525,1.42-.455,2.841-.912,4.245-1.414.461-.165.635-.082.79.382.374,1.113.769,2.224,1.237,3.3.254.584.115.793-.452.966-1.727.528-3.437,1.116-5.164,1.643-.539.165-.722.326-.515.949.675,2.032.641,2.044,2.664,1.355,1.385-.471,2.775-.928,4.148-1.429.464-.169.644-.042.82.389.932,2.29.88,2.443-1.334,3.533q-4.9,2.413-9.8,4.839A2.428,2.428,0,0,1,830.4,279.352Z" transform="translate(-71.853 -68.037)" fill="#e7cbbf"/>
      <path id="Trazado_629789" data-name="Trazado 629789" d="M784.14,306.789c-.076-.23-.146-.448-.219-.665-1.062-3.183-2.114-6.369-3.2-9.545-.181-.53-.164-.792.441-1.009,1.485-.531,2.946-1.134,4.4-1.75.5-.212.7-.1.869.4q2.208,6.612,4.457,13.21c.147.43.092.642-.368.832q-5.214,2.149-10.4,4.358c-.493.21-.7.1-.866-.4q-2.207-6.7-4.462-13.389c-.151-.446-.034-.623.36-.766.7-.254,1.408-.5,2.086-.809.558-.254.746-.027.908.472,1.009,3.11,2.067,6.2,3.042,9.325.234.75.53.887,1.2.579a12.6,12.6,0,0,1,1.387-.465C783.97,307.1,784.172,307.052,784.14,306.789Z" transform="translate(-45.024 -97.252)" fill="#676a7b"/>
      <path id="Trazado_629790" data-name="Trazado 629790" d="M864.595,363.591c1.067,0,1.929,0,2.792,0a1.562,1.562,0,0,1,1.29.577c.59.735.483,1.144-.379,1.491-5.565,2.237-11.136,4.461-16.691,6.722-.606.247-.818.059-1-.458a1.668,1.668,0,0,1,.4-1.9c1.451-1.394,2.924-2.765,4.384-4.151a2.039,2.039,0,0,1,.825-.438c1.694-.544,3.382-1.1,5.072-1.658A13.805,13.805,0,0,1,864.595,363.591Z" transform="translate(-94.578 -142.956)" fill="#d78438"/>
      <path id="Trazado_629791" data-name="Trazado 629791" d="M857.755,342.793c1.609.11,2.79-.795,4.083-1.374.464-.208.672-.195.879.324.553,1.385,1.161,2.749,1.776,4.108.194.428.178.644-.329.8-1.371.421-2.731.881-4.084,1.357-.335.118-.519.126-.644-.249C858.893,346.13,858.336,344.505,857.755,342.793Z" transform="translate(-99.342 -128.377)" fill="#e5a342"/>
      <path id="Trazado_629792" data-name="Trazado 629792" d="M924.506,272.372a10.188,10.188,0,0,0-3.425-3.416,10.615,10.615,0,0,0,3.426-3.441,10.673,10.673,0,0,0,3.408,3.435A10.574,10.574,0,0,0,924.506,272.372Z" transform="translate(-140.772 -78.801)" fill="#e8be72"/>
      <path id="Trazado_629793" data-name="Trazado 629793" d="M911.381,186.145a10.464,10.464,0,0,0-3.183,3.09c-.217.338-.333.187-.48-.039a10.315,10.315,0,0,0-3.151-3.043,10.8,10.8,0,0,0,3.4-3.416A10.867,10.867,0,0,0,911.381,186.145Z" transform="translate(-129.969 -24.645)" fill="#e6bc72"/>
      <path id="Trazado_629794" data-name="Trazado 629794" d="M729.077,268.992a10.109,10.109,0,0,0-3.113,2.984c-.215.334-.364.366-.6.009A9.889,9.889,0,0,0,722.25,269a10.788,10.788,0,0,0,3.41-3.411A11.04,11.04,0,0,0,729.077,268.992Z" transform="translate(-10.691 -78.846)" fill="#e7bd72"/>
      <path id="Trazado_629795" data-name="Trazado 629795" d="M834.043,177.145a12.823,12.823,0,0,1-3.116,8.75c-.375.429-.623.578-1.044.062s-1.15-.887-1.3-1.444.658-.967.99-1.486c1.873-2.931,1.863-6.074,1.089-9.3a19.5,19.5,0,0,0-2.259-5.56c-.236-.391-.208-.594.2-.787a5.6,5.6,0,0,0,.652-.418c1.355-.888,1.365-.893,2.1.518A22.186,22.186,0,0,1,834.043,177.145Z" transform="translate(-80.038 -13.922)" fill="#030302"/>
    </g>
  </g>
</svg>
