<svg xmlns="http://www.w3.org/2000/svg" width="71.839" height="67.084" viewBox="0 0 71.839 67.084">
  <g id="Grupo_954227" data-name="Grupo 954227" transform="translate(-588.839 -38.119)">
    <path id="Trazado_629892" data-name="Trazado 629892" d="M593.464,114.54a1.215,1.215,0,0,1-1.056-1.4c.017-3.248,0-6.5.012-9.744a2.628,2.628,0,0,1,2.844-2.835c.538,0,1.077-.027,1.612.008.391.026.482-.132.459-.481a3.692,3.692,0,0,1,.031-.838.946.946,0,0,1,1.026-.854.959.959,0,0,1,1,.805c.017.068.024.138.034.207.056.364-.163.9.1,1.058a2.574,2.574,0,0,0,1.225.091c2.711,0,5.423-.024,8.133.022.65.011.816-.192.729-.773a1.459,1.459,0,0,1,.019-.558,1,1,0,0,1,1.111-.85.981.981,0,0,1,.963.935c.055.388-.178.925.1,1.136.346.268.9.067,1.357.088.373.017.751-.019,1.121.022a2.585,2.585,0,0,1,2.341,2.612q.013,12.9,0,25.8A2.535,2.535,0,0,1,614,131.605c-2.243.054-4.487.019-6.731.022-.958,0-1.917.019-2.874-.008a.767.767,0,0,0-.807.484,7.792,7.792,0,0,1-14.53-1.838,7.527,7.527,0,0,1,2.86-7.959,1.147,1.147,0,0,0,.5-1.045c-.031-.863-.016-1.729-.007-2.593.009-.907.18-1.124,1.055-1.393a1.193,1.193,0,0,1,1.056,1.4c-.023.536.026,1.076-.013,1.61s.073.682.649.565a7.3,7.3,0,0,1,5.569,1,2.573,2.573,0,0,0,1.8.334,1.012,1.012,0,0,0,.945-1.1,1.047,1.047,0,0,0-1.026-1.032c-.442-.026-.888-.019-1.331-.005a1.178,1.178,0,0,1-1.236-.605,1.147,1.147,0,0,1,.291-1.338c.578-.686,1.14-1.386,1.793-2.184-.795,0-1.444.015-2.091,0a1.082,1.082,0,0,1-1.172-1.039,1.06,1.06,0,0,1,1.152-1.053c1.4-.022,2.8-.008,4.2-.007a1.092,1.092,0,0,1,1.088.616,1.075,1.075,0,0,1-.232,1.226c-.533.65-1.065,1.3-1.605,1.943-.2.235-.306.356.117.511A3.02,3.02,0,0,1,605.574,121a3.05,3.05,0,0,1-1.99,3.077c-.319.141-.309.24-.159.5a7.5,7.5,0,0,1,1.023,4.563c-.025.266.03.386.321.383,2.03-.022,4.06-.033,6.09-.049.885.016,1.77.041,2.654.045.923,0,1.008-.085,1.008-.983q0-6.44,0-12.88,0-2.625,0-5.25c0-.265.092-.576-.379-.56-1.047.035-2.1.038-3.144.054a.5.5,0,0,0-.134-.039q-7.944-.005-15.887-.015c-.394,0-.462.169-.457.505.014.933-.013,1.866.01,2.8A1.2,1.2,0,0,1,593.464,114.54Zm3.23,19.649a3.229,3.229,0,0,0,1.246-.12,5.719,5.719,0,0,0,4.368-6.475,5.722,5.722,0,0,0-11.361.834A5.686,5.686,0,0,0,596.694,134.188Zm14.311-26.48c1.026.012,2.052.015,3.077.042.33.009.449-.1.445-.437-.015-1.33-.01-2.66-.005-3.99,0-.483-.259-.663-.706-.66a13.407,13.407,0,0,1-1.469-.01c-.549-.057-.7.159-.639.667a1.3,1.3,0,0,1-.714,1.518c-1.008.05-1.427-.314-1.368-1.359.039-.689-.171-.842-.841-.831-2.64.043-5.282.015-7.923.02a2.826,2.826,0,0,0-1.3.091c-.311.181-.072.734-.134,1.119a1.051,1.051,0,0,1-2.1,0c-.069-.4.223-.946-.185-1.161a3,3,0,0,0-1.242-.054c-.187,0-.375.012-.561,0-.612-.049-.832.248-.822.836.02,1.191.039,2.385-.008,3.574-.023.581.189.685.716.682,3.529-.021,7.058-.007,10.587-.013C607.548,107.74,609.277,107.72,611.005,107.708Z" transform="translate(0 -43.335)" fill="#040404"/>
    <path id="Trazado_629893" data-name="Trazado 629893" d="M703.528,48.073a3.837,3.837,0,0,1-2.5,3.369.642.642,0,0,0-.484.7q.027,4.907,0,9.815a.548.548,0,0,0,.4.609,4.036,4.036,0,0,1,.008,7.523.543.543,0,0,0-.4.6q.013,4.942,0,9.885a.54.54,0,0,0,.4.6,4.034,4.034,0,0,1,0,7.52c-.361.149-.4.351-.4.68.01,3.225.016,6.45-.006,9.675a.729.729,0,0,0,.545.8,4,4,0,0,1,2.4,4.447,4.05,4.05,0,0,1-7.9.29,3.992,3.992,0,0,1,2.363-4.759.68.68,0,0,0,.508-.756q-.025-4.837,0-9.675a.687.687,0,0,0-.514-.74,3.845,3.845,0,0,1-2.479-3.725,3.805,3.805,0,0,1,2.485-3.713.686.686,0,0,0,.506-.754q-.025-4.837,0-9.675a.686.686,0,0,0-.5-.757,4.023,4.023,0,0,1-.011-7.432.724.724,0,0,0,.514-.813q-.027-4.767,0-9.534a.776.776,0,0,0-.571-.86,3.977,3.977,0,0,1-2.283-4.792,4.057,4.057,0,0,1,4.385-2.927A4.147,4.147,0,0,1,703.528,48.073Zm-4.247,53.6a1.846,1.846,0,0,0-1.714,1.86,1.874,1.874,0,0,0,1.72,1.934,1.911,1.911,0,1,0-.007-3.794Zm0-55.864a1.863,1.863,0,0,0-1.715,1.933,1.834,1.834,0,0,0,1.712,1.854,1.69,1.69,0,0,0,1.826-.832,1.786,1.786,0,0,0,.043-2.034A1.767,1.767,0,0,0,699.284,45.808Zm-.13,18.634A1.862,1.862,0,0,0,697.58,66.5a1.8,1.8,0,0,0,1.712,1.7,1.845,1.845,0,0,0,2.126-1.907A1.886,1.886,0,0,0,699.154,64.442Zm.137,22.392a1.862,1.862,0,0,0,2.127-1.923,1.843,1.843,0,0,0-2.124-1.839,1.815,1.815,0,0,0-1.723,1.839A1.842,1.842,0,0,0,699.291,86.834Z" transform="translate(-76.642 -3.976)" fill="#030302"/>
    <path id="Trazado_629894" data-name="Trazado 629894" d="M622.691,158.777c-2.03.015-4.06.027-6.09.049-.291,0-.345-.117-.321-.383a7.5,7.5,0,0,0-1.023-4.563c-.149-.257-.16-.356.159-.5a3.05,3.05,0,0,0,1.99-3.077,3.02,3.02,0,0,0-2.148-2.893c-.423-.155-.314-.276-.117-.511.54-.644,1.073-1.293,1.605-1.943a1.075,1.075,0,0,0,.232-1.226,1.092,1.092,0,0,0-1.088-.616c-1.4,0-2.8-.014-4.2.007a1.06,1.06,0,0,0-1.153,1.053,1.082,1.082,0,0,0,1.172,1.039c.648.019,1.3,0,2.091,0-.653.8-1.215,1.5-1.793,2.184a1.147,1.147,0,0,0-.291,1.338,1.178,1.178,0,0,0,1.236.605c.443-.014.889-.021,1.331.005a1.047,1.047,0,0,1,1.026,1.032,1.012,1.012,0,0,1-.945,1.1,2.573,2.573,0,0,1-1.8-.334,7.3,7.3,0,0,0-5.569-1c-.576.117-.687-.043-.649-.565s-.01-1.074.013-1.61a1.193,1.193,0,0,0-1.056-1.4l-.008-2.734a1.2,1.2,0,0,0,1.066-1.389c-.023-.932,0-1.866-.01-2.8-.005-.336.062-.506.457-.505q7.944.019,15.888.015a.5.5,0,0,1,.134.039q0,9.416.013,18.833A1.561,1.561,0,0,1,622.691,158.777Zm-.525-10.34c0-1.377.009-2.755,0-4.132a1.038,1.038,0,0,0-1.148-1.186c-.466-.021-.935-.02-1.4,0a1.04,1.04,0,0,0-1.124,1,.989.989,0,0,0,1.041,1.069c.53.005.536.249.534.639q-.016,3.257,0,6.514c0,.807.426,1.274,1.088,1.256s1.007-.443,1.012-1.243C622.173,151.052,622.167,149.745,622.167,148.437Z" transform="translate(-11.833 -72.637)" fill="#efedf0"/>
    <path id="Trazado_629895" data-name="Trazado 629895" d="M753.479,181.789q-5.959,0-11.919,0c-1.992,0-2.914-.923-2.915-2.91,0-1.893-.006-3.785,0-5.678a2.484,2.484,0,0,1,2.669-2.67q12.2-.007,24.4,0a2.473,2.473,0,0,1,2.66,2.672q.008,2.944,0,5.888a2.458,2.458,0,0,1-2.7,2.7C761.612,181.8,757.546,181.789,753.479,181.789Zm8.025-2.152c1.4.012,2.795.02,4.192.038.412.006.583-.164.58-.585q-.017-2.937,0-5.873c0-.42-.182-.591-.588-.587-1.4.016-2.8.024-4.193.035a1.6,1.6,0,0,0-.208-.026q-9.92,0-19.839-.011c-.511,0-.708.182-.7.7.019,1.729.007,3.457.007,5.186,0,1.16,0,1.16,1.126,1.16q9.358,0,18.717,0C760.9,179.672,761.2,179.649,761.5,179.636Z" transform="translate(-107.704 -95.197)" fill="#040404"/>
    <path id="Trazado_629896" data-name="Trazado 629896" d="M753.561,38.12q6.029,0,12.058,0a2.47,2.47,0,0,1,2.755,2.771c0,1.939.005,3.878,0,5.817a2.46,2.46,0,0,1-2.674,2.649q-12.2,0-24.4,0a2.472,2.472,0,0,1-2.656-2.674q-.011-2.944,0-5.887a2.465,2.465,0,0,1,2.716-2.676Q747.462,38.115,753.561,38.12Zm7.935,9.112c1.4.008,2.8.009,4.2.028.42.006.583-.165.581-.583q-.016-2.939,0-5.879c0-.421-.164-.585-.581-.579-1.4.021-2.8.024-4.2.033a.874.874,0,0,0-.138-.022q-9.992,0-19.984-.013c-.512,0-.634.222-.631.68.014,1.869.023,3.739,0,5.608-.009.586.195.768.774.76,2.15-.028,4.3-.008,6.451-.012Q754.73,47.245,761.5,47.232Z" transform="translate(-107.703)" fill="#020201"/>
    <path id="Trazado_629897" data-name="Trazado 629897" d="M758.454,105.339a1.168,1.168,0,0,1,1.35-1.022c1.987.018,3.974-.008,5.96.01a2.439,2.439,0,0,1,2.6,2.646q.009,2.98,0,5.959a2.466,2.466,0,0,1-2.614,2.648q-12.236.011-24.473,0a2.477,2.477,0,0,1-2.64-2.629q-.016-3.015,0-6.029a2.438,2.438,0,0,1,2.592-2.594c4.371-.015,8.742,0,13.113-.011a1.17,1.17,0,0,1,1.348,1.023c-.236.9-.487,1.1-1.5,1.1-4.2,0-8.409.012-12.613-.01-.63,0-.866.165-.851.83.042,1.774.013,3.549.015,5.324,0,.884.013.9.911.9q8.234,0,16.467,0c1.12,0,2.241-.021,3.361-.031,1.4.011,2.8.02,4.193.036.4,0,.592-.165.59-.586q-.014-2.936,0-5.872c0-.42-.168-.59-.581-.585-1.4.019-2.794.026-4.192.039-.55-.013-1.1-.027-1.65-.039C758.939,106.418,758.68,106.214,758.454,105.339Z" transform="translate(-107.696 -47.594)" fill="#040404"/>
    <path id="Trazado_629898" data-name="Trazado 629898" d="M749.051,237.8a1.206,1.206,0,0,1,1.366-1.007c5.116.017,10.233.006,15.35.01a2.443,2.443,0,0,1,2.6,2.579q.015,3.048,0,6.1a2.421,2.421,0,0,1-2.543,2.559q-12.3.011-24.6,0a2.437,2.437,0,0,1-2.58-2.6q-.017-3.013,0-6.026a2.463,2.463,0,0,1,2.646-2.61c1.215,0,2.43.022,3.644-.009A1.2,1.2,0,0,1,746.3,237.8c-.229.9-.484,1.1-1.409,1.106-1.144,0-2.288.025-3.43-.009-.56-.017-.731.193-.724.733.023,1.82.037,3.641-.006,5.459-.017.69.22.863.882.861,5.158-.024,10.315-.011,15.472-.015,1.47,0,2.939-.017,4.409-.026,1.4.01,2.8.012,4.2.033.419.006.582-.158.579-.579q-.018-2.94,0-5.88c0-.418-.157-.588-.579-.582-1.4.02-2.8.02-4.2.028q-5.519-.011-11.037-.023C749.532,238.9,749.279,238.7,749.051,237.8Z" transform="translate(-107.697 -142.838)" fill="#020201"/>
    <path id="Trazado_629899" data-name="Trazado 629899" d="M766.852,116.059c-1.12.011-2.24.031-3.361.031q-8.234,0-16.467,0c-.9,0-.911-.012-.911-.9,0-1.775.027-3.55-.015-5.324-.015-.665.221-.833.851-.83,4.2.022,8.409.013,12.613.01,1.011,0,1.262-.192,1.5-1.1l2.762,0c.225.875.485,1.08,1.391,1.1.55.012,1.1.026,1.65.039q0,1.193,0,2.387l-15.486.022c-.928,0-1.443.382-1.444,1.058s.5,1.044,1.442,1.046c1.215,0,2.429,0,3.644,0l11.842.018Q766.854,114.841,766.852,116.059Z" transform="translate(-113.063 -50.208)" fill="#948ec5"/>
    <path id="Trazado_629900" data-name="Trazado 629900" d="M754.413,240.375c.228.9.481,1.1,1.4,1.106q5.519.014,11.037.023,0,1.215,0,2.431l-15.205.024c-.257,0-.515-.007-.77.015a1.029,1.029,0,0,0-.137,2.029,3.91,3.91,0,0,0,.834.06q7.637.017,15.275.027l0,2.393c-1.47.009-2.939.026-4.409.026-5.157,0-10.315-.009-15.472.015-.662,0-.9-.171-.882-.861.044-1.819.029-3.64.006-5.459-.007-.54.164-.75.724-.733,1.142.034,2.287.013,3.43.009.925,0,1.18-.208,1.409-1.106Z" transform="translate(-113.059 -145.414)" fill="#f6d06e"/>
    <path id="Trazado_629901" data-name="Trazado 629901" d="M625.527,118.538c-1.728.012-3.457.032-5.185.035-3.529.006-7.058-.008-10.587.013-.526,0-.739-.1-.716-.682.047-1.19.029-2.383.008-3.574-.01-.588.21-.885.822-.836.186.015.374,0,.561,0a3,3,0,0,1,1.242.054c.408.215.116.764.185,1.161a1.051,1.051,0,0,0,2.1,0c.062-.384-.177-.938.134-1.119a2.826,2.826,0,0,1,1.3-.091c2.641,0,5.283.023,7.923-.02.67-.011.88.142.841.831-.06,1.045.36,1.409,1.368,1.359Q625.522,117.1,625.527,118.538Z" transform="translate(-14.522 -54.165)" fill="#eb8689"/>
    <path id="Trazado_629902" data-name="Trazado 629902" d="M667.191,158.774a1.561,1.561,0,0,0,.152-.742q-.011-9.417-.013-18.833c1.048-.016,2.1-.019,3.144-.054.471-.015.378.3.379.56q0,2.625,0,5.25,0,6.44,0,12.88c0,.9-.085.988-1.008.983C668.961,158.815,668.076,158.79,667.191,158.774Z" transform="translate(-56.333 -72.634)" fill="#dbd8dc"/>
    <path id="Trazado_629903" data-name="Trazado 629903" d="M602.089,196.7a5.677,5.677,0,1,1,0-11.353.526.526,0,0,0,.337.47.568.568,0,0,1,.34.613c-1.055-.509-1.754-.1-1.769,1.051q-.021,1.673,0,3.346a1.109,1.109,0,0,0,1.248,1.249c.836.019,1.672.019,2.508.027a6.281,6.281,0,0,1-1.785,3.547C602.644,195.968,602.211,196.211,602.089,196.7Z" transform="translate(-5.394 -105.85)" fill="#e9f3fb"/>
    <path id="Trazado_629904" data-name="Trazado 629904" d="M616.792,196.708c.122-.493.556-.736.882-1.051a6.281,6.281,0,0,0,1.785-3.547c.579-.157,1.029-.437,1.005-1.123-.022-.639-.423-.93-1.006-1.033a6.491,6.491,0,0,0-1.018-2.649c-.2-.324-.391-.759-.889-.793a.068.068,0,0,1-.08-.075.568.568,0,0,0-.34-.613.526.526,0,0,1-.337-.47,5.616,5.616,0,0,1,5.612,4.758,5.719,5.719,0,0,1-4.368,6.475A3.229,3.229,0,0,1,616.792,196.708Z" transform="translate(-20.098 -105.855)" fill="#d7e6f7"/>
    <path id="Trazado_629905" data-name="Trazado 629905" d="M667.684,118.582q-.005-1.435-.011-2.871a1.3,1.3,0,0,0,.714-1.518c-.061-.508.089-.725.639-.667a13.411,13.411,0,0,0,1.469.01c.447,0,.707.178.706.66,0,1.33-.01,2.66.005,3.99,0,.339-.115.445-.445.437C669.736,118.6,668.71,118.594,667.684,118.582Z" transform="translate(-56.679 -54.209)" fill="#e46b70"/>
    <path id="Trazado_629906" data-name="Trazado 629906" d="M704.743,187.688a1.842,1.842,0,0,1-1.72-1.924,1.815,1.815,0,0,1,1.723-1.839A3.657,3.657,0,0,1,704.743,187.688Z" transform="translate(-82.094 -104.83)" fill="#66dea0"/>
    <path id="Trazado_629907" data-name="Trazado 629907" d="M704.75,121.4a1.8,1.8,0,0,1-1.712-1.7,1.862,1.862,0,0,1,1.574-2.057,3.912,3.912,0,0,1,.573,1.1A3.744,3.744,0,0,1,704.75,121.4Z" transform="translate(-82.1 -57.171)" fill="#948ec5"/>
    <path id="Trazado_629908" data-name="Trazado 629908" d="M704.73,55.119a1.834,1.834,0,0,1-1.712-1.854,1.863,1.863,0,0,1,1.715-1.933.906.906,0,0,0,.148.45,2.71,2.71,0,0,1,.063,2.759A4.684,4.684,0,0,0,704.73,55.119Z" transform="translate(-82.091 -9.5)" fill="#eb8689"/>
    <path id="Trazado_629909" data-name="Trazado 629909" d="M704.733,253.906a1.874,1.874,0,0,1-1.72-1.934,1.846,1.846,0,0,1,1.714-1.86,4.444,4.444,0,0,0,.211.58,2.705,2.705,0,0,1-.06,2.762A.868.868,0,0,0,704.733,253.906Z" transform="translate(-82.087 -152.416)" fill="#f6d06e"/>
    <path id="Trazado_629910" data-name="Trazado 629910" d="M709.11,55.061a4.684,4.684,0,0,1,.214-.578,2.71,2.71,0,0,0-.063-2.759.906.906,0,0,1-.148-.45,1.767,1.767,0,0,1,1.867.921,1.786,1.786,0,0,1-.043,2.034A1.69,1.69,0,0,1,709.11,55.061Z" transform="translate(-86.471 -9.443)" fill="#e46b70"/>
    <path id="Trazado_629911" data-name="Trazado 629911" d="M709.117,253.81a.868.868,0,0,1,.144-.451,2.705,2.705,0,0,0,.06-2.762,4.454,4.454,0,0,1-.211-.58,1.911,1.911,0,1,1,.007,3.794Z" transform="translate(-86.471 -152.32)" fill="#eebe5b"/>
    <path id="Trazado_629912" data-name="Trazado 629912" d="M709.145,187.667a3.657,3.657,0,0,0,0-3.762,1.843,1.843,0,0,1,2.124,1.839A1.861,1.861,0,0,1,709.145,187.667Z" transform="translate(-86.496 -104.809)" fill="#5dc891"/>
    <path id="Trazado_629913" data-name="Trazado 629913" d="M708.8,121.366a3.744,3.744,0,0,0,.435-2.66,3.908,3.908,0,0,0-.573-1.1,1.886,1.886,0,0,1,2.264,1.851A1.845,1.845,0,0,1,708.8,121.366Z" transform="translate(-86.146 -57.142)" fill="#7e78b6"/>
    <path id="Trazado_629914" data-name="Trazado 629914" d="M655.919,158.556c0,1.307.006,2.615,0,3.922-.005.8-.363,1.226-1.012,1.243s-1.084-.449-1.088-1.256q-.014-3.257,0-6.514c0-.39,0-.634-.534-.639a.989.989,0,0,1-1.041-1.069,1.04,1.04,0,0,1,1.124-1c.466-.023.934-.023,1.4,0a1.038,1.038,0,0,1,1.148,1.186C655.928,155.8,655.918,157.178,655.919,158.556Z" transform="translate(-45.585 -82.756)" fill="#040404"/>
    <path id="Trazado_629915" data-name="Trazado 629915" d="M766.884,185.015c-.3.012-.605.036-.908.036q-9.359,0-18.717,0c-1.126,0-1.126,0-1.126-1.16,0-1.729.012-3.458-.007-5.186-.006-.516.191-.7.7-.7q9.919.016,19.839.011a1.589,1.589,0,0,1,.208.026q0,1.219,0,2.437l-12.965.018c-.958,0-1.916-.013-2.874.007a1.042,1.042,0,0,0-1.091,1.038,1.085,1.085,0,0,0,1.024,1.052,6.114,6.114,0,0,0,.63.009l15.278.021Z" transform="translate(-113.084 -100.575)" fill="#66dea0"/>
    <path id="Trazado_629916" data-name="Trazado 629916" d="M819.959,180.487q0-1.218,0-2.437c1.4-.011,2.8-.019,4.193-.035.406,0,.59.166.588.587q-.014,2.936,0,5.873c0,.42-.169.59-.58.585-1.4-.019-2.795-.027-4.192-.039l0-2.389c.553-.171.969-.49.949-1.115A1.061,1.061,0,0,0,819.959,180.487Z" transform="translate(-166.165 -100.58)" fill="#5dc891"/>
    <path id="Trazado_629917" data-name="Trazado 629917" d="M766.864,52.6q-6.765.011-13.531.022c-2.15,0-4.3-.016-6.451.012-.579.008-.783-.174-.774-.76.028-1.869.019-3.739,0-5.608,0-.458.119-.681.631-.68q9.992.019,19.984.013a.873.873,0,0,1,.138.022q0,1.2,0,2.391c-.256.008-.513.023-.769.023q-7.254,0-14.508,0a3.909,3.909,0,0,0-.834.059,1.029,1.029,0,0,0,.131,2.03c.255.023.513.015.77.016l15.207.025Z" transform="translate(-113.071 -5.369)" fill="#eb8689"/>
    <path id="Trazado_629918" data-name="Trazado 629918" d="M819.97,48.019l0-2.391c1.4-.01,2.8-.012,4.2-.033.418-.006.584.158.581.579q-.017,2.939,0,5.879c0,.418-.161.588-.581.583-1.4-.019-2.8-.02-4.2-.028q0-1.215,0-2.431a1.081,1.081,0,0,0,.952-1.035C820.942,48.51,820.51,48.205,819.97,48.019Z" transform="translate(-166.173 -5.375)" fill="#e46b70"/>
    <path id="Trazado_629919" data-name="Trazado 629919" d="M819.956,114.29q0-1.194,0-2.387c1.4-.012,2.795-.019,4.192-.038.412-.006.583.165.581.585q-.017,2.936,0,5.872c0,.421-.185.59-.59.586-1.4-.015-2.795-.024-4.192-.036l0-2.436a1.067,1.067,0,0,0,.952-1.031C820.926,114.777,820.509,114.46,819.956,114.29Z" transform="translate(-166.16 -53.02)" fill="#7e78b6"/>
    <path id="Trazado_629920" data-name="Trazado 629920" d="M819.966,251.3q0-1.2,0-2.393c.539-.185.974-.487.954-1.118a1.079,1.079,0,0,0-.951-1.038q0-1.215,0-2.431c1.4-.008,2.8-.008,4.2-.028.422-.006.581.164.579.582q-.016,2.94,0,5.88c0,.421-.16.586-.579.579C822.765,251.312,821.366,251.309,819.966,251.3Z" transform="translate(-166.17 -148.231)" fill="#eebe5b"/>
    <path id="Trazado_629921" data-name="Trazado 629921" d="M776.662,120.5c.554.17.97.488.95,1.114a1.067,1.067,0,0,1-.952,1.031l-11.842-.018c-1.215,0-2.429,0-3.644,0-.941,0-1.443-.367-1.442-1.046s.516-1.057,1.444-1.058Z" transform="translate(-122.866 -59.226)" fill="#020201"/>
    <path id="Trazado_629922" data-name="Trazado 629922" d="M776.692,253.041a1.079,1.079,0,0,1,.951,1.038c.02.631-.415.933-.954,1.118q-7.638-.012-15.275-.027a3.909,3.909,0,0,1-.834-.06,1.029,1.029,0,0,1,.137-2.029c.255-.023.513-.015.77-.015Z" transform="translate(-122.897 -154.522)" fill="#040404"/>
    <path id="Trazado_629923" data-name="Trazado 629923" d="M614.656,188.667a.068.068,0,0,0,.08.075,3.032,3.032,0,0,1,.248,1.892c.022,1.643.007,1.643,1.66,1.55.583.1.984.393,1.006,1.033.024.686-.426.966-1.005,1.123-.836-.008-1.672-.008-2.508-.027a1.109,1.109,0,0,1-1.248-1.249q-.024-1.672,0-3.346C612.9,188.566,613.6,188.158,614.656,188.667Z" transform="translate(-17.282 -108.084)" fill="#040404"/>
    <path id="Trazado_629924" data-name="Trazado 629924" d="M621.4,192.928c-1.652.093-1.638.093-1.66-1.55a3.032,3.032,0,0,0-.248-1.893c.5.034.694.469.89.793A6.492,6.492,0,0,1,621.4,192.928Z" transform="translate(-22.038 -108.827)" fill="#e9f3fb"/>
    <path id="Trazado_629925" data-name="Trazado 629925" d="M776.658,186.811a1.061,1.061,0,0,1,.951,1.029c.02.625-.4.944-.949,1.115l-15.278-.021a6.114,6.114,0,0,1-.63-.009,1.085,1.085,0,0,1-1.024-1.052,1.042,1.042,0,0,1,1.091-1.038c.957-.02,1.916-.006,2.874-.007Z" transform="translate(-122.864 -106.904)" fill="#020201"/>
    <path id="Trazado_629926" data-name="Trazado 629926" d="M776.693,54.222c.539.186.971.491.949,1.121a1.081,1.081,0,0,1-.952,1.035l-15.207-.025c-.257,0-.515.008-.77-.016a1.029,1.029,0,0,1-.131-2.03,3.909,3.909,0,0,1,.834-.059q7.254,0,14.508,0C776.181,54.245,776.437,54.23,776.693,54.222Z" transform="translate(-122.896 -11.578)" fill="#040404"/>
  </g>
</svg>
