<svg xmlns="http://www.w3.org/2000/svg" width="53.68" height="64.032" viewBox="0 0 53.68 64.032">
  <g id="Grupo_955021" data-name="Grupo 955021" transform="translate(-949.982 -154.228)">
    <path id="Trazado_630291" data-name="Trazado 630291" d="M956.414,176.948a8.5,8.5,0,0,1,.124-1.838,1.035,1.035,0,0,0,.881-1.167c-.012-2.229.02-4.459-.022-6.687-.011-.584.174-.68.7-.662,1.145.038,2.292.018,3.438.01a1.958,1.958,0,0,0,2.108-2.1c.009-.584.006-1.167,0-1.75a1.994,1.994,0,0,0-2.187-2.162c-1.209,0-2.417,0-3.625-.006-.157,0-.357.1-.419-.212-.266-1.354.275-2.042,1.646-2.042h37.193c.229,0,.458.014.686.022a17.085,17.085,0,0,1,.125,3.293q.008,24.452,0,48.905a6.906,6.906,0,0,1-.127,1.794c-.165.011-.331.032-.5.032q-18.775,0-37.551,0c-1.122,0-1.469-.365-1.469-1.515q0-16.306,0-32.612C957.414,177.365,957.236,177.137,956.414,176.948Zm12.469,8.3a9.212,9.212,0,1,0-9.208-9.217A9.235,9.235,0,0,0,968.883,185.246Zm26.028,11.684v.666q0,4.561,0,9.123c0,1.161-.36,1.512-1.543,1.512q-6.843,0-13.686,0a1.813,1.813,0,0,0-.74.076.885.885,0,0,0-.6.982.872.872,0,0,0,.819.808,4.322,4.322,0,0,0,.5.009h13.811a3.038,3.038,0,0,0,3.318-3.345q0-6.874,0-13.748a2.466,2.466,0,0,0-.03-.559.875.875,0,0,0-.983-.762.849.849,0,0,0-.856.889,8.788,8.788,0,0,0,0,1.124,1.147,1.147,0,0,1-.395.981q-2.408,2.364-4.773,4.771a.7.7,0,0,1-.859.208c-1.627-.568-3.272-1.085-4.9-1.649a1.248,1.248,0,0,0-1.457.346c-1.235,1.269-2.5,2.508-3.749,3.762-.561.563-.61,1.084-.157,1.515.413.394.956.33,1.479-.189,1.035-1.027,2.083-2.042,3.085-3.1a.92.92,0,0,1,1.137-.256c1.525.541,3.077,1.011,4.6,1.566a1.385,1.385,0,0,0,1.668-.393C991.964,199.848,993.376,198.465,994.911,196.929Zm-30.173.767c1.02,0,2.039.01,3.059,0a1.932,1.932,0,0,0,2.034-1.978c.019-.707.021-1.415,0-2.122a1.854,1.854,0,0,0-1.892-1.905q-3.183-.044-6.367,0a1.893,1.893,0,0,0-1.891,1.922c-.02.665-.01,1.331,0,2a1.973,1.973,0,0,0,2.067,2.085C962.74,197.7,963.739,197.7,964.738,197.7Zm20.751-30.874c-1.061,0-2.123-.013-3.183,0a1.882,1.882,0,0,0-1.89,1.848c-.023.748-.021,1.5,0,2.247a1.9,1.9,0,0,0,1.906,1.905q3.153.034,6.3,0a1.919,1.919,0,0,0,1.931-1.951c.014-.686.011-1.373,0-2.059a1.918,1.918,0,0,0-2.008-1.992C987.528,166.816,986.509,166.822,985.489,166.822Zm3.1,14.288h5.625c.521,0,1.042.011,1.562-.006a.942.942,0,0,0,1.006-.894.974.974,0,0,0-1-.977c-.1-.007-.208,0-.313,0q-6.875,0-13.75,0a1.771,1.771,0,0,0-.679.065.876.876,0,0,0-.618.969.853.853,0,0,0,.792.824,4.3,4.3,0,0,0,.624.019Zm.012-4.14h2q2.563,0,5.125,0a.936.936,0,0,0,1-.671.876.876,0,0,0-.318-1,1.261,1.261,0,0,0-.89-.208q-6,0-12,0c-.708,0-1.417-.017-2.125.005a.933.933,0,0,0-.923,1.279,1.012,1.012,0,0,0,1.065.6C983.889,176.965,986.243,176.97,988.6,176.971ZM967.88,199.958h-4.251c-1,0-2,0-3,0a.9.9,0,0,0-.874.588.868.868,0,0,0,.186.981,1.181,1.181,0,0,0,.977.306q5.25-.007,10.5,0c1.188,0,2.375.006,3.563,0a.958.958,0,0,0,1.065-.833c.068-.607-.374-1.037-1.1-1.039C972.589,199.955,970.234,199.958,967.88,199.958Zm0,6.012q3.5,0,7,0c.741,0,1.158-.332,1.171-.914.013-.605-.418-.96-1.193-.96q-7,0-14,0c-.73,0-1.165.349-1.178.919-.015.593.433.954,1.2.954Q964.379,205.973,967.879,205.971Zm17.595-20.713c1.313,0,2.626.007,3.939,0,.74-.005,1.15-.358,1.143-.945s-.42-.929-1.163-.931q-3.907-.008-7.815,0c-.757,0-1.154.326-1.166.92-.013.62.387.952,1.186.957C982.89,185.263,984.182,185.257,985.474,185.258Zm-20.681,24.85c1.313,0,2.626,0,3.938,0,.7,0,1.088-.332,1.1-.914a.942.942,0,0,0-1.069-.958q-4-.014-8,0a.965.965,0,0,0-1.078.961c.011.553.434.908,1.114.91C962.125,210.111,963.459,210.108,964.793,210.108Z" transform="translate(-3.484 -2.224)" fill="#eaeef6"/>
    <path id="Trazado_630292" data-name="Trazado 630292" d="M993.447,156.128c-.228-.008-.457-.022-.686-.022H955.568c-1.371,0-1.912.688-1.646,2.042.062.315.262.211.419.212,1.209.009,2.417,0,3.626.006a1.993,1.993,0,0,1,2.187,2.162c.006.583.009,1.167,0,1.75a1.958,1.958,0,0,1-2.107,2.1c-1.146.008-2.293.028-3.437-.01-.521-.018-.707.078-.7.662.042,2.228.01,4.458.022,6.687a1.035,1.035,0,0,1-.881,1.167c-.765-.144-1-.406-1-1.167,0-2.313-.007-4.626,0-6.939a.649.649,0,0,0-.417-.7,2.833,2.833,0,0,1-1.662-2.717,2.8,2.8,0,0,1,1.641-2.664.674.674,0,0,0,.439-.762,5.261,5.261,0,0,1,.047-1.245,3.017,3.017,0,0,1,3.211-2.463q19.413,0,38.827,0a4.332,4.332,0,0,1,.809.048,3.008,3.008,0,0,1,2.482,2.95q.03,1.406,0,2.813c-.008.335.1.421.422.415q1.344-.027,2.688,0a3,3,0,0,1,3.112,3.051c.005.146,0,.292,0,.438q0,25.413,0,50.827a3.7,3.7,0,0,1-.393,1.932,2.832,2.832,0,0,1-2.487,1.536c-2.772.036-5.544.015-8.315.016a.971.971,0,0,1-1.04-.873c.134-.76.4-1,1.158-1q3.494-.016,6.988-.022c.353.007.708.032,1.06.016a1.107,1.107,0,0,0,1.128-1.034,5.66,5.66,0,0,0,.024-.748q0-25.114,0-50.229c0-1.887-.3-2.161-2.209-2-.479-.011-.961.012-1.434-.04-.56-.062-.714.118-.713.7q.028,19.6.014,39.2,0,3.345,0,6.689a3.07,3.07,0,0,1-.943,2.3,3.381,3.381,0,0,1-2.532.837q-16.475-.016-32.949-.007a2.769,2.769,0,0,1-.375,0c-.376-.052-.513.086-.5.479.029.77.007,1.541.009,2.313,0,1.219.338,1.555,1.556,1.555h26.571c.89,0,1.115.176,1.3,1a1.088,1.088,0,0,1-1.235.882q-13.468-.016-26.936-.009a2.98,2.98,0,0,1-3.13-3.082c-.013-.9-.017-1.792,0-2.687.009-.362-.117-.464-.467-.456q-1.343.03-2.687,0a2.979,2.979,0,0,1-3.076-3.137q0-16.466-.009-32.933a1.085,1.085,0,0,1,.884-1.232c.822.189,1,.417,1,1.3q0,16.306,0,32.612c0,1.15.347,1.514,1.47,1.515q18.776,0,37.551,0c.166,0,.331-.021.5-.032,1.51.16,2.138-.044,2.134-1.9q-.043-25.057-.016-50.114C995.567,156.268,995.3,156.021,993.447,156.128Zm-37.14,6.35c2.532,0,1.878.463,1.974-1.82,0-.021,0-.042,0-.062.026-.269-.1-.369-.363-.36-.537.018-1.076.019-1.613.027-1.123-.007-2.246-.034-3.369-.012a1.063,1.063,0,0,0-1.082,1.13,1.049,1.049,0,0,0,1.085,1.115C954.061,162.509,955.184,162.486,956.307,162.478Z" transform="translate(0 0)" fill="#030303"/>
    <path id="Trazado_630293" data-name="Trazado 630293" d="M1001.627,226.95c-.185-.825-.411-1-1.3-1H973.756c-1.218,0-1.553-.336-1.556-1.555,0-.771.02-1.543-.009-2.313-.015-.393.123-.531.5-.479a2.769,2.769,0,0,0,.375,0q16.475,0,32.949.007a3.381,3.381,0,0,0,2.532-.837,3.069,3.069,0,0,0,.943-2.3q0-3.345,0-6.689,0-19.6-.014-39.2c0-.579.153-.759.714-.7.474.052.956.029,1.434.04a4.838,4.838,0,0,1,.257,1.836q-.009,25.226,0,50.451a4.326,4.326,0,0,1-.261,1.709q-3.494.011-6.988.022c-.757,0-1.025.242-1.158,1Z" transform="translate(-12.045 -9.573)" fill="#d4e0e8"/>
    <path id="Trazado_630294" data-name="Trazado 630294" d="M972.758,195.309a9.212,9.212,0,1,1,9.255-9.175A9.226,9.226,0,0,1,972.758,195.309Zm-.928-14.23c0-.521,0-1.042,0-1.562,0-.724-.022-.74-.738-.566a7.345,7.345,0,1,0,5.8,13.237c.3-.216.332-.338.06-.6q-1.214-1.171-2.386-2.386a.753.753,0,0,0-.909-.244,2.951,2.951,0,0,1-3.545-1.48,2.813,2.813,0,0,1,.816-3.681,1.766,1.766,0,0,0,.909-1.967A7.327,7.327,0,0,1,971.83,181.079Zm6.762,9.509a7.117,7.117,0,0,0,1.3-6.252,7.207,7.207,0,0,0-5.549-5.42c-.443-.114-.676-.06-.653.509.047,1.123.021,2.249.009,3.373a.551.551,0,0,0,.326.586,2.932,2.932,0,0,1,1.559,3.759c-.054.189-.1.342.066.509C976.63,188.618,977.6,189.59,978.592,190.588Zm-4.68-4.463a1.126,1.126,0,0,0-1.075-1.145,1.1,1.1,0,0,0-1.177,1.093,1.13,1.13,0,0,0,1.125,1.159A1.158,1.158,0,0,0,973.912,186.125Z" transform="translate(-7.358 -12.288)" fill="#030303"/>
    <path id="Trazado_630295" data-name="Trazado 630295" d="M1044.954,158.354c1.855-.107,2.12.141,2.12,1.978q0,25.057.016,50.114c0,1.858-.624,2.061-2.134,1.9a6.912,6.912,0,0,0,.127-1.795q0-24.453,0-48.905A17.076,17.076,0,0,0,1044.954,158.354Z" transform="translate(-51.507 -2.226)" fill="#d8e2ec"/>
    <path id="Trazado_630296" data-name="Trazado 630296" d="M1020.881,236.462c-1.534,1.536-2.946,2.919-4.318,4.34a1.385,1.385,0,0,1-1.668.393c-1.52-.555-3.071-1.025-4.6-1.566a.92.92,0,0,0-1.137.256c-1,1.058-2.05,2.073-3.086,3.1-.523.519-1.066.582-1.479.189-.452-.431-.4-.952.157-1.515,1.249-1.255,2.514-2.493,3.749-3.762a1.248,1.248,0,0,1,1.457-.346c1.628.564,3.273,1.081,4.9,1.649a.7.7,0,0,0,.859-.208q2.367-2.4,4.773-4.771a1.147,1.147,0,0,0,.395-.981,8.777,8.777,0,0,1,0-1.124.849.849,0,0,1,.856-.889.874.874,0,0,1,.983.762,2.466,2.466,0,0,1,.03.559q0,6.874,0,13.748a3.038,3.038,0,0,1-3.318,3.345h-13.811a4.322,4.322,0,0,1-.5-.009.872.872,0,0,1-.819-.808.885.885,0,0,1,.6-.982,1.814,1.814,0,0,1,.74-.076q6.843,0,13.686,0c1.182,0,1.542-.351,1.543-1.512q0-4.562,0-9.123Z" transform="translate(-29.455 -41.757)" fill="#030303"/>
    <path id="Trazado_630297" data-name="Trazado 630297" d="M968.6,237.2c-1,0-2,.009-3,0a1.973,1.973,0,0,1-2.067-2.085c-.007-.666-.016-1.332,0-2a1.893,1.893,0,0,1,1.891-1.922q3.183-.046,6.367,0a1.854,1.854,0,0,1,1.892,1.905c.024.707.021,1.415,0,2.122a1.932,1.932,0,0,1-2.034,1.978C970.642,237.212,969.622,237.2,968.6,237.2Zm.021-1.876h1.5c1.754,0,1.741,0,1.706-1.783-.007-.39-.126-.5-.5-.49-1.4.019-2.792.007-4.188.007-1.8,0-1.79,0-1.734,1.813.011.356.116.468.467.46C966.789,235.313,967.706,235.325,968.623,235.325Z" transform="translate(-7.348 -41.73)" fill="#030303"/>
    <path id="Trazado_630298" data-name="Trazado 630298" d="M1013.922,176.881c1.02,0,2.039-.006,3.059,0a1.918,1.918,0,0,1,2.008,1.992c.01.686.013,1.373,0,2.059a1.918,1.918,0,0,1-1.931,1.951q-3.152.032-6.3,0a1.9,1.9,0,0,1-1.906-1.905c-.018-.748-.021-1.5,0-2.247a1.882,1.882,0,0,1,1.89-1.848C1011.8,176.868,1012.86,176.881,1013.922,176.881Zm0,1.877c-.5,0-1-.017-1.5,0-.553.024-1.308-.25-1.6.119-.279.346-.066,1.071-.109,1.627-.033.412.113.526.52.519,1.372-.024,2.745,0,4.117-.016.573-.008,1.356.264,1.663-.119.288-.359.072-1.111.11-1.688.024-.359-.1-.462-.455-.453C1015.751,178.772,1014.835,178.758,1013.92,178.758Z" transform="translate(-31.916 -12.283)" fill="#010102"/>
    <path id="Trazado_630299" data-name="Trazado 630299" d="M1017.035,205.879h-6.75a4.3,4.3,0,0,1-.624-.019.853.853,0,0,1-.792-.824.876.876,0,0,1,.618-.969,1.77,1.77,0,0,1,.679-.065q6.875,0,13.751,0c.1,0,.209-.005.313,0a.974.974,0,0,1,1,.977.942.942,0,0,1-1.006.894c-.52.016-1.042.005-1.563.005Z" transform="translate(-31.933 -26.993)" fill="#040505"/>
    <path id="Trazado_630300" data-name="Trazado 630300" d="M1017.025,196.829c-2.354,0-4.708-.005-7.063,0a1.012,1.012,0,0,1-1.065-.6.933.933,0,0,1,.923-1.279c.708-.022,1.416-.005,2.125-.005q6,0,12,0a1.261,1.261,0,0,1,.89.208.876.876,0,0,1,.318,1,.936.936,0,0,1-1,.671q-2.563,0-5.125,0Z" transform="translate(-31.911 -22.083)" fill="#030303"/>
    <path id="Trazado_630301" data-name="Trazado 630301" d="M971.756,249.289c2.354,0,4.709,0,7.063,0,.73,0,1.173.432,1.1,1.039a.958.958,0,0,1-1.065.833c-1.188.009-2.375,0-3.563,0q-5.25,0-10.5,0a1.181,1.181,0,0,1-.977-.306.868.868,0,0,1-.186-.981.9.9,0,0,1,.874-.588c1-.005,2,0,3,0Z" transform="translate(-7.359 -51.554)" fill="#030303"/>
    <path id="Trazado_630302" data-name="Trazado 630302" d="M971.757,260.2q-3.5,0-7,0c-.767,0-1.215-.361-1.2-.954.014-.571.448-.919,1.178-.919q7,0,14,0c.775,0,1.206.355,1.193.96-.013.582-.43.913-1.171.913Q975.257,260.207,971.757,260.2Z" transform="translate(-7.362 -56.457)" fill="#010102"/>
    <path id="Trazado_630303" data-name="Trazado 630303" d="M1013.921,214.937c-1.292,0-2.584.006-3.876,0-.8,0-1.2-.337-1.186-.957.012-.594.409-.919,1.166-.92q3.907-.008,7.815,0c.743,0,1.156.345,1.163.931s-.4.94-1.143.945C1016.547,214.944,1015.234,214.937,1013.921,214.937Z" transform="translate(-31.931 -31.904)" fill="#060707"/>
    <path id="Trazado_630304" data-name="Trazado 630304" d="M968.671,269.238c-1.334,0-2.667,0-4,0-.679,0-1.1-.357-1.113-.91a.965.965,0,0,1,1.078-.961q4-.014,8,0a.942.942,0,0,1,1.069.958c-.008.581-.393.911-1.1.913C971.3,269.242,969.984,269.238,968.671,269.238Z" transform="translate(-7.362 -61.355)" fill="#030303"/>
    <path id="Trazado_630305" data-name="Trazado 630305" d="M1058.339,225.943a4.325,4.325,0,0,0,.261-1.709q-.01-25.226,0-50.451a4.834,4.834,0,0,0-.257-1.836c1.907-.158,2.209.115,2.209,2q0,25.115,0,50.229a5.66,5.66,0,0,1-.024.748,1.107,1.107,0,0,1-1.128,1.034C1059.047,225.975,1058.692,225.95,1058.339,225.943Z" transform="translate(-58.766 -9.588)" fill="#aebed0"/>
    <path id="Trazado_630306" data-name="Trazado 630306" d="M958.526,169.6c-1.123.008-2.246.032-3.368.018a1.049,1.049,0,0,1-1.085-1.115,1.063,1.063,0,0,1,1.082-1.13c1.123-.021,2.246.005,3.369.012Z" transform="translate(-2.219 -7.127)" fill="#f2c86c"/>
    <path id="Trazado_630307" data-name="Trazado 630307" d="M963.8,169.6l0-2.215c.538-.008,1.076-.008,1.613-.027.266-.009.389.092.363.36,0,.02,0,.041,0,.062C965.678,170.06,966.332,169.6,963.8,169.6Z" transform="translate(-7.493 -7.119)" fill="#ebb467"/>
    <path id="Trazado_630308" data-name="Trazado 630308" d="M974.086,183.418a7.31,7.31,0,0,0,0,.75,1.766,1.766,0,0,1-.909,1.967,2.813,2.813,0,0,0-.816,3.681,2.951,2.951,0,0,0,3.545,1.48.753.753,0,0,1,.909.244q1.173,1.213,2.386,2.386c.272.263.243.385-.06.6a7.345,7.345,0,1,1-5.8-13.237c.716-.174.736-.159.738.566C974.086,182.377,974.086,182.9,974.086,183.418Z" transform="translate(-9.615 -14.627)" fill="#9ac46e"/>
    <path id="Trazado_630309" data-name="Trazado 630309" d="M990.612,192.937c-1-1-1.962-1.97-2.936-2.935-.168-.167-.12-.32-.066-.509a2.932,2.932,0,0,0-1.559-3.759.551.551,0,0,1-.326-.586c.011-1.124.037-2.251-.009-3.373-.023-.569.21-.624.653-.509a7.207,7.207,0,0,1,5.549,5.42A7.117,7.117,0,0,1,990.612,192.937Z" transform="translate(-19.379 -14.637)" fill="#f2c86c"/>
    <path id="Trazado_630310" data-name="Trazado 630310" d="M983.522,195.716a1.158,1.158,0,0,1-1.126,1.107,1.13,1.13,0,0,1-1.125-1.159,1.1,1.1,0,0,1,1.177-1.093A1.126,1.126,0,0,1,983.522,195.716Z" transform="translate(-16.969 -21.879)" fill="#eaeef6"/>
    <path id="Trazado_630311" data-name="Trazado 630311" d="M970.826,237.552c-.917,0-1.834-.013-2.751.007-.351.007-.456-.1-.467-.46-.056-1.813-.066-1.813,1.734-1.813,1.4,0,2.792.011,4.188-.007.376-.005.495.1.5.49.034,1.784.048,1.783-1.706,1.783Z" transform="translate(-9.55 -43.957)" fill="#5d98cd"/>
    <path id="Trazado_630312" data-name="Trazado 630312" d="M1016.1,180.9c.915,0,1.83.015,2.745-.007.352-.009.479.094.455.453-.038.577.178,1.329-.11,1.688-.307.383-1.089.111-1.663.119-1.372.019-2.745-.009-4.117.016-.407.007-.552-.107-.52-.519.043-.556-.17-1.281.109-1.627.3-.368,1.05-.095,1.6-.119C1015.1,180.885,1015.6,180.9,1016.1,180.9Z" transform="translate(-34.099 -14.428)" fill="#5f9ad0"/>
  </g>
</svg>
