<svg xmlns="http://www.w3.org/2000/svg" width="67.354" height="67.278" viewBox="0 0 67.354 67.278">
  <g id="Grupo_955026" data-name="Grupo 955026" transform="translate(-1529.23 -426.765)">
    <path id="Trazado_630428" data-name="Trazado 630428" d="M1545.381,442.66a11.443,11.443,0,0,0,1.971-1.734c.679.525.93.528,1.624.02.159-.116.313-.239.471-.357a31.191,31.191,0,0,1,23.514-6.044,30.52,30.52,0,0,1,15.487,6.76,28.63,28.63,0,0,1,5.949,6.43c-.012.162.046.273.221.3a.071.071,0,0,1,.046.083l.123.173.141.22a2.1,2.1,0,0,0,.447,1.209,31.376,31.376,0,0,1,3.448,12.318,35.044,35.044,0,0,1-.072,5.632,32.613,32.613,0,0,1-16.837,25.494,33.271,33.271,0,0,1-15.944,4.026,21.083,21.083,0,0,0-2.808-.121c-.281-.035-.566-.049-.843-.106a31.668,31.668,0,0,1-17.057-52.589C1545.894,443.684,1545.909,443.354,1545.381,442.66Zm39.033,13.888-1.593,1.482a3.928,3.928,0,0,0-4.439-.665c0-1.542-.029-2.982.01-4.421a4.7,4.7,0,0,0-.723-2.795,1.845,1.845,0,0,0,.716-.811c.7.488,1.046.463,1.657-.143q1.4-1.387,2.79-2.785c1.212-1.216,1.094-2.408-.394-3.257-9.479-5.409-18.993-5.453-28.279.29a26.559,26.559,0,0,0-8.336,36.538,1.792,1.792,0,0,0,3.06.366c1.466-1.446,2.916-2.906,4.368-4.366.619-.622.64-.944.148-1.653.67-.309.983-1.035,1.619-1.383a18.664,18.664,0,0,0,4.393,8.592,8.658,8.658,0,0,0-1.6,1.705c-.687-.482-1.035-.468-1.608.1-.765.753-1.529,1.506-2.275,2.277a1.75,1.75,0,0,0,.328,2.854,26.426,26.426,0,0,0,19.964,3.48c.852-.18,1.026-.437.993-1.324a10.416,10.416,0,0,0,2.366-.685c.535.661.847.737,1.641.385a28.285,28.285,0,0,0,3.023-1.569,26.708,26.708,0,0,0,8.913-36.951,1.8,1.8,0,0,0-3.06-.355q-1.749,1.735-3.484,3.483C1584.024,455.524,1584,455.8,1584.414,456.548Z" transform="translate(-5.575 -5.499)" fill="#85d5e2"/>
    <path id="Trazado_630429" data-name="Trazado 630429" d="M1589.088,442.615a.071.071,0,0,0-.046-.083.45.45,0,0,0-.221-.3,28.625,28.625,0,0,0-5.949-6.43,30.52,30.52,0,0,0-15.487-6.759,31.191,31.191,0,0,0-23.514,6.044c-.158.117-.312.24-.471.357-.694.509-.945.506-1.624-.02a1.1,1.1,0,0,1,.405-1.533,32.985,32.985,0,0,1,23.244-7.028,33.635,33.635,0,1,1-35.292,41.017c-2.543-11.451.316-21.653,8.165-30.419a1.1,1.1,0,0,1,1.507-.3c.528.694.513,1.024-.12,1.71a31.68,31.68,0,0,0,17.057,52.589c.277.057.562.072.843.106a2.7,2.7,0,0,0,.368.112,31.311,31.311,0,0,0,8.831.147,30.6,30.6,0,0,0,20.693-11.472c6.82-8.5,8.663-18.141,5.9-28.651a26.893,26.893,0,0,0-4.025-8.693l-.141-.22Z" transform="translate(0 0)" fill="#030404"/>
    <path id="Trazado_630430" data-name="Trazado 630430" d="M1628.5,490.759a4.7,4.7,0,0,1,1.068,3.27c-.04,4.309.032,8.619-.043,12.927a11.558,11.558,0,0,1-3.143,7.983,11.327,11.327,0,0,1-6.542,3.323,17.05,17.05,0,0,1-13.651-3.073c-.383-.286-.734-.615-1.1-.924a18.663,18.663,0,0,1-4.393-8.593q-.877-3.493-1.754-6.984a3.921,3.921,0,0,1,3.98-5.053,4.5,4.5,0,0,1,2.717,1.284v-3.89c0-1.094,0-2.188,0-3.282a3.732,3.732,0,0,1,5.223-3.705c.078.028.162.041.277.069,0-.6-.008-1.167,0-1.735a3.724,3.724,0,0,1,3.262-3.684,3.682,3.682,0,0,1,3.989,2.6c.142.47.262.523.722.358a3.693,3.693,0,0,1,4.234,1.23,4.7,4.7,0,0,1,.723,2.795c-.038,1.439-.01,2.88-.01,4.421A3.928,3.928,0,0,1,1628.5,490.759Zm-6.949,24.959.265-.084a3.354,3.354,0,0,0,.372-.124c3.6-1.657,5.232-4.645,5.349-8.428.141-4.547.049-9.1.036-13.654a1.692,1.692,0,0,0-2.115-1.7,1.733,1.733,0,0,0-1.393,1.877c-.016,1.423.006,2.847-.016,4.27a.935.935,0,0,1-.946.973.963.963,0,0,1-.988-.875,3.9,3.9,0,0,1-.024-.655q0-4.5,0-9c0-1.117.019-2.234-.024-3.349a1.683,1.683,0,0,0-1.5-1.574,1.763,1.763,0,0,0-1.863,1.15,3.044,3.044,0,0,0-.1,1.04q0,5.879,0,11.759a3.316,3.316,0,0,1-.066.78.887.887,0,0,1-.969.716.9.9,0,0,1-.915-.861,6.121,6.121,0,0,1-.017-.656q0-6.011,0-12.022c0-.876,0-1.752,0-2.628a2.125,2.125,0,0,0-.351-1.308,1.754,1.754,0,0,0-3.162,1.159q-.008,7.423,0,14.846a2.9,2.9,0,0,1-.043.717.973.973,0,0,1-1.917-.131,4.933,4.933,0,0,1-.01-.591q0-4.829,0-9.657a1.777,1.777,0,1,0-3.523.03c.037,4.6.088,9.2.118,13.795,0,.384.082.516.5.534a8.385,8.385,0,0,1,5.955,2.8,7.109,7.109,0,0,1,1.735,3.193.928.928,0,0,1-.6,1.163.96.96,0,0,1-1.245-.557c-.079-.178-.119-.374-.184-.56a6.427,6.427,0,0,0-6.418-4.063c-1,.1-1.284-.082-1.527-1.069-.471-1.909-.926-3.822-1.4-5.732a1.926,1.926,0,0,0-2.315-1.593,1.957,1.957,0,0,0-1.378,2.511c.709,2.8,1.393,5.6,2.142,8.383a13.861,13.861,0,0,0,3.372,6.149,13.321,13.321,0,0,0,8.3,3.8,13.849,13.849,0,0,0,6.6-.667A.264.264,0,0,0,1621.555,515.718Z" transform="translate(-51.259 -38.228)" fill="#040302"/>
    <path id="Trazado_630431" data-name="Trazado 630431" d="M1592.351,463.013a1.118,1.118,0,0,1,.249-1.525c.976-.939,1.929-1.9,2.9-2.864a24.674,24.674,0,0,0-34,33.983c1.456-1.461,2.908-2.905,4.343-4.367a1.108,1.108,0,0,1,1.524-.239c.493.709.471,1.03-.147,1.653-1.452,1.46-2.9,2.921-4.368,4.366a1.793,1.793,0,0,1-3.06-.366,26.56,26.56,0,0,1,8.336-36.538c9.286-5.743,18.8-5.7,28.279-.29,1.488.849,1.606,2.041.394,3.257q-1.391,1.4-2.79,2.785C1593.4,463.476,1593.049,463.5,1592.351,463.013Z" transform="translate(-19.541 -19.173)" fill="#030404"/>
    <path id="Trazado_630432" data-name="Trazado 630432" d="M1691.6,536.166a1.185,1.185,0,0,1,.836-1.426c7.743-3.6,12.6-9.561,14.321-17.918a23.923,23.923,0,0,0-3.118-17.531,2.025,2.025,0,0,0-.171-.2c-1.144,1.15-2.292,2.281-3.411,3.44a1.136,1.136,0,0,1-1.624.247c-.418-.746-.389-1.023.2-1.616q1.737-1.747,3.484-3.483a1.8,1.8,0,0,1,3.06.355,26.708,26.708,0,0,1-8.913,36.951,28.291,28.291,0,0,1-3.023,1.569C1692.446,536.9,1692.134,536.827,1691.6,536.166Z" transform="translate(-119.594 -51.726)" fill="#030404"/>
    <path id="Trazado_630433" data-name="Trazado 630433" d="M1668.692,488.456a26.9,26.9,0,0,1,4.025,8.693c2.763,10.51.921,20.155-5.9,28.651a30.6,30.6,0,0,1-20.693,11.472,31.32,31.32,0,0,1-8.831-.147,2.7,2.7,0,0,1-.368-.112,21.063,21.063,0,0,1,2.808.121,33.271,33.271,0,0,0,15.945-4.026,32.492,32.492,0,0,0,16.837-25.494,35.058,35.058,0,0,0,.072-5.632,31.379,31.379,0,0,0-3.448-12.318A2.1,2.1,0,0,1,1668.692,488.456Z" transform="translate(-79.34 -45.448)" fill="#64cadb"/>
    <path id="Trazado_630434" data-name="Trazado 630434" d="M1604.093,619.417a1.116,1.116,0,0,1-.249,1.525c-.715.675-1.408,1.372-2.146,2.095a24.109,24.109,0,0,0,7.325,3.074,24.51,24.51,0,0,0,11.052.1,1.122,1.122,0,0,1,1.42.591c.033.887-.141,1.144-.993,1.324a26.427,26.427,0,0,1-19.964-3.48,1.75,1.75,0,0,1-.328-2.854c.746-.771,1.51-1.524,2.275-2.277C1603.058,618.948,1603.407,618.935,1604.093,619.417Z" transform="translate(-51.857 -141.674)" fill="#030404"/>
    <path id="Trazado_630435" data-name="Trazado 630435" d="M1755.557,485.522a.45.45,0,0,1,.221.3C1755.6,485.8,1755.545,485.684,1755.557,485.522Z" transform="translate(-166.735 -43.287)" fill="#64cadb"/>
    <path id="Trazado_630436" data-name="Trazado 630436" d="M1756.573,486.966l.124.173Z" transform="translate(-167.485 -44.351)" fill="#64cadb"/>
    <path id="Trazado_630437" data-name="Trazado 630437" d="M1626.8,521.409a13.846,13.846,0,0,1-6.6.667,13.321,13.321,0,0,1-8.3-3.8,13.862,13.862,0,0,1-3.372-6.149c-.749-2.785-1.433-5.588-2.142-8.383a1.957,1.957,0,0,1,1.378-2.511,1.926,1.926,0,0,1,2.315,1.593c.47,1.91.925,3.823,1.4,5.732.243.988.522,1.174,1.527,1.069a6.427,6.427,0,0,1,6.418,4.063c.065.186.1.382.184.56a.96.96,0,0,0,1.245.557.928.928,0,0,0,.6-1.163,7.116,7.116,0,0,0-1.735-3.194,8.386,8.386,0,0,0-5.955-2.8c-.418-.019-.5-.15-.5-.534-.03-4.6-.08-9.2-.117-13.795a1.777,1.777,0,1,1,3.522-.03q.008,4.828,0,9.657a4.906,4.906,0,0,0,.01.591.973.973,0,0,0,1.917.131,2.9,2.9,0,0,0,.043-.717q0-7.423,0-14.846a1.754,1.754,0,0,1,3.162-1.159,2.125,2.125,0,0,1,.351,1.307c0,.876,0,1.752,0,2.628q0,6.011,0,12.022a6.056,6.056,0,0,0,.017.656.9.9,0,0,0,.915.861.887.887,0,0,0,.969-.716,3.3,3.3,0,0,0,.066-.78q.005-5.88,0-11.759a3.038,3.038,0,0,1,.1-1.04,1.763,1.763,0,0,1,1.863-1.15,1.682,1.682,0,0,1,1.5,1.574c.043,1.115.024,2.233.024,3.349q0,4.5,0,9a3.873,3.873,0,0,0,.024.655.963.963,0,0,0,.988.875.935.935,0,0,0,.946-.973c.021-1.423,0-2.847.016-4.27a1.734,1.734,0,0,1,1.393-1.877,5.459,5.459,0,0,1,.548,2.526q-.018,5.246,0,10.491a25.3,25.3,0,0,1-.264,3.9,10.153,10.153,0,0,1-3.655,6.515c-.164.135-.308.24-.27.471l-.265.084A.273.273,0,0,0,1626.8,521.409Z" transform="translate(-56.785 -43.809)" fill="#e9a975"/>
    <path id="Trazado_630438" data-name="Trazado 630438" d="M1686.194,552.131c-.038-.231.106-.336.27-.471a10.153,10.153,0,0,0,3.654-6.515,25.268,25.268,0,0,0,.264-3.9q-.018-5.246,0-10.491a5.46,5.46,0,0,0-.548-2.526,1.693,1.693,0,0,1,2.116,1.7c.013,4.552.105,9.106-.036,13.654-.118,3.782-1.753,6.77-5.35,8.428A3.337,3.337,0,0,1,1686.194,552.131Z" transform="translate(-115.632 -74.725)" fill="#dd9c63"/>
    <path id="Trazado_630439" data-name="Trazado 630439" d="M1684.135,619.523a.272.272,0,0,1,.281-.109A.264.264,0,0,1,1684.135,619.523Z" transform="translate(-114.12 -141.923)" fill="#dd9c63"/>
  </g>
</svg>
