<svg xmlns="http://www.w3.org/2000/svg" width="68.451" height="71.819" viewBox="0 0 68.451 71.819">
  <g id="Grupo_955023" data-name="Grupo 955023" transform="translate(-862.609 -389.541)">
    <path id="Trazado_630346" data-name="Trazado 630346" d="M874.536,548.149l1.6-2.045a1.133,1.133,0,0,0,1.69-.4c2.1-2.6,4.171-5.214,6.29-7.794a8.225,8.225,0,0,1,12-1.016,4.062,4.062,0,0,0,2.81,1.05c2.5-.018,5,0,7.5-.007a4.488,4.488,0,0,1,1.452.181,2.934,2.934,0,0,1,1.989,3.3,2.884,2.884,0,0,1-2.874,2.384c-3.9.015-7.8,0-11.7.009-.826,0-1.281.393-1.281,1.061s.435,1.038,1.285,1.039c3.878,0,7.755,0,11.633,0a4.874,4.874,0,0,0,3.641-1.51,1.066,1.066,0,0,1,.864-.325c1.588.011,3.177,0,4.765.008a2.934,2.934,0,0,0,2.2-.915c.689-.7,1.361-1.415,2.073-2.089a1.28,1.28,0,0,0,.316-1.743,9.965,9.965,0,0,1,1.157-1.243c.164-.184.39-.323.424-.6.76.524,1.1.485,1.763-.145a28.287,28.287,0,0,1,2.651-2.559c1.259.6,1.722,1.742.819,2.706-1.73,1.847-3.434,3.719-5.16,5.57-1.521,1.631-3.087,3.222-4.568,4.888a6.927,6.927,0,0,0-1.362,1.639l-.047-.013.048.01-.184.063q-6.32,1.907-12.641,3.81a10.187,10.187,0,0,1-3.607.711c-4.124-.259-8.255-.414-12.379-.684a3.157,3.157,0,0,0-3.25,1.649c-1.639,2.714-3.372,5.37-5.07,8.048-.413.651-.492.66-1.033.12-2.545-2.54-5.078-5.093-7.639-7.617-.416-.41-.391-.682-.039-1.107,1.28-1.546,2.513-3.13,3.792-4.677A1.245,1.245,0,0,0,874.536,548.149Z" transform="translate(-5.597 -104.449)" fill="#f5d1a9"/>
    <path id="Trazado_630347" data-name="Trazado 630347" d="M868.939,541.5a1.245,1.245,0,0,1-.084,1.757c-1.279,1.547-2.512,3.132-3.792,4.677-.352.425-.377.7.039,1.107,2.561,2.525,5.094,5.077,7.639,7.617.541.54.62.531,1.033-.12,1.7-2.678,3.431-5.334,5.07-8.048a3.157,3.157,0,0,1,3.25-1.649c4.124.27,8.254.425,12.379.684a10.187,10.187,0,0,0,3.607-.711q6.325-1.89,12.64-3.81l.184-.063-.048-.01.047.013c.516-.142,1.026-.316,1.549-.42a4.515,4.515,0,0,0,2.495-1.547c3.289-3.607,6.616-7.178,9.931-10.761.819-.885.821-.883-.072-1.722a2.765,2.765,0,0,0-3.631-.352,28.28,28.28,0,0,0-2.651,2.559c-.666.63-1,.669-1.763.145a1.189,1.189,0,0,1,.26-1.626c.773-.746,1.5-1.537,2.275-2.282a4.917,4.917,0,0,1,6.836-.079,13.219,13.219,0,0,1,1.038,1.042,2.122,2.122,0,0,1,0,2.929q-5.717,6.211-11.469,12.389a4.122,4.122,0,0,1-1.919,1.093q-8.5,2.537-16.993,5.1a5.84,5.84,0,0,1-2.006.215c-4.244-.219-8.489-.421-12.731-.673a1.365,1.365,0,0,0-1.469.721c-1.654,2.7-3.366,5.372-5.063,8.049a2.477,2.477,0,0,1-4.207.483q-3.893-3.885-7.778-7.777a2.476,2.476,0,0,1-.2-3.676q1.93-2.4,3.864-4.8C867.789,541.207,868.072,541.137,868.939,541.5Z" transform="translate(0 -97.795)" fill="#040303"/>
    <path id="Trazado_630348" data-name="Trazado 630348" d="M980.473,430.936a1.156,1.156,0,0,1,.325,1.6,20.528,20.528,0,0,1-16.052,11.975,3.847,3.847,0,0,1-2.854-.708.692.692,0,0,0-.868-.031,14.551,14.551,0,0,1-4.488,1.693,6.47,6.47,0,0,1-.693.087c-.755.054-1.212-.25-1.3-.854a1.044,1.044,0,0,1,1.044-1.223,12.139,12.139,0,0,0,4.026-1.325c.1-.051.205-.11.31-.161.187-.091.3-.21.214-.439-.6-1.63-.07-3.2.377-4.724a20.353,20.353,0,0,1,11.031-13.042,1.714,1.714,0,0,1,1.784.067c.614.371,1.235.729,1.932,1.139.119-.7.243-1.327.33-1.961a1.838,1.838,0,0,1,1.213-1.564c1.7-.708,3.376-1.456,5.065-2.181a2.411,2.411,0,0,1,3.262,3.295c-.754,1.753-1.532,3.495-2.27,5.254a1.215,1.215,0,0,1-1.532.853c-.675-.574-.758-.89-.412-1.691q1.13-2.617,2.274-5.229c.083-.19.216-.391.034-.576-.157-.16-.35-.058-.517.017-.886.4-1.77.8-2.654,1.194-.642.27-1.273.57-1.929.8a.765.765,0,0,0-.544.708c-.116.76-.222,1.524-.38,2.276a1.465,1.465,0,0,1-2.291,1.038c-.693-.382-1.386-.77-2.046-1.205a.856.856,0,0,0-1.009-.037,18.348,18.348,0,0,0-9.694,12.987,2.652,2.652,0,0,0-.058,1.7c.542-.392,1.055-.745,1.549-1.122a65.721,65.721,0,0,0,9.854-9.514c.6-.7,1.222-.836,1.733-.395s.468,1.06-.141,1.772a69.648,69.648,0,0,1-8.518,8.492c-.98.81-2,1.575-3.014,2.374a3.931,3.931,0,0,0,2.615-.232,1.478,1.478,0,0,0,.678-.112,18.4,18.4,0,0,0,11.927-10.061C979.282,430.843,979.555,430.685,980.473,430.936Z" transform="translate(-66.113 -21.192)" fill="#040404"/>
    <path id="Trazado_630349" data-name="Trazado 630349" d="M934.593,533.951a1.281,1.281,0,0,1-.316,1.743c-.712.674-1.384,1.39-2.073,2.089a2.934,2.934,0,0,1-2.195.915c-1.588-.01-3.177,0-4.765-.008a1.066,1.066,0,0,0-.864.325,4.873,4.873,0,0,1-3.641,1.51c-3.878-.006-7.755,0-11.633,0-.85,0-1.285-.363-1.285-1.039s.455-1.06,1.281-1.061c3.9-.006,7.8.006,11.7-.009a2.884,2.884,0,0,0,2.874-2.384,2.934,2.934,0,0,0-1.989-3.3,4.485,4.485,0,0,0-1.452-.181c-2.5,0-5-.011-7.5.007a4.063,4.063,0,0,1-2.81-1.05,8.224,8.224,0,0,0-12,1.016c-2.119,2.58-4.193,5.2-6.29,7.794a1.134,1.134,0,0,1-1.69.4,1.166,1.166,0,0,1,.023-1.688c2.146-2.645,4.249-5.326,6.419-7.951a10.333,10.333,0,0,1,14.9-1.174,2.164,2.164,0,0,0,1.531.549c2.545-.012,5.09-.019,7.634,0a5.152,5.152,0,0,1,5.249,3.968,5.257,5.257,0,0,1,.064,1.81c-.03.279.037.367.32.365,1.331-.012,2.662-.009,3.992,0a.983.983,0,0,0,.717-.379c.654-.667,1.306-1.335,1.964-2C933.463,533.508,933.753,533.469,934.593,533.951Z" transform="translate(-19.413 -99.063)" fill="#040403"/>
    <path id="Trazado_630350" data-name="Trazado 630350" d="M1069.045,467.858a1.746,1.746,0,0,1-.978,1.592c-.875.487-1.748.976-2.635,1.439a1.509,1.509,0,0,0-.671.671c-.443.845-.913,1.676-1.366,2.516a1.778,1.778,0,0,1-1.662,1.076,1.621,1.621,0,0,1-1.592-1.055,7.712,7.712,0,0,0-4.609-4.609,1.753,1.753,0,0,1,0-3.234,8.111,8.111,0,0,0,4.625-4.607,1.683,1.683,0,0,1,3.164-.032,8.344,8.344,0,0,0,4.734,4.688A1.581,1.581,0,0,1,1069.045,467.858Zm-8.029,3.392a6.2,6.2,0,0,0,.841,1.5,7.137,7.137,0,0,1,4.722-4.893,7.231,7.231,0,0,1-4.782-4.907l-.871,1.664c-.638,1.868-2.472,2.319-3.95,3.26.317.181.564.352.834.473A5.535,5.535,0,0,1,1061.016,471.25Z" transform="translate(-137.985 -51.054)" fill="#040303"/>
    <path id="Trazado_630351" data-name="Trazado 630351" d="M963.233,396.864a1.525,1.525,0,0,1-.9,1.541,8.627,8.627,0,0,0-4.874,4.837,1.685,1.685,0,0,1-3.05.019c-.523-.88-1-1.79-1.474-2.7a1.516,1.516,0,0,0-.675-.67c-.867-.451-1.727-.916-2.576-1.4a1.714,1.714,0,0,1,.035-3.191,8.64,8.64,0,0,0,4.661-4.676,1.674,1.674,0,0,1,3.129-.013,8.309,8.309,0,0,0,4.722,4.7A1.588,1.588,0,0,1,963.233,396.864Zm-8.141,3.233.929,1.754a7.294,7.294,0,0,1,4.713-4.977,7.126,7.126,0,0,1-4.715-4.951l-.921,1.738c-.608,1.866-2.48,2.265-3.9,3.237C954.248,398.721,954.248,398.721,955.092,400.1Z" transform="translate(-61.859)" fill="#040403"/>
    <path id="Trazado_630352" data-name="Trazado 630352" d="M1010.307,436.328c-.919-.251-1.191-.092-1.693.938a18.4,18.4,0,0,1-11.927,10.061,1.478,1.478,0,0,1-.678.112,2.819,2.819,0,0,1,.958-.555,18.85,18.85,0,0,0,8.277-8.14c1.766-3.386,3.079-6.984,4.679-10.45.081-.176.166-.345-.038-.5.884-.4,1.768-.8,2.654-1.194.167-.075.36-.177.517-.017.182.185.049.385-.034.576q-1.139,2.614-2.274,5.229c-.346.8-.263,1.118.412,1.691A10.716,10.716,0,0,0,1010.307,436.328Z" transform="translate(-95.946 -26.585)" fill="#c7def9"/>
    <path id="Trazado_630353" data-name="Trazado 630353" d="M1008.068,498.809a1.07,1.07,0,0,1-.95-.7.958.958,0,0,1,.294-1.134,2.724,2.724,0,0,1,.6-.346,20.79,20.79,0,0,0,8.206-6.548,1.01,1.01,0,0,1,1.465-.317,1.06,1.06,0,0,1,.233,1.542,17.14,17.14,0,0,1-3.889,4.08,27.68,27.68,0,0,1-5.226,3.2A1.8,1.8,0,0,1,1008.068,498.809Z" transform="translate(-103.881 -71.946)" fill="#040404"/>
    <path id="Trazado_630354" data-name="Trazado 630354" d="M1044.894,533.53a2.765,2.765,0,0,1,3.631.352c.894.839.891.837.073,1.722-3.315,3.583-6.642,7.154-9.931,10.761a4.515,4.515,0,0,1-2.495,1.547c-.524.1-1.033.278-1.549.42a6.927,6.927,0,0,1,1.362-1.639c1.481-1.666,3.047-3.257,4.568-4.888,1.726-1.851,3.43-3.723,5.16-5.57C1046.616,535.272,1046.153,534.131,1044.894,533.53Z" transform="translate(-123.719 -103.188)" fill="#f1bc8c"/>
    <path id="Trazado_630355" data-name="Trazado 630355" d="M1034.153,587.577l-.184.063Z" transform="translate(-123.248 -142.436)" fill="#f1bc8c"/>
    <path id="Trazado_630356" data-name="Trazado 630356" d="M999.124,431.119c.2.15.12.319.038.5-1.6,3.466-2.913,7.064-4.679,10.45a18.85,18.85,0,0,1-8.277,8.14,2.819,2.819,0,0,0-.958.555,3.931,3.931,0,0,1-2.614.232c1.017-.8,2.034-1.564,3.014-2.374a69.663,69.663,0,0,0,8.518-8.492c.609-.712.65-1.331.141-1.772s-1.134-.3-1.733.395a65.716,65.716,0,0,1-9.854,9.514c-.494.377-1.007.73-1.549,1.122a2.652,2.652,0,0,1,.058-1.7,18.348,18.348,0,0,1,9.694-12.987.856.856,0,0,1,1.009.037c.66.435,1.353.823,2.046,1.205a1.465,1.465,0,0,0,2.291-1.038c.158-.752.265-1.515.38-2.276a.765.765,0,0,1,.544-.708C997.851,431.689,998.482,431.389,999.124,431.119Z" transform="translate(-85.185 -29.905)" fill="#f0f8fb"/>
    <path id="Trazado_630357" data-name="Trazado 630357" d="M1067.471,481.732a5.535,5.535,0,0,0-3.2-2.9c-.27-.121-.517-.291-.834-.473,1.478-.941,3.312-1.392,3.95-3.26a3.672,3.672,0,0,0,1.9,1.528,17.679,17.679,0,0,1,1.654.895c1,.593.986,1.124-.041,1.685-.714.389-1.439.758-2.149,1.153C1068.173,480.674,1067.584,480.986,1067.471,481.732Z" transform="translate(-144.439 -61.535)" fill="#e86291"/>
    <path id="Trazado_630358" data-name="Trazado 630358" d="M1077.59,477.468c.113-.745.7-1.058,1.272-1.375.71-.4,1.436-.764,2.15-1.153,1.026-.56,1.043-1.091.041-1.685a17.649,17.649,0,0,0-1.654-.895,3.673,3.673,0,0,1-1.9-1.528l.871-1.664a7.231,7.231,0,0,0,4.782,4.907,7.137,7.137,0,0,0-4.722,4.893A6.2,6.2,0,0,1,1077.59,477.468Z" transform="translate(-154.558 -57.271)" fill="#e1497d"/>
    <path id="Trazado_630359" data-name="Trazado 630359" d="M961.713,410.655c-.844-1.375-.844-1.375-3.892-3.2,1.419-.972,3.291-1.371,3.9-3.237.347.211.344.688.749.889.937.467,1.841,1,2.758,1.5.347.191.768.353.776.813s-.427.609-.754.829C964.066,409.049,962.567,409.38,961.713,410.655Z" transform="translate(-68.479 -10.558)" fill="#f8e267"/>
    <path id="Trazado_630360" data-name="Trazado 630360" d="M971.684,406.2c.855-1.275,2.353-1.606,3.536-2.4.327-.22.763-.363.754-.829s-.43-.623-.776-.813c-.918-.5-1.822-1.036-2.759-1.5-.4-.2-.4-.679-.749-.889l.922-1.738a7.126,7.126,0,0,0,4.715,4.951,7.294,7.294,0,0,0-4.714,4.977Z" transform="translate(-78.451 -6.105)" fill="#f0ce46"/>
  </g>
</svg>
