<svg xmlns="http://www.w3.org/2000/svg" width="58.994" height="58.979" viewBox="0 0 58.994 58.979">
  <g id="Grupo_955020" data-name="Grupo 955020" transform="translate(-1111.551 -161.131)">
    <path id="Trazado_630264" data-name="Trazado 630264" d="M1140.143,163.221h1.663a.991.991,0,0,0,1.122.821c1.181-.016,2.362.007,3.544.015a5.815,5.815,0,0,1,.458,2.906,1.043,1.043,0,0,0,.662,1.093c.54.247,1.073.514,1.595.8a.624.624,0,0,1-.007,1.19,9.943,9.943,0,0,1-1.658.785c-.076-.2-.15-.393-.229-.588a4.733,4.733,0,0,0-5.543-2.819,4.543,4.543,0,0,0-3.521,3.7,4.749,4.749,0,0,0,6.956,5.067c.35-.188.57-.224.814.108a1.218,1.218,0,0,0,.933.5,6.672,6.672,0,0,1-.46,3.224c-.1.007-.191.02-.286.02q-14.537,0-29.074,0a1.465,1.465,0,0,1-1.623-1.646q-.005-6.245,0-12.49c0-1.375.492-1.87,1.861-1.87q10.766,0,21.533.01A1.118,1.118,0,0,0,1140.143,163.221ZM1127.291,169q3.971,0,7.941,0c.681,0,1.077-.307,1.094-.83.018-.543-.4-.9-1.1-.9q-7.884,0-15.767,0c-.728,0-1.11.308-1.11.872s.369.853,1.114.854Q1123.378,169,1127.291,169Zm0,3.907h5.812c.786,0,1.573.015,2.359-.007a.857.857,0,0,0,.865-.886.878.878,0,0,0-.866-.831c-.1-.008-.192,0-.288,0h-15.652a2.069,2.069,0,0,0-.459.017.859.859,0,0,0,0,1.691,2.345,2.345,0,0,0,.516.018Zm1.769,2.179c-2.09,0-4.181,0-6.271,0-.585,0-.928.278-.976.754-.061.609.349.97,1.122.971q6.128,0,12.255,0c.715,0,1.13-.318,1.14-.857s-.4-.868-1.113-.869Q1132.137,175.079,1129.059,175.081Z" transform="translate(-2.207 -1.171)" fill="#8bc6a7"/>
    <path id="Trazado_630265" data-name="Trazado 630265" d="M1175.817,234.811h15.148a3.21,3.21,0,0,1,3.572,3.542q0,6.219,0,12.437a3.191,3.191,0,0,1-3.458,3.483q-15.263,0-30.526,0a3.186,3.186,0,0,1-3.454-3.429c0-2.015-.018-4.031.012-6.046a.8.8,0,0,0-.554-.87c-.474-.2-.928-.454-1.389-.688a1.43,1.43,0,0,1,0-2.58c.461-.232.915-.484,1.388-.687a.775.775,0,0,0,.55-.874,7.1,7.1,0,0,1,.032-1.608,3.146,3.146,0,0,1,3.24-2.679Q1168.1,234.8,1175.817,234.811Zm13.993,1.749c-.134-.007-.268-.02-.4-.02q-14.448,0-28.9,0c-.1,0-.192,0-.288,0a1.434,1.434,0,0,0-1.394,1.406c-.021.479-.01.959-.006,1.439a2.048,2.048,0,0,1-1.222,1.982l-1.154.582c.334.17.558.305.8.4a2.358,2.358,0,0,1,1.591,2.511c-.055,1.935-.015,3.874-.015,5.811,0,1.374.495,1.871,1.861,1.871h28.492c.211,0,.421-.014.632-.021.421.007.843.021,1.263.02,1.182,0,1.731-.542,1.734-1.707,0-.958,0-1.916,0-2.875q0-4.916,0-9.831a1.449,1.449,0,0,0-1.56-1.59C1190.767,236.534,1190.288,236.552,1189.81,236.559Z" transform="translate(-24.002 -41.314)" fill="#010101"/>
    <path id="Trazado_630266" data-name="Trazado 630266" d="M1144.265,162.887c-1.182-.007-2.363-.03-3.544-.015a.991.991,0,0,1-1.122-.821c.172-.736.389-.911,1.15-.912,1.651,0,3.3-.007,4.953,0a3.074,3.074,0,0,1,3.254,3.3c-.074,1.223.274,1.954,1.446,2.283a2.711,2.711,0,0,1,.361.175,1.46,1.46,0,0,1,.969,1.371,1.5,1.5,0,0,1-.956,1.383c-.578.294-1.36.416-1.676.933-.341.56-.1,1.344-.1,2.029-.016,1.555,0,3.109-.006,4.664a3.167,3.167,0,0,1-3.333,3.317q-15.378.005-30.755,0a3.168,3.168,0,0,1-3.349-3.359q-.006-6.362,0-12.724a3.17,3.17,0,0,1,3.388-3.377q10.885,0,21.77,0c.813,0,.975.124,1.225.914a1.118,1.118,0,0,1-1.262.824q-10.766-.024-21.532-.01c-1.369,0-1.861.495-1.861,1.87q0,6.244,0,12.49a1.465,1.465,0,0,0,1.623,1.646q14.537,0,29.074,0c.1,0,.191-.013.286-.02.383.007.766.02,1.149.02,1.339,0,1.849-.5,1.849-1.822q0-3.1,0-6.208a2.047,2.047,0,0,1,1.22-1.979c.353-.176.7-.354,1.155-.581-.43-.22-.758-.4-1.1-.56a2.063,2.063,0,0,1-1.28-2.057c.009-.441.012-.882,0-1.322a1.431,1.431,0,0,0-1.444-1.472C1145.3,162.855,1144.782,162.881,1144.265,162.887Z" transform="translate(0 -0.002)" fill="#010101"/>
    <path id="Trazado_630267" data-name="Trazado 630267" d="M1127.58,250.356a.877.877,0,0,1,1.247,0,9.475,9.475,0,0,1,2.908,7.7,3.731,3.731,0,0,1-3.652,3.352q-6.389.051-12.78,0a3.82,3.82,0,0,1-3.72-3.8,9.859,9.859,0,0,1,5.2-8.93c.416-.245.471-.365.173-.759a5.623,5.623,0,0,1-1.073-3.506c0-1.88-.011-3.761,0-5.64a3.762,3.762,0,0,1,3.989-3.95c1.266,0,2.533-.006,3.8,0a3.731,3.731,0,0,1,3.8,3.776c.018,1.842-.034,3.685.014,5.525a6.105,6.105,0,0,1-2.008,4.88,5.806,5.806,0,0,1-6.457.751c-.167-.079-.315-.143-.47.006a8.313,8.313,0,0,0-5.256,7.562,2.19,2.19,0,0,0,2.309,2.368q6.073.009,12.146,0a2.191,2.191,0,0,0,2.315-2.416,8.3,8.3,0,0,0-2.272-5.508c-.155-.166-.286-.356-.428-.535A1.247,1.247,0,0,1,1127.58,250.356Zm-2-5.119a6.305,6.305,0,0,1-2.648,1.647.854.854,0,0,1-.6-1.6c.171-.085.353-.147.527-.227a5.678,5.678,0,0,0,2.5-2.211c.11-.177.178-.293-.058-.456a4.348,4.348,0,0,0-3.582-.81,18.92,18.92,0,0,0-2.3.717c-.608.228-1.5.155-1.753.754a4.392,4.392,0,0,0-.009,1.986,4.025,4.025,0,0,0,3.48,3.588,4.069,4.069,0,0,0,4.424-2.8c.059-.19.186-.391.013-.591l.041.018Zm.169-4.613c0-.781.016-1.451,0-2.119a1.975,1.975,0,0,0-1.944-1.953c-1.417-.031-2.835-.028-4.253,0a1.937,1.937,0,0,0-1.871,1.577,19.082,19.082,0,0,0-.057,2.639c0,.2.077.273.285.2.341-.124.687-.235,1.035-.341a16.128,16.128,0,0,1,2.974-.843A6.239,6.239,0,0,1,1125.75,240.624Z" transform="translate(-0.018 -41.317)" fill="#030303"/>
    <path id="Trazado_630268" data-name="Trazado 630268" d="M1205.476,174.69a6.083,6.083,0,0,1-1.4-4.176c.036-1.822,0-3.645.011-5.468a3.737,3.737,0,0,1,3.9-3.909c1.286-.006,2.572-.008,3.858,0a3.662,3.662,0,0,1,3.8,3.533,67.72,67.72,0,0,1-.027,6.961,4.95,4.95,0,0,1-1.06,2.689c-.226.3-.247.411.112.609a9.9,9.9,0,0,1,5.148,7.035,6.524,6.524,0,0,1,.081,2.684,3.828,3.828,0,0,1-3.622,3.072c-4.26.037-8.522.046-12.783,0a3.864,3.864,0,0,1-3.73-4.141,9.983,9.983,0,0,1,5.251-8.625C1205.165,174.865,1205.314,174.782,1205.476,174.69Zm9.362,2.4a6.753,6.753,0,0,0-1.608-.969.848.848,0,0,0-.859.009,5.545,5.545,0,0,1-2.542.576,7.4,7.4,0,0,1-2.854-.708,1.987,1.987,0,0,0-.325.087,8.27,8.27,0,0,0-5.151,7.357,2.224,2.224,0,0,0,2.4,2.563c1.823,0,3.646,0,5.468,0,2.207,0,4.413.008,6.62,0a2.142,2.142,0,0,0,2.269-2.049A8.04,8.04,0,0,0,1214.838,177.095Zm-.882-6.838c0-.306,0-.613,0-.919a.482.482,0,0,0-.2-.442,4.578,4.578,0,0,0-4.26-.9c-1.113.344-2.211.735-3.325,1.075a.446.446,0,0,0-.361.537c.019.478,0,.957.011,1.436a4.063,4.063,0,0,0,7.733,1.62A5.176,5.176,0,0,0,1213.956,170.256Zm-.021-3.319c0-.791.036-1.494-.008-2.193a1.966,1.966,0,0,0-2.013-1.877c-1.36-.015-2.721-.018-4.081,0a1.994,1.994,0,0,0-2.014,2c-.01.364-.018.729,0,1.092.023.45-.2,1.047.1,1.3.187.155.795-.2,1.213-.323a15.868,15.868,0,0,1,3.033-.846A6.269,6.269,0,0,1,1213.934,166.938Z" transform="translate(-49.463)" fill="#030303"/>
    <path id="Trazado_630269" data-name="Trazado 630269" d="M1136.483,268.463a1.246,1.246,0,0,0-.209.87c-.273.266-.537.542-.82.8a5,5,0,0,1-6.981-.7c-.383-.5-.509-1.154-1.012-1.566.156-.148.3-.084.471-.006a5.806,5.806,0,0,0,6.457-.751A12.791,12.791,0,0,1,1136.483,268.463Z" transform="translate(-8.921 -59.424)" fill="#ea6d72"/>
    <path id="Trazado_630270" data-name="Trazado 630270" d="M1175.831,181.965a1.218,1.218,0,0,1-.933-.5c-.244-.333-.463-.3-.814-.108a4.749,4.749,0,1,1-3.435-8.769,4.733,4.733,0,0,1,5.543,2.819c.079.2.153.392.229.588a4.81,4.81,0,0,1-.445,3.444.539.539,0,0,0,.122.806C1176.837,180.954,1176.732,181.538,1175.831,181.965Zm-2.632-2.085c-.071-.252-.265-.361-.407-.51-.5-.521-.561-1.011-.166-1.4s.876-.324,1.4.187a1.186,1.186,0,0,1,.121.123c.3.391.432.211.531-.145a2.946,2.946,0,0,0-.675-2.989,3.022,3.022,0,1,0-.8,4.733Z" transform="translate(-31.106 -6.34)" fill="#020302"/>
    <path id="Trazado_630271" data-name="Trazado 630271" d="M1186.487,177.837c.9-.427,1.005-1.011.267-1.719a.54.54,0,0,1-.122-.806,4.81,4.81,0,0,0,.445-3.444,9.938,9.938,0,0,0,1.658-.785.624.624,0,0,0,.007-1.19c-.522-.283-1.055-.55-1.595-.8a1.043,1.043,0,0,1-.662-1.093,5.813,5.813,0,0,0-.458-2.906c.517-.006,1.035-.032,1.551-.015a1.431,1.431,0,0,1,1.444,1.472c.014.441.01.882,0,1.322a2.063,2.063,0,0,0,1.28,2.057c.338.16.666.34,1.1.56-.45.227-.8.4-1.155.581a2.047,2.047,0,0,0-1.22,1.979q.008,3.1,0,6.208c0,1.32-.51,1.824-1.849,1.822-.383,0-.766-.013-1.149-.02A6.67,6.67,0,0,0,1186.487,177.837Z" transform="translate(-41.762 -2.212)" fill="#71ba94"/>
    <path id="Trazado_630272" data-name="Trazado 630272" d="M1130.947,174.161q-3.913,0-7.826,0c-.744,0-1.113-.287-1.114-.854s.381-.872,1.11-.872q7.884,0,15.767,0c.7,0,1.116.353,1.1.9-.017.523-.413.829-1.094.83Q1134.918,174.164,1130.947,174.161Z" transform="translate(-5.863 -6.337)" fill="#010202"/>
    <path id="Trazado_630273" data-name="Trazado 630273" d="M1130.948,183.052h-7.711a2.348,2.348,0,0,1-.516-.018.859.859,0,0,1,0-1.691,2.067,2.067,0,0,1,.458-.017h15.652c.1,0,.192,0,.287,0a.878.878,0,0,1,.866.831.857.857,0,0,1-.865.886c-.786.023-1.573.007-2.359.007Z" transform="translate(-5.866 -11.321)" fill="#010101"/>
    <path id="Trazado_630274" data-name="Trazado 630274" d="M1137.125,190.222q3.079,0,6.156,0c.712,0,1.123.326,1.113.869s-.425.857-1.14.857q-6.127,0-12.255,0c-.773,0-1.183-.362-1.122-.971.048-.476.391-.753.977-.754C1132.944,190.219,1135.035,190.222,1137.125,190.222Z" transform="translate(-10.273 -16.312)" fill="#010202"/>
    <path id="Trazado_630275" data-name="Trazado 630275" d="M1192.483,254.73c-.211.007-.421.021-.632.021h-28.492c-1.366,0-1.861-.5-1.861-1.871,0-1.937-.04-3.876.014-5.811a2.358,2.358,0,0,0-1.591-2.511c-.241-.1-.465-.233-.8-.4l1.154-.582a2.049,2.049,0,0,0,1.222-1.981c0-.48-.016-.96.006-1.439a1.434,1.434,0,0,1,1.394-1.406c.1-.006.192,0,.288,0q14.447,0,28.9,0c.134,0,.268.013.4.02a5.656,5.656,0,0,1,.467,2.67q-.018,5.312,0,10.624A5.655,5.655,0,0,1,1192.483,254.73Zm-20.952-4.168c-.021-.075-.047-.206-.093-.33q-1.4-3.735-2.81-7.469a1.049,1.049,0,0,0-1.028-.775,1.06,1.06,0,0,0-1.015.793q-.872,2.309-1.752,4.615c-.346.912-.7,1.823-1.039,2.737-.25.672-.082,1.137.464,1.326.5.173.9-.085,1.157-.737a8.141,8.141,0,0,0,.305-.8c.076-.28.239-.344.5-.34q1.381.019,2.762,0a.435.435,0,0,1,.5.353,6.924,6.924,0,0,0,.443,1.119.776.776,0,0,0,.967.422A.848.848,0,0,0,1171.531,250.562Zm11.624-6.857h5.638c.959,0,1.918.007,2.877,0a.837.837,0,0,0,.947-.846.866.866,0,0,0-.932-.878c-.115-.007-.23,0-.345,0h-16.283a3.214,3.214,0,0,0-.517.016.851.851,0,0,0-.713,1.1.885.885,0,0,0,.984.612C1177.593,243.7,1180.374,243.7,1183.155,243.7Zm.015,3.907h8.169a2.98,2.98,0,0,0,.517-.012.858.858,0,0,0-.014-1.705,2.859,2.859,0,0,0-.459-.01h-16.338a2.627,2.627,0,0,0-.517.015.859.859,0,0,0,.014,1.7,2.733,2.733,0,0,0,.517.013Zm-1.689,2.179q-3.279,0-6.558,0a1.24,1.24,0,0,0-.724.121.816.816,0,0,0-.376.944.863.863,0,0,0,.951.661q2.186,0,4.372,0,4.458,0,8.916,0c.5,0,.926-.123,1.075-.659.166-.6-.264-1.068-.984-1.07C1185.929,249.787,1183.7,249.791,1181.48,249.79Z" transform="translate(-26.675 -43.52)" fill="#8bc6a7"/>
    <path id="Trazado_630276" data-name="Trazado 630276" d="M1235.069,254.732a5.653,5.653,0,0,0,.467-2.67q-.019-5.312,0-10.624a5.654,5.654,0,0,0-.467-2.67c.479-.007.958-.025,1.436-.018a1.449,1.449,0,0,1,1.56,1.59q.009,4.915,0,9.831c0,.958,0,1.916,0,2.875,0,1.165-.552,1.706-1.734,1.707C1235.911,254.753,1235.49,254.739,1235.069,254.732Z" transform="translate(-69.261 -43.523)" fill="#71ba94"/>
    <path id="Trazado_630277" data-name="Trazado 630277" d="M1120.751,268.827c.5.412.629,1.065,1.013,1.566a4.994,4.994,0,0,0,6.981.7c.283-.253.547-.529.821-.8.142.179.273.368.428.535a8.3,8.3,0,0,1,2.272,5.508,2.191,2.191,0,0,1-2.315,2.416q-6.073.009-12.146,0a2.19,2.19,0,0,1-2.309-2.368A8.313,8.313,0,0,1,1120.751,268.827Z" transform="translate(-2.212 -60.389)" fill="#eb8689"/>
    <path id="Trazado_630278" data-name="Trazado 630278" d="M1133.182,253.743c.173.2.047.4-.013.591a4.069,4.069,0,0,1-4.424,2.8,4.025,4.025,0,0,1-3.48-3.588,4.388,4.388,0,0,1,.009-1.986c.258-.6,1.146-.527,1.753-.754a18.918,18.918,0,0,1,2.3-.717,4.348,4.348,0,0,1,3.582.81c.236.163.168.279.058.456a5.676,5.676,0,0,1-2.5,2.211c-.174.079-.356.141-.527.227a.854.854,0,0,0,.6,1.6,6.3,6.3,0,0,0,2.648-1.647Z" transform="translate(-7.625 -49.819)" fill="#f3ccbe"/>
    <path id="Trazado_630279" data-name="Trazado 630279" d="M1133.435,242.815a6.238,6.238,0,0,0-3.834-.843,16.126,16.126,0,0,0-2.974.843c-.347.106-.694.217-1.035.341-.207.076-.289.007-.285-.2a19.082,19.082,0,0,1,.057-2.639,1.937,1.937,0,0,1,1.871-1.577c1.417-.029,2.835-.033,4.252,0a1.975,1.975,0,0,1,1.944,1.953C1133.451,241.364,1133.435,242.034,1133.435,242.815Z" transform="translate(-7.703 -43.507)" fill="#ba9190"/>
    <path id="Trazado_630280" data-name="Trazado 630280" d="M1143.442,258.543l.036.022-.041-.018Z" transform="translate(-17.879 -54.623)" fill="#f3ccbe"/>
    <path id="Trazado_630281" data-name="Trazado 630281" d="M1217.044,196.079a8.04,8.04,0,0,1,3.415,6.863,2.142,2.142,0,0,1-2.269,2.049c-2.206.011-4.413,0-6.62,0-1.823,0-3.645,0-5.468,0a2.224,2.224,0,0,1-2.4-2.563,8.27,8.27,0,0,1,5.151-7.357,1.984,1.984,0,0,1,.324-.087,4.894,4.894,0,0,0,5.134,2.6A4.346,4.346,0,0,0,1217.044,196.079Z" transform="translate(-51.669 -18.984)" fill="#f9e68b"/>
    <path id="Trazado_630282" data-name="Trazado 630282" d="M1221.674,178.763a5.161,5.161,0,0,1-.4,2.408,4.062,4.062,0,0,1-7.733-1.62c-.013-.479.008-.958-.011-1.436a.446.446,0,0,1,.361-.537c1.114-.34,2.213-.73,3.325-1.075a4.578,4.578,0,0,1,4.26.9.482.482,0,0,1,.2.442C1221.67,178.15,1221.675,178.457,1221.674,178.763Z" transform="translate(-57.182 -8.507)" fill="#f4cdbf"/>
    <path id="Trazado_630283" data-name="Trazado 630283" d="M1221.593,169.139a6.269,6.269,0,0,0-3.765-.842,15.867,15.867,0,0,0-3.033.846c-.419.125-1.027.478-1.213.323-.306-.253-.081-.85-.1-1.3-.019-.363-.011-.728,0-1.092a1.994,1.994,0,0,1,2.014-2c1.36-.019,2.721-.017,4.081,0a1.965,1.965,0,0,1,2.013,1.877C1221.629,167.645,1221.593,168.348,1221.593,169.139Z" transform="translate(-57.122 -2.201)" fill="#ba9190"/>
    <path id="Trazado_630284" data-name="Trazado 630284" d="M1224.046,196.079a4.345,4.345,0,0,1-2.729,1.508,4.894,4.894,0,0,1-5.134-2.6,7.4,7.4,0,0,0,2.854.708,5.544,5.544,0,0,0,2.542-.576.848.848,0,0,1,.859-.009A6.75,6.75,0,0,1,1224.046,196.079Z" transform="translate(-58.672 -18.984)" fill="#f6db57"/>
    <path id="Trazado_630285" data-name="Trazado 630285" d="M1175.413,182.083a3.024,3.024,0,1,1,.8-4.733,2.945,2.945,0,0,1,.675,2.989c-.1.356-.232.536-.531.145a1.188,1.188,0,0,0-.121-.123c-.521-.511-1-.575-1.4-.187s-.333.879.166,1.4C1175.148,181.722,1175.342,181.831,1175.413,182.083Z" transform="translate(-33.32 -8.543)" fill="#8ac4a5"/>
    <path id="Trazado_630286" data-name="Trazado 630286" d="M1177.348,254.7a.848.848,0,0,1-.637.91.776.776,0,0,1-.967-.422,6.936,6.936,0,0,1-.443-1.119.435.435,0,0,0-.5-.353q-1.381.022-2.762,0c-.266,0-.429.061-.5.34a8.145,8.145,0,0,1-.305.8c-.255.652-.659.91-1.157.737-.546-.189-.714-.655-.464-1.326.341-.914.693-1.825,1.039-2.737q.877-2.307,1.752-4.615a1.06,1.06,0,0,1,1.015-.793,1.049,1.049,0,0,1,1.028.775q1.406,3.734,2.81,7.469C1177.3,254.5,1177.328,254.63,1177.348,254.7ZM1172.331,252c.671,0,1.261,0,1.851,0,.119,0,.329.032.253-.181-.307-.859-.638-1.709-1.013-2.705Z" transform="translate(-32.493 -47.663)" fill="#020302"/>
    <path id="Trazado_630287" data-name="Trazado 630287" d="M1201.875,247.829c-2.781,0-5.562,0-8.343,0a.885.885,0,0,1-.984-.612.851.851,0,0,1,.713-1.1,3.214,3.214,0,0,1,.517-.016h16.283c.115,0,.23,0,.345,0a.866.866,0,0,1,.932.878.837.837,0,0,1-.947.846c-.959.01-1.918,0-2.877,0Z" transform="translate(-45.395 -47.645)" fill="#010202"/>
    <path id="Trazado_630288" data-name="Trazado 630288" d="M1201.906,256.72h-8.112a2.732,2.732,0,0,1-.517-.013.859.859,0,0,1-.014-1.7,2.627,2.627,0,0,1,.517-.014h16.338a2.861,2.861,0,0,1,.459.01.858.858,0,0,1,.014,1.705,2.983,2.983,0,0,1-.517.012Z" transform="translate(-45.411 -52.629)" fill="#010101"/>
    <path id="Trazado_630289" data-name="Trazado 630289" d="M1200.206,263.892c2.224,0,4.448,0,6.673,0,.719,0,1.15.467.983,1.07-.149.537-.57.66-1.075.659q-4.458-.009-8.916,0-2.186,0-4.372,0a.864.864,0,0,1-.952-.661.816.816,0,0,1,.376-.944,1.239,1.239,0,0,1,.724-.121Q1196.927,263.89,1200.206,263.892Z" transform="translate(-45.401 -57.621)" fill="#010202"/>
    <path id="Trazado_630290" data-name="Trazado 630290" d="M1175.949,255.8l1.091-2.889c.376,1,.707,1.847,1.013,2.705.076.213-.134.18-.253.181C1177.21,255.8,1176.62,255.8,1175.949,255.8Z" transform="translate(-36.111 -51.463)" fill="#8ac4a5"/>
  </g>
</svg>
