<svg xmlns="http://www.w3.org/2000/svg" width="56.58" height="56.573" viewBox="0 0 56.58 56.573">
  <g id="Grupo_980822" data-name="Grupo 980822" transform="translate(-416.216 -124.891)">
    <path id="Trazado_640954" data-name="Trazado 640954" d="M444.506,124.891h24.31a3.645,3.645,0,0,1,3.98,3.977v48.614a3.651,3.651,0,0,1-3.98,3.98H420.2a3.651,3.651,0,0,1-3.98-3.98V128.87a3.648,3.648,0,0,1,3.979-3.977Zm-26.634,28.23v24.359a2.019,2.019,0,0,0,2.325,2.327h48.616a2.021,2.021,0,0,0,2.327-2.327V128.872c0-1.6-.727-2.324-2.327-2.324q-24.308,0-48.616,0c-1.6,0-2.325.723-2.325,2.324Z"/>
    <path id="Trazado_640955" data-name="Trazado 640955" d="M417.325,152.574V128.325c0-1.6.724-2.324,2.325-2.324q24.308,0,48.616,0c1.6,0,2.327.726,2.327,2.324v48.608a2.021,2.021,0,0,1-2.327,2.327H419.65a2.019,2.019,0,0,1-2.325-2.327Zm42.1,24.358c.118.617.5.818,1.111.814,2.449-.018,4.9-.006,7.346-.007.987,0,1.195-.208,1.195-1.193V128.718c0-.992-.2-1.2-1.192-1.2H435.072c-.771,0-.957.13-1.168.795l-1.616.009c-.181-.672-.354-.8-1.1-.8h-11.16c-.977,0-1.181.211-1.181,1.207q0,23.891,0,47.784c0,1.024.2,1.226,1.217,1.226h36.576c.8,0,.971-.124,1.156-.8Z" transform="translate(0.547 0.547)" fill="#f0f0f0"/>
    <path id="Trazado_640956" data-name="Trazado 640956" d="M431.242,127.56l1.616-.007c.23.729.418.862,1.251.862h29.085c.239,0,.478.016.715.025v46.846c-1.484.009-2.97.013-4.455.027-.68.006-.892.181-1.08.851h-1.626c-.167-.706-.378-.854-1.238-.854q-17.729,0-35.459.012c-.487,0-.6-.116-.6-.6q.022-22.863,0-45.725c0-.508.151-.6.617-.593,3.351.019,6.7.012,10.052.009C430.859,128.413,431.083,128.237,431.242,127.56Zm.367,24.522q0,7.677,0,15.353a2.6,2.6,0,0,0,1.837,2.709,5.574,5.574,0,0,0,3.574.191,2.84,2.84,0,0,0,2.472-3.188c0-3.075.006-6.148-.007-9.223,0-.376.093-.506.487-.5,1.289.024,2.578.01,3.866.007a17.325,17.325,0,0,0,3.946-.381c4.265-1,7.022-3.544,8-7.869a17.118,17.118,0,0,0,.1-6.744,9.938,9.938,0,0,0-9.9-8.548c-3.8-.212-7.62-.106-11.429-.049a2.791,2.791,0,0,0-2.948,3.111Q431.608,144.516,431.609,152.083Z" transform="translate(1.593 1.314)" fill="#3e8250"/>
    <path id="Trazado_640957" data-name="Trazado 640957" d="M431.786,127.824c-.158.677-.382.853-1.128.853-3.351,0-6.7.01-10.052-.009-.466,0-.617.085-.617.593q.025,22.863,0,45.725c0,.487.118.6.6.6q17.729-.022,35.459-.012c.86,0,1.071.148,1.238.854-.185.681-.36.8-1.156.8H419.561c-1.017,0-1.217-.2-1.217-1.226q0-23.894,0-47.784c0-1,.2-1.207,1.181-1.207h11.16C431.432,127.02,431.605,127.152,431.786,127.824Z" transform="translate(1.049 1.05)" fill="#020305"/>
    <path id="Trazado_640958" data-name="Trazado 640958" d="M459.478,128.705c-.237-.009-.476-.025-.715-.025H429.678c-.833,0-1.022-.133-1.252-.862.211-.666.4-.8,1.168-.8H462.4c.987,0,1.192.2,1.192,1.2v47.827c0,.986-.208,1.193-1.195,1.193-2.449,0-4.9-.01-7.346.007-.606,0-.993-.2-1.111-.814.188-.671.4-.845,1.08-.851,1.484-.013,2.97-.018,4.455-.027.588.007,1.177.025,1.767.022.787,0,.69.108.69-.714q0-22.733,0-45.463a3.055,3.055,0,0,1,0-.331c.027-.272-.057-.4-.363-.391C460.877,128.7,460.177,128.7,459.478,128.705Z" transform="translate(6.025 1.05)" fill="#020305"/>
    <path id="Trazado_640959" data-name="Trazado 640959" d="M427.59,150.031q0-7.565,0-15.132a2.791,2.791,0,0,1,2.948-3.111c3.81-.057,7.625-.163,11.429.049a9.938,9.938,0,0,1,9.9,8.548,17.118,17.118,0,0,1-.1,6.744c-.974,4.325-3.731,6.873-8,7.869a17.324,17.324,0,0,1-3.946.381c-1.289,0-2.578.016-3.866-.007-.394-.007-.488.122-.487.5.013,3.075.007,6.148.007,9.223A2.84,2.84,0,0,1,433,168.284a5.574,5.574,0,0,1-3.574-.191,2.6,2.6,0,0,1-1.837-2.709Q427.589,157.706,427.59,150.031Zm15.5-16.352a7.189,7.189,0,0,0-2.018-.236q-4.142-.018-8.283-.018c-.774,0-1.547-.018-2.318.027a1.168,1.168,0,0,0-1.225,1.317q0,15.32-.009,30.641a1.058,1.058,0,0,0,.726,1.1,3.97,3.97,0,0,0,3.012.039c.687-.263.835-.5.835-1.244,0-3.644.01-7.288-.013-10.932,0-.511.088-.685.645-.672,1.84.04,3.681.022,5.521.012a11.358,11.358,0,0,0,2.9-.263c3.111-.5,5.547-1.994,6.723-5.007a13.288,13.288,0,0,0-.022-9.954C448.434,135.606,446.1,134.141,443.093,133.679Z" transform="translate(5.612 3.365)" fill="#040405"/>
    <path id="Trazado_640960" data-name="Trazado 640960" d="M449.218,128.159c.7-.009,1.4-.006,2.1-.031.306-.01.39.119.363.391a3.055,3.055,0,0,0,0,.332q0,22.731,0,45.463c0,.821.1.711-.69.714-.59,0-1.178-.015-1.767-.022Z" transform="translate(16.284 1.597)" fill="#2d593a"/>
    <path id="Trazado_640961" data-name="Trazado 640961" d="M442.325,152.884a11.358,11.358,0,0,1-2.9.263c-1.84.01-3.681.028-5.521-.012-.557-.013-.648.161-.645.672.024,3.644.013,7.288.013,10.932,0,.741-.148.981-.835,1.244a3.97,3.97,0,0,1-3.012-.039,1.058,1.058,0,0,1-.726-1.1q.018-15.32.009-30.641a1.168,1.168,0,0,1,1.225-1.317c.771-.045,1.544-.028,2.318-.027q4.142,0,8.283.018a7.189,7.189,0,0,1,2.018.236c0,.214.19.246.326.332a8.541,8.541,0,0,1,2.878,2.748,10.809,10.809,0,0,1,1.561,4.76,16.029,16.029,0,0,1-.536,6.517,8.486,8.486,0,0,1-3.94,4.954C442.636,152.538,442.388,152.611,442.325,152.884Zm-5.476-2.964v-.013c1.05,0,2.1.028,3.15,0a5.158,5.158,0,0,0,5.094-4.159,11.884,11.884,0,0,0,.146-4.117,6.027,6.027,0,0,0-.829-2.491,5.171,5.171,0,0,0-4.6-2.46c-2.025-.052-4.052,0-6.077-.03-.408-.006-.47.13-.469.5q.018,6.131,0,12.263c0,.46.149.533.554.523C434.824,149.9,435.836,149.92,436.849,149.92Z" transform="translate(6.158 3.93)" fill="#f6f6f6"/>
    <path id="Trazado_640962" data-name="Trazado 640962" d="M437.822,152.8c.063-.273.311-.346.511-.46a8.486,8.486,0,0,0,3.94-4.954,16.027,16.027,0,0,0,.536-6.517,10.809,10.809,0,0,0-1.561-4.76,8.542,8.542,0,0,0-2.878-2.748c-.136-.085-.321-.118-.326-.332,3.008.461,5.341,1.927,6.478,4.809a13.288,13.288,0,0,1,.022,9.954C443.369,150.805,440.933,152.3,437.822,152.8Z" transform="translate(10.661 4.016)" fill="#e5e5e5"/>
    <path id="Trazado_640963" data-name="Trazado 640963" d="M435.342,148.668c-1.013,0-2.025-.018-3.038.007-.4.01-.557-.063-.554-.523q.031-6.131,0-12.263c0-.367.061-.5.469-.5,2.025.025,4.052-.022,6.077.03a5.171,5.171,0,0,1,4.6,2.46,6.027,6.027,0,0,1,.829,2.491,11.884,11.884,0,0,1-.146,4.117,5.158,5.158,0,0,1-5.094,4.159c-1.048.033-2.1,0-3.15,0Zm-1.921-6.637q0,2.265,0,4.528c0,.242-.045.463.342.457,1.583-.022,3.169.031,4.749-.034a3.522,3.522,0,0,0,3.511-3.072,9.992,9.992,0,0,0,.03-3.514,3.616,3.616,0,0,0-3.862-3.326c-1.435-.027-2.872.009-4.309-.019-.414-.007-.473.146-.469.508C433.432,139.049,433.421,140.539,433.421,142.031Z" transform="translate(7.665 5.182)" fill="#020203"/>
    <path id="Trazado_640964" data-name="Trazado 640964" d="M432.872,141.484c0-1.492.01-2.982-.009-4.473,0-.361.055-.515.469-.508,1.437.028,2.873-.007,4.309.019a3.616,3.616,0,0,1,3.862,3.326,9.992,9.992,0,0,1-.03,3.514,3.522,3.522,0,0,1-3.511,3.072c-1.58.066-3.166.012-4.749.034-.387.006-.342-.215-.342-.457Q432.873,143.747,432.872,141.484Z" transform="translate(8.214 5.73)" fill="#3e8250"/>
  </g>
</svg>
