<svg xmlns="http://www.w3.org/2000/svg" width="64" height="63.957" viewBox="0 0 64 63.957">
  <g id="Grupo_980824" data-name="Grupo 980824" transform="translate(-338.519 -99.334)">
    <path id="Trazado_640996" data-name="Trazado 640996" d="M361.109,120.946c-.222.841-.425,1-1.311,1-.708,0-1.415.01-2.125-.005-.271-.007-.352.083-.35.352q.015,2.53,0,5.058a.413.413,0,0,0,.327.45,3.581,3.581,0,0,1,2.253,2.256.45.45,0,0,0,.511.332c2.02-.008,4.04-.012,6.06,0a.493.493,0,0,0,.536-.382,3.739,3.739,0,0,1,7.006.012.5.5,0,0,0,.544.371q3-.02,6,0a.5.5,0,0,0,.564-.344,3.737,3.737,0,0,1,7.024,0,.459.459,0,0,0,.5.349c3.435-.012,6.872-.008,10.308-.012a2.485,2.485,0,0,0,.357-.086c-.421-.386-.778-.686-1.105-1.016a.959.959,0,0,1-.106-1.434.947.947,0,0,1,1.43.111q1.317,1.291,2.606,2.606a.935.935,0,0,1-.015,1.521q-1.286,1.317-2.606,2.606a.941.941,0,0,1-1.43.081.968.968,0,0,1,.136-1.434c.313-.322.645-.623.976-.94a.6.6,0,0,0-.536-.133c-3.292,0-6.583.005-9.873-.012a.636.636,0,0,0-.708.5,3.4,3.4,0,0,1-2.018,2.008c-.428.158-.5.376-.5.773q.015,13.117.008,26.231c0,1.321-.207,1.53-1.506,1.53H354.011c-1.1,0-1.37-.263-1.37-1.346q0-3.811,0-7.621c0-1.147.249-1.4,1.376-1.4q14.5,0,28.993.015c.58,0,.7-.158.7-.711q-.033-8.337-.005-16.675a.712.712,0,0,0-.536-.81,3.429,3.429,0,0,1-2.018-2.088.519.519,0,0,0-.585-.4q-3,.02-6,0a.518.518,0,0,0-.573.416,3.487,3.487,0,0,1-2.088,2.1c-.411.152-.463.364-.462.733q.013,7.056.005,14.116c0,1.186-.243,1.429-1.417,1.43H339.916c-1.141,0-1.4-.253-1.4-1.385v-7.683c0-1.013.286-1.3,1.291-1.3q14.527,0,29.054.015c.623,0,.741-.169.725-.75-.044-1.518-.022-3.039-.008-4.559a.519.519,0,0,0-.4-.59,3.529,3.529,0,0,1-2.168-2.18.481.481,0,0,0-.548-.366q-3.03.015-6.06,0a.459.459,0,0,0-.507.335,3.737,3.737,0,0,1-7.024-.012.459.459,0,0,0-.514-.324c-2.02.01-4.042.019-6.062-.005-.4-.005-.458.231-.575.5a3.744,3.744,0,0,1-7.193-1.628,3.5,3.5,0,0,1,2.212-3.2.856.856,0,0,0,.595-.967q-.018-13.051-.008-26.105c0-1.309.207-1.513,1.521-1.513h29.99c1.176,0,1.419.243,1.419,1.425q0,3.841,0,7.681c0,.964-.3,1.262-1.269,1.262q-14.56,0-29.118-.012c-.529,0-.684.1-.682.662q.038,8.37.008,16.739c0,.394.062.613.494.775a3.437,3.437,0,0,1,2.066,2.123.518.518,0,0,0,.586.4q3-.02,6,0c.34,0,.452-.14.563-.431a3.494,3.494,0,0,1,2.088-2.106c.406-.152.465-.357.465-.73q-.015-7.056-.007-14.114c0-1.191.241-1.434,1.414-1.434H386.98c1.147,0,1.4.251,1.4,1.378q0,3.872,0,7.745c0,.93-.307,1.243-1.223,1.243q-11.5,0-22.995,0c-.817,0-1.029-.175-1.247-1a1.136,1.136,0,0,1,1.3-.885c3.267.02,6.536.012,9.8.008q4.807-.005,9.615-.019c.831.007,1.663,0,2.494.025.3.008.386-.086.384-.384q-.018-2.932,0-5.863c0-.3-.083-.394-.384-.384-.831.024-1.663.019-2.494.025-.229-.007-.457-.019-.686-.019q-8.332,0-16.667,0-4.213,0-8.428,0c-.295,0-.546-.051-.539.421.03,1.934.022,3.868.005,5.8,0,.344.12.413.43.4.686-.02,1.375.022,2.059-.013A1.113,1.113,0,0,1,361.109,120.946Zm8.4-13.137c.832.007,1.665,0,2.5.025.3.008.386-.086.382-.384q-.018-2.932,0-5.863c0-.3-.081-.393-.382-.384-.831.024-1.663.019-2.5.025a.745.745,0,0,0-.123-.017q-12.869,0-25.736-.013c-.435,0-.455.174-.452.51.012,1.831.029,3.665-.008,5.494-.012.529.133.639.647.639q12.555-.028,25.113-.013C369.141,107.827,369.326,107.816,369.513,107.809Zm11.369,47.009a.794.794,0,0,0-.125-.019q-12.9,0-25.8-.013c-.435,0-.448.179-.446.51.012,1.833.029,3.665-.008,5.5-.01.524.126.639.644.637q12.588-.025,25.177-.013c.187,0,.374-.012.561-.019.81.007,1.621,0,2.43.027.3.008.388-.089.386-.388q-.018-2.929,0-5.858c0-.3-.081-.4-.386-.388C382.5,154.816,381.693,154.811,380.883,154.818Zm-14.122-5.663c.81.007,1.621,0,2.431.027.3.01.388-.089.386-.388q-.018-2.929,0-5.858c0-.3-.083-.4-.386-.388-.81.027-1.621.02-2.431.027a1.032,1.032,0,0,0-.123-.019q-12.9,0-25.8-.013c-.436,0-.448.179-.447.512.012,1.831.027,3.663-.008,5.494-.01.524.126.639.642.639q12.588-.028,25.177-.013C366.386,149.175,366.573,149.162,366.76,149.155Zm-24.474-19.716a1.874,1.874,0,1,0,1.855,1.875A1.9,1.9,0,0,0,342.286,129.439Zm30.1,1.9a1.874,1.874,0,1,0-1.88,1.852A1.9,1.9,0,0,0,372.384,131.334Zm-14.121-.029a1.874,1.874,0,1,0-1.852,1.88A1.9,1.9,0,0,0,358.264,131.306Zm26.393,1.88a1.874,1.874,0,1,0-1.9-1.833A1.9,1.9,0,0,0,384.657,133.186Z" transform="translate(0 0)" fill="#010202"/>
    <path id="Trazado_640997" data-name="Trazado 640997" d="M353.469,115.209a1.113,1.113,0,0,0-1.3-.883c-.684.035-1.373-.007-2.059.013-.31.008-.433-.061-.43-.4.017-1.934.025-3.868-.005-5.8-.007-.472.244-.421.539-.421q4.213.005,8.428,0,8.332,0,16.667,0c.229,0,.457.012.686.019v6.581q-4.807.01-9.615.019c-3.269,0-6.537.012-9.8-.008a1.136,1.136,0,0,0-1.3.885Zm7.048-5.114a.928.928,0,0,0,.025,1.855.928.928,0,1,0-.025-1.855Zm3.749,0a.928.928,0,0,0,.025,1.855.928.928,0,1,0-.025-1.855Zm3.756,1.855a.928.928,0,1,0,.013-1.855.928.928,0,0,0-.013,1.855Z" transform="translate(7.641 5.736)" fill="#ccf1fc"/>
    <path id="Trazado_640998" data-name="Trazado 640998" d="M366,131.591c-.187.007-.374.02-.561.02q-12.588,0-25.177.013c-.516,0-.652-.115-.642-.639.035-1.831.02-3.663.008-5.494,0-.334.01-.512.447-.512q12.9.025,25.8.013a1.035,1.035,0,0,1,.123.019Zm-15.529-4.217a.928.928,0,1,0,0,1.855.928.928,0,0,0,0-1.855Zm4.677.952a.93.93,0,0,0-.932-.952.928.928,0,1,0,.012,1.855A.931.931,0,0,0,355.152,128.326Zm3.75-.012a.932.932,0,0,0-.885-.938.928.928,0,1,0-.025,1.853A.934.934,0,0,0,358.9,128.314Z" transform="translate(0.757 17.564)" fill="#ccf1fc"/>
    <path id="Trazado_640999" data-name="Trazado 640999" d="M374.387,138.857c-.187.007-.374.019-.561.019q-12.588,0-25.177.013c-.517,0-.654-.113-.644-.637.037-1.831.02-3.663.008-5.5,0-.332.012-.51.446-.51q12.9.023,25.8.013a.794.794,0,0,1,.125.019Zm-15.538-4.217a.928.928,0,1,0,.019,1.855.928.928,0,0,0-.019-1.855Zm3.776,1.853a.928.928,0,0,0-.035-1.855.928.928,0,1,0,.035,1.855Zm3.725,0a.928.928,0,0,0,.013-1.855.928.928,0,1,0-.013,1.855Z" transform="translate(6.496 22.54)" fill="#ccf1fc"/>
    <path id="Trazado_641000" data-name="Trazado 641000" d="M367.613,107.051c-.187.007-.372.019-.559.019q-12.558,0-25.113.013c-.514,0-.659-.11-.647-.639.037-1.83.02-3.663.008-5.494,0-.337.017-.512.452-.51q12.866.023,25.736.013a.745.745,0,0,1,.123.017Zm-14.522-3.269a.968.968,0,0,0-.89-.949.927.927,0,0,0-.108,1.852A.965.965,0,0,0,353.092,103.783Zm3.749-.007a.966.966,0,0,0-.895-.942.928.928,0,0,0-.1,1.853A.967.967,0,0,0,356.84,103.776Zm3.749-.044a.966.966,0,0,0-1-.9.928.928,0,0,0,.056,1.853A.964.964,0,0,0,360.589,103.732Z" transform="translate(1.9 0.757)" fill="#ccf1fc"/>
    <path id="Trazado_641001" data-name="Trazado 641001" d="M356.915,107.049v-6.581c.832-.007,1.665,0,2.5-.025.3-.008.386.086.382.384q-.018,2.932,0,5.863c0,.3-.081.393-.382.384C358.58,107.049,357.747,107.056,356.915,107.049Z" transform="translate(12.598 0.759)" fill="#9fe4fb"/>
    <path id="Trazado_641002" data-name="Trazado 641002" d="M365.3,114.316v-6.581c.831-.007,1.663,0,2.494-.025.3-.01.386.086.384.384q-.018,2.932,0,5.863c0,.3-.083.393-.384.384C366.96,114.316,366.128,114.322,365.3,114.316Z" transform="translate(18.339 5.735)" fill="#9fe4fb"/>
    <path id="Trazado_641003" data-name="Trazado 641003" d="M355.281,131.59V125.01c.81-.007,1.621,0,2.431-.027.3-.008.388.089.386.388q-.018,2.929,0,5.858c0,.3-.083.4-.386.388C356.9,131.59,356.091,131.6,355.281,131.59Z" transform="translate(11.479 17.565)" fill="#9ee4fb"/>
    <path id="Trazado_641004" data-name="Trazado 641004" d="M363.663,138.856v-6.579c.81-.007,1.621,0,2.43-.027.3-.01.388.089.386.388q-.018,2.929,0,5.858c0,.3-.081.4-.386.388C365.284,138.856,364.473,138.862,363.663,138.856Z" transform="translate(17.22 22.542)" fill="#9ee4fb"/>
    <path id="Trazado_641005" data-name="Trazado 641005" d="M341.524,117.2a1.874,1.874,0,1,1-1.892,1.84A1.9,1.9,0,0,1,341.524,117.2Z" transform="translate(0.762 12.237)" fill="#5bc8f4"/>
    <path id="Trazado_641006" data-name="Trazado 641006" d="M360.142,119.1a1.874,1.874,0,1,1-1.835-1.9A1.9,1.9,0,0,1,360.142,119.1Z" transform="translate(12.242 12.237)" fill="#5bc8f4"/>
    <path id="Trazado_641007" data-name="Trazado 641007" d="M351.761,119.069A1.874,1.874,0,1,1,349.9,117.2,1.9,1.9,0,0,1,351.761,119.069Z" transform="translate(6.503 12.237)" fill="#4b86e8"/>
    <path id="Trazado_641008" data-name="Trazado 641008" d="M366.674,120.949a1.874,1.874,0,1,1,1.85-1.884A1.9,1.9,0,0,1,366.674,120.949Z" transform="translate(17.983 12.237)" fill="#4b86e8"/>
    <path id="Trazado_641009" data-name="Trazado 641009" d="M356.481,109.126a.928.928,0,1,1,.025,1.855.928.928,0,0,1-.025-1.855Z" transform="translate(11.676 6.706)" fill="#090b0b"/>
    <path id="Trazado_641010" data-name="Trazado 641010" d="M358.706,109.126a.928.928,0,1,1,.025,1.855.928.928,0,0,1-.025-1.855Z" transform="translate(13.2 6.706)" fill="#090b0b"/>
    <path id="Trazado_641011" data-name="Trazado 641011" d="M360.938,110.981a.928.928,0,0,1,.013-1.855.928.928,0,1,1-.013,1.855Z" transform="translate(14.723 6.706)" fill="#090b0b"/>
    <path id="Trazado_641012" data-name="Trazado 641012" d="M346.446,126.4a.928.928,0,0,1,0,1.855.928.928,0,1,1,0-1.855Z" transform="translate(4.785 18.537)" fill="#090b0b"/>
    <path id="Trazado_641013" data-name="Trazado 641013" d="M349.6,127.353a.931.931,0,0,1-.92.9.928.928,0,1,1-.012-1.855A.93.93,0,0,1,349.6,127.353Z" transform="translate(6.309 18.537)" fill="#090b0b"/>
    <path id="Trazado_641014" data-name="Trazado 641014" d="M351.827,127.341a.934.934,0,0,1-.91.915.928.928,0,1,1,.025-1.853A.932.932,0,0,1,351.827,127.341Z" transform="translate(7.832 18.537)" fill="#090b0b"/>
    <path id="Trazado_641015" data-name="Trazado 641015" d="M354.821,133.667a.928.928,0,0,1,.019,1.855.928.928,0,1,1-.019-1.855Z" transform="translate(10.525 23.513)" fill="#090b0b"/>
    <path id="Trazado_641016" data-name="Trazado 641016" d="M357.072,135.521a.928.928,0,1,1-.035-1.855.928.928,0,0,1,.035,1.855Z" transform="translate(12.049 23.512)" fill="#090b0b"/>
    <path id="Trazado_641017" data-name="Trazado 641017" d="M359.273,135.522a.928.928,0,1,1,.013-1.855.928.928,0,0,1-.013,1.855Z" transform="translate(13.573 23.513)" fill="#090b0b"/>
    <path id="Trazado_641018" data-name="Trazado 641018" d="M349.056,102.81a.965.965,0,0,1-1,.9.927.927,0,0,1,.108-1.852A.968.968,0,0,1,349.056,102.81Z" transform="translate(5.935 1.73)" fill="#090b0b"/>
    <path id="Trazado_641019" data-name="Trazado 641019" d="M351.281,102.8a.967.967,0,0,1-.991.911.928.928,0,0,1,.1-1.853A.966.966,0,0,1,351.281,102.8Z" transform="translate(7.459 1.73)" fill="#090b0b"/>
    <path id="Trazado_641020" data-name="Trazado 641020" d="M353.506,102.76a.964.964,0,0,1-.945.955.928.928,0,0,1-.056-1.853A.966.966,0,0,1,353.506,102.76Z" transform="translate(8.984 1.73)" fill="#090b0b"/>
  </g>
</svg>
