<svg xmlns="http://www.w3.org/2000/svg" width="85.663" height="85.663" viewBox="0 0 85.663 85.663">
  <g id="Grupo_956500" data-name="Grupo 956500" transform="translate(-608.068 -6556.283)">
    <path id="Trazado_621807" data-name="Trazado 621807" d="M42.832,0A42.832,42.832,0,1,1,0,42.832,42.832,42.832,0,0,1,42.832,0Z" transform="translate(608.068 6556.283)" fill="#ef8b53"/>
    <g id="Grupo_956499" data-name="Grupo 956499" transform="translate(39.353 6622.395)">
      <path id="Trazado_631264" data-name="Trazado 631264" d="M608-14.185c-1.2-.125-1.635-.591-1.5-1.784a4.958,4.958,0,0,1,3.241-4.3.831.831,0,0,0,.618-.936c-.031-1.821-.026-3.643,0-5.465a.753.753,0,0,0-.579-.88,5.09,5.09,0,0,1-2.581-2.153c-.606.685-1.185,1.333-1.757,1.987-1.583,1.808-3.176,3.608-4.739,5.433a4.348,4.348,0,0,1-3.516,1.609c-6.73-.023-13.461-.008-20.192-.011a3.894,3.894,0,0,1-4.209-4.2q0-7.477,0-14.954a3.878,3.878,0,0,1,4.11-4.159c6.807-.018,13.613,0,20.419-.007a4.18,4.18,0,0,1,3.32,1.54c2.151,2.488,4.326,4.953,6.547,7.491a5.474,5.474,0,0,1,2.907-2.275c.3-.092.256-.34.257-.56,0-1.974-.007-3.947.009-5.921a.548.548,0,0,0-.429-.6A4.908,4.908,0,0,1,606.5-49.2a4.9,4.9,0,0,1,3.445-4.85c.444-.172.4-.441.4-.761q0-2.657,0-5.313c0-.177-.005-.355,0-.531.037-.919.516-1.473,1.281-1.486.792-.013,1.294.557,1.322,1.521.013.455,0,.911,0,1.366,0,1.493.012,2.986-.008,4.478a.659.659,0,0,0,.513.768,5.117,5.117,0,0,1,2.65,2.193c2.189-2.5,4.356-4.939,6.478-7.417a4.422,4.422,0,0,1,3.586-1.626c6.705.019,13.411,0,20.116.012a3.9,3.9,0,0,1,4.228,4.266q0,7.4,0,14.8a3.9,3.9,0,0,1-4.246,4.241c-6.705,0-13.41-.014-20.116.013a4.409,4.409,0,0,1-3.579-1.634c-1.943-2.266-3.923-4.5-5.889-6.747-.18-.2-.366-.4-.584-.644a5.306,5.306,0,0,1-2.821,2.251.444.444,0,0,0-.331.507q.009,3,0,6c0,.328.119.463.432.592a5.093,5.093,0,0,1,3.439,4.871,5.073,5.073,0,0,1-3.4,4.816.648.648,0,0,0-.476.721q.027,2.846,0,5.693c0,.4.066.625.506.774a5.2,5.2,0,0,1,2.655,2.187c.756-.859,1.481-1.679,2.2-2.5,1.45-1.656,2.915-3.3,4.341-4.975a4.285,4.285,0,0,1,3.463-1.564c6.73.009,13.461,0,20.192.007a3.911,3.911,0,0,1,4.211,4.218q0,7.439,0,14.878a3.911,3.911,0,0,1-4.262,4.234c-6.705,0-13.411-.011-20.116.01a4.361,4.361,0,0,1-3.523-1.594c-2.13-2.471-4.29-4.916-6.5-7.442a5.476,5.476,0,0,1-2.924,2.3c-.3.1-.237.35-.238.567,0,1.948,0,3.9-.008,5.845a.6.6,0,0,0,.458.655,5.093,5.093,0,0,1,3.415,4.81A5.068,5.068,0,0,1,613.4,6.178a.65.65,0,0,0-.448.742q.017,3.416,0,6.832a3.534,3.534,0,0,1-.081.9,1.267,1.267,0,0,1-2.446-.022,3.809,3.809,0,0,1-.075-.9c-.006-2.252-.012-4.5,0-6.756a.712.712,0,0,0-.543-.828,5.053,5.053,0,0,1-2.615-2.182l-5.237,5.978c-.5.571-.992,1.149-1.5,1.713A3.907,3.907,0,0,1,597.438,13q-10.361,0-20.723,0a3.852,3.852,0,0,1-3.93-3.952q-.02-7.591,0-15.181a3.915,3.915,0,0,1,4.231-4.2q8.464-.009,16.928,0c1.113,0,2.227,0,3.34,0a4.168,4.168,0,0,1,3.328,1.521c2.019,2.335,4.062,4.648,6.1,6.97.148.169.3.331.482.528a5.559,5.559,0,0,1,2.9-2.259c.368-.113.255-.453.256-.714q.009-3.8,0-7.591a1.607,1.607,0,0,1,1.571-1.074,2.516,2.516,0,0,0,2.314-2.625,2.621,2.621,0,0,0-2.461-2.52,2.566,2.566,0,0,0-2.672,2.281A1.662,1.662,0,0,1,608-14.185Zm-20.938,24.6c3.363,0,6.726-.006,10.089.005a1.8,1.8,0,0,0,1.481-.607q3.512-4.032,7.046-8.043c.311-.351.267-.563-.016-.883q-3.489-3.952-6.948-7.928a1.952,1.952,0,0,0-1.59-.712q-10.013.013-20.026.008c-1.294,0-1.729.448-1.729,1.738q0,7.32,0,14.64c0,1.354.42,1.781,1.756,1.782Q582.093,10.419,587.061,10.417ZM636.245-6.429q5.01,0,10.019,0c1.2,0,1.663-.46,1.664-1.645q.005-7.4,0-14.8c0-1.252-.424-1.674-1.693-1.674-6.68,0-13.359.006-20.039-.012a2.063,2.063,0,0,0-1.7.781q-3.348,3.877-6.755,7.7c-.427.477-.357.739.031,1.176q3.4,3.83,6.743,7.712a2.067,2.067,0,0,0,1.714.772C629.565-6.442,632.9-6.429,636.245-6.429Zm-.061-51.793c-3.338,0-6.677.015-10.014-.012a1.969,1.969,0,0,0-1.643.733q-3.377,3.9-6.8,7.755c-.332.377-.41.642-.022,1.079,2.316,2.607,4.6,5.243,6.883,7.879a1.853,1.853,0,0,0,1.524.672q10.09-.022,20.181-.011c1.145,0,1.632-.473,1.633-1.6q.007-7.435,0-14.87c0-1.206-.432-1.626-1.655-1.627Q641.229-58.226,636.183-58.223ZM587.106-41.385q-5.084,0-10.168,0c-1.119,0-1.567.448-1.568,1.563q-.008,7.474,0,14.948c0,1.1.481,1.592,1.561,1.592q10.13.007,20.26.009a1.87,1.87,0,0,0,1.523-.685q3.428-3.955,6.887-7.882c.34-.384.353-.629.016-1.009q-3.443-3.892-6.849-7.816a1.976,1.976,0,0,0-1.646-.734C593.784-41.372,590.445-41.385,587.106-41.385ZM614.229,1.322a2.581,2.581,0,0,0-5.161-.006,2.581,2.581,0,1,0,5.161.006ZM611.62-29.784a2.536,2.536,0,0,0,2.609-2.572,2.624,2.624,0,0,0-2.551-2.589,2.628,2.628,0,0,0-2.61,2.531A2.536,2.536,0,0,0,611.62-29.784Zm0-16.849a2.523,2.523,0,0,0,2.61-2.565,2.628,2.628,0,0,0-2.551-2.591,2.628,2.628,0,0,0-2.609,2.608A2.522,2.522,0,0,0,611.618-46.633Z" transform="translate(0)" fill="#111"/>
      <path id="Trazado_631265" data-name="Trazado 631265" d="M688.556,86.53a1.662,1.662,0,0,0,1.1-1.632,2.566,2.566,0,0,1,2.672-2.281,2.621,2.621,0,0,1,2.461,2.52,2.516,2.516,0,0,1-2.314,2.625,1.607,1.607,0,0,0-1.571,1.074A3.611,3.611,0,0,1,688.556,86.53Z" transform="translate(-80.557 -100.715)" fill="#7acecd"/>
      <path id="Trazado_631266" data-name="Trazado 631266" d="M592.986,134.8q-4.968,0-9.937,0c-1.336,0-1.755-.427-1.756-1.782q0-7.32,0-14.64c0-1.29.435-1.737,1.73-1.738q10.013-.008,20.026-.008a1.952,1.952,0,0,1,1.59.712q3.455,3.981,6.948,7.928c.282.32.326.532.016.883q-3.543,4-7.046,8.043a1.8,1.8,0,0,1-1.481.607C599.712,134.8,596.349,134.8,592.986,134.8Zm3.807-10.354c1.669,0,3.338.012,5.006,0a1.337,1.337,0,0,0,1.5-1.183c.078-.824-.491-1.406-1.478-1.428-1.314-.029-2.629-.009-3.944-.01q-2.921,0-5.841,0c-.734,0-1.378.165-1.616.963-.263.884.379,1.641,1.438,1.657C593.506,124.469,595.15,124.451,596.793,124.451Zm-6.375,2.589c-1.694,0-3.387,0-5.081,0a1.315,1.315,0,0,0-1.235.588,1.206,1.206,0,0,0-.059,1.294,1.391,1.391,0,0,0,1.332.71c3.311,0,6.623.007,9.935,0,.963,0,1.513-.511,1.505-1.325s-.539-1.256-1.544-1.26C593.654,127.034,592.036,127.039,590.418,127.04Zm-4.619-2.59c.176,0,.352.008.528,0a1.365,1.365,0,0,0,1.454-1.318,1.346,1.346,0,0,0-1.392-1.3c-.2-.016-.4-.008-.6-.008-1.263,0-1.91.451-1.9,1.318S584.53,124.45,585.8,124.45Z" transform="translate(-5.925 -124.388)" fill="#f1c276"/>
      <path id="Trazado_631267" data-name="Trazado 631267" d="M738.407,79.508c-3.34,0-6.68-.012-10.019.01a2.067,2.067,0,0,1-1.714-.772q-3.346-3.878-6.743-7.712c-.388-.437-.458-.7-.031-1.176q3.415-3.817,6.755-7.7a2.063,2.063,0,0,1,1.7-.781c6.679.019,13.359.009,20.039.012,1.269,0,1.692.422,1.693,1.674q0,7.4,0,14.8c0,1.186-.466,1.644-1.664,1.645Q743.417,79.512,738.407,79.508Zm2.677-12.942c-1.668,0-3.337-.007-5.006,0-.994.006-1.52.468-1.509,1.292s.558,1.292,1.537,1.294q4.93.013,9.86,0a1.361,1.361,0,0,0,1.533-1.321c-.012-.79-.577-1.259-1.561-1.264C744.32,66.56,742.7,66.566,741.084,66.566Zm-6.546,7.768c1.694,0,3.387.016,5.081-.007a1.293,1.293,0,0,0,1.38-1.3,1.214,1.214,0,0,0-1.3-1.272c-3.438-.015-6.875-.006-10.313-.007a1.231,1.231,0,0,0-1.136.625,1.314,1.314,0,0,0,1.285,1.955C731.2,74.351,732.87,74.335,734.538,74.334Zm-4.515-7.762c-.227,0-.455-.013-.681,0a1.245,1.245,0,0,0-1.263,1.156,1.268,1.268,0,0,0,1.114,1.386,4.619,4.619,0,0,0,1.73-.021,1.225,1.225,0,0,0,.99-1.4,1.212,1.212,0,0,0-1.209-1.12C730.478,66.56,730.25,66.574,730.023,66.572Z" transform="translate(-102.162 -85.937)" fill="#79d1d0"/>
      <path id="Trazado_631268" data-name="Trazado 631268" d="M738.346-49.295q5.045,0,10.09,0c1.223,0,1.654.421,1.655,1.627q.005,7.435,0,14.87c0,1.124-.489,1.6-1.633,1.6q-10.09,0-20.181.011a1.853,1.853,0,0,1-1.524-.672c-2.283-2.636-4.567-5.272-6.883-7.879-.388-.437-.311-.7.022-1.079q3.412-3.866,6.8-7.755a1.969,1.969,0,0,1,1.643-.733C731.67-49.28,735.008-49.295,738.346-49.295Zm-3.813,10.343c-1.643,0-3.287-.005-4.93,0-.992,0-1.523.461-1.523,1.284,0,.8.569,1.3,1.533,1.3q4.931.01,9.861,0c.962,0,1.527-.5,1.522-1.308,0-.821-.535-1.27-1.533-1.274C737.821-38.957,736.177-38.952,734.534-38.952Zm6.449-5.172c-1.643,0-3.287,0-4.93,0-.966,0-1.46.429-1.471,1.238-.011.836.517,1.34,1.479,1.343q4.968.016,9.936,0a1.375,1.375,0,0,0,1.506-1.273c.018-.791-.565-1.3-1.514-1.309C744.32-44.129,742.651-44.124,740.983-44.124Zm-10.944,0c-.177,0-.353,0-.53,0-.921.023-1.437.492-1.429,1.3a1.327,1.327,0,0,0,1.4,1.287,7.736,7.736,0,0,0,1.285-.018,1.24,1.24,0,0,0,1.144-1.426,1.19,1.19,0,0,0-1.261-1.135C730.442-44.129,730.24-44.121,730.038-44.124Z" transform="translate(-102.163 -8.928)" fill="#487dcc"/>
      <path id="Trazado_631269" data-name="Trazado 631269" d="M593.029,6.053c3.339,0,6.678.013,10.016-.012a1.976,1.976,0,0,1,1.646.734q3.4,3.929,6.849,7.816c.336.38.324.625-.016,1.009q-3.468,3.919-6.887,7.882a1.87,1.87,0,0,1-1.523.685q-10.13-.016-20.26-.009c-1.08,0-1.56-.493-1.561-1.592q-.006-7.474,0-14.948c0-1.115.45-1.561,1.568-1.563Q587.945,6.046,593.029,6.053ZM590.3,18.991c1.643,0,3.286.005,4.929,0,1.041,0,1.581-.468,1.574-1.323-.006-.822-.528-1.26-1.539-1.261q-4.929-.007-9.858,0c-.943,0-1.541.522-1.529,1.3.012.757.636,1.277,1.57,1.281C587.068,19,588.686,18.991,590.3,18.991Zm6.621-7.764c-1.668,0-3.337-.005-5,0-1,0-1.532.453-1.536,1.27,0,.792.577,1.313,1.522,1.315q4.929.013,9.858,0c.946,0,1.531-.515,1.54-1.3.009-.81-.534-1.276-1.527-1.281C600.16,11.221,598.542,11.227,596.924,11.227Zm-11.069,0c-.176,0-.352,0-.528,0-.9.025-1.46.521-1.447,1.285a1.365,1.365,0,0,0,1.466,1.3,9.483,9.483,0,0,0,1.131-.009,1.35,1.35,0,0,0,1.305-1.388,1.305,1.305,0,0,0-1.4-1.191C586.208,11.222,586.032,11.228,585.856,11.227Z" transform="translate(-5.923 -47.438)" fill="#e57380"/>
      <path id="Trazado_631270" data-name="Trazado 631270" d="M697.229,140.572a2.581,2.581,0,1,1-5.161-.006,2.581,2.581,0,0,1,5.161.006Z" transform="translate(-83 -139.25)" fill="#f1c276"/>
      <path id="Trazado_631271" data-name="Trazado 631271" d="M694.62,32.408a2.536,2.536,0,0,1-2.552-2.63,2.581,2.581,0,0,1,5.161.058A2.536,2.536,0,0,1,694.62,32.408Z" transform="translate(-83 -62.192)" fill="#e47380"/>
      <path id="Trazado_631272" data-name="Trazado 631272" d="M694.619-22.964a2.522,2.522,0,0,1-2.549-2.548,2.628,2.628,0,0,1,2.609-2.608,2.628,2.628,0,0,1,2.551,2.591A2.523,2.523,0,0,1,694.619-22.964Z" transform="translate(-83.002 -23.669)" fill="#487dcc"/>
      <path id="Trazado_631273" data-name="Trazado 631273" d="M617.546,136.3c-1.643,0-3.287.018-4.93-.007-1.059-.016-1.7-.772-1.438-1.657.238-.8.882-.964,1.616-.963q2.92,0,5.841,0c1.315,0,2.63-.02,3.944.01.987.022,1.556.6,1.478,1.428a1.338,1.338,0,0,1-1.5,1.183C620.883,136.314,619.215,136.3,617.546,136.3Z" transform="translate(-26.678 -136.239)" fill="#111"/>
      <path id="Trazado_631274" data-name="Trazado 631274" d="M596.345,150.825c1.618,0,3.236-.006,4.854,0,1,0,1.536.447,1.544,1.26s-.542,1.322-1.505,1.325c-3.311.01-6.623,0-9.935,0a1.391,1.391,0,0,1-1.332-.71,1.207,1.207,0,0,1,.059-1.294,1.315,1.315,0,0,1,1.235-.588C592.957,150.831,594.651,150.826,596.345,150.825Z" transform="translate(-11.851 -148.174)" fill="#111"/>
      <path id="Trazado_631275" data-name="Trazado 631275" d="M591.728,136.313q-1.9,0-1.915-1.307c-.008-.867.639-1.316,1.9-1.318.2,0,.4-.008.6.008a1.346,1.346,0,0,1,1.392,1.3,1.365,1.365,0,0,1-1.455,1.318C592.08,136.32,591.9,136.312,591.728,136.313Z" transform="translate(-11.853 -136.25)" fill="#111"/>
      <path id="Trazado_631276" data-name="Trazado 631276" d="M775.3,78.435c1.618,0,3.236-.006,4.854,0,.983,0,1.549.474,1.561,1.264a1.361,1.361,0,0,1-1.533,1.321q-4.929.017-9.86,0c-.979,0-1.526-.484-1.537-1.294s.515-1.287,1.509-1.292C771.962,78.428,773.63,78.435,775.3,78.435Z" transform="translate(-136.377 -97.806)" fill="#111"/>
      <path id="Trazado_631277" data-name="Trazado 631277" d="M753.868,98.059c-1.668,0-3.337.016-5-.005a1.314,1.314,0,0,1-1.285-1.955,1.231,1.231,0,0,1,1.136-.625c3.438,0,6.875-.008,10.313.007a1.214,1.214,0,0,1,1.3,1.272,1.293,1.293,0,0,1-1.38,1.3C757.255,98.074,755.561,98.059,753.868,98.059Z" transform="translate(-121.492 -109.661)" fill="#111"/>
      <path id="Trazado_631278" data-name="Trazado 631278" d="M749.385,78.45c.227,0,.455-.013.681,0a1.212,1.212,0,0,1,1.209,1.12,1.225,1.225,0,0,1-.99,1.4,4.619,4.619,0,0,1-1.73.021,1.268,1.268,0,0,1-1.114-1.386,1.245,1.245,0,0,1,1.263-1.156C748.93,78.436,749.158,78.449,749.385,78.45Z" transform="translate(-121.524 -97.814)" fill="#111"/>
      <path id="Trazado_631279" data-name="Trazado 631279" d="M753.906-15.273c1.644,0,3.287,0,4.931,0,1,0,1.528.453,1.533,1.274,0,.8-.561,1.306-1.522,1.308q-4.931.011-9.861,0c-.964,0-1.534-.5-1.533-1.3,0-.823.531-1.28,1.523-1.284C750.619-15.278,752.262-15.273,753.906-15.273Z" transform="translate(-121.535 -32.607)" fill="#111"/>
      <path id="Trazado_631280" data-name="Trazado 631280" d="M775.225-32.273c1.668,0,3.337,0,5.006,0,.949,0,1.532.518,1.514,1.309a1.375,1.375,0,0,1-1.506,1.273q-4.968.012-9.936,0c-.961,0-1.489-.507-1.479-1.343.01-.809.5-1.234,1.471-1.238C771.938-32.278,773.582-32.273,775.225-32.273Z" transform="translate(-136.406 -20.779)" fill="#111"/>
      <path id="Trazado_631281" data-name="Trazado 631281" d="M749.408-32.27c.2,0,.4-.007.605,0a1.19,1.19,0,0,1,1.261,1.135,1.24,1.24,0,0,1-1.144,1.426,7.736,7.736,0,0,1-1.285.018,1.327,1.327,0,0,1-1.4-1.287c-.008-.8.509-1.273,1.429-1.3C749.055-32.275,749.231-32.271,749.408-32.27Z" transform="translate(-121.533 -20.78)" fill="#111"/>
      <path id="Trazado_631282" data-name="Trazado 631282" d="M596.231,42.685c-1.618,0-3.235.005-4.853,0-.934,0-1.559-.524-1.57-1.281-.012-.779.586-1.3,1.529-1.3q4.929-.008,9.858,0c1.011,0,1.533.439,1.539,1.261.007.855-.533,1.318-1.574,1.323C599.517,42.69,597.874,42.685,596.231,42.685Z" transform="translate(-11.85 -71.132)" fill="#111"/>
      <path id="Trazado_631283" data-name="Trazado 631283" d="M617.726,23.081c1.618,0,3.235-.006,4.853,0,.993.005,1.536.471,1.527,1.281-.009.789-.594,1.3-1.54,1.3q-4.929.012-9.858,0c-.946,0-1.526-.524-1.522-1.315,0-.818.534-1.266,1.536-1.27C614.389,23.076,616.057,23.081,617.726,23.081Z" transform="translate(-26.724 -59.293)" fill="#111"/>
      <path id="Trazado_631284" data-name="Trazado 631284" d="M591.782,23.083c.176,0,.353-.005.528,0a1.305,1.305,0,0,1,1.4,1.191,1.35,1.35,0,0,1-1.305,1.388,9.481,9.481,0,0,1-1.131.009,1.365,1.365,0,0,1-1.466-1.3c-.013-.764.545-1.26,1.448-1.285C591.43,23.079,591.606,23.083,591.782,23.083Z" transform="translate(-11.849 -59.294)" fill="#111"/>
    </g>
  </g>
</svg>
