<svg xmlns="http://www.w3.org/2000/svg" width="63.884" height="63.851" viewBox="0 0 63.884 63.851">
  <g id="Grupo_980818" data-name="Grupo 980818" transform="translate(-247.958 -171.348)">
    <path id="Trazado_640944" data-name="Trazado 640944" d="M276.709,179.851c-4.388,0-8.777.013-13.164-.014-.579,0-.812.141-.951.724a7.351,7.351,0,0,1-6.95,5.669,7.439,7.439,0,1,1,5.886-11.637,6.961,6.961,0,0,1,1.137,2.67c.066.365.219.462.576.462q13.476-.014,26.952.006c.5,0,.506-.279.582-.606a7.436,7.436,0,1,1,6.795,9.081,7.052,7.052,0,0,1-3.769-1.3.68.68,0,0,0-.924,0q-8.155,5.46-16.334,10.884a.569.569,0,0,0-.271.794,7.427,7.427,0,0,1-10.106,9.192c-.415-.193-.57-.162-.76.286q-2.57,6.071-5.2,12.12a.648.648,0,0,0,.189.892,7,7,0,0,1,2.42,5.019c.022.454.18.6.62.633q10.251.875,20.5,1.779,5.994.528,11.985,1.076c.187.017.378,0,.56.037.4.077.48-.11.509-.471a7.441,7.441,0,1,1,2.523,6.216,6.893,6.893,0,0,1-2.057-2.991.787.787,0,0,0-.794-.608c-3.024-.251-6.046-.521-9.069-.787q-6.056-.533-12.111-1.071-5.248-.464-10.5-.924c-.642-.056-1.29-.072-1.925-.17a.574.574,0,0,0-.733.437,7.272,7.272,0,0,1-5.346,4.587,7.443,7.443,0,1,1-1.075-14.7,6.1,6.1,0,0,1,1.824.37c.276.1.427.109.564-.212q2.715-6.383,5.464-12.752c.136-.316.009-.483-.173-.7a7.411,7.411,0,0,1,4.061-12.072,7.113,7.113,0,0,1,6.949,2.1c.306.3.476.372.86.114q7.97-5.344,15.969-10.643c.345-.229.434-.386.186-.759a5.368,5.368,0,0,1-.856-2.185c-.068-.442-.262-.549-.7-.547C285.609,179.858,281.159,179.851,276.709,179.851Zm-15.986,44.683a5.318,5.318,0,1,0-5.283,5.338A5.335,5.335,0,0,0,260.723,224.534Zm8.552-20.215a5.311,5.311,0,1,0-5.342-5.277A5.295,5.295,0,0,0,269.275,204.319Zm-8.552-25.52A5.318,5.318,0,1,0,255.4,184.1,5.356,5.356,0,0,0,260.723,178.8Zm43.647,43.657a5.313,5.313,0,0,0,.046,10.626,5.313,5.313,0,1,0-.046-10.626ZM297.991,184.1a5.316,5.316,0,1,0-5.308-5.321A5.3,5.3,0,0,0,297.991,184.1Z"/>
    <path id="Trazado_640945" data-name="Trazado 640945" d="M281.527,211.076a7.44,7.44,0,1,1-7.466,7.433A7.468,7.468,0,0,1,281.527,211.076Zm.078,2.131a5.308,5.308,0,1,0,5.238,5.329A5.309,5.309,0,0,0,281.605,213.207Z" transform="translate(-1.619 -2.464)"/>
    <path id="Trazado_640946" data-name="Trazado 640946" d="M298.684,207.805A7.453,7.453,0,1,1,306,200.156,7.485,7.485,0,0,1,298.684,207.805Zm-.124-12.8a5.3,5.3,0,0,0-5.343,5.338,5.331,5.331,0,1,0,10.662-.039A5.3,5.3,0,0,0,298.56,195.009Z" transform="translate(-2.675 -1.337)"/>
    <path id="Trazado_640947" data-name="Trazado 640947" d="M260.864,227.7a5.318,5.318,0,1,1-5.341-5.289A5.318,5.318,0,0,1,260.864,227.7Z" transform="translate(-0.141 -3.167)" fill="#b2d1d5"/>
    <path id="Trazado_640948" data-name="Trazado 640948" d="M270.332,205.8a5.311,5.311,0,1,1,5.286-5.325A5.316,5.316,0,0,1,270.332,205.8Z" transform="translate(-1.056 -1.478)" fill="#e08b52"/>
    <path id="Trazado_640949" data-name="Trazado 640949" d="M260.864,178.94a5.318,5.318,0,1,1-5.305-5.328A5.326,5.326,0,0,1,260.864,178.94Z" transform="translate(-0.141 -0.14)" fill="#b2d1d5"/>
    <path id="Trazado_640950" data-name="Trazado 640950" d="M307.751,225.836a5.313,5.313,0,1,1-5.283,5.327A5.348,5.348,0,0,1,307.751,225.836Z" transform="translate(-3.381 -3.379)" fill="#e08b52"/>
    <path id="Trazado_640951" data-name="Trazado 640951" d="M300.948,184.244a5.316,5.316,0,1,1,.023-10.632,5.316,5.316,0,1,1-.023,10.632Z" transform="translate(-2.957 -0.14)" fill="#b2d1d5"/>
    <path id="Trazado_640952" data-name="Trazado 640952" d="M281.747,213.348a5.308,5.308,0,1,1-5.4,5.285A5.3,5.3,0,0,1,281.747,213.348Z" transform="translate(-1.76 -2.605)" fill="#b2d1d5"/>
    <path id="Trazado_640953" data-name="Trazado 640953" d="M298.7,195.148a5.3,5.3,0,0,1,5.319,5.3,5.331,5.331,0,1,1-10.662.039A5.3,5.3,0,0,1,298.7,195.148Z" transform="translate(-2.816 -1.476)" fill="#6c8691"/>
  </g>
</svg>
