<svg xmlns="http://www.w3.org/2000/svg" width="64.391" height="65.921" viewBox="0 0 64.391 65.921">
  <g id="Grupo_956510" data-name="Grupo 956510" transform="translate(-1025.775 -310.625)">
    <path id="Trazado_631354" data-name="Trazado 631354" d="M1087.073,392.442c.8.214.941.416.942,1.349,0,6.694.013,13.387-.018,20.081,0,.671.185.865.806.77a1.526,1.526,0,0,1,.639.028.961.961,0,0,1-.078,1.879,3.086,3.086,0,0,1-.642.019h-61.53a3.244,3.244,0,0,1-.578-.013.962.962,0,0,1,.028-1.911,1.494,1.494,0,0,1,.193-.008c1.087-.04,1.087-.04,1.087-1.108q0-7.595,0-15.189c0-1.688.589-2.274,2.277-2.274,1.888,0,3.776,0,5.664,0a1.789,1.789,0,0,1,2.046,2.046q.006,7.949-.009,15.9c0,.49.1.686.624.637.614-.057,1.451.2,1.8-.112.4-.362.12-1.209.121-1.844q.013-10.362.006-20.725c0-1.55.63-2.18,2.178-2.182q2.8,0,5.6,0c1.591,0,2.226.628,2.226,2.212q0,10.974-.011,21.948c0,.534.081.779.68.7a9.016,9.016,0,0,1,1.479-.006c.281.012.395-.076.36-.36a3.871,3.871,0,0,1,0-.45q0-17.185,0-34.37c0-1.664.621-2.284,2.286-2.285h5.471c1.629,0,2.263.628,2.263,2.244q0,17.249-.013,34.5c0,.568.113.8.717.728.57-.064,1.344.184,1.677-.107.383-.335.118-1.123.119-1.712.008-8.989.026-17.979-.009-26.968-.008-2.175,1.255-2.506,2.875-2.341a.955.955,0,0,1,.87.963c-.091.583-.4.992-1.017.93-.684-.069-.8.2-.8.827q.029,13.807.013,27.615c0,.129.011.259,0,.386-.03.313.115.406.415.4,1.223-.018,2.445-.017,3.668-.023.514.006,1.03-.013,1.541.026.425.033.534-.115.534-.534q-.017-14.076,0-28.152c0-.422-.117-.584-.539-.531a1.075,1.075,0,0,1-1.233-.7l-.052-.232c.3-.945.661-1.121,2.036-.994a1.79,1.79,0,0,1,1.7,1.56,7.185,7.185,0,0,1,.016.771q0,14.06-.014,28.12c0,.564.124.753.7.692.591-.064,1.378.182,1.737-.118.378-.315.114-1.126.114-1.718q.01-22.94-.015-45.88c0-1.807.972-2.4,2.373-2.358,1.843.057,3.689.009,5.533.016a1.832,1.832,0,0,1,2.1,2.082q.007,10.971.01,21.942a1.141,1.141,0,0,1-.954,1.3c-.84-.271-.99-.476-.99-1.4q0-7.139,0-14.279c0-2.38-.01-4.76.009-7.139,0-.436-.1-.624-.568-.584-.51.044-1.026.029-1.54.04-1.05-.011-2.1-.032-3.149-.031-.986,0-.868-.127-.868.837q0,23.224,0,46.447a3.564,3.564,0,0,1,0,.386c-.035.316.059.459.416.451,1.2-.027,2.4-.021,3.6-.028.407.007.814.019,1.221.02.882,0,.882,0,.882-.876q0-9.97,0-19.94C1086.08,392.871,1086.257,392.633,1087.073,392.442ZM1033.9,414.614c.557.007,1.114-.005,1.669.027.361.021.418-.139.417-.452q-.011-7.87,0-15.74c0-.312-.059-.477-.419-.456-.554.032-1.111.026-1.667.035-.814-.01-1.628-.025-2.442-.027-1.59,0-1.59,0-1.59,1.6,0,4.8.008,9.606-.011,14.409,0,.5.128.657.637.637C1031.623,414.6,1032.76,414.621,1033.9,414.614Zm12.488,0c.493.007.989-.019,1.478.03.529.053.678-.115.677-.66-.02-6.756-.009-13.512-.019-20.268,0-.655.3-1.58-.135-1.9s-1.316-.08-2-.084c-1.115-.007-2.231.015-3.344-.034-.533-.024-.672.12-.671.661.021,6.2.013,12.4.013,18.6,0,1.072.016,2.145-.009,3.217-.008.373.112.471.472.463C1044.025,414.615,1045.2,414.622,1046.384,414.615Zm12.493-35.483c-1.092-.008-2.187.022-3.276-.038-.609-.034-.723.174-.722.741q.025,17.038.012,34.076a2.709,2.709,0,0,1,0,.321c-.036.3.071.415.388.409,1.2-.022,2.4-.021,3.6-.028a13.693,13.693,0,0,1,1.413.032c.607.073.776-.11.775-.748q-.034-17.024-.016-34.047a2.294,2.294,0,0,1,0-.321c.051-.35-.11-.442-.438-.426C1060.035,379.131,1059.456,379.124,1058.877,379.132Z" transform="translate(0 -40.029)" fill="#030303"/>
    <path id="Trazado_631355" data-name="Trazado 631355" d="M1075.73,333.156c.238-.539-.159-.756-.647-.99-1.5-.722-2.992-1.475-4.477-2.235a.606.606,0,0,0-.82.092,3.745,3.745,0,0,1-4.235.693.613.613,0,0,0-.818.162q-3.166,3.2-6.363,6.378a.6.6,0,0,0-.166.807,3.931,3.931,0,0,1-6.261,4.492.568.568,0,0,0-.77-.1c-1.522.78-3.046,1.557-4.59,2.293a.887.887,0,0,0-.575,1.015,3.917,3.917,0,0,1-3.456,4.1,3.975,3.975,0,0,1-4.315-3.051,3.939,3.939,0,0,1,6.41-3.867.75.75,0,0,0,1.033.122c1.513-.8,3.048-1.554,4.583-2.308a.6.6,0,0,0,.424-.71,3.927,3.927,0,0,1,5.554-3.973.525.525,0,0,0,.706-.115q3.211-3.25,6.456-6.467a.57.57,0,0,0,.143-.764,3.757,3.757,0,0,1,.751-4.339,3.692,3.692,0,0,1,4.126-1,3.478,3.478,0,0,1,2.6,3.457c-.039,1.149.53,1.419,1.3,1.787,1.331.636,2.646,1.307,3.96,1.979a.484.484,0,0,0,.663-.074,3.76,3.76,0,0,1,3.677-.975c.333.085.452-.03.6-.261q3.893-5.86,7.8-11.708c.22-.328.117-.5-.063-.765a3.847,3.847,0,0,1-.085-4.406,3.8,3.8,0,0,1,3.87-1.764,3.884,3.884,0,0,1,3.285,3.028,3.942,3.942,0,0,1-4.663,4.731.638.638,0,0,0-.817.332q-3.811,5.76-7.655,11.5a.667.667,0,0,0,.016.924,3.879,3.879,0,0,1-.2,4.718,3.938,3.938,0,0,1-6.98-2.743Zm-20.29,4.707a1.934,1.934,0,0,0-2.4.552,2,2,0,0,0,2.386,3.069,1.846,1.846,0,0,0,1.185-1.807A1.825,1.825,0,0,0,1055.44,337.863Zm25.232-2.767a1.991,1.991,0,1,0-2.617-2.9,2,2,0,0,0,.073,2.493A1.963,1.963,0,0,0,1080.672,335.1Zm-37.732,12.619a1.779,1.779,0,0,0,1.145-1.677,1.8,1.8,0,0,0-1.024-1.818,1.944,1.944,0,0,0-2.491.395,2,2,0,0,0-.079,2.544A1.911,1.911,0,0,0,1042.94,347.716Zm50.083-34.927a1.915,1.915,0,0,0-2.438.573,1.987,1.987,0,0,0,.087,2.533,1.935,1.935,0,0,0,2.481.4,1.953,1.953,0,0,0-.129-3.506Zm-24.878,16.048a2,2,0,1,0-2.523-3.044,1.991,1.991,0,0,0-.055,2.584A1.958,1.958,0,0,0,1068.145,328.836Z" transform="translate(-9.166)" fill="#030303"/>
    <path id="Trazado_631356" data-name="Trazado 631356" d="M1191.2,471.885c-1.223.006-2.445.005-3.668.023-.3,0-.444-.088-.415-.4.012-.128,0-.257,0-.386q0-13.808-.013-27.615c0-.627.119-.9.8-.827.619.062.926-.347,1.017-.93l2.525.017.052.232c-.32.142-.31.424-.309.709Q1191.2,457.3,1191.2,471.885Z" transform="translate(-119.711 -97.297)" fill="#52b36c"/>
    <path id="Trazado_631357" data-name="Trazado 631357" d="M1251.383,372.121c.513-.011,1.029,0,1.54-.04.466-.04.572.148.568.584-.019,2.38-.009,4.759-.009,7.139q0,7.139,0,14.279c0,.926.15,1.131.99,1.4q0,1.263,0,2.526c-.816.192-.993.429-.993,1.376q0,9.97,0,19.94c0,.877,0,.879-.882.876-.407,0-.814-.013-1.221-.02Q1251.381,396.152,1251.383,372.121Z" transform="translate(-167.403 -45.598)" fill="#4ea6f6"/>
    <path id="Trazado_631358" data-name="Trazado 631358" d="M1239.809,372.148q0,24.031,0,48.062c-1.2.007-2.4,0-3.6.028-.358.008-.451-.135-.416-.451a3.564,3.564,0,0,0,0-.386q0-23.224,0-46.447c0-.964-.118-.836.868-.837C1237.709,372.117,1238.759,372.137,1239.809,372.148Z" transform="translate(-155.828 -45.625)" fill="#3d92f1"/>
    <path id="Trazado_631359" data-name="Trazado 631359" d="M1142.586,456.375c-1.2.007-2.4.005-3.6.028-.318.006-.424-.11-.388-.409a2.71,2.71,0,0,0,0-.321q0-17.038-.012-34.076c0-.568.113-.776.722-.741,1.089.061,2.184.031,3.276.038Q1142.586,438.634,1142.586,456.375Z" transform="translate(-83.709 -81.79)" fill="#f6d147"/>
    <path id="Trazado_631360" data-name="Trazado 631360" d="M1094.112,492.65c-1.179.007-2.359,0-3.538.028-.36.008-.48-.09-.472-.463.024-1.072.009-2.145.009-3.217,0-6.2.007-12.4-.013-18.6,0-.542.138-.685.671-.661,1.113.049,2.229.027,3.344.034Z" transform="translate(-47.728 -118.064)" fill="#f09b4e"/>
    <path id="Trazado_631361" data-name="Trazado 631361" d="M1154.084,456.405q0-17.741,0-35.482c.578-.008,1.158,0,1.736-.03.328-.016.488.076.438.426a2.3,2.3,0,0,0,0,.321q0,17.024.017,34.047c0,.638-.168.821-.775.748A13.71,13.71,0,0,0,1154.084,456.405Z" transform="translate(-95.208 -81.821)" fill="#f7e16e"/>
    <path id="Trazado_631362" data-name="Trazado 631362" d="M1045.621,510.77c-1.136.007-2.273-.012-3.407.032-.509.02-.639-.133-.637-.637.019-4.8.011-9.606.011-14.409,0-1.6,0-1.6,1.59-1.6.814,0,1.628.018,2.442.027Q1045.62,502.477,1045.621,510.77Z" transform="translate(-11.724 -136.184)" fill="#eb565c"/>
    <path id="Trazado_631363" data-name="Trazado 631363" d="M1202.957,472.6q0-14.589-.007-29.178c0-.285-.01-.567.309-.709a1.075,1.075,0,0,0,1.233.7c.422-.053.539.109.539.531q-.017,14.076,0,28.152c0,.418-.109.566-.533.534C1203.987,472.587,1203.471,472.607,1202.957,472.6Z" transform="translate(-131.467 -98.013)" fill="#6cc692"/>
    <path id="Trazado_631364" data-name="Trazado 631364" d="M1105.659,492.507V469.63c.684,0,1.553-.244,2,.084s.134,1.241.135,1.9c.01,6.756,0,13.512.019,20.268,0,.545-.148.713-.677.66C1106.648,492.489,1106.152,492.515,1105.659,492.507Z" transform="translate(-59.275 -117.921)" fill="#eca667"/>
    <path id="Trazado_631365" data-name="Trazado 631365" d="M1057.25,510.743q0-8.293,0-16.585c.556-.01,1.113,0,1.667-.035.36-.021.42.143.42.456q-.01,7.87,0,15.74c0,.312-.056.473-.417.452C1058.364,510.738,1057.807,510.75,1057.25,510.743Z" transform="translate(-23.354 -136.158)" fill="#ec6f73"/>
    <path id="Trazado_631366" data-name="Trazado 631366" d="M1145.774,370.485a1.958,1.958,0,0,1-2.578-.459,1.991,1.991,0,0,1,.055-2.584,1.964,1.964,0,0,1,2.538-.37A2.406,2.406,0,0,0,1145.774,370.485Z" transform="translate(-86.795 -41.649)" fill="#f3cf47"/>
    <path id="Trazado_631367" data-name="Trazado 631367" d="M1242.839,321.9a1.935,1.935,0,0,1-2.481-.4,1.987,1.987,0,0,1-.087-2.533,1.915,1.915,0,0,1,2.438-.573c-.113.228-.23.453-.336.684A2.666,2.666,0,0,0,1242.839,321.9Z" transform="translate(-158.853 -5.609)" fill="#3d92f1"/>
    <path id="Trazado_631368" data-name="Trazado 631368" d="M1048.531,443.535a1.911,1.911,0,0,1-2.448-.556,2,2,0,0,1,.078-2.544,1.944,1.944,0,0,1,2.491-.395.93.93,0,0,0-.47.58A3.173,3.173,0,0,0,1048.531,443.535Z" transform="translate(-14.757 -95.819)" fill="#e7545a"/>
    <path id="Trazado_631369" data-name="Trazado 631369" d="M1194.356,394.841a1.963,1.963,0,0,1-2.544-.408,2,2,0,0,1-.073-2.493,1.958,1.958,0,0,1,2.569-.542c-.8.628-.807,2.5-.215,3.293C1194.148,394.765,1194.266,394.792,1194.356,394.841Z" transform="translate(-122.85 -59.745)" fill="#52b36c"/>
    <path id="Trazado_631370" data-name="Trazado 631370" d="M1097.019,419.258a2,2,0,0,1-2.386-3.069,1.934,1.934,0,0,1,2.4-.552c-.135.308-.288.61-.4.926A3.451,3.451,0,0,0,1097.019,419.258Z" transform="translate(-50.76 -77.774)" fill="#ed9a4d"/>
    <path id="Trazado_631371" data-name="Trazado 631371" d="M1103.655,419.829a3.451,3.451,0,0,1-.385-2.695c.112-.316.266-.618.4-.926a1.825,1.825,0,0,1,1.169,1.814A1.846,1.846,0,0,1,1103.655,419.829Z" transform="translate(-57.397 -78.345)" fill="#eca667"/>
    <path id="Trazado_631372" data-name="Trazado 631372" d="M1249.495,322.517a2.666,2.666,0,0,1-.465-2.822c.106-.231.223-.456.336-.684a1.953,1.953,0,0,1,.129,3.506Z" transform="translate(-165.509 -6.223)" fill="#4ea6f6"/>
    <path id="Trazado_631373" data-name="Trazado 631373" d="M1055.2,444.347a3.173,3.173,0,0,1-.349-2.915.93.93,0,0,1,.47-.58,1.8,1.8,0,0,1,1.024,1.818A1.779,1.779,0,0,1,1055.2,444.347Z" transform="translate(-21.429 -96.631)" fill="#ec6f73"/>
    <path id="Trazado_631374" data-name="Trazado 631374" d="M1152.46,371.4a2.406,2.406,0,0,1,.016-3.414A1.946,1.946,0,0,1,1152.46,371.4Z" transform="translate(-93.482 -42.562)" fill="#f7e16e"/>
    <path id="Trazado_631375" data-name="Trazado 631375" d="M1201.082,395.579c-.089-.049-.208-.077-.263-.151-.591-.8-.583-2.665.215-3.293A1.948,1.948,0,0,1,1201.082,395.579Z" transform="translate(-129.576 -60.482)" fill="#6cc692"/>
  </g>
</svg>
