<svg xmlns="http://www.w3.org/2000/svg" width="71.95" height="70.781" viewBox="0 0 71.95 70.781">
  <g id="Grupo_956508" data-name="Grupo 956508" transform="translate(-672.948 -625.074)">
    <path id="Trazado_631306" data-name="Trazado 631306" d="M692.917,665.241a1.176,1.176,0,0,1,.651-1.629,17.059,17.059,0,0,0,5.806-5.143c4.483-5.675,9.064-11.272,13.624-16.885a.7.7,0,0,0,.031-1.027,2.8,2.8,0,0,1-.594-2.749,4.511,4.511,0,0,1,4-2.327,2.7,2.7,0,0,1,1.815,1.417q4.645,7.555,9.315,15.095,4.621,7.487,9.237,14.978c1.1,1.786.81,2.986-.988,4.1a4.885,4.885,0,0,1-1.555.781,2.437,2.437,0,0,1-2.814-1.473,1.076,1.076,0,0,0-1.419-.622c-6.454,1.437-12.919,2.83-19.38,4.237-.159.035-.314.09-.531.153a3.676,3.676,0,0,1,.819,3.067c-.053.224.146.258.291.323a3.381,3.381,0,0,1,2.16,3.569c-.022.343.119.432.377.546a3.369,3.369,0,0,1,1.966,4.373.548.548,0,0,0,.25.742,3.356,3.356,0,0,1-.083,5.626c-1.138.776-2.332,1.471-3.519,2.172a3.089,3.089,0,0,1-1.587.5,1.739,1.739,0,0,0-.918.3c-1.179.714-2.376,1.4-3.549,2.123a6.045,6.045,0,0,1-4.574.795c-1.075-.224-2.152-.441-3.226-.668-.29-.061-.56-.115-.689.25a.111.111,0,0,1-.042.056c-1.638.989-2.324,2.775-3.474,4.172a3.088,3.088,0,0,1-2.548,1.218c-5.316-.012-10.633,0-15.949-.007a2.559,2.559,0,0,1-2.874-2.843c0-.913.01-1.827,0-2.74a2.608,2.608,0,0,1,1.03-2.2q4.985-3.94,9.973-7.876a1.161,1.161,0,0,1,1.093-.342,1.007,1.007,0,0,0,1.153-.357c.341-.319.709-.611,1.072-.906a1.207,1.207,0,0,1,1.084-.384,1.036,1.036,0,0,0,1.233-.537c.9-1.283,1.745-2.6,2.612-3.906.1-.151.275-.319.02-.462-.218-.122-.365-.462-.721-.225a8.094,8.094,0,0,1-1.1.62,2.737,2.737,0,0,1-3.54-.925c-.972-1.457-1.9-2.945-2.766-4.469a2.753,2.753,0,0,1,1.011-3.8,1.546,1.546,0,0,0,.93-1.672,3.147,3.147,0,0,1,1.438-2.882c.431-.318.908-.575,1.353-.876a1.182,1.182,0,0,1,1.692.154c.267.88.156,1.176-.635,1.675-.315.2-.642.378-.95.587a1.554,1.554,0,0,0-.535,2.291c.575.981,1.2,1.93,1.809,2.892.888,1.457,1.757,2.925,2.67,4.366.454.717.705.716,1.12,0a9.857,9.857,0,0,1,4.089-4.12,9.773,9.773,0,0,0,1.134-.7,5.535,5.535,0,0,1,3.3-1.124l-2.664-4.216c-.833-1.376-1.671-2.748-2.494-4.129-.19-.32-.372-.245-.622-.085-.687.439-1.385.863-2.083,1.286A1.188,1.188,0,0,1,692.917,665.241Zm14.4,11.653a5.7,5.7,0,0,1,.295.549c.207.5.446.432.81.126a1.329,1.329,0,0,0-.206-2.17.948.948,0,0,0-.585-.2,1.138,1.138,0,0,0-1.023.347c-.2.272.195.511.321.765A5.145,5.145,0,0,0,707.322,676.894ZM709.3,681a4.07,4.07,0,0,1-.615,1.874l-.131.187c.108.054.2.048.259-.071.6-.351,1.223-.677,1.807-1.059a1.3,1.3,0,0,0,.14-2.217,1.59,1.59,0,0,0-.333-.22,1.33,1.33,0,0,0-1.251.143c-.328.24.064.538.044.82A2.452,2.452,0,0,0,709.3,681Zm5.385,7.448a1.067,1.067,0,0,0-1.248-.077c-1.208.7-2.411,1.417-3.585,2.174a1.132,1.132,0,0,0-.511,1.551,1.255,1.255,0,0,0,1.925.678c1.155-.662,2.3-1.355,3.406-2.09A1.266,1.266,0,0,0,714.686,688.445Zm-1.4-4.643a1.223,1.223,0,0,0-1.544-.066q-1.677,1-3.33,2.038a1.312,1.312,0,0,0-.575,1.678c.431.776,1.107,1.1,1.77.725,1.238-.7,2.466-1.418,3.645-2.208A1.273,1.273,0,0,0,713.282,683.8ZM690.5,693.086c1.206,1.43,2.437,2.839,3.605,4.3.38.475.651.518,1.01.068.156-.2.678-.257.321-.672-1.262-1.469-2.432-3.018-3.783-4.412-.87-1.245-1.922-2.342-2.882-3.514-.7-.858-.7-.839-1.5-.077-.219.211-.224.323-.024.55C688.347,690.572,689.421,691.832,690.5,693.086Zm41.676-29.529c-.11-.205-.209-.417-.331-.615q-7.525-12.2-15.054-24.4c-.765-1.24-.564-1.187-1.881-.422-.549.319-.559.612-.238,1.113.934,1.455,1.806,2.95,2.739,4.4a1.285,1.285,0,0,1-.079,1.769c-.928.271-1.205.164-1.73-.674-.248-.4-.523-.779-.73-1.2-.248-.5-.416-.45-.742-.042-2.189,2.74-4.4,5.462-6.605,8.19q-4.188,5.183-8.375,10.366c-.179.222-.425.392-.18.771.975,1.509,1.912,3.043,2.863,4.568,1.073,1.755,2.155,3.505,3.212,5.27.209.349.434.307.76.235,3.1-.685,6.212-1.35,9.318-2.027q7.022-1.529,14.043-3.065c.286-.062.676-.021.362-.519-1.146-1.819-2.28-3.644-3.419-5.467-.125-.223-.241-.451-.375-.669q-3.563-5.779-7.137-11.55a1.267,1.267,0,0,1,.05-1.764c.86-.312,1.206-.209,1.692.574,1.453,2.339,2.891,4.688,4.343,7.028q2.84,4.579,5.692,9.151c.836,1.379,1.669,2.76,2.511,4.136.78,1.275.783,1.273,2.035.421.039-.026.077-.054.117-.077a.439.439,0,0,0,.158-.7Q733.684,665.963,732.178,663.558Zm-42.769,31.61c-1.446-1.712-2.9-3.42-4.333-5.141-.258-.308-.459-.211-.708-.014q-4.476,3.545-8.96,7.08a.834.834,0,0,0-.349.718q.012,1.367,0,2.735c0,.434.2.66.632.658q4.382-.017,8.765-.042c2.242.017,4.487-.023,6.725.079a2.062,2.062,0,0,0,1.954-1.048.541.541,0,0,0-.011-.753Q691.266,697.305,689.409,695.168Zm17.68-14.318a.728.728,0,0,0-.038-.27c-1.022-1.674-2.013-3.369-3.092-5.006A2.036,2.036,0,0,0,701.1,675c-.85.489-1.658,1.05-2.509,1.537a6.219,6.219,0,0,0-2.142,2.07c-1.633,2.505-3.3,4.987-4.956,7.479a2.679,2.679,0,0,1-.931,1.025c-.3.153-.246.307-.052.532,1.191,1.38,2.369,2.772,3.551,4.16.862,1.04,1.727,2.078,2.584,3.122a.8.8,0,0,0,.525.282c1.671.319,3.336.667,5,1a3.94,3.94,0,0,0,2.96-.467c.773-.478,1.565-.926,2.336-1.408.173-.108.547-.141.432-.432-.1-.25-.244-.57-.618-.6-.139-.01-.276-.052-.415-.064a4.329,4.329,0,0,1-3.405-2.16c-.272-.431-.564-.849-.847-1.274-1.061-1.7-2.129-3.389-3.177-5.094-.2-.329-.343-.258-.578-.05a6.855,6.855,0,0,1-.894.668,1.068,1.068,0,0,1-1.5-.187,1.054,1.054,0,0,1,.247-1.484,4.4,4.4,0,0,1,.44-.345,4.246,4.246,0,0,0,1.858-2.848,1.727,1.727,0,0,1,.916-1.307,3.218,3.218,0,0,1,3.073.461l1,1.364c.142.261.284.521.425.783a1.064,1.064,0,0,0,1.369.622A1.561,1.561,0,0,0,707.089,680.85Zm-1.445,5.766c.044-.353.046-.388-.315-.526a3.837,3.837,0,0,1-2.179-2.3,16.363,16.363,0,0,0-1.454-2.375c-.12-.185-.309-.391-.581-.217a2.207,2.207,0,0,0-.307,1.743q2.225,3.519,4.459,7.033a2.306,2.306,0,0,0,1.184,1.043c.293.1.616.25.756-.172.116-.348.392-.728-.1-1.052A3.268,3.268,0,0,1,705.643,686.616Zm-19.771-12.257a1.022,1.022,0,0,0,.225.652c.581.931,1.151,1.869,1.728,2.8.233.378.446.771.713,1.123.4.525.764.471,1.526-.005.605-.378.16-.673-.016-.966q-1.249-2.069-2.539-4.113c-.145-.231-.212-.694-.611-.514C686.453,673.539,685.912,673.724,685.872,674.359Z" transform="translate(0 -7.456)" fill="#030303"/>
    <path id="Trazado_631307" data-name="Trazado 631307" d="M731.607,738.062a1.188,1.188,0,0,0,1.746.167c.7-.422,1.4-.846,2.083-1.286.25-.16.432-.234.622.085.823,1.381,1.661,2.754,2.494,4.129a1.886,1.886,0,0,0-.389.136c-1.711,1.053-3.409,2.127-5.13,3.165-1.377.83-2.689,1.77-4.134,2.49-.605-.963-1.234-1.911-1.809-2.892a1.554,1.554,0,0,1,.535-2.291c.308-.209.635-.388.95-.587.791-.5.9-.795.635-1.675Z" transform="translate(-38.689 -80.277)" fill="#ea7762"/>
    <path id="Trazado_631308" data-name="Trazado 631308" d="M858.424,635.014a1.07,1.07,0,0,1-.985-1.51c.478-1.314,1.008-2.61,1.515-3.914.49-1.261.966-2.527,1.47-3.782a1.054,1.054,0,0,1,2.03.081,1.117,1.117,0,0,1-.1.751c-.974,2.523-1.96,5.042-2.936,7.565A1.158,1.158,0,0,1,858.424,635.014Z" transform="translate(-132.495)" fill="#050505"/>
    <path id="Trazado_631309" data-name="Trazado 631309" d="M900.058,711.149c-2.374-.226-4.936-.468-7.5-.716-.8-.078-1.25-.528-1.2-1.178.052-.628.52-.993,1.316-.923q3.985.349,7.964.752c.806.081,1.251.578,1.168,1.208C901.724,710.959,901.234,711.232,900.058,711.149Z" transform="translate(-156.925 -59.813)" fill="#050505"/>
    <path id="Trazado_631310" data-name="Trazado 631310" d="M880.963,668.062a1.107,1.107,0,0,1,1,.608.942.942,0,0,1-.139,1.1,2.053,2.053,0,0,1-.49.388q-2.62,1.621-5.246,3.23a2.071,2.071,0,0,1-.306.169,1.018,1.018,0,0,1-1.349-.387.984.984,0,0,1,.326-1.412c1.893-1.2,3.807-2.363,5.718-3.532A2.243,2.243,0,0,1,880.963,668.062Z" transform="translate(-144.641 -30.886)" fill="#050505"/>
    <path id="Trazado_631311" data-name="Trazado 631311" d="M784.8,667.556a1.267,1.267,0,0,0-.05,1.764q3.586,5.764,7.137,11.55c.134.217.25.445.375.669-.092.162-.251.173-.414.21-5.731,1.3-11.458,2.611-17.192,3.9-2.221.5-4.424,1.078-6.67,1.462-.951-1.525-1.888-3.058-2.863-4.568-.245-.379,0-.549.18-.771q4.186-5.185,8.375-10.366c2.2-2.728,4.416-5.449,6.6-8.19.326-.408.494-.458.742.042.207.416.482.8.73,1.2.525.839.8.946,1.73.674C783.79,666.011,784.538,666.652,784.8,667.556Z" transform="translate(-66.153 -27.175)" fill="#f4ce75"/>
    <path id="Trazado_631312" data-name="Trazado 631312" d="M775.557,734.688c2.246-.384,4.449-.963,6.67-1.462,5.733-1.289,11.46-2.6,17.192-3.9.164-.037.322-.048.414-.21,1.139,1.823,2.274,3.648,3.419,5.467.314.5-.077.457-.362.519q-7.022,1.531-14.043,3.065c-3.106.676-6.214,1.341-9.318,2.027-.326.072-.551.114-.76-.235C777.712,738.194,776.63,736.444,775.557,734.688Z" transform="translate(-73.723 -74.752)" fill="#eab464"/>
    <path id="Trazado_631313" data-name="Trazado 631313" d="M744.355,779.231a1.727,1.727,0,0,0-.916,1.307,4.246,4.246,0,0,1-1.858,2.848,4.42,4.42,0,0,0-.44.345,1.054,1.054,0,0,0-.247,1.484,1.068,1.068,0,0,0,1.5.187,6.849,6.849,0,0,0,.894-.668c.234-.208.376-.279.578.05,1.048,1.7,2.116,3.4,3.178,5.094a9.993,9.993,0,0,1-2.237,1.506,4.949,4.949,0,0,1-3.477.742,24.932,24.932,0,0,0-2.842-.255c-1.182-1.388-2.36-2.78-3.551-4.16-.195-.226-.245-.38.052-.532a2.679,2.679,0,0,0,.931-1.025c1.654-2.491,3.323-4.974,4.956-7.479a6.218,6.218,0,0,1,2.141-2.07c.85-.488,1.659-1.048,2.509-1.537a2.036,2.036,0,0,1,2.857.571c1.079,1.637,2.07,3.332,3.092,5.006a.729.729,0,0,1,.038.27,3.669,3.669,0,0,1-3.08.142l-1-1.364a1.861,1.861,0,0,0-1.749-1.742C744.6,777.975,744.558,777.966,744.355,779.231Z" transform="translate(-44.422 -107.521)" fill="#f8e3d0"/>
    <path id="Trazado_631314" data-name="Trazado 631314" d="M689.845,839.945q-4.382.022-8.765.042c-.431,0-.635-.224-.632-.658q.009-1.368,0-2.735a.835.835,0,0,1,.349-.718q4.485-3.533,8.96-7.08c.249-.2.45-.294.708.014,1.437,1.72,2.888,3.428,4.333,5.141-.947,1.111-1.921,2.2-2.832,3.34A18.58,18.58,0,0,0,689.845,839.945Z" transform="translate(-5.388 -146.239)" fill="#3f5363"/>
    <path id="Trazado_631315" data-name="Trazado 631315" d="M824.591,653.255c-.263-.9-1.011-1.546-1.314-2.428a1.285,1.285,0,0,0,.078-1.769c-.933-1.455-1.805-2.95-2.739-4.4-.322-.5-.312-.794.238-1.113,1.317-.765,1.116-.818,1.881.422q7.53,12.2,15.054,24.4c.122.2.221.41.331.615a7.57,7.57,0,0,0-1.8,1.033q-2.847-4.575-5.692-9.151c-1.452-2.34-2.889-4.689-4.343-7.028C825.8,653.047,825.451,652.943,824.591,653.255Z" transform="translate(-105.943 -12.874)" fill="#e87661"/>
    <path id="Trazado_631316" data-name="Trazado 631316" d="M734.265,758.054c1.444-.719,2.756-1.659,4.134-2.49,1.721-1.037,3.419-2.112,5.13-3.165a1.886,1.886,0,0,1,.389-.136l2.664,4.216a5.535,5.535,0,0,0-3.3,1.123,9.769,9.769,0,0,1-1.134.7,9.857,9.857,0,0,0-4.089,4.12c-.414.713-.666.714-1.12,0C736.022,760.979,735.153,759.511,734.265,758.054Z" transform="translate(-44.055 -91.383)" fill="#c5483f"/>
    <path id="Trazado_631317" data-name="Trazado 631317" d="M747.952,830.547a24.932,24.932,0,0,1,2.842.255,4.949,4.949,0,0,0,3.477-.742,10,10,0,0,0,2.237-1.506c.283.424.575.842.846,1.274a4.329,4.329,0,0,0,3.405,2.16c.139.013.276.055.415.064.374.025.519.345.618.6.115.291-.259.323-.432.432-.771.482-1.563.93-2.336,1.408a3.94,3.94,0,0,1-2.96.467c-1.668-.334-3.333-.682-5-1a.8.8,0,0,1-.525-.282C749.679,832.625,748.814,831.587,747.952,830.547Z" transform="translate(-53.889 -146.196)" fill="#e7d1be"/>
    <path id="Trazado_631318" data-name="Trazado 631318" d="M713.83,853.569a18.592,18.592,0,0,1,2.12-2.654c.911-1.14,1.885-2.229,2.832-3.34l3.716,4.272a.541.541,0,0,1,.011.753,2.062,2.062,0,0,1-1.954,1.048C718.317,853.546,716.072,853.587,713.83,853.569Z" transform="translate(-29.373 -159.863)" fill="#22404c"/>
    <path id="Trazado_631319" data-name="Trazado 631319" d="M776.555,803.19a3.268,3.268,0,0,0,1.461,3.172c.494.324.218.7.1,1.052-.141.422-.463.271-.756.172a2.306,2.306,0,0,1-1.184-1.043q-2.239-3.51-4.459-7.033a2.207,2.207,0,0,1,.307-1.743c.272-.173.461.032.581.217a16.354,16.354,0,0,1,1.454,2.375,3.837,3.837,0,0,0,2.179,2.3C776.6,802.8,776.6,802.837,776.555,803.19Z" transform="translate(-70.912 -124.031)" fill="#364858"/>
    <path id="Trazado_631320" data-name="Trazado 631320" d="M876.939,736.323a7.572,7.572,0,0,1,1.8-1.033q1.509,2.4,3.018,4.808a.439.439,0,0,1-.158.7c-.04.023-.078.051-.117.077-1.252.852-1.256.854-2.035-.421C878.608,739.082,877.775,737.7,876.939,736.323Z" transform="translate(-146.564 -79.188)" fill="#c5483f"/>
    <path id="Trazado_631321" data-name="Trazado 631321" d="M718.849,770.95c.04-.635.581-.82,1.025-1.021.4-.18.466.283.611.514q1.286,2.046,2.539,4.113c.177.292.621.588.016.966-.762.476-1.127.53-1.526.005-.267-.352-.48-.745-.713-1.123-.577-.934-1.147-1.872-1.728-2.8A1.022,1.022,0,0,1,718.849,770.95Z" transform="translate(-32.977 -104.047)" fill="#364858"/>
    <path id="Trazado_631322" data-name="Trazado 631322" d="M736.457,837.635c1.351,1.393,2.52,2.942,3.783,4.412.356.415-.166.477-.322.672-.359.45-.631.407-1.01-.068-1.168-1.46-2.4-2.87-3.605-4.3C735.732,838.183,735.974,837.715,736.457,837.635Z" transform="translate(-44.801 -152.721)" fill="#929da2"/>
    <path id="Trazado_631323" data-name="Trazado 631323" d="M802.32,807.2a1.272,1.272,0,0,1-.033,2.167c-1.179.79-2.406,1.513-3.645,2.208-.662.372-1.338.05-1.77-.725a2.054,2.054,0,0,0,.992-.308q1.529-.917,3.034-1.873C801.485,808.3,802.109,807.947,802.32,807.2Z" transform="translate(-89.037 -130.856)" fill="#e7d1be"/>
    <path id="Trazado_631324" data-name="Trazado 631324" d="M807.57,823.694a1.266,1.266,0,0,1-.013,2.236c-1.11.735-2.251,1.428-3.406,2.09a1.255,1.255,0,0,1-1.925-.678,1.367,1.367,0,0,0,.864-.221c1.154-.7,2.336-1.35,3.446-2.109C806.983,824.707,807.539,824.376,807.57,823.694Z" transform="translate(-92.884 -142.705)" fill="#e7d1be"/>
    <path id="Trazado_631325" data-name="Trazado 631325" d="M802.082,806.417c-.21.744-.835,1.095-1.422,1.468q-1.5.956-3.034,1.873a2.054,2.054,0,0,1-.992.308,1.312,1.312,0,0,1,.575-1.678q1.651-1.042,3.33-2.038A1.223,1.223,0,0,1,802.082,806.417Z" transform="translate(-88.799 -130.07)" fill="#f5e1cd"/>
    <path id="Trazado_631326" data-name="Trazado 631326" d="M727.8,827.016c-.483.08-.726.548-1.154.716-1.081-1.254-2.154-2.515-3.248-3.758-.2-.227-.2-.339.024-.55.792-.762.793-.781,1.5.077C725.875,824.674,726.927,825.771,727.8,827.016Z" transform="translate(-36.141 -142.103)" fill="#c7ced6"/>
    <path id="Trazado_631327" data-name="Trazado 631327" d="M807.224,823.076c-.031.682-.587,1.013-1.034,1.318-1.111.759-2.293,1.414-3.446,2.109a1.367,1.367,0,0,1-.864.221,1.132,1.132,0,0,1,.511-1.551c1.174-.757,2.377-1.471,3.585-2.174A1.067,1.067,0,0,1,807.224,823.076Z" transform="translate(-92.538 -142.087)" fill="#f5e1cd"/>
    <path id="Trazado_631328" data-name="Trazado 631328" d="M801.968,792.674a1.3,1.3,0,0,1-.14,2.217c-.584.381-1.2.707-1.807,1.059l-.128-.117a4.07,4.07,0,0,0,.615-1.874C801.3,793.876,801.621,793.261,801.968,792.674Z" transform="translate(-91.208 -120.418)" fill="#e7d1be"/>
    <path id="Trazado_631329" data-name="Trazado 631329" d="M768.8,787.463c.2-1.265.243-1.256,1.325-1.281a1.861,1.861,0,0,1,1.749,1.742A3.218,3.218,0,0,0,768.8,787.463Z" transform="translate(-68.871 -115.753)" fill="#e7d1be"/>
    <path id="Trazado_631330" data-name="Trazado 631330" d="M783.281,796.857a3.669,3.669,0,0,0,3.08-.142,1.561,1.561,0,0,1-1.286,1.546,1.064,1.064,0,0,1-1.369-.622C783.565,797.378,783.423,797.118,783.281,796.857Z" transform="translate(-79.273 -123.321)" fill="#e7d1be"/>
    <path id="Trazado_631331" data-name="Trazado 631331" d="M795.952,777.352a1.329,1.329,0,0,1,.206,2.17c-.364.307-.6.379-.81-.126a5.805,5.805,0,0,0-.294-.55C795.322,778.329,795.834,777.959,795.952,777.352Z" transform="translate(-87.73 -109.409)" fill="#e7d1be"/>
    <path id="Trazado_631332" data-name="Trazado 631332" d="M802.885,791.879c-.347.587-.668,1.2-1.459,1.284a2.452,2.452,0,0,1-.08-.541c.02-.283-.372-.581-.044-.82a1.33,1.33,0,0,1,1.251-.143A1.591,1.591,0,0,1,802.885,791.879Z" transform="translate(-92.125 -119.622)" fill="#f5e1cd"/>
    <path id="Trazado_631333" data-name="Trazado 631333" d="M794.006,776.84c-.117.607-.63.977-.9,1.494a5.1,5.1,0,0,1-.387-.579c-.126-.254-.517-.493-.321-.765a1.138,1.138,0,0,1,1.022-.347A.947.947,0,0,1,794.006,776.84Z" transform="translate(-85.784 -108.897)" fill="#f5e1cd"/>
    <path id="Trazado_631334" data-name="Trazado 631334" d="M799.687,804.011c-.061.118-.151.125-.259.071l.131-.187Z" transform="translate(-90.874 -128.479)" fill="#e7d1be"/>
  </g>
</svg>
