<svg xmlns="http://www.w3.org/2000/svg" width="295" height="155" viewBox="0 0 295 155">
  <g id="Grupo_980843" data-name="Grupo 980843" transform="translate(-180 -406)">
    <rect id="Rect치ngulo_306749" data-name="Rect치ngulo 306749" width="295" height="155" transform="translate(180 406)" fill="#e2d9ff" opacity="0.5"/>
    <g id="Grupo_955175" data-name="Grupo 955175" transform="translate(0 -5658)">
      <rect id="Rect치ngulo_34178" data-name="Rect치ngulo 34178" width="85" height="85" transform="translate(180 6099)" fill="none"/>
      <g id="Grupo_955176" data-name="Grupo 955176" transform="translate(-1005.435 5806.118)">
        <path id="Trazado_630712" data-name="Trazado 630712" d="M1252.651,370.263c-.67-.008-1.554.239-1.951-.094-.413-.346-.112-1.262-.122-1.927-.017-1.206,0-2.413,0-3.771-1.363,1.368-2.63,2.611-3.858,3.891-.34.355-.521.363-.852,0a4.217,4.217,0,0,0-2.075-1.5,2.939,2.939,0,0,0-3.643,2.656,12.462,12.462,0,0,0-.005,1.369c.016.326-.063.5-.423.437a1.573,1.573,0,0,0-.26,0q-21.237,0-42.475.012c-.538,0-.721-.079-.717-.684.03-5.175.01-10.35.019-15.525a17.473,17.473,0,0,1,12.216-16.828.7.7,0,0,0,.559-.606c.1-.621.219-1.24.371-1.85.088-.356-.047-.484-.353-.621a7.188,7.188,0,0,1-4.279-5.231c-.071-.312-.155-.406-.478-.442a4.141,4.141,0,0,1-3.359-6.1.961.961,0,0,0,.072-.676,16.6,16.6,0,0,1-.458-6.073,7.217,7.217,0,0,1,3.808-5.379,2.316,2.316,0,0,0,.836-.775,8.27,8.27,0,0,1,7.1-3.922,29.5,29.5,0,0,1,6.308.228,11.356,11.356,0,0,1,8.972,10.762,21.159,21.159,0,0,1-.56,5.1,1.081,1.081,0,0,0,.089.8,4.147,4.147,0,0,1-3.268,6.025c-.372.043-.525.108-.621.521a7.124,7.124,0,0,1-4.265,5.162c-.319.14-.425.281-.341.626a7.666,7.666,0,0,0,.508,2.136c.357.586,1.269.516,1.9.835.457.232.989.626,1.406.542s.762-.661,1.132-1.028c.526-.52,1.086-1.012,1.557-1.578.4-.474.632-.375.991.025a4,4,0,0,0,1.98,1.415,2.944,2.944,0,0,0,3.66-2.637c.005-.065.006-.13.008-.2.013-.518-.177-1.235.087-1.5.347-.353,1.065-.108,1.622-.112,2.022-.014,4.045.015,6.068-.02.51-.009.612.144.591.613a5.667,5.667,0,0,0,.091,1.75,2.918,2.918,0,0,0,4.725,1.5,8.461,8.461,0,0,0,.974-.961c.267-.313.427-.284.708,0,1.507,1.537,3.038,3.051,4.561,4.572.091.091.194.17.292.255.66.743.66.743.109,1.384-.218.207-.454.4-.652.624a2.875,2.875,0,0,0,.651,4.425,3.543,3.543,0,0,0,2.442.45c.541-.027.735.077.721.686-.047,2.086-.018,4.174-.018,6.262,0,1.409,0,1.44-1.394,1.4-.581-.016-.712.152-.709.723C1252.67,361.7,1252.655,365.979,1252.651,370.263Zm-30.279-51.154c1.056.042,1.056.042,1.056,1.079,0,.916,0,.9,1.258,1.237.373.1.516.024.565-.351a17.105,17.105,0,0,0,.149-4.6,9.285,9.285,0,0,0-7.672-7.662,37.19,37.19,0,0,0-5.337-.106,6.14,6.14,0,0,0-5.433,3.036,3.572,3.572,0,0,1-1.477,1.372,5.2,5.2,0,0,0-2.848,3.9,12.036,12.036,0,0,0,.078,3.373c.111,1.108.139,1.037,1.246.91.635-.073.688-.335.687-.859a5.466,5.466,0,0,1,2.7-4.9c1.061-.671,1.068-.659,1.491.475.292.613.267,1-.468,1.385a3.09,3.09,0,0,0-1.636,2.859c-.023,2.8-.032,5.61,0,8.415a5.115,5.115,0,0,0,4.211,4.949,29.6,29.6,0,0,0,4.948.112,5.207,5.207,0,0,0,5.445-5.458c.005-2.7,0-5.392,0-8.089C1221.339,319.15,1221.339,319.15,1222.372,319.109Zm9.409,43.008c0,2.324,0,4.578,0,6.832,0,.37.254.278.45.279,1.805,0,3.61-.009,5.415.013.348,0,.428-.14.5-.43a4.971,4.971,0,0,1,7.832-3.2c.264.166.393.146.6-.06.79-.809,1.588-1.61,2.4-2.395.238-.23.227-.377.051-.65a4.97,4.97,0,0,1,3.2-7.789c.328-.075.459-.186.451-.545-.027-1.087-.033-2.175,0-3.261.013-.4-.142-.5-.493-.58a4.976,4.976,0,0,1-3.175-7.76.455.455,0,0,0-.073-.7q-1.2-1.155-2.353-2.352c-.234-.244-.382-.215-.649-.042a4.974,4.974,0,0,1-7.784-3.215c-.078-.339-.209-.447-.557-.439-1.043.024-2.088.033-3.131,0-.449-.015-.625.1-.72.565a5.006,5.006,0,0,1-7.147,3.475c-.344-.171-.651-.626-.993-.515s-.605.535-.9.822a.477.477,0,0,1-.046.046c-.346.253-.339.44.032.707a15.863,15.863,0,0,1,3.664,3.681c.275.385.425.38.769.075a9.891,9.891,0,0,1,6.332-2.567,10.433,10.433,0,1,1-.785,20.773A16.275,16.275,0,0,1,1231.781,362.117ZM1207.123,341.1c-.22.095-.385.148-.533.232-5.077,2.887-7.943,7.235-8.175,13.071-.19,4.775-.036,9.564-.056,14.347,0,.43.148.5.522.487,1-.023,2-.041,3,.005.537.025.68-.115.678-.666-.023-5.565-.014-11.131-.014-16.7,0-1.444,0-1.413,1.441-1.456.565-.017.662.161.66.685-.02,5.848-.008,11.7-.022,17.544,0,.433.072.6.554.589,1.935-.03,3.87-.01,5.805-.018.129,0,.305.1.4-.133-1.089-1.082-2.168-2.187-3.288-3.248a1.013,1.013,0,0,1-.313-1.084c1.317-6.2,2.606-12.4,3.942-18.595a3.428,3.428,0,0,0-.172-1.955c-.117-.333-.242-.331-.507-.165-.774.483-1.559.946-2.341,1.415-.64.384-.641.383-.791-.377-.013-.064-.015-.13-.028-.193C1207.637,343.638,1207.384,342.388,1207.123,341.1Zm9.414,28.128c2.2,0,4.239-.02,6.272.014.529.009.63-.154.629-.648-.017-5.609-.011-11.217-.011-16.825,0-1.331,0-1.3,1.355-1.344.574-.018.752.114.749.727-.027,5.826-.01,11.652-.027,17.478,0,.478.1.633.6.611,1-.044,2-.044,3,0,.5.022.6-.135.6-.612-.023-2.913.009-5.826-.019-8.738a56.747,56.747,0,0,0-.117-6.644,15.242,15.242,0,0,0-8.144-11.938c-.435-.243-.531-.11-.609.314-.231,1.259-.516,2.508-.741,3.768-.073.411-.2.39-.493.209-.85-.525-1.709-1.034-2.568-1.543-.149-.088-.35-.3-.456.026a3.341,3.341,0,0,0-.294,1.821c1.351,6.279,2.666,12.565,4.009,18.845a1.063,1.063,0,0,1-.352,1.133C1218.81,366.938,1217.739,368.035,1216.537,369.23Zm1.543-4.681c-.017-.085-.034-.17-.052-.255q-1.848-8.75-3.7-17.5c-.04-.186.056-.494-.266-.516-.386-.027-.282.323-.325.522q-1.86,8.747-3.711,17.5a.716.716,0,0,0,.242.741c1.145,1.128,2.288,2.258,3.408,3.412.285.293.439.282.718,0,1.12-1.153,2.268-2.278,3.4-3.418C1217.926,364.9,1218.118,364.789,1218.08,364.549Zm12.667-15.543a6.3,6.3,0,0,1,8.822-1.583,6.233,6.233,0,0,1,1.738,8.337,6.068,6.068,0,0,1-3.573,2.764,6.3,6.3,0,0,1-5.955-1.3c0,.752.023,1.4-.009,2.049a.641.641,0,0,0,.424.7,8.34,8.34,0,1,0-1.64-13.8c-.782.662-.779.66-.354,1.575C1230.382,348.135,1230.544,348.535,1230.747,349.006Zm5.19,7.7a4.174,4.174,0,1,0-4.156-4.21A4.187,4.187,0,0,0,1235.937,356.7Zm-21.9-20.877a5.656,5.656,0,0,0-2.253.062c-.709.342-.4,1.385-.656,2.09a.572.572,0,0,1-.017.063c-.127.263.008.39.233.5a12.391,12.391,0,0,1,1.565.8,1.819,1.819,0,0,0,2.245,0c.572-.382,1.5-.515,1.748-1.016s-.158-1.321-.277-2c-.008-.043-.021-.085-.026-.128-.034-.282-.165-.389-.474-.376C1215.427,335.848,1214.73,335.827,1214.034,335.826Zm9.393-10.438c0,.564.024,1.129-.008,1.691-.022.39.128.43.454.355a2.1,2.1,0,0,0,0-4.091c-.32-.073-.48-.041-.456.354C1223.452,324.259,1223.427,324.824,1223.427,325.388Zm-18.792.007c0-.564-.023-1.129.008-1.691.021-.379-.115-.44-.449-.364a2.1,2.1,0,0,0-.012,4.093c.319.075.481.048.461-.346C1204.613,326.524,1204.635,325.959,1204.635,325.4Zm7.224,15.737c-.69-.348-1.285-.682-1.908-.954-.528-.231-.854.054-.752.613.085.466.187.929.268,1.4.038.22.105.319.334.18C1210.46,341.967,1211.124,341.573,1211.859,341.132Zm4.347,0c.719.432,1.382.826,2.04,1.228.282.172.316,0,.355-.22.077-.446.2-.885.25-1.332.022-.18.255-.414-.044-.569a.76.76,0,0,0-.741-.048C1217.476,340.5,1216.881,340.792,1216.205,341.132Zm-1.433,1.792a.754.754,0,0,0-.727-.566.658.658,0,0,0-.713.514c-.062.438.463,1.35.711,1.291C1214.722,344,1214.42,343.283,1214.773,342.924Zm35.783,15.529a2.532,2.532,0,0,0,0,2.557Z" transform="translate(0 -2.098)" fill="#020202"/>
        <path id="Trazado_630713" data-name="Trazado 630713" d="M1408.536,378.888c0-4.283.019-8.567,0-12.85,0-.57.128-.738.709-.723,1.393.038,1.394.007,1.394-1.4,0-2.087-.029-4.176.018-6.262.014-.609-.181-.712-.721-.686a3.543,3.543,0,0,1-2.442-.45q0-2.525,0-5.049c.551-.641.551-.641-.109-1.384a4.642,4.642,0,0,0,.114-1.776c.032-.58.006-1.163.006-1.745,1.045-.054,1.045-.054,1.045-1.129v-20.6c0-1.186,0-1.186-1.211-1.315l3.3-5.278,3.313,5.308c-.178.013-.26.023-.342.025-.886.016-.886.015-.886.878v29.332c0,1.074,0,1.074,1.046,1.128v2.044a1.792,1.792,0,0,1-.385.018c-.517-.085-.714.076-.675.64.056.814.014,1.634.014,2.452,0,1.053,0,1.053,1.046,1.109v2.045a3.784,3.784,0,0,1-.585.016c-.369-.045-.471.089-.47.461q.024,7.6.019,15.191Z" transform="translate(-155.885 -10.723)" fill="#fbe9ae"/>
        <path id="Trazado_630714" data-name="Trazado 630714" d="M1403.271,344.191c-1.046-.054-1.046-.054-1.046-1.128V313.731c0-.863,0-.862.886-.878.082,0,.165-.012.342-.025l-3.313-5.308-3.3,5.278c1.211.129,1.211.129,1.211,1.315v20.6c0,1.076,0,1.076-1.045,1.129-1.044-.054-1.044-.054-1.044-1.128,0-6.369-.007-12.739.013-19.107,0-.525-.093-.722-.658-.677-.713.057-1.433.014-2.142.014-.13-.161.02-.252.078-.345q3.29-5.274,6.586-10.544c.186-.3.277-.533.573-.055q3.324,5.368,6.683,10.714a1.92,1.92,0,0,1,.094.231c-.818,0-1.593.03-2.363-.012-.451-.024-.524.142-.521.546.018,2.478.009,4.956.009,7.434v20.151C1404.314,344.137,1404.314,344.137,1403.271,344.191Z" transform="translate(-145.388 -0.002)" fill="#010101"/>
        <path id="Trazado_630715" data-name="Trazado 630715" d="M1326.166,329.542c-.67-.008-1.552.239-1.951-.093s-.121-1.26-.122-1.925q-.016-6,.007-11.993c0-.482-.1-.635-.6-.6-.735.048-1.476.012-2.207.012-.115-.163.027-.254.087-.35q3.289-5.271,6.583-10.538c.184-.3.276-.537.573-.057,2.215,3.577,4.452,7.14,6.681,10.708a2.234,2.234,0,0,1,.1.237c-.817,0-1.589.027-2.358-.01-.432-.021-.532.115-.531.535.015,4.454,0,8.908.023,13.362,0,.571-.11.816-.724.737a11.566,11.566,0,0,0-1.367-.022q0-7.792-.01-15.585c0-1.085,0-1.085,1.05-1.114.031,0,.062-.04.135-.09l-3.273-5.234-3.329,5.333a7.439,7.439,0,0,0,.778,0c.365-.044.473.083.472.458Q1326.161,321.424,1326.166,329.542Z" transform="translate(-92.308)" fill="#020201"/>
        <path id="Trazado_630716" data-name="Trazado 630716" d="M1336.571,340.267q0-8.119.019-16.237c0-.375-.108-.5-.472-.458a7.448,7.448,0,0,1-.778,0l3.329-5.333,3.273,5.234c-.074.05-.1.089-.135.09-1.05.03-1.051.029-1.05,1.114q0,7.792.01,15.585Z" transform="translate(-102.713 -10.725)" fill="#fbe9ae"/>
        <path id="Trazado_630717" data-name="Trazado 630717" d="M1427.927,505.937q-.005-7.6-.019-15.191c0-.371.1-.506.469-.461a3.78,3.78,0,0,0,.585-.016c1.042.054,1.042.054,1.042,1.129,0,4.651-.007,9.3.011,13.952,0,.467-.078.665-.59.609A14.974,14.974,0,0,0,1427.927,505.937Z" transform="translate(-171.079 -137.773)"/>
        <path id="Trazado_630718" data-name="Trazado 630718" d="M1428.931,470.523c-1.046-.055-1.046-.055-1.046-1.109,0-.818.042-1.639-.014-2.452-.039-.564.158-.726.675-.64a1.793,1.793,0,0,0,.385-.018c1.042.055,1.042.055,1.042,1.109,0,.818-.042,1.638.014,2.452.039.56-.151.728-.672.64A1.772,1.772,0,0,0,1428.931,470.523Z" transform="translate(-171.047 -120.07)"/>
        <path id="Trazado_630719" data-name="Trazado 630719" d="M1311.251,444.743a16.279,16.279,0,0,0,2.881.762,10.433,10.433,0,1,0,.786-20.773,9.892,9.892,0,0,0-6.332,2.567c-.344.3-.494.31-.769-.075a15.862,15.862,0,0,0-3.664-3.681c-.371-.267-.378-.454-.032-.707a.474.474,0,0,0,.046-.046c.3-.287.549-.708.9-.822s.648.344.993.515a5.005,5.005,0,0,0,7.147-3.475c.094-.466.271-.58.72-.565,1.043.036,2.088.027,3.131,0,.348-.008.478.1.557.439a4.974,4.974,0,0,0,7.784,3.215c.267-.173.414-.2.649.042q1.153,1.2,2.353,2.352a.455.455,0,0,1,.073.7,4.976,4.976,0,0,0,3.175,7.76c.351.075.506.178.493.58-.035,1.086-.029,2.174,0,3.261.009.36-.123.47-.451.545a4.97,4.97,0,0,0-3.2,7.789c.176.273.188.42-.051.65-.814.784-1.612,1.586-2.4,2.395-.2.207-.331.227-.6.06a4.971,4.971,0,0,0-7.832,3.2c-.068.29-.148.434-.5.43-1.8-.021-3.61-.008-5.415-.013-.2,0-.451.092-.45-.279C1311.254,449.321,1311.251,447.067,1311.251,444.743Z" transform="translate(-79.47 -84.724)" fill="#f4c64e"/>
        <path id="Trazado_630720" data-name="Trazado 630720" d="M1212.927,438.662c.261,1.286.515,2.537.768,3.788.013.064.016.13.028.193.15.76.151.761.791.377.782-.469,1.568-.932,2.341-1.415.265-.166.39-.168.507.165a3.428,3.428,0,0,1,.172,1.955c-1.336,6.193-2.625,12.4-3.942,18.595a1.013,1.013,0,0,0,.313,1.084c1.12,1.061,2.2,2.166,3.288,3.248-.1.228-.276.132-.4.133-1.935.007-3.871-.012-5.805.018-.482.007-.555-.156-.554-.589.014-5.848,0-11.7.022-17.544,0-.523-.1-.7-.66-.685-1.44.043-1.442.012-1.442,1.456,0,5.565-.009,11.131.014,16.7,0,.552-.141.692-.678.667-1-.046-2-.029-3-.005-.374.009-.524-.056-.522-.487.019-4.783-.134-9.571.056-14.347.232-5.836,3.1-10.184,8.175-13.071C1212.542,438.81,1212.708,438.757,1212.927,438.662Z" transform="translate(-5.804 -99.658)" fill="#80b0eb"/>
        <path id="Trazado_630721" data-name="Trazado 630721" d="M1272.908,467.038c1.2-1.2,2.273-2.292,3.384-3.347a1.063,1.063,0,0,0,.352-1.133c-1.343-6.28-2.658-12.567-4.009-18.845a3.341,3.341,0,0,1,.293-1.821c.106-.329.307-.114.456-.026.859.509,1.718,1.019,2.568,1.543.292.181.419.2.493-.209.225-1.26.51-2.509.741-3.768.078-.424.174-.557.609-.314a15.242,15.242,0,0,1,8.144,11.938,56.748,56.748,0,0,1,.117,6.645c.028,2.913,0,5.826.019,8.738,0,.477-.1.634-.6.612-1-.044-2-.044-3,0-.5.022-.6-.133-.6-.611.018-5.826,0-11.652.027-17.478,0-.613-.176-.745-.749-.727-1.354.041-1.355.013-1.355,1.344,0,5.609-.006,11.217.011,16.825,0,.493-.1.657-.629.648C1277.147,467.017,1275.113,467.038,1272.908,467.038Z" transform="translate(-56.371 -99.906)" fill="#80b0eb"/>
        <path id="Trazado_630722" data-name="Trazado 630722" d="M1251.881,345.694c-1.033.042-1.033.042-1.033,1.075,0,2.7,0,5.392,0,8.089a5.207,5.207,0,0,1-5.445,5.458,29.6,29.6,0,0,1-4.948-.112,5.115,5.115,0,0,1-4.211-4.949c-.035-2.8-.026-5.61,0-8.415a3.09,3.09,0,0,1,1.636-2.859c.735-.384.76-.772.468-1.385l2.6-.037c.59.574,1.186,1.142,1.77,1.722,1.182,1.174,1.179,1.177,2.313-.055a.343.343,0,0,1,.046-.046c.237-.176.192-.328,0-.52-.353-.347-.682-.719-1.021-1.08l2.116-.021c.591.574,1.187,1.144,1.772,1.724,1.183,1.175,1.171,1.169,2.323-.055.247-.262.216-.4-.021-.621-.3-.279-.562-.595-.841-.895A2.868,2.868,0,0,1,1251.881,345.694Zm-9.059,12.543v0c.63,0,1.26.015,1.89,0a4.193,4.193,0,0,0,3.891-3.028c.318-1.129.307-1.142-.841-1.142a6.072,6.072,0,0,1-.651,0c-.317-.034-.415.08-.489.4a2.062,2.062,0,0,1-2.163,1.687c-.825.007-1.651,0-2.476,0-1.662,0-1.652,0-1.583,1.692.013.308.087.413.4.4C1241.475,358.222,1242.148,358.237,1242.822,358.237Zm5.935-9.364a1.041,1.041,0,1,0-1.056,1.01A1.051,1.051,0,0,0,1248.757,348.873Zm-8.353-.039a1.041,1.041,0,1,0-1.017,1.049A1.048,1.048,0,0,0,1240.4,348.834Z" transform="translate(-29.51 -28.683)" fill="#e9cfb6"/>
        <path id="Trazado_630723" data-name="Trazado 630723" d="M1240.094,325.031a2.868,2.868,0,0,0-2.484-2.98l.014.008c.006-.1-.072-.114-.14-.139q-1.281-1.248-2.564-2.493c-.144-.139-.286-.4-.529-.154-.41.416-1.031.742-1.154,1.283-.084.371.552.655.843,1,.1.116.2.228.3.343l-2.117.021c-.838-.816-1.672-1.636-2.517-2.445-.139-.133-.275-.447-.517-.233a4.322,4.322,0,0,0-1.192,1.264c-.165.372.484.624.736.957.117.154.257.291.387.436l-2.6.037c-.423-1.134-.43-1.147-1.491-.475a5.466,5.466,0,0,0-2.7,4.9c0,.523-.052.786-.687.859-1.107.127-1.136.2-1.246-.91a12.032,12.032,0,0,1-.078-3.373,5.2,5.2,0,0,1,2.848-3.9,3.572,3.572,0,0,0,1.477-1.372,6.14,6.14,0,0,1,5.433-3.036,37.2,37.2,0,0,1,5.337.106,9.284,9.284,0,0,1,7.672,7.662,17.115,17.115,0,0,1-.149,4.6c-.048.375-.192.452-.564.351-1.254-.336-1.259-.321-1.259-1.237C1241.15,325.073,1241.15,325.073,1240.094,325.031Z" transform="translate(-17.722 -8.02)" fill="#656c76"/>
        <path id="Trazado_630724" data-name="Trazado 630724" d="M1256.885,476.728c.037.24-.154.348-.287.48-1.134,1.139-2.282,2.265-3.4,3.418-.278.287-.433.3-.718,0-1.119-1.154-2.262-2.284-3.408-3.412a.715.715,0,0,1-.242-.741q1.863-8.747,3.711-17.5c.042-.2-.062-.549.325-.522.322.022.226.33.266.516q1.859,8.748,3.7,17.5C1256.85,476.558,1256.867,476.643,1256.885,476.728Z" transform="translate(-38.804 -114.277)" fill="#ec8673"/>
        <path id="Trazado_630725" data-name="Trazado 630725" d="M1325.8,455.244c-.2-.471-.365-.871-.547-1.262-.425-.915-.429-.913.354-1.575a8.356,8.356,0,0,1,13.6,8,8.35,8.35,0,0,1-11.958,5.8.641.641,0,0,1-.424-.7c.031-.648.009-1.3.009-2.049a6.3,6.3,0,0,0,5.955,1.3,6.068,6.068,0,0,0,3.573-2.764,6.233,6.233,0,0,0-1.738-8.337A6.3,6.3,0,0,0,1325.8,455.244Z" transform="translate(-95.055 -108.336)" fill="#f1d37d"/>
        <path id="Trazado_630726" data-name="Trazado 630726" d="M1255.824,418.233c.7,0,1.393.022,2.087-.009.309-.014.44.093.474.376.005.043.019.085.026.128.119.68.523,1.5.277,2s-1.176.634-1.748,1.016a1.819,1.819,0,0,1-2.245,0,12.4,12.4,0,0,0-1.565-.8c-.226-.109-.361-.236-.233-.5a.572.572,0,0,0,.017-.063c.252-.7-.053-1.748.656-2.09A5.638,5.638,0,0,1,1255.824,418.233Z" transform="translate(-41.79 -84.505)" fill="#e9cfb6"/>
        <path id="Trazado_630727" data-name="Trazado 630727" d="M1300.122,372.7c0-.564.025-1.129-.009-1.691-.024-.4.136-.427.456-.354a2.1,2.1,0,0,1,0,4.091c-.326.075-.477.035-.454-.355C1300.146,373.825,1300.122,373.26,1300.122,372.7Z" transform="translate(-76.695 -49.407)" fill="#e6ccb3"/>
        <path id="Trazado_630728" data-name="Trazado 630728" d="M1222.381,372.7c0,.564-.022,1.129.007,1.691.021.393-.142.421-.461.346a2.1,2.1,0,0,1,.012-4.093c.334-.076.47-.015.449.364C1222.358,371.574,1222.381,372.139,1222.381,372.7Z" transform="translate(-17.747 -49.406)" fill="#e6ccb3"/>
        <path id="Trazado_630729" data-name="Trazado 630729" d="M1403.932,445.316q0,2.524,0,5.049a2.875,2.875,0,0,1-.65-4.425C1403.478,445.715,1403.713,445.523,1403.932,445.316Z" transform="translate(-152.326 -104.573)" fill="#f5f7f8"/>
        <path id="Trazado_630730" data-name="Trazado 630730" d="M1248.344,435.859c-.735.441-1.4.835-2.059,1.235-.229.139-.3.04-.333-.18-.081-.467-.183-.93-.268-1.4-.1-.558.224-.843.752-.613C1247.058,435.177,1247.654,435.51,1248.344,435.859Z" transform="translate(-36.485 -96.824)" fill="#6696dd"/>
        <path id="Trazado_630731" data-name="Trazado 630731" d="M1272.534,435.9c.675-.34,1.271-.635,1.861-.94a.759.759,0,0,1,.741.048c.3.154.066.388.044.569-.055.448-.173.887-.25,1.332-.039.224-.073.392-.355.22C1273.917,436.731,1273.254,436.337,1272.534,435.9Z" transform="translate(-56.329 -96.871)" fill="#6696dd"/>
        <path id="Trazado_630732" data-name="Trazado 630732" d="M1262.973,444.033c-.353.358-.051,1.079-.729,1.24-.249.059-.774-.853-.712-1.291a.658.658,0,0,1,.713-.514A.755.755,0,0,1,1262.973,444.033Z" transform="translate(-48.2 -103.207)" fill="#ec8673"/>
        <path id="Trazado_630733" data-name="Trazado 630733" d="M1402.938,505.027v2.557A2.532,2.532,0,0,1,1402.938,505.027Z" transform="translate(-152.382 -148.672)" fill="#f5f7f8"/>
        <path id="Trazado_630734" data-name="Trazado 630734" d="M1254.562,390.7c-.673,0-1.347-.015-2.02.007-.315.01-.39-.094-.4-.4-.07-1.693-.079-1.692,1.583-1.692.825,0,1.651.006,2.476,0a2.062,2.062,0,0,0,2.163-1.687c.074-.323.172-.438.489-.4a6.08,6.08,0,0,0,.651,0c1.149,0,1.159.013.841,1.142a4.193,4.193,0,0,1-3.891,3.028c-.63.017-1.26,0-1.89,0Z" transform="translate(-41.25 -61.142)" fill="#020201"/>
        <path id="Trazado_630735" data-name="Trazado 630735" d="M1271.008,334.859c-.1-.114-.2-.227-.3-.343-.291-.344-.927-.629-.843-1,.123-.541.744-.867,1.154-1.283.243-.246.385.015.529.154q1.286,1.242,2.564,2.493a.139.139,0,0,0,.14.139l-.014-.008c.279.3.542.616.841.9.237.221.267.359.021.621-1.152,1.224-1.139,1.23-2.323.055C1272.2,336,1271.6,335.434,1271.008,334.859Z" transform="translate(-54.354 -20.982)" fill="#040404"/>
        <path id="Trazado_630736" data-name="Trazado 630736" d="M1251.038,334.849c-.13-.145-.271-.281-.387-.436-.252-.333-.9-.586-.735-.957a4.318,4.318,0,0,1,1.192-1.264c.242-.214.379.1.517.233.845.809,1.68,1.629,2.517,2.445.339.362.667.733,1.021,1.08.2.192.241.344,0,.52a.346.346,0,0,0-.046.046c-1.133,1.232-1.13,1.229-2.312.055C1252.223,335.991,1251.628,335.422,1251.038,334.849Z" transform="translate(-39.604 -20.972)" fill="#040404"/>
        <path id="Trazado_630737" data-name="Trazado 630737" d="M1278.287,363.675a1.041,1.041,0,1,1-.994-1.071A1.052,1.052,0,0,1,1278.287,363.675Z" transform="translate(-59.039 -43.485)" fill="#040404"/>
        <path id="Trazado_630738" data-name="Trazado 630738" d="M1246.342,363.639a1.041,1.041,0,1,1-1.033-1.032A1.052,1.052,0,0,1,1246.342,363.639Z" transform="translate(-35.447 -43.489)" fill="#040404"/>
        <path id="Trazado_630739" data-name="Trazado 630739" d="M1286.274,342.785a.139.139,0,0,1-.141-.139C1286.2,342.67,1286.28,342.685,1286.274,342.785Z" transform="translate(-66.373 -28.747)" fill="#e9cfb6"/>
      </g>
    </g>
  </g>
</svg>
