<svg xmlns="http://www.w3.org/2000/svg" width="85.663" height="85.663" viewBox="0 0 85.663 85.663">
  <g id="Grupo_955073" data-name="Grupo 955073" transform="translate(-180 -603.953)">
    <path id="Trazado_621807" data-name="Trazado 621807" d="M42.832,0A42.832,42.832,0,1,1,0,42.832,42.832,42.832,0,0,1,42.832,0Z" transform="translate(180 603.953)" fill="#f0bd51"/>
    <g id="Grupo_955178" data-name="Grupo 955178" transform="translate(-768.751 -49.026)">
      <path id="Trazado_630757" data-name="Trazado 630757" d="M1016.329,669.665a1.381,1.381,0,0,1,1.538-1.1c3.121.019,6.243,0,9.365.01,1.053,0,1.495.449,1.495,1.515q0,20.782,0,41.564c0,1.056-.449,1.5-1.51,1.5-1.953.007-3.905,0-6.078,0,.693.678,1.263,1.215,1.808,1.774a1.265,1.265,0,0,1-.015,2.075q-5.054,5.07-10.123,10.126a1.3,1.3,0,0,1-2.185-.008c-2.211-2.2-4.424-4.406-6.613-6.631a.777.777,0,0,0-1.063-.206c-.407.216-.847.372-1.273.549-1.427.594-1.427.593-1.427,2.164q0,4.18,0,8.359c0,1.2-.415,1.611-1.635,1.612q-7.043,0-14.086,0c-1.207,0-1.615-.413-1.616-1.629,0-3.1-.012-6.192.011-9.288,0-.483-.1-.77-.6-.884a5.935,5.935,0,0,1-.785-.316c-.642-.252-1.316-.842-1.914-.671s-1.028.886-1.52,1.376q-2.769,2.758-5.53,5.525c-.864.861-1.42.854-2.295-.02q-4.982-4.978-9.96-9.961c-.866-.867-.865-1.421.007-2.294,2.187-2.192,4.37-4.386,6.576-6.558a.8.8,0,0,0,.21-1.065c-.421-.875-.561-2.106-1.24-2.572-.653-.448-1.842-.122-2.8-.123-2.348,0-4.7,0-7.043,0-1.175,0-1.608-.417-1.608-1.558q-.005-7.121,0-14.242c0-1.107.435-1.536,1.55-1.537,3.122,0,6.244-.013,9.365.01a.765.765,0,0,0,.891-.592,17.293,17.293,0,0,1,.889-2.134.787.787,0,0,0-.234-1.058c-2.185-2.156-4.348-4.335-6.517-6.508-.937-.939-.934-1.453.016-2.4q4.924-4.927,9.851-9.851c.938-.937,1.464-.939,2.408,0,2.173,2.169,4.349,4.335,6.5,6.523a.792.792,0,0,0,1.063.214c.875-.421,2.106-.56,2.572-1.239.448-.653.123-1.842.124-2.8,0-2.373,0-4.747,0-7.121,0-1.105.435-1.532,1.554-1.533q7.121-.005,14.241,0c1.106,0,1.538.436,1.54,1.548,0,2.477-.035,4.955.023,7.43.018.778-.177,1.08-.951.932a1.213,1.213,0,0,0-.306.02c-1.242-.06-1.242-.06-1.242-1.358,0-1.825-.011-3.65.008-5.474,0-.434-.062-.645-.577-.634-1.875.039-3.751.028-5.627.037-1.831-.008-3.663.011-5.493-.041-.61-.017-.711.19-.706.741.026,2.967,0,5.934.021,8.9a1.468,1.468,0,0,1-1.026,1.538c-1.411.561-2.824,1.124-4.209,1.746a1.577,1.577,0,0,1-2-.4c-2.058-2.1-4.159-4.159-6.222-6.255-.365-.371-.572-.421-.967-.02q-3.885,3.94-7.827,7.824c-.4.4-.346.6.023.967,2.114,2.082,4.194,4.2,6.307,6.28a1.5,1.5,0,0,1,.373,1.876c-.6,1.367-1.178,2.746-1.711,4.141a1.63,1.63,0,0,1-1.758,1.172c-2.941-.037-5.882,0-8.822-.023-.48,0-.673.091-.661.625.041,1.856.029,3.714.037,5.571-.008,1.854,0,3.708-.036,5.561-.01.506.14.651.646.647,2.652-.024,5.305-.037,7.957.006.723.012.791-.226.654-.841a20.841,20.841,0,0,1-.559-5.357h2.439a28.156,28.156,0,0,0,.444,4.376,23.539,23.539,0,0,0,37.406,14.291c.5-.379.964-.8,1.581-1.313h-6.452c-3.093-.009-6.186-.022-9.279-.023a15.388,15.388,0,0,1-3.227-.292c-7.2-1.54-11.985-5.837-13.72-12.97-1.752-7.206.586-13.246,6.359-17.917,1.007-.815,1.032-.783,1.789.234.577,1.063.576,1.062-.4,1.818a14.839,14.839,0,0,0-5.466,8.538c-.123.51-.143.845.589.789a26.083,26.083,0,0,1,2.859-.008,1.309,1.309,0,0,0,1.079-.432c1.531-1.566,3.085-3.111,4.646-4.649a1.167,1.167,0,0,0,.4-.938c-.028-1.237-.019-2.474-.007-3.711a1.259,1.259,0,0,1,1.428-1.422c1.237-.011,2.474,0,3.712,0a.9.9,0,0,0,.772-.229c.61-.661,1.252-1.293,1.882-1.937a14.648,14.648,0,0,1,1.265-1.206,2.056,2.056,0,0,0,.819-2.2q.013-1.391.025-2.782c.01-1.122.426-1.549,1.53-1.557,1.288-.01,2.576-.013,3.864-.02.281.085.421-.121.583-.283,1.2-1.2,2.4-2.409,3.615-3.6a1.018,1.018,0,0,0,.323-.813c-.016-1.211-.01-2.423-.005-3.634,0-1.121.425-1.551,1.528-1.557,1.211-.006,2.423-.015,3.633.007a1.089,1.089,0,0,0,.878-.357c.915-.943,1.859-1.858,2.776-2.8a1.78,1.78,0,0,1,1.37-.574q5.759.021,11.519,0c.466,0,.6.1.6.587,0,1.9.019,1.9-1.9,1.9-3.118,0-6.237.009-9.354-.01a1.187,1.187,0,0,0-1.068.452,5.2,5.2,0,0,1-.489.493c-2.175,2.172-2.175,2.172-2.038,5.265-.007.335-.015.669-.021,1-.021,1.01-.459,1.452-1.472,1.464a14.257,14.257,0,0,1-2.164-.016,3.528,3.528,0,0,0-3.476,1.423c-.833,1.01-2.181,1.739-2.651,2.864s-.13,2.583-.145,3.9a1.323,1.323,0,0,0,0,.155,1.485,1.485,0,0,1-.79,1.546c-1.207.014-2.421.1-3.621.017a2.235,2.235,0,0,0-2.26,1.075c-1.011.991-2.016,1.988-3.037,2.969a.846.846,0,0,0-.2.707c0,1.238.008,2.476,0,3.713-.008,1.006-.46,1.456-1.468,1.464-1.109.009-2.219.038-3.326-.012a1.764,1.764,0,0,0-1.479.6c-1.633,1.685-3.318,3.319-4.964,4.992a1.915,1.915,0,0,1-1.505.628c-1.34-.03-2.682.016-4.022-.023-.5-.015-.6.142-.573.606a18.089,18.089,0,0,0,.679,3.87.6.6,0,0,0,.7.5c2.656-.02,5.312-.026,7.968,0,.514.006.581-.173.572-.615-.027-1.34-.013-2.682-.008-4.023,0-1.152.425-1.566,1.6-1.567,2.553,0,5.106-.02,7.659.014.556.007.672-.152.664-.682-.032-2.14-.016-4.28-.012-6.421,0-1.161.42-1.574,1.584-1.58q3.055-.016,6.11-.028c.561.009,1.122,0,1.681.032.375.02.555-.068.539-.5-.038-.968-.03-1.937-.041-2.906.011-.721.029-1.441.031-2.162.005-1.547.32-1.871,1.836-1.872,2.473,0,4.947-.011,7.42.009.481,0,.671-.1.665-.629C1016.325,675.127,1016.334,672.4,1016.329,669.665Zm9.922,21.277c0-6.394-.008-12.788.013-19.183,0-.563-.114-.74-.709-.728-2.036.042-4.073.034-6.11,0-.512-.008-.635.143-.634.642q.021,19.182,0,38.365c0,.491.109.655.629.647,2.01-.032,4.022-.043,6.032,0,.651.015.8-.163.794-.8C1026.241,703.576,1026.251,697.259,1026.251,690.942Zm-17.337,4.874c0,4.717.01,9.434-.014,14.15,0,.569.123.738.713.726,2.035-.04,4.072-.034,6.108,0,.516.008.633-.15.633-.646q-.021-14.227,0-28.456c0-.5-.117-.653-.633-.645-2.036.03-4.073.037-6.108,0-.591-.011-.716.158-.713.726C1008.925,686.382,1008.915,691.1,1008.915,695.816Zm-2.478,3.793c0-3.508-.016-7.017.015-10.524.005-.594-.165-.723-.731-.713-2.037.035-4.075.027-6.113,0-.461-.005-.614.1-.612.592q.026,10.563,0,21.126c0,.492.148.6.611.594,2.038-.024,4.076-.031,6.113,0,.563.01.738-.115.732-.712C1006.421,706.523,1006.437,703.066,1006.437,699.609ZM991.6,730.492c1.855,0,3.709-.015,5.563.01.471.006.615-.123.611-.6q-.034-4.095,0-8.19c.005-.544-.205-.593-.641-.5a25.272,25.272,0,0,1-11.1,0c-.494-.11-.67,0-.665.548q.038,4.056,0,8.113c-.005.538.193.63.669.625C987.9,730.479,989.75,730.492,991.6,730.492Zm-13.638-12.359c-.034-.226-.194-.275-.318-.355a26.337,26.337,0,0,1-8.021-8.032c-.25-.392-.409-.333-.688-.052q-2.942,2.963-5.906,5.9c-.247.245-.3.412-.025.688q4.06,4.033,8.094,8.091c.269.27.435.243.688-.012q2.968-2.992,5.954-5.966A3.356,3.356,0,0,0,977.966,718.133Zm18.563-14.278c0-2.062-.011-4.124.009-6.185,0-.441-.068-.635-.58-.627-2.113.03-4.227.022-6.339,0-.4,0-.528.109-.527.52q.021,6.185,0,12.371c0,.427.131.561.556.611,2.083.247,4.172.056,6.255.137.516.02.644-.149.638-.647C996.514,707.979,996.53,705.917,996.53,703.855Zm17.817,9.3c-.953,0-1.907.015-2.859-.008a1.051,1.051,0,0,0-.872.374,24.589,24.589,0,0,1-5.03,4.191c-.423.265-.457.428-.092.787q2.919,2.873,5.792,5.792c.332.337.521.342.857,0q3.941-3.982,7.921-7.926c.293-.291.35-.462.033-.8-2.243-2.4-2.234-2.411-5.518-2.411Zm-35.507-9.908c.012.128,0,.186.023.223a14.821,14.821,0,0,0,7.285,6.179c.535.219.476-.109.476-.43,0-1.8-.012-3.6.008-5.407,0-.429-.111-.578-.559-.574C983.679,703.258,981.285,703.247,978.839,703.247Zm31.385-38.392c-1.309,0-1.309,0-1.309,1.321,0,1.155,0,1.155,1.167,1.155,1.308,0,1.308,0,1.308-1.321C1011.39,664.855,1011.39,664.855,1010.223,664.855Zm-8.74,11.094c0-1.187,0-1.187-1.212-1.187-1.263,0-1.263,0-1.263,1.289,0,1.187,0,1.187,1.213,1.187C1001.483,677.239,1001.483,677.239,1001.483,675.95Zm-11.211,11.2c1.3,0,1.3,0,1.3-1.326,0-1.15,0-1.15-1.172-1.15-1.3,0-1.3,0-1.3,1.326C989.1,687.146,989.1,687.146,990.272,687.146Z" transform="translate(0 0)" fill="#020101"/>
      <path id="Trazado_630758" data-name="Trazado 630758" d="M1124.723,688.985c0,2.731,0,5.462.027,8.192.006.532-.184.633-.665.629-2.473-.02-4.947-.01-7.42-.009-1.516,0-1.831.325-1.836,1.872,0,.721-.02,1.441-.031,2.162a.71.71,0,0,1-.449-.261,26.219,26.219,0,0,0-2.783-2.573,1.485,1.485,0,0,0,.79-1.546,1.337,1.337,0,0,1,0-.155c.015-1.313-.324-2.773.145-3.9s1.818-1.854,2.651-2.864a3.528,3.528,0,0,1,3.476-1.423,14.264,14.264,0,0,0,2.163.016c1.013-.012,1.451-.454,1.472-1.464.006-.334.014-.669.021-1Z" transform="translate(-108.393 -19.32)" fill="#c14f30"/>
      <path id="Trazado_630759" data-name="Trazado 630759" d="M1074.15,666.673c1.875-.008,3.752,0,5.627-.037.515-.011.582.2.577.634-.019,1.825-.008,3.65-.008,5.474,0,1.3,0,1.3,1.242,1.358.009.788-.237,1.718.1,2.324s1.359.667,2.066,1l.748.349c-1.288.007-2.576.01-3.864.02-1.1.008-1.52.436-1.53,1.557q-.013,1.391-.025,2.782a18.069,18.069,0,0,0-4.089-.6c-.691-.013-.858-.209-.854-.879C1074.167,675.993,1074.151,671.333,1074.15,666.673Z" transform="translate(-82.578 -5.508)" fill="#c14f30"/>
      <path id="Trazado_630760" data-name="Trazado 630760" d="M997.054,666.662c0,4.66.017,9.32-.01,13.98,0,.67.162.866.854.879a18.072,18.072,0,0,1,4.089.6,2.056,2.056,0,0,1-.819,2.2,14.722,14.722,0,0,0-1.266,1.206,4.989,4.989,0,0,0-.587-.153,16.139,16.139,0,0,0-10.9,2.338c-.757-1.017-.782-1.049-1.789-.234-5.773,4.671-8.111,10.711-6.359,17.917,1.734,7.133,6.517,11.43,13.72,12.97a15.387,15.387,0,0,0,3.227.292c3.093,0,6.186.014,9.279.023a19.075,19.075,0,0,1-13.4,2.03,19.809,19.809,0,0,1-15.838-18.569c-.024-.524-.029-.883-.728-.84-1,.061-2.01.021-3.016.024h-2.439l-8.662-.016c-.008-1.857,0-3.714-.038-5.571-.012-.535.181-.629.661-.625,2.941.019,5.882-.014,8.822.023a1.63,1.63,0,0,0,1.758-1.172c.532-1.395,1.109-2.774,1.711-4.141a1.5,1.5,0,0,0-.373-1.876c-2.113-2.083-4.193-4.2-6.307-6.28-.369-.364-.426-.57-.023-.967q3.941-3.884,7.827-7.824c.4-.4.6-.351.967.02,2.063,2.1,4.164,4.155,6.222,6.255a1.578,1.578,0,0,0,2,.4c1.385-.622,2.8-1.185,4.209-1.746a1.468,1.468,0,0,0,1.026-1.538c-.02-2.967.006-5.934-.021-8.9,0-.552.1-.759.706-.741C993.391,666.673,995.223,666.653,997.054,666.662Z" transform="translate(-5.483 -5.497)" fill="#dd6647"/>
      <path id="Trazado_630761" data-name="Trazado 630761" d="M1169.419,718.469c0,6.317-.01,12.634.016,18.95,0,.638-.143.817-.794.8-2.01-.047-4.022-.036-6.032,0-.521.008-.63-.156-.629-.647q.019-19.183,0-38.365c0-.5.122-.65.634-.642,2.036.03,4.074.038,6.11,0,.6-.012.711.164.709.728C1169.412,705.681,1169.419,712.075,1169.419,718.469Z" transform="translate(-143.168 -27.527)" fill="#6d9af7"/>
      <path id="Trazado_630762" data-name="Trazado 630762" d="M1130.047,745.373c0-4.717.011-9.434-.014-14.15,0-.568.123-.738.713-.726,2.035.041,4.072.034,6.108,0,.516-.008.633.15.633.645q-.021,14.228,0,28.456c0,.5-.116.653-.633.646-2.036-.03-4.073-.037-6.108,0-.59.012-.716-.157-.713-.726C1130.057,754.807,1130.047,750.09,1130.047,745.373Z" transform="translate(-121.132 -49.557)" fill="#5e8bf6"/>
      <path id="Trazado_630763" data-name="Trazado 630763" d="M998.28,778.423c1.006,0,2.014.037,3.016-.025.7-.043.7.316.728.84a19.809,19.809,0,0,0,15.838,18.569,19.075,19.075,0,0,0,13.4-2.03h6.452c-.617.514-1.083.934-1.581,1.313A23.539,23.539,0,0,1,998.724,782.8,28.157,28.157,0,0,1,998.28,778.423Z" transform="translate(-30.252 -82.597)" fill="#c04e30"/>
      <path id="Trazado_630764" data-name="Trazado 630764" d="M1105.545,765.693c0,3.457-.016,6.913.016,10.369.006.6-.169.721-.732.712-2.037-.035-4.075-.027-6.113,0-.463.006-.612-.1-.611-.593q.026-10.563,0-21.126c0-.494.151-.6.612-.592,2.038.024,4.076.031,6.113,0,.566-.01.736.119.731.713C1105.529,758.677,1105.545,762.185,1105.545,765.693Z" transform="translate(-99.108 -66.084)" fill="#5178e9"/>
      <path id="Trazado_630765" data-name="Trazado 630765" d="M1060.421,869.507c-1.854,0-3.709-.013-5.563.009-.476.006-.674-.086-.669-.624q.041-4.056,0-8.113c0-.544.171-.658.665-.548a25.272,25.272,0,0,0,11.1,0c.436-.1.646-.048.641.5q-.039,4.1,0,8.191c0,.481-.14.61-.611.6C1064.13,869.492,1062.275,869.507,1060.421,869.507Z" transform="translate(-68.816 -139.015)" fill="#c14f30"/>
      <path id="Trazado_630766" data-name="Trazado 630766" d="M996.645,831.125a3.345,3.345,0,0,1-.222.267q-2.977,2.982-5.954,5.966c-.253.255-.419.282-.688.012q-4.034-4.058-8.094-8.091c-.278-.276-.222-.443.025-.688q2.963-2.942,5.906-5.9c.279-.281.438-.34.688.052a26.338,26.338,0,0,0,8.02,8.032C996.451,830.85,996.612,830.9,996.645,831.125Z" transform="translate(-18.679 -112.992)" fill="#c04e30"/>
      <path id="Trazado_630767" data-name="Trazado 630767" d="M1073.616,789.218c0,2.062-.015,4.124.011,6.185.006.5-.122.667-.638.647-2.083-.081-4.173.109-6.255-.137-.425-.05-.557-.184-.556-.611q.022-6.185,0-12.371c0-.411.125-.524.527-.52,2.113.017,4.227.026,6.339,0,.512-.007.584.186.58.627C1073.6,785.094,1073.616,787.156,1073.616,789.218Z" transform="translate(-77.086 -85.363)" fill="#4d6ed7"/>
      <path id="Trazado_630768" data-name="Trazado 630768" d="M1127.343,834.327h.232c3.284,0,3.276.007,5.518,2.411.318.34.26.511-.032.8q-3.975,3.948-7.921,7.926c-.336.339-.525.334-.857,0q-2.874-2.918-5.792-5.792c-.365-.359-.331-.522.092-.787a24.586,24.586,0,0,0,5.03-4.191,1.051,1.051,0,0,1,.872-.374C1125.437,834.342,1126.39,834.327,1127.343,834.327Z" transform="translate(-112.997 -121.172)" fill="#c14e30"/>
      <path id="Trazado_630769" data-name="Trazado 630769" d="M962.414,778.436l8.662.016a20.841,20.841,0,0,0,.559,5.357c.137.615.069.853-.654.841-2.652-.043-5.3-.029-7.957-.006-.506,0-.655-.141-.646-.647C962.414,782.144,962.405,780.29,962.414,778.436Z" transform="translate(-5.487 -82.625)" fill="#c14f30"/>
      <path id="Trazado_630770" data-name="Trazado 630770" d="M1033.128,802.386c2.446,0,4.84.011,7.233-.009.448,0,.564.146.559.574-.02,1.8-.009,3.6-.008,5.407,0,.32.06.649-.476.43a14.822,14.822,0,0,1-7.285-6.179C1033.129,802.572,1033.14,802.514,1033.128,802.386Z" transform="translate(-54.289 -99.139)" fill="#3e59bb"/>
      <path id="Trazado_630771" data-name="Trazado 630771" d="M1099.543,732.631a15.68,15.68,0,0,0-6.934-5.112,2.235,2.235,0,0,1,2.26-1.075c1.2.088,2.413,0,3.621-.017a26.231,26.231,0,0,1,2.783,2.573.711.711,0,0,0,.449.261c.011.969,0,1.938.041,2.906.017.428-.163.517-.538.5C1100.665,732.633,1100.1,732.64,1099.543,732.631Z" transform="translate(-95.318 -46.75)" fill="#dd6748"/>
      <path id="Trazado_630772" data-name="Trazado 630772" d="M1131.386,678.651c1.167,0,1.167,0,1.167,1.155,0,1.321,0,1.321-1.308,1.321-1.167,0-1.167,0-1.167-1.155C1130.077,678.651,1130.077,678.651,1131.386,678.651Z" transform="translate(-121.162 -13.796)" fill="#f3b53f"/>
      <path id="Trazado_630773" data-name="Trazado 630773" d="M1100.617,711.775c0,1.289,0,1.289-1.263,1.289-1.213,0-1.213,0-1.213-1.187,0-1.289,0-1.289,1.264-1.289C1100.617,710.588,1100.617,710.588,1100.617,711.775Z" transform="translate(-99.134 -35.825)" fill="#f3b53f"/>
      <path id="Trazado_630774" data-name="Trazado 630774" d="M1067.377,745c-1.172,0-1.172,0-1.172-1.15,0-1.326,0-1.326,1.3-1.326,1.172,0,1.172,0,1.172,1.15C1068.681,745,1068.681,745,1067.377,745Z" transform="translate(-77.105 -57.855)" fill="#f3b53f"/>
    </g>
  </g>
</svg>
