<svg xmlns="http://www.w3.org/2000/svg" width="190" height="141" viewBox="0 0 190 141">
  <g id="Grupo_969999" data-name="Grupo 969999" transform="translate(-180 -3122)">
    <rect id="Rectángulo_307348" data-name="Rectángulo 307348" width="190" height="141" transform="translate(180 3122)" fill="none"/>
    <g id="Grupo_980809" data-name="Grupo 980809" transform="translate(310.631 3107.276)">
      <path id="Trazado_640826" data-name="Trazado 640826" d="M-28.705,139.97q-16.936,0-33.876,0c-2.24,0-2.918-.682-2.918-2.942,0-6.094-.016-12.186.02-18.279a1.029,1.029,0,0,0-.929-1.217c-4.127-1.062-8.244-2.172-12.361-3.274-1.8-.485-2.363-1.458-1.878-3.268Q-71.2,75.729-61.736,40.47c.481-1.794,1.378-2.327,3.149-1.854q14.109,3.759,28.2,7.552c.744.2.975.147,1.225-.664a10.77,10.77,0,0,1,8.169-7.751,1.424,1.424,0,0,0,1.112-.951A10.015,10.015,0,0,1-9.382,30.567,10.164,10.164,0,0,1-.587,39.183a9.972,9.972,0,0,1-6.2,10.709c-1.106.432-.879,1.323-1.144,2.043-.119.322.36.328.619.4C-2.54,53.611,2.226,54.9,7,56.163c2.444.646,2.991,1.414,2.24,3.819A27.984,27.984,0,0,0,8.151,68.5q.066,34.207.024,68.412c0,2.47-.6,3.063-3.109,3.063Q-11.819,139.973-28.705,139.97Zm.217-79.348a2.122,2.122,0,0,1-1.842-1.187,1.99,1.99,0,0,1,.243-2.295,23.671,23.671,0,0,1,1.794-1.828c.416-.386.589-.68.2-1.237a6.917,6.917,0,0,1-1.076-2.538,1.056,1.056,0,0,0-.891-.893Q-43.607,47.033-57.141,43.4c-.692-.185-.975-.093-1.162.652-.77,3.067-1.611,6.118-2.429,9.173q-7.554,28.213-15.13,56.423c-.2.74-.074.955.652,1.142,3.3.843,6.591,1.754,9.885,2.635q18.945,5.068,37.884,10.156c.722.193.887.034,1.06-.636.869-3.373,1.792-6.731,2.707-10.092.467-1.718,1.382-2.242,3.105-1.788,3.332.879,6.671,1.738,9.987,2.673.76.215,1.026.1,1.233-.672Q-2.411,87,4.6,60.958c.219-.813.02-1-.71-1.193q-6.546-1.714-13.071-3.52a1.727,1.727,0,0,0-1.866.428c-3.379,3.021-7.355,3.906-11.476,2.084-1.981-.875-3.035-.585-4.163.961A2.276,2.276,0,0,1-28.488,60.622ZM3.9,80.745l-.135-.032c-.1.322-.209.642-.3.965q-4.688,17.455-9.356,34.916a3.354,3.354,0,0,1-1.687,2.192q-8.009,4.585-15.985,9.225a3.238,3.238,0,0,1-2.645.336c-11.323-3.053-22.652-6.074-33.968-9.145-.877-.237-1.076-.119-1.068.8.038,4.809.048,9.619-.008,14.428-.012,1.006.2,1.3,1.259,1.293q31.311-.054,62.619,0c.981,0,1.3-.161,1.3-1.239q-.06-26.4-.028-52.8ZM-4.793,40.6a5.773,5.773,0,0,0-5.714-5.818,5.84,5.84,0,0,0-5.875,5.794,5.782,5.782,0,0,0,5.742,5.792A5.723,5.723,0,0,0-4.793,40.6ZM-17.97,55.332A6.585,6.585,0,0,0-12.342,51.4c.28-.547.3-.827-.448-1.01a9.751,9.751,0,0,1-7.58-7.55c-.209-.831-.459-.736-1.03-.475a6.837,6.837,0,0,0-3.745,7.723C-24.482,53.1-21.706,55.316-17.97,55.332ZM-21.7,121.98l8.057-4.652c-2.148-.571-4.085-1.082-6.015-1.611-.31-.084-.38.084-.436.294C-20.608,117.909-21.117,119.81-21.7,121.98Z" transform="translate(0 0)" fill="#020202"/>
      <path id="Trazado_640827" data-name="Trazado 640827" d="M-30.934,54.167a2.276,2.276,0,0,0,1.8-.9c1.128-1.547,2.182-1.836,4.163-.961,4.121,1.822,8.1.937,11.476-2.084a1.727,1.727,0,0,1,1.866-.428Q-5.1,51.585,1.439,53.31c.73.191.929.38.71,1.193Q-4.865,80.543-11.8,106.608c-.207.776-.473.887-1.233.672-3.316-.935-6.655-1.794-9.987-2.673-1.724-.455-2.639.07-3.105,1.788-.915,3.361-1.838,6.719-2.707,10.092-.173.67-.338.829-1.06.636q-18.933-5.11-37.884-10.156c-3.294-.881-6.581-1.792-9.885-2.635-.726-.187-.851-.4-.652-1.142q7.593-28.2,15.13-56.423c.819-3.055,1.659-6.106,2.429-9.173.187-.744.471-.837,1.162-.652q13.53,3.65,27.076,7.248a1.056,1.056,0,0,1,.891.893,6.917,6.917,0,0,0,1.076,2.538c.394.557.221.851-.2,1.237a23.671,23.671,0,0,0-1.794,1.828,1.99,1.99,0,0,0-.243,2.295A2.122,2.122,0,0,0-30.934,54.167ZM-58.21,68.494a2.175,2.175,0,0,0-2.184,1.148c-.714,1.356.058,2.693,1.786,3.156q15.44,4.142,30.875,8.286c3.636.975,7.272,1.951,10.919,2.894a2.089,2.089,0,0,0,2.586-1.468,2.125,2.125,0,0,0-1.335-2.582,7.911,7.911,0,0,0-.917-.278Q-34.7,74.766-52.914,69.888C-54.765,69.393-56.619,68.913-58.21,68.494Zm46.261,5.143c0-1.164-.619-1.838-2.152-2.248q-20.641-5.521-41.281-11.031c-1.48-.4-2.661.183-2.972,1.424-.316,1.261.416,2.291,1.915,2.693q15.488,4.157,30.978,8.316,5.352,1.436,10.707,2.856A2.1,2.1,0,0,0-11.949,73.637ZM-46.8,82.128c.022-1.124-.577-1.856-1.909-2.218q-5.551-1.508-11.114-2.975c-1.492-.392-2.637.185-2.979,1.452-.33,1.219.434,2.3,1.921,2.707,1.267.344,2.542.664,3.811,1.006,2.433.654,4.863,1.331,7.3,1.971C-48.12,84.5-46.833,83.638-46.8,82.128Zm5.072,2.341A2.107,2.107,0,0,0-39.663,86.7a2.17,2.17,0,0,0,2.188-2.029,2.188,2.188,0,0,0-2.1-2.238A2.131,2.131,0,0,0-41.732,84.469Z" transform="translate(2.446 6.455)" fill="#f7d898"/>
      <path id="Trazado_640828" data-name="Trazado 640828" d="M-5.936,55.487v.931q0,26.4.028,52.8c0,1.078-.318,1.241-1.3,1.239q-31.308-.045-62.619,0c-1.06,0-1.271-.288-1.259-1.293.056-4.809.046-9.619.008-14.428-.008-.915.191-1.034,1.068-.8,11.317,3.071,22.646,6.092,33.968,9.145a3.238,3.238,0,0,0,2.645-.336q7.973-4.646,15.985-9.225a3.354,3.354,0,0,0,1.687-2.192q4.649-17.467,9.356-34.916c.088-.324.2-.644.3-.965Z" transform="translate(9.836 25.258)" fill="#f4c05c"/>
      <path id="Trazado_640829" data-name="Trazado 640829" d="M-37.188,38.435A5.723,5.723,0,0,1-43.034,44.2a5.782,5.782,0,0,1-5.742-5.792A5.84,5.84,0,0,1-42.9,32.617,5.773,5.773,0,0,1-37.188,38.435Z" transform="translate(32.395 2.165)" fill="#ea687d"/>
      <path id="Trazado_640830" data-name="Trazado 640830" d="M-45.874,49.449c-3.737-.016-6.512-2.23-7.176-5.247a6.837,6.837,0,0,1,3.745-7.723c.571-.261.821-.356,1.03.475A9.751,9.751,0,0,0-40.7,44.5c.744.183.728.463.448,1.01A6.585,6.585,0,0,1-45.874,49.449Z" transform="translate(27.904 5.883)" fill="#e9677d"/>
      <path id="Trazado_640831" data-name="Trazado 640831" d="M-51.42,79.134c.581-2.17,1.09-4.071,1.6-5.969.056-.209.127-.378.436-.294,1.931.529,3.867,1.04,6.015,1.611Z" transform="translate(29.722 42.846)" fill="#f1c775"/>
      <path id="Trazado_640832" data-name="Trazado 640832" d="M-67.127,52.589c1.591.418,3.445.9,5.3,1.394q18.218,4.878,36.434,9.762a7.909,7.909,0,0,1,.917.278A2.125,2.125,0,0,1-23.145,66.6a2.089,2.089,0,0,1-2.586,1.468c-3.646-.943-7.282-1.919-10.919-2.894q-15.44-4.139-30.875-8.286c-1.728-.463-2.5-1.8-1.786-3.156A2.175,2.175,0,0,1-67.127,52.589Z" transform="translate(11.363 22.36)" fill="#030302"/>
      <path id="Trazado_640833" data-name="Trazado 640833" d="M-21.988,61.885a2.1,2.1,0,0,1-2.806,2.009q-5.358-1.409-10.707-2.856-15.491-4.157-30.978-8.316c-1.5-.4-2.23-1.432-1.915-2.693.312-1.241,1.492-1.82,2.972-1.424q20.644,5.509,41.281,11.031C-22.608,60.047-21.984,60.72-21.988,61.885Z" transform="translate(12.486 18.207)" fill="#030302"/>
      <path id="Trazado_640834" data-name="Trazado 640834" d="M-54.6,62.04c-.028,1.51-1.315,2.375-2.968,1.943-2.438-.64-4.867-1.317-7.3-1.971-1.269-.342-2.544-.662-3.811-1.006-1.486-.4-2.25-1.488-1.921-2.707.342-1.267,1.486-1.844,2.979-1.452q5.563,1.469,11.114,2.975C-55.181,60.184-54.582,60.916-54.6,62.04Z" transform="translate(10.246 26.543)" fill="#030302"/>
      <path id="Trazado_640835" data-name="Trazado 640835" d="M-60.164,61.558A2.131,2.131,0,0,1-58,59.518a2.188,2.188,0,0,1,2.1,2.238,2.17,2.17,0,0,1-2.188,2.029A2.107,2.107,0,0,1-60.164,61.558Z" transform="translate(20.878 29.366)" fill="#060604"/>
    </g>
  </g>
</svg>
