<svg id="Grupo_952053" data-name="Grupo 952053" xmlns="http://www.w3.org/2000/svg" width="86.425" height="86.425" viewBox="0 0 86.425 86.425">
  <rect id="Rectángulo_306506" data-name="Rectángulo 306506" width="86.425" height="86.425" transform="translate(0)" fill="none"/>
  <g id="Grupo_952057" data-name="Grupo 952057" transform="translate(7.33 7.34)">
    <path id="Trazado_628703" data-name="Trazado 628703" d="M1695.149,360.828c-.495-.48-.952-.926-1.411-1.369a1.371,1.371,0,0,1-.493-.894c-.224-3.577.923-6.508,4.059-8.471a7.746,7.746,0,0,1,4.1-1.2c2.541-.022,5.083-.048,7.623,0a8.429,8.429,0,0,1,8.144,8.063,3.453,3.453,0,0,1-1.337,3.326,4.651,4.651,0,0,0-.56.582,2.449,2.449,0,0,1,1.7,1.484,4.791,4.791,0,0,1,.046,2.795,2.309,2.309,0,0,1-2.156,1.665,8.613,8.613,0,0,1-.9,0c-.334-.017-.5.041-.584.45a8.17,8.17,0,0,1-3.749,5.43c-.327.206-.352.409-.339.78a1.8,1.8,0,0,0,1.7,2.028c1.359.238,2.634.867,3.99,1.2a7.707,7.707,0,0,1,2.74,1.316c.28.207.442.186.664-.091q1.682-2.1,3.4-4.165a1.489,1.489,0,0,0,.28-.756,5.9,5.9,0,0,1,5.839-4.986c3.912-.023,7.823-.01,11.735,0,1.038,0,1.475.487,1.429,1.544a5.982,5.982,0,0,1-5.738,5.617c-1.269.037-2.541.022-3.812,0a.841.841,0,0,0-.844.43c-2.368,3.738-4.74,7.476-7.161,11.18a4.478,4.478,0,0,0-.364,2.519c-.019.372.327.218.51.22,1.519.013,3.039.007,4.559.007q4.448,0,8.895,0c1.173,0,1.57.395,1.571,1.562,0,5.6.011,11.209-.014,16.813,0,.609.12.8.757.772,1.276-.054,1.647.352,1.649,1.616q0,1.943,0,3.886c0,1.28-.369,1.654-1.63,1.655h-68.316c-1.518,0-1.814-.3-1.814-1.843,0-1.271,0-2.541,0-3.812,0-1.118.41-1.569,1.536-1.5.736.045.878-.178.874-.886-.033-5.53-.02-11.06-.019-16.589,0-1.324.353-1.675,1.681-1.676,4.411,0,8.82-.01,13.23.013.524,0,.639-.128.659-.648a4.177,4.177,0,0,0-.735-2.568c-2.3-3.517-4.533-7.077-6.775-10.63a.984.984,0,0,0-.943-.53,26.621,26.621,0,0,1-4.772-.128,5.96,5.96,0,0,1-4.729-5.533c-.033-1.011.405-1.493,1.4-1.495,3.937-.006,7.873-.022,11.81.005a5.9,5.9,0,0,1,5.784,4.96,1.746,1.746,0,0,0,.366.877q1.62,1.955,3.211,3.934c.266.331.448.48.883.162a9.671,9.671,0,0,1,3.4-1.461,35.66,35.66,0,0,1,3.623-1.111c1.068-.152,1.056-.771,1.232-1.508a1.146,1.146,0,0,0-.619-1.419,7.913,7.913,0,0,1-3.381-5.089c-.106-.506-.307-.588-.729-.551a5.13,5.13,0,0,1-.747,0,2.146,2.146,0,0,1-2.056-1.369C1692.948,363.9,1692.9,361.64,1695.149,360.828Zm10.642,13.181a10.219,10.219,0,0,1-1.926-.137c-.3-.076-.44,0-.486.343-.116.859-.278,1.713-.427,2.568a.659.659,0,0,0,.2.665c.58.539,1.142,1.1,1.711,1.648.161.295.308.376.619.108,2.009-1.729,2.016-1.721,1.649-4.252C1706.967,373.79,1706.967,373.79,1705.791,374.008Zm-33.623-3.574c-.406.1-.1.312-.036.429a3.5,3.5,0,0,0,3.218,1.93c3.338.016,6.675.006,10.013,0,.131,0,.3.077.41-.138a2.2,2.2,0,0,0-.712-1.07,2.978,2.978,0,0,0-2.392-1.16C1679.169,370.4,1675.669,370.426,1672.168,370.434Zm53.161,1.153a1.934,1.934,0,0,0-.71,1.2c3.6,0,7.163.04,10.719-.021a3.32,3.32,0,0,0,2.956-1.97c.061-.117.275-.308-.07-.366-3.5-.007-7-.036-10.5-.007A2.985,2.985,0,0,0,1725.329,371.587Zm-23.613-1.165a1.32,1.32,0,0,0,.209.2,5.786,5.786,0,0,0,6.033.279,5.7,5.7,0,0,0,3.2-5.12c.066-1.89-.014-3.786.034-5.678.016-.6-.167-.866-.741-.907a3.743,3.743,0,0,1-.44-.082c-1.249-.32-2.493-.665-3.75-.955-1.133-.261-2.277-.912-3.39-.7a13.33,13.33,0,0,0-3.151,1.478.9.9,0,0,1-.131.071c-.321.093-.383.315-.381.626.015,2.09-.05,4.182.032,6.269A5.432,5.432,0,0,0,1701.717,370.421ZM1717.345,390a1.768,1.768,0,0,1,1.363-.468c.421.031.85-.034,1.267.016.611.073.871-.119.772-.757a5.308,5.308,0,0,1,1.084-3.83c1.939-2.948,3.822-5.933,5.718-8.91.165-.258.429-.479.429-.858-1.312,0-2.6.007-3.9-.005a.726.726,0,0,0-.63.3q-3.215,3.967-6.445,7.922-1.286,1.549-2.573,3.1c-1.189,1.435-1.176,1.422-2.6.213-.344-.292-.3-.446-.044-.753,1.212-1.452,2.4-2.923,3.594-4.39,1.364-1.675,1.33-1.757-.775-2.51a.608.608,0,0,0-.848.27q-2.248,3.208-4.552,6.376a1.427,1.427,0,0,0-.267,1.175c.726,4.288,1.437,8.579,2.175,12.865a1.669,1.669,0,0,1-.5,1.618c-.886.871-1.744,1.77-2.614,2.657-.621.6-1.234,1.215-1.866,1.806a1.218,1.218,0,0,1-1.9-.006c-.272-.25-.543-.5-.815-.751-1.185-1.206-2.355-2.427-3.562-3.609a1.835,1.835,0,0,1-.576-1.8c.745-4.26,1.441-8.53,2.163-12.795a1.428,1.428,0,0,0-.278-1.174c-1.295-1.766-2.554-3.556-3.827-5.338-1.172-1.639-1.339-1.657-3.061-.568-.4.255-.422.415-.119.776,1.3,1.545,2.559,3.117,3.836,4.676.94,1.147.912,1.111-.214,2.117-.531.473-.781.47-1.242-.1-3.125-3.875-6.289-7.718-9.449-11.566-.163-.2-.262-.5-.6-.5h-4.219c.212.345.35.577.494.8q3.206,5.034,6.419,10.063a2.6,2.6,0,0,1,.468,1.607c-.031.591-.208,1.38.09,1.732.353.415,1.166.121,1.777.132,1.369.025,1.709.352,1.711,1.731q.011,6.908.024,13.816c-.007,1.02,0,2.041-.033,3.06-.015.43.125.541.545.54q11.428-.018,22.857,0c.531,0,.532-.241.531-.629-.01-2.588,0-5.177-.007-7.767-.005-2.339-.021-4.677-.032-7.016C1717.256,392.184,1716.955,391.068,1717.345,390Zm10.575,18.67c2.59,0,5.181-.007,7.77.007.409,0,.615-.034.614-.545q-.031-7.843-.007-15.687c0-.363-.059-.533-.481-.524-1.27.027-2.541.024-3.81,0-.389-.007-.518.1-.507.5.027.97.019,1.942.005,2.913a1.219,1.219,0,0,1-1.382,1.375q-2.2.017-4.408,0a1.216,1.216,0,0,1-1.381-1.376c-.012-.971-.021-1.942.006-2.913.011-.4-.122-.505-.508-.5-1.245.022-2.491.034-3.735,0-.5-.016-.557.178-.556.6q.019,7.768,0,15.538c0,.479.114.628.612.623C1722.74,408.656,1725.329,408.669,1727.92,408.669Zm-37.077-8.37c0-2.565-.019-5.129.016-7.694.008-.572-.154-.709-.7-.688-1.144.044-2.292.039-3.435,0-.5-.016-.7.094-.672.642.048.918.022,1.842.01,2.763a1.219,1.219,0,0,1-1.372,1.386q-2.2.019-4.408,0c-.962-.007-1.384-.451-1.393-1.441-.008-.921-.026-1.843.008-2.763.017-.451-.1-.6-.573-.588q-1.828.053-3.66,0c-.481-.014-.57.149-.568.592q.022,7.768,0,15.537c0,.461.084.636.6.634q7.77-.031,15.54,0c.481,0,.628-.116.623-.612C1690.829,405.478,1690.843,402.889,1690.843,400.3Zm14.36,13.154h31.907c1.574,0,1.531,0,1.592-1.576.027-.71-.209-.829-.86-.829q-32.243.024-64.487.013c-1.651,0-1.616,0-1.665,1.651-.02.648.185.755.783.754Q1688.838,413.438,1705.2,413.453Zm8.456-54.428c.4-.5,1.059-.715,1.1-1.447a5.99,5.99,0,0,0-5.682-6.282q-3.885-.095-7.773,0a6.032,6.032,0,0,0-5.687,5.611,2.2,2.2,0,0,0,1.179,2.111c.075-1.273.13-1.357,1.2-1.889,1.314-.654,2.634-1.3,3.938-1.972a1.976,1.976,0,0,1,1.5-.182c2.815.729,5.64,1.421,8.462,2.12C1713.362,357.461,1713.446,357.543,1713.658,359.025Zm-5.016,40.632c-.006-.067-.006-.117-.014-.166-.4-2.4-.807-4.8-1.192-7.2-.058-.358-.269-.354-.529-.353-1.145,0-2.289.006-3.433-.008-.323,0-.477.071-.535.434-.371,2.33-.77,4.657-1.168,6.982a.931.931,0,0,0,.29.928q1.4,1.342,2.748,2.74c.29.3.471.315.769,0,.913-.952,1.856-1.874,2.79-2.8C1708.528,400.05,1708.7,399.9,1708.643,399.657Zm2.964-21.4c-1.215-.588-1.216-.588-2.109.307-1.072,1.073-2.14,2.151-3.217,3.22-.806.8-1.365.8-2.166,0-1.076-1.07-2.144-2.148-3.217-3.222-.882-.884-.883-.883-2.121-.313.984,1.381,1.958,2.758,2.944,4.128.565.786.992,1.871,1.763,2.252.8.4,1.943.108,2.936.119a1.434,1.434,0,0,1,.149,0,.61.61,0,0,0,.624-.3Q1709.389,381.35,1711.607,378.256Zm-4.652,11.252c-.042-.275-.081-.514-.116-.753-.236-1.605-.236-1.605-1.835-1.61-1.157,0-1.159,0-1.368,1.1-.077.409-.14.82-.215,1.263Zm-23.285,3.654c0-1.234,0-1.234-1.237-1.234-1.16,0-1.16,0-1.16,1.162,0,1.234,0,1.234,1.237,1.234C1683.67,394.323,1683.67,394.323,1683.67,393.161Zm44.177,1.162c1.27,0,1.27,0,1.27-1.275,0-1.121,0-1.121-1.125-1.121-1.271,0-1.271,0-1.27,1.274C1726.722,394.323,1726.722,394.323,1727.847,394.323ZM1696.8,363.832c.137-.449-.021-.637-.541-.614-.423.019-.685.034-.647.579.03.421.038.689.583.645C1696.6,364.409,1696.952,364.431,1696.8,363.832Zm17.949.027c.1-.467-.042-.663-.559-.642-.437.017-.665.062-.638.59.022.436.064.67.591.637C1714.567,364.417,1714.886,364.4,1714.748,363.859Z" transform="translate(-1669.313 -344.1)" fill="#010101"/>
    <path id="Trazado_628704" data-name="Trazado 628704" d="M1680.154,342.442c2.292,0,4.584,0,6.876,0a3.581,3.581,0,0,1,3.81,3.773q.011,6.987,0,13.974a3.579,3.579,0,0,1-3.811,3.773q-6.951.009-13.9,0a3.583,3.583,0,0,1-3.81-3.774q-.01-6.987,0-13.974a3.585,3.585,0,0,1,3.811-3.772C1675.47,342.438,1677.812,342.442,1680.154,342.442Zm-8.42,17.932c.133.853.479,1.194,1.306,1.2q7.053.012,14.1,0a1.179,1.179,0,0,0,1.3-1.3q.015-7.051,0-14.1c0-.828-.34-1.171-1.2-1.307-4.772-.008-9.543-.022-14.315-.018a1.141,1.141,0,0,0-1.22,1.22C1671.71,350.833,1671.725,355.6,1671.734,360.374Z" transform="translate(-1669.312 -342.44)" fill="#010101"/>
    <path id="Trazado_628705" data-name="Trazado 628705" d="M1737.027,353.133a10.763,10.763,0,1,1,10.562,10.83A10.769,10.769,0,0,1,1737.027,353.133Zm17.784-4.4c-.161-.248-.3-.513-.484-.742a8.365,8.365,0,0,0-13.445.508c-2.668,3.9-1.5,9.5,2.436,11.724a7.907,7.907,0,0,0,7.19.888C1755.621,359.409,1757.85,352.949,1754.811,348.731Z" transform="translate(-1686.792 -342.442)" fill="#030304"/>
    <path id="Trazado_628706" data-name="Trazado 628706" d="M1745.4,423.649c-2.591,0-5.181-.013-7.77.012-.5.005-.614-.144-.612-.623q.024-7.768,0-15.538c0-.424.059-.618.556-.6,1.244.039,2.49.027,3.735,0,.386-.007.519.1.508.5-.027.97-.018,1.941-.006,2.913a1.216,1.216,0,0,0,1.381,1.376q2.2.018,4.408,0a1.219,1.219,0,0,0,1.382-1.375c.013-.971.021-1.943-.005-2.913-.011-.4.118-.507.507-.5,1.269.022,2.54.025,3.81,0,.421-.009.481.161.481.524q-.013,7.844.007,15.687c0,.511-.2.547-.613.545C1750.577,423.642,1747.986,423.649,1745.4,423.649Z" transform="translate(-1686.789 -359.079)" fill="#bcaa93"/>
    <path id="Trazado_628707" data-name="Trazado 628707" d="M1692.5,415.278c0,2.59-.013,5.18.012,7.769.005.5-.142.614-.623.612q-7.77-.024-15.54,0c-.516,0-.6-.174-.6-.634q.022-7.769,0-15.537c0-.443.087-.606.568-.592q1.829.056,3.66,0c.475-.014.591.136.573.588-.034.92-.016,1.842-.008,2.763.009.99.43,1.433,1.393,1.441q2.2.017,4.408,0a1.219,1.219,0,0,0,1.372-1.386c.012-.921.038-1.844-.01-2.763-.028-.548.168-.659.672-.642,1.144.037,2.292.042,3.436,0,.55-.021.711.116.7.688C1692.486,410.149,1692.5,412.713,1692.5,415.278Z" transform="translate(-1670.975 -359.079)" fill="#bcaa93"/>
    <path id="Trazado_628708" data-name="Trazado 628708" d="M1697.77,414.238q-.012-6.908-.024-13.816c0-1.379-.342-1.706-1.711-1.731-.611-.011-1.424.283-1.777-.132-.3-.352-.122-1.14-.091-1.732a2.6,2.6,0,0,0-.468-1.607q-3.224-5.022-6.419-10.063c-.144-.228-.282-.46-.494-.8h4.219c.34,0,.438.3.6.5,3.16,3.847,6.324,7.69,9.449,11.566.461.572.711.576,1.242.1,1.127-1.005,1.154-.97.214-2.117-1.277-1.559-2.541-3.131-3.836-4.676-.3-.361-.283-.521.119-.776,1.722-1.089,1.889-1.07,3.061.568,1.273,1.781,2.533,3.572,3.827,5.338a1.427,1.427,0,0,1,.278,1.174c-.722,4.265-1.418,8.534-2.163,12.795a1.835,1.835,0,0,0,.575,1.8c1.208,1.182,2.377,2.4,3.563,3.609Z" transform="translate(-1673.823 -353.259)" fill="#5fd2db"/>
    <path id="Trazado_628709" data-name="Trazado 628709" d="M1706.029,435.089q-16.365,0-32.729.013c-.6,0-.8-.106-.783-.754.05-1.649.014-1.651,1.666-1.651q32.243,0,64.487-.013c.651,0,.887.119.86.829-.061,1.574-.018,1.576-1.592,1.576Z" transform="translate(-1670.139 -365.736)" fill="#c5c4c8"/>
    <path id="Trazado_628710" data-name="Trazado 628710" d="M1701.58,420.528h10.167c.271.25.542.5.815.751a1.218,1.218,0,0,0,1.9.006c.632-.591,1.245-1.2,1.866-1.806a1.149,1.149,0,0,0,.643-.151,14.472,14.472,0,0,0,8.2-10.153c.044-.191,0-.411.274-.456.011,2.339.027,4.677.032,7.017.006,2.589,0,5.178.006,7.766,0,.388,0,.631-.531.629q-11.428-.028-22.857,0c-.42,0-.56-.111-.545-.54C1701.584,422.569,1701.573,421.548,1701.58,420.528Z" transform="translate(-1677.633 -359.55)" fill="#50b2ba"/>
    <path id="Trazado_628711" data-name="Trazado 628711" d="M1730.585,403.753c-.272.045-.231.264-.275.456a14.472,14.472,0,0,1-8.2,10.153,1.15,1.15,0,0,1-.643.151c.87-.887,1.729-1.786,2.614-2.657a1.669,1.669,0,0,0,.5-1.618c-.739-4.286-1.449-8.577-2.175-12.865a1.427,1.427,0,0,1,.267-1.175q2.309-3.165,4.552-6.376a.608.608,0,0,1,.848-.27c2.105.754,2.139.835.775,2.51-1.194,1.467-2.382,2.938-3.594,4.39-.257.307-.3.461.044.753,1.425,1.209,1.412,1.223,2.6-.213q1.284-1.551,2.573-3.1c.244.22.143.512.145.773.009,1.688,0,3.378.009,5.066,0,.257-.107.558.185.75C1730.419,401.552,1730.72,402.667,1730.585,403.753Z" transform="translate(-1682.777 -354.583)" fill="#5fd2db"/>
    <path id="Trazado_628712" data-name="Trazado 628712" d="M1712.116,373.4a5.433,5.433,0,0,1-2.475-4.521c-.082-2.087-.017-4.179-.032-6.269,0-.312.06-.533.381-.626a.891.891,0,0,0,.131-.071,13.334,13.334,0,0,1,3.151-1.478c1.112-.208,2.257.443,3.39.7,1.257.289,2.5.634,3.75.955-.01,1.418,0,2.837-.037,4.255a7.052,7.052,0,0,1-3.026,5.706A7.822,7.822,0,0,1,1712.116,373.4Z" transform="translate(-1679.712 -347.074)" fill="#f7daaf"/>
    <path id="Trazado_628713" data-name="Trazado 628713" d="M1722.807,359.853c-.213-1.482-.3-1.564-1.769-1.929-2.823-.7-5.647-1.392-8.462-2.12a1.975,1.975,0,0,0-1.5.182c-1.3.673-2.624,1.318-3.938,1.972-1.068.532-1.122.616-1.2,1.889a2.2,2.2,0,0,1-1.179-2.111,6.032,6.032,0,0,1,5.687-5.611q3.884-.095,7.772,0a5.99,5.99,0,0,1,5.682,6.282C1723.866,359.138,1723.205,359.351,1722.807,359.853Z" transform="translate(-1678.461 -344.928)" fill="#88878e"/>
    <path id="Trazado_628714" data-name="Trazado 628714" d="M1733.94,399.157c-.292-.192-.183-.493-.185-.75-.009-1.688,0-3.378-.009-5.066,0-.261.1-.553-.145-.773q3.225-3.959,6.445-7.922a.725.725,0,0,1,.63-.3c1.292.012,2.585.005,3.9.005,0,.379-.264.6-.429.858-1.9,2.977-3.778,5.962-5.718,8.91a5.309,5.309,0,0,0-1.085,3.83c.1.639-.161.831-.772.757-.417-.05-.846.016-1.267-.016A1.767,1.767,0,0,0,1733.94,399.157Z" transform="translate(-1685.908 -353.257)" fill="#50b2ba"/>
    <path id="Trazado_628715" data-name="Trazado 628715" d="M1719.929,414.64c.06.246-.114.393-.275.552-.934.931-1.878,1.853-2.79,2.8-.3.311-.479.3-.769,0q-1.349-1.394-2.748-2.74a.931.931,0,0,1-.29-.928c.4-2.326.8-4.652,1.169-6.982.058-.363.211-.438.535-.434,1.144.014,2.289.01,3.433.008.26,0,.471-.005.529.353.386,2.4.792,4.8,1.192,7.2C1719.923,414.522,1719.923,414.572,1719.929,414.64Z" transform="translate(-1680.599 -359.082)" fill="#ed7f5e"/>
    <path id="Trazado_628716" data-name="Trazado 628716" d="M1721.859,388.34q-2.212,3.1-4.413,6.2a.61.61,0,0,1-.624.3,1.438,1.438,0,0,0-.149,0c-.993-.011-2.134.278-2.936-.119-.771-.381-1.2-1.467-1.763-2.252-.985-1.37-1.959-2.747-2.944-4.128,1.238-.57,1.239-.571,2.121.313,1.073,1.074,2.14,2.152,3.217,3.222.8.8,1.36.8,2.166,0,1.077-1.069,2.145-2.147,3.217-3.22C1720.643,387.752,1720.644,387.752,1721.859,388.34Z" transform="translate(-1679.565 -354.184)" fill="#ed7f5e"/>
    <path id="Trazado_628717" data-name="Trazado 628717" d="M1712.992,373.987a7.822,7.822,0,0,0,5.232-1.346,7.053,7.053,0,0,0,3.026-5.706c.038-1.418.027-2.836.037-4.255a3.723,3.723,0,0,0,.44.082c.574.041.757.309.741.907-.048,1.892.032,3.788-.034,5.678a5.7,5.7,0,0,1-3.2,5.12,5.786,5.786,0,0,1-6.033-.279A1.317,1.317,0,0,1,1712.992,373.987Z" transform="translate(-1680.588 -347.665)" fill="#f4c381"/>
    <path id="Trazado_628718" data-name="Trazado 628718" d="M1757.469,377.938c.344.058.13.249.07.366a3.32,3.32,0,0,1-2.956,1.97c-3.556.061-7.114.021-10.718.021a1.934,1.934,0,0,1,.71-1.2c3.129.005,6.258-.01,9.387.026A5.339,5.339,0,0,0,1757.469,377.938Z" transform="translate(-1688.557 -351.604)" fill="#f4c381"/>
    <path id="Trazado_628719" data-name="Trazado 628719" d="M1685.982,379.091a2.2,2.2,0,0,1,.711,1.07c-.108.215-.278.137-.41.138-3.338,0-6.675.015-10.013,0a3.5,3.5,0,0,1-3.217-1.93c-.064-.116-.369-.324.036-.429a4.645,4.645,0,0,0,2.76,1.157C1679.227,379.12,1682.6,379.1,1685.982,379.091Z" transform="translate(-1670.234 -351.604)" fill="#f4c381"/>
    <path id="Trazado_628720" data-name="Trazado 628720" d="M1686.054,379.084c-3.378.005-6.754.029-10.132,0a4.644,4.644,0,0,1-2.76-1.157c3.5-.007,7-.036,10.5-.007A2.979,2.979,0,0,1,1686.054,379.084Z" transform="translate(-1670.306 -351.597)" fill="#f7daaf"/>
    <path id="Trazado_628721" data-name="Trazado 628721" d="M1757.716,377.931a5.339,5.339,0,0,1-3.508,1.179c-3.129-.036-6.258-.021-9.387-.026a2.984,2.984,0,0,1,2.392-1.16C1750.714,377.895,1754.215,377.924,1757.716,377.931Z" transform="translate(-1688.804 -351.597)" fill="#f7daaf"/>
    <path id="Trazado_628722" data-name="Trazado 628722" d="M1716.567,387.784c-.569-.55-1.13-1.109-1.711-1.648a.659.659,0,0,1-.2-.665c.15-.855.312-1.708.427-2.568.046-.344.191-.419.486-.343a10.218,10.218,0,0,0,1.926.137c.185,1.066.362,2.133.56,3.2a.665.665,0,0,1-.188.673C1717.429,386.971,1717,387.378,1716.567,387.784Z" transform="translate(-1681.012 -352.79)" fill="#f7daaf"/>
    <path id="Trazado_628723" data-name="Trazado 628723" d="M1718.822,402.827h-3.533c.075-.443.137-.855.214-1.263.208-1.1.212-1.1,1.368-1.1,1.6,0,1.6,0,1.835,1.61C1718.742,402.313,1718.78,402.551,1718.822,402.827Z" transform="translate(-1681.181 -357.419)" fill="#f4c381"/>
    <path id="Trazado_628724" data-name="Trazado 628724" d="M1687.831,408.145c0,1.162,0,1.162-1.159,1.162-1.237,0-1.237,0-1.237-1.234,0-1.162,0-1.162,1.16-1.162C1687.831,406.911,1687.831,406.911,1687.831,408.145Z" transform="translate(-1673.474 -359.083)" fill="#f4c381"/>
    <path id="Trazado_628725" data-name="Trazado 628725" d="M1747.823,409.306c-1.125,0-1.125,0-1.125-1.121,0-1.275,0-1.275,1.27-1.275,1.125,0,1.125,0,1.125,1.121C1749.093,409.306,1749.093,409.306,1747.823,409.306Z" transform="translate(-1689.289 -359.083)" fill="#f4c381"/>
    <path id="Trazado_628726" data-name="Trazado 628726" d="M1719.507,383.659c.367,2.53.36,2.523-1.649,4.252-.311.268-.458.186-.619-.108.432-.406.862-.813,1.3-1.217a.665.665,0,0,0,.188-.673c-.2-1.063-.375-2.13-.56-3.2,1.176-.218,1.176-.218,1.344.942" transform="translate(-1681.684 -352.809)" fill="#f4c381"/>
    <path id="Trazado_628727" data-name="Trazado 628727" d="M1705.948,368.825c.154.6-.2.576-.605.611-.545.044-.553-.224-.583-.645-.038-.545.224-.561.647-.579C1705.927,368.188,1706.086,368.376,1705.948,368.825Z" transform="translate(-1678.462 -349.092)" fill="#bcaa93"/>
    <path id="Trazado_628728" data-name="Trazado 628728" d="M1730.14,368.851c.138.545-.181.558-.606.585-.527.033-.569-.2-.591-.636-.027-.527.2-.573.638-.59C1730.1,368.189,1730.241,368.384,1730.14,368.851Z" transform="translate(-1684.705 -349.092)" fill="#bcaa93"/>
    <path id="Trazado_628729" data-name="Trazado 628729" d="M1672.57,361.209c-.009-4.771-.024-9.541-.019-14.312a1.141,1.141,0,0,1,1.22-1.22c4.772,0,9.543.01,14.315.018q0,6.5,0,12.991a2.418,2.418,0,0,1-2.527,2.527Q1679.067,361.215,1672.57,361.209Zm8.422-8.367h-4.257c-1.822,0-1.8,0-1.812,1.792,0,.487.125.616.613.612,3.187-.022,6.374-.012,9.561-.012,1.849,0,1.834,0,1.811-1.866-.005-.42-.114-.541-.537-.536C1684.577,352.856,1682.785,352.842,1680.992,352.842Zm-.079,4.784h-4.183c-1.818,0-1.8,0-1.808,1.8,0,.494.136.611.617.608,3.187-.022,6.374-.011,9.561-.011,1.847,0,1.831,0,1.806-1.87-.005-.427-.125-.536-.541-.531C1684.548,357.638,1682.731,357.626,1680.913,357.626Zm2.351-7.174h1.867c1.8,0,1.778,0,1.777-1.824,0-.453-.1-.59-.57-.58-1.593.033-3.186.013-4.779.013-1.9,0-1.892,0-1.849,1.9.008.38.094.513.493.5C1681.222,350.433,1682.243,350.451,1683.264,350.451Zm-7.108-2.392c-1.221,0-1.221,0-1.221,1.246,0,1.146,0,1.146,1.171,1.146,1.221,0,1.221,0,1.221-1.245C1677.327,348.06,1677.327,348.06,1676.156,348.06Z" transform="translate(-1670.148 -343.276)" fill="#e9e4dd"/>
    <path id="Trazado_628730" data-name="Trazado 628730" d="M1672.577,361.215q6.5,0,12.993,0a2.418,2.418,0,0,0,2.527-2.527q0-6.5,0-12.991c.855.136,1.194.479,1.2,1.307q.012,7.051,0,14.1a1.179,1.179,0,0,1-1.3,1.3q-7.053.014-14.1,0C1673.055,362.41,1672.71,362.069,1672.577,361.215Z" transform="translate(-1670.155 -343.282)" fill="#d5cabc"/>
    <path id="Trazado_628731" data-name="Trazado 628731" d="M1744.158,361.057c-3.94-2.225-5.1-7.827-2.436-11.724a8.365,8.365,0,0,1,13.444-.508c.183.229.323.494.484.742a13.807,13.807,0,0,1,.026,3.615,9.444,9.444,0,0,1-6.114,7.44A10.26,10.26,0,0,1,1744.158,361.057Zm3.275-3.432a1.527,1.527,0,0,0,1.084-.576q2.238-2.245,4.482-4.483c1.316-1.315,1.3-1.3-.053-2.608-.321-.308-.486-.263-.768.026-1.093,1.122-2.206,2.223-3.318,3.326-.457.453-.91,1.217-1.4,1.247-.57.033-.984-.8-1.455-1.262-1.373-1.348-1.355-1.347-2.663.037-.266.281-.283.439,0,.712,1.069,1.039,2.116,2.1,3.171,3.157A1.3,1.3,0,0,0,1747.433,357.625Z" transform="translate(-1687.632 -343.277)" fill="#67a3f6"/>
    <path id="Trazado_628732" data-name="Trazado 628732" d="M1745.507,362.409a10.259,10.259,0,0,0,5.405-.435,9.444,9.444,0,0,0,6.114-7.44,13.806,13.806,0,0,0-.026-3.615c3.04,4.218.81,10.678-4.3,12.379A7.907,7.907,0,0,1,1745.507,362.409Z" transform="translate(-1688.982 -344.629)" fill="#3f87f3"/>
    <path id="Trazado_628733" data-name="Trazado 628733" d="M1681.817,355.333c1.793,0,3.585.013,5.378-.01.424-.005.532.116.537.536.023,1.867.038,1.866-1.811,1.866-3.187,0-6.374-.01-9.561.012-.488,0-.615-.125-.613-.612.01-1.791-.01-1.792,1.812-1.792Z" transform="translate(-1670.973 -345.766)" fill="#010101"/>
    <path id="Trazado_628734" data-name="Trazado 628734" d="M1681.738,361.781c1.817,0,3.635.012,5.453-.01.416-.005.536.1.541.531.025,1.87.04,1.87-1.806,1.87-3.187,0-6.374-.01-9.561.011-.481,0-.62-.114-.617-.608.01-1.8-.01-1.8,1.808-1.8Z" transform="translate(-1670.973 -347.43)" fill="#010101"/>
    <path id="Trazado_628735" data-name="Trazado 628735" d="M1685.751,351.276c-1.021,0-2.042-.019-3.062.01-.4.011-.485-.122-.493-.5-.043-1.9-.055-1.9,1.849-1.9,1.594,0,3.186.02,4.779-.013.471-.01.57.128.57.58,0,1.824.019,1.824-1.777,1.824Z" transform="translate(-1672.635 -344.1)" fill="#010101"/>
    <path id="Trazado_628736" data-name="Trazado 628736" d="M1676.986,348.889c1.171,0,1.171,0,1.171,1.147,0,1.245,0,1.245-1.221,1.245-1.171,0-1.171,0-1.171-1.146C1675.765,348.889,1675.765,348.889,1676.986,348.889Z" transform="translate(-1670.978 -344.105)" fill="#010101"/>
    <path id="Trazado_628737" data-name="Trazado 628737" d="M1748.426,359.039a1.3,1.3,0,0,1-.922-.425c-1.056-1.054-2.1-2.117-3.171-3.157-.28-.273-.263-.431,0-.712,1.308-1.384,1.291-1.385,2.663-.037.472.463.885,1.3,1.455,1.262.491-.03.944-.794,1.4-1.247,1.112-1.1,2.226-2.2,3.318-3.326.281-.289.446-.334.768-.026,1.357,1.3,1.369,1.293.053,2.608q-2.241,2.241-4.482,4.483A1.527,1.527,0,0,1,1748.426,359.039Z" transform="translate(-1688.625 -344.691)" fill="#030304"/>
  </g>
</svg>
