<svg id="Grupo_952054" data-name="Grupo 952054" xmlns="http://www.w3.org/2000/svg" width="86.425" height="86.425" viewBox="0 0 86.425 86.425">
  <rect id="Rectángulo_306506" data-name="Rectángulo 306506" width="86.425" height="86.425" transform="translate(0)" fill="none"/>
  <g id="Grupo_952058" data-name="Grupo 952058" transform="translate(5.832 5.836)">
    <path id="Trazado_628663" data-name="Trazado 628663" d="M1830.135,117.97a4.844,4.844,0,0,1,2.883,6.934,4.691,4.691,0,0,1-3.944,2.512c-.427.032-.635.115-.781.57a9.371,9.371,0,0,1-3.891,5.1.765.765,0,0,0-.449.764c.043.7-.216,1.553.1,2.065.332.539,1.28.344,1.956.47,1.9.351,3.811.627,5.7,1a8.269,8.269,0,0,1,6.693,7.926c.058,5.524.014,11.049.033,16.573,0,.447-.147.524-.552.524q-18.724-.015-37.448.005c-.519,0-.6-.167-.6-.631.016-5.374-.007-10.748.016-16.122a8.431,8.431,0,0,1,7.323-8.416c2.206-.34,4.4-.726,6.609-1.073.385-.061.51-.193.549-.61a3.035,3.035,0,0,0-1.411-3.25,7.73,7.73,0,0,1-2.949-4.341.653.653,0,0,0-.719-.545,4.774,4.774,0,0,1-3.829-7.324,1.127,1.127,0,0,0,.152-.972c-.277-1.04-.577-2.079-.763-3.138a6.475,6.475,0,0,1,2.805-6.813,9.33,9.33,0,0,0,1.618-1.434,9.191,9.191,0,0,1,6.955-3.209,10.953,10.953,0,0,1,6.45,1.337c.219.138.362.055.523-.1,2.274-2.127,5.962-1.2,7.917.518a7.2,7.2,0,0,1-.4,11.263Zm-7.937,29.692c-.2.82-.669,1.37-.5,2.154.68,3.212,1.318,6.433,1.942,9.656.081.418.234.526.631.519,1.281-.022,2.563-.043,3.841.008.586.023.693-.166.689-.711-.025-3.641-.013-7.282-.013-10.922,0-1.648,0-1.621,1.686-1.657.584-.012.746.137.741.734-.029,3.942,0,7.885-.031,11.826,0,.608.172.749.747.728,1.153-.044,2.31-.034,3.464,0,.466.012.641-.082.638-.6-.023-4.62.006-9.24-.022-13.86a5.877,5.877,0,0,0-4.632-5.751c-1.589-.354-3.209-.568-4.811-.867-.417-.078-.5.081-.532.456q-.416,4.345-.876,8.687a19.786,19.786,0,0,1-.35,2.85Zm-8.77,3.3c-.066-.577-.12-1.013-.164-1.449-.342-3.37-.689-6.739-1.015-10.111-.039-.406-.111-.559-.575-.47-1.427.271-2.868.481-4.3.724a5.986,5.986,0,0,0-5.1,5.842c-.031,4.645,0,9.291-.023,13.936,0,.5.179.568.607.559,1.18-.025,2.362-.041,3.541.005.563.022.707-.129.7-.7-.028-3.641-.015-7.282-.015-10.923,0-1.659,0-1.621,1.674-1.673.672-.021.755.215.751.8-.026,3.942,0,7.885-.026,11.827,0,.524.122.681.657.663,1.28-.042,2.562-.031,3.842,0,.442.01.585-.124.669-.567.573-3,1.147-6.008,1.809-8.993a3.349,3.349,0,0,0-.446-2.686Zm6.464-34.374v0c2.209,0,4.42.033,6.628-.008a4.816,4.816,0,0,0-.135-9.63,2.414,2.414,0,0,0-2.264,3.262c.4,1.06,1.3,1.557,2.808,1.558,1.982,0,1.972,0,1.865,1.942-.02.352-.113.486-.475.475-.778-.024-1.559.026-2.334-.025a4.784,4.784,0,0,1-4.363-5.439c.108-.565-.094-.756-.506-.976a9.8,9.8,0,0,0-5.811-.716,6.148,6.148,0,0,0-4.3,2.37,7.154,7.154,0,0,1-1.833,1.633,4.309,4.309,0,0,0-2,2.882c-.287,1.377.316,2.612.559,3.906.04.21.172.232.393.2,1.373-.188,1.375-.178,1.375-1.636,0-.352-.006-.7,0-1.055a3.66,3.66,0,0,1,3.11-3.535c1.643-.248,1.671-.188,1.729,1.455.026.743-.144,1.009-.93.948-.945-.073-1.5.432-1.493,1.188s.548,1.2,1.5,1.2Q1816.653,116.593,1819.892,116.588Zm-7.985,6.053a27.764,27.764,0,0,0,.137,3.764,7.277,7.277,0,0,0,7.122,5.852,7.19,7.19,0,0,0,7.061-5.906c.349-2.215.055-4.457.161-6.683.028-.6-.177-.683-.71-.68-4.063.022-8.127.013-12.191.011a3.167,3.167,0,0,1-1.118-.1c-.363-.133-.476-.017-.468.366C1811.921,120.32,1811.908,121.373,1811.908,122.641Zm7.172,37.343c.6,0,1.206-.011,1.808.005.3.008.4-.076.339-.386q-.9-4.457-1.791-8.917c-.036-.183-.067-.352-.308-.342s-.249.194-.284.369q-.885,4.422-1.779,8.843c-.068.334.01.449.358.435C1817.974,159.967,1818.528,159.984,1819.079,159.984Zm2.473-25.632a9.477,9.477,0,0,1-4.84,0c.113.888-.258,1.786.2,2.541.572.936,1.309,1.771,1.956,2.663.219.3.35.253.547-.016.634-.871,1.282-1.731,1.936-2.587a.935.935,0,0,0,.2-.621C1821.545,135.7,1821.552,135.078,1821.552,134.352Zm-6.327,10.514c.8-.992,1.461-1.833,2.14-2.663a.443.443,0,0,0,.011-.651c-.72-.93-1.416-1.878-2.121-2.82-.12-.159-.227-.356-.471-.29-.294.079-.171.331-.154.5C1814.815,140.859,1815.013,142.775,1815.225,144.866Zm7.832,0c.212-2.122.411-4.076.6-6.03.012-.134.074-.31-.124-.381s-.333.037-.443.185c-.734.982-1.461,1.97-2.207,2.943a.406.406,0,0,0,.007.59C1821.582,143.017,1822.264,143.873,1823.058,144.862ZM1809.5,122.622c0-.651-.027-1.3.009-1.953.025-.44-.136-.506-.52-.419a2.42,2.42,0,0,0-.012,4.725c.362.084.56.067.532-.4C1809.468,123.926,1809.5,123.273,1809.5,122.622Zm19.287-.014c0,.651.026,1.3-.009,1.953-.022.434.127.509.518.42a2.42,2.42,0,0,0,.015-4.725c-.358-.082-.562-.07-.533.4C1828.814,121.3,1828.784,121.957,1828.784,122.607Zm-9.616,25.318c.27.051.408-.069.5-.322a10.408,10.408,0,0,1,.535-1.319,1.084,1.084,0,0,0-.183-1.39c-.91-1.041-.885-1.073-1.772.067-.2.251-.556.438-.336.893a16.887,16.887,0,0,1,.7,1.737A.44.44,0,0,0,1819.168,147.925Z" transform="translate(-1763.681 -87.657)" fill="#020202"/>
    <path id="Trazado_628664" data-name="Trazado 628664" d="M1767.1,163.209c-4.17,0-8.339-.011-12.508.013-.545,0-.708-.1-.7-.684.029-4.194.01-8.387.025-12.581a1.456,1.456,0,0,0-.445-1.117,6.912,6.912,0,0,1-1.967-4.748,23.381,23.381,0,0,1,2.319-11.079,24.193,24.193,0,0,0,2.511-11.333,19.743,19.743,0,0,1,.4-6.058,10.862,10.862,0,0,1,10.329-7.857,19.255,19.255,0,0,1,5.315.356,10.932,10.932,0,0,1,8.021,9.672,31.6,31.6,0,0,0,1.179,4.491,34.946,34.946,0,0,1,1.277,7.394.733.733,0,0,1-.65.867c-.867.239-1.705.584-2.568.843a.5.5,0,0,0-.42.585c.018.928.022,1.858,0,2.787a4.358,4.358,0,0,1-4.378,4.339c-1.645.031-1.585.034-1.666,1.673a3.319,3.319,0,0,0,.94,2.533,25.282,25.282,0,0,1,6.308,16.5c.019.9-.028,1.81.02,2.711.029.547-.1.71-.683.706C1775.542,163.195,1771.322,163.209,1767.1,163.209Zm6.3-45.807c1.306,0,2.612-.029,3.917.013.571.019.609-.186.489-.648a8.39,8.39,0,0,0-5.617-6.168,14.741,14.741,0,0,0-5.371-.406,8.41,8.41,0,0,0-7.793,6.225,21.957,21.957,0,0,0-.282,5.769,25.105,25.105,0,0,1-2.519,11.344,21.479,21.479,0,0,0-2.1,6.789,12.374,12.374,0,0,0,.005,5.009,4.809,4.809,0,0,0,9.413-1.32c.031-3.213,0-6.427.023-9.641a.929.929,0,0,0-.541-.868,3.965,3.965,0,0,1-1.826-4.086,3.921,3.921,0,0,1,3.081-3.41.884.884,0,0,0,.761-.9c.179-1.393.362-2.786.6-4.17a4.134,4.134,0,0,1,4.148-3.531C1770.991,117.392,1772.2,117.4,1773.4,117.4Zm-1.408,43.395c1.809,0,3.616-.019,5.424.013.508.009.648-.151.607-.631-.074-.874-.066-1.758-.165-2.628a23.152,23.152,0,0,0-6.079-13.314.868.868,0,0,0-.711-.322c-1.531.016-3.063.025-4.594,0-.452-.009-.519.165-.542.56a6.8,6.8,0,0,1-.632,2.461,7.218,7.218,0,0,1-8.311,4c-.374-.091-.706-.287-.685.393.043,1.379.025,2.761.005,4.142-.005.374.072.525.49.521q3.125-.031,6.252,0c.394,0,.521-.1.507-.5-.029-.878-.009-1.757-.009-2.636,0-1.7,0-1.664,1.713-1.709.64-.017.715.222.71.764-.023,2.761,0,5.523-.022,8.285,0,.487.12.633.618.625C1768.378,160.778,1770.186,160.8,1771.994,160.8Zm-6.03-23.951c0,1.355.025,2.711-.013,4.066-.014.507.148.631.628.61.827-.038,1.656-.01,2.485-.01,1.734,0,1.714,0,1.734-1.75.006-.5-.09-.682-.642-.675-1.814.022-1.8,0-1.795-1.826,0-.461.11-.589.58-.583,1.907.029,3.815.019,5.722.01a1.966,1.966,0,0,0,2.147-2.15c.009-1.355.025-2.711-.01-4.066-.014-.5.1-.755.621-.89.822-.212,1.612-.542,2.426-.791.4-.121.537-.28.476-.74a53.459,53.459,0,0,0-1.8-7.67.656.656,0,0,0-.77-.576c-2.535.022-5.07.009-7.606.012-1.439,0-2.028.546-2.22,1.985-.256,1.913-.55,3.821-.794,5.736-.073.577-.275.834-.889.727a4.159,4.159,0,0,0-1.052,0,1.8,1.8,0,0,0-1.6,1.378,1.761,1.761,0,0,0,.8,1.883,4.915,4.915,0,0,0,.936.476.876.876,0,0,1,.648,1.005C1765.932,134.285,1765.964,135.566,1765.964,136.846Zm-6.036,23.951h1.8c1.868,0,1.855,0,1.829-1.874-.006-.417-.1-.552-.537-.546-1.629.025-3.259.01-4.888.01-1.869,0-1.855,0-1.829,1.874.005.417.1.559.537.545C1757.872,160.776,1758.9,160.8,1759.928,160.8Z" transform="translate(-1751.494 -88.471)" fill="#020202"/>
    <path id="Trazado_628665" data-name="Trazado 628665" d="M1790.587,81.976q4.069,0,8.138,0a4.819,4.819,0,0,1,5.084,5.037q.012,3.5,0,7.006a4.6,4.6,0,0,1-4.38,4.811c-.366.034-.47.127-.448.48.029.475.017.954,0,1.431a2.813,2.813,0,0,1-1.812,2.7,2.739,2.739,0,0,1-3.129-.613c-1.2-1.145-2.366-2.322-3.514-3.517a1.461,1.461,0,0,0-1.182-.473c-2.411.021-4.822.016-7.233.007a4.622,4.622,0,0,1-4.826-4.834q-.01-3.5,0-7.006a4.816,4.816,0,0,1,5.011-5.033C1785.061,81.97,1787.824,81.976,1790.587,81.976Zm-.048,2.411q-4.1,0-8.211,0a2.427,2.427,0,0,0-2.629,2.62q-.009,3.464,0,6.929a2.257,2.257,0,0,0,2.515,2.5c2.712,0,5.424.016,8.136-.013a1.547,1.547,0,0,1,1.235.528c1.293,1.334,2.617,2.638,3.932,3.95.191.191.374.435.705.3s.359-.435.357-.752c-.009-1.129.017-2.259-.013-3.389-.013-.464.075-.678.6-.633.6.051,1.2.016,1.807.011A2.242,2.242,0,0,0,1801.4,94q.009-3.464,0-6.929a2.44,2.44,0,0,0-2.722-2.68Q1794.607,84.384,1790.539,84.388Z" transform="translate(-1757.995 -81.974)" fill="#020202"/>
    <path id="Trazado_628666" data-name="Trazado 628666" d="M1829.552,159.248l2.611,3.243a19.786,19.786,0,0,0,.35-2.85q.464-4.341.876-8.687c.036-.375.115-.534.532-.456,1.6.3,3.222.513,4.811.867a5.877,5.877,0,0,1,4.632,5.751c.029,4.62,0,9.24.022,13.86,0,.521-.173.616-.639.6-1.154-.03-2.311-.04-3.464,0-.575.022-.752-.12-.748-.728.031-3.942,0-7.884.031-11.826,0-.6-.157-.746-.741-.734-1.685.036-1.686.009-1.686,1.657,0,3.64-.012,7.281.013,10.922,0,.544-.1.734-.689.711-1.279-.051-2.561-.029-3.841-.007-.4.007-.551-.1-.631-.519-.624-3.224-1.261-6.444-1.942-9.656C1828.883,160.619,1829.352,160.069,1829.552,159.248Z" transform="translate(-1771.036 -99.243)" fill="#80b0eb"/>
    <path id="Trazado_628667" data-name="Trazado 628667" d="M1814.24,162.554l2.588-3.215a3.349,3.349,0,0,1,.446,2.686c-.662,2.985-1.236,5.989-1.809,8.993-.084.443-.228.577-.669.567-1.28-.028-2.562-.039-3.842,0-.535.018-.661-.138-.657-.663.023-3.942,0-7.885.026-11.827,0-.587-.08-.823-.751-.8-1.673.052-1.674.014-1.674,1.673,0,3.641-.013,7.282.015,10.923,0,.568-.14.72-.7.7-1.179-.046-2.36-.031-3.541-.005-.427.009-.609-.057-.607-.559.022-4.645-.008-9.291.023-13.936a5.985,5.985,0,0,1,5.1-5.842c1.433-.243,2.873-.452,4.3-.724.465-.088.536.064.575.47.326,3.372.673,6.741,1.015,10.111C1814.121,161.541,1814.175,161.977,1814.24,162.554Z" transform="translate(-1764.494 -99.248)" fill="#80b0eb"/>
    <path id="Trazado_628668" data-name="Trazado 628668" d="M1822.337,117.393q-3.239,0-6.478,0c-.953,0-1.5-.447-1.5-1.2s.548-1.261,1.494-1.188c.786.061.957-.206.93-.948-.058-1.643-.086-1.7-1.729-1.455a3.661,3.661,0,0,0-3.11,3.535c-.008.352,0,.7,0,1.055,0,1.458,0,1.449-1.375,1.636-.221.03-.353.008-.393-.2-.242-1.293-.846-2.529-.559-3.906a4.309,4.309,0,0,1,2-2.882,7.149,7.149,0,0,0,1.833-1.633,6.149,6.149,0,0,1,4.3-2.37,9.8,9.8,0,0,1,5.812.716c.411.22.613.411.506.976a4.783,4.783,0,0,0,4.363,5.439c.776.051,1.556,0,2.334.025.362.011.455-.123.475-.475.107-1.942.117-1.941-1.865-1.942-1.511,0-2.408-.5-2.808-1.558a2.414,2.414,0,0,1,2.264-3.262,4.816,4.816,0,0,1,.135,9.63c-2.208.041-4.419.008-6.628.008Z" transform="translate(-1766.126 -88.462)" fill="#a87a4d"/>
    <path id="Trazado_628669" data-name="Trazado 628669" d="M1815.972,127.471c0-1.268.013-2.322-.008-3.375-.007-.383.105-.5.468-.366a3.167,3.167,0,0,0,1.118.1c4.064,0,8.127.011,12.191-.011.534,0,.739.085.711.68-.106,2.227.188,4.469-.162,6.683a7.189,7.189,0,0,1-7.06,5.906,7.277,7.277,0,0,1-7.122-5.852A27.764,27.764,0,0,1,1815.972,127.471Zm4.856,3.591a5.97,5.97,0,0,1-.75-.005c-.487-.064-.522.175-.457.567a3.624,3.624,0,0,0,7.009.607c.375-1.1.327-1.169-.8-1.169-.25,0-.5.013-.751,0a.676.676,0,0,0-.822.492c-.343.871-1.632,1.028-1.966.209S1821.413,131.08,1820.828,131.062Z" transform="translate(-1767.746 -92.487)" fill="#e9cfb5"/>
    <path id="Trazado_628670" data-name="Trazado 628670" d="M1824.877,175.431c-.552,0-1.105-.017-1.657.006-.348.014-.426-.1-.358-.435q.9-4.419,1.779-8.843c.035-.174.041-.359.284-.369s.272.159.308.342q.89,4.458,1.79,8.917c.063.31-.041.394-.339.386C1826.083,175.419,1825.48,175.43,1824.877,175.431Z" transform="translate(-1769.479 -103.103)" fill="#f0d27c"/>
    <path id="Trazado_628671" data-name="Trazado 628671" d="M1827.227,144.406c0,.726-.007,1.351,0,1.976a.935.935,0,0,1-.2.621c-.654.856-1.3,1.716-1.936,2.587-.2.269-.328.318-.547.016-.648-.892-1.385-1.727-1.957-2.663-.462-.755-.091-1.654-.2-2.541A9.477,9.477,0,0,0,1827.227,144.406Z" transform="translate(-1769.356 -97.711)" fill="#e9cfb5"/>
    <path id="Trazado_628672" data-name="Trazado 628672" d="M1820.2,156.3c-.212-2.091-.411-4.007-.595-5.923-.016-.171-.14-.423.154-.5.244-.066.351.131.471.29.7.942,1.4,1.891,2.121,2.82a.443.443,0,0,1-.011.651C1821.659,154.463,1820.993,155.3,1820.2,156.3Z" transform="translate(-1768.653 -99.086)" fill="#6697de"/>
    <path id="Trazado_628673" data-name="Trazado 628673" d="M1830.109,156.292c-.794-.99-1.476-1.845-2.166-2.694a.406.406,0,0,1-.007-.59c.746-.973,1.472-1.961,2.206-2.943.111-.148.242-.258.443-.185s.137.248.125.381C1830.52,152.216,1830.321,154.17,1830.109,156.292Z" transform="translate(-1770.733 -99.086)" fill="#6697de"/>
    <path id="Trazado_628674" data-name="Trazado 628674" d="M1811.939,127.913c0,.651-.029,1.3.01,1.954.028.467-.171.484-.533.4a2.42,2.42,0,0,1,.012-4.725c.384-.087.545-.021.52.419C1811.912,126.61,1811.939,127.263,1811.939,127.913Z" transform="translate(-1766.123 -92.948)" fill="#e6ccb3"/>
    <path id="Trazado_628675" data-name="Trazado 628675" d="M1838.536,127.9c0-.651.03-1.3-.01-1.952-.029-.47.175-.482.533-.4a2.42,2.42,0,0,1-.015,4.725c-.391.089-.54.013-.518-.42C1838.562,129.2,1838.536,128.551,1838.536,127.9Z" transform="translate(-1773.433 -92.948)" fill="#e6ccb3"/>
    <path id="Trazado_628676" data-name="Trazado 628676" d="M1825.236,161.27a.44.44,0,0,1-.562-.334,16.886,16.886,0,0,0-.7-1.737c-.22-.455.14-.642.336-.893.887-1.139.863-1.108,1.772-.067a1.084,1.084,0,0,1,.183,1.39,10.407,10.407,0,0,0-.535,1.319C1825.644,161.2,1825.506,161.321,1825.236,161.27Z" transform="translate(-1769.749 -101.002)" fill="#eec14c"/>
    <path id="Trazado_628677" data-name="Trazado 628677" d="M1774.2,118.21c-1.2,0-2.411-.011-3.615,0a4.134,4.134,0,0,0-4.148,3.531c-.236,1.384-.419,2.777-.6,4.17a.884.884,0,0,1-.761.9,3.921,3.921,0,0,0-3.081,3.41,3.965,3.965,0,0,0,1.826,4.086.929.929,0,0,1,.541.868c-.027,3.214.008,6.428-.023,9.641a4.809,4.809,0,0,1-9.413,1.32,12.374,12.374,0,0,1-.005-5.009,21.479,21.479,0,0,1,2.1-6.789,25.105,25.105,0,0,0,2.519-11.344,21.957,21.957,0,0,1,.282-5.769,8.41,8.41,0,0,1,7.793-6.225,14.742,14.742,0,0,1,5.372.406,8.39,8.39,0,0,1,5.617,6.168c.12.462.083.668-.489.648C1776.813,118.18,1775.506,118.209,1774.2,118.21Z" transform="translate(-1752.292 -89.278)" fill="#f4d57e"/>
    <path id="Trazado_628678" data-name="Trazado 628678" d="M1773.615,172.987c-1.808,0-3.615-.019-5.423.012-.5.008-.622-.138-.618-.625.023-2.761,0-5.523.022-8.285,0-.542-.07-.782-.71-.764-1.711.045-1.713.01-1.713,1.709,0,.879-.019,1.758.009,2.636.013.4-.113.507-.507.5q-3.126-.028-6.252,0c-.417,0-.5-.147-.49-.521.019-1.381.037-2.763-.005-4.142-.021-.681.311-.485.685-.393a7.218,7.218,0,0,0,8.311-4,6.8,6.8,0,0,0,.632-2.461c.023-.4.091-.569.542-.56,1.531.029,3.063.019,4.594,0a.868.868,0,0,1,.711.322,23.151,23.151,0,0,1,6.079,13.314c.1.871.091,1.754.165,2.628.041.48-.1.64-.607.631C1777.231,172.967,1775.424,172.987,1773.615,172.987Z" transform="translate(-1753.116 -100.66)" fill="#bbda89"/>
    <path id="Trazado_628679" data-name="Trazado 628679" d="M1770.026,140.91c0-1.28-.031-2.561.014-3.839a.876.876,0,0,0-.648-1.005,4.915,4.915,0,0,1-.936-.476,1.761,1.761,0,0,1-.8-1.883,1.8,1.8,0,0,1,1.6-1.378,4.159,4.159,0,0,1,1.052,0c.614.107.816-.15.889-.727.243-1.915.538-3.823.794-5.736.192-1.439.782-1.984,2.22-1.985,2.536,0,5.071.01,7.606-.012a.656.656,0,0,1,.77.576,53.458,53.458,0,0,1,1.8,7.67c.061.46-.078.619-.476.74-.814.249-1.6.579-2.426.791-.524.135-.635.391-.621.89.035,1.354.019,2.71.01,4.066a1.966,1.966,0,0,1-2.147,2.15c-1.907.009-3.815.019-5.722-.01-.47-.007-.58.122-.58.583,0,1.823-.019,1.848,1.8,1.826.552-.007.648.171.642.675-.02,1.75,0,1.75-1.734,1.75-.829,0-1.658-.028-2.485.01-.48.022-.642-.1-.628-.61C1770.051,143.621,1770.026,142.265,1770.026,140.91Zm8.428-11.006a1.2,1.2,0,1,0-1.194-1.2A1.216,1.216,0,0,0,1778.455,129.9Z" transform="translate(-1755.557 -92.535)" fill="#e9d0b6"/>
    <path id="Trazado_628680" data-name="Trazado 628680" d="M1761.549,177.862c-1.028,0-2.056-.021-3.083.01-.433.013-.532-.129-.537-.545-.025-1.874-.039-1.874,1.83-1.874,1.629,0,3.258.015,4.888-.01.432-.006.531.129.537.546.025,1.874.039,1.874-1.83,1.874Z" transform="translate(-1753.115 -105.536)" fill="#e9d0b6"/>
    <path id="Trazado_628681" data-name="Trazado 628681" d="M1791.352,85.2q4.068,0,8.136,0a2.44,2.44,0,0,1,2.722,2.68q.007,3.464,0,6.929a2.242,2.242,0,0,1-2.423,2.443c-.6,0-1.209.04-1.807-.011-.526-.045-.613.169-.6.633.031,1.129,0,2.259.013,3.389,0,.318-.014.61-.357.752s-.514-.107-.705-.3c-1.315-1.312-2.639-2.616-3.932-3.95a1.547,1.547,0,0,0-1.235-.528c-2.712.028-5.424.016-8.136.013a2.257,2.257,0,0,1-2.515-2.5q-.005-3.464,0-6.929a2.427,2.427,0,0,1,2.629-2.62Q1787.247,85.194,1791.352,85.2Zm.087,2.411h-6.778c-1.747,0-1.72,0-1.754,1.73-.01.564.132.7.7.695,4.795-.025,9.589-.014,14.384-.014,1.837,0,1.817,0,1.827-1.805,0-.491-.125-.622-.618-.617C1796.61,87.625,1794.024,87.611,1791.439,87.611Zm-2.524,7.232h4.292c1.785,0,1.76,0,1.785-1.773.008-.536-.141-.655-.661-.651-3.187.025-6.375.013-9.563.013-1.879,0-1.859,0-1.86,1.848,0,.473.128.58.586.574C1785.3,94.827,1787.108,94.843,1788.915,94.843Zm10.885-1.265c0-1.146,0-1.146-1.115-1.146-1.3,0-1.3,0-1.3,1.265,0,1.146,0,1.146,1.115,1.146C1799.8,94.843,1799.8,94.843,1799.8,93.579Z" transform="translate(-1758.808 -82.787)" fill="#e5e8eb"/>
    <path id="Trazado_628682" data-name="Trazado 628682" d="M1822.053,133.546c.585.018,1.125-.136,1.466.7s1.623.662,1.966-.209a.676.676,0,0,1,.822-.492c.25.016.5,0,.751,0,1.124,0,1.172.07.8,1.169a3.624,3.624,0,0,1-7.009-.607c-.065-.392-.03-.63.457-.567A5.972,5.972,0,0,0,1822.053,133.546Z" transform="translate(-1768.97 -94.971)" fill="#020202"/>
    <path id="Trazado_628683" data-name="Trazado 628683" d="M1781.707,131.126a1.2,1.2,0,1,1,1.214-1.177A1.213,1.213,0,0,1,1781.707,131.126Z" transform="translate(-1758.809 -93.757)" fill="#0b0a09"/>
    <path id="Trazado_628684" data-name="Trazado 628684" d="M1792.247,88.42c2.585,0,5.171.013,7.757-.012.492,0,.62.126.618.617-.01,1.805.01,1.805-1.827,1.805-4.795,0-9.589-.01-14.384.014-.563,0-.706-.131-.7-.695.034-1.729.007-1.73,1.754-1.73Z" transform="translate(-1759.616 -83.596)"/>
    <path id="Trazado_628685" data-name="Trazado 628685" d="M1789.724,97.277c-1.808,0-3.615-.016-5.422.011-.458.007-.585-.1-.585-.574,0-1.848-.019-1.848,1.86-1.848,3.188,0,6.375.013,9.563-.013.521,0,.669.114.661.651-.025,1.772,0,1.773-1.785,1.773Z" transform="translate(-1759.617 -85.221)"/>
    <path id="Trazado_628686" data-name="Trazado 628686" d="M1805.49,96.017c0,1.265,0,1.265-1.3,1.265-1.115,0-1.115,0-1.115-1.146,0-1.265,0-1.265,1.3-1.265C1805.49,94.871,1805.49,94.871,1805.49,96.017Z" transform="translate(-1764.498 -85.225)"/>
  </g>
</svg>
