<svg xmlns="http://www.w3.org/2000/svg" width="295" height="166" viewBox="0 0 295 166">
  <g id="Grupo_980841" data-name="Grupo 980841" transform="translate(-1125 -5271.295)">
    <rect id="Rect치ngulo_306472" data-name="Rect치ngulo 306472" width="295" height="166" transform="translate(1125 5271.295)" fill="#e2d9ff" opacity="0.5"/>
    <g id="Grupo_952167" data-name="Grupo 952167" transform="translate(1155 -787.205)">
      <rect id="Rect치ngulo_34178" data-name="Rect치ngulo 34178" width="85" height="85" transform="translate(180 6099)" fill="none"/>
      <g id="Grupo_952168" data-name="Grupo 952168" transform="translate(-1970.731 5357.68)">
        <path id="Trazado_629142" data-name="Trazado 629142" d="M2192.12,752.994a12.369,12.369,0,0,1,6.173-2.64,11.941,11.941,0,0,1,13.057,9.35c.277,1.388.277,1.4,1.717,1.383.738-.009,1.62.281,2.173-.115.52-.372.7-1.221,1.028-1.858.4-.777.626-1.84,1.266-2.246.613-.39,1.66-.1,2.516-.1q3.045,0,6.09.007c.036,0,.073.032.172.079a32.675,32.675,0,0,1-1.754,3.467,3.034,3.034,0,0,0,.006,3.725,34.691,34.691,0,0,1,1.791,3.546c-2.382,0-4.661-.116-6.922.041-1.525.105-2.428-.3-2.886-1.793a16.889,16.889,0,0,0-1.061-2.18.572.572,0,0,0-.6-.407c-.969.026-1.94.021-2.909,0-.312-.006-.433.09-.471.4a11.584,11.584,0,0,1-3.273,6.809c-.209.218-.233.347-.03.6,1.141,1.4,2.274,2.8,3.374,4.228.275.358.453.188.71.046a9.688,9.688,0,0,1,13.873,5.12,9.724,9.724,0,1,1-16.347-3.137c.263-.3.281-.462.028-.769-1.088-1.322-2.144-2.672-3.225-4-.123-.15-.224-.514-.489-.33-.345.24-.894.247-1,.785a2.2,2.2,0,0,0,0,.405q0,11.907-.015,23.813c0,.568.139.691.7.689q7.782-.035,15.565-.007a5.407,5.407,0,1,1-.036,10.813q-7.715.028-15.429-.012c-.649,0-.833.138-.8.8a17.149,17.149,0,0,1-.047,3.174,5.344,5.344,0,0,1-5.465,4.7q-10.726.014-21.452,0-6.361,0-12.722,0a5.427,5.427,0,0,1-5.773-5.743q0-26.722,0-53.445a5.422,5.422,0,0,1,5.754-5.76c2.278,0,4.557-.008,6.835.007a.771.771,0,0,0,.833-.458,3.105,3.105,0,0,1,2.926-1.713q6.192,0,12.384,0A3.391,3.391,0,0,1,2192.12,752.994Zm-25.979,31.846q0,12.651-.016,25.3c0,.62.16.761.767.759q15.057-.03,30.115-.014c1.645,0,1.623,0,1.632-1.637,0-.475-.166-.541-.577-.536-1.511.021-3.023.011-4.534.006a1.981,1.981,0,0,1-.667-.061c-2.593-.964-5.189-1.919-7.764-2.929a2.442,2.442,0,0,1-1.618-2.431,2.51,2.51,0,0,1,1.635-2.423c.639-.277,1.3-.506,1.952-.751,1.769-.663,3.519-1.384,5.314-1.967,1.859-.6,3.8-.151,5.7-.246.442-.022.552-.127.552-.563q-.02-11.4,0-22.8c0-.382-.069-.564-.5-.6a11.355,11.355,0,0,1-3.119-.833c-.578-.222-1.142-.918-1.656-.7s-.809.985-1.237,1.477c-.318.366-.333.581.049.963a13.657,13.657,0,0,1,4.168,11.718,14.061,14.061,0,1,1-7.991-14.409c.576.273,1.165.98,1.7.758s.837-1.017,1.28-1.525c.3-.348.251-.549-.066-.874a11.584,11.584,0,0,1-3.444-8.8c.019-.562-.144-.65-.651-.648-3.722.02-7.444.012-11.166.01a3.117,3.117,0,0,1-2.933-1.706.776.776,0,0,0-.832-.466c-1.8.018-3.609.032-5.413-.007-.559-.012-.7.124-.7.692Q2166.157,772.223,2166.141,784.84Zm-4.331.069c0,8.817.048,17.634-.031,26.45a3.6,3.6,0,0,0,3.857,3.888c8.864-.073,17.729-.03,26.594-.03,2.481,0,4.962.011,7.443,0a3.205,3.205,0,0,0,3.255-2.911c.08-1.077.021-2.164.03-3.246,0-.2-.032-.306-.282-.341-1.725-.247-1.884-.121-1.885,1.582,0,.135,0,.271,0,.406a2.179,2.179,0,0,1-2.37,2.349q-16.037,0-32.075,0a2.169,2.169,0,0,1-2.37-2.346q0-25.808,0-51.616a2.169,2.169,0,0,1,2.322-2.324c1.579-.007,3.158,0,4.737,0,1.63,0,1.614,0,1.613-1.651,0-.413-.1-.528-.519-.524-2.21.023-4.421.011-6.631.011-2.4,0-3.688,1.278-3.688,3.656Q2161.809,771.582,2161.81,784.909Zm45.327-23.815a14.92,14.92,0,0,1,1.555.011c.587.061.716-.124.614-.694a9.755,9.755,0,1,0,0,3.5c.089-.514-.01-.7-.575-.668-1.012.05-2.031.048-3.043,0-.521-.025-.706.141-.865.638a5.393,5.393,0,0,1-5.724,3.678,5.409,5.409,0,0,1-.9-10.574,5.08,5.08,0,0,1,6.2,2.67,2.067,2.067,0,0,0,2.6,1.439A1.114,1.114,0,0,1,2207.136,761.093Zm-17.174,23.8c0,1.646.01,3.292-.008,4.938,0,.369.077.513.475.494.7-.033,1.4-.029,2.1,0a.6.6,0,0,0,.66-.419,11.9,11.9,0,1,0-21.626-.04.643.643,0,0,0,.7.461,18.561,18.561,0,0,1,2.029,0c.417.023.529-.095.523-.517-.025-1.826,0-3.653-.022-5.479-.006-.422.106-.53.523-.518,1.1.031,2.211-.013,3.315.022.431.013.519-.12.514-.527-.023-1.8.01-3.608-.023-5.411-.009-.49.14-.59.6-.579,1.4.031,2.8,0,4.2.017.556.007,1.291-.247,1.616.108.274.3.123,1.026.086,1.559-.031.452.153.51.54.5,1.06-.024,2.121.017,3.18-.02.483-.017.653.078.639.61C2189.936,781.694,2189.962,783.3,2189.962,784.9Zm27.067-8.648a7.577,7.577,0,1,0,7.582,7.556A7.6,7.6,0,0,0,2217.029,776.249Zm-34.653-23.815c-2.094,0-4.189,0-6.284,0-.885,0-1.281.4-1.287,1.274-.009,1.328-.01,2.657,0,3.985a1.085,1.085,0,0,0,1.2,1.228c3.941.008,7.882,0,11.823.006a.484.484,0,0,0,.564-.412,6.578,6.578,0,0,1,.92-2.089,3.816,3.816,0,0,0,.662-2.6c-.048-1.044-.375-1.4-1.447-1.4Q2185.45,752.431,2182.376,752.434Zm9.107,40.112c-1.316-.146-17.69-.092-18.159.053A11.891,11.891,0,0,0,2191.483,792.546Zm11.473-18.889a9.814,9.814,0,0,1-1.49.273c-.564.017-.689.23-.688.772q.029,10.85.013,21.7c0,1.5,0,1.469,1.484,1.511.562.016.7-.128.7-.693q-.032-11.424-.014-22.848Zm2.138,28.571h9.329c1.533,0,1.5,0,1.542-1.528.014-.556-.171-.649-.676-.647q-9.7.024-19.4.01c-1.611,0-1.589,0-1.607,1.6-.006.493.151.582.606.58C2198.289,802.218,2201.692,802.227,2205.094,802.227Zm-.044,4.33h9.4c1.507,0,1.478,0,1.519-1.483.015-.567-.138-.7-.7-.7-6.467.022-12.934.014-19.4.014-1.582,0-1.558,0-1.585,1.55-.009.509.126.63.63.626C2198.29,806.545,2201.67,806.557,2205.05,806.557Zm13.066-3.263c0,.923.015,1.846-.007,2.768-.009.361.066.517.472.5.967-.03,1.937.013,2.9-.018a3.242,3.242,0,0,0-.035-6.48c-.945-.025-1.892.021-2.836-.017-.447-.018-.517.152-.506.541C2218.133,801.492,2218.115,802.393,2218.115,803.294Zm-15.42-40.035h-2.419c-1.7,0-1.679,0-1.666-1.676,0-.457.179-.5.554-.5,1.036.02,2.073-.005,3.109.013.4.007.466-.087.283-.45a3.242,3.242,0,0,0-6.093,1.712,3.289,3.289,0,0,0,2.79,3.034A3.185,3.185,0,0,0,2202.7,763.258Zm-21.4,21.581v3.918c0,1.572,0,1.547,1.554,1.577.511.01.628-.127.624-.629-.026-2.859-.013-5.719-.013-8.579,0-1.679,0-1.666-1.69-1.641-.384.006-.488.111-.484.49C2181.312,781.6,2181.3,783.218,2181.3,784.839Zm10.8,21.222v-5.5c-2.062.772-4.075,1.525-6.087,2.281a.5.5,0,0,0-.37.437.492.492,0,0,0,.368.506c.48.189.965.367,1.448.548Zm-6.467-20.067v2.7c0,1.649,0,1.63,1.626,1.637.453,0,.552-.134.549-.564-.021-2.161-.01-4.322-.01-6.483,0-1.676,0-1.661-1.694-1.635-.39.006-.486.121-.479.494C2185.645,783.427,2185.631,784.711,2185.631,785.994Zm-8.662,2.116v.54c0,1.73,0,1.713,1.711,1.683.415-.007.471-.162.46-.512-.023-.719-.007-1.439-.007-2.158,0-1.73,0-1.719-1.711-1.68-.337.008-.483.069-.462.442C2176.992,786.984,2176.969,787.547,2176.969,788.109Zm45.884-29.181c-1.319,0-2.51,0-3.7,0-.214,0-.387.02-.495.25-.293.622-.605,1.235-.942,1.917,1.307,0,2.518,0,3.729,0a.45.45,0,0,0,.475-.281C2222.2,760.211,2222.51,759.617,2222.853,758.929Zm-5.148,4.33c.35.7.643,1.276.928,1.858.083.169.164.308.388.307,1.247-.005,2.495,0,3.832,0-.344-.69-.651-1.284-.936-1.888a.45.45,0,0,0-.477-.278C2220.229,763.262,2219.02,763.259,2217.7,763.259Z" fill="#010101"/>
        <path id="Trazado_629143" data-name="Trazado 629143" d="M2183.57,808.115q0-12.617-.014-25.234c0-.568.139-.7.7-.692,1.8.039,3.609.025,5.413.007a.776.776,0,0,1,.832.466,3.117,3.117,0,0,0,2.932,1.706c3.722,0,7.444.01,11.166-.01.507,0,.669.086.651.648a11.583,11.583,0,0,0,3.444,8.8c.317.324.369.526.066.874-.443.508-.737,1.3-1.28,1.525s-1.122-.485-1.7-.758a14.077,14.077,0,1,0,7.991,14.409,13.659,13.659,0,0,0-4.168-11.718c-.383-.381-.368-.6-.05-.963.428-.492.712-1.252,1.237-1.477s1.078.475,1.656.7a11.364,11.364,0,0,0,3.119.833c.428.036.5.218.5.6q-.016,11.4,0,22.8c0,.436-.109.541-.552.563-1.9.1-3.844-.357-5.7.246-1.8.583-3.545,1.3-5.314,1.967-.653.244-1.313.474-1.952.751a2.509,2.509,0,0,0-1.635,2.423,2.441,2.441,0,0,0,1.618,2.431c2.575,1.01,5.171,1.965,7.764,2.929a1.983,1.983,0,0,0,.667.061c1.511,0,3.023.015,4.534-.006.41-.006.579.061.577.536-.01,1.637.012,1.637-1.632,1.637q-15.058,0-30.115.014c-.607,0-.769-.139-.767-.759Q2183.589,820.766,2183.57,808.115Zm13.065-21.582h-5c-1.574,0-1.55,0-1.579,1.551-.01.505.118.629.625.626,3.605-.024,7.211-.013,10.816-.013,1.587,0,1.569,0,1.577-1.619,0-.44-.112-.562-.555-.556C2200.556,786.548,2198.6,786.534,2196.635,786.534Zm-.1,6.494h4.935c1.606,0,1.584,0,1.6-1.593.006-.485-.135-.585-.6-.583-3.605.02-7.211.011-10.817.011-1.625,0-1.606,0-1.6,1.661,0,.43.126.518.531.513C2192.568,793.016,2194.551,793.028,2196.534,793.028ZM2192.3,825.5h-5c-1.573,0-1.549,0-1.578,1.552-.01.507.121.628.627.625,3.6-.024,7.21-.013,10.816-.013,1.586,0,1.568,0,1.575-1.62,0-.442-.115-.56-.557-.555C2196.224,825.517,2194.263,825.5,2192.3,825.5Zm-.069,6.494h4.935c1.57,0,1.545,0,1.575-1.555.01-.514-.132-.625-.63-.621-3.583.023-7.166.012-10.749.012-1.651,0-1.633,0-1.641,1.624,0,.448.125.556.56.551C2188.267,831.984,2190.25,832,2192.233,832Zm-5.447-43.3c1.115,0,1.115,0,1.115-1.117,0-1.047,0-1.047-1.05-1.047-1.115,0-1.115,0-1.115,1.117C2185.736,788.7,2185.736,788.7,2186.786,788.7Zm.094,2.166c-1.145,0-1.145,0-1.145,1.155,0,1.009,0,1.009,1.021,1.009,1.144,0,1.144,0,1.144-1.155C2187.9,790.863,2187.9,790.863,2186.881,790.863Z" transform="translate(-17.43 -23.275)" fill="#e9cfb6"/>
        <path id="Trazado_629144" data-name="Trazado 629144" d="M2167.551,796.553q0-13.327,0-26.653c0-2.379,1.289-3.656,3.688-3.657,2.21,0,4.421.013,6.631-.011.424,0,.519.111.519.524,0,1.651.017,1.651-1.613,1.651-1.579,0-3.158-.005-4.737,0a2.169,2.169,0,0,0-2.322,2.324q0,25.808,0,51.615a2.169,2.169,0,0,0,2.37,2.346q16.038,0,32.075,0a2.179,2.179,0,0,0,2.37-2.349c0-.135,0-.271,0-.406,0-1.7.159-1.829,1.885-1.582.25.036.284.136.282.341-.009,1.082.049,2.169-.03,3.246a3.205,3.205,0,0,1-3.255,2.911c-2.481.015-4.963,0-7.443,0-8.865,0-17.73-.043-26.594.03a3.6,3.6,0,0,1-3.857-3.888C2167.6,814.187,2167.551,805.37,2167.551,796.553Z" transform="translate(-5.742 -11.645)" fill="#fbe9ae"/>
        <path id="Trazado_629145" data-name="Trazado 629145" d="M2288.606,766.912a1.13,1.13,0,0,0-.136,0,2.067,2.067,0,0,1-2.6-1.439,5.08,5.08,0,0,0-6.2-2.67,5.407,5.407,0,1,0,6.619,6.9c.158-.5.344-.663.864-.638,1.013.049,2.031.05,3.044,0,.565-.028.664.154.575.668a9.884,9.884,0,0,1-7.279,7.728,9.747,9.747,0,1,1,7.278-11.229c.1.57-.027.756-.614.694A14.942,14.942,0,0,0,2288.606,766.912Z" transform="translate(-81.47 -5.818)" fill="#e3e6e9"/>
        <path id="Trazado_629146" data-name="Trazado 629146" d="M2219.031,846.116c0-1.6-.027-3.2.015-4.8.014-.532-.156-.627-.639-.61-1.059.037-2.12,0-3.18.02-.387.009-.571-.049-.54-.5.037-.533.188-1.259-.087-1.559-.325-.355-1.06-.1-1.615-.108-1.4-.017-2.8.014-4.2-.017-.46-.01-.609.089-.6.579.032,1.8,0,3.608.022,5.412.005.407-.083.54-.514.527-1.1-.035-2.211.009-3.315-.022-.416-.012-.529.1-.523.518.025,1.826,0,3.653.021,5.479.006.423-.106.54-.523.517a18.566,18.566,0,0,0-2.029,0,.643.643,0,0,1-.7-.461,11.908,11.908,0,1,1,21.627.04.6.6,0,0,1-.66.419c-.7-.029-1.4-.032-2.1,0-.4.019-.48-.125-.476-.494C2219.042,849.409,2219.031,847.762,2219.031,846.116Z" transform="translate(-29.069 -61.219)" fill="#e4e7ea"/>
        <path id="Trazado_629147" data-name="Trazado 629147" d="M2350.96,846.135a7.577,7.577,0,1,1-7.576,7.562A7.6,7.6,0,0,1,2350.96,846.135Zm-5.41,7.582c0,.856-.014,1.713,0,2.568a2.8,2.8,0,0,0,4,2.563c1.814-.837,3.609-1.727,5.362-2.685a2.775,2.775,0,0,0-.01-4.908c-1.756-.954-3.548-1.847-5.363-2.682a2.8,2.8,0,0,0-3.994,2.577C2345.537,852,2345.55,852.861,2345.55,853.717Z" transform="translate(-133.931 -69.886)" fill="#e2e5e8"/>
        <path id="Trazado_629148" data-name="Trazado 629148" d="M2223.126,758.283q3.074,0,6.148,0c1.072,0,1.4.354,1.447,1.4a3.818,3.818,0,0,1-.662,2.6,6.583,6.583,0,0,0-.92,2.089.484.484,0,0,1-.564.412c-3.941-.008-7.882,0-11.823-.006a1.085,1.085,0,0,1-1.2-1.228q-.017-1.993,0-3.985c.006-.878.4-1.271,1.287-1.274C2218.938,758.278,2221.032,758.283,2223.126,758.283Z" transform="translate(-40.75 -5.849)" fill="#bbda89"/>
        <path id="Trazado_629149" data-name="Trazado 629149" d="M2228.267,906.02a11.891,11.891,0,0,1-18.159.053C2210.578,905.928,2226.951,905.874,2228.267,906.02Z" transform="translate(-36.784 -113.474)" fill="#e3e6e9"/>
        <path id="Trazado_629150" data-name="Trazado 629150" d="M2313.559,836.573v.715q0,11.424.014,22.848c0,.565-.133.708-.7.693-1.483-.042-1.484-.013-1.484-1.511q0-10.85-.012-21.7c0-.542.124-.755.688-.772A9.818,9.818,0,0,0,2313.559,836.573Z" transform="translate(-110.604 -62.917)" fill="#fbe9ae"/>
        <path id="Trazado_629151" data-name="Trazado 629151" d="M2298.227,936.116c-3.4,0-6.8-.009-10.208.011-.456,0-.612-.087-.606-.58.019-1.6,0-1.6,1.607-1.6q9.7,0,19.4-.011c.5,0,.69.092.676.647-.038,1.527-.009,1.527-1.542,1.527Z" transform="translate(-93.132 -133.889)" fill="#bbda89"/>
        <path id="Trazado_629152" data-name="Trazado 629152" d="M2298.181,952.08c-3.38,0-6.76-.012-10.139.012-.5,0-.639-.117-.63-.626.027-1.55,0-1.55,1.585-1.55,6.467,0,12.934.008,19.4-.014.561,0,.714.129.7.7-.041,1.482-.011,1.483-1.518,1.483Z" transform="translate(-93.132 -145.523)" fill="#6ebee4"/>
        <path id="Trazado_629153" data-name="Trazado 629153" d="M2375.311,937.177c0-.9.018-1.8-.008-2.7-.011-.389.059-.559.506-.541.944.038,1.891-.007,2.836.017a3.242,3.242,0,0,1,.035,6.48c-.967.031-1.937-.012-2.9.018-.406.013-.48-.143-.472-.5C2375.326,939.023,2375.311,938.1,2375.311,937.177Z" transform="translate(-157.196 -133.883)" fill="#aab1bb"/>
        <path id="Trazado_629154" data-name="Trazado 629154" d="M2301.688,786.606a3.185,3.185,0,0,1-3.441,2.138,3.289,3.289,0,0,1-2.79-3.034A3.242,3.242,0,0,1,2301.55,784c.183.362.116.457-.283.449-1.036-.019-2.073.007-3.11-.013-.375-.007-.55.04-.554.5-.013,1.676-.034,1.676,1.666,1.676Z" transform="translate(-98.992 -23.347)" fill="#ec8673"/>
        <path id="Trazado_629155" data-name="Trazado 629155" d="M2239.509,863.414c0-1.621.011-3.243-.008-4.863,0-.379.1-.484.484-.49,1.69-.025,1.69-.038,1.69,1.641,0,2.859-.013,5.719.013,8.579,0,.5-.113.638-.624.629-1.553-.029-1.554,0-1.554-1.577Z" transform="translate(-58.209 -78.574)" fill="#f5d67f"/>
        <path id="Trazado_629156" data-name="Trazado 629156" d="M2262,941.306l-4.64-1.732c-.484-.181-.969-.359-1.448-.548a.492.492,0,0,1-.368-.506.5.5,0,0,1,.37-.437c2.011-.756,4.024-1.509,6.087-2.281Z" transform="translate(-69.901 -135.245)" fill="#a8afb9"/>
        <path id="Trazado_629157" data-name="Trazado 629157" d="M2255.487,870.387c0-1.283.013-2.566-.008-3.849-.006-.373.09-.488.479-.494,1.694-.026,1.694-.04,1.694,1.636,0,2.161-.012,4.322.01,6.483,0,.43-.1.565-.549.564-1.626-.008-1.626.012-1.626-1.637Z" transform="translate(-69.855 -84.394)" fill="#f5d67f"/>
        <path id="Trazado_629158" data-name="Trazado 629158" d="M2223.528,884.139c0-.562.023-1.125-.008-1.686-.021-.372.125-.434.462-.442,1.711-.04,1.711-.05,1.711,1.68,0,.719-.016,1.439.007,2.158.011.351-.045.505-.46.512-1.711.03-1.711.047-1.711-1.683Z" transform="translate(-46.559 -96.029)" fill="#f5d67f"/>
        <path id="Trazado_629159" data-name="Trazado 629159" d="M2379,782.239c-.343.689-.65,1.283-.934,1.886a.45.45,0,0,1-.475.281c-1.211-.008-2.422,0-3.729,0,.337-.682.649-1.3.942-1.917.108-.23.281-.25.495-.25C2376.486,782.241,2377.677,782.239,2379,782.239Z" transform="translate(-156.143 -23.311)" fill="#c69d7b"/>
        <path id="Trazado_629160" data-name="Trazado 629160" d="M2373.822,798.208c1.314,0,2.524,0,3.735,0a.449.449,0,0,1,.477.278c.285.6.592,1.2.936,1.888-1.337,0-2.584,0-3.832,0-.224,0-.305-.138-.388-.307C2374.465,799.484,2374.171,798.906,2373.822,798.208Z" transform="translate(-156.117 -34.95)" fill="#c69d7b"/>
        <path id="Trazado_629161" data-name="Trazado 629161" d="M2214.107,798.188c1.961,0,3.921.014,5.881-.011.443-.005.557.116.555.556-.007,1.619.01,1.619-1.577,1.619-3.606,0-7.211-.011-10.816.013-.507,0-.635-.121-.625-.626.029-1.551.005-1.551,1.579-1.551Z" transform="translate(-34.902 -34.929)"/>
        <path id="Trazado_629162" data-name="Trazado 629162" d="M2214.01,816.323c-1.983,0-3.966-.011-5.949.01-.405,0-.53-.083-.531-.513,0-1.661-.02-1.661,1.6-1.661,3.606,0,7.211.009,10.817-.011.463,0,.6.1.6.583-.021,1.592,0,1.593-1.6,1.593Z" transform="translate(-34.906 -46.571)"/>
        <path id="Trazado_629163" data-name="Trazado 629163" d="M2198.129,941.937c1.961,0,3.921.014,5.881-.011.441-.005.559.113.557.555-.007,1.62.01,1.62-1.576,1.62-3.605,0-7.211-.011-10.816.013-.505,0-.636-.118-.627-.625.029-1.552,0-1.552,1.578-1.552Z" transform="translate(-23.256 -139.71)"/>
        <path id="Trazado_629164" data-name="Trazado 629164" d="M2198.065,960.069c-1.983,0-3.967-.013-5.949.01-.435.005-.562-.1-.56-.551.008-1.624-.01-1.624,1.641-1.624,3.583,0,7.166.011,10.749-.012.5,0,.64.108.63.621-.03,1.555-.005,1.556-1.575,1.556Z" transform="translate(-23.262 -151.347)"/>
        <path id="Trazado_629165" data-name="Trazado 629165" d="M2192.651,800.381c-1.05,0-1.05,0-1.05-1.047,0-1.117,0-1.117,1.115-1.117,1.05,0,1.05,0,1.05,1.047C2193.765,800.381,2193.765,800.381,2192.651,800.381Z" transform="translate(-23.294 -34.959)"/>
        <path id="Trazado_629166" data-name="Trazado 629166" d="M2192.745,814.189c1.021,0,1.021,0,1.021,1.009,0,1.155,0,1.155-1.144,1.155-1.021,0-1.021,0-1.021-1.009C2191.6,814.189,2191.6,814.189,2192.745,814.189Z" transform="translate(-23.294 -46.601)"/>
        <path id="Trazado_629167" data-name="Trazado 629167" d="M2351.356,859.537c0-.856-.013-1.712,0-2.568a2.8,2.8,0,0,1,3.994-2.576c1.815.835,3.608,1.728,5.364,2.682a2.775,2.775,0,0,1,.01,4.908c-1.753.958-3.548,1.848-5.362,2.685a2.8,2.8,0,0,1-4-2.563C2351.343,861.25,2351.356,860.393,2351.356,859.537Zm2.166-.034c0,.809-.012,1.619,0,2.428.015.731.468,1.017,1.122.695,1.612-.792,3.213-1.605,4.82-2.407.3-.148.548-.331.54-.7s-.271-.537-.565-.684c-1.587-.791-3.168-1.595-4.758-2.379-.737-.364-1.151-.088-1.161.755C2353.516,857.974,2353.523,858.739,2353.523,859.5Z" transform="translate(-139.738 -75.707)" fill="#030303"/>
        <path id="Trazado_629168" data-name="Trazado 629168" d="M2359.349,865.357c0-.764-.007-1.529,0-2.293.009-.843.423-1.119,1.16-.756,1.59.785,3.171,1.588,4.758,2.379.295.147.556.316.565.684s-.243.553-.539.7c-1.606.8-3.208,1.616-4.82,2.407-.655.322-1.107.036-1.122-.695C2359.337,866.976,2359.35,866.167,2359.349,865.357Z" transform="translate(-145.565 -81.561)" fill="#ec8673"/>
      </g>
    </g>
  </g>
</svg>
