<svg xmlns="http://www.w3.org/2000/svg" width="60.814" height="57" viewBox="0 0 60.814 57">
  <g id="Grupo_952062" data-name="Grupo 952062" transform="translate(-1448.974 -377.418)">
    <path id="Trazado_628771" data-name="Trazado 628771" d="M1479.35,434.418h-28.74c-1.272,0-1.635-.358-1.636-1.609q0-18.225,0-36.451c0-1.267.351-1.615,1.623-1.616.891,0,1.782-.018,2.672.009.361.011.474-.079.466-.454-.025-1.206-.014-2.414-.008-3.621a1.215,1.215,0,0,1,1.388-1.38c2.375,0,4.751-.012,7.126.009.407,0,.526-.085.522-.51-.022-2.533-.014-5.066-.01-7.6a3.567,3.567,0,0,1,3.8-3.775q12.826,0,25.652,0a3.569,3.569,0,0,1,3.8,3.776c0,2.533.013,5.066-.01,7.6,0,.427.119.512.524.509,2.355-.02,4.711-.012,7.066-.009,1.015,0,1.444.429,1.447,1.442,0,1.187.017,2.375-.009,3.562-.008.379.111.461.469.452.93-.025,1.86-.011,2.791-.008,1.108,0,1.5.395,1.5,1.5q0,14.6,0,29.208v7.243c0,1.4-.325,1.726-1.7,1.726Zm.094-54.624h-12.705c-1.252,0-1.611.364-1.611,1.635q0,11.277,0,22.555c0,1.263.36,1.628,1.615,1.628,3.147,0,6.294.028,9.439-.017a2.694,2.694,0,0,1,2.242.924c.917,1.019,1,1.019,1.907.007a2.693,2.693,0,0,1,2.239-.931c3.186.046,6.372.02,9.558.016,1.1,0,1.5-.4,1.5-1.5q0-11.4,0-22.792c0-1.131-.4-1.523-1.544-1.523Zm-1.25,43.83v-.683c0-3.818-.059-7.638.033-11.454a3.361,3.361,0,0,0-1.3-3.114,1.521,1.521,0,0,0-.988-.393q-4.66.024-9.32.007a3.575,3.575,0,0,1-3.862-3.892c0-3.957-.01-7.914.012-11.87,0-.482-.142-.572-.587-.566-1.84.025-3.681.03-5.521,0-.482-.008-.567.141-.567.586q.019,14.571,0,29.142c0,.474.129.574.583.572,5.284-.016,10.568.021,15.851-.026A7.962,7.962,0,0,1,1478.194,423.624Zm2.375-.008a7.578,7.578,0,0,1,5.167-1.684c5.461.038,10.923.008,16.385.024.435,0,.553-.091.552-.543q-.023-14.6,0-29.2c0-.424-.073-.565-.536-.557q-2.759.048-5.52,0c-.476-.008-.622.084-.619.6.025,3.917-.047,7.835.038,11.751a3.767,3.767,0,0,1-4.034,4c-2.629-.08-5.266.057-7.894-.049a3.368,3.368,0,0,0-3.171,1.322,1.434,1.434,0,0,0-.375.929c.017,2.176.008,4.352.008,6.528Zm-1.205,8.427q13.659,0,27.318.013c.57,0,.75-.1.748-.721q-.035-16.238-.022-32.476c0-.566.253-1.32-.112-1.645-.313-.28-1.056-.047-1.6-.106s-.67.149-.669.678q.024,15.11.012,30.22c0,1.307-.352,1.663-1.646,1.663h-36.107q-6.057,0-12.115,0a1.392,1.392,0,0,1-1.171-.448,1.623,1.623,0,0,1-.274-1.124q0-15.2.011-30.4c0-.442-.077-.651-.571-.594a4.964,4.964,0,0,1-1.185,0c-.539-.068-.641.136-.64.647q.024,16.832,0,33.664c0,.534.141.638.65.637Q1465.675,432.03,1479.364,432.043Zm-1.488-4.75a4.325,4.325,0,0,0-4.019-2.965c-2.117-.022-4.235-.007-6.353-.007-3.641,0-7.283.006-10.924-.009-.385,0-.508.094-.487.486a14.764,14.764,0,0,1,0,1.9c-.037.495.109.613.606.611,4.829-.021,9.658-.013,14.487-.013Zm3.01,0H1495.3c2.3,0,4.592-.01,6.888.01.388,0,.5-.1.486-.487-.032-.711-.022-1.425,0-2.137.008-.286-.08-.365-.365-.364-5.858.01-11.717-.01-17.575.025A4.251,4.251,0,0,0,1480.886,427.293Z" transform="translate(0 0)" fill="#010001"/>
    <path id="Trazado_628772" data-name="Trazado 628772" d="M1531.18,387.4h12.646c1.146,0,1.544.392,1.544,1.523q0,11.4,0,22.792c0,1.1-.4,1.5-1.5,1.5-3.186,0-6.373.029-9.558-.016a2.693,2.693,0,0,0-2.239.931c-.911,1.012-.991,1.012-1.907-.007a2.694,2.694,0,0,0-2.242-.924c-3.146.045-6.293.018-9.439.017-1.255,0-1.615-.366-1.615-1.628q0-11.277,0-22.555c0-1.27.359-1.634,1.611-1.635Zm-3.133,12.657c-.161.073-.289.124-.412.186a8.234,8.234,0,0,0-4.817,7.158c-.083,1.147.377,1.588,1.533,1.589q3.326,0,6.651,0,3.474,0,6.947,0c1.074,0,1.511-.457,1.474-1.536a7.875,7.875,0,0,0-.437-2.321,8.372,8.372,0,0,0-4.766-5.069c2.173-2.732,2.177-5.34.017-7.248a4.763,4.763,0,1,0-6.19,7.241Z" transform="translate(-51.736 -7.609)" fill="#caafe0"/>
    <path id="Trazado_628773" data-name="Trazado 628773" d="M1500.982,469.22a7.962,7.962,0,0,0-5.671-1.695c-5.283.048-10.567.01-15.851.026-.454,0-.583-.1-.583-.572q.023-14.571,0-29.142c0-.445.085-.595.567-.586,1.84.032,3.681.027,5.521,0,.444-.006.589.084.587.566-.022,3.957-.014,7.914-.012,11.87a3.575,3.575,0,0,0,3.862,3.892q4.66.011,9.32-.007a1.521,1.521,0,0,1,.988.393,3.361,3.361,0,0,1,1.3,3.114c-.092,3.816-.033,7.636-.033,11.454Zm-11.526-4.758c2.294,0,4.588-.005,6.882,0a1.248,1.248,0,0,0,1.134-.511,1.133,1.133,0,0,0,.066-1.234,1.26,1.26,0,0,0-1.243-.636q-6.793,0-13.586,0c-.89,0-1.453.484-1.439,1.214s.548,1.158,1.422,1.159Q1486.074,464.465,1489.456,464.463Zm2.691-5.444c1.384,0,2.767,0,4.151,0,.88,0,1.384-.444,1.378-1.187a1.189,1.189,0,0,0-1.339-1.184q-4.181-.014-8.361,0a1.227,1.227,0,0,0-1.361,1.177c-.013.725.518,1.192,1.381,1.2C1489.379,459.023,1490.763,459.018,1492.147,459.018Zm-9.684,0a1.166,1.166,0,0,0,1.179-1.15,1.186,1.186,0,1,0-2.372-.047A1.173,1.173,0,0,0,1482.462,459.015Z" transform="translate(-22.788 -45.596)" fill="#fdfdfd"/>
    <path id="Trazado_628774" data-name="Trazado 628774" d="M1581.73,469.212v-6.879c0-2.176.009-4.352-.008-6.528a1.434,1.434,0,0,1,.375-.929,3.368,3.368,0,0,1,3.171-1.322c2.628.106,5.264-.032,7.894.049a3.767,3.767,0,0,0,4.034-4c-.086-3.915-.013-7.834-.038-11.751,0-.512.143-.6.619-.6q2.76.045,5.52,0c.464-.008.537.133.536.557q-.019,14.6,0,29.2c0,.452-.117.544-.552.543-5.462-.016-10.923.014-16.385-.024A7.578,7.578,0,0,0,1581.73,469.212Zm11.523-10.194h1.127c1.938,0,3.876.007,5.814,0a1.165,1.165,0,0,0,1.249-1.148,1.214,1.214,0,0,0-1.2-1.219c-.177-.014-.356-.005-.534-.005h-9.67c-1.226,0-2.452-.009-3.678,0a1.22,1.22,0,0,0-1.309.964,1.164,1.164,0,0,0,1.26,1.4C1588.626,459.024,1590.94,459.018,1593.253,459.018Zm-.011,5.448c2.314,0,4.628.007,6.942,0a1.185,1.185,0,1,0,.01-2.365q-6.972-.012-13.943,0a1.166,1.166,0,0,0-1.2,1.416,1.189,1.189,0,0,0,1.308.952C1588.654,464.471,1590.949,464.468,1593.243,464.467Z" transform="translate(-101.161 -45.596)" fill="#fdfdfd"/>
    <path id="Trazado_628775" data-name="Trazado 628775" d="M1486.929,494.987q-13.688,0-27.377.012c-.509,0-.651-.1-.65-.637q.027-16.832,0-33.664c0-.511.1-.715.64-.647a4.964,4.964,0,0,0,1.185,0c.494-.058.571.152.571.594q-.017,15.2-.011,30.4a1.623,1.623,0,0,0,.274,1.124,1.392,1.392,0,0,0,1.171.448q6.057-.01,12.115,0h36.107c1.294,0,1.646-.356,1.646-1.663q0-15.11-.012-30.22c0-.528.112-.738.669-.678s1.288-.173,1.6.106c.365.326.112,1.079.112,1.645q.011,16.238.022,32.476c0,.624-.178.722-.748.721Q1500.588,494.973,1486.929,494.987Z" transform="translate(-7.565 -62.945)" fill="#a87ccc"/>
    <path id="Trazado_628776" data-name="Trazado 628776" d="M1500.647,577.476h-6.693c-4.829,0-9.658-.008-14.487.013-.5,0-.643-.116-.606-.611a14.764,14.764,0,0,0,0-1.9c-.021-.391.1-.487.487-.486,3.641.015,7.283.009,10.924.009,2.118,0,4.235-.014,6.353.007A4.325,4.325,0,0,1,1500.647,577.476Z" transform="translate(-22.771 -150.183)" fill="#e7e9ee"/>
    <path id="Trazado_628777" data-name="Trazado 628777" d="M1583.088,577.486a4.251,4.251,0,0,1,3.843-2.954c5.858-.034,11.716-.015,17.575-.025.285,0,.372.079.365.364-.019.712-.029,1.426,0,2.136.017.388-.1.49-.486.487-2.3-.019-4.592-.01-6.887-.01h-14.412Z" transform="translate(-102.202 -150.194)" fill="#e7e9ee"/>
    <path id="Trazado_628778" data-name="Trazado 628778" d="M1547.085,413.671a4.763,4.763,0,1,1,6.19-7.241c2.16,1.908,2.156,4.516-.017,7.248a8.372,8.372,0,0,1,4.766,5.069,7.875,7.875,0,0,1,.437,2.321c.038,1.079-.4,1.534-1.474,1.536q-3.474.007-6.947,0-3.326,0-6.651,0c-1.157,0-1.616-.442-1.533-1.589a8.234,8.234,0,0,1,4.817-7.158C1546.8,413.8,1546.924,413.744,1547.085,413.671Zm8.823,6.559a.581.581,0,0,0,.023-.151,5.938,5.938,0,0,0-11.5-.264c-.117.473.115.417.4.417q4.743,0,9.486,0Zm-5.7-12.586a2.362,2.362,0,0,0-2.427,2.309,2.375,2.375,0,1,0,4.748.106A2.361,2.361,0,0,0,1550.208,407.645Z" transform="translate(-70.774 -21.22)" fill="#030203"/>
    <path id="Trazado_628779" data-name="Trazado 628779" d="M1497.116,544q-3.382,0-6.764,0c-.875,0-1.408-.44-1.422-1.159s.549-1.214,1.439-1.214q6.793,0,13.586,0a1.26,1.26,0,0,1,1.243.636,1.133,1.133,0,0,1-.066,1.234A1.248,1.248,0,0,1,1504,544C1501.7,543.993,1499.41,544,1497.116,544Z" transform="translate(-30.449 -125.132)" fill="#020202"/>
    <path id="Trazado_628780" data-name="Trazado 628780" d="M1516.924,521.108c-1.384,0-2.767,0-4.151,0-.863,0-1.394-.471-1.381-1.2a1.227,1.227,0,0,1,1.36-1.177q4.181-.013,8.361,0a1.189,1.189,0,0,1,1.339,1.184c.005.743-.5,1.184-1.378,1.187C1519.692,521.112,1518.308,521.108,1516.924,521.108Z" transform="translate(-47.566 -107.686)" fill="#040404"/>
    <path id="Trazado_628781" data-name="Trazado 628781" d="M1490.119,521.138a1.173,1.173,0,0,1-1.193-1.2,1.186,1.186,0,1,1,2.372.047A1.166,1.166,0,0,1,1490.119,521.138Z" transform="translate(-30.445 -107.72)" fill="#070707"/>
    <path id="Trazado_628782" data-name="Trazado 628782" d="M1603.85,521.109c-2.314,0-4.628.006-6.941,0a1.164,1.164,0,0,1-1.259-1.4,1.22,1.22,0,0,1,1.308-.964c1.226-.012,2.452,0,3.678,0h9.67c.178,0,.357-.009.534.005a1.214,1.214,0,0,1,1.2,1.219,1.165,1.165,0,0,1-1.249,1.148c-1.938.011-3.876,0-5.814,0Z" transform="translate(-111.758 -107.688)" fill="#040404"/>
    <path id="Trazado_628783" data-name="Trazado 628783" d="M1603.842,544.017c-2.294,0-4.588,0-6.882,0a1.189,1.189,0,0,1-1.308-.952,1.166,1.166,0,0,1,1.2-1.416q6.972-.017,13.943,0a1.185,1.185,0,1,1-.01,2.365C1608.47,544.023,1606.156,544.016,1603.842,544.017Z" transform="translate(-111.76 -125.146)" fill="#020202"/>
    <path id="Trazado_628784" data-name="Trazado 628784" d="M1564.083,452.965h-1.589q-4.743,0-9.486,0c-.288,0-.52.057-.4-.417a5.938,5.938,0,0,1,11.5.264A.581.581,0,0,1,1564.083,452.965Z" transform="translate(-78.949 -53.955)" fill="#a67bc9"/>
    <path id="Trazado_628785" data-name="Trazado 628785" d="M1569.212,415.268a2.361,2.361,0,0,1,2.322,2.415,2.375,2.375,0,1,1-4.748-.106A2.362,2.362,0,0,1,1569.212,415.268Z" transform="translate(-89.779 -28.843)" fill="#f5dad3"/>
  </g>
</svg>
