<svg xmlns="http://www.w3.org/2000/svg" width="102" height="102" viewBox="0 0 102 102">
  <g id="Grupo_952068" data-name="Grupo 952068" transform="translate(-303 -3929)">
    <g id="Grupo_951854" data-name="Grupo 951854" transform="translate(-26 -7558)">
      <path id="Trazado_621807" data-name="Trazado 621807" d="M51,0A51,51,0,1,1,0,51,51,51,0,0,1,51,0Z" transform="translate(329 11487)" fill="#ef8b53"/>
    </g>
    <g id="Grupo_952067" data-name="Grupo 952067" transform="translate(-411.209 188.85)">
      <g id="Grupo_952066" data-name="Grupo 952066" transform="translate(717 3743)">
        <path id="Trazado_628841" data-name="Trazado 628841" d="M1534.5,198.483a3.034,3.034,0,0,0,2.6,4.454c.839.039,1.683.038,2.523,0,.521-.024.725.091.716.672-.035,2.393.012,4.787-.025,7.18a4.6,4.6,0,0,1-4.586,4.571q-9.365.045-18.732,0a4.611,4.611,0,0,1-4.622-4.634c-.028-2.361.009-4.722-.019-7.083-.006-.528.105-.742.679-.709.838.049,1.683.037,2.523,0a3.1,3.1,0,0,0-.021-6.195c-.84-.028-1.683-.031-2.522,0-.486.02-.667-.1-.659-.629.031-2.425-.018-4.852.026-7.277a4.637,4.637,0,0,1,4.539-4.524c.1,0,.195.006.291,0,.969-.1,2.281.461,2.822-.245.494-.645.431-1.827.87-2.7a.86.86,0,0,0-.066-.658,41.44,41.44,0,0,1,2.737-33.3,1.564,1.564,0,0,0,.066-.357c-2.745,0-5.449.016-8.153-.008-1.022-.009-2.389.441-2.966-.19-.5-.552-.148-1.9-.15-2.9-.006-3.881.011-7.762-.016-11.644,0-.615.13-.815.783-.8,2.587.041,5.177.037,7.764,0,.617-.008.81.134.8.784-.034,3.622,0,7.245-.031,10.868,0,.621.14.806.786.8,2.333-.015,2.334.012,2.334-2.346,0-5.143.016-10.285-.019-15.428-.005-.723.163-.91.893-.9,2.555.051,5.112.042,7.667,0,.634-.009.8.16.794.794-.023,3.427,0,6.855.012,10.283-.009,1.746-.023,3.492-.026,5.237,0,2.465,0,2.45,2.523,2.348.467-.019.595-.143.59-.6-.03-2.974-.032-5.949-.043-8.923.011-4.819.04-9.638.015-14.456,0-.726.169-.908.9-.894,2.555.05,5.112.042,7.667,0,.638-.009.8.166.792.8-.037,2.554-.015,5.108-.015,7.738,1.52-.408,2.981-.85,4.467-1.192a41.315,41.315,0,0,1,27.669,3.046c.718.34.883.285,1.116-.5a13.945,13.945,0,0,1,27.142,2.082,13.512,13.512,0,0,1-5.853,13.474,3.96,3.96,0,0,0-1.763,3.427,16.161,16.161,0,0,0,.976,6.14,36.183,36.183,0,0,1,2.074,10.9.968.968,0,0,0,.8,1.061,7.618,7.618,0,0,1,5.489,7.395c.019,10.286.006,20.572.015,30.858a2.383,2.383,0,0,1-.274,1.106c-1.248,2.477-2.5,4.953-3.728,7.44a4.1,4.1,0,0,1-7.546-.008q-1.843-3.73-3.731-7.437a2.737,2.737,0,0,1-.264-1.3c.008-3.425,0-6.849,0-10.324-.36.09-.47.378-.643.577a42.042,42.042,0,0,1-48.536,11.419c-.871-.368-1.263-.719-.63-1.593a1.637,1.637,0,0,0,.155-.453,3.091,3.091,0,0,0,.327-.576c.186-.593.46-.69,1.056-.422a38.6,38.6,0,0,0,13.281,3.245c.724.05.84-.133.837-.8-.026-5.043-.006-10.086-.022-15.129,0-.86.376-2-.17-2.5-.469-.423-1.594-.133-2.428-.137-1.587-.009-1.587,0-2.107-1.468-.119-.334-.218-.677-.361-1a.813.813,0,0,0-1.231-.487c-.551.268-1.125.493-1.652.8a.87.87,0,0,1-1.244-.215c-1.919-1.967-3.878-3.894-5.818-5.841-.568-.571-1.4-1.079-1.6-1.764-.2-.7.558-1.438.865-2.174.025-.059.044-.121.072-.18a.812.812,0,0,0-.486-1.232,9.833,9.833,0,0,0-1.641-.575c-.71-.151-.888-.535-.842-1.212.059-.869-.021-1.747.027-2.617.031-.567-.173-.7-.706-.684-1.454.035-2.91.012-4.365.012-4.235,0-8.471-.006-12.707.012-.3,0-.828-.285-.784.457a37.9,37.9,0,0,0,1.709,9.489.994.994,0,0,0,.23-.037,6.187,6.187,0,0,1,8.819,5.141c.033.5.286.47.622.468.905-.006,1.812-.028,2.716.008a4.591,4.591,0,0,1,4.427,4.319c.084,2.519.015,5.042.038,7.563,0,.435-.138.551-.553.538-.873-.027-1.748-.045-2.619,0A2.8,2.8,0,0,0,1534.5,198.483Zm55.442-32.8c2.878,0,5.756-.014,8.634.012.573.005.775-.094.718-.736a41.3,41.3,0,0,0-1.278-7.727c-.149-.527-.141-1.231-.486-1.538-.442-.393-.884.374-1.4.441-.478.063-.951.206-1.429.221-1.066.034-2.135.031-3.2.005a4.652,4.652,0,0,1-4.576-4.585c-.026-1.293-.042-2.587,0-3.879a3.7,3.7,0,0,0-1.794-3.4A13.479,13.479,0,0,1,1579.2,134a1.288,1.288,0,0,0-.82-1.222,39.611,39.611,0,0,0-15.376-4.271c-.77-.055-.958.1-.953.874.035,5.237.018,10.475.018,15.712,0,1.96,0,1.96,1.926,1.96,2.259,0,2.259,0,3.019,2.1.044.121.073.249.127.366a.831.831,0,0,0,1.235.5c.555-.261,1.122-.5,1.652-.8a.872.872,0,0,1,1.245.209c1.87,1.924,3.786,3.805,5.682,5.7.594.595,1.445,1.1,1.7,1.819.283.794-.548,1.561-.876,2.345-.282.675-.147,1.112.55,1.356a16.212,16.212,0,0,0,1.646.564c.629.146.785.488.746,1.1-.055.87.033,1.748-.029,2.617-.047.661.2.788.808.782C1584.315,165.665,1587.129,165.682,1589.942,165.682Zm4.776,3.106h-12.661c-1.347,0-1.341,0-1.349,1.376-.006.936.258,2.035-.146,2.754-.312.555-1.474.629-2.256.924a.82.82,0,0,0-.534,1.281c.257.521.469,1.066.761,1.566a.928.928,0,0,1-.211,1.328c-1.9,1.846-3.763,3.739-5.641,5.612-.618.616-1.148,1.5-1.893,1.759-.778.269-1.557-.583-2.35-.91-.712-.294-1.1-.058-1.329.608-.191.548-.427,1.085-.568,1.645-.146.575-.46.732-1.028.7-.935-.047-1.876,0-2.814-.019-.411-.01-.639.026-.637.552q.028,8.733,0,17.465c0,.472.121.622.606.557.96-.129,1.933-.166,2.893-.3a38.316,38.316,0,0,0,27.231-16.879,2.07,2.07,0,0,0,.345-1.267c-.009-4.463.023-8.927-.019-13.39A8.663,8.663,0,0,1,1594.718,168.788Zm-35.753-31.066c0-2.846-.005-5.693.006-8.539,0-.461.024-.768-.639-.72a42.246,42.246,0,0,0-10.794,2.175,1.229,1.229,0,0,0-1.019,1.4c.047,4.689.008,9.38.039,14.069,0,.722-.13.969-.925.963-5.791-.039-11.582-.01-17.373-.036a1.334,1.334,0,0,0-1.355.775,39.394,39.394,0,0,0-5.131,17c-.055.781.148.89.848.886,5.338-.027,10.676-.015,16.015-.015,1.692,0,1.688,0,1.693-1.711,0-.807-.237-1.759.109-2.381s1.431-.572,2.15-.921a.776.776,0,0,1,.093-.026.843.843,0,0,0,.569-1.338c-.241-.493-.436-1.012-.719-1.478a.964.964,0,0,1,.216-1.407c1.977-1.91,3.9-3.875,5.849-5.816.548-.546,1.034-1.348,1.692-1.539.725-.21,1.445.551,2.176.864.853.366,1.172.234,1.507-.682a16.118,16.118,0,0,0,.539-1.553c.137-.54.428-.688.965-.659.9.048,1.814-.032,2.716.028.654.044.794-.185.786-.8C1558.947,143.415,1558.965,140.569,1558.965,137.723Zm-32.65,74.541c3.007,0,6.014.006,9.021,0,1.324,0,1.869-.563,1.884-1.895.008-.711.005-1.422,0-2.133a4.791,4.791,0,0,0-.093-2c-.24-.46-1.121-.224-1.685-.439-.03-.012-.059-.028-.089-.037a6.2,6.2,0,0,1,1.122-12.066c.648-.085.779-.286.758-.87-.041-1.13-.008-2.262-.013-3.394-.007-1.466-.528-2-1.968-2.006-1.681-.006-3.363-.024-5.043.011-.571.012-.815-.1-.768-.734a22.915,22.915,0,0,0,.009-2.423,3.1,3.1,0,0,0-6.2.025c-.022.807-.035,1.618.007,2.423.028.541-.134.719-.692.708-1.778-.034-3.557-.026-5.334-.007a1.564,1.564,0,0,0-1.745,1.736c-.02,1.293.015,2.586-.015,3.879-.011.461.13.581.59.626a6.2,6.2,0,0,1,.125,12.331c-.6.08-.739.246-.718.81.043,1.162.008,2.327.014,3.49.008,1.438.542,1.963,2.009,1.965Q1521.9,212.269,1526.316,212.264Zm48.777-54.548c-.1-.118-.184-.247-.293-.356-1.461-1.465-2.929-2.923-4.384-4.395-.241-.243-.457-.339-.748-.116-1.155.885-2.241.534-3.465.018-1.013-.427-1.714-.917-1.874-2.026-.09-.621-.483-.706-1.036-.7-1.81.03-3.622.047-5.432-.007-.7-.021-1.107.164-1.208.869a1.951,1.951,0,0,1-1.733,1.77,1.2,1.2,0,0,0-.45.175,2.281,2.281,0,0,1-2.909-.024c-.394-.294-.709-.216-1.07.158-1.346,1.4-2.733,2.753-4.1,4.124-.248.247-.582.462-.26.88.888,1.154.533,2.24.019,3.463a2.577,2.577,0,0,1-2.025,1.881c-.516.084-.716.36-.7.932.045,1.938.031,3.879.007,5.818a.719.719,0,0,0,.587.826c.541.178,1.4.185,1.542.665.445,1.453,2,2.793.656,4.516-.3.387-.218.707.156,1.068,1.419,1.369,2.8,2.776,4.19,4.177.244.246.459.46.815.189,1.114-.846,2.167-.556,3.375-.058a2.75,2.75,0,0,1,2.01,2.15c.064.379.221.617.7.61,2.037-.028,4.074-.019,6.111-.005.38,0,.627-.091.68-.5.178-1.369,1.14-1.855,2.3-2.35a2.643,2.643,0,0,1,2.928.07c.395.294.709.214,1.069-.159,1.347-1.4,2.733-2.753,4.106-4.123.249-.248.58-.464.258-.881-.888-1.154-.534-2.241-.02-3.463a2.566,2.566,0,0,1,2.027-1.878c.517-.082.716-.364.7-.934-.044-1.939-.031-3.879-.007-5.818.006-.464-.115-.74-.591-.814a2.407,2.407,0,0,1-2.154-2.1,3.37,3.37,0,0,0-.471-1.056,1.026,1.026,0,0,1,.01-1.162C1574.661,158.705,1574.854,158.224,1575.093,157.715Zm19.594-15.507q0,2.134,0,4.269c0,.281-.062.675.4.557.4-.1,1.076.422,1.184-.363.311-2.267,1.682-3.7,3.454-5.007a10.828,10.828,0,0,0-9.269-19.093,10.833,10.833,0,0,0-3.6,19.326,6.641,6.641,0,0,1,3.077,4.587c.114.9.724.492,1.151.56.683.109.494-.42.5-.759.009-2.684-.007-5.368.016-8.052a1.036,1.036,0,0,0-.645-1.109,4.367,4.367,0,0,1-2.457-3.8,4.646,4.646,0,0,1,8.987-1.9,4.52,4.52,0,0,1-2.066,5.654,1.162,1.162,0,0,0-.735,1.25C1594.718,139.62,1594.688,140.914,1594.688,142.208Zm4.658,48.418V180.257c0-2.157,0-2.114-2.13-2.174-.818-.023-1,.207-.994,1.005.034,7.2.02,14.407.02,21.61,0,2.284,0,2.258,2.325,2.266.642,0,.8-.181.794-.806C1599.332,198.314,1599.346,194.47,1599.346,190.626Zm6.212-.019V180.24c0-2.142,0-2.094-2.149-2.159-.856-.026-.976.268-.972,1.03.029,7.169.017,14.338.017,21.507,0,2.373,0,2.342,2.344,2.348.679,0,.776-.242.772-.831C1605.547,198.292,1605.558,194.449,1605.558,190.607Zm-62.124-57.542v-8.62c0-2.255,0-2.216-2.241-2.259-.764-.014-.882.236-.879.925.027,6.166.016,12.333.016,18.5,0,2.376,0,2.346,2.338,2.353.667,0,.783-.225.779-.824C1543.421,139.78,1543.434,136.423,1543.434,133.065ZM1600.806,175c1.356,0,2.712.009,4.068-.008.246,0,.562.161.689-.293a4.942,4.942,0,0,0-4.424-5.9,4.878,4.878,0,0,0-4.91,5.812c.076.453.329.39.607.39C1598.158,175,1599.482,175,1600.806,175Zm-69.8-38.819v-5.517c0-2.261,0-2.224-2.231-2.265-.743-.013-.9.2-.89.912.035,4.1.017,8.2.017,12.293,0,2.421,0,2.4,2.425,2.356.558-.011.7-.179.691-.713C1530.994,140.891,1531.009,138.535,1531.009,136.18Zm-12.425,3.159v-2.417c0-2.343,0-2.319-2.371-2.309-.6,0-.759.162-.748.756.037,2.062.014,4.124.014,6.186,0,2.491,0,2.474,2.468,2.4.509-.014.66-.151.647-.656C1518.563,141.981,1518.584,140.659,1518.584,139.338Zm78.629,66.733c.974,1.946,1.865,3.793,2.823,5.605a.91.91,0,0,0,1.649.1c1.009-1.849,1.922-3.751,2.91-5.706Zm-4.078-55.916c-.839,0-1.679,0-2.518,0-.186,0-.4-.061-.54.119-.649.826.217,2.862,1.315,2.948a22.883,22.883,0,0,0,3.483,0c1.068-.081,1.532-1.019,1.36-2.572-.114-1.025-.905-.37-1.362-.469A8.344,8.344,0,0,0,1593.135,150.156Zm1.55-17.118a1.551,1.551,0,1,0-1.489,1.589A1.565,1.565,0,0,0,1594.685,133.038Z" transform="translate(-1512.254 -119.08)" fill="#020202"/>
        <path id="Trazado_628842" data-name="Trazado 628842" d="M1549.465,276.54a2.8,2.8,0,0,1,2.667-1.735c.871-.047,1.747-.029,2.619,0,.415.013.557-.1.553-.538-.022-2.521.046-5.045-.038-7.563a4.59,4.59,0,0,0-4.427-4.319c-.9-.035-1.811-.014-2.716-.008-.336,0-.589.032-.622-.468a6.187,6.187,0,0,0-8.818-5.141,1,1,0,0,1-.23.037,37.9,37.9,0,0,1-1.709-9.489c-.044-.742.486-.455.784-.457,4.236-.018,8.472-.012,12.707-.012,1.455,0,2.911.023,4.365-.012.533-.012.737.116.706.684-.048.87.031,1.748-.027,2.617-.046.677.133,1.061.842,1.212a9.833,9.833,0,0,1,1.642.575.812.812,0,0,1,.486,1.232c-.027.058-.047.12-.072.18-.307.735-1.069,1.473-.865,2.174.2.685,1.03,1.193,1.6,1.764,1.94,1.947,3.9,3.874,5.818,5.841a.87.87,0,0,0,1.244.215c.527-.308,1.1-.533,1.652-.8a.813.813,0,0,1,1.231.487c.143.324.242.667.361,1,.521,1.465.521,1.459,2.107,1.468.835,0,1.96-.286,2.428.137.547.494.167,1.638.17,2.5.016,5.043,0,10.086.022,15.129,0,.663-.113.846-.837.8a38.6,38.6,0,0,1-13.281-3.245c-.6-.268-.87-.172-1.056.422a3.088,3.088,0,0,1-.327.576,31.314,31.314,0,0,1-6.109-3.424C1551.387,277.75,1550.685,276.731,1549.465,276.54Z" transform="translate(-1527.219 -197.137)" fill="#e5e8eb"/>
        <path id="Trazado_628843" data-name="Trazado 628843" d="M1571.549,158.557c.011,2.974.013,5.949.043,8.923,0,.46-.123.584-.59.6-2.525.1-2.528.117-2.523-2.348,0-1.746.017-3.491.026-5.237.82-.025,1.18-.773,1.779-1.148A5.086,5.086,0,0,1,1571.549,158.557Z" transform="translate(-1546.615 -143.206)" fill="#e5e8eb"/>
        <path id="Trazado_628844" data-name="Trazado 628844" d="M1668.209,180.475c-2.813,0-5.627-.017-8.44.014-.611.007-.855-.12-.807-.782.062-.869-.026-1.748.029-2.617.039-.607-.116-.949-.746-1.1a16.192,16.192,0,0,1-1.646-.564c-.7-.244-.832-.682-.55-1.356.328-.784,1.159-1.551.876-2.345-.255-.717-1.106-1.225-1.7-1.819-1.9-1.9-3.812-3.779-5.683-5.7A.872.872,0,0,0,1648.3,164c-.53.3-1.1.544-1.652.8a.831.831,0,0,1-1.235-.5c-.054-.117-.083-.244-.127-.366-.76-2.1-.76-2.1-3.018-2.1-1.927,0-1.927,0-1.927-1.96,0-5.238.017-10.475-.018-15.712-.005-.774.183-.929.953-.874a39.607,39.607,0,0,1,15.376,4.271,1.288,1.288,0,0,1,.821,1.222,13.478,13.478,0,0,0,5.934,10.5,3.7,3.7,0,0,1,1.794,3.4c-.046,1.292-.03,2.587,0,3.879a4.652,4.652,0,0,0,4.577,4.585c1.067.026,2.135.028,3.2-.005.478-.015.951-.157,1.429-.221.513-.068.955-.835,1.4-.441.345.307.336,1.011.486,1.538a41.3,41.3,0,0,1,1.278,7.727c.056.642-.145.742-.718.737C1673.965,180.461,1671.087,180.475,1668.209,180.475Z" transform="translate(-1590.52 -133.873)" fill="#e5e8eb"/>
        <path id="Trazado_628845" data-name="Trazado 628845" d="M1672.995,246.91a8.661,8.661,0,0,0-1.6,5.364c.041,4.463.01,8.927.019,13.39a2.066,2.066,0,0,1-.345,1.266,38.316,38.316,0,0,1-27.231,16.879c-.96.135-1.933.173-2.893.3-.485.065-.607-.084-.606-.557q.02-8.733,0-17.465c0-.526.226-.562.637-.552.938.021,1.878-.028,2.814.019.567.028.882-.128,1.027-.7.141-.56.378-1.1.569-1.645.233-.666.617-.9,1.329-.608.793.327,1.572,1.179,2.35.91.745-.257,1.276-1.142,1.893-1.759,1.878-1.873,3.737-3.766,5.641-5.612a.928.928,0,0,0,.211-1.328c-.291-.5-.5-1.045-.761-1.566a.82.82,0,0,1,.534-1.281c.782-.294,1.945-.369,2.257-.924.4-.719.14-1.818.146-2.754.009-1.376,0-1.376,1.349-1.376ZM1644.006,280.7c.238-.036.365-.054.493-.076a35.718,35.718,0,0,0,18.75-9.236c1.749-1.624,1.723-1.606.017-3.254-.5-.487-.753-.418-1.209.046a32.6,32.6,0,0,1-16.66,9.132c-.713.156-1.792-.109-2.049.623-.237.676.175,1.57.261,2.373C1643.649,280.662,1643.807,280.741,1644.006,280.7Zm25.587-17.186c.087-.29-.008-.383-.117-.447-.723-.421-1.45-.834-2.175-1.253-.162-.094-.277-.095-.392.084-.54.839-1.1,1.666-1.635,2.507-.223.35.128.462.322.569.732.4,1.469,1.624,2.07,1.217C1668.555,265.582,1669.023,264.357,1669.593,263.51Z" transform="translate(-1590.53 -197.202)" fill="#e4e7ea"/>
        <path id="Trazado_628846" data-name="Trazado 628846" d="M1573.914,152.461c0,2.846-.019,5.693.014,8.539.007.618-.132.847-.786.8-.9-.06-1.812.019-2.716-.028-.537-.028-.828.119-.965.659a15.991,15.991,0,0,1-.539,1.553c-.335.917-.654,1.048-1.507.682-.732-.313-1.451-1.074-2.176-.864-.658.191-1.144.993-1.693,1.539-1.948,1.94-3.872,3.906-5.849,5.816a.964.964,0,0,0-.216,1.406c.284.466.479.985.719,1.478a.843.843,0,0,1-.569,1.339.732.732,0,0,0-.094.026c-.719.348-1.8.292-2.15.921s-.106,1.573-.109,2.381c-.006,1.711,0,1.711-1.694,1.711-5.338,0-10.676-.012-16.014.015-.7,0-.9-.105-.848-.886a39.387,39.387,0,0,1,5.131-17,1.334,1.334,0,0,1,1.355-.775c5.791.026,11.582,0,17.373.036.794.005.929-.242.925-.963-.031-4.69.008-9.38-.039-14.069a1.228,1.228,0,0,1,1.019-1.4,42.246,42.246,0,0,1,10.795-2.175c.662-.048.64.259.639.72C1573.909,146.769,1573.914,149.615,1573.914,152.461Z" transform="translate(-1527.202 -133.819)" fill="#e5e8eb"/>
        <path id="Trazado_628847" data-name="Trazado 628847" d="M1531.362,309.91q-4.413,0-8.827,0c-1.467,0-2-.527-2.009-1.965-.006-1.163.029-2.328-.014-3.49-.021-.564.121-.729.718-.81a6.2,6.2,0,0,0-.126-12.331c-.459-.045-.6-.164-.589-.626.03-1.292,0-2.586.015-3.878a1.565,1.565,0,0,1,1.745-1.736c1.778-.019,3.557-.027,5.334.007.559.011.721-.168.693-.708-.042-.806-.029-1.616-.007-2.423a3.1,3.1,0,0,1,6.2-.025,22.916,22.916,0,0,1-.009,2.423c-.047.633.2.746.768.734,1.68-.035,3.362-.018,5.043-.011,1.439.006,1.961.541,1.967,2.006.005,1.131-.027,2.264.013,3.394.021.584-.11.785-.758.87A6.2,6.2,0,0,0,1540.4,303.4c.031.01.06.026.089.037.564.215,1.445-.021,1.685.439a4.787,4.787,0,0,1,.093,2c.005.711.008,1.422,0,2.133-.015,1.332-.56,1.891-1.884,1.895C1537.376,309.916,1534.369,309.91,1531.362,309.91Z" transform="translate(-1517.3 -216.726)" fill="#bbd989"/>
        <path id="Trazado_628848" data-name="Trazado 628848" d="M1624.07,206.522c-.24.509-.432.99-.685,1.436a1.025,1.025,0,0,0-.01,1.162,3.37,3.37,0,0,1,.471,1.056,2.407,2.407,0,0,0,2.154,2.1c.476.073.6.35.591.813-.024,1.939-.037,3.879.007,5.818.013.571-.185.852-.7.934a2.566,2.566,0,0,0-2.027,1.878c-.514,1.223-.869,2.309.02,3.463.322.417-.01.633-.258.881-1.373,1.37-2.76,2.727-4.106,4.123-.36.373-.675.453-1.069.159a2.643,2.643,0,0,0-2.928-.07c-1.164.5-2.126.981-2.3,2.35-.053.406-.3.5-.68.5-2.037-.014-4.074-.023-6.111.005-.478.007-.634-.231-.7-.61a2.751,2.751,0,0,0-2.01-2.15c-1.208-.5-2.26-.789-3.375.058-.356.271-.571.058-.815-.189-1.388-1.4-2.771-2.808-4.19-4.177-.374-.36-.458-.681-.156-1.068,1.344-1.723-.211-3.063-.656-4.516-.147-.48-1-.488-1.542-.665a.719.719,0,0,1-.587-.826c.024-1.939.038-3.88-.007-5.818-.013-.572.187-.848.7-.932a2.577,2.577,0,0,0,2.025-1.881c.515-1.223.87-2.309-.019-3.463-.322-.418.012-.633.26-.88,1.372-1.371,2.759-2.728,4.105-4.124.36-.374.676-.451,1.07-.158a2.281,2.281,0,0,0,2.91.024,1.2,1.2,0,0,1,.449-.175,1.95,1.95,0,0,0,1.733-1.77c.1-.705.509-.89,1.208-.869,1.81.054,3.622.037,5.432.007.552-.009.946.075,1.036.7.16,1.109.861,1.6,1.875,2.026,1.224.516,2.309.867,3.465-.018.291-.223.507-.127.748.116,1.454,1.472,2.922,2.93,4.384,4.395C1623.885,206.275,1623.973,206.4,1624.07,206.522Zm-27,9.466a12.425,12.425,0,1,0,12.527-12.367A12.461,12.461,0,0,0,1597.071,215.988Z" transform="translate(-1561.23 -167.887)" fill="#f3d47d"/>
        <path id="Trazado_628849" data-name="Trazado 628849" d="M1704.7,147.114c0-1.294.03-2.588-.013-3.88a1.162,1.162,0,0,1,.736-1.25,4.521,4.521,0,0,0,2.066-5.654,4.646,4.646,0,0,0-8.987,1.9,4.367,4.367,0,0,0,2.457,3.8,1.035,1.035,0,0,1,.645,1.109c-.022,2.684-.006,5.368-.015,8.052,0,.339.188.868-.5.759-.427-.068-1.037.337-1.151-.56a6.642,6.642,0,0,0-3.078-4.587,10.833,10.833,0,0,1,3.6-19.326,10.828,10.828,0,0,1,9.269,19.093c-1.772,1.309-3.143,2.74-3.454,5.007-.108.786-.783.261-1.184.363-.46.118-.4-.276-.4-.557Q1704.7,149.249,1704.7,147.114Z" transform="translate(-1622.269 -123.987)" fill="#f9e7ad"/>
        <path id="Trazado_628850" data-name="Trazado 628850" d="M1731.31,283.353c0,3.844-.014,7.688.014,11.532,0,.625-.152.808-.794.806-2.324-.007-2.324.019-2.324-2.265,0-7.2.014-14.407-.02-21.61,0-.8.176-1.028.994-1.005,2.129.06,2.13.017,2.13,2.174Z" transform="translate(-1644.218 -211.807)" fill="#bbda89"/>
        <path id="Trazado_628851" data-name="Trazado 628851" d="M1747.29,283.331c0,3.843-.011,7.685.012,11.528,0,.589-.093.833-.772.831-2.344-.006-2.344.024-2.344-2.348,0-7.169.012-14.338-.018-21.507,0-.762.116-1.055.973-1.03,2.148.065,2.149.017,2.149,2.159Z" transform="translate(-1653.985 -211.804)" fill="#ee8774"/>
        <path id="Trazado_628852" data-name="Trazado 628852" d="M1587.534,137.944c0,3.358-.013,6.716.012,10.073,0,.6-.111.826-.779.824-2.338-.006-2.338.023-2.338-2.353,0-6.167.011-12.333-.016-18.5,0-.688.115-.939.879-.925,2.24.043,2.24,0,2.24,2.259Z" transform="translate(-1556.353 -123.96)" fill="#ee8774"/>
        <path id="Trazado_628853" data-name="Trazado 628853" d="M1732.665,253.121c-1.323,0-2.647,0-3.971,0-.277,0-.531.063-.607-.39a4.878,4.878,0,0,1,4.91-5.812,4.942,4.942,0,0,1,4.424,5.9c-.127.453-.443.29-.688.293C1735.377,253.13,1734.021,253.121,1732.665,253.121Z" transform="translate(-1644.113 -197.203)" fill="#a9b0ba"/>
        <path id="Trazado_628854" data-name="Trazado 628854" d="M1555.579,150.822c0,2.355-.015,4.711.011,7.066.006.534-.133.7-.691.713-2.425.045-2.425.065-2.425-2.356,0-4.1.018-8.2-.017-12.293-.006-.707.147-.926.89-.912,2.23.04,2.231,0,2.231,2.265Z" transform="translate(-1536.824 -133.723)" fill="#ee8774"/>
        <path id="Trazado_628855" data-name="Trazado 628855" d="M1523.631,163.746c0,1.321-.021,2.643.011,3.963.012.506-.138.642-.647.656-2.468.07-2.468.088-2.468-2.4,0-2.062.022-4.125-.014-6.186-.01-.593.147-.753.748-.756,2.37-.01,2.37-.034,2.37,2.309Z" transform="translate(-1517.301 -143.488)" fill="#ee8774"/>
        <path id="Trazado_628856" data-name="Trazado 628856" d="M1730.736,342.788h7.381c-.989,1.955-1.9,3.857-2.91,5.706a.91.91,0,0,1-1.649-.1C1732.6,346.581,1731.71,344.734,1730.736,342.788Z" transform="translate(-1645.776 -255.796)" fill="#a9b0ba"/>
        <path id="Trazado_628857" data-name="Trazado 628857" d="M1715.091,198.857a8.342,8.342,0,0,1,1.737.028c.458.1,1.249-.556,1.362.469.172,1.553-.292,2.491-1.36,2.572a22.883,22.883,0,0,1-3.482,0c-1.1-.086-1.964-2.122-1.315-2.948.141-.18.355-.117.54-.119C1713.412,198.854,1714.252,198.857,1715.091,198.857Z" transform="translate(-1634.21 -167.781)" fill="#a9b0ba"/>
        <path id="Trazado_628858" data-name="Trazado 628858" d="M1719.36,152.595a1.551,1.551,0,1,1-1.564-1.513A1.57,1.57,0,0,1,1719.36,152.595Z" transform="translate(-1636.929 -138.638)" fill="#eacc79"/>
        <path id="Trazado_628859" data-name="Trazado 628859" d="M1648.626,313.519c-.2.045-.357-.033-.4-.392-.086-.8-.5-1.7-.261-2.373.257-.733,1.336-.467,2.049-.623a32.6,32.6,0,0,0,16.66-9.132c.456-.464.705-.533,1.209-.046,1.706,1.648,1.731,1.629-.017,3.254a35.718,35.718,0,0,1-18.75,9.236C1648.992,313.465,1648.864,313.483,1648.626,313.519Z" transform="translate(-1595.15 -230.025)" fill="#040404"/>
        <path id="Trazado_628860" data-name="Trazado 628860" d="M1708.671,286.827c-.571.847-1.039,2.073-1.928,2.676-.6.407-1.338-.815-2.071-1.217-.193-.106-.544-.219-.321-.569.536-.841,1.095-1.669,1.635-2.507.115-.179.231-.178.392-.084.724.419,1.452.832,2.175,1.253C1708.662,286.444,1708.758,286.537,1708.671,286.827Z" transform="translate(-1629.608 -220.519)" fill="#040404"/>
        <path id="Trazado_628861" data-name="Trazado 628861" d="M1604.421,223.34a12.425,12.425,0,1,1,12.323,12.476A12.457,12.457,0,0,1,1604.421,223.34Zm12.4-9.259a9.314,9.314,0,1,0,9.345,9.284A9.345,9.345,0,0,0,1616.816,214.081Z" transform="translate(-1568.58 -175.239)" fill="#040303"/>
        <path id="Trazado_628862" data-name="Trazado 628862" d="M1621.7,218.965a9.314,9.314,0,1,1-9.286,9.342A9.34,9.34,0,0,1,1621.7,218.965Z" transform="translate(-1573.467 -180.123)" fill="#e4e7ea"/>
      </g>
    </g>
  </g>
</svg>
