<svg xmlns="http://www.w3.org/2000/svg" width="65.292" height="63.201" viewBox="0 0 65.292 63.201">
  <g id="Grupo_952065" data-name="Grupo 952065" transform="translate(-1839.909 -383.219)">
    <path id="Trazado_628815" data-name="Trazado 628815" d="M1840.891,517.765c-.781-.193-.976-.434-.978-1.236,0-2.039-.008-4.079,0-6.118a4.392,4.392,0,0,1,1.99-3.778c.289-.2.412-.309.181-.668a5.851,5.851,0,0,1-.859-3.215c-.006-1.72-.011-3.441,0-5.162a3.875,3.875,0,0,1,4.087-4.075c1.381,0,2.762-.007,4.143,0a3.833,3.833,0,0,1,4,3.953c.017,1.784,0,3.569.006,5.353a5.772,5.772,0,0,1-.782,3.041c-.18.3-.117.422.161.581a3.9,3.9,0,0,1,1.129,1.107c1.43,1.9,2.876,3.786,4.29,5.7a1.061,1.061,0,0,0,1,.49c.912-.034,1.827-.024,2.74,0,.358.009.479-.1.471-.464-.023-1.019.027-2.041-.017-3.058a3.944,3.944,0,0,1,1.374-3.157,8.4,8.4,0,0,1,2.5-1.609c.309-.132.4-.272.26-.62a4.659,4.659,0,0,1-.308-1.746c0-1.933-.03-3.866,0-5.8a3.764,3.764,0,0,1,3.728-3.753c2.464-.048,4.929-.019,7.393-.01.675,0,1.09.347,1.087.988-.017,3.079.113,6.159-.068,9.237,0,.064-.013.127-.016.191-.022.416-.436.865-.19,1.2.223.3.73.384,1.107.575a8.036,8.036,0,0,1,1.98,1.374,3.947,3.947,0,0,1,1.344,3.108c-.041,1.018.011,2.039-.018,3.058-.012.406.125.5.508.493.913-.026,1.828-.031,2.74,0a1.013,1.013,0,0,0,.95-.467c1.429-1.926,2.884-3.833,4.327-5.748a2.833,2.833,0,0,1,.881-.907c.568-.287.51-.581.232-1.064a4.864,4.864,0,0,1-.615-2.441c0-1.933-.028-3.867,0-5.8a3.79,3.79,0,0,1,3.765-3.787c1.55-.038,3.1-.035,4.653,0a3.747,3.747,0,0,1,3.764,3.589c.1,2.076.038,4.162,0,6.242a5.217,5.217,0,0,1-.829,2.642c-.16.26-.188.389.11.587a4.509,4.509,0,0,1,2.074,4.055c-.02,1.975-.013,3.951,0,5.926a1.036,1.036,0,0,1-.891,1.189c-.778-.133-1.024-.4-1.026-1.17q-.008-3.076,0-6.151a2.585,2.585,0,0,0-.749-1.891c-.725-.739-1.073-.772-1.95-.205a6.067,6.067,0,0,1-6.282-.42.722.722,0,0,0-.771,0,2.1,2.1,0,0,0-.843.753c-1.569,2.085-3.156,4.156-4.707,6.255a1.668,1.668,0,0,1-1.508.737c-2.017-.028-4.034-.021-6.051-.005a1.744,1.744,0,1,0,.056,3.484c2.463.012,4.927-.03,7.388.021a2.389,2.389,0,0,0,2.15-1.084c1.229-1.676,2.492-3.328,3.744-4.988.479-.635,1.026-.791,1.506-.437s.505.934.034,1.563q-1.393,1.859-2.8,3.71a1.074,1.074,0,0,0-.285.681q.016,3.789,0,7.578c0,.318.072.449.422.446,2.823-.021,5.646-.024,8.469-.033.55.009,1.1-.005,1.649.034.412.03.538-.1.531-.52-.025-1.567-.012-3.134-.009-4.7,0-.835.18-1.053,1.015-1.27.716.186.92.669.909,1.376-.032,1.932-.008,3.864-.012,5.8,0,.891-.333,1.219-1.238,1.219q-31.407,0-62.813,0c-.9,0-1.222-.333-1.224-1.232q0-2.93,0-5.86c0-.862.133-1.034.985-1.311a1.173,1.173,0,0,1,.939,1.362c-.027,1.672,0,3.344.006,5.016-.01.086.024.125.113.106l8.784-.01c.53.008,1.061-.009,1.588.031.445.034.577-.118.573-.566-.02-2.437-.01-4.875-.009-7.312a.973.973,0,0,0-.154-.661c-.666-.849-1.32-1.706-1.979-2.56-.384-.532-.792-1.049-1.146-1.6a.873.873,0,0,1,.206-1.249.894.894,0,0,1,1.266.084,2.959,2.959,0,0,1,.318.4c1.292,1.709,2.59,3.415,3.872,5.132a1.941,1.941,0,0,0,1.676.854c2.526-.016,5.053-.005,7.579-.007a2.222,2.222,0,0,0,.815-.1,1.731,1.731,0,0,0,1.109-1.93,1.664,1.664,0,0,0-1.673-1.448c-2.016-.021-4.034-.033-6.05,0a1.814,1.814,0,0,1-1.662-.814c-1.517-2.071-3.086-4.1-4.631-6.154a2.246,2.246,0,0,0-.953-.814.7.7,0,0,0-.709.057,5.948,5.948,0,0,1-6.712.1.693.693,0,0,0-.766-.011,2.535,2.535,0,0,0-1.467,2.352q-.018,3.088,0,6.177A1.062,1.062,0,0,1,1840.891,517.765Zm27.323-19.807c-.013.1.043.114.123.1l6.258,0c.527.007,1.054,0,1.58.025.28.011.43-.05.419-.377-.02-.632-.018-1.265,0-1.9.009-.322-.14-.392-.422-.381-.526.022-1.052.022-1.579.031-1.351-.009-2.7-.023-4.053-.026C1868.824,495.422,1868.092,496.224,1868.214,497.957ZM1888.1,526.6c.592.006,1.184,0,1.776.025.339.015.435-.123.432-.444q-.016-2.348,0-4.7c0-.326-.108-.456-.44-.442-.591.025-1.183.023-1.774.033-.148-.008-.3-.023-.444-.023h-32.214a1.582,1.582,0,0,1-.191,0c-.324-.039-.45.088-.446.427.02,1.676.021,3.351.029,5.027,0,.093.05.117.132.1.255,0,.51.013.764.013h31.612C1887.589,526.62,1887.844,526.609,1888.1,526.6Zm-15.611-7.462c1.38,0,2.761,0,4.141,0,.285,0,.476.031.339-.4-.841-2.63.583-4.744,3.367-5.014.3-.029.4-.116.391-.414a19.731,19.731,0,0,1,.012-2.609,2.862,2.862,0,0,0-1.615-2.918,11.28,11.28,0,0,0-1.638-.84.518.518,0,0,0-.663.124,6.034,6.034,0,0,1-8.81.075c-.169-.155-.291-.261-.54-.15a7.467,7.467,0,0,0-2.541,1.65,1.885,1.885,0,0,0-.561,1.371c.021,1.061.018,2.123,0,3.185-.006.351.039.514.464.541a3.615,3.615,0,0,1,3.329,4.941c-.132.389-.083.466.311.461C1869.811,519.132,1871.149,519.142,1872.487,519.142Zm-.137-19.151v0c-1.23,0-2.461.009-3.691-.006-.329,0-.5.044-.482.437.032.89-.009,1.782.023,2.672a4.179,4.179,0,0,0,8.325.323c.116-.951.013-1.908.064-2.859.023-.433-.089-.586-.551-.573C1874.811,500.012,1873.58,499.99,1872.35,499.99Zm-24.96-4.56v-.006c-.722,0-1.443-.008-2.165,0a1.946,1.946,0,0,0-2.076,1.952c-.042,1.527-.013,3.055-.013,4.583,0,.169-.005.328.193.425a3.1,3.1,0,0,0,3.583-1.165,5.829,5.829,0,0,0,.633-2.378c.1-1.128.795-1.471,1.719-.85a4.42,4.42,0,0,0,.833.456c1.241.489,1.46.333,1.434-.981a1.942,1.942,0,0,0-2.042-2.036C1848.791,495.421,1848.091,495.43,1847.39,495.43Zm50.374.008v-.016c-.743,0-1.485-.015-2.228,0a1.95,1.95,0,0,0-1.969,1.985c-.006.255.015.511-.005.763-.033.4.148.52.529.487a3.879,3.879,0,0,0,1.916-.777.94.94,0,0,1,1.534.716c.039.336.073.674.122,1.009.335,2.283,1.619,3.2,3.872,2.8.319-.057.427-.186.426-.5-.01-1.485.025-2.971-.016-4.455a1.957,1.957,0,0,0-2.082-2.016C1899.164,495.429,1898.464,495.438,1897.764,495.438Zm-54.248,8.919c-.063.243.077.393.163.552a4.186,4.186,0,0,0,7.707-.883,12.446,12.446,0,0,0,.158-2.53c.048-.629-.027-1.071-.826-.959a1.175,1.175,0,0,1-.622-.1c-.613-.285-.843-.14-1.042.55a4.385,4.385,0,0,1-4.028,3.422A6.777,6.777,0,0,1,1843.515,504.357Zm58.068.053c-.145-.09-.289,0-.432.01a4.617,4.617,0,0,1-5.114-3.372,2.767,2.767,0,0,1-.135-.489c-.035-.281-.144-.363-.422-.255a4.355,4.355,0,0,1-1.558.27c-.279,0-.368.109-.363.375.012.636-.005,1.273.006,1.91a4.193,4.193,0,0,0,3.8,4.218A4.081,4.081,0,0,0,1901.583,504.41Z" transform="translate(0 -82.11)" fill="#030303"/>
    <path id="Trazado_628816" data-name="Trazado 628816" d="M1877.164,408.323a1.053,1.053,0,0,1-1.192.894c-1.784-.015-3.568.007-5.353-.01a4.543,4.543,0,0,1-4.409-3.219.562.562,0,0,0-.659-.47q-6.181.017-12.362,0a.99.99,0,0,0-.775.333c-1.252,1.271-2.523,2.523-3.776,3.793a1.1,1.1,0,0,1-1.3.4,1.088,1.088,0,0,1-.579-1.17c.017-.977-.005-1.954.01-2.931.005-.333-.041-.5-.436-.6a5.769,5.769,0,0,1-4.405-5.684q-.029-5.288,0-10.576a5.805,5.805,0,0,1,5.924-5.863q10.355-.015,20.71,0a5.827,5.827,0,0,1,5.964,5.833c0,.085,0,.17,0,.255.007,1.485.007,1.485,1.464,1.485q7.264,0,14.529,0a4.575,4.575,0,0,1,4.74,3.7,5.606,5.606,0,0,1,.088,1.139q.01,4.364,0,8.729a4.53,4.53,0,0,1-3.259,4.629.475.475,0,0,0-.378.541c.017,1.019,0,2.039.008,3.058,0,.5-.093.946-.608,1.153a1.082,1.082,0,0,1-1.241-.4c-1.255-1.268-2.528-2.519-3.778-3.792a1.043,1.043,0,0,0-.83-.347c-1.529.018-3.058.014-4.588,0a1.03,1.03,0,0,1-1.145-.892c.227-.862.429-1.017,1.335-1.019a19.187,19.187,0,0,0,2.735-.022,4.885,4.885,0,0,1,5.05,2.109,3.553,3.553,0,0,0,1.152,1.045c0-.669,0-1.261,0-1.853.006-.961.217-1.192,1.168-1.288a2.658,2.658,0,0,0,2.454-2.626q.03-4.68,0-9.361a2.565,2.565,0,0,0-2.175-2.519c-.231-.023-.463-.067-.694-.067-5.161,0-10.322,0-15.483-.014-.449,0-.563.117-.558.561.024,2.038.009,4.077.011,6.116a7.161,7.161,0,0,1-.182,1.7,6,6,0,0,1-3.34,4.014,7.055,7.055,0,0,1-2.545.426c-.382-.026-.38.135-.22.4a2.623,2.623,0,0,0,2.348,1.368c1.777.015,3.554,0,5.331.006C1876.758,407.3,1877.01,407.513,1877.164,408.323Zm-32.876-6.867a3.708,3.708,0,0,0,3.223,2.144c.875.071,1.166.358,1.171,1.232,0,.64,0,1.281,0,2.1.974-.993,1.824-1.826,2.633-2.7a1.886,1.886,0,0,1,1.511-.638q7.9.03,15.806.008a3.824,3.824,0,0,0,3.966-3.8q.083-5.415,0-10.832a3.577,3.577,0,0,0-2.115-3.363,3.1,3.1,0,0,0-1.81-.476q-10.448-.011-20.9,0a3.877,3.877,0,0,0-3.932,3.981c-.014,3.5-.006,7.007,0,10.51A3.4,3.4,0,0,0,1844.287,401.457Z" transform="translate(-1.494)" fill="#040404"/>
    <path id="Trazado_628817" data-name="Trazado 628817" d="M1843.754,559.5a1.062,1.062,0,0,0,.941-1.216q-.024-3.088,0-6.177a2.535,2.535,0,0,1,1.467-2.352.693.693,0,0,1,.766.011,5.948,5.948,0,0,0,6.712-.095.7.7,0,0,1,.709-.057,2.245,2.245,0,0,1,.953.814c1.545,2.05,3.114,4.083,4.631,6.154a1.814,1.814,0,0,0,1.662.814c2.016-.036,4.034-.023,6.05,0a1.664,1.664,0,0,1,1.673,1.448,1.731,1.731,0,0,1-1.109,1.93,2.222,2.222,0,0,1-.815.1c-2.526,0-5.053-.009-7.579.007a1.941,1.941,0,0,1-1.676-.854c-1.282-1.718-2.579-3.423-3.872-5.132a2.959,2.959,0,0,0-.318-.4.894.894,0,0,0-1.266-.084.873.873,0,0,0-.206,1.249c.355.551.762,1.069,1.146,1.6q-.009,5.534-.018,11.069l-8.784.01-.113-.106c-.005-1.672-.033-3.345-.006-5.016a1.173,1.173,0,0,0-.939-1.362Q1843.757,560.681,1843.754,559.5Z" transform="translate(-2.863 -123.846)" fill="#eb717a"/>
    <path id="Trazado_628818" data-name="Trazado 628818" d="M1953.624,436.213c-.154-.81-.405-1.022-1.24-1.023-1.777,0-3.554.009-5.331-.006a2.623,2.623,0,0,1-2.348-1.368c-.16-.267-.162-.428.22-.4a7.062,7.062,0,0,0,2.545-.426.856.856,0,0,0,.126.018c5.643.006,11.286.032,16.929,0a3.482,3.482,0,0,0,3.191-3.362q0-4.486,0-8.973a2.565,2.565,0,0,1,2.175,2.519q.032,4.68,0,9.361a2.658,2.658,0,0,1-2.454,2.626c-.951.1-1.162.327-1.168,1.288,0,.592,0,1.184,0,1.853a3.554,3.554,0,0,1-1.152-1.045,4.885,4.885,0,0,0-5.05-2.109,19.189,19.189,0,0,1-2.735.022c-.906,0-1.108.157-1.335,1.019Z" transform="translate(-77.954 -27.889)" fill="#dde8f6"/>
    <path id="Trazado_628819" data-name="Trazado 628819" d="M2077.452,550.458c.877-.567,1.225-.534,1.95.205a2.585,2.585,0,0,1,.749,1.891q-.006,3.075,0,6.151c0,.767.248,1.037,1.026,1.17q-.006,1.193-.012,2.387c-.835.217-1.013.435-1.014,1.27,0,1.567-.016,3.135.009,4.7.007.423-.119.55-.531.52-.548-.04-1.1-.025-1.649-.034,0-5.273-.01-10.546.017-15.819A5.222,5.222,0,0,0,2077.452,550.458Z" transform="translate(-176.872 -124.234)" fill="#bbdfa3"/>
    <path id="Trazado_628820" data-name="Trazado 628820" d="M2013.421,550.042a5.222,5.222,0,0,1,.543,2.442c-.026,5.273-.015,10.546-.017,15.819-2.823.009-5.646.012-8.469.033-.35,0-.423-.128-.422-.446q.015-3.789,0-7.578a1.074,1.074,0,0,1,.285-.681q1.4-1.853,2.8-3.71c.472-.63.453-1.2-.034-1.563s-1.027-.2-1.506.437c-1.252,1.66-2.515,3.312-3.744,4.988a2.388,2.388,0,0,1-2.15,1.084c-2.462-.051-4.925-.009-7.388-.021a1.744,1.744,0,1,1-.056-3.484c2.017-.016,4.034-.023,6.051.005a1.668,1.668,0,0,0,1.508-.737c1.551-2.1,3.137-4.17,4.707-6.255a2.094,2.094,0,0,1,.843-.753.722.722,0,0,1,.771,0A6.067,6.067,0,0,0,2013.421,550.042Z" transform="translate(-112.842 -123.818)" fill="#d3f0a7"/>
    <path id="Trazado_628821" data-name="Trazado 628821" d="M1898.229,606.836c-.008-1.675-.009-3.351-.029-5.027,0-.338.122-.466.446-.427a1.582,1.582,0,0,0,.191,0h32.213c.148,0,.3.015.444.023q0,2.763.006,5.525c-.255.006-.509.017-.764.017h-31.612c-.255,0-.51-.009-.764-.013Z" transform="translate(-43.402 -162.438)" fill="#c69182"/>
    <path id="Trazado_628822" data-name="Trazado 628822" d="M1943.794,558.175c-1.338,0-2.676-.01-4.013.006-.394,0-.444-.072-.311-.461a3.615,3.615,0,0,0-3.329-4.941c-.424-.027-.47-.19-.464-.541.018-1.061.021-2.123,0-3.185a1.885,1.885,0,0,1,.561-1.371,7.467,7.467,0,0,1,2.541-1.65c.249-.111.371-.005.54.15a6.034,6.034,0,0,0,8.81-.075.518.518,0,0,1,.663-.124,11.279,11.279,0,0,1,1.638.839,2.862,2.862,0,0,1,1.615,2.918,19.73,19.73,0,0,0-.012,2.609c.005.3-.088.385-.391.414-2.784.271-4.208,2.385-3.367,5.014.137.429-.053.4-.339.4C1946.555,558.172,1945.175,558.175,1943.794,558.175Z" transform="translate(-71.307 -121.143)" fill="#e4d2fa"/>
    <path id="Trazado_628823" data-name="Trazado 628823" d="M1954.759,518.9c1.23,0,2.461.022,3.69-.011.462-.013.574.14.551.573-.051.952.051,1.909-.064,2.859a4.179,4.179,0,0,1-8.325-.323c-.033-.89.008-1.782-.023-2.672-.014-.392.152-.441.482-.437,1.23.015,2.46.006,3.691.006Z" transform="translate(-82.409 -101.017)" fill="#f6ccbf"/>
    <path id="Trazado_628824" data-name="Trazado 628824" d="M1856.771,501.05c.7,0,1.4-.009,2.1,0a1.941,1.941,0,0,1,2.042,2.036c.026,1.314-.194,1.47-1.434.981a4.422,4.422,0,0,1-.833-.456c-.925-.622-1.618-.279-1.719.85a5.833,5.833,0,0,1-.633,2.378,3.1,3.1,0,0,1-3.583,1.165c-.2-.1-.193-.256-.193-.425,0-1.528-.03-3.057.013-4.583a1.946,1.946,0,0,1,2.076-1.952c.721-.009,1.443,0,2.165,0Z" transform="translate(-9.381 -87.73)" fill="#bb8b87"/>
    <path id="Trazado_628825" data-name="Trazado 628825" d="M2054.167,501.045c.7,0,1.4-.009,2.1,0a1.957,1.957,0,0,1,2.082,2.016c.041,1.484.006,2.97.016,4.455,0,.311-.106.44-.426.5-2.253.4-3.538-.517-3.872-2.8-.049-.335-.083-.672-.122-1.009a.94.94,0,0,0-1.534-.716,3.878,3.878,0,0,1-1.916.777c-.381.033-.562-.083-.529-.487.021-.253,0-.509.005-.763a1.95,1.95,0,0,1,1.969-1.984c.742-.019,1.485,0,2.228,0Z" transform="translate(-156.404 -87.717)" fill="#517999"/>
    <path id="Trazado_628826" data-name="Trazado 628826" d="M1853.982,524.208a6.779,6.779,0,0,0,1.511.055,4.385,4.385,0,0,0,4.028-3.422c.2-.69.429-.835,1.042-.55a1.175,1.175,0,0,0,.622.1c.8-.111.874.33.826.959a12.446,12.446,0,0,1-.158,2.53,4.186,4.186,0,0,1-7.707.883C1854.058,524.6,1853.918,524.451,1853.982,524.208Z" transform="translate(-10.466 -101.961)" fill="#f6ccbf"/>
    <path id="Trazado_628827" data-name="Trazado 628827" d="M2057.987,524.132a4.081,4.081,0,0,1-4.222,2.666,4.193,4.193,0,0,1-3.8-4.218c-.011-.636.006-1.273-.006-1.91,0-.267.084-.374.363-.375a4.354,4.354,0,0,0,1.558-.271c.278-.107.387-.025.422.255a2.758,2.758,0,0,0,.135.489,4.617,4.617,0,0,0,5.114,3.372C2057.7,524.129,2057.842,524.042,2057.987,524.132Z" transform="translate(-156.404 -101.831)" fill="#bb8b87"/>
    <path id="Trazado_628828" data-name="Trazado 628828" d="M1882.315,590.843q.009-5.534.018-11.069c.659.854,1.313,1.712,1.979,2.56a.973.973,0,0,1,.154.661c0,2.437-.011,4.875.009,7.312,0,.448-.128.6-.573.566C1883.376,590.834,1882.844,590.851,1882.315,590.843Z" transform="translate(-31.575 -146.354)" fill="#bc4c53"/>
    <path id="Trazado_628829" data-name="Trazado 628829" d="M1957.075,503.686l-6.258,0-.124-.1c-.123-1.734.61-2.536,2.325-2.532,1.351,0,2.7.017,4.053.026Q1957.073,502.386,1957.075,503.686Z" transform="translate(-82.479 -87.744)" fill="#f6ccbf"/>
    <path id="Trazado_628830" data-name="Trazado 628830" d="M2028.566,606.924q0-2.763-.006-5.525c.592-.009,1.184-.008,1.774-.033.332-.014.442.116.44.442q-.016,2.348,0,4.7c0,.321-.094.458-.432.444C2029.75,606.923,2029.158,606.931,2028.566,606.924Z" transform="translate(-140.468 -162.43)" fill="#a66d5b"/>
    <path id="Trazado_628831" data-name="Trazado 628831" d="M1975.707,503.67q0-1.3,0-2.6c.527-.009,1.053-.009,1.579-.031.283-.012.431.058.422.381-.017.632-.02,1.266,0,1.9.01.327-.139.388-.419.377C1976.761,503.675,1976.234,503.677,1975.707,503.67Z" transform="translate(-101.112 -87.728)" fill="#bb8b87"/>
    <path id="Trazado_628832" data-name="Trazado 628832" d="M1950.727,510.973l.124.1C1950.77,511.087,1950.714,511.073,1950.727,510.973Z" transform="translate(-82.512 -95.125)" fill="#bbdfa3"/>
    <path id="Trazado_628833" data-name="Trazado 628833" d="M1847.474,622.736l.113.106C1847.5,622.861,1847.464,622.822,1847.474,622.736Z" transform="translate(-5.631 -178.343)" fill="#bc4c53"/>
    <path id="Trazado_628834" data-name="Trazado 628834" d="M1898.315,622.755l.132.1C1898.364,622.872,1898.314,622.848,1898.315,622.755Z" transform="translate(-43.488 -178.357)" fill="#a66d5b"/>
    <path id="Trazado_628835" data-name="Trazado 628835" d="M1849.886,407.023a3.4,3.4,0,0,1-.445-1.826c0-3.5-.012-7.007,0-10.51a3.877,3.877,0,0,1,3.932-3.981q10.448-.031,20.9,0a3.1,3.1,0,0,1,1.81.476c0,3.673-.014,7.347,0,11.021a4.872,4.872,0,0,1-4.785,4.82c-3.588-.063-7.178-.018-10.767-.015Q1855.206,407.008,1849.886,407.023Zm14.014-13.047h-1.273q-3.756,0-7.512,0c-.659,0-1.068.351-1.092.9-.025.575.4.972,1.07,1,.148.007.3,0,.446,0h12.031c1.613,0,3.225,0,4.838,0a1.13,1.13,0,0,0,1.059-.448.882.882,0,0,0,.047-.964.981.981,0,0,0-.956-.5Q1868.229,393.982,1863.9,393.976Zm-.133,6.917q4.361,0,8.722,0c.7,0,1.125-.356,1.144-.92.019-.581-.436-.972-1.154-.991-.106,0-.212,0-.318,0q-8.34,0-16.681,0a3.219,3.219,0,0,0-.7.036.929.929,0,0,0-.663,1.328,1.019,1.019,0,0,0,1.051.552C1858.037,400.889,1860.9,400.894,1863.767,400.893Zm-4.329,3.133c-1.4,0-2.8,0-4.2,0-.771,0-1.19.324-1.214.911-.024.609.426,1,1.2,1q4.169.009,8.338,0c.794,0,1.219-.363,1.2-.988-.014-.6-.411-.919-1.192-.922C1862.2,404.022,1860.817,404.026,1859.438,404.026Z" transform="translate(-7.093 -5.566)" fill="#eaf1fb"/>
    <path id="Trazado_628836" data-name="Trazado 628836" d="M1976.075,420.439q0,4.487,0,8.973a3.482,3.482,0,0,1-3.191,3.362c-5.643.029-11.286,0-16.929,0a.856.856,0,0,1-.126-.018,6,6,0,0,0,3.34-4.014,7.161,7.161,0,0,0,.182-1.7c0-2.039.013-4.078-.011-6.116-.005-.443.109-.562.558-.561,5.161.017,10.322.009,15.483.014C1975.612,420.371,1975.843,420.415,1976.075,420.439Z" transform="translate(-86.313 -27.654)" fill="#ecf3fd"/>
    <path id="Trazado_628837" data-name="Trazado 628837" d="M1851.2,408.436q5.32-.01,10.64-.019c3.589,0,7.18-.048,10.768.015a4.871,4.871,0,0,0,4.784-4.82c-.011-3.674,0-7.348,0-11.021a3.577,3.577,0,0,1,2.115,3.363q.074,5.415,0,10.832a3.824,3.824,0,0,1-3.966,3.8q-7.9.016-15.806-.008a1.886,1.886,0,0,0-1.511.638c-.809.871-1.659,1.7-2.633,2.7,0-.822,0-1.462,0-2.1-.005-.874-.3-1.16-1.171-1.232A3.708,3.708,0,0,1,1851.2,408.436Z" transform="translate(-8.407 -6.979)" fill="#dde8f6"/>
    <path id="Trazado_628838" data-name="Trazado 628838" d="M1877.275,403.536q4.329,0,8.657,0a.981.981,0,0,1,.956.5.882.882,0,0,1-.047.964,1.13,1.13,0,0,1-1.059.448c-1.613-.007-3.225,0-4.838,0h-12.031c-.149,0-.3.006-.446,0-.674-.033-1.095-.43-1.07-1,.023-.546.433-.9,1.092-.9q3.756-.008,7.512,0Z" transform="translate(-20.467 -15.126)" fill="#040404"/>
    <path id="Trazado_628839" data-name="Trazado 628839" d="M1877.141,425.051c-2.865,0-5.73,0-8.595,0a1.019,1.019,0,0,1-1.051-.552.929.929,0,0,1,.663-1.328,3.219,3.219,0,0,1,.7-.036q8.34,0,16.681,0c.106,0,.212,0,.318,0,.718.019,1.173.41,1.154.991-.018.564-.448.919-1.143.92Q1881.5,425.055,1877.141,425.051Z" transform="translate(-20.467 -29.724)" fill="#030303"/>
    <path id="Trazado_628840" data-name="Trazado 628840" d="M1872.811,442.892c1.379,0,2.758,0,4.137,0,.782,0,1.178.318,1.192.922.015.625-.411.987-1.2.988q-4.169.008-8.338,0c-.775,0-1.225-.391-1.2-1,.023-.587.442-.908,1.214-.911C1870.01,442.888,1871.411,442.892,1872.811,442.892Z" transform="translate(-20.466 -44.431)" fill="#040404"/>
  </g>
</svg>
