<svg xmlns="http://www.w3.org/2000/svg" width="125" height="125" viewBox="0 0 125 125">
  <g id="Grupo_969984" data-name="Grupo 969984" transform="translate(-318 -6949)">
    <circle id="Elipse_7707" data-name="Elipse 7707" cx="62.5" cy="62.5" r="62.5" transform="translate(318 6949)" fill="#ef8b53"/>
    <g id="Grupo_952164" data-name="Grupo 952164" transform="translate(-1068.646 6307.15)">
      <path id="Trazado_629117" data-name="Trazado 629117" d="M1429.838,686.783a20.109,20.109,0,0,1,29.317-25.826,20.081,20.081,0,0,1,6.277,25.826h.919c4.517,0,9.035.008,13.552-.011a.955.955,0,0,1,1.033.585q4.034,8.148,8.123,16.269a1.147,1.147,0,0,1-.012,1.144,9.987,9.987,0,0,1-7.469,5.931c-.365.07-.469.209-.443.54.016.194,0,.39,0,.585q0,13.8.015,27.6c0,.684-.093.924-.874.923q-32.625-.041-65.249,0c-.7,0-.852-.175-.85-.861.026-9.284.009-18.568.034-27.852,0-.648-.15-.862-.808-1.006a10.062,10.062,0,0,1-7.242-6.1.794.794,0,0,1,.052-.771q4.129-8.237,8.238-16.484a.827.827,0,0,1,.914-.492q6.818.013,13.636.005Zm5.779,23.327c-.18.044-.312.066-.438.109a9.811,9.811,0,0,1-11.261-2.982c-.353-.4-.468-.26-.725.046a9.535,9.535,0,0,1-5.541,3.347c-.7.139-.789.42-.788,1.033q.028,12.5-.007,25.008c0,.8.171,1,.988,1q29.822-.04,59.645-.021a2.992,2.992,0,0,1,.418,0c.444.063.576-.122.562-.56-.03-.975-.01-1.951-.01-2.927q0-11.208.012-22.416c0-.662-.072-.994-.864-1.146a9.167,9.167,0,0,1-5.4-3.26c-.387-.466-.54-.391-.895.018a9.818,9.818,0,0,1-8.06,3.509,12.454,12.454,0,0,1-3.535-.778c0,2.737-.017,5.413.014,8.087.007.575-.128.746-.728.745q-11.335-.033-22.67,0c-.6,0-.737-.165-.73-.743C1435.635,715.508,1435.617,712.832,1435.617,710.11Zm-1.262-21.634c.019-.011.052-.019.055-.034.056-.215.1-.432.162-.646a9.477,9.477,0,0,1,7.3-7.131,6.89,6.89,0,0,0,.97-.222c.485-.2.735-.447.186-.948a5.768,5.768,0,0,1-1.84-3.3,2.589,2.589,0,0,0-.859-1.55,5.959,5.959,0,0,1-1.872-3.095,7.432,7.432,0,0,1,5.886-8.706,24.758,24.758,0,0,1,5.422-.128,7.14,7.14,0,0,1,6.709,4.691,6.174,6.174,0,0,1-1.729,7.5,1.441,1.441,0,0,0-.537.906,6.091,6.091,0,0,1-1.929,3.7c-.5.474-.263.695.171.9a2.9,2.9,0,0,0,.72.188,9.444,9.444,0,0,1,6.153,3.967,10.325,10.325,0,0,1,1.622,3.975,17.357,17.357,0,1,0-26.594-.072Zm13.415,6.347a17.293,17.293,0,0,0,10.065-3.321c.262-.189.522-.333.555-.754a7.058,7.058,0,0,0-5.009-7.332.952.952,0,0,0-1.29.456c-1.261,1.968-2.581,3.9-3.879,5.841-.544.815-.545.814-1.113-.035-1.313-1.967-2.638-3.927-3.931-5.907a.771.771,0,0,0-1.012-.4,7,7,0,0,0-5.217,6.755,1.611,1.611,0,0,0,.8,1.563A17.731,17.731,0,0,0,1447.77,694.823Zm-38.1,8.023c4.1,0,8.052-.016,12.006.015a1.049,1.049,0,0,0,1.228-.858c1-3.152,2.075-6.28,3.119-9.418.339-1.018.667-2.039,1.021-3.124-3.5,0-6.894.009-10.291-.01-.461,0-.546.311-.689.6q-1.405,2.794-2.8,5.6Zm75.85,0c.028-.111.049-.144.039-.163q-3.2-6.42-6.4-12.842a.619.619,0,0,0-.65-.384q-4.848.012-9.7,0c-.417,0-.539.075-.394.5q2.09,6.2,4.146,12.417a.575.575,0,0,0,.646.478C1477.311,702.842,1481.406,702.846,1485.524,702.846Zm-60.095,0h5.468c2.284,0,4.567,0,6.85,0,.305,0,.67.132.709-.423.151-2.137.33-4.273.519-6.408a.68.68,0,0,0-.445-.771,19.491,19.491,0,0,1-6.588-5.413.977.977,0,0,0-.766-.38c-.907-.094-1.561.076-1.677,1.143a5.233,5.233,0,0,1-.333,1.028Zm44.463,0c-.093-.3-.154-.51-.223-.717-1.315-3.951-2.624-7.9-3.958-11.848-.1-.3-.023-.843-.544-.8-.617.048-1.287-.293-1.83.409a18.956,18.956,0,0,1-6.455,5.312.842.842,0,0,0-.514.979q.278,3.076.506,6.156c.029.39.15.519.545.518C1461.538,702.841,1465.658,702.846,1469.892,702.846Zm-12.854,9.325c0-.809-.061-1.623.015-2.424a2.656,2.656,0,0,0-.921-2.43c-.38-.341-.491-.421-.853,0a9.6,9.6,0,0,1-7.206,3.541,9.808,9.808,0,0,1-8-3.476c-.145-.161-.192-.518-.539-.406a4.12,4.12,0,0,0-1.24,1.865q0,2.76,0,5.521c0,1.876,0,1.849,1.85,1.88.633.011.859-.127.845-.813-.041-1.9-.005-1.867,1.9-1.9.649-.01.781.2.773.8-.025,1.911,0,1.882,1.891,1.91.628.009.8-.161.787-.787-.026-1.939,0-1.911,1.961-1.923.625,0,.717.225.714.772-.01,1.98.008,1.958,2.033,1.936.537-.006.637-.184.642-.674.023-2.117.039-2.117,2.1-2.018a.534.534,0,0,0,.084,0c.36-.042.5.113.483.477a6.4,6.4,0,0,0,.017,1.668c.272,1.162,1.226.295,1.838.506.322.111.856.213.828-.523C1457.006,714.514,1457.038,713.342,1457.038,712.171Zm-9.419-9.324c2.008,0,4.015-.008,6.023.006.4,0,.609-.061.562-.542q-.25-2.579-.435-5.164c-.039-.542-.256-.531-.694-.408a19.612,19.612,0,0,1-10.805,0c-.529-.149-.678-.048-.716.478-.119,1.667-.254,3.334-.423,5-.055.543.128.649.632.642C1443.715,702.83,1445.667,702.846,1447.62,702.846Zm-3.961-28.77c0,.306-.016.614,0,.919a4.018,4.018,0,0,0,7.974.4c.449-2.437-.291-3.784-2.455-4.444a5.179,5.179,0,0,0-1.982-.21C1444.952,670.935,1443.651,672.16,1443.658,674.077Zm-2.352-2.684a7.748,7.748,0,0,1,12.74.007,4.519,4.519,0,0,0-2.268-5.476c-1.535-.832-6.782-.8-8.319.052A4.453,4.453,0,0,0,1441.306,671.393Zm-15.278,34.161c3.426,4.053,9.17,2.89,11.025,0Zm43.232-.031H1458.2C1460.71,709.025,1466.756,709.024,1469.261,705.524Zm-59.268.024c3.3,4.068,9.25,2.888,10.964,0Zm43.2-.023h-11.089C1444.857,709.04,1450.656,709.029,1453.2,705.524Zm21.044.031c3.562,4.241,9.5,2.662,10.96,0Zm-28.088-24.33c-.433-.146-.484.268-.685.462a.435.435,0,0,0-.051.65c.676.986,1.334,1.984,1.987,2.985.188.288.314.331.521.011q.974-1.5,1.986-2.985c.169-.246.2-.439-.025-.647-.206-.187-.24-.588-.68-.476A5.763,5.763,0,0,1,1446.151,681.225Z" fill="#020202"/>
      <path id="Trazado_629118" data-name="Trazado 629118" d="M1456.975,808.551c0,2.723.017,5.4-.014,8.072-.007.578.133.744.73.743q11.335-.032,22.67,0c.6,0,.734-.17.728-.745-.031-2.675-.014-5.35-.014-8.087a12.453,12.453,0,0,0,3.535.778,9.818,9.818,0,0,0,8.06-3.509c.355-.409.508-.484.895-.018a9.167,9.167,0,0,0,5.4,3.26c.792.153.866.485.864,1.146q-.028,11.208-.012,22.416c0,.975-.02,1.952.009,2.927.013.438-.119.622-.562.56a2.992,2.992,0,0,0-.418,0q-29.822,0-59.645.021c-.817,0-.991-.2-.988-1q.048-12.5.007-25.008c0-.613.084-.894.788-1.033a9.534,9.534,0,0,0,5.541-3.347c.258-.306.373-.442.725-.046a9.811,9.811,0,0,0,11.261,2.982C1456.663,808.617,1456.8,808.595,1456.975,808.551Zm33.47,21.516V831.4c0,2.09,0,2.07,2.106,2.024.5-.011.586-.191.582-.633-.02-1.838,0-3.676-.017-5.514-.005-.43.107-.592.558-.569.695.035,1.394.035,2.088,0a1.3,1.3,0,0,0,1.215-1.927q-1.946-4.016-3.989-7.985a1.343,1.343,0,0,0-2.42.025q-2.021,3.931-3.956,7.906a1.316,1.316,0,0,0,1.225,1.982c.667.03,1.338.034,2,0,.466-.025.634.111.615.6C1490.419,828.228,1490.446,829.148,1490.446,830.067Zm-42.841-7.362h4.769c1.944,0,1.906,0,1.945-1.945.014-.687-.247-.748-.816-.744-3.542.023-7.084.011-10.626.011-2,0-1.977,0-1.98,1.987,0,.529.118.714.683.7C1443.588,822.683,1445.6,822.705,1447.6,822.705Zm-.034,5.354h4.853c1.889,0,1.861,0,1.892-1.91.01-.622-.145-.789-.777-.783-3.541.034-7.083.016-10.625.016-2.045,0-2.026,0-2.015,2.036,0,.51.126.662.649.654C1443.554,828.041,1445.562,828.06,1447.57,828.06Zm-3.982,4.065c0-1.388,0-1.388-1.311-1.388-1.367,0-1.367,0-1.367,1.332s0,1.346,1.353,1.346C1443.588,833.414,1443.588,833.414,1443.588,832.124Zm2.678-.084c0,1.373,0,1.373,1.325,1.373,1.353,0,1.353,0,1.353-1.346s0-1.331-1.367-1.331C1446.266,830.737,1446.266,830.737,1446.266,832.041Zm8.032.085c0-1.389,0-1.389-1.309-1.389-1.368,0-1.368,0-1.368,1.33,0,1.347,0,1.347,1.352,1.347C1454.3,833.414,1454.3,833.414,1454.3,832.125Z" transform="translate(-21.358 -98.441)" fill="#caa072"/>
      <path id="Trazado_629119" data-name="Trazado 629119" d="M1482.294,693.732a17.346,17.346,0,1,1,26.594.072,10.323,10.323,0,0,0-1.622-3.975,9.444,9.444,0,0,0-6.153-3.967,2.9,2.9,0,0,1-.72-.188c-.434-.21-.676-.431-.171-.9a6.092,6.092,0,0,0,1.929-3.7,1.44,1.44,0,0,1,.537-.906,6.174,6.174,0,0,0,1.729-7.5,7.14,7.14,0,0,0-6.709-4.691,24.758,24.758,0,0,0-5.422.128,7.431,7.431,0,0,0-5.886,8.706,5.958,5.958,0,0,0,1.872,3.095,2.589,2.589,0,0,1,.859,1.55,5.767,5.767,0,0,0,1.84,3.3c.549.5.3.746-.186.948a6.885,6.885,0,0,1-.97.222,9.477,9.477,0,0,0-7.3,7.131c-.058.214-.106.431-.162.646C1482.346,693.713,1482.313,693.721,1482.294,693.732Z" transform="translate(-47.939 -5.256)" fill="#e4e6e9"/>
      <path id="Trazado_629120" data-name="Trazado 629120" d="M1508.953,746.328a17.731,17.731,0,0,1-10.034-3.129,1.611,1.611,0,0,1-.8-1.563,7,7,0,0,1,5.217-6.755.771.771,0,0,1,1.012.4c1.293,1.98,2.618,3.94,3.931,5.907.567.849.568.85,1.113.035,1.3-1.944,2.618-3.874,3.879-5.841a.952.952,0,0,1,1.29-.456,7.058,7.058,0,0,1,5.009,7.332c-.033.42-.293.565-.556.754A17.292,17.292,0,0,1,1508.953,746.328Z" transform="translate(-61.183 -51.505)" fill="#6dbde2"/>
      <path id="Trazado_629121" data-name="Trazado 629121" d="M1416.791,766.5l3.6-7.2q1.4-2.8,2.8-5.6c.143-.285.227-.6.689-.6,3.4.019,6.794.01,10.291.01-.354,1.085-.682,2.106-1.021,3.124-1.044,3.138-2.118,6.266-3.119,9.418a1.049,1.049,0,0,1-1.228.858C1424.843,766.489,1420.888,766.5,1416.791,766.5Z" transform="translate(-7.117 -63.659)" fill="#ed8773"/>
      <path id="Trazado_629122" data-name="Trazado 629122" d="M1609.028,766.508c-4.118,0-8.213,0-12.307.007a.575.575,0,0,1-.646-.478q-2.053-6.215-4.146-12.417c-.144-.429-.023-.507.394-.5q4.848.022,9.7,0a.619.619,0,0,1,.65.384q3.188,6.427,6.4,12.842C1609.076,766.364,1609.055,766.4,1609.028,766.508Z" transform="translate(-123.504 -63.663)" fill="#ed8773"/>
      <path id="Trazado_629123" data-name="Trazado 629123" d="M1463.788,766.451l3.738-11.229a5.241,5.241,0,0,0,.333-1.027c.116-1.067.769-1.237,1.676-1.143a.977.977,0,0,1,.766.38,19.492,19.492,0,0,0,6.588,5.413.68.68,0,0,1,.445.771c-.189,2.134-.368,4.27-.519,6.408-.039.556-.4.422-.709.423q-3.425.009-6.851,0Z" transform="translate(-38.359 -63.605)" fill="#fae8ae"/>
      <path id="Trazado_629124" data-name="Trazado 629124" d="M1569.582,766.477c-4.234,0-8.354,0-12.473.008-.4,0-.517-.129-.545-.518q-.225-3.08-.506-6.156a.842.842,0,0,1,.514-.979,18.957,18.957,0,0,0,6.455-5.312c.544-.7,1.213-.361,1.83-.409.521-.041.444.5.544.8,1.334,3.944,2.643,7.9,3.958,11.848C1569.428,765.967,1569.49,766.178,1569.582,766.477Z" transform="translate(-99.69 -63.631)" fill="#fae8ae"/>
      <path id="Trazado_629125" data-name="Trazado 629125" d="M1520.912,810.545c0,1.171-.032,2.343.011,3.513.027.735-.506.634-.828.523-.612-.212-1.565.656-1.838-.506a6.408,6.408,0,0,1-.017-1.668c.014-.364-.123-.519-.483-.477a.533.533,0,0,1-.084,0c-2.066-.1-2.082-.1-2.1,2.018-.005.49-.106.668-.642.674-2.025.022-2.043.044-2.033-1.936,0-.547-.09-.776-.714-.772-1.959.012-1.987-.016-1.961,1.923.008.627-.159.8-.787.787-1.89-.028-1.916,0-1.891-1.91.008-.605-.124-.811-.773-.8-1.908.029-1.943,0-1.9,1.9.014.687-.212.824-.845.813-1.849-.031-1.85,0-1.85-1.88q0-2.76,0-5.521a4.119,4.119,0,0,1,1.24-1.865c.347-.112.394.245.539.406a9.808,9.808,0,0,0,8,3.476,9.6,9.6,0,0,0,7.206-3.541c.361-.426.472-.345.853,0a2.656,2.656,0,0,1,.921,2.43C1520.852,808.922,1520.913,809.737,1520.912,810.545Z" transform="translate(-63.874 -98.375)" fill="#a97a4d"/>
      <path id="Trazado_629126" data-name="Trazado 629126" d="M1517.1,780.819c-1.952,0-3.9-.016-5.856.011-.5.007-.687-.1-.632-.642.17-1.663.3-3.33.423-5,.038-.526.187-.627.716-.478a19.612,19.612,0,0,0,10.805,0c.438-.123.655-.134.694.408q.185,2.585.435,5.164c.047.481-.157.545-.562.542C1521.113,780.811,1519.1,780.819,1517.1,780.819Z" transform="translate(-69.478 -77.972)" fill="#ed8773"/>
      <path id="Trazado_629127" data-name="Trazado 629127" d="M1518.153,700.584c-.008-1.916,1.294-3.141,3.539-3.34a5.179,5.179,0,0,1,1.982.21c2.164.661,2.9,2.007,2.455,4.444a4.018,4.018,0,0,1-7.974-.4C1518.137,701.2,1518.153,700.891,1518.153,700.584Z" transform="translate(-74.495 -26.508)" fill="#e8cfb5"/>
      <path id="Trazado_629128" data-name="Trazado 629128" d="M1510.564,687.2a4.453,4.453,0,0,1,2.152-5.417c1.537-.852,6.785-.884,8.319-.052a4.519,4.519,0,0,1,2.268,5.476,7.748,7.748,0,0,0-12.74-.007Z" transform="translate(-69.257 -15.802)" fill="#646b75"/>
      <path id="Trazado_629129" data-name="Trazado 629129" d="M1465.577,801.144H1476.6C1474.747,804.034,1469,805.2,1465.577,801.144Z" transform="translate(-39.548 -95.59)" fill="#f3d47d"/>
      <path id="Trazado_629130" data-name="Trazado 629130" d="M1572.612,801.053c-2.5,3.5-8.55,3.5-11.056,0h11.056Z" transform="translate(-103.352 -95.529)" fill="#f3d47d"/>
      <path id="Trazado_629131" data-name="Trazado 629131" d="M1417.742,801.124h10.964C1426.992,804.012,1421.039,805.192,1417.742,801.124Z" transform="translate(-7.749 -95.577)" fill="#e87459"/>
      <path id="Trazado_629132" data-name="Trazado 629132" d="M1524.626,801.054c-2.539,3.5-8.339,3.516-11.089,0h11.089Z" transform="translate(-71.431 -95.53)" fill="#e87459"/>
      <path id="Trazado_629133" data-name="Trazado 629133" d="M1609.388,801.145h10.96C1618.893,803.807,1612.95,805.386,1609.388,801.145Z" transform="translate(-135.149 -95.591)" fill="#e87459"/>
      <path id="Trazado_629134" data-name="Trazado 629134" d="M1523.9,728.509a5.763,5.763,0,0,0,3.054,0c.44-.111.474.289.68.476.229.208.194.4.025.647q-1.012,1.479-1.986,2.985c-.207.319-.334.277-.521-.011-.653-1-1.311-2-1.987-2.985a.435.435,0,0,1,.051-.65C1523.419,728.777,1523.47,728.363,1523.9,728.509Z" transform="translate(-77.752 -47.284)" fill="#e6ccb3"/>
      <path id="Trazado_629135" data-name="Trazado 629135" d="M1586.073,851.125c0-.919-.027-1.839.011-2.757.02-.487-.148-.623-.615-.6-.667.036-1.338.031-2,0a1.317,1.317,0,0,1-1.225-1.982q1.937-3.974,3.956-7.906a1.343,1.343,0,0,1,2.42-.025q2.044,3.967,3.989,7.985a1.3,1.3,0,0,1-1.214,1.927c-.695.035-1.394.035-2.089,0-.45-.023-.562.139-.557.569.021,1.838,0,3.676.017,5.514,0,.442-.079.622-.582.633-2.107.046-2.106.065-2.106-2.024Zm1.34-9.719-1.816,3.638h3.635Z" transform="translate(-116.985 -119.499)" fill="#020201"/>
      <path id="Trazado_629136" data-name="Trazado 629136" d="M1452.927,851.623c-2.008,0-4.016-.022-6.023.014-.566.01-.684-.175-.683-.7,0-1.987-.016-1.987,1.979-1.987,3.542,0,7.084.011,10.626-.011.569,0,.829.057.816.744-.039,1.944,0,1.945-1.945,1.945Z" transform="translate(-26.68 -127.359)"/>
      <path id="Trazado_629137" data-name="Trazado 629137" d="M1452.887,867.586c-2.008,0-4.016-.019-6.024.013-.523.008-.646-.144-.649-.654-.011-2.036-.03-2.036,2.015-2.036,3.542,0,7.084.017,10.625-.016.632-.006.787.161.777.783-.031,1.909,0,1.91-1.892,1.91Z" transform="translate(-26.676 -137.968)"/>
      <path id="Trazado_629138" data-name="Trazado 629138" d="M1448.936,882.3c0,1.29,0,1.29-1.325,1.29-1.353,0-1.353,0-1.353-1.346s0-1.332,1.367-1.332C1448.936,880.913,1448.936,880.913,1448.936,882.3Z" transform="translate(-26.706 -148.618)"/>
      <path id="Trazado_629139" data-name="Trazado 629139" d="M1462.233,882.217c0-1.3,0-1.3,1.31-1.3,1.367,0,1.367,0,1.367,1.331s0,1.346-1.353,1.346C1462.233,883.59,1462.233,883.59,1462.233,882.217Z" transform="translate(-37.325 -148.618)"/>
      <path id="Trazado_629140" data-name="Trazado 629140" d="M1480.885,882.3c0,1.289,0,1.289-1.326,1.289-1.352,0-1.352,0-1.352-1.347,0-1.33,0-1.33,1.368-1.33C1480.885,880.913,1480.885,880.913,1480.885,882.3Z" transform="translate(-47.944 -148.618)"/>
      <path id="Trazado_629141" data-name="Trazado 629141" d="M1594.417,849.924l1.82,3.638H1592.6Z" transform="translate(-123.989 -128.017)" fill="#e4e6e9"/>
    </g>
  </g>
</svg>
