<svg xmlns="http://www.w3.org/2000/svg" width="125" height="125" viewBox="0 0 125 125">
  <g id="Grupo_969982" data-name="Grupo 969982" transform="translate(-746 -6949)">
    <path id="Trazado_628271" data-name="Trazado 628271" d="M62.5,0A62.5,62.5,0,1,1,0,62.5,62.5,62.5,0,0,1,62.5,0Z" transform="translate(746 6949)" fill="#ef8b53"/>
    <g id="Grupo_952162" data-name="Grupo 952162" transform="translate(-1011.263 6289.605)">
      <path id="Trazado_629061" data-name="Trazado 629061" d="M1847.059,700.995a.81.81,0,0,1,.162.024c-.123,1.037-.326,2.072-.355,3.112a18.583,18.583,0,0,0,2.165,9.428c.316.592.891,1.084.854,1.845-1.356-1.126-1.893-1.131-3.321-.03l-1.619,1.252c-.08-.543-.143-.949-.2-1.356-.061-.447-.086-.9-.177-1.342a1.787,1.787,0,0,0-1.867-1.619q-2.168-.059-4.339,0a1.8,1.8,0,0,0-1.87,1.714c-.138.821-.234,1.649-.365,2.592-.688-.531-1.293-1.011-1.912-1.474a1.9,1.9,0,0,0-2.882.177q-1.387,1.362-2.749,2.75a1.871,1.871,0,0,0-.183,2.809c.477.64.967,1.269,1.509,1.978-.853.1-1.568.177-2.278.284-1.529.229-2.034.806-2.046,2.333-.01,1.205-.013,2.412,0,3.617a1.977,1.977,0,0,0,2.02,2.271c.728.1,1.458.181,2.309.285-.518.678-.953,1.246-1.386,1.816-.964,1.267-.911,2,.229,3.143q1.244,1.25,2.494,2.494a1.949,1.949,0,0,0,3.02.219,11.52,11.52,0,0,1,1.873-1.353c.114.843.2,1.622.326,2.394a1.905,1.905,0,0,0,2.133,1.852c1.236.019,2.471.011,3.707,0,1.525-.01,2.167-.606,2.348-2.147.082-.7.174-1.393.276-2.2.727.558,1.34,1.039,1.963,1.505a1.871,1.871,0,0,0,2.812-.164c.908-.882,1.8-1.782,2.687-2.685a1.954,1.954,0,0,0,.191-3.024,12.366,12.366,0,0,1-1.358-1.868c.915-.117,1.726-.192,2.526-.332a1.849,1.849,0,0,0,1.733-1.966q.049-2.079,0-4.16a1.841,1.841,0,0,0-1.72-1.969c-.834-.145-1.676-.241-2.614-.373.512-.658.917-1.22,1.366-1.744a2.4,2.4,0,0,0,.619-2.167,2.541,2.541,0,0,1,.773.445,17.886,17.886,0,0,0,3.654,2.259,18.672,18.672,0,0,0,7.651,1.672,1.834,1.834,0,0,0-.818,1.777,20.676,20.676,0,0,1-.474,5.115,23.726,23.726,0,0,1-10.56,15.345,10.384,10.384,0,0,0-4.961,9.277c.011,1.085-.011,2.17.008,3.255.007.423-.05.657-.576.653-4.429-.031-8.858-.033-13.287-.044q0-2.034-.005-4.069a8.9,8.9,0,0,0-4.254-7.873,25.8,25.8,0,0,1-9.281-10.452,25.3,25.3,0,0,1,8.371-31.614c.307-.218.729-.319.827-.766l.033-.046.056,0,.271-.13c.267-.133.528-.28.8-.4a23.4,23.4,0,0,1,13.429-1.459C1846.172,702.119,1846.458,702.005,1847.059,700.995Z" transform="translate(-23.123 -19.717)" fill="#c6dbfa"/>
      <path id="Trazado_629062" data-name="Trazado 629062" d="M1838.927,697.109c-.6,1.01-.887,1.124-2.258.882a23.4,23.4,0,0,0-13.429,1.459c-.274.116-.535.263-.8.4l-.271.13-.056,0-.033.046a1.273,1.273,0,0,0-.257.064,23.985,23.985,0,0,0-10.907,31.883,24.74,24.74,0,0,0,8.91,9.863,10.219,10.219,0,0,1,4.381,6.092,19.355,19.355,0,0,1,.349,5.125c0,1.858,0,1.858,1.867,1.745,4.429.011,8.858.013,13.287.044.526,0,.583-.23.576-.653-.019-1.085,0-2.17-.008-3.255a10.383,10.383,0,0,1,4.961-9.277A23.726,23.726,0,0,0,1855.8,726.3a20.688,20.688,0,0,0,.474-5.115,1.834,1.834,0,0,1,.818-1.777l.458-.082c1.111.2,1.448.568,1.445,1.684-.028,9.587-3.958,17.171-11.854,22.591-2.842,1.951-4.333,4.412-4.15,7.87.048.9.022,1.809,0,2.713-.01.423.053.623.57.655a3.049,3.049,0,0,1,3.115,3.345c-.035,1.483.356,3.025-.467,4.431a.3.3,0,0,0,.015.247c.837,1.5.414,3.133.442,4.7a3.023,3.023,0,0,1-2.971,3.029c-.782.035-1.568.045-2.35,0-.529-.028-.671.162-.645.665.038.752.02,1.507.008,2.26a4.971,4.971,0,0,1-4.983,5.009q-3.3.039-6.6,0a4.987,4.987,0,0,1-5.026-4.975c-.023-.813-.02-1.628,0-2.441.01-.393-.13-.526-.522-.515-.783.023-1.568.024-2.35,0a3.056,3.056,0,0,1-3.09-3.02c0-1.571-.386-3.2.445-4.7a.408.408,0,0,0-.007-.333c-.827-1.536-.446-3.2-.431-4.8a3.008,3.008,0,0,1,3-2.908c.538-.023.731-.139.708-.708-.046-1.143,0-2.291-.017-3.436a7.88,7.88,0,0,0-3.844-6.852,26.721,26.721,0,0,1-9.533-10.741c-7.745-15.595,2.118-34.948,19.275-37.815a28.267,28.267,0,0,1,9.617.038C1838.573,695.544,1838.878,695.893,1838.927,697.109ZM1828.78,770.65c-.39-.015-.783,0-1.17-.05-.616-.072-.873.136-.823.791.055.719-.018,1.447.024,2.167a2.244,2.244,0,0,0,2.506,2.234c2.131.01,4.263.047,6.394.021a2.215,2.215,0,0,0,2.267-2.21c.041-.809-.008-1.622.02-2.432.015-.435-.147-.567-.572-.564C1834.544,770.632,1831.662,770.638,1828.78,770.65Zm15.16-10.206c.011-.692-.005-1.387.04-2.077.042-.635-.21-.85-.838-.837-1.6.031-3.195.007-4.792.01q-7.775.015-15.551.033c-.33-.011-.663,0-.99-.038-.726-.08-1.071.173-1,.956a9.841,9.841,0,0,1,0,1.805c-.08.839.239,1.087,1.076,1.079,4.125-.038,8.25,0,12.375-.03a1.648,1.648,0,0,1,1.879,1.289c-.314,1.21-.609,1.436-1.889,1.44l-11.447.032c-.33-.011-.662,0-.989-.036-.731-.079-1.061.194-1,.964a14.86,14.86,0,0,1,0,1.984c-.04.667.22.893.887.891q10.69-.025,21.381,0c.713,0,1.024-.223.863-.949.01-.719,0-1.439.035-2.157.024-.554-.231-.75-.757-.732-.629.021-1.26.007-1.89,0-1.265-.005-1.549-.228-1.873-1.457a1.616,1.616,0,0,1,1.889-1.267c.6.043,1.2-.02,1.8.015C1843.844,761.4,1844.079,761.1,1843.94,760.443Z" transform="translate(-14.991 -15.831)" fill="#030303"/>
      <path id="Trazado_629063" data-name="Trazado 629063" d="M1937.323,678.783a15.807,15.807,0,0,1,2.942,3.076,1.657,1.657,0,0,0-.208,2.2,12.123,12.123,0,0,1,.367,11.108c-2.7,5.989-10.051,8.954-15.728,6.395a.671.671,0,0,0-.324-.506,13.721,13.721,0,0,1-5.484-12.54,13.288,13.288,0,0,1,4.982-9.214c.3-.247.756-.412.816-.9a11.828,11.828,0,0,1,10.394.656A1.611,1.611,0,0,0,1937.323,678.783Zm-6.842,8.036c1.1.973,2.053,1.834,3.028,2.667a1.351,1.351,0,0,0,2.009-.045,1.29,1.29,0,0,0-.171-1.927c-1.582-1.441-3.18-2.865-4.806-4.255a2,2,0,0,0-2.594-.162c-1.783,1.482-3.514,3.03-5.219,4.6a1.163,1.163,0,0,0-.016,1.715,1.264,1.264,0,0,0,1.78.251,6.157,6.157,0,0,0,.761-.636c.8-.7,1.6-1.4,2.511-2.2v.646c0,2.744-.008,5.487.006,8.231a1.375,1.375,0,0,0,1.336,1.51,1.39,1.39,0,0,0,1.369-1.486c.02-.572,0-1.145,0-1.718Z" transform="translate(-87.037 -4.735)" fill="#ed8688"/>
      <path id="Trazado_629064" data-name="Trazado 629064" d="M1916.167,696.824c5.677,2.559,13.029-.406,15.728-6.395a12.123,12.123,0,0,0-.367-11.108,1.657,1.657,0,0,1,.208-2.2c1.179-.372,1.588-.206,2.187.891a15.174,15.174,0,0,1-11.8,22.3c-.478.047-.956.1-1.434.149l-.628-.05c-6.483-.5-11.053-3.71-13.6-9.693a15.439,15.439,0,0,1-.781-8.517,16.447,16.447,0,0,1,3.539-7.005,15.2,15.2,0,0,1,18.664-3.274c1.051.59,1.221.984.918,2.119a1.611,1.611,0,0,1-2.242.272,11.828,11.828,0,0,0-10.394-.656,4.656,4.656,0,0,0-.512.152,12.37,12.37,0,0,0-7.291,13.626A11.958,11.958,0,0,0,1916.167,696.824Z" transform="translate(-78.508)" fill="#040303"/>
      <path id="Trazado_629065" data-name="Trazado 629065" d="M1900.084,701.967a15.439,15.439,0,0,0,.781,8.517c2.552,5.983,7.122,9.2,13.6,9.693l.628.05a23.447,23.447,0,0,1,.375,3.03l-.458.082a18.671,18.671,0,0,1-7.651-1.672,17.883,17.883,0,0,1-3.654-2.259,2.542,2.542,0,0,0-.773-.445c-.275-.345-.528-.711-.83-1.03-.8-.84-1.616-1.66-2.426-2.488.037-.761-.538-1.253-.854-1.845a18.583,18.583,0,0,1-2.165-9.428c.029-1.04.232-2.075.355-3.112Z" transform="translate(-72.919 -19.759)" fill="#a9c9f7"/>
      <path id="Trazado_629066" data-name="Trazado 629066" d="M1878.219,672.526a9.947,9.947,0,0,1-.069,1.254,1.257,1.257,0,0,1-1.385,1.139,1.241,1.241,0,0,1-1.265-1.268c-.036-.748-.04-1.5,0-2.248a1.3,1.3,0,0,1,1.311-1.317,1.276,1.276,0,0,1,1.35,1.183,8.575,8.575,0,0,1,.011,1.255Z" transform="translate(-59.416 -0.013)" fill="#060606"/>
      <path id="Trazado_629067" data-name="Trazado 629067" d="M1812.275,825.216a1.305,1.305,0,0,1,1.256.71,1.141,1.141,0,0,1-.077,1.355,18,18,0,0,1-1.9,1.9,1.183,1.183,0,0,1-1.576-.075,1.169,1.169,0,0,1-.383-1.53,7.3,7.3,0,0,1,2.25-2.279A.975.975,0,0,1,1812.275,825.216Z" transform="translate(-17.325 -98.902)" fill="#060606"/>
      <path id="Trazado_629068" data-name="Trazado 629068" d="M1812.278,701.611a1.25,1.25,0,0,1-.873-.412c-.5-.48-.995-.958-1.46-1.467a1.346,1.346,0,0,1,1.843-1.963,20.406,20.406,0,0,1,1.643,1.662,1.217,1.217,0,0,1,.124,1.507A1.29,1.29,0,0,1,1812.278,701.611Z" transform="translate(-17.374 -17.427)" fill="#060606"/>
      <path id="Trazado_629069" data-name="Trazado 629069" d="M1937.255,826.548a1.366,1.366,0,0,1,.729-1.223,1.228,1.228,0,0,1,1.433.116,18.833,18.833,0,0,1,1.775,1.781,1.209,1.209,0,0,1-.023,1.65,1.158,1.158,0,0,1-1.525.392,7.34,7.34,0,0,1-2.275-2.253A1.277,1.277,0,0,1,1937.255,826.548Z" transform="translate(-98.801 -98.86)" fill="#060606"/>
      <path id="Trazado_629070" data-name="Trazado 629070" d="M1784.644,766.052a10.442,10.442,0,0,1-1.167-.008,1.305,1.305,0,0,1-1.211-1.41,1.236,1.236,0,0,1,1.249-1.27,20.176,20.176,0,0,1,2.246-.006,1.3,1.3,0,0,1,1.314,1.314,1.345,1.345,0,0,1-1.263,1.376c-.386.038-.778.007-1.167.007Z" transform="translate(0 -59.452)" fill="#040303"/>
      <path id="Trazado_629071" data-name="Trazado 629071" d="M1965.267,766.062c-.359,0-.722.028-1.078-.006a1.327,1.327,0,0,1-1.274-1.36,1.3,1.3,0,0,1,1.29-1.332c.717-.036,1.439-.031,2.156,0a1.335,1.335,0,0,1,1.378,1.352,1.371,1.371,0,0,1-1.395,1.351c-.358.022-.719,0-1.078,0Z" transform="translate(-115.158 -59.458)" fill="#030304"/>
      <path id="Trazado_629072" data-name="Trazado 629072" d="M1862.267,735.244c.81.828,1.629,1.648,2.426,2.488.3.319.555.685.83,1.03a2.4,2.4,0,0,1-.619,2.167c-.448.524-.853,1.086-1.366,1.744.938.132,1.781.227,2.614.373a1.841,1.841,0,0,1,1.72,1.969q.046,2.079,0,4.16a1.849,1.849,0,0,1-1.733,1.966c-.8.14-1.611.215-2.526.332a12.365,12.365,0,0,0,1.358,1.868,1.953,1.953,0,0,1-.191,3.024c-.888.9-1.778,1.8-2.687,2.685a1.871,1.871,0,0,1-2.812.164c-.623-.467-1.236-.947-1.963-1.505-.1.8-.194,1.5-.276,2.2-.181,1.541-.824,2.137-2.348,2.147-1.236.008-2.471.017-3.707,0a1.905,1.905,0,0,1-2.133-1.852c-.127-.772-.212-1.551-.326-2.394a11.527,11.527,0,0,0-1.873,1.353,1.949,1.949,0,0,1-3.02-.219q-1.253-1.241-2.494-2.494c-1.14-1.145-1.192-1.875-.229-3.143.433-.57.868-1.137,1.386-1.816-.851-.1-1.582-.185-2.309-.285a1.977,1.977,0,0,1-2.02-2.271c-.013-1.206-.011-2.412,0-3.617.012-1.527.517-2.1,2.046-2.333.71-.106,1.425-.179,2.278-.284-.542-.709-1.032-1.338-1.509-1.978a1.871,1.871,0,0,1,.183-2.809q1.36-1.389,2.749-2.75a1.9,1.9,0,0,1,2.882-.177c.619.463,1.224.943,1.912,1.474.131-.943.227-1.771.365-2.592a1.8,1.8,0,0,1,1.87-1.714q2.168-.06,4.339,0a1.787,1.787,0,0,1,1.867,1.619c.091.441.116.9.177,1.343.055.407.119.813.2,1.356l1.619-1.251C1860.374,734.113,1860.911,734.118,1862.267,735.244Zm-16.833,8.735a2.21,2.21,0,0,1-1.7,1.284c-.443.049-.883.133-1.324.2-1.729.066-1.729.066-1.729,1.574,0,1.641,0,1.641,1.728,1.66a6.611,6.611,0,0,0,.961.173,2.245,2.245,0,0,1,2.055,1.311c.471,1.216-.231,2.051-.916,2.914-1.279,1.61-1.24,1.594.134,3.039.539.566.932.659,1.4,0,.6-.45,1.187-.923,1.808-1.344a2.106,2.106,0,0,1,3.223,1.379c.063.356.1.717.147,1.074.319,2.22.319,2.206,2.581,2.106.416-.018.592-.137.633-.547.084-.839.178-1.678.307-2.511a2.1,2.1,0,0,1,3.363-1.413c.245.174.479.366.716.551,1.758,1.369,1.739,1.35,3.323-.246.408-.411.351-.651.022-1.034-.49-.571-.938-1.179-1.387-1.783a2.1,2.1,0,0,1,1.495-3.472c.807-.1,1.613-.205,2.419-.31.242-.031.485-.05.475-.4a6.622,6.622,0,0,0-.122-2.4c-.226-.491-1.2-.29-1.846-.382-.357-.051-.716-.093-1.074-.141a1.989,1.989,0,0,1-1.648-1.233c-.523-1.138.054-1.942.716-2.774,1.472-1.847,1.443-1.842-.244-3.459-.363-.348-.565-.281-.889-.013-.6.5-1.226.976-1.856,1.442a2.1,2.1,0,0,1-3.481-1.487c-.1-.777-.185-1.556-.29-2.332-.035-.257-.023-.566-.432-.553a6.5,6.5,0,0,0-2.4.132c-.463.217-.282,1.205-.369,1.852-.044.328-.1.656-.14.984a2.088,2.088,0,0,1-3.386,1.459c-.683-.493-1.352-1.005-2.027-1.509-.215-.334-.405-.311-.71-.051-1.859,1.584-1.885,1.59-.358,3.491C1845.279,742.039,1845.84,742.853,1845.434,743.979Z" transform="translate(-35.505 -39.557)" fill="#030304"/>
      <path id="Trazado_629073" data-name="Trazado 629073" d="M1831.219,763.788c-1.866.113-1.864.113-1.867-1.745a19.355,19.355,0,0,0-.348-5.125,10.219,10.219,0,0,0-4.381-6.092,24.741,24.741,0,0,1-8.91-9.863,23.985,23.985,0,0,1,10.907-31.883,1.271,1.271,0,0,1,.258-.064c-.1.447-.52.548-.827.766a25.3,25.3,0,0,0-8.371,31.614,25.8,25.8,0,0,0,9.281,10.452,8.9,8.9,0,0,1,4.254,7.873Q1831.214,761.753,1831.219,763.788Z" transform="translate(-19.791 -24.829)" fill="#a7c7f3"/>
      <path id="Trazado_629074" data-name="Trazado 629074" d="M1850.98,708.673l.271-.13Z" transform="translate(-43.804 -24.528)" fill="#a7c7f3"/>
      <path id="Trazado_629075" data-name="Trazado 629075" d="M1869.354,881.682c.324,1.229.608,1.452,1.873,1.457.63,0,1.26.017,1.89,0,.526-.018.781.178.757.732-.031.718-.025,1.438-.035,2.157l-9.124.005c-3.614,0-7.227-.015-10.84.01-.838.006-1.245-.279-1.188-1.154.037-.57.01-1.144.012-1.716l11.447-.032c1.28,0,1.575-.23,1.889-1.44Z" transform="translate(-44.889 -134.897)" fill="#cfe3e6"/>
      <path id="Trazado_629076" data-name="Trazado 629076" d="M1852.7,867.693q7.775-.017,15.551-.033c1.6,0,3.2.02,4.792-.01.628-.012.88.2.838.838-.045.69-.029,1.385-.04,2.077l-11.118,0c-2.983,0-5.966-.011-8.949.008-.766,0-1.116-.3-1.082-1.074C1852.723,868.9,1852.7,868.3,1852.7,867.693Z" transform="translate(-44.897 -125.951)" fill="#cfe3e6"/>
      <path id="Trazado_629077" data-name="Trazado 629077" d="M1869.151,903.767c2.882-.012,5.764-.017,8.646-.042.425,0,.587.128.572.564-.028.81.021,1.623-.02,2.432a2.215,2.215,0,0,1-2.267,2.21c-2.131.026-4.263-.01-6.394-.021C1868.821,907.268,1869.2,905.495,1869.151,903.767Z" transform="translate(-55.362 -148.948)" fill="#7da2b4"/>
      <path id="Trazado_629078" data-name="Trazado 629078" d="M1849.2,867.679c0,.6.018,1.206-.009,1.808-.034.774.317,1.079,1.082,1.074,2.983-.018,5.966-.007,8.949-.008l11.118,0c.139.656-.1.961-.795.921-.6-.035-1.2.028-1.8-.015a1.616,1.616,0,0,0-1.889,1.267l-3.319.017a1.648,1.648,0,0,0-1.879-1.289c-4.125.03-8.251-.008-12.375.03-.837.008-1.156-.24-1.076-1.079a9.841,9.841,0,0,0,0-1.805c-.071-.783.274-1.036,1-.956C1848.539,867.676,1848.872,867.667,1849.2,867.679Z" transform="translate(-41.394 -125.937)" fill="#aed0d5"/>
      <path id="Trazado_629079" data-name="Trazado 629079" d="M1849.215,885.7c0,.573.025,1.146-.012,1.716-.057.875.35,1.159,1.188,1.154,3.613-.025,7.227-.01,10.84-.01l9.124-.005c.161.726-.15.951-.863.949q-10.69-.025-21.381,0c-.667,0-.927-.224-.887-.891a14.861,14.861,0,0,0,0-1.984c-.058-.77.272-1.043,1-.964C1848.553,885.7,1848.885,885.691,1849.215,885.7Z" transform="translate(-41.405 -137.428)" fill="#aed0d5"/>
      <path id="Trazado_629080" data-name="Trazado 629080" d="M1865.7,903.73c.054,1.727-.33,3.5.537,5.142a2.244,2.244,0,0,1-2.506-2.234c-.042-.72.03-1.448-.024-2.167-.05-.655.207-.863.823-.791C1864.921,903.726,1865.315,903.715,1865.7,903.73Z" transform="translate(-51.916 -148.911)" fill="#628a99"/>
      <path id="Trazado_629081" data-name="Trazado 629081" d="M1936.709,695.961v7.2c0,.573.016,1.146,0,1.718a1.39,1.39,0,0,1-1.369,1.486,1.375,1.375,0,0,1-1.336-1.51c-.014-2.744-.006-5.487-.006-8.231v-.646c-.916.8-1.713,1.5-2.511,2.2a6.157,6.157,0,0,1-.761.636,1.264,1.264,0,0,1-1.78-.251,1.163,1.163,0,0,1,.016-1.715c1.705-1.572,3.436-3.12,5.219-4.6a2,2,0,0,1,2.594.162c1.626,1.39,3.224,2.815,4.806,4.255a1.29,1.29,0,0,1,.171,1.927,1.351,1.351,0,0,1-2.009.045C1938.762,697.795,1937.811,696.934,1936.709,695.961Z" transform="translate(-93.265 -13.876)" fill="#040303"/>
      <path id="Trazado_629082" data-name="Trazado 629082" d="M1920.938,703.153a11.958,11.958,0,0,1-7.813-9.383,12.37,12.37,0,0,1,7.291-13.626,4.669,4.669,0,0,1,.512-.152c-.06.488-.515.653-.816.9a13.288,13.288,0,0,0-4.982,9.214,13.721,13.721,0,0,0,5.484,12.54A.671.671,0,0,1,1920.938,703.153Z" transform="translate(-83.278 -6.329)" fill="#e0727b"/>
      <path id="Trazado_629083" data-name="Trazado 629083" d="M1850.225,750.192c.441-.068.881-.153,1.324-.2a2.211,2.211,0,0,0,1.7-1.284c.607.042,1.3.082,1.606-.507s-.259-1.044-.595-1.489c-.487-.644-.975-1.288-1.488-1.911-.413-.5-.463-.921.1-1.363.295-.234.632-.485.627-.94.675.5,1.344,1.016,2.027,1.509a2.088,2.088,0,0,0,3.386-1.459c.044-.328.1-.656.14-.984.088-.647-.094-1.635.369-1.852a6.5,6.5,0,0,1,2.4-.132c.409-.013.4.3.432.553.105.776.192,1.554.29,2.331a2.1,2.1,0,0,0,3.481,1.487c.63-.465,1.253-.943,1.856-1.442.324-.268.526-.334.889.013,1.686,1.617,1.715,1.611.244,3.459-.663.832-1.24,1.636-.716,2.774a1.989,1.989,0,0,0,1.648,1.233c.358.047.717.09,1.074.141.644.092,1.621-.109,1.846.382a6.622,6.622,0,0,1,.122,2.4c.01.35-.232.369-.475.4-.806.1-1.612.215-2.419.31a2.1,2.1,0,0,0-1.495,3.472c.449.6.9,1.213,1.387,1.783.329.383.386.623-.022,1.034-1.584,1.6-1.565,1.614-3.323.246-.238-.185-.471-.377-.716-.551a2.1,2.1,0,0,0-3.363,1.413c-.129.833-.223,1.672-.307,2.511-.041.41-.218.529-.633.547-2.262.1-2.262.114-2.581-2.106-.052-.357-.084-.719-.147-1.074a2.106,2.106,0,0,0-3.223-1.379c-.622.42-1.207.894-1.808,1.344-.378-.005-.545-.333-.81-.516-.808-.557-.664-1.126-.1-1.769.49-.562.911-1.184,1.4-1.747.368-.423.758-.863.516-1.431-.216-.506-.824-.371-1.264-.5a1.12,1.12,0,0,0-.357.012,2.245,2.245,0,0,0-2.055-1.311,6.619,6.619,0,0,1-.961-.173Q1850.224,751.809,1850.225,750.192Zm15.953,1.677a5.449,5.449,0,1,0-5.5,5.392A5.416,5.416,0,0,0,1866.178,751.869Z" transform="translate(-43.322 -44.284)" fill="#a8c8f6"/>
      <path id="Trazado_629084" data-name="Trazado 629084" d="M1855.3,781.9a1.12,1.12,0,0,1,.357-.012c.44.132,1.048,0,1.264.5.242.568-.148,1.008-.516,1.431-.489.563-.91,1.185-1.4,1.747-.56.643-.7,1.212.1,1.769.264.182.432.51.81.516-.468.659-.862.567-1.4,0-1.374-1.445-1.413-1.429-.134-3.039C1855.07,783.948,1855.771,783.113,1855.3,781.9Z" transform="translate(-45.382 -71.272)" fill="#8eaedf"/>
      <path id="Trazado_629085" data-name="Trazado 629085" d="M1855.45,747.271c0,.454-.332.706-.627.94-.559.442-.508.861-.1,1.363.513.623,1,1.267,1.488,1.911.336.444.906.893.594,1.489s-1,.549-1.606.507c.405-1.126-.156-1.941-.822-2.769-1.527-1.9-1.5-1.907.358-3.491C1855.045,746.96,1855.235,746.937,1855.45,747.271Z" transform="translate(-45.274 -49.057)" fill="#8eaedf"/>
      <path id="Trazado_629086" data-name="Trazado 629086" d="M1847.186,768.931q0,1.617,0,3.234c-1.728-.019-1.728-.019-1.728-1.66C1845.457,769,1845.457,769,1847.186,768.931Z" transform="translate(-40.283 -63.023)" fill="#8eaedf"/>
      <path id="Trazado_629087" data-name="Trazado 629087" d="M1875.072,763.876a5.449,5.449,0,1,1-5.39-5.505A5.412,5.412,0,0,1,1875.072,763.876Zm-5.46-2.79a2.733,2.733,0,0,0-.013,5.466,2.733,2.733,0,1,0,.013-5.466Z" transform="translate(-52.215 -56.291)" fill="#030303"/>
      <path id="Trazado_629088" data-name="Trazado 629088" d="M1874.384,765.861a2.733,2.733,0,1,1-2.722,2.773A2.713,2.713,0,0,1,1874.384,765.861Z" transform="translate(-56.988 -61.066)" fill="#c6dbfa"/>
    </g>
  </g>
</svg>
