<svg xmlns="http://www.w3.org/2000/svg" width="295" height="112" viewBox="0 0 295 112">
  <g id="Grupo_980841" data-name="Grupo 980841" transform="translate(-180 -6953.795)">
    <rect id="Rect치ngulo_306473" data-name="Rect치ngulo 306473" width="295" height="112" transform="translate(180 6953.795)" fill="#f7e9e1" opacity="0.7"/>
    <g id="Grupo_951866" data-name="Grupo 951866" transform="translate(1 867.564)">
      <rect id="Rect치ngulo_34178" data-name="Rect치ngulo 34178" width="85" height="85" transform="translate(180 6099)" fill="none"/>
      <g id="Grupo_952140" data-name="Grupo 952140" transform="translate(633.403 5971.015)">
        <path id="Trazado_629018" data-name="Trazado 629018" d="M-384.154,166.629a1.307,1.307,0,0,1,1.113,1.489q-.019,19.383-.013,38.766a2.8,2.8,0,0,1-2.984,2.982q-12.843.009-25.687,0a2.842,2.842,0,0,1-3.038-3.023c-.008-2.743-.018-5.487.011-8.23.006-.574-.106-.771-.733-.762-2.665.04-5.332.018-8,.017-2.164,0-3.28-1.1-3.281-3.247,0-2.692-.022-5.385.016-8.076.009-.6-.173-.7-.723-.7-2.743.029-5.486.017-8.229.012a2.844,2.844,0,0,1-3.062-3.072q0-24.306,0-48.611a2.838,2.838,0,0,1,3.056-3.076q12.8-.006,25.61,0a2.822,2.822,0,0,1,3.043,3.078c.008,2.718.014,5.435-.008,8.153,0,.543.049.862.72.779a1.208,1.208,0,0,1,1.438,1.063c-.187.949-.5,1.264-1.425,1.216-.629-.032-.786.187-.734.766a10.991,10.991,0,0,1,0,1.606c-.024.417.084.583.541.573,1.4-.032,2.8-.019,4.207-.023a2.385,2.385,0,0,1,1.937,2.723q0,5.824,0,11.647a2.338,2.338,0,0,1-1.941,2.632q-2.072,0-4.144-.01c-.313,0-.611-.047-.6.444.027,1.049.018,2.1,0,3.147,0,.335.117.451.446.445,1.43-.027,2.86-.039,4.29-.056.3.024.6.037.9.073a1.043,1.043,0,0,1,1.011,1.042,1.047,1.047,0,0,1-.921,1.194c-.32.062-.651.071-.976.1-1.431-.017-2.861-.029-4.292-.053-.311-.006-.467.078-.461.429q.025,1.573,0,3.147c0,.334.117.45.446.444,1.43-.027,2.861-.039,4.291-.056.276.02.552.039.828.06a1.077,1.077,0,0,1,1.091,1.051,1.107,1.107,0,0,1-1,1.215c-.3.05-.6.055-.9.08-1.431-.014-2.861-.025-4.292-.048-.312,0-.464.077-.459.428.017,1.049.015,2.1,0,3.146,0,.332.113.45.445.444,1.431-.025,2.861-.032,4.292-.046.227.014.452.031.679.042.779.04,1.241.463,1.243,1.138a1.171,1.171,0,0,1-1.235,1.167c-.327.023-.656.027-.983.04-1.123-.012-2.248,0-3.37-.046-.787-.034-1.491-.027-1.956.782-.165.286-.544.452-.83.666q-1.62,1.211-3.245,2.417l-.105.125.131,0,7.979-.021c.813.017,1.627.038,2.44.049a1.1,1.1,0,0,1,1.087.7c.348.822-.238,1.591-1.241,1.606-1.578.025-3.157.021-4.735.029l-8.688-.024a.884.884,0,0,0-.577.153c-1.249.934-2.506,1.857-3.76,2.783l-2.887,2.014H-398.6c1.243,0,1.244,0,1.244-1.231q0-23.835,0-47.67c0-.128-.01-.257,0-.384.056-.62-.2-.9-.842-.872-.742.03-1.486.012-2.229.006-.937-.008-1.251-.283-1.432-1.234a1.262,1.262,0,0,1,1.438-1.078c.819.023,1.639-.005,2.459.007a2.8,2.8,0,0,1,2.908,2.9c.019,2.792.027,5.585-.011,8.376-.009.629.19.746.768.74,2.715-.029,5.43-.015,8.145-.012a2.834,2.834,0,0,1,3.1,3.092c.008,1.332-.013,2.664.007,4a1.217,1.217,0,0,1-1.1,1.4c-.925-.194-1.2-.515-1.209-1.461-.01-1.3-.013-2.608,0-3.912.006-.53-.166-.82-.745-.811-1.405.023-2.811.023-4.216.032-1.433-.009-2.866-.012-4.3-.033-.327,0-.448.1-.444.436q.024,1.958,0,3.917c0,.343.125.437.447.433,1.433-.021,2.865-.025,4.3-.035q1.408.214,1.372,1.231c-.024.656-.469,1.024-1.376,1.137-1.4-.01-2.808-.009-4.211-.036-.386-.008-.54.09-.532.508.025,1.276.017,2.554,0,3.831,0,.334.057.525.452.516,1.427-.031,2.855-.041,4.282-.058.642.078,1.216.267,1.36,1a1.116,1.116,0,0,1-.478,1.134c-.257.2-.586.158-.865.277-1.427-.016-2.855-.024-4.282-.055-.381-.008-.474.148-.469.5.016,1.276.022,2.553,0,3.829-.008.42.149.513.534.506,1.4-.027,2.806-.026,4.209-.036a1.377,1.377,0,0,1,1.193.558,1.2,1.2,0,0,1-1.189,1.81c-1.428-.01-2.856-.01-4.283-.037-.384-.007-.467.144-.462.493q.025,1.913,0,3.826c0,.35.08.5.464.494,1.427-.028,2.855-.029,4.282-.04.951.168,1.4.571,1.372,1.24-.024.653-.472,1.022-1.377,1.134-1-.011-1.994-.028-2.99-.031-1.789-.005-1.772,0-1.755,1.818,0,.47.128.615.6.6,1.38-.031,2.762-.011,4.143-.011a2.365,2.365,0,0,1,1.857,2.707q0,5.491,0,10.981c0,1.869-.83,2.688-2.723,2.7q-2.645.015-5.291.034c-2.894-.011-5.789.021-8.682-.058a3.054,3.054,0,0,0-2.5,1.025,28.782,28.782,0,0,0-2.667,1.871h23.633c1.326,0,1.327,0,1.327-1.3q0-18.954,0-37.909C-385.358,167.169-385.171,166.9-384.154,166.629Zm-8.617,35.7c.506.016,1.014.019,1.519.051.35.022.505-.082.491-.464-.033-.888-.03-1.777-.041-2.666.012-2.715.014-5.43.044-8.145,0-.427-.156-.507-.535-.5-1,.021-2,.038-3,0-.578-.025-.811.107-.779.745.057,1.124-.014,2.255.024,3.381a3.1,3.1,0,0,1-1.427,2.8c-1.961,1.395-3.9,2.817-5.848,4.231-.212.154-.41.329-.712.572Zm-43.662-20.77c-.007.2-.02.409-.021.613,0,1.385,0,1.385,1.4,1.385h24.6c1.063,0,1.094-.029,1.094-1.07q0-6.958,0-13.915c0-1.563-.005-3.127,0-4.69,0-.364.007-.631-.5-.617-1.484.041-2.97.033-4.455.044-.281-.011-.562-.031-.843-.031-3.536,0-7.072-.013-10.609.007-.814,0-1.329-.281-1.481-1.108.223-.955.531-1.2,1.542-1.208q5.7-.022,11.4-.035c1.3.011,2.609.034,3.914.029,1.194,0,1.029.164,1.03-.994q.01-8.64,0-17.28c0-2.791-.013-5.581.009-8.371,0-.653-.215-.932-.89-.913-1.355.038-2.712.027-4.068.035q-10.685-.013-21.37-.032c-.621,0-.781.307-.78.866q.012,13.07,0,26.141c0,.43.107.572.552.563,1.383-.028,2.767-.017,4.151-.007.943.006,1.253.27,1.478,1.207a1.266,1.266,0,0,1-1.48,1.108c-1.381-.031-2.764.009-4.146-.019-.439-.009-.557.12-.555.556Q-436.433,172.689-436.434,181.557Zm33.754-24.7c0-1.87-.011-3.741.009-5.61,0-.44-.072-.645-.58-.626-1.074.04-2.152.027-3.227,0-.4-.008-.588.067-.586.537q.028,5.649,0,11.3c0,.456.161.56.577.551,1.05-.023,2.1-.039,3.15.005.564.024.676-.188.668-.7C-402.7,160.5-402.679,158.676-402.68,156.857Zm-9.777,49.382,11.364-8.226c-3.017-.144-5.959-.148-8.9-.141-.79,0-1.852-.27-2.3.131-.512.46-.147,1.541-.157,2.351C-412.472,202.264-412.456,204.175-412.456,206.239Zm-12-12,11.355-8.222c-3.7-.148-7.34-.147-10.985-.151-.247,0-.374.069-.374.344C-424.453,188.833-424.455,191.458-424.455,194.236Z" fill="#020202"/>
        <path id="Trazado_629019" data-name="Trazado 629019" d="M-365.823,213.673c.328-.013.656-.018.983-.04a1.171,1.171,0,0,0,1.235-1.167c0-.675-.464-1.1-1.243-1.138-.227-.012-.452-.028-.679-.042q.007-1.963.012-3.925c.3-.025.606-.03.9-.08a1.107,1.107,0,0,0,1-1.215,1.077,1.077,0,0,0-1.091-1.051c-.276-.021-.552-.04-.828-.06l.016-3.911c.326-.033.656-.043.976-.1a1.047,1.047,0,0,0,.921-1.194,1.043,1.043,0,0,0-1.011-1.042c-.3-.036-.6-.049-.9-.073l0-3.97a2.338,2.338,0,0,0,1.941-2.632q.008-5.823,0-11.647a2.385,2.385,0,0,0-1.937-2.723q.015-2.053.03-4.106l.419-.034c.181.951.495,1.226,1.432,1.234.743.006,1.487.024,2.229-.006.639-.026.9.253.842.872-.011.127,0,.256,0,.384q0,23.835,0,47.67c0,1.231,0,1.231-1.244,1.231h-23.767l2.887-2.014c1.99.007,3.981,0,5.971.025a11.138,11.138,0,0,0,6.595-2.274c.222-.154.468-.33.459-.662,1.578-.008,3.157,0,4.735-.029,1-.015,1.59-.784,1.241-1.606a1.1,1.1,0,0,0-1.087-.7c-.814-.011-1.627-.032-2.44-.049a3.236,3.236,0,0,1,.5-1.188A8.262,8.262,0,0,0-365.823,213.673Z" transform="translate(-36.793 -29.344)" fill="#b9c1ca"/>
        <path id="Trazado_629020" data-name="Trazado 629020" d="M-326.469,237.863a1.2,1.2,0,0,0,1.189-1.81,1.377,1.377,0,0,0-1.193-.558q.006-2.372.012-4.743c.28-.12.609-.072.865-.277a1.116,1.116,0,0,0,.478-1.134c-.145-.735-.718-.924-1.36-1l0-4.76c.907-.112,1.352-.48,1.376-1.137q.037-1.016-1.372-1.231,0-2.358,0-4.717c1.405-.009,2.811-.009,4.216-.032.579-.009.751.281.745.811-.015,1.3-.012,2.608,0,3.912.007.946.284,1.268,1.209,1.461q0,1.517-.006,3.034c-1.017.276-1.2.539-1.2,1.722q0,18.954,0,37.909c0,1.3,0,1.3-1.327,1.3h-23.633a28.676,28.676,0,0,1,2.667-1.87,82.9,82.9,0,0,0,8.783-.15,4.365,4.365,0,0,0,2.4-.817q2.646-.018,5.291-.034c1.892-.011,2.722-.83,2.723-2.7q0-5.491,0-10.981a2.365,2.365,0,0,0-1.857-2.707q0-1.19,0-2.379c.9-.112,1.353-.481,1.377-1.134.025-.669-.421-1.072-1.372-1.24Z" transform="translate(-63.845 -59.052)" fill="#b9c1c9"/>
        <path id="Trazado_629021" data-name="Trazado 629021" d="M-331.148,173.557q-.015,2.053-.03,4.106c-1.4,0-2.805-.009-4.207.023-.456.01-.565-.155-.541-.573a11,11,0,0,0,0-1.606c-.052-.579.1-.8.734-.766.928.048,1.238-.267,1.425-1.216Z" transform="translate(-71.133 -29.349)" fill="#dae2e6"/>
        <path id="Trazado_629022" data-name="Trazado 629022" d="M-425.121,167.349c-.224-.937-.534-1.2-1.478-1.207-1.384-.01-2.768-.02-4.151.007-.445.009-.552-.133-.552-.563q.018-13.07,0-26.141c0-.558.159-.867.78-.866q10.685.025,21.37.032v5.952a3.493,3.493,0,0,1-.372.257c-.554.288-.967.668-.861,1.361s.619.929,1.236,1.02q0,.383,0,.767c-.645.1-1.18.349-1.237,1.1a1.116,1.116,0,0,0,.963,1.247,1.578,1.578,0,0,1,.272.128v15.666q-5.7.017-11.4.035c-1.011,0-1.319.253-1.542,1.209Zm6.965-3.526a1.182,1.182,0,0,0,.922-.309c.916-.894,1.858-1.768,2.708-2.722a1.4,1.4,0,0,0-.456-2.216,8.727,8.727,0,0,1-2.976-2.348c-.645-.615-.606-.785.248-1.143a15.171,15.171,0,0,1,6.144-1.132,1.736,1.736,0,0,0,1.652-2.683c-1.39-2.476-2.829-4.925-4.255-7.381a1.684,1.684,0,0,0-1.826-.851,2.035,2.035,0,0,0-1.421,1.173c-1.343,2.154-2.794,4.1-5.294,5.194a19.662,19.662,0,0,0-6.281,4.178c-.728.746-.967,1.365-.533,2.177q.8,1.488,1.688,2.925a1.543,1.543,0,0,0,1.932.675c.536-.167,1.06-.376,1.589-.563a.7.7,0,0,1,.847.112,49.238,49.238,0,0,1,3.965,4.17A1.547,1.547,0,0,0-418.156,163.824Zm6.122-18.29a1.089,1.089,0,0,0,1.14-.836q.36-1.167.636-2.36a1.162,1.162,0,0,0-.856-1.414,1.147,1.147,0,0,0-1.366.822c-.241.778-.46,1.565-.635,2.36A1.125,1.125,0,0,0-412.033,145.533Z" transform="translate(-5.163 -5.174)" fill="#8edea4"/>
        <path id="Trazado_629023" data-name="Trazado 629023" d="M-425.121,231.922h3.036c.151.827.667,1.113,1.481,1.108,3.536-.021,7.072-.01,10.609-.007.281,0,.562.02.843.031q0,1.656.006,3.312c-.306.01-.613.029-.919.029q-8.257,0-16.513,0c-.882,0-1.424.458-1.424,1.161s.525,1.143,1.421,1.144c3.123,0,6.247,0,9.37,0,2.687,0,5.375.02,8.062.03l-.447,3.061c-.305.018-.61.051-.915.051q-7.724,0-15.449,0a6.951,6.951,0,0,0-1.148.056,1.029,1.029,0,0,0-.881,1.022,1.037,1.037,0,0,0,.732,1.135,2.943,2.943,0,0,0,.909.1c2.972.006,5.944,0,8.916.005,2.253,0,4.507.022,6.76.034a2.521,2.521,0,0,1-.509,1.084l-1.35,1.988c-.28.011-.561.03-.841.03q-5.06,0-10.12,0c-.153,0-.307,0-.46,0-.8.024-1.334.5-1.31,1.185a1.182,1.182,0,0,0,1.3,1.119c2.734.018,5.468.02,8.2.029a10,10,0,0,1-5.251,1.641c-3.417.094-6.838.023-10.258.022q-.011-8.868-.03-17.736c0-.436.116-.565.555-.556,1.381.027,2.764-.013,4.146.019A1.266,1.266,0,0,0-425.121,231.922Z" transform="translate(-5.162 -69.747)" fill="#dde5e9"/>
        <path id="Trazado_629024" data-name="Trazado 629024" d="M-409.127,238.808q0-1.656-.006-3.312c1.485-.011,2.971,0,4.455-.044.512-.014.507.253.5.617-.009,1.563,0,3.126,0,4.69q0,6.958,0,13.915c0,1.041-.031,1.07-1.094,1.07h-24.6c-1.405,0-1.406,0-1.4-1.385,0-.2.014-.409.021-.613,3.42,0,6.841.072,10.258-.022a10,10,0,0,0,5.251-1.641c1.451-.009,2.9,0,4.351-.033a1.145,1.145,0,0,0,1.189-1.138,1.159,1.159,0,0,0-1.168-1.158c-.38-.024-.762-.025-1.143-.036l1.35-1.988a2.522,2.522,0,0,0,.509-1.084c.71-.016,1.422,0,2.129-.057a1.114,1.114,0,0,0,1.067-1.17,1.1,1.1,0,0,0-1.06-1.1c-.352-.039-.706-.053-1.059-.079l.447-3.061c.1-.01.2-.026.3-.031.856-.04,1.348-.435,1.374-1.106.026-.691-.495-1.148-1.371-1.2C-408.926,238.832-409.026,238.818-409.127,238.808Z" transform="translate(-5.183 -72.188)" fill="#b9c0c9"/>
        <path id="Trazado_629025" data-name="Trazado 629025" d="M-359.421,147.959q0-.383,0-.767c.824-.452,1.66-.883,2.467-1.363a1.17,1.17,0,0,0,.526-1.621,1.16,1.16,0,0,0-1.661-.378c-.45.232-.89.482-1.335.724V138.6c1.356-.009,2.713,0,4.068-.035.675-.019.9.259.89.913-.022,2.79-.009,5.581-.009,8.371q0,8.64,0,17.28c0,1.158.164.989-1.03.994-1.3,0-2.609-.018-3.914-.029V150.43c.591.144,1.181.3,1.775.43a1.2,1.2,0,0,0,1.588-.789,1.208,1.208,0,0,0-1.009-1.457C-357.851,148.386-358.637,148.177-359.421,147.959Z" transform="translate(-54.885 -5.165)" fill="#7abf8d"/>
        <path id="Trazado_629026" data-name="Trazado 629026" d="M-312.57,335.866h-10.26c.3-.244.5-.418.712-.572,1.947-1.414,3.888-2.836,5.848-4.231a3.1,3.1,0,0,0,1.427-2.8c-.037-1.126.033-2.256-.024-3.381-.032-.638.2-.77.779-.745,1,.043,2,.026,3,0,.379-.008.54.072.535.5-.03,2.715-.033,5.43-.044,8.145C-311.43,333.7-311.8,334.911-312.57,335.866Z" transform="translate(-80.201 -133.538)" fill="#f7d348"/>
        <path id="Trazado_629027" data-name="Trazado 629027" d="M-331.53,200.668c0,1.819-.017,3.638.011,5.457.008.515-.1.727-.669.7-1.049-.044-2.1-.028-3.15-.005-.416.009-.579-.1-.577-.551q.026-5.649,0-11.3c0-.47.181-.545.586-.537,1.075.022,2.153.035,3.227,0,.509-.019.585.186.58.626C-331.541,196.928-331.53,198.8-331.53,200.668Z" transform="translate(-71.15 -43.811)" fill="#62baee"/>
        <path id="Trazado_629028" data-name="Trazado 629028" d="M-353.656,355.908c0-2.064-.015-3.975.007-5.886.01-.81-.355-1.891.157-2.351.446-.4,1.508-.129,2.3-.131,2.942-.006,5.885,0,8.9.141Z" transform="translate(-58.801 -149.668)" fill="#919aa3"/>
        <path id="Trazado_629029" data-name="Trazado 629029" d="M-392.346,317.151c0-2.778,0-5.4,0-8.028,0-.276.127-.345.374-.344,3.645,0,7.29,0,10.985.151Z" transform="translate(-32.109 -122.914)" fill="#919aa3"/>
        <path id="Trazado_629030" data-name="Trazado 629030" d="M-363.188,324.205c.01.333-.237.509-.459.662a11.138,11.138,0,0,1-6.595,2.274c-1.99-.029-3.98-.018-5.971-.025,1.254-.926,2.511-1.849,3.76-2.783a.884.884,0,0,1,.577-.153Z" transform="translate(-43.272 -133.57)" fill="#dde5e9"/>
        <path id="Trazado_629031" data-name="Trazado 629031" d="M-342.579,303.675a8.26,8.26,0,0,1-.9,2.739,3.235,3.235,0,0,0-.5,1.188l-7.979.021a.148.148,0,0,0-.026-.129q1.623-1.208,3.245-2.417c.286-.214.665-.379.83-.666.465-.809,1.169-.816,1.956-.782C-344.827,303.678-343.7,303.663-342.579,303.675Z" transform="translate(-60.036 -119.346)" fill="#dde5e9"/>
        <path id="Trazado_629032" data-name="Trazado 629032" d="M-292.225,239.471l0,4.76c-1.428.018-2.855.027-4.282.058-.4.009-.455-.182-.452-.516.013-1.277.021-2.554,0-3.831-.008-.418.145-.515.532-.508C-295.033,239.463-293.629,239.462-292.225,239.471Z" transform="translate(-98.092 -74.944)" fill="#dde5e9"/>
        <path id="Trazado_629033" data-name="Trazado 629033" d="M-292.22,216.492q0,2.358,0,4.717c-1.433.01-2.865.014-4.3.035-.322,0-.451-.089-.447-.433q.025-1.958,0-3.917c0-.34.117-.44.444-.436C-295.086,216.48-293.653,216.483-292.22,216.492Z" transform="translate(-98.095 -59.049)" fill="#dae2e6"/>
        <path id="Trazado_629034" data-name="Trazado 629034" d="M-292.214,262.7q-.006,2.372-.012,4.743c-1.4.01-2.806.009-4.209.036-.384.007-.542-.086-.534-.506.025-1.276.019-2.553,0-3.829,0-.352.088-.508.469-.5C-295.069,262.675-293.641,262.683-292.214,262.7Z" transform="translate(-98.092 -91)" fill="#dde5e9"/>
        <path id="Trazado_629035" data-name="Trazado 629035" d="M-292.218,285.812v4.737c-1.427.011-2.855.012-4.282.04-.383.008-.468-.144-.464-.494q.024-1.913,0-3.826c0-.35.079-.5.462-.493C-295.074,285.8-293.646,285.8-292.218,285.812Z" transform="translate(-98.095 -107.001)" fill="#dae2e6"/>
        <path id="Trazado_629036" data-name="Trazado 629036" d="M-331.157,242.086l0,3.97c-1.43.017-2.861.029-4.29.056-.329.006-.451-.11-.446-.445.015-1.049.024-2.1,0-3.147-.013-.491.285-.446.6-.444Q-333.229,242.084-331.157,242.086Z" transform="translate(-71.16 -76.77)" fill="#dde5e9"/>
        <path id="Trazado_629037" data-name="Trazado 629037" d="M-331.138,262.706l-.016,3.911c-1.43.017-2.861.028-4.291.056-.329.006-.451-.11-.446-.444q.023-1.573,0-3.147c-.006-.351.15-.435.461-.429C-334,262.677-332.569,262.69-331.138,262.706Z" transform="translate(-71.166 -91.006)" fill="#dde5e9"/>
        <path id="Trazado_629038" data-name="Trazado 629038" d="M-331.141,283.214q-.006,1.963-.012,3.925c-1.431.014-2.862.021-4.292.046-.332.006-.45-.112-.445-.444.014-1.049.017-2.1,0-3.146-.006-.351.147-.433.459-.428C-334,283.19-332.572,283.2-331.141,283.214Z" transform="translate(-71.166 -105.197)" fill="#dde5e9"/>
        <path id="Trazado_629039" data-name="Trazado 629039" d="M-292.24,308.9q0,1.19,0,2.379c-1.381,0-2.763-.02-4.143.011-.476.011-.6-.134-.6-.6-.017-1.819-.035-1.823,1.755-1.818C-294.234,308.868-293.237,308.885-292.24,308.9Z" transform="translate(-98.078 -122.974)" fill="#dde5e9"/>
        <path id="Trazado_629040" data-name="Trazado 629040" d="M-326.643,369.833a4.366,4.366,0,0,1-2.4.817,82.906,82.906,0,0,1-8.783.15,3.052,3.052,0,0,1,2.5-1.025C-332.432,369.854-329.537,369.821-326.643,369.833Z" transform="translate(-69.831 -165.11)" fill="#dae2e6"/>
        <path id="Trazado_629041" data-name="Trazado 629041" d="M-289.543,355.284c.769-.955,1.141-2.163,1.97-3.079.011.889.008,1.778.041,2.666.014.382-.141.487-.491.464C-288.529,355.3-289.037,355.3-289.543,355.284Z" transform="translate(-103.229 -152.957)" fill="#d8b93f"/>
        <path id="Trazado_629042" data-name="Trazado 629042" d="M-352.216,316.192a.148.148,0,0,1,.026.129l-.131,0Z" transform="translate(-59.8 -128.043)" fill="#b9c1ca"/>
        <path id="Trazado_629043" data-name="Trazado 629043" d="M-414.649,173.778a1.55,1.55,0,0,1-1.346-.747,49.233,49.233,0,0,0-3.965-4.17.7.7,0,0,0-.847-.112c-.53.188-1.053.4-1.589.563a1.543,1.543,0,0,1-1.932-.675q-.888-1.435-1.687-2.925c-.434-.812-.2-1.431.533-2.177a19.662,19.662,0,0,1,6.28-4.178c2.5-1.1,3.951-3.04,5.294-5.194a2.035,2.035,0,0,1,1.421-1.173,1.683,1.683,0,0,1,1.826.851c1.426,2.456,2.865,4.9,4.255,7.381a1.736,1.736,0,0,1-1.652,2.683,15.171,15.171,0,0,0-6.144,1.132c-.854.358-.894.528-.248,1.143a8.727,8.727,0,0,0,2.976,2.348,1.4,1.4,0,0,1,.456,2.216c-.85.954-1.792,1.828-2.708,2.722A1.187,1.187,0,0,1-414.649,173.778Zm2.473-17.956a18.548,18.548,0,0,1-3.125,3.817c-.46.426-1.309.722-1.311,1.27,0,.575.608,1.141.911,1.732.182.356.364.39.722.232a15,15,0,0,1,3.673-1.056c.787-.128,1.587-.177,2.436-.267Zm-6.783,6.021a1.926,1.926,0,0,0-.192.081c-.765.457-1.744.763-2.211,1.429-.277.4.582,1.186.9,1.817.079.16.182.309.26.469.131.271.3.287.546.133.738-.453,1.853-.731,2.129-1.375.264-.615-.7-1.415-1.057-2.166a.968.968,0,0,0-.164-.258A.909.909,0,0,0-418.959,161.844Zm1.793,5.148c-.2.119-.467.26-.709.44-.132.1-.031.231.06.323,1.025,1.032,2.021,2.1,3.1,3.077.445.406.563-.307.858-.459.232-.12.212-.295-.014-.465a34.494,34.494,0,0,1-2.769-2.639A.647.647,0,0,0-417.166,166.992Zm-5.121-.4c-.309-.522-.643-1.093-.984-1.659-.063-.1-.16-.091-.257-.022a.273.273,0,0,0-.087.4c.277.486.567.965.843,1.452a.254.254,0,0,0,.38.111C-422.289,166.828-422.224,166.768-422.287,166.593Z" transform="translate(-8.669 -15.127)" fill="#020202"/>
        <path id="Trazado_629044" data-name="Trazado 629044" d="M-362.2,169.041c.784.218,1.57.427,2.351.656a1.208,1.208,0,0,1,1.009,1.457,1.2,1.2,0,0,1-1.588.789c-.594-.132-1.184-.286-1.775-.43a1.578,1.578,0,0,0-.272-.128,1.116,1.116,0,0,1-.963-1.247C-363.376,169.39-362.842,169.144-362.2,169.041Z" transform="translate(-52.109 -26.247)" fill="#020202"/>
        <path id="Trazado_629045" data-name="Trazado 629045" d="M-362.228,155.945c.445-.242.886-.492,1.335-.724a1.16,1.16,0,0,1,1.661.378,1.17,1.17,0,0,1-.526,1.621c-.807.48-1.643.911-2.467,1.363-.617-.091-1.129-.322-1.236-1.02s.307-1.073.861-1.361A3.489,3.489,0,0,0-362.228,155.945Z" transform="translate(-52.082 -16.556)" fill="#020202"/>
        <path id="Trazado_629046" data-name="Trazado 629046" d="M-371.288,150.719a1.124,1.124,0,0,1-1.08-1.427c.175-.795.394-1.582.635-2.36a1.147,1.147,0,0,1,1.366-.822,1.162,1.162,0,0,1,.856,1.414q-.275,1.19-.636,2.36A1.088,1.088,0,0,1-371.288,150.719Z" transform="translate(-45.909 -10.361)" fill="#020202"/>
        <path id="Trazado_629047" data-name="Trazado 629047" d="M-402.175,263.964c.353.026.708.04,1.059.079a1.1,1.1,0,0,1,1.06,1.1,1.114,1.114,0,0,1-1.067,1.17c-.706.057-1.419.041-2.129.057-2.254-.012-4.507-.029-6.76-.034-2.972-.006-5.944,0-8.916-.005a2.944,2.944,0,0,1-.909-.1,1.038,1.038,0,0,1-.732-1.135,1.029,1.029,0,0,1,.881-1.022,6.953,6.953,0,0,1,1.148-.056q7.725,0,15.449,0C-402.785,264.015-402.48,263.982-402.175,263.964Z" transform="translate(-12.585 -91.913)" fill="#070707"/>
        <path id="Trazado_629048" data-name="Trazado 629048" d="M-401.745,246.341c.1.01.2.024.3.031.877.055,1.4.512,1.371,1.2-.026.671-.518,1.066-1.374,1.106-.1,0-.2.02-.3.031-2.687-.01-5.375-.025-8.062-.03-3.123-.005-6.247,0-9.37,0-.9,0-1.422-.433-1.422-1.144s.542-1.16,1.424-1.161q8.256-.007,16.513,0C-402.358,246.37-402.051,246.351-401.745,246.341Z" transform="translate(-12.565 -79.722)" fill="#020202"/>
        <path id="Trazado_629049" data-name="Trazado 629049" d="M-398.986,281.738c.381.011.763.012,1.143.036a1.159,1.159,0,0,1,1.168,1.158,1.145,1.145,0,0,1-1.189,1.138c-1.45.03-2.9.024-4.351.033-2.734-.008-5.468-.011-8.2-.029a1.182,1.182,0,0,1-1.3-1.119c-.023-.681.507-1.161,1.31-1.185.153,0,.307,0,.46,0q5.06,0,10.12,0C-399.547,281.768-399.266,281.749-398.986,281.738Z" transform="translate(-18.71 -104.209)" fill="#020202"/>
        <path id="Trazado_629050" data-name="Trazado 629050" d="M-390.584,162.229l3.307,5.729c-.85.09-1.65.139-2.436.267a15,15,0,0,0-3.673,1.056c-.358.158-.539.124-.722-.232-.3-.591-.913-1.157-.911-1.732,0-.549.851-.845,1.311-1.27A18.548,18.548,0,0,0-390.584,162.229Z" transform="translate(-30.261 -21.534)" fill="#dae2e6"/>
        <path id="Trazado_629051" data-name="Trazado 629051" d="M-408.148,181.765a.909.909,0,0,1,.206.132.968.968,0,0,1,.164.258c.361.751,1.32,1.552,1.057,2.166-.276.643-1.391.921-2.129,1.375-.25.154-.414.137-.546-.133-.078-.161-.18-.309-.26-.469-.313-.631-1.173-1.421-.9-1.817.467-.666,1.446-.972,2.211-1.429A1.926,1.926,0,0,1-408.148,181.765Z" transform="translate(-19.48 -35.049)" fill="#ca5256"/>
        <path id="Trazado_629052" data-name="Trazado 629052" d="M-398.55,198.468a.647.647,0,0,1,.521.278,34.494,34.494,0,0,0,2.769,2.639c.226.17.246.345.014.465-.3.152-.413.865-.858.459-1.074-.98-2.07-2.045-3.1-3.077-.091-.092-.192-.225-.06-.323C-399.017,198.728-398.746,198.587-398.55,198.468Z" transform="translate(-27.285 -46.604)" fill="#ac3234"/>
        <path id="Trazado_629053" data-name="Trazado 629053" d="M-416.528,193.282c.063.175,0,.235-.105.281a.254.254,0,0,1-.38-.111c-.276-.487-.565-.966-.843-1.452a.273.273,0,0,1,.087-.4c.1-.069.194-.083.257.022C-417.17,192.189-416.836,192.76-416.528,193.282Z" transform="translate(-14.429 -41.816)" fill="#b9c1ca"/>
      </g>
    </g>
  </g>
</svg>
