<svg xmlns="http://www.w3.org/2000/svg" width="125" height="125" viewBox="0 0 125 125">
  <g id="Grupo_969973" data-name="Grupo 969973" transform="translate(-685 -6494)">
    <path id="Trazado_626457" data-name="Trazado 626457" d="M62.5,0A62.5,62.5,0,1,1,0,62.5,62.5,62.5,0,0,1,62.5,0Z" transform="translate(685 6494)" fill="#ef8b53"/>
    <g id="Grupo_930279" data-name="Grupo 930279" transform="translate(-2316.251 6041.852)">
      <path id="Trazado_611529" data-name="Trazado 611529" d="M3031.029,525.69a5.836,5.836,0,0,1,1.932-4.051c.476-.464.378-.68-.038-1.093q-6.942-6.881-13.848-13.8c-1.39-1.388-1.385-2.187.022-3.595l21.779-21.773c1.445-1.445,2.212-1.444,3.657,0,2.546,2.546,5.108,5.075,7.623,7.651a2.926,2.926,0,0,0,1.847.907,12.05,12.05,0,0,1,6.8,3.034c.4.359.608.259.943-.039a13.037,13.037,0,0,1,8.8-3.335,9.424,9.424,0,0,0,6.882-2.8c2.736-2.691,5.574-5.277,8.368-7.908,1.291-1.216,2.117-1.219,3.35.012q9.693,9.684,19.38,19.374c1.264,1.265,1.254,2.117-.034,3.4q-9.409,9.4-18.835,18.782c-.521.517-.53.758-.017,1.291a6.207,6.207,0,0,1-3.787,10.573c-.492.053-.673.184-.734.724a6.092,6.092,0,0,1-5.717,5.6c-.576.058-.57.365-.614.753a5.863,5.863,0,0,1-4.7,5.368c-1.165.241-1.508.642-1.782,1.771-1.173,4.829-6.707,6.334-10.459,2.9-.477-.437-.683-.472-1.181-.013-3.353,3.088-8.134,2.273-10.1-1.69a4.5,4.5,0,0,1-.547-2.046c.006-.529-.181-.707-.711-.76a6.022,6.022,0,0,1-5.589-5.6c-.055-.453-.174-.642-.682-.686a6.1,6.1,0,0,1-5.632-5.49c-.073-.69-.35-.789-.907-.857C3033.331,531.916,3031.046,529.338,3031.029,525.69Zm56.865.435a3,3,0,0,0-1.128-2.237q-8.688-8.67-17.354-17.363c-.443-.445-.662-.526-1.152-.028-1.648,1.674-3.227,3.425-5.027,4.939a7.127,7.127,0,0,1-9.564-.442,7.032,7.032,0,0,1-.394-9.562c1.561-1.791,3.3-3.424,4.99-5.1.364-.362.371-.535-.039-.874a10.331,10.331,0,0,0-5.133-2.09.724.724,0,0,0-.681.31q-10.13,10.132-20.271,20.252c-.333.332-.327.51,0,.828,1.156,1.116,2.3,2.244,3.411,3.406.373.39.567.313.9-.028,1-1.019,1.991-2.054,3.066-2.989a6.206,6.206,0,0,1,10.23,4.023c.069.586.226.759.825.816a6.1,6.1,0,0,1,5.48,5.541c.039.524.2.692.713.766a6.033,6.033,0,0,1,5.61,5.608c.063.437.172.661.686.711a6.144,6.144,0,0,1,5.652,5.486c.034.257-.038.546.192.755a21.792,21.792,0,0,0,2.258,2.149,2.625,2.625,0,0,0,3.68-.77,2.7,2.7,0,0,0-.545-3.549q-3.743-3.768-7.51-7.514c-1.151-1.152-1.309-2.181-.465-3.01s1.846-.658,3.013.508q3.725,3.724,7.444,7.453a2.772,2.772,0,0,0,2.9.9,2.659,2.659,0,0,0,1.009-4.564c-2.5-2.548-5.045-5.054-7.567-7.583a5.974,5.974,0,0,1-.7-.8,1.627,1.627,0,0,1-.056-1.847,1.675,1.675,0,0,1,1.64-.863,2.181,2.181,0,0,1,1.446.789q2.4,2.4,4.8,4.8c1.053,1.051,2.083,2.127,3.168,3.143a2.5,2.5,0,0,0,2.969.465A2.532,2.532,0,0,0,3087.894,526.125Zm-32.722-20.165a3.392,3.392,0,0,0,.729,2.149,3.552,3.552,0,0,0,5.531.177c2.73-2.7,5.431-5.424,8.149-8.134a5.769,5.769,0,0,1,.8-.7,1.739,1.739,0,0,1,2.432,2.4,4.959,4.959,0,0,1-.888.991c-.484.4-.536.66-.033,1.158q7.042,6.969,14.013,14.009c.518.524.763.433,1.222-.031q4.141-4.19,8.345-8.316c.524-.513.615-.771.04-1.356q-7.985-8.108-15.9-16.285c-1.2-1.232-1.2-1.232-2.642-.35-.177.108-.372.184-.555.283a12.4,12.4,0,0,1-5.7,1.193,10.138,10.138,0,0,0-7.088,2.882q-3.712,3.672-7.392,7.376A3.449,3.449,0,0,0,3055.172,505.96Zm-5.721-14.4c0-.289-.2-.394-.343-.533-1.975-1.98-3.966-3.942-5.922-5.939-.4-.408-.613-.357-.988.02q-9.67,9.7-19.374,19.366c-.4.4-.37.611.014.987q2.961,2.906,5.869,5.866c.355.36.562.463.982.042q9.7-9.738,19.423-19.443C3049.236,491.8,3049.352,491.664,3049.451,491.557Zm37.985-9.258c-.12.1-.232.181-.334.277-1.907,1.791-3.807,3.59-5.725,5.369-.322.3-.3.474,0,.777q8.451,8.639,16.877,17.3c.317.326.5.357.836.015q2.782-2.83,5.613-5.612c.357-.351.372-.555.007-.918q-8.435-8.4-16.845-16.832C3087.738,482.553,3087.6,482.443,3087.436,482.3Zm-37.651,59.141a2.756,2.756,0,0,0,2.057-.833c2.058-2.057,4.133-4.1,6.167-6.178a2.627,2.627,0,0,0,.1-3.825,2.663,2.663,0,0,0-3.9.063c-.882.838-1.727,1.716-2.586,2.577-1.217,1.219-2.452,2.419-3.641,3.665a2.669,2.669,0,0,0,1.8,4.531Zm3.757,3.686a2.552,2.552,0,0,0,1.569,2.39,2.506,2.506,0,0,0,2.961-.535q3.188-3.124,6.314-6.311a2.614,2.614,0,0,0,.025-3.762,2.667,2.667,0,0,0-3.836.04c-2.082,2.042-4.135,4.114-6.195,6.178A2.609,2.609,0,0,0,3053.542,545.126Zm-18.936-19.106a2.64,2.64,0,0,0,1.581,2.573,2.594,2.594,0,0,0,3.026-.622c2.071-2.054,4.14-4.109,6.183-6.191a2.619,2.619,0,0,0,.058-3.825,2.669,2.669,0,0,0-3.838.07c-2.082,2.042-4.133,4.116-6.192,6.181A2.5,2.5,0,0,0,3034.606,526.021Zm17.935.1a2.663,2.663,0,0,0-4.581-1.82c-2.091,2.065-4.18,4.134-6.233,6.237a2.627,2.627,0,0,0-.032,3.823,2.667,2.667,0,0,0,3.831-.079c2.078-2.036,4.125-4.1,6.179-6.165A2.6,2.6,0,0,0,3052.541,526.126Zm16.414,18.881a2.925,2.925,0,0,0-1.163-2.215c-.182-.172-.3-.226-.5-.016q-1.6,1.664-3.234,3.3a.335.335,0,0,0-.039.523,2.873,2.873,0,0,0,3,1.047A2.62,2.62,0,0,0,3068.955,545.007Z" transform="translate(0)" fill="#040303"/>
      <path id="Trazado_611530" data-name="Trazado 611530" d="M3112.767,553.723a2.531,2.531,0,0,1-1.507,2.426,2.5,2.5,0,0,1-2.969-.465c-1.086-1.016-2.116-2.091-3.168-3.143q-2.4-2.4-4.8-4.8a2.183,2.183,0,0,0-1.446-.789,1.675,1.675,0,0,0-1.64.863,1.627,1.627,0,0,0,.056,1.848,5.972,5.972,0,0,0,.7.8c2.522,2.528,5.065,5.035,7.567,7.583a2.659,2.659,0,0,1-1.008,4.564,2.772,2.772,0,0,1-2.9-.9q-3.708-3.741-7.444-7.453-1.75-1.749-3.013-.508c-.844.828-.686,1.858.465,3.01q3.755,3.757,7.51,7.513a2.7,2.7,0,0,1,.545,3.549,2.625,2.625,0,0,1-3.68.77,21.762,21.762,0,0,1-2.258-2.149c-.23-.209-.157-.5-.192-.755a6.143,6.143,0,0,0-5.652-5.486c-.514-.05-.623-.274-.686-.711a6.032,6.032,0,0,0-5.61-5.608c-.511-.074-.673-.242-.713-.766a6.1,6.1,0,0,0-5.48-5.541c-.6-.056-.755-.229-.824-.816a6.206,6.206,0,0,0-10.23-4.023c-1.075.935-2.067,1.97-3.066,2.989-.334.341-.528.418-.9.028-1.11-1.162-2.255-2.29-3.411-3.406-.33-.318-.335-.5,0-.828q10.147-10.114,20.271-20.252a.724.724,0,0,1,.681-.31,10.33,10.33,0,0,1,5.133,2.09c.41.34.4.512.039.874-1.686,1.679-3.429,3.312-4.99,5.1a7.032,7.032,0,0,0,.394,9.563,7.127,7.127,0,0,0,9.564.442c1.8-1.515,3.38-3.265,5.028-4.939.49-.5.709-.417,1.152.028q8.657,8.7,17.354,17.363A3,3,0,0,1,3112.767,553.723Z" transform="translate(-24.873 -27.598)" fill="#f5cdbf"/>
      <path id="Trazado_611531" data-name="Trazado 611531" d="M3121.832,529.412a3.45,3.45,0,0,1,1.069-2.558q3.685-3.7,7.392-7.376a10.138,10.138,0,0,1,7.088-2.882,12.405,12.405,0,0,0,5.7-1.192c.183-.1.378-.175.554-.283,1.444-.882,1.442-.883,2.643.35q7.941,8.151,15.9,16.285c.576.585.485.843-.039,1.356q-4.21,4.12-8.345,8.316c-.458.464-.7.555-1.222.031q-6.97-7.04-14.013-14.009c-.5-.5-.451-.754.033-1.158a4.953,4.953,0,0,0,.888-.991,1.738,1.738,0,0,0-2.432-2.4,5.767,5.767,0,0,0-.8.7c-2.718,2.71-5.418,5.437-8.149,8.134a3.552,3.552,0,0,1-5.531-.177A3.392,3.392,0,0,1,3121.832,529.412Z" transform="translate(-66.66 -23.452)" fill="#f5cec0"/>
      <path id="Trazado_611532" data-name="Trazado 611532" d="M3057.529,503.8c-.1.107-.214.241-.338.365q-9.716,9.717-19.423,19.443c-.42.422-.626.319-.982-.042q-2.911-2.956-5.869-5.866c-.384-.376-.415-.588-.014-.987q9.7-9.665,19.374-19.366c.375-.377.588-.428.988-.02,1.956,2,3.947,3.96,5.922,5.939C3057.325,503.4,3057.532,503.509,3057.529,503.8Zm-12.8,7.761a1.658,1.658,0,0,0-1.012-1.655,1.762,1.762,0,0,0-2.109.459q-2.538,2.5-5.041,5.037a1.837,1.837,0,0,0-.169,2.693,1.8,1.8,0,0,0,2.686-.182c1.673-1.644,3.323-3.312,4.98-4.972A1.866,1.866,0,0,0,3044.728,511.559Zm5.17-4.955a1.723,1.723,0,0,0-1.706-1.789,1.75,1.75,0,1,0,1.706,1.789Z" transform="translate(-8.079 -12.242)" fill="#d95f74"/>
      <path id="Trazado_611533" data-name="Trazado 611533" d="M3200.72,490.053c.163.143.3.254.427.379q8.42,8.419,16.845,16.832c.364.362.35.566-.007.918q-2.83,2.782-5.613,5.612c-.335.341-.519.311-.836-.015q-8.425-8.664-16.877-17.3c-.3-.3-.319-.479,0-.777,1.917-1.779,3.817-3.578,5.725-5.369C3200.487,490.234,3200.6,490.151,3200.72,490.053Zm12.428,17.054a1.582,1.582,0,0,0-.516-1.206c-1.143-1.171-2.284-2.344-3.469-3.471a1.772,1.772,0,0,0-2.494-.127,1.677,1.677,0,0,0-.283,2.257,33,33,0,0,0,4.094,4.089,1.493,1.493,0,0,0,1.766.067A1.692,1.692,0,0,0,3213.147,507.107Zm-8.413-8.628a1.755,1.755,0,0,0-1.63-1.86,1.816,1.816,0,0,0-1.9,1.707,1.85,1.85,0,0,0,1.7,1.83A1.793,1.793,0,0,0,3204.734,498.479Z" transform="translate(-113.284 -7.754)" fill="#679ae4"/>
      <path id="Trazado_611534" data-name="Trazado 611534" d="M3102.133,634.441a2.669,2.669,0,0,1-1.8-4.531c1.188-1.245,2.424-2.446,3.641-3.665.86-.862,1.7-1.74,2.587-2.577a2.663,2.663,0,0,1,3.9-.063,2.627,2.627,0,0,1-.1,3.825c-2.034,2.08-4.108,4.121-6.167,6.178A2.756,2.756,0,0,1,3102.133,634.441Z" transform="translate(-52.348 -93)" fill="#f2cbbd"/>
      <path id="Trazado_611535" data-name="Trazado 611535" d="M3117.272,649.483a2.609,2.609,0,0,1,.838-2c2.06-2.064,4.112-4.137,6.194-6.178a2.667,2.667,0,0,1,3.836-.04,2.614,2.614,0,0,1-.025,3.762q-3.119,3.193-6.314,6.311a2.505,2.505,0,0,1-2.96.535A2.552,2.552,0,0,1,3117.272,649.483Z" transform="translate(-63.731 -104.357)" fill="#f5cdbf"/>
      <path id="Trazado_611536" data-name="Trazado 611536" d="M3064.348,596.381a2.5,2.5,0,0,1,.818-1.814c2.059-2.065,4.11-4.139,6.192-6.181a2.669,2.669,0,0,1,3.838-.07,2.619,2.619,0,0,1-.059,3.825c-2.042,2.081-4.112,4.137-6.183,6.19a2.594,2.594,0,0,1-3.026.622A2.641,2.641,0,0,1,3064.348,596.381Z" transform="translate(-29.742 -70.36)" fill="#f5cdbf"/>
      <path id="Trazado_611537" data-name="Trazado 611537" d="M3093.556,607.779a2.6,2.6,0,0,1-.835,2c-2.054,2.061-4.1,4.129-6.179,6.165a2.667,2.667,0,0,1-3.831.079,2.627,2.627,0,0,1,.032-3.823c2.052-2.1,4.142-4.172,6.232-6.237a2.664,2.664,0,0,1,4.582,1.82Z" transform="translate(-41.016 -81.653)" fill="#f4cdbf"/>
      <path id="Trazado_611538" data-name="Trazado 611538" d="M3151.3,661.075a2.619,2.619,0,0,1-1.937,2.643,2.873,2.873,0,0,1-3-1.047.335.335,0,0,1,.038-.523q1.625-1.644,3.234-3.3c.2-.21.323-.157.5.016A2.925,2.925,0,0,1,3151.3,661.075Z" transform="translate(-82.344 -116.068)" fill="#f2cbbd"/>
      <path id="Trazado_611539" data-name="Trazado 611539" d="M3054.188,534.328a1.866,1.866,0,0,1-.665,1.381c-1.658,1.66-3.308,3.328-4.981,4.972a1.8,1.8,0,0,1-2.686.182,1.837,1.837,0,0,1,.169-2.693q2.5-2.542,5.041-5.037a1.762,1.762,0,0,1,2.109-.459A1.658,1.658,0,0,1,3054.188,534.328Z" transform="translate(-17.538 -35.011)" fill="#020101"/>
      <path id="Trazado_611540" data-name="Trazado 611540" d="M3078.227,520.559a1.728,1.728,0,0,1-1.785,1.709,1.75,1.75,0,1,1,.079-3.5A1.722,1.722,0,0,1,3078.227,520.559Z" transform="translate(-36.408 -26.197)" fill="#050203"/>
      <path id="Trazado_611541" data-name="Trazado 611541" d="M3234.035,528.283a1.692,1.692,0,0,1-.9,1.608,1.493,1.493,0,0,1-1.766-.067,33,33,0,0,1-4.094-4.089,1.677,1.677,0,0,1,.283-2.257,1.772,1.772,0,0,1,2.494.127c1.185,1.127,2.326,2.3,3.469,3.471A1.582,1.582,0,0,1,3234.035,528.283Z" transform="translate(-134.171 -28.929)" fill="#010203"/>
      <path id="Trazado_611542" data-name="Trazado 611542" d="M3216.9,510.26a1.793,1.793,0,0,1-1.827,1.677,1.85,1.85,0,0,1-1.7-1.83,1.816,1.816,0,0,1,1.9-1.707A1.755,1.755,0,0,1,3216.9,510.26Z" transform="translate(-125.446 -19.534)" fill="#030406"/>
    </g>
  </g>
</svg>
