<svg xmlns="http://www.w3.org/2000/svg" width="60" height="60" viewBox="0 0 60 60">
  <g id="Grupo_951884" data-name="Grupo 951884" transform="translate(-410 -1150)">
    <rect id="Rectángulo_305522" data-name="Rectángulo 305522" width="60" height="60" transform="translate(410 1150)" fill="none"/>
    <g id="Grupo_951888" data-name="Grupo 951888" transform="translate(415.119 1155.685)">
      <path id="Trazado_628329" data-name="Trazado 628329" d="M1558.4,147.559c-.68.125-.829.057-1.176-.543-.469-.811-.945-1.618-1.4-2.438-.132-.239-.227-.261-.47-.128a2.343,2.343,0,0,1-3.422-.979c-.45-.773-.45-.773-1.219-.385a4.493,4.493,0,0,1-4.455-7.788c.7-.459.7-.459.292-1.178a2.406,2.406,0,0,1,.966-3.617c2.334-1.352,4.673-2.7,7-4.06a2.342,2.342,0,0,1,2.726.039c.254.178.378.032.545-.08a18.745,18.745,0,0,0,6.234-6.987c.142-.272.26-.558.424-.816a2.235,2.235,0,0,0,.295-2.129,3.192,3.192,0,0,1,1.871-3.868,3.3,3.3,0,0,1,4.121,1.3c.994,1.645,1.942,3.317,2.881,4.995a.515.515,0,0,0,.715.29c.541-.164,1.089-.3,1.638-.439a1.672,1.672,0,0,1,2.079.894q1.033,1.782,2.053,3.571a1.671,1.671,0,0,1-.227,2.175c-.42.471-.836.948-1.283,1.392a.452.452,0,0,0-.06.66c.954,1.631,1.906,3.264,2.828,4.914a3.3,3.3,0,0,1-2.24,4.966,3.216,3.216,0,0,1-3.324-1.328c-.126-.166-.216-.328-.478-.343a22.717,22.717,0,0,0-8.083.652,21.545,21.545,0,0,0-3.108,1.214.408.408,0,0,0-.286.477,1.763,1.763,0,0,1-.179,1.086.517.517,0,0,0,.119.71c.8.827,1.572,1.677,2.349,2.524a1.5,1.5,0,0,1-.353,2.518c-.5.3-.994.607-1.512.87-.284.144-.275.268-.131.51q.828,1.4,1.622,2.812a.765.765,0,0,0,.553.413c.679.144,1.353.312,2.027.48a1.389,1.389,0,0,1,1.131,1.182,1.364,1.364,0,0,1-.73,1.42c-1.548.9-3.1,1.808-4.657,2.693a1.808,1.808,0,0,1-2.552-.705c-.8-1.367-1.579-2.744-2.365-4.118-.323-.564-.3-.773.13-1.244a.837.837,0,0,1,1.115.479c.768,1.348,1.555,2.686,2.32,4.035a.482.482,0,0,0,.789.2c.648-.4,1.308-.773,1.964-1.156.763-.445,1.526-.888,2.381-1.385-.694-.163-1.28-.311-1.872-.439a2.115,2.115,0,0,1-1.48-1.066c-1.448-2.541-2.919-5.069-4.366-7.611-.162-.285-.276-.359-.578-.173q-1.135.7-2.309,1.333c-.285.154-.312.276-.148.547.477.788.911,1.6,1.391,2.388A.923.923,0,0,1,1558.4,147.559Zm8.647-33.514a1.82,1.82,0,0,0-.706,2.613c.81,1.436,1.639,2.861,2.461,4.289l7.955,13.826a1.67,1.67,0,0,0,.982.943,1.446,1.446,0,0,0,1.253.14,1.881,1.881,0,0,0,1.051-2.883q-3.534-6.156-7.078-12.308c-1.12-1.946-2.234-3.895-3.363-5.836A1.809,1.809,0,0,0,1567.042,114.045Zm-12.462,14.077q-3.168,1.821-6.335,3.643c-.761.439-.87.867-.427,1.636q2.114,3.671,4.231,7.341c.443.766.84,1.561,1.354,2.286a.89.89,0,0,0,1.3.119q3.5-2.024,7-4.057c.759-.441.865-.863.421-1.637q-1.362-2.375-2.73-4.747c-.886-1.54-1.767-3.083-2.659-4.62a.928.928,0,0,0-1.46-.394C1555.039,127.825,1554.812,127.978,1554.581,128.122Zm17.906,5.944,2.237.11-8.8-15.288-.956,1.875a20.577,20.577,0,0,1-6.476,6.914c-.213.139-.176.247-.07.423.284.47.553.949.827,1.425,1.24,2.156,2.486,4.31,3.712,6.474.166.293.3.345.589.179a9.282,9.282,0,0,1,.961-.456A20.9,20.9,0,0,1,1572.487,134.067Zm-26.832,5.038a3.009,3.009,0,0,0,1.66,2.656,3.058,3.058,0,0,0,3.213-.247c.165-.1.169-.187.077-.345q-1.385-2.39-2.756-4.788c-.1-.176-.2-.212-.386-.113A3.17,3.17,0,0,0,1545.655,139.105Zm31.915-13.373c.4-.433.744-.839,1.122-1.212a.5.5,0,0,0,.074-.723c-.466-.776-.915-1.562-1.36-2.35-.781-1.382-.777-1.384-2.3-.971a.447.447,0,0,1-.046.013c-.342.056-.417.2-.225.515.531.887,1.034,1.792,1.551,2.688C1576.769,124.36,1577.159,125.026,1577.57,125.733Zm-15.311,14.725c-.248.142-.522.314-.808.46-.224.114-.251.227-.12.45q.873,1.479,1.711,2.979c.122.218.235.262.454.127q.7-.433,1.421-.829c.236-.13.248-.242.066-.436-.795-.847-1.58-1.7-2.37-2.555C1562.526,140.562,1562.452,140.444,1562.259,140.458Z" transform="translate(-1544.203 -106.84)" fill="#030303"/>
      <path id="Trazado_628330" data-name="Trazado 628330" d="M1684.657,107.325a16.309,16.309,0,0,1-.495,4.139,2.4,2.4,0,0,1-2.9,1.777,2.37,2.37,0,0,1-1.692-2.9,10.419,10.419,0,0,0-3.262-10.65,9.926,9.926,0,0,0-4.1-2.207,2.368,2.368,0,0,1,0-4.588,2.3,2.3,0,0,1,1.2,0,15.257,15.257,0,0,1,11.067,12.358A16.112,16.112,0,0,1,1684.657,107.325Zm-1.46.308a13.782,13.782,0,0,0-9.951-13.258c-.662-.189-1.156.005-1.319.52a.941.941,0,0,0,.784,1.223,11.968,11.968,0,0,1,8.3,14.435c-.163.656.072,1.123.619,1.271.526.142.986-.182,1.145-.831A14.081,14.081,0,0,0,1683.2,107.633Z" transform="translate(-1634.894 -92.818)" fill="#030303"/>
      <path id="Trazado_628331" data-name="Trazado 628331" d="M1591.068,223.094a.923.923,0,0,0,.1-1.266c-.48-.786-.914-1.6-1.39-2.388-.164-.271-.137-.393.148-.547q1.172-.634,2.309-1.332c.3-.186.416-.112.578.173,1.448,2.542,2.919,5.07,4.366,7.611a2.116,2.116,0,0,0,1.48,1.066c.591.127,1.178.275,1.871.439-.855.5-1.618.94-2.381,1.385-.656.383-1.316.759-1.964,1.156a.482.482,0,0,1-.789-.2c-.765-1.35-1.552-2.687-2.319-4.035a.837.837,0,0,0-1.116-.479Z" transform="translate(-1576.876 -182.376)" fill="#625d65"/>
      <path id="Trazado_628332" data-name="Trazado 628332" d="M1672.433,120.895c.712-.016.881.1,1.051.779a8.774,8.774,0,0,1,0,4.321,2.418,2.418,0,0,1-2.82,1.79,2.324,2.324,0,0,1-1.784-2.841,4.043,4.043,0,0,0-2.809-4.928,2.328,2.328,0,0,1-1.589-2.994,2.4,2.4,0,0,1,3-1.523,8.579,8.579,0,0,1,3.986,2.473c.454.5.469.731.075,1.269a.869.869,0,0,1-1.153-.28,6.885,6.885,0,0,0-3.383-2.074.905.905,0,0,0-.579,1.715c.133.057.272.1.41.148a5.355,5.355,0,0,1,3.575,5.828,6.768,6.768,0,0,0-.13.909.878.878,0,0,0,1.312.772.949.949,0,0,0,.469-.643,6.93,6.93,0,0,0-.016-3.6A.864.864,0,0,1,1672.433,120.895Z" transform="translate(-1630.542 -109.039)" fill="#030303"/>
      <path id="Trazado_628333" data-name="Trazado 628333" d="M1676.172,124.6a.864.864,0,0,0-.381,1.124,6.928,6.928,0,0,1,.016,3.6.949.949,0,0,1-.469.643.878.878,0,0,1-1.312-.772,6.729,6.729,0,0,1,.13-.909,5.355,5.355,0,0,0-3.575-5.828c-.137-.047-.276-.091-.41-.148a.905.905,0,0,1,.579-1.715,6.885,6.885,0,0,1,3.383,2.074.869.869,0,0,0,1.153.28A6.564,6.564,0,0,1,1676.172,124.6Z" transform="translate(-1634.281 -112.749)" fill="#e3e8f3"/>
      <path id="Trazado_628334" data-name="Trazado 628334" d="M1635.812,136.7q-3.534-6.156-7.078-12.308c-1.12-1.946-2.234-3.895-3.363-5.836a1.87,1.87,0,1,0-3.26,1.829c.809,1.436,1.639,2.861,2.461,4.289q3.977,6.913,7.955,13.826a1.67,1.67,0,0,0,.982.943,1.446,1.446,0,0,0,1.253.14A1.882,1.882,0,0,0,1635.812,136.7Z" transform="translate(-1599.978 -110.565)" fill="#ed8688"/>
      <path id="Trazado_628335" data-name="Trazado 628335" d="M1570.691,176.137q-1.363-2.375-2.731-4.747c-.886-1.54-1.767-3.083-2.659-4.62a.928.928,0,0,0-1.46-.394c-.238.133-.464.287-.7.431q-3.168,1.821-6.335,3.643c-.761.439-.87.867-.427,1.636q2.114,3.672,4.231,7.341c.444.766.84,1.561,1.354,2.286a.89.89,0,0,0,1.3.119q3.5-2.024,7-4.057C1571.028,177.334,1571.135,176.912,1570.691,176.137Z" transform="translate(-1552.768 -145.525)" fill="#ed8688"/>
      <path id="Trazado_628336" data-name="Trazado 628336" d="M1602.02,135.624l-.956,1.875a20.576,20.576,0,0,1-6.476,6.914c-.213.139-.176.247-.07.423.284.47.553.949.827,1.425,1.24,2.156,2.486,4.31,3.712,6.474.166.293.3.345.589.179a9.32,9.32,0,0,1,.961-.456,20.9,20.9,0,0,1,7.971-1.656l2.237.11Z" transform="translate(-1580.295 -123.575)" fill="#f7f9fa"/>
      <path id="Trazado_628337" data-name="Trazado 628337" d="M1549.361,200.068a3.17,3.17,0,0,1,1.808-2.837c.188-.1.286-.063.387.113q1.372,2.4,2.755,4.788c.091.158.088.242-.077.345a3.058,3.058,0,0,1-3.213.247A3.008,3.008,0,0,1,1549.361,200.068Z" transform="translate(-1547.909 -167.803)" fill="#625d65"/>
      <path id="Trazado_628338" data-name="Trazado 628338" d="M1655.493,145.908c-.411-.707-.8-1.372-1.186-2.04-.517-.9-1.02-1.8-1.551-2.688-.192-.32-.117-.46.225-.515a.457.457,0,0,0,.047-.013c1.524-.413,1.521-.411,2.3.971.445.788.894,1.574,1.359,2.35a.5.5,0,0,1-.074.723C1656.237,145.068,1655.891,145.475,1655.493,145.908Z" transform="translate(-1622.127 -127.015)" fill="#625d65"/>
      <path id="Trazado_628339" data-name="Trazado 628339" d="M1605.777,212.25c.193-.014.268.1.353.2.791.851,1.576,1.708,2.37,2.555.182.194.17.306-.066.436q-.721.4-1.421.829c-.219.135-.331.091-.454-.127q-.842-1.5-1.711-2.979c-.131-.222-.1-.336.12-.45C1605.255,212.564,1605.529,212.393,1605.777,212.25Z" transform="translate(-1587.721 -178.632)" fill="#625d65"/>
      <path id="Trazado_628340" data-name="Trazado 628340" d="M1686.912,111.425a14.081,14.081,0,0,1-.42,3.361c-.158.649-.618.973-1.145.831-.547-.148-.782-.615-.619-1.271a11.967,11.967,0,0,0-8.3-14.435.94.94,0,0,1-.784-1.223c.163-.514.657-.709,1.319-.52A13.782,13.782,0,0,1,1686.912,111.425Z" transform="translate(-1638.609 -96.61)" fill="#e3e8f3"/>
    </g>
  </g>
</svg>
