<svg xmlns="http://www.w3.org/2000/svg" width="88.215" height="88.215" viewBox="0 0 88.215 88.215">
  <g id="Grupo_954190" data-name="Grupo 954190" transform="translate(3549.607 9748)">
    <g id="Grupo_952199" data-name="Grupo 952199" transform="translate(-3852.607 -13677)">
      <g id="Grupo_951854" data-name="Grupo 951854" transform="translate(303 3929)">
        <path id="Trazado_621807" data-name="Trazado 621807" d="M44.107,0A44.107,44.107,0,1,1,0,44.107,44.107,44.107,0,0,1,44.107,0Z" fill="#449c6e"/>
      </g>
    </g>
    <g id="Grupo_954186" data-name="Grupo 954186" transform="translate(-3793.473 -10352.895)">
      <path id="Trazado_629748" data-name="Trazado 629748" d="M287.971,681.143q-20.981,0-41.963,0a5.735,5.735,0,0,1-1.2-.094,1.137,1.137,0,0,1-.946-1.254,1.177,1.177,0,0,1,1.041-1.187.535.535,0,0,0,.085-.013c.472-.165,1.147.258,1.418-.252.2-.382.048-.955.049-1.443,0-2.05.365-2.514,2.4-2.927.359-.073.309-.259.292-.481a6.6,6.6,0,0,1,1.793-5.2,1.159,1.159,0,0,0,.278-.866q-.006-13.176.007-26.352c0-.518-.116-.7-.664-.684-1.464.039-2.929.027-4.394.009-1.749-.022-2.522-1.327-1.6-2.795q5.187-8.264,10.432-16.492a3.243,3.243,0,0,1,3.019-1.453c8.588.02,17.176,0,25.764.026a1.62,1.62,0,0,0,1.512-.722,12.348,12.348,0,0,1,1.151-1.393,1.987,1.987,0,0,1,3.035,0,.632.632,0,0,1,.112.131c.938,1.793,2.463,2.039,4.357,2.014,7.926-.1,15.854-.019,23.781-.062a3.764,3.764,0,0,1,3.533,1.958c3.239,5.207,6.538,10.376,9.814,15.56.122.194.253.384.36.586a1.672,1.672,0,0,1-1.513,2.638q-2.282.054-4.566,0c-.549-.013-.665.167-.664.684q.021,18.386,0,36.772c0,.57.156.735.724.723,1.694-.036,3.389-.011,5.084-.013a1.391,1.391,0,0,1,1.472.815,1.215,1.215,0,0,1-.85,1.674,5.241,5.241,0,0,1-1.2.1Q308.953,681.146,287.971,681.143Zm-37.405-43.357,17.815.027a2.817,2.817,0,0,0,2.764-2.081c-2.646,0-5.285,0-7.924,0q-5.9.012-11.79.035-1.074-.018-2.148-.035c-.23,0-.461-.017-.608.221-.355.574-.715,1.145-1.145,1.832Zm1.553,38.786c-.829-.008-1.659,0-2.487-.029-.435-.014-.642.134-.605.59a6.826,6.826,0,0,1,0,.857c-.021.444.2.625.622.606a18.144,18.144,0,0,0,2.481-.069c.343.02.685.058,1.028.058q9,.006,18,0c1.4,0,1.254.29,1.292-1.364.012-.538-.182-.681-.7-.679Q261.935,676.572,252.119,676.571Zm2.243-45.456-2.141-.035c-.23,0-.461-.012-.607.222-.357.57-.716,1.139-1.144,1.819H253.5l19.529.023a.745.745,0,0,0,.693-.232c.452-.578.931-1.134,1.51-1.832h-1q-4.517,0-9.034,0Q259.781,631.092,254.362,631.116Zm2.067-2.646,20.487.023c.227,0,.454.027.626-.188.472-.591.954-1.173,1.525-1.875h-3.342c-2.066,0-4.132.017-6.2-.008a1.282,1.282,0,0,1-1.267-1.919,1.51,1.51,0,0,1,1.485-.664c3.444.006,6.889-.063,10.329.037,1.284.037,1.781-.669,2.363-1.619-6.327,0-12.553,0-18.779,0-1.2,0-2.408.026-3.612.04-.516-.013-1.031-.037-1.547-.039-1.321-.005-1.62.234-1.98,1.558h2.84c1.2.008,2.4.011,3.6.026,1.029.012,1.594.457,1.616,1.257.023.843-.551,1.319-1.624,1.328-1.83.015-3.66.022-5.491.032q-1.154-.015-2.309-.031c-.232,0-.459,0-.6.227-.357.57-.716,1.139-1.141,1.815Zm29.142,50.056,7.135.052c.569,0,.806-.247.77-.845-.048-.8-.012-1.6-.012-2.407q0-8,0-15.994c0-.41.133-.873-.588-.862-2.437.038-4.874.031-7.311.042-.745-.012-1.493.012-2.234-.046-.668-.053-.883.157-.878.854.032,4.415.016,8.829.016,13.244,0,1.749.019,3.5-.011,5.246-.01.6.2.835.8.791A19.391,19.391,0,0,0,285.57,678.526Zm-28.832-12.387a5.308,5.308,0,0,1,2.988,1.187,3.373,3.373,0,0,0,3.078.944.256.256,0,0,1,.086.006.8.8,0,0,0,.86-.378,6.581,6.581,0,0,1,8.05-2.178c.448.185.642.264.641-.358q-.022-10.8,0-21.6c0-.451-.137-.6-.589-.589-.918.028-1.837.018-2.755.006-1.768-.024-2.381-.914-1.784-2.572l.088-.148-.119-.019-10.5,0c-.631-.013-1.267.022-1.891-.05-.829-.095-1.1.126-1.1,1.041.043,8.009.025,16.019.025,24.028,0,.172.01.345,0,.517-.025.358.108.441.457.34A6.128,6.128,0,0,1,256.738,666.139ZM278.154,678.5c.17.018.34.048.51.051,1.23.02,1.23.018,1.23-1.2q0-9.432,0-18.863a2.312,2.312,0,0,1,2.6-2.585q5.343-.007,10.687,0c2.06,0,2.857.794,2.857,2.85,0,6.288.018,12.575-.021,18.863-.005.82.245,1,1,.958a24.16,24.16,0,0,1,3.014,0c.7.045.911-.138.9-.875-.037-4.737-.021-9.474-.018-14.212,0-1.211.249-1.545,1.341-1.857.95.2,1.26.815,1.255,1.749-.023,4.764,0,9.529-.027,14.294,0,.71.176.906.9.9q8.357-.047,16.714,0c.808.006,1.048-.158,1.046-1.014q-.049-17.609-.022-35.218c0-1.929,0-1.929-1.962-1.942-1.233-.008-1.483-.2-1.814-1.368a1.625,1.625,0,0,1,1.808-1.228c2.381.027,4.762.009,7.143.009h1.108a11.434,11.434,0,0,1-.644-1.092,1.678,1.678,0,0,0-1.827-1.011c-6.77.04-13.541.02-20.311.027a1.781,1.781,0,0,0-.966.106,14.081,14.081,0,0,1,.946,1.166,1.761,1.761,0,0,0,1.722.823c1.892-.057,3.786,0,5.68-.027a1.62,1.62,0,0,1,1.806,1.229c-.332,1.171-.582,1.362-1.816,1.366-1.473,0-2.946,0-4.454,0,.723,1.86.093,2.762-1.842,2.775-.8.006-1.612.048-2.411-.013-.671-.051-.8.2-.8.823.028,4.162,0,8.325.024,12.487a1.464,1.464,0,0,1-1.246,1.674c-1.071-.289-1.346-.632-1.349-1.757-.006-3.211,0-6.423,0-9.634,0-1.519.347-3.167-.132-4.52-.467-1.321-1.778-2.346-2.731-3.491q-4.344-5.218-8.7-10.427c-.262-.337-.55-.657-.78-1.014-.4-.626-.674-.685-1.207-.034q-5.911,7.219-11.907,14.369a1.9,1.9,0,0,0-.454,1.321q.018,17.332.009,34.664c0,.143.012.288,0,.43-.035.359.094.522.48.507C276.381,678.525,277.268,678.519,278.154,678.5Zm-7.376-37.984c1.241.069,2.159.216,3-.826,4.238-5.238,8.571-10.4,12.866-15.592.869-1.051,1.737-1.094,2.573-.085,4.3,5.189,8.607,10.37,12.877,15.583a2.125,2.125,0,0,0,2.175.973c.236-.044.573.137.685-.161.084-.223-.2-.382-.344-.552q-8.077-9.73-16.147-19.466c-.392-.475-.549-.547-.982-.021-4.066,4.935-8.167,9.842-12.254,14.76C273.785,636.87,272.349,638.616,270.778,640.517Zm-4.6,33.44c1.863,0,3.726-.018,5.588.011.535.009.692-.165.675-.687-.034-1.116-.028-2.234,0-3.35a1.262,1.262,0,0,0-.423-.976,4.08,4.08,0,0,0-6.545,1.023c-.652,1.213-.912,1.324-2.247.962a2.579,2.579,0,0,0-3.345,2.263c-.033.533.113.775.709.764C262.453,673.936,264.316,673.957,266.179,673.957Zm56.366-45.464c-.373-.589-.677-1-.91-1.458a1.056,1.056,0,0,0-1.09-.618q-11.5.027-23.01.018c-.176,0-.4-.114-.544.155a7.446,7.446,0,0,1,.692.864,2.212,2.212,0,0,0,2.211,1.065c7.181-.047,14.363-.026,21.545-.026Zm-21.826,2.588a13.7,13.7,0,0,1,.867,1.083,2.143,2.143,0,0,0,2.069,1.006c6.92-.047,13.84-.026,20.76-.026h.939c-.06-.451-.358-.674-.485-.981a1.767,1.767,0,0,0-1.942-1.109c-7.035.049-14.07.026-21.105.026Zm18.922-7.239c-.626-.73-.688-1.615-1.812-1.609-7.887.044-15.775.022-23.663.03-.2,0-.455-.119-.585.085.522,1.257,1.454,1.534,2.741,1.523,7.4-.06,14.8-.029,22.2-.029Zm-65.153,50.12v.006c.688,0,1.377-.025,2.064.008.524.025.781-.092.76-.7a4.422,4.422,0,0,1,1.022-2.945c.432-.538.268-.765-.219-1.038a4.085,4.085,0,0,0-4.326-.011,3.985,3.985,0,0,0-2.061,3.624c0,.771.155,1.187,1.042,1.069A13.205,13.205,0,0,1,254.489,673.962Z" transform="translate(0 0)" fill="#030303"/>
      <path id="Trazado_629749" data-name="Trazado 629749" d="M413,700.182a1.464,1.464,0,0,0,1.245-1.674c-.021-4.162,0-8.325-.024-12.487,0-.627.128-.875.8-.824.8.062,1.607.019,2.411.014,1.935-.013,2.565-.914,1.842-2.775,1.508,0,2.981,0,4.454,0,1.234,0,1.484-.195,1.816-1.366l3.534,0c.331,1.172.581,1.36,1.814,1.368,1.962.013,1.962.013,1.962,1.942q0,17.609.022,35.218c0,.856-.238,1.02-1.046,1.014q-8.357-.056-16.714,0c-.721,0-.9-.193-.9-.9.032-4.764,0-9.529.027-14.294,0-.934-.305-1.547-1.255-1.749Q412.991,701.923,413,700.182Zm5.749-3.175c0,2.064-.011,4.128,0,6.192a2.233,2.233,0,0,0,2.476,2.506c1.52.01,3.041.016,4.561,0a2.134,2.134,0,0,0,2.312-2.226q.052-6.406,0-12.813a2.159,2.159,0,0,0-2.334-2.216c-1.463-.014-2.926-.006-4.388,0a2.3,2.3,0,0,0-2.627,2.629C418.738,693.052,418.744,695.03,418.744,697.008Z" transform="translate(-110.726 -42.036)" fill="#f5d4b5"/>
      <path id="Trazado_629750" data-name="Trazado 629750" d="M367.237,679.864q0,1.74-.008,3.481c-1.092.312-1.341.646-1.341,1.857,0,4.737-.019,9.475.018,14.212.006.737-.2.92-.9.875a24.125,24.125,0,0,0-3.014,0c-.753.046-1-.138-1-.958.039-6.287.022-12.575.021-18.863,0-2.056-.8-2.85-2.857-2.85q-5.344,0-10.687,0a2.312,2.312,0,0,0-2.6,2.585q-.007,9.432,0,18.863c0,1.222,0,1.224-1.23,1.2-.17,0-.34-.033-.51-.051q-.008-18.126-.026-36.252a1.666,1.666,0,0,1,.415-1.093c.9-1.111,1.82-2.2,2.731-3.3,1.841-2.222,3.655-4.467,5.532-6.657a18.776,18.776,0,0,1,2.55-2.88q4.35,5.213,8.7,10.427c.953,1.145,2.264,2.17,2.731,3.491.478,1.354.129,3,.132,4.52,0,3.211,0,6.423,0,9.634C365.891,679.232,366.166,679.575,367.237,679.864Zm-14.316-10.312c1.148,0,2.3.012,3.444,0a1.955,1.955,0,0,0,2.217-2.22c.02-1.434.023-2.869,0-4.3a5.335,5.335,0,0,0-1.279-3.557c-1.392-1.594-3.207-1.847-5.168-1.71a4.948,4.948,0,0,0-4.758,4.469,37.686,37.686,0,0,0-.064,5.414c.033,1.256.787,1.879,2.079,1.9C350.567,669.57,351.744,669.552,352.921,669.552Z" transform="translate(-64.968 -21.718)" fill="#fdfdfd"/>
      <path id="Trazado_629751" data-name="Trazado 629751" d="M291.719,685.3c-.6,1.659.017,2.548,1.784,2.572.918.012,1.838.022,2.755-.006.452-.014.59.138.589.589q-.018,10.8,0,21.6c0,.623-.193.544-.641.358a6.581,6.581,0,0,0-8.05,2.178.794.794,0,0,1-.86.378.253.253,0,0,0-.086-.006,3.374,3.374,0,0,1-3.078-.944,5.307,5.307,0,0,0-2.988-1.187c.011-.4.032-.8.032-1.2q.005-12.249.006-24.5l10.5-.005A.327.327,0,0,0,291.719,685.3Zm.608,14.442c0-2.064.016-4.128-.005-6.192a2.237,2.237,0,0,0-2.466-2.442q-2.237-.011-4.474,0a2.2,2.2,0,0,0-2.411,2.317q-.042,6.321,0,12.642a2.172,2.172,0,0,0,2.417,2.3c1.434.012,2.868.006,4.3,0,1.8-.006,2.629-.816,2.637-2.608C292.334,703.751,292.327,701.744,292.327,699.737Z" transform="translate(-24.41 -44.694)" fill="#f5d4b5"/>
      <path id="Trazado_629752" data-name="Trazado 629752" d="M364.582,737.407c2.437-.01,4.875,0,7.311-.042.721-.011.588.451.588.862q0,8,0,15.994c0,.8-.036,1.607.012,2.407.036.6-.2.849-.77.845l-7.135-.052q-.007-4.084-.013-8.167a6.479,6.479,0,0,0-.017-4.281Z" transform="translate(-79.02 -78.894)" fill="#72553b"/>
      <path id="Trazado_629753" data-name="Trazado 629753" d="M348.409,647.169a18.778,18.778,0,0,0-2.55,2.88c-1.877,2.191-3.691,4.435-5.532,6.657-.911,1.1-1.832,2.193-2.731,3.3a1.666,1.666,0,0,0-.415,1.093q.028,18.126.026,36.252c-.886.018-1.773.023-2.658.058-.386.016-.515-.148-.48-.507.014-.142,0-.287,0-.43q0-17.333-.009-34.664a1.9,1.9,0,0,1,.454-1.321q5.977-7.166,11.907-14.369c.533-.651.8-.592,1.207.034C347.859,646.512,348.147,646.832,348.409,647.169Z" transform="translate(-59.052 -18.853)" fill="#e4e4e4"/>
      <path id="Trazado_629754" data-name="Trazado 629754" d="M281.284,636.687c1.83-.01,3.661-.017,5.491-.032,1.073-.009,1.647-.485,1.624-1.328-.022-.8-.587-1.245-1.616-1.257-1.2-.014-2.4-.018-3.6-.026.055-.585.565-.964.687-1.519,1.2-.014,2.408-.039,3.612-.04,6.226,0,12.451,0,18.779,0-.582.95-1.079,1.656-2.363,1.619-3.44-.1-6.886-.031-10.329-.037a1.51,1.51,0,0,0-1.485.664,1.282,1.282,0,0,0,1.267,1.919c2.066.025,4.132.007,6.2.008h3.342c-.572.7-1.054,1.284-1.525,1.875-.172.215-.4.189-.626.189l-20.487-.023C280.374,637.913,281.041,637.409,281.284,636.687Z" transform="translate(-23.821 -10.227)" fill="#bea080"/>
      <path id="Trazado_629755" data-name="Trazado 629755" d="M321.808,646.477c1.571-1.9,3.007-3.647,4.452-5.386,4.087-4.918,8.188-9.825,12.254-14.76.433-.525.589-.453.982.021q8.055,9.747,16.147,19.466c.142.17.428.329.344.552-.112.3-.449.117-.685.161a2.125,2.125,0,0,1-2.175-.973c-4.27-5.212-8.578-10.394-12.877-15.583-.836-1.009-1.7-.966-2.573.085-4.294,5.193-8.628,10.354-12.866,15.592C323.967,646.693,323.049,646.546,321.808,646.477Z" transform="translate(-51.03 -5.96)" fill="#72553b"/>
      <path id="Trazado_629756" data-name="Trazado 629756" d="M275.591,685.009q0,12.249-.006,24.5c0,.4-.021.8-.032,1.2a6.129,6.129,0,0,0-2.471.176c-.348.1-.481.018-.456-.341.012-.171,0-.344,0-.517,0-8.009.018-16.019-.025-24.028-.005-.915.269-1.136,1.1-1.041C274.324,685.031,274.96,685,275.591,685.009Z" transform="translate(-18.814 -44.571)" fill="#debfa4"/>
      <path id="Trazado_629757" data-name="Trazado 629757" d="M296.54,770.418c-1.863,0-3.726-.021-5.588.012-.6.01-.742-.231-.709-.764a2.579,2.579,0,0,1,3.345-2.263c1.335.362,1.595.25,2.247-.962a4.08,4.08,0,0,1,6.545-1.024,1.262,1.262,0,0,1,.423.976c-.027,1.116-.033,2.234,0,3.35.016.521-.141.695-.675.686C300.266,770.4,298.4,770.418,296.54,770.418Z" transform="translate(-30.361 -96.461)" fill="#77be57"/>
      <path id="Trazado_629758" data-name="Trazado 629758" d="M433.623,674.769l-3.534,0a1.62,1.62,0,0,0-1.806-1.229c-1.893.029-3.788-.03-5.68.027a1.761,1.761,0,0,1-1.722-.823,14.075,14.075,0,0,0-.946-1.166,1.78,1.78,0,0,1,.966-.106c6.77-.006,13.54.013,20.311-.027a1.678,1.678,0,0,1,1.827,1.011,11.42,11.42,0,0,0,.644,1.093h-1.108c-2.381,0-4.762.018-7.143-.009A1.625,1.625,0,0,0,433.623,674.769Z" transform="translate(-115.275 -35.737)" fill="#bea080"/>
      <path id="Trazado_629759" data-name="Trazado 629759" d="M358.725,737.384q-.011,3.783-.023,7.565c-1.341-.789-2.273-.3-2.359,1.259-.033.6-.018,1.2,0,1.794a1.637,1.637,0,0,0,.824,1.574c.629.336,1.086-.011,1.556-.345l.014,8.167a19.585,19.585,0,0,1-2.315.074c-.6.045-.809-.187-.8-.791.03-1.748.011-3.5.011-5.246,0-4.415.016-8.829-.016-13.244,0-.7.21-.907.878-.854C357.232,737.4,357.98,737.372,358.725,737.384Z" transform="translate(-73.162 -78.871)" fill="#624932"/>
      <path id="Trazado_629760" data-name="Trazado 629760" d="M423.278,646.6h-1.106c-7.182,0-14.363-.022-21.545.026a2.212,2.212,0,0,1-2.211-1.065,7.443,7.443,0,0,0-.692-.864c.14-.269.368-.155.544-.155q11.5-.01,23.01-.018a1.056,1.056,0,0,1,1.09.618C422.6,645.593,422.906,646.009,423.278,646.6Z" transform="translate(-100.733 -18.105)" fill="#bea080"/>
      <path id="Trazado_629761" data-name="Trazado 629761" d="M408.522,657.99h1.1c7.035,0,14.07.022,21.105-.026a1.767,1.767,0,0,1,1.942,1.109c.128.306.426.53.485.981h-.939c-6.92,0-13.841-.022-20.76.026a2.143,2.143,0,0,1-2.069-1.007A13.753,13.753,0,0,0,408.522,657.99Z" transform="translate(-107.803 -26.91)" fill="#bea080"/>
      <path id="Trazado_629762" data-name="Trazado 629762" d="M272.627,658.072q5.419-.018,10.839-.034,4.517-.008,9.034,0h1c-.578.7-1.058,1.254-1.51,1.832a.745.745,0,0,1-.693.232l-19.529-.023C271.839,659.318,272.619,658.861,272.627,658.072Z" transform="translate(-18.265 -26.956)" fill="#bea080"/>
      <path id="Trazado_629763" data-name="Trazado 629763" d="M267.769,789.727q9.816-.012,19.633-.032c.514,0,.709.142.7.679-.037,1.654.1,1.362-1.292,1.364q-9,.016-18,0c-.343,0-.685-.038-1.028-.058Q267.775,790.705,267.769,789.727Z" transform="translate(-15.65 -113.156)" fill="#72553b"/>
      <path id="Trazado_629764" data-name="Trazado 629764" d="M264.118,671.543q5.9-.018,11.79-.035c2.639-.005,5.278,0,7.924,0a2.817,2.817,0,0,1-2.764,2.081l-17.815-.027c-.06-.343.172-.568.328-.827C263.807,672.359,264.149,672.034,264.118,671.543Z" transform="translate(-12.687 -35.776)" fill="#bea080"/>
      <path id="Trazado_629765" data-name="Trazado 629765" d="M413.912,634.017h-1.119c-7.4,0-14.8-.031-22.2.029-1.287.011-2.218-.267-2.741-1.523.129-.2.383-.085.585-.085,7.887-.007,15.775.015,23.663-.03C413.224,632.4,413.286,633.287,413.912,634.017Z" transform="translate(-94.27 -10.175)" fill="#bea080"/>
      <path id="Trazado_629766" data-name="Trazado 629766" d="M269.4,772.192a13.2,13.2,0,0,0-1.718.014c-.886.117-1.044-.3-1.042-1.069a3.985,3.985,0,0,1,2.061-3.624,4.085,4.085,0,0,1,4.326.011c.487.274.651.5.219,1.038a4.421,4.421,0,0,0-1.022,2.945c.02.608-.236.724-.76.7-.687-.032-1.376-.008-2.064-.008Z" transform="translate(-14.91 -98.23)" fill="#457825"/>
      <path id="Trazado_629767" data-name="Trazado 629767" d="M261.9,789.731q.006.978.012,1.955a18.25,18.25,0,0,1-2.48.068c-.426.019-.643-.162-.622-.606a6.833,6.833,0,0,0,0-.857c-.036-.455.17-.6.605-.589C260.238,789.729,261.068,789.723,261.9,789.731Z" transform="translate(-9.778 -113.159)" fill="#624932"/>
      <path id="Trazado_629768" data-name="Trazado 629768" d="M275.561,644.6c-.243.722-.911,1.226-1.035,2.01h-3.018c.425-.676.784-1.245,1.141-1.815.145-.231.371-.23.6-.227Q274.407,644.584,275.561,644.6Z" transform="translate(-18.098 -18.137)" fill="#ac8f73"/>
      <path id="Trazado_629769" data-name="Trazado 629769" d="M258.381,671.544c.031.491-.311.816-.537,1.192-.156.259-.388.484-.328.827H254.48c.43-.687.79-1.258,1.145-1.832.147-.239.378-.225.608-.221Q257.307,671.525,258.381,671.544Z" transform="translate(-6.95 -35.777)" fill="#ac8f73"/>
      <path id="Trazado_629770" data-name="Trazado 629770" d="M266.885,658.073c-.008.789-.787,1.246-.864,2.005h-3.028c.427-.68.787-1.249,1.144-1.819.146-.233.376-.225.607-.222Z" transform="translate(-12.524 -26.957)" fill="#ac8f73"/>
      <path id="Trazado_629771" data-name="Trazado 629771" d="M284.038,632.533c-.122.555-.632.934-.687,1.519h-2.84c.36-1.324.659-1.563,1.98-1.558C283.007,632.5,283.523,632.519,284.038,632.533Z" transform="translate(-23.992 -10.234)" fill="#ac8f73"/>
      <path id="Trazado_629772" data-name="Trazado 629772" d="M311.7,685.3a.326.326,0,0,1-.031-.168l.119.019Z" transform="translate(-44.393 -44.694)" fill="#debfa4"/>
      <path id="Trazado_629773" data-name="Trazado 629773" d="M429.653,710.985c0-1.978-.006-3.956,0-5.934a2.3,2.3,0,0,1,2.627-2.629c1.463,0,2.926-.011,4.388,0A2.159,2.159,0,0,1,439,704.641q.055,6.406,0,12.813a2.134,2.134,0,0,1-2.312,2.226c-1.52.018-3.04.012-4.561,0a2.233,2.233,0,0,1-2.476-2.506C429.642,715.113,429.653,713.049,429.653,710.985Zm5.634-5.953c-.829-.008-1.659.006-2.487-.034-.474-.023-.569.174-.568.6q.02,5.447,0,10.893c0,.421.09.635.566.612.828-.039,1.657-.03,2.486-.041,1.153.082,1.154.082,1.154-1.079v-9.872C436.439,704.973,436.439,704.973,435.287,705.032Z" transform="translate(-121.635 -56.014)" fill="#050404"/>
      <path id="Trazado_629774" data-name="Trazado 629774" d="M360.789,684.139c-1.177,0-2.354.018-3.53,0-1.292-.025-2.046-.648-2.079-1.9a37.677,37.677,0,0,1,.064-5.414A4.948,4.948,0,0,1,360,672.347c1.962-.137,3.776.115,5.168,1.71a5.336,5.336,0,0,1,1.279,3.557c.024,1.434.021,2.869,0,4.3a1.955,1.955,0,0,1-2.217,2.22C363.085,684.151,361.937,684.14,360.789,684.139Zm-.025-2.59v.013c.831,0,1.662-.013,2.493.005.405.009.642-.061.63-.554-.03-1.2.028-2.408-.024-3.608a2.444,2.444,0,0,0-2.526-2.482c-.344-.012-.688-.013-1.032,0a2.444,2.444,0,0,0-2.547,2.466c-.057,1.2,0,2.406-.026,3.608-.012.488.214.57.625.559C359.159,681.535,359.962,681.549,360.764,681.549Z" transform="translate(-72.836 -36.305)" fill="#050404"/>
      <path id="Trazado_629775" data-name="Trazado 629775" d="M295.741,711.057c0,2.007.007,4.013,0,6.02-.008,1.791-.832,2.6-2.637,2.608-1.434,0-2.868.01-4.3,0a2.172,2.172,0,0,1-2.417-2.3q-.043-6.321,0-12.642a2.2,2.2,0,0,1,2.411-2.317q2.237-.014,4.474,0a2.237,2.237,0,0,1,2.466,2.442C295.757,706.929,295.741,708.993,295.741,711.057Zm-3.736,6.007c1.154.082,1.154.082,1.154-1.079q0-4.936,0-9.872c0-1.14,0-1.14-1.152-1.081-.829-.008-1.659.006-2.487-.034-.474-.023-.569.174-.568.6q.02,5.447,0,10.894c0,.421.09.635.566.612C290.347,717.067,291.177,717.075,292.005,717.064Z" transform="translate(-27.824 -56.014)" fill="#050404"/>
      <path id="Trazado_629776" data-name="Trazado 629776" d="M360.065,762.973c-.47.334-.927.681-1.556.345a1.637,1.637,0,0,1-.824-1.574c-.015-.6-.029-1.2,0-1.794.086-1.558,1.018-2.048,2.359-1.259A6.48,6.48,0,0,1,360.065,762.973Z" transform="translate(-74.509 -92.614)" fill="#050404"/>
      <path id="Trazado_629777" data-name="Trazado 629777" d="M440.185,721.955c-.829.011-1.658,0-2.486.041-.476.022-.567-.192-.566-.612q.018-5.447,0-10.893c0-.427.094-.624.568-.6.828.04,1.658.025,2.487.034Q440.186,715.94,440.185,721.955Z" transform="translate(-126.534 -60.905)" fill="#6eb1db"/>
      <path id="Trazado_629778" data-name="Trazado 629778" d="M445.973,721.985q0-6.016,0-12.032c1.152-.059,1.152-.059,1.152,1.081v9.872C447.127,722.067,447.126,722.067,445.973,721.985Z" transform="translate(-132.322 -60.934)" fill="#75bdeb"/>
      <path id="Trazado_629779" data-name="Trazado 629779" d="M365.728,686.475c-.8,0-1.605-.014-2.407.006-.411.01-.637-.071-.625-.559.029-1.2-.031-2.408.026-3.608a2.444,2.444,0,0,1,2.547-2.466c.344-.013.688-.012,1.032,0a2.444,2.444,0,0,1,2.526,2.482c.052,1.2-.006,2.406.024,3.608.012.494-.224.563-.63.554-.831-.018-1.662-.006-2.493-.006Z" transform="translate(-77.8 -41.231)" fill="#dbb03c"/>
      <path id="Trazado_629780" data-name="Trazado 629780" d="M296.916,721.955c-.829.011-1.658,0-2.486.041-.476.022-.567-.192-.566-.612q.017-5.447,0-10.893c0-.427.094-.624.568-.6.828.04,1.658.025,2.487.034Z" transform="translate(-32.734 -60.905)" fill="#6eb1db"/>
      <path id="Trazado_629781" data-name="Trazado 629781" d="M302.7,721.985l0-12.032c1.152-.059,1.152-.059,1.152,1.081q0,4.936,0,9.872C303.858,722.067,303.858,722.067,302.7,721.985Z" transform="translate(-38.523 -60.934)" fill="#75bdeb"/>
    </g>
  </g>
</svg>
