<svg xmlns="http://www.w3.org/2000/svg" width="88.215" height="88.215" viewBox="0 0 88.215 88.215">
  <g id="Grupo_954189" data-name="Grupo 954189" transform="translate(3864.607 9748)">
    <g id="Grupo_952198" data-name="Grupo 952198" transform="translate(-4167.607 -13677)">
      <g id="Grupo_951854" data-name="Grupo 951854" transform="translate(303 3929)">
        <path id="Trazado_621807" data-name="Trazado 621807" d="M44.107,0A44.107,44.107,0,1,1,0,44.107,44.107,44.107,0,0,1,44.107,0Z" fill="#449c6e"/>
      </g>
    </g>
    <g id="Grupo_954188" data-name="Grupo 954188" transform="translate(-4537.604 -10220.257)">
      <path id="Trazado_629796" data-name="Trazado 629796" d="M747.5,585c1.053.308,1.244.578,1.244,1.822,0,7.323.012,14.646-.015,21.969,0,.694.127.949.873.908a1.289,1.289,0,0,1,1.475,1.235c.027.76-.568,1.293-1.487,1.329-.2.008-.4,0-.6,0H683.071c-.144,0-.287,0-.431,0-1.066-.013-1.684-.5-1.663-1.321.019-.785.6-1.282,1.633-1.247.624.021.675-.235.673-.744-.017-3.906-.011-7.811-.009-11.717,0-2.033.835-2.867,2.863-2.868,2.987,0,5.974-.017,8.961.014.59.006.8-.122.764-.746-.056-.973-.033-1.953-.01-2.928a2.267,2.267,0,0,1,2.475-2.455c3.1-.016,6.2-.024,9.306.011.644.007.828-.157.813-.807-.045-1.865-.018-3.733-.016-5.6,0-1.985.846-2.838,2.8-2.839,2.987,0,5.975-.026,8.961.018.7.011.832-.215.824-.858-.033-2.9-.018-5.8-.013-8.7,0-1.88.85-2.721,2.729-2.722,3.016,0,6.032-.019,9.048.014.624.007.822-.12.816-.788-.036-3.905.029-7.812-.04-11.717a2.575,2.575,0,0,1,2.877-2.888c3.271.1,6.548.022,9.822.03a2.243,2.243,0,0,1,2.486,2.5c.006,8.644-.005,17.288.015,25.932a1.524,1.524,0,0,1-1.259,1.754c-1.077-.331-1.328-.659-1.343-1.781-.008-.545,0-1.091,0-1.636q0-11.665-.005-23.33c0-.378.209-.887-.551-.868-1.835.046-3.672.033-5.507.045-.975-.012-1.955.035-2.923-.052-.862-.078-1.022.24-1.021,1.049q.036,26.816.019,53.631a3.718,3.718,0,0,1,0,.43c-.051.438.11.615.574.6,1.118-.035,2.237-.027,3.356-.036,1.232.009,2.463.038,3.694.02.765-.011,1.767.333,2.229-.146s.132-1.47.133-2.236q.014-10.226.007-20.452C746.159,585.608,746.427,585.256,747.5,585Zm-57.74,24.651c1.832.009,3.663.008,5.495.034.423.006.606-.082.6-.559q-.026-5.8,0-11.592c0-.45-.153-.593-.6-.585-1.831.03-3.662.031-5.494.043-1.117-.013-2.234-.008-3.349-.047-.48-.017-.571.2-.57.615q.015,5.759,0,11.518c0,.421.084.627.565.61C687.529,609.648,688.647,609.658,689.764,609.648Zm12.582,0c1.78.009,3.562-.008,5.341.042.616.017.757-.179.753-.77-.027-3.7-.014-7.41-.014-11.114,0-2.1-.007-4.193.006-6.29,0-.424-.025-.7-.581-.686-1.836.043-3.674.039-5.511.053-1.116-.014-2.232-.013-3.347-.049-.484-.016-.561.222-.561.63q.011,8.806,0,17.613c0,.422.088.625.566.609C700.113,609.647,701.23,609.657,702.347,609.648Zm12.584-28.012c-1.119-.011-2.238,0-3.356-.043-.486-.017-.581.2-.564.616.024.573.006,1.148.006,1.722,0,8.238.018,16.476-.025,24.714,0,.914.267,1.115,1.1,1.047.941-.077,1.892-.035,2.839-.044,1.777.009,3.555-.007,5.331.041.6.016.765-.147.76-.754-.029-3.784-.015-7.568-.015-11.353q0-7.612,0-15.223c0-.4.084-.786-.573-.769C718.6,581.639,716.765,581.625,714.931,581.635Zm12.581,28.013c1.721.009,3.444-.029,5.162.048.789.036.924-.222.922-.95q-.036-17.128-.017-34.257c0-1.521-.013-3.041.008-4.562.006-.432-.1-.6-.57-.6-1.835.033-3.672.03-5.507.04-1-.011-2.011.034-3.008-.049-.8-.067-.93.23-.929.96q.035,16.3.016,32.606c0,2.036.015,4.073-.01,6.108-.006.509.111.717.664.692C725.332,609.638,726.423,609.657,727.512,609.648Z" transform="translate(0 -51.793)" fill="#040303"/>
      <path id="Trazado_629797" data-name="Trazado 629797" d="M859.57,589.942c-1.077.259-1.345.611-1.345,1.837q-.005,10.226-.007,20.452c0,.766.323,1.762-.133,2.236s-1.465.135-2.229.146c-1.231.018-2.463-.011-3.694-.02q0-27.811,0-55.623c1.836-.011,3.672,0,5.507-.045.76-.019.551.49.551.868q.011,11.665.005,23.33c0,.545-.006,1.091,0,1.636.015,1.122.266,1.45,1.343,1.781Q859.57,588.24,859.57,589.942Z" transform="translate(-112.067 -56.738)" fill="#ed7370"/>
      <path id="Trazado_629798" data-name="Trazado 629798" d="M830.759,494.9c-.55.975-1,1.144-2.033.769a11.681,11.681,0,0,1-8.055-9.452,12.021,12.021,0,0,1,23.595-4.563,12.184,12.184,0,0,1-8.246,14.131c-.812.228-1.291-.024-1.767-.93q0-.271-.007-.542a1.946,1.946,0,0,1,1.392-1.151,9.425,9.425,0,0,0-3.182-18.317,5.4,5.4,0,0,0-1.62.136,9.413,9.413,0,0,0-7.534,11.244,9.266,9.266,0,0,0,6.064,6.915C830.208,493.459,830.887,493.848,830.759,494.9Z" transform="translate(-91.335 0)" fill="#040403"/>
      <path id="Trazado_629799" data-name="Trazado 629799" d="M782.942,491.216c0,1.492,0,2.983,0,4.475,0,1.092-.454,1.694-1.257,1.71-.834.017-1.326-.615-1.328-1.75-.006-3.011-.019-6.023.012-9.035.007-.6-.134-.795-.747-.755a24.742,24.742,0,0,1-2.581.006,1.605,1.605,0,0,1-1.381-2.558c1.523-2.254,3.109-4.467,4.723-6.658a1.543,1.543,0,0,1,2.528-.025c1.64,2.206,3.244,4.442,4.782,6.721a1.609,1.609,0,0,1-1.379,2.518c-.917.039-1.836.035-2.753,0-.484-.018-.638.126-.628.62C782.961,488.061,782.942,489.639,782.942,491.216Zm.8-8.963-2.08-2.992-2.83,4H784.5Z" transform="translate(-61.777 -2.437)" fill="#030303"/>
      <path id="Trazado_629800" data-name="Trazado 629800" d="M839.128,499.183q0,.271.007.543a13.7,13.7,0,0,1-3.495.046c.128-1.057-.551-1.446-1.393-1.762a9.266,9.266,0,0,1-6.064-6.915,9.413,9.413,0,0,1,7.534-11.244,5.394,5.394,0,0,1,1.62-.136,11.088,11.088,0,0,0-2.637,2.177,10.427,10.427,0,0,0-2.614,9.352,10.22,10.22,0,0,0,2.728,5.262A8.649,8.649,0,0,0,839.128,499.183Z" transform="translate(-96.216 -4.866)" fill="#e8b451"/>
      <path id="Trazado_629801" data-name="Trazado 629801" d="M815.728,603.415c1.836-.01,3.672-.007,5.507-.04.469-.009.576.164.57.6-.021,1.521-.008,3.041-.008,4.562q0,17.128.017,34.257c0,.729-.133.986-.922.95-1.718-.077-3.441-.039-5.162-.048Q815.728,623.554,815.728,603.415Z" transform="translate(-88.217 -85.838)" fill="#f19e6c"/>
      <path id="Trazado_629802" data-name="Trazado 629802" d="M844.682,558.936q0,27.811,0,55.622c-1.119.009-2.238,0-3.356.036-.464.015-.625-.162-.574-.6a3.718,3.718,0,0,0,0-.43q0-26.816-.019-53.631c0-.809.159-1.127,1.021-1.049C842.727,558.971,843.707,558.924,844.682,558.936Z" transform="translate(-104.59 -56.703)" fill="#d95b57"/>
      <path id="Trazado_629803" data-name="Trazado 629803" d="M779.294,638.921c1.834-.01,3.669,0,5.5-.045.656-.017.573.367.573.769q0,7.612,0,15.223c0,3.785-.014,7.569.015,11.353,0,.607-.161.769-.76.754-1.776-.048-3.554-.032-5.331-.041Q779.293,652.927,779.294,638.921Z" transform="translate(-64.363 -109.079)" fill="#f5ca6b"/>
      <path id="Trazado_629804" data-name="Trazado 629804" d="M808.266,603.381q0,20.138,0,40.277c-1.089.009-2.18-.01-3.268.04-.553.025-.67-.182-.664-.692.025-2.036.01-4.072.01-6.108q0-16.3-.016-32.606c0-.73.133-1.027.929-.96C806.254,603.415,807.262,603.37,808.266,603.381Z" transform="translate(-80.754 -85.803)" fill="#e47843"/>
      <path id="Trazado_629805" data-name="Trazado 629805" d="M742.84,665.682c1.837-.014,3.674-.01,5.511-.053.556-.014.584.262.581.686-.012,2.1-.005,4.193-.005,6.29,0,3.7-.013,7.41.013,11.114,0,.591-.138.787-.753.77-1.779-.049-3.561-.032-5.341-.041Z" transform="translate(-40.5 -126.593)" fill="#adde66"/>
      <path id="Trazado_629806" data-name="Trazado 629806" d="M771.83,638.924q0,14.006,0,28.013c-.947.009-1.9-.033-2.839.044-.832.068-1.1-.133-1.1-1.047.043-8.238.025-16.476.025-24.714,0-.574.018-1.149-.006-1.722-.017-.417.078-.633.564-.616C769.592,638.921,770.712,638.913,771.83,638.924Z" transform="translate(-56.899 -109.082)" fill="#e5b250"/>
      <path id="Trazado_629807" data-name="Trazado 629807" d="M706.428,683.386c1.831-.012,3.663-.013,5.494-.044.444-.007.6.135.6.585q-.019,5.8,0,11.592c0,.477-.18.565-.6.559-1.831-.027-3.663-.026-5.495-.034Q706.426,689.715,706.428,683.386Z" transform="translate(-16.659 -138.189)" fill="#659ff7"/>
      <path id="Trazado_629808" data-name="Trazado 629808" d="M735.429,665.69l.006,18.765c-1.117.01-2.234,0-3.349.037-.478.016-.567-.187-.566-.609q.014-8.807,0-17.613c0-.408.076-.646.561-.63C733.2,665.677,734.313,665.676,735.429,665.69Z" transform="translate(-33.089 -126.6)" fill="#97c652"/>
      <path id="Trazado_629809" data-name="Trazado 629809" d="M699.005,683.378q0,6.329,0,12.659c-1.117.009-2.235,0-3.351.038-.48.017-.566-.19-.565-.61q.017-5.759,0-11.518c0-.419.09-.632.57-.615C696.772,683.37,697.889,683.364,699.005,683.378Z" transform="translate(-9.236 -138.181)" fill="#488ae1"/>
      <path id="Trazado_629810" data-name="Trazado 629810" d="M846.582,499.23a8.649,8.649,0,0,1-4.312-2.677,10.22,10.22,0,0,1-2.728-5.262,10.428,10.428,0,0,1,2.614-9.352,11.088,11.088,0,0,1,2.637-2.177,9.427,9.427,0,0,1,3.182,18.317A1.946,1.946,0,0,0,846.582,499.23Zm-2.161-7.3a2.71,2.71,0,0,1-1.352-.609c-.474-.312-.957-.467-1.362.07a1.081,1.081,0,0,0,.116,1.608,3.432,3.432,0,0,0,1.918.88c.324.044.609.038.771.495a.464.464,0,0,0,.9.017c.154-.51.472-.569.838-.688a2.766,2.766,0,0,0,1.994-2.615c.09-1.63-.905-2.431-2.225-3.009a1.944,1.944,0,0,1-.489-2.015c.323-.429.725-.039,1.052.1.573.249,1.015.184,1.28-.409a.9.9,0,0,0-.478-1.349,5.783,5.783,0,0,0-1.14-.352c-.354-.07-.666-.012-.848-.507a.458.458,0,0,0-.865.02c-.151.517-.484.544-.856.655a2.541,2.541,0,0,0-1.976,2.141,2.216,2.216,0,0,0,1.362,2.68c1.367.468,1.56,1.36,1.383,2.555C844.434,491.682,844.433,491.768,844.421,491.926Z" transform="translate(-103.671 -4.913)" fill="#f3c86a"/>
      <path id="Trazado_629811" data-name="Trazado 629811" d="M789.53,489.483h-4.074l2.83-4,2.08,2.992C789.827,488.595,789.693,489.051,789.53,489.483Z" transform="translate(-68.399 -8.658)" fill="#e5b250"/>
      <path id="Trazado_629812" data-name="Trazado 629812" d="M797.252,495.154c.164-.432.3-.888.836-1.009l.754,1.009Z" transform="translate(-76.121 -14.329)" fill="#f3c86a"/>
      <path id="Trazado_629813" data-name="Trazado 629813" d="M848.346,498.535c.012-.157.013-.244.026-.328.177-1.2-.016-2.087-1.383-2.555a2.216,2.216,0,0,1-1.362-2.68,2.541,2.541,0,0,1,1.976-2.141c.372-.111.7-.138.856-.655a.458.458,0,0,1,.865-.02c.181.5.494.437.847.507a5.782,5.782,0,0,1,1.14.352.9.9,0,0,1,.478,1.349c-.265.593-.707.657-1.28.409-.327-.142-.729-.532-1.052-.1a1.944,1.944,0,0,0,.489,2.015c1.32.578,2.315,1.379,2.225,3.009a2.765,2.765,0,0,1-1.994,2.615c-.366.119-.684.178-.838.688a.464.464,0,0,1-.9-.017c-.162-.457-.447-.451-.771-.495a3.431,3.431,0,0,1-1.918-.88,1.081,1.081,0,0,1-.116-1.608c.405-.537.889-.382,1.362-.07A2.71,2.71,0,0,0,848.346,498.535Zm.976-1.709v1.715c.507-.1.784-.335.8-.809C850.129,497.217,849.8,496.994,849.323,496.826Zm-.792-2.785c0-.356.009-.69,0-1.022-.006-.155.082-.366-.124-.447s-.386.063-.531.2C847.4,493.206,847.63,493.689,848.531,494.041Z" transform="translate(-107.596 -11.522)" fill="#040303"/>
      <path id="Trazado_629814" data-name="Trazado 629814" d="M856.892,510.035c.481.169.807.391.8.906-.011.474-.288.713-.8.809Z" transform="translate(-115.165 -24.732)" fill="#e5b250"/>
      <path id="Trazado_629815" data-name="Trazado 629815" d="M852.9,499.139c-.9-.352-1.132-.835-.658-1.272.145-.134.317-.282.531-.2s.117.291.124.447C852.9,498.45,852.9,498.783,852.9,499.139Z" transform="translate(-111.961 -16.621)" fill="#e8b451"/>
    </g>
  </g>
</svg>
