<svg xmlns="http://www.w3.org/2000/svg" width="60" height="60" viewBox="0 0 60 60">
  <g id="Grupo_951882" data-name="Grupo 951882" transform="translate(-410 -1150)">
    <rect id="Rectángulo_305522" data-name="Rectángulo 305522" width="60" height="60" transform="translate(410 1150)" fill="none"/>
    <g id="Grupo_951886" data-name="Grupo 951886" transform="translate(416.586 1156.597)">
      <path id="Trazado_628296" data-name="Trazado 628296" d="M1541.047,352.952c-.661,0-1.322.012-1.982-.006-.26-.007-.342.079-.38.334a7.53,7.53,0,1,1-.09-2.713c.186.874.186.874,1.1.874,1.085,0,2.171-.008,3.256.006.276,0,.416-.037.438-.364a12.887,12.887,0,0,1,1.972-6.02c.134-.214.145-.316-.113-.451q-3.731-1.952-7.443-3.942c-.324-.174-.4.018-.544.2a7.288,7.288,0,0,1-7.368,2.885,7.209,7.209,0,0,1-5.865-5.181,7.543,7.543,0,1,1,14.679-3.249,7.218,7.218,0,0,1-.356,3.479c-.125.342-.029.445.253.592q3.752,1.964,7.485,3.964a.409.409,0,0,0,.613-.116,13.359,13.359,0,0,1,8.447-4.524,13.581,13.581,0,0,1,8.557,25.222c-.3.175-.367.3-.227.635q1.528,3.642,3.012,7.3a2.6,2.6,0,0,1-2.444,3.71,2.439,2.439,0,0,1-2.232-1.552c-.28-.63-.526-1.276-.768-1.921a.4.4,0,0,0-.441-.3q-3.7.016-7.409,0a.394.394,0,0,0-.44.3c-.212.573-.444,1.139-.672,1.706a2.566,2.566,0,0,1-3.388,1.589,2.626,2.626,0,0,1-1.384-3.534q1.49-3.658,3.013-7.3c.14-.334.078-.465-.225-.637a12.527,12.527,0,0,1-3.4-2.8c-.206-.242-.345-.247-.616-.1q-3.732,2-7.485,3.962c-.3.157-.349.273-.237.6a7.565,7.565,0,1,1-1.125-2.1c.233.311.381.327.707.152q3.606-1.936,7.237-3.829c.285-.149.338-.251.155-.544a12.794,12.794,0,0,1-1.94-5.933c-.024-.331-.14-.413-.454-.4C1542.306,352.97,1541.676,352.952,1541.047,352.952Zm9.562,5.693a8.917,8.917,0,0,0,9.517,2.017,9.061,9.061,0,0,0-.887-17.223,8.81,8.81,0,0,0-8.607,2.321c.792.419,1.592.82,2.368,1.264a.738.738,0,0,0,.845-.015,6.034,6.034,0,0,1,8.968,6.375,6.022,6.022,0,0,1-9.007,3.991c-.2-.12-.358-.251-.632-.1C1552.341,357.749,1551.487,358.181,1550.608,358.645Zm-2.767-14.371a10.5,10.5,0,0,1,.946.519c.3.2.475.115.716-.115a10.265,10.265,0,0,1,8.983-2.925,10.565,10.565,0,1,1-3.843,20.766,10.713,10.713,0,0,1-5.182-2.832c-.124-.121-.219-.329-.465-.191-.38.213-.767.415-1.159.626a12.053,12.053,0,1,0,0-15.847Zm7.234,3.836,1.18.624c1.013.538,1,.534.466,1.55-.131.247-.221.31-.487.159-.737-.417-1.508-.776-2.238-1.2-.315-.185-.463-.1-.646.149a5.328,5.328,0,0,0-.836,1.675c-.1.348.015.39.318.385.99-.014,1.981-.005,2.972-.005,1.114,0,1.1,0,1.1,1.132,0,.316-.1.389-.4.385-1.242-.016-2.484,0-3.726-.011-.266,0-.365.041-.282.339a5.185,5.185,0,0,0,.9,1.8c.173.223.314.226.547.091.53-.306,1.078-.58,1.619-.866.99-.523.977-.516,1.5.47.166.309.08.419-.2.556-.6.3-1.189.627-1.8.955a4.424,4.424,0,0,0,5.308-1.206,4.522,4.522,0,0,0,0-5.773A4.419,4.419,0,0,0,1555.075,348.11Zm-19.167-8.018a6.014,6.014,0,0,0-9.15-7.8,5.886,5.886,0,0,0-.2,7.784,6.363,6.363,0,0,1,2.138-1.664c-1.642-1.979-1.642-4.1-.02-5.6a3.776,3.776,0,1,1,5.078,5.589A6.435,6.435,0,0,1,1535.908,340.092Zm-7.208,14.164a3.776,3.776,0,0,1,5.045-5.619c1.651,1.488,1.665,3.6.018,5.627a6.422,6.422,0,0,1,2.128,1.658c.136-.037.187-.14.247-.229a5.8,5.8,0,0,0,.514-6.111,5.739,5.739,0,0,0-5.152-3.407,6,6,0,0,0-6.287,5.442,5.778,5.778,0,0,0,1.086,4.046c.07.1.127.41.353.149A6.648,6.648,0,0,1,1528.7,354.256Zm7.208,17.541a6.014,6.014,0,0,0-9.149-7.8,5.887,5.887,0,0,0-.2,7.784,6.361,6.361,0,0,1,2.139-1.662c-1.642-1.986-1.642-4.1-.021-5.6a3.776,3.776,0,1,1,5.075,5.592A6.31,6.31,0,0,1,1535.908,371.8Zm24.4-1.5c-.6-1.494-1.195-2.957-1.771-4.427-.085-.218-.224-.182-.372-.164a10.325,10.325,0,0,1-2.54,0c-.151-.019-.286-.046-.37.168-.576,1.47-1.169,2.932-1.767,4.423Zm-11.715,2.682a1.074,1.074,0,0,0,.827,1.084,1.037,1.037,0,0,0,1.2-.677c1.031-2.556,2.046-5.119,3.08-7.673.1-.245.048-.322-.186-.385a11.571,11.571,0,0,1-1.3-.4c-.289-.116-.4-.057-.512.223-.979,2.408-1.973,4.81-2.963,7.214A1.368,1.368,0,0,0,1548.593,372.982Zm16.611-.076a1.933,1.933,0,0,0-.088-.366q-1.53-3.739-3.068-7.475c-.066-.161-.119-.261-.339-.18-.484.178-.981.325-1.477.469-.2.057-.238.121-.151.323.271.633.517,1.277.772,1.917q1.149,2.879,2.3,5.758a1.053,1.053,0,0,0,1.181.723A1.1,1.1,0,0,0,1565.2,372.906Zm-31.715-37.327a2.264,2.264,0,1,0-2.277,2.274A2.272,2.272,0,0,0,1533.489,335.579Zm-2.249,18.127a2.263,2.263,0,1,0-2.278-2.273A2.277,2.277,0,0,0,1531.24,353.706Zm2.249,13.591a2.264,2.264,0,1,0-2.242,2.262A2.273,2.273,0,0,0,1533.489,367.3Zm-2.484-24.914a6.392,6.392,0,0,0,3.57-1.021c.228-.157.237-.247.059-.456a4.56,4.56,0,0,0-6.82,0c-.183.217-.155.308.068.455A6.017,6.017,0,0,0,1531.005,342.382Zm.2,31.71a6.156,6.156,0,0,0,3.365-1.021c.22-.144.258-.234.072-.455a4.56,4.56,0,0,0-6.818-.008c-.175.206-.18.3.056.457A6.181,6.181,0,0,0,1531.2,374.092Zm-.191-15.857a6.415,6.415,0,0,0,3.581-1.032c.206-.146.221-.23.058-.428a4.562,4.562,0,0,0-6.832-.017c-.183.215-.159.31.066.458A6.014,6.014,0,0,0,1531.01,358.235Zm18.374-6.793c.425,0,.849-.007,1.273,0,.191,0,.27-.052.3-.256a5.67,5.67,0,0,1,1.117-2.609c.129-.169.177-.261-.059-.381-.755-.384-1.5-.786-2.245-1.189-.15-.082-.234-.077-.338.077a8.96,8.96,0,0,0-1.525,4.1c-.025.226.055.263.249.258C1548.566,351.435,1548.975,351.442,1549.384,351.442Zm-1.481,1.764a9.2,9.2,0,0,0,1.491,4.048c.14.21.247.205.444.1.7-.384,1.407-.761,2.121-1.121.243-.123.281-.211.1-.441a5.473,5.473,0,0,1-1.093-2.519c-.044-.269-.14-.327-.387-.323-.786.013-1.572.012-2.358,0C1547.97,352.944,1547.814,352.981,1547.9,353.206Zm-2.293-1.764c.729,0,.72,0,.828-.709a10.483,10.483,0,0,1,1.2-3.6c.175-.311.561-.729.471-.912-.137-.279-.614-.38-.927-.585-.244-.16-.357-.107-.507.135a12.159,12.159,0,0,0-1.75,4.932C1544.827,351.44,1544.842,351.442,1545.609,351.442Zm.022,1.51a1.42,1.42,0,0,1-.236,0c-.441-.076-.547.1-.5.531a12.263,12.263,0,0,0,1.364,4.427c.566,1.057.562,1.049,1.607.489.261-.139.321-.243.144-.515a9.858,9.858,0,0,1-1.6-4.575c-.025-.283-.125-.4-.407-.358A2.873,2.873,0,0,1,1545.632,352.952Z" transform="translate(-1523.66 -328.8)" fill="#030303"/>
      <path id="Trazado_628297" data-name="Trazado 628297" d="M1616.578,393.746c.879-.464,1.733-.9,2.566-1.367.274-.155.431-.023.632.1a6.021,6.021,0,0,0,9.007-3.991,6.034,6.034,0,0,0-8.968-6.375.738.738,0,0,1-.845.015c-.776-.443-1.576-.844-2.368-1.264a8.811,8.811,0,0,1,8.607-2.321,9.061,9.061,0,0,1,.887,17.223A8.917,8.917,0,0,1,1616.578,393.746Z" transform="translate(-1589.629 -363.901)" fill="#f9e7ad"/>
      <path id="Trazado_628298" data-name="Trazado 628298" d="M1607.027,371.981a12.049,12.049,0,1,1,0,15.847c.392-.211.779-.412,1.159-.626.245-.138.341.07.465.191a10.711,10.711,0,0,0,5.182,2.832,10.565,10.565,0,1,0,3.843-20.766,10.265,10.265,0,0,0-8.982,2.925c-.241.23-.416.318-.716.115A10.544,10.544,0,0,0,1607.027,371.981Z" transform="translate(-1582.845 -356.506)" fill="#eb8572"/>
      <path id="Trazado_628299" data-name="Trazado 628299" d="M1625.611,394.288a4.419,4.419,0,0,1,5.307,1.2,4.522,4.522,0,0,1,0,5.773,4.424,4.424,0,0,1-5.308,1.206c.613-.328,1.2-.659,1.8-.955.28-.137.366-.247.2-.556-.528-.986-.515-.993-1.5-.47-.541.286-1.089.56-1.619.866-.233.135-.374.132-.547-.091a5.18,5.18,0,0,1-.9-1.8c-.083-.3.016-.341.282-.339,1.242.01,2.484,0,3.726.011.3,0,.4-.068.4-.385,0-1.132.011-1.132-1.1-1.132-.99,0-1.981-.009-2.971.005-.3,0-.423-.037-.319-.385a5.327,5.327,0,0,1,.836-1.675c.184-.246.332-.334.646-.149.73.429,1.5.788,2.238,1.2.266.151.356.088.487-.159.538-1.016.548-1.012-.465-1.55Z" transform="translate(-1594.196 -374.978)" fill="#ec8672"/>
      <path id="Trazado_628300" data-name="Trazado 628300" d="M1539.643,343.772a6.431,6.431,0,0,0-2.157-1.687,3.775,3.775,0,1,0-5.077-5.589c-1.623,1.5-1.623,3.617.02,5.6a6.366,6.366,0,0,0-2.138,1.664,5.887,5.887,0,0,1,.2-7.784,6.014,6.014,0,0,1,9.149,7.8Z" transform="translate(-1527.395 -332.48)" fill="#e2e5e8"/>
      <path id="Trazado_628301" data-name="Trazado 628301" d="M1532.42,396.773a6.649,6.649,0,0,0-2.048,1.556c-.226.261-.282-.05-.353-.149a5.777,5.777,0,0,1-1.086-4.046,6,6,0,0,1,6.287-5.442,5.739,5.739,0,0,1,5.152,3.407,5.8,5.8,0,0,1-.514,6.111c-.06.089-.112.192-.247.229a6.426,6.426,0,0,0-2.128-1.658c1.647-2.03,1.633-4.139-.019-5.627a3.776,3.776,0,0,0-5.044,5.619Z" transform="translate(-1527.38 -371.317)" fill="#e2e5e8"/>
      <path id="Trazado_628302" data-name="Trazado 628302" d="M1539.643,453.088a6.306,6.306,0,0,0-2.16-1.683,3.776,3.776,0,1,0-5.075-5.592c-1.622,1.5-1.622,3.61.021,5.6a6.362,6.362,0,0,0-2.139,1.662,5.888,5.888,0,0,1,.2-7.784,6.014,6.014,0,0,1,9.149,7.8Z" transform="translate(-1527.395 -410.091)" fill="#e2e5e8"/>
      <path id="Trazado_628303" data-name="Trazado 628303" d="M1609.623,461.289a1.375,1.375,0,0,1,.149-.615c.99-2.4,1.984-4.806,2.963-7.214.114-.281.223-.339.512-.223a11.578,11.578,0,0,0,1.3.4c.233.063.285.14.186.385-1.034,2.555-2.049,5.117-3.08,7.673a1.037,1.037,0,0,1-1.2.677A1.074,1.074,0,0,1,1609.623,461.289Z" transform="translate(-1584.69 -417.107)" fill="#d4b08d"/>
      <path id="Trazado_628304" data-name="Trazado 628304" d="M1654.259,461.172a1.1,1.1,0,0,1-.87,1.168,1.053,1.053,0,0,1-1.181-.723c-.772-1.917-1.535-3.838-2.3-5.758-.255-.64-.5-1.284-.772-1.917-.087-.2-.047-.266.151-.323.5-.143.992-.291,1.477-.469.22-.081.273.019.339.18q1.533,3.737,3.067,7.475A1.929,1.929,0,0,1,1654.259,461.172Z" transform="translate(-1612.714 -417.066)" fill="#d4b08e"/>
      <path id="Trazado_628305" data-name="Trazado 628305" d="M1546.469,346.659a2.264,2.264,0,1,1-2.25-2.253A2.276,2.276,0,0,1,1546.469,346.659Z" transform="translate(-1536.639 -339.88)" fill="#e8ceb5"/>
      <path id="Trazado_628306" data-name="Trazado 628306" d="M1544.219,403.594a2.263,2.263,0,1,1,2.25-2.255A2.274,2.274,0,0,1,1544.219,403.594Z" transform="translate(-1536.639 -378.688)" fill="#e8ceb5"/>
      <path id="Trazado_628307" data-name="Trazado 628307" d="M1546.469,455.992a2.264,2.264,0,1,1-2.239-2.265A2.275,2.275,0,0,1,1546.469,455.992Z" transform="translate(-1536.639 -417.496)" fill="#e8ceb5"/>
      <path id="Trazado_628308" data-name="Trazado 628308" d="M1540.879,368.269a6.016,6.016,0,0,1-3.124-1.019c-.224-.147-.251-.238-.068-.455a4.559,4.559,0,0,1,6.819,0c.178.209.169.3-.058.456A6.392,6.392,0,0,1,1540.879,368.269Z" transform="translate(-1533.533 -354.687)" fill="#f2d47d"/>
      <path id="Trazado_628309" data-name="Trazado 628309" d="M1541.076,477.6a6.181,6.181,0,0,1-3.325-1.027c-.235-.154-.231-.251-.056-.457a4.559,4.559,0,0,1,6.818.008c.186.22.147.311-.072.455A6.155,6.155,0,0,1,1541.076,477.6Z" transform="translate(-1533.535 -432.304)" fill="#6cbce2"/>
      <path id="Trazado_628310" data-name="Trazado 628310" d="M1540.888,422.934a6.015,6.015,0,0,1-3.127-1.018c-.225-.148-.249-.243-.066-.458a4.562,4.562,0,0,1,6.832.017c.163.2.148.281-.058.428A6.413,6.413,0,0,1,1540.888,422.934Z" transform="translate(-1533.538 -393.499)" fill="#eb8672"/>
      <path id="Trazado_628311" data-name="Trazado 628311" d="M1608.733,395.889c-.409,0-.817-.007-1.226,0-.194,0-.273-.032-.249-.258a8.962,8.962,0,0,1,1.525-4.1c.1-.154.188-.159.338-.077.744.4,1.49.806,2.244,1.189.236.12.188.213.059.381a5.672,5.672,0,0,0-1.117,2.609c-.032.2-.11.26-.3.256C1609.583,395.882,1609.158,395.889,1608.733,395.889Z" transform="translate(-1583.01 -373.247)" fill="#f9e7ad"/>
      <path id="Trazado_628312" data-name="Trazado 628312" d="M1607.188,412.319c-.088-.226.067-.262.321-.258.786.011,1.572.012,2.357,0,.247,0,.343.055.387.323a5.472,5.472,0,0,0,1.093,2.519c.179.229.141.318-.1.441-.714.36-1.419.737-2.12,1.121-.2.108-.3.113-.444-.1A9.2,9.2,0,0,1,1607.188,412.319Z" transform="translate(-1582.945 -387.912)" fill="#f9e7ad"/>
      <path id="Trazado_628313" data-name="Trazado 628313" d="M1597.561,392.438c-.768,0-.783,0-.686-.738a12.157,12.157,0,0,1,1.75-4.932c.151-.242.264-.295.507-.135.313.206.791.307.927.585.09.183-.3.6-.471.912a10.484,10.484,0,0,0-1.2,3.6C1598.281,392.437,1598.29,392.438,1597.561,392.438Z" transform="translate(-1575.611 -369.795)" fill="#ea8571"/>
      <path id="Trazado_628314" data-name="Trazado 628314" d="M1597.6,412.029a2.857,2.857,0,0,0,.377,0c.281-.038.382.075.407.358a9.855,9.855,0,0,0,1.6,4.575c.177.272.117.375-.144.515-1.045.56-1.042.568-1.607-.489a12.265,12.265,0,0,1-1.364-4.427c-.05-.433.056-.607.5-.531A1.424,1.424,0,0,0,1597.6,412.029Z" transform="translate(-1575.626 -387.877)" fill="#ea8571"/>
    </g>
  </g>
</svg>
