<svg xmlns="http://www.w3.org/2000/svg" width="70.516" height="68.941" viewBox="0 0 70.516 68.941">
  <g id="Grupo_955022" data-name="Grupo 955022" transform="translate(-771.657 -160.793)">
    <path id="Trazado_630313" data-name="Trazado 630313" d="M833.762,187.1a1.108,1.108,0,0,1,.985,1.265c-.018,1.009.015,2.02-.014,3.029-.012.414.12.541.53.582a17.471,17.471,0,0,1,5.721,1.612,1.757,1.757,0,0,1,.086,3.294c-.866.465-1.723.947-2.645,1.456a14.251,14.251,0,0,1,2.04,2.673,1.758,1.758,0,0,1-2,2.7c-.979-.232-1.982-.364-2.971-.553-.543-.1-.774-.027-.771.652.03,7.734.019,15.467.019,23.2,0,1.253-.287,1.545-1.533,1.546q-3.408,0-6.817,0c-1.235,0-1.527-.3-1.528-1.565q0-7.952,0-15.9v-.9c-.722.8-1.326,1.476-1.932,2.148-.194.215-.128.478-.128.724q-.005,6.885,0,13.769c0,.207,0,.413,0,.62a1.021,1.021,0,0,1-2.008.312c-.027-.087-.062-.173-.093-.259.012-.251.032-.5.033-.752,0-4.717.01-9.434-.009-14.151a2.184,2.184,0,0,1,.616-1.6c1.46-1.582,2.89-3.191,4.326-4.794a3.631,3.631,0,0,0,.972-1.547c.028-.029.085-.077.08-.085-.048-.075-.108-.048-.166-.006-.172.059-.346.113-.517.177a75.061,75.061,0,0,1-7.949,2.724c-.885.225-1.161.118-1.649-.649.049-.873.246-1.131,1.078-1.343a51.917,51.917,0,0,0,6.619-2.246l4.542-1.6a21.056,21.056,0,0,1,6.408-.578c1.045.08,2.072.291,3.125.447a1.139,1.139,0,0,0-.37-.694,12.584,12.584,0,0,0-1.8-1.795,1.02,1.02,0,0,1,.158-1.8c.39-.239.8-.447,1.2-.668l2.307-1.276a16.668,16.668,0,0,0-8.82-1.224c-.347-.03-.685.092-1.021.092-.666,0-.789.338-.746.911a14.393,14.393,0,0,1,0,1.65,4.761,4.761,0,0,1-8.2,3.2c-.366-.371-.5-.3-.822.016a5.021,5.021,0,0,1-7.256-.147c-.374-.4-.511-.365-.868,0a5.262,5.262,0,0,1-6.9.6c-.759-.557-.79-.579-1.326.183-.283.4-1.039.611-.865,1.119.146.429.744.7,1.142,1.045.485.575,1.007,1.123,1.442,1.734a2.412,2.412,0,0,0,1.166.887,13.828,13.828,0,0,0,5.563.976,1.263,1.263,0,0,1,1.446.962c-.234.928-.432,1.1-1.357,1.11a13.561,13.561,0,0,1-2.536-.133l-2.282-.405c.2.7.671,1.291.4,2.023-.868.839-1.578.684-2.026-.442-.042-.106-.081-.214-.124-.32-2.05-4.894-5.577-7.893-10.949-8.506a1.185,1.185,0,0,1-1.166-1.048,1.783,1.783,0,0,1,.573-.986c1.127-1.107,2.239-2.23,3.356-3.347,1.7-1.7,3.416-3.385,5.094-5.107a3.662,3.662,0,0,0-2.325-6.23,3.517,3.517,0,0,0-2.965,1.131q-2.726,2.715-5.445,5.436c-.668.666-.936.7-1.743.268a1.317,1.317,0,0,1-.136-1.334l-.012.008.142-.167c1.045-1.028,2.04-2.114,3.153-3.062a2.2,2.2,0,0,0,.712-2.01c-.014-.346-.161-.378-.427-.308-.707.188-1.425.343-2.121.57-4.541,1.48-8.116,4.112-10.031,8.628a32.636,32.636,0,0,0-2.055,9.635c-.338,3.374-.45,6.769-.963,10.127a23.108,23.108,0,0,1-3.943,10.285c-.079.109-.262.206-.128.423a10.153,10.153,0,0,0,3.009-.874c.859-.376,1.188-.267,1.7.546.061,1.287.122,2.575.19,4.013.34-.387.572-.635.786-.9a21.84,21.84,0,0,0,4.428-9.856c.706-3.676.838-7.417,1.239-11.128a.919.919,0,0,0-.126-.589A10.286,10.286,0,0,1,786.8,192.65a1.257,1.257,0,0,1,1.351.13,1.188,1.188,0,0,1-.064,1.565,8.253,8.253,0,0,0,.83,11.319c2.444,2.452,4.858,4.935,7.358,7.329a6.371,6.371,0,0,1,2.075,5.019c-.06,3.161,0,6.324.017,9.487-.135.551-.392.99-1.027,1.037s-1.073-.429-1.076-1.218c-.009-2.479,0-4.957,0-7.436,0-.849,0-1.7,0-2.548a3.262,3.262,0,0,0-1-2.4q-3.64-3.616-7.26-7.249c-.108-.108-.188-.263-.438-.285-.114,1.294-.225,2.586-.344,3.878a34.345,34.345,0,0,1-2.594,11.468,22.033,22.033,0,0,1-4.266,6.279,1.777,1.777,0,0,1-3.187-1.253c-.023-.893-.076-1.784-.119-2.758a15.464,15.464,0,0,1-3.107.637,1.894,1.894,0,0,1-2.067-.88,1.788,1.788,0,0,1,.346-2.148,21.419,21.419,0,0,0,4.255-10.93c.512-3.821.576-7.685,1.1-11.506a32.241,32.241,0,0,1,1.775-7.535,16.024,16.024,0,0,1,5.984-7.525,1.055,1.055,0,0,0,.508-1.007c0-.39-.155-.458-.488-.444-.481.02-.964.016-1.446,0a2.3,2.3,0,0,1-1.761-3.874c2.338-2.71,4.666-5.43,7.019-8.127a2.255,2.255,0,0,1,3.545.036q2.692,3.087,5.347,6.205a1.051,1.051,0,0,0,.979.437c1.794-.116,2.724.264,4.535,1.738a5.432,5.432,0,0,1,1.749-1.818.57.57,0,0,0,.3-.56c-.007-1.354-.014-2.708,0-4.062,0-.361-.109-.49-.47-.47-.458.025-.918.014-1.377,0a2.143,2.143,0,0,1-2.079-1.318,2.167,2.167,0,0,1,.4-2.43c2.234-2.588,4.456-5.186,6.7-7.764a2.2,2.2,0,0,1,3.522.011q3.341,3.844,6.658,7.71a2.243,2.243,0,0,1-1.741,3.792c-.436,0-.873.021-1.308-.006-.369-.022-.464.12-.46.473.017,1.469.011,2.938,0,4.407,0,.279,0,.442.39.437,2.708-.032,3.785.543,5.3,2.794a4.9,4.9,0,0,1,3.454-1.173c.173.012.248-.069.246-.239,0-.459,0-.918,0-1.377,0-.277-.208-.251-.389-.251-.436,0-.872-.008-1.308,0a2.155,2.155,0,0,1-2.207-1.323,2.193,2.193,0,0,1,.447-2.481q2.793-3.227,5.578-6.461c.375-.434.741-.877,1.128-1.3a2.189,2.189,0,0,1,3.385-.019q3.445,3.937,6.834,7.923a2.072,2.072,0,0,1,.321,2.376,2.122,2.122,0,0,1-2.028,1.282l-.345,0c-1.533.006-1.533.006-1.533,1.573,0,1.033-.014,2.066,0,3.1a1.117,1.117,0,0,1-.984,1.269c-.862-.18-1.084-.452-1.088-1.355q-.013-2.8-.021-5.6c.243-.894.361-.971,1.672-1.1.616.012,1.233.033,1.849.032.192,0,.461.108.56-.109s-.163-.349-.288-.495c-1.833-2.133-3.676-4.258-5.509-6.391-1.178-1.372-1.172-1.377-2.267.064q-2.8,3.216-5.593,6.435c-.1.111-.279.223-.167.406.1.163.291.093.442.094.734.007,1.468,0,2.2,0,1.043.011,1.368.33,1.375,1.352.007.94.011,1.881,0,2.822a.84.84,0,0,0,.345.76,4.711,4.711,0,0,1,1.859,3.948c-.015,2.111,0,4.221,0,6.332,0,.806,0,.807.8.637.089-.019.177-.048.265-.073.638-.042,1.276-.116,1.913-.113.434,0,.6-.107.58-.571-.036-.959-.015-1.921-.01-2.881C832.682,187.551,832.929,187.263,833.762,187.1Zm-34.984-6.606a2.985,2.985,0,0,0-2.52,2.648,6.426,6.426,0,0,1,3.362-1.376,7.192,7.192,0,0,1,2.9.558A3.266,3.266,0,0,0,798.778,180.494Zm1.256,15.2-2.981,3.142,2.264.731c1.575.856,2.428.61,3.2-.931a2.343,2.343,0,0,0,.247-.638,35.967,35.967,0,0,0,.13-4.984Zm23.551-13.361a2.5,2.5,0,0,0-1.921,2.384q-.034,6.024,0,12.049a2.508,2.508,0,0,0,1.915,2.391,2.609,2.609,0,0,0,3.464-2.426c.047-2.153.017-4.309.017-6.463,0-1.834.03-3.668-.016-5.5A2.611,2.611,0,0,0,823.585,182.328Zm-28.479-1.873a7.78,7.78,0,0,1,.935-.9c.386-.268.353-.445.069-.769-1.551-1.771-3.08-3.562-4.62-5.343-.558-.645-.564-.643-1.145.03-.208.241-.4.492-.607.738q-2.956,3.4-5.909,6.807c-.1.118-.252.238-.182.417.086.222.3.165.478.167.574.006,1.148,0,1.721,0,1.923,0,1.923,0,2.093,1.909a.924.924,0,0,0,.508-.167,19.623,19.623,0,0,1,4.832-1.536A2.061,2.061,0,0,0,795.106,180.455Zm20.623.208a2.853,2.853,0,0,0-2.207,2.714c-.031,1.1-.012,2.2-.012,3.3,0,3.185-.008,6.371,0,9.556a2.87,2.87,0,0,0,2.212,2.926,2.95,2.95,0,0,0,3.837-2.777q.075-6.471,0-12.943A2.947,2.947,0,0,0,815.729,180.663Zm-8.277,18.544a3.173,3.173,0,0,0,3.97-3.062q.08-6.735,0-13.472a3.162,3.162,0,0,0-3.954-3.072c-2.6.636-2.968,3.139-2.292,5.244a6.684,6.684,0,0,1-.042,5.3,1.567,1.567,0,0,0-.171.721c.007,1.74-.01,3.48.009,5.22A3.125,3.125,0,0,0,807.452,199.207Zm1.96-35.05q-2.788,3.213-5.575,6.428c-.1.113-.28.208-.2.4s.276.122.424.124c.733.007,1.465,0,2.2,0,1.119.011,1.428.321,1.432,1.439.005,1.442.013,2.884-.006,4.326,0,.4.076.559.527.548a5.463,5.463,0,0,1,2.688.713,7.266,7.266,0,0,1,1.517,1.368c.136.168.19.563.492.417a.781.781,0,0,0,.507-.737c-.025-2.348-.024-4.7-.032-7.046.15-.976.9-1.019,1.654-1.07a12.838,12.838,0,0,0,1.921.05c.177.006.416.074.512-.1.125-.234-.139-.357-.262-.5q-2.779-3.238-5.57-6.467C810.5,162.722,810.5,162.718,809.412,164.157Zm20.773,39.3a1.206,1.206,0,0,0-1.333,1.188,5.146,5.146,0,0,1-1.44,2.687,1.77,1.77,0,0,0-.49,1.351c.016,5.107.01,10.214.01,15.321,0,.664.011,1.328,0,1.992-.007.329.063.515.45.5.936-.033,1.874-.037,2.811-.053.595.016,1.193,0,1.783.058s.719-.144.718-.713q-.029-11.01-.013-22.019a2.431,2.431,0,0,1,0-.275c.036-.3-.094-.4-.393-.372A13.181,13.181,0,0,0,830.185,203.458Z" fill="#030303"/>
    <path id="Trazado_630314" data-name="Trazado 630314" d="M804.883,214.035c.806.435,1.074.4,1.742-.268q2.724-2.716,5.445-5.436a3.517,3.517,0,0,1,2.965-1.131.959.959,0,0,0,.037.271c1.011,2.218.413,4.049-1.266,5.695-2.716,2.663-5.387,5.373-8.078,8.062-.286.285-.529.6-.35,1.022a.963.963,0,0,0,1.034.622c.64-.032,1.283,0,1.925,0a1.185,1.185,0,0,0,1.166,1.048c5.371.613,8.9,3.611,10.949,8.506.044.105.082.213.124.32.448,1.126,1.158,1.281,2.026.442a3.291,3.291,0,0,1,.477.046,16.579,16.579,0,0,0,6.725.122c1.3-.215,2.568-.549,3.915-.857a7.293,7.293,0,0,1-1.26,1.535,3.519,3.519,0,0,0-1.17,2.4q.011,7.186.007,14.372l-4.234.022q-.012-5.57-.024-11.139a4.581,4.581,0,0,0-.017-.686.94.94,0,0,0-.852-.854.969.969,0,0,0-1.1.623,1.908,1.908,0,0,0-.093.812c0,.827,0,1.654,0,2.674a10.709,10.709,0,0,0-4.556-3.969c-.788-.355-1.551,0-1.609.769a1.131,1.131,0,0,0,.815,1.142,8.374,8.374,0,0,1,4.124,4.152,12.712,12.712,0,0,1,1.2,6.474l-11.844,0c-.012-3.162-.077-6.326-.017-9.487a6.37,6.37,0,0,0-2.075-5.019c-2.5-2.394-4.914-4.877-7.358-7.329a8.253,8.253,0,0,1-.829-11.319,1.189,1.189,0,0,0,.064-1.565Z" transform="translate(-14.731 -23.317)" fill="#efa99d"/>
    <path id="Trazado_630315" data-name="Trazado 630315" d="M852.765,271.735q0-7.186-.006-14.372a3.518,3.518,0,0,1,1.17-2.4,7.3,7.3,0,0,0,1.26-1.535c-1.347.309-2.618.642-3.915.857a16.579,16.579,0,0,1-6.725-.122,3.289,3.289,0,0,0-.477-.046c.27-.732-.2-1.322-.4-2.023l2.282.405a13.56,13.56,0,0,0,2.536.133c.926-.011,1.123-.182,1.357-1.11l2.79-.452c.488.767.763.874,1.649.649a75.078,75.078,0,0,0,7.949-2.724c.171-.064.345-.118.517-.177a.99.99,0,0,0,.086.09,3.632,3.632,0,0,1-.972,1.547c-1.436,1.6-2.866,3.212-4.326,4.794a2.184,2.184,0,0,0-.616,1.6c.019,4.717.011,9.434.009,14.151,0,.251-.021.5-.033.752Z" transform="translate(-36.2 -44.249)" fill="#ec9488"/>
    <path id="Trazado_630316" data-name="Trazado 630316" d="M842.979,282.11a12.711,12.711,0,0,0-1.2-6.473,8.374,8.374,0,0,0-4.124-4.152,1.131,1.131,0,0,1-.815-1.142c.058-.765.822-1.124,1.609-.769a10.709,10.709,0,0,1,4.556,3.969c0-1.02,0-1.847,0-2.674a1.909,1.909,0,0,1,.093-.812.969.969,0,0,1,1.1-.623.94.94,0,0,1,.852.854,4.564,4.564,0,0,1,.017.686q.013,5.569.024,11.139a1.023,1.023,0,0,1-1.051,1.023C843.4,283.14,843.1,282.7,842.979,282.11Z" transform="translate(-32.765 -54.606)" fill="#030202"/>
    <path id="Trazado_630317" data-name="Trazado 630317" d="M891.823,193.853q.011,2.8.021,5.6c0,.9.226,1.175,1.088,1.355q0,1.456,0,2.912c-.834.164-1.081.452-1.086,1.293-.006.961-.026,1.922.009,2.881.017.464-.146.573-.58.571-.638,0-1.275.072-1.913.113,0-.413,0-.826,0-1.238q0-6.089,0-12.178c0-.917.381-1.294,1.287-1.3C891.043,193.852,891.433,193.854,891.823,193.853Z" transform="translate(-59.169 -16.619)" fill="#ec9b43"/>
    <path id="Trazado_630318" data-name="Trazado 630318" d="M781.718,246.456c-.512-.813-.841-.922-1.7-.546a10.154,10.154,0,0,1-3.009.874c-.133-.217.049-.314.128-.423a23.108,23.108,0,0,0,3.943-10.285c.513-3.358.626-6.754.963-10.127a32.634,32.634,0,0,1,2.055-9.635c1.915-4.516,5.489-7.148,10.031-8.628.7-.227,1.413-.382,2.121-.57.267-.071.413-.038.427.308a2.2,2.2,0,0,1-.712,2.01c-1.113.949-2.109,2.035-3.154,3.062l-.142.167.011-.008a.8.8,0,0,0-.672.276c-.51.49-1.016.985-1.5,1.5a3.665,3.665,0,0,0-1.035,1.494,10.537,10.537,0,0,0-2.643,6.762,39.305,39.305,0,0,0-.677,4.717c-.183,2.246-.471,4.484-.655,6.73a37.306,37.306,0,0,1-.794,5.126A25.777,25.777,0,0,1,781.718,246.456Z" transform="translate(-2.667 -23.27)" fill="#76b6f4"/>
    <path id="Trazado_630319" data-name="Trazado 630319" d="M884.427,185.772c-.39,0-.78,0-1.17,0-.906.011-1.286.388-1.287,1.3q-.006,6.089,0,12.178c0,.413,0,.826,0,1.238-.088.024-.176.054-.265.073-.8.17-.8.169-.8-.637,0-2.111-.012-4.221,0-6.332a4.711,4.711,0,0,0-1.859-3.948.839.839,0,0,1-.345-.76c.015-.94.01-1.881,0-2.822-.007-1.022-.332-1.341-1.375-1.352-.734-.007-1.468,0-2.2,0-.151,0-.343.069-.442-.094-.113-.184.07-.3.167-.406q2.792-3.221,5.593-6.435a6.625,6.625,0,0,1,.609.545c1.292,1.469,2.605,2.92,3.843,4.434.472.578,1.207,1.031,1.2,1.921C884.788,184.8,884.67,184.879,884.427,185.772Z" transform="translate(-51.772 -8.538)" fill="#eeb35e"/>
    <path id="Trazado_630320" data-name="Trazado 630320" d="M886.05,269.571c-.937.016-1.874.019-2.811.053-.387.014-.457-.172-.45-.5.015-.664,0-1.328,0-1.992,0-5.107.006-10.214-.01-15.321a1.77,1.77,0,0,1,.49-1.351,5.146,5.146,0,0,0,1.44-2.687,1.206,1.206,0,0,1,1.333-1.188Q886.048,258.078,886.05,269.571Z" transform="translate(-55.862 -43.126)" fill="#edb25e"/>
    <path id="Trazado_630321" data-name="Trazado 630321" d="M843.2,181.537a5.464,5.464,0,0,0-2.688-.713c-.451.011-.532-.149-.527-.548.019-1.442.011-2.884.006-4.326,0-1.118-.313-1.427-1.432-1.439-.733-.007-1.465,0-2.2,0-.148,0-.344.068-.424-.124s.1-.283.2-.4q2.785-3.217,5.575-6.428a6.139,6.139,0,0,1,.556.5c1.305,1.486,2.635,2.953,3.887,4.483.471.575,1.19,1.042,1.18,1.928-.749.051-1.5.093-1.654,1.07l-.82,0c-1.231,0-1.644.409-1.648,1.623Q843.212,179.352,843.2,181.537Z" transform="translate(-32.305 -3.401)" fill="#efb45f"/>
    <path id="Trazado_630322" data-name="Trazado 630322" d="M841.034,218.218a3.125,3.125,0,0,1-2.478-3.124c-.02-1.74,0-3.48-.009-5.22a1.567,1.567,0,0,1,.171-.721,6.683,6.683,0,0,0,.042-5.3c-.676-2.105-.311-4.608,2.292-5.244a.946.946,0,0,0,.137.3,4.031,4.031,0,0,1,1.11,3.064c-.014,3.966-.055,7.933.018,11.9A6,6,0,0,1,841.034,218.218Z" transform="translate(-33.583 -19.011)" fill="#f0b5aa"/>
    <path id="Trazado_630323" data-name="Trazado 630323" d="M835.567,236.314c-.4-.343-1-.617-1.142-1.045-.174-.508.582-.717.865-1.119.536-.762.567-.74,1.326-.183a5.262,5.262,0,0,0,6.9-.6c.357-.368.494-.4.868,0a5.021,5.021,0,0,0,7.256.147c.319-.312.456-.388.822-.016a4.761,4.761,0,0,0,8.2-3.2,14.392,14.392,0,0,0,0-1.65c-.043-.573.08-.911.746-.911.336,0,.674-.123,1.021-.093,0,.891.045,1.784-.011,2.672a6.385,6.385,0,0,1-1.752,4.26c-.188.19-.44.345-.448.66l-4.542,1.6a9.639,9.639,0,0,1-3.494-1.286c-.152-.112-.295,0-.438.083a6.677,6.677,0,0,1-7.373-.032.743.743,0,0,0-.908.034,6.725,6.725,0,0,1-6.72.356C836.173,235.708,835.849,235.813,835.567,236.314Z" transform="translate(-31.54 -33.6)" fill="#53a3f0"/>
    <path id="Trazado_630324" data-name="Trazado 630324" d="M786.526,262.223a25.777,25.777,0,0,0,2.983-7.2,37.3,37.3,0,0,0,.794-5.126c.184-2.246.472-4.484.655-6.73a39.3,39.3,0,0,1,.677-4.718,10.521,10.521,0,0,0,1.406,5.315.919.919,0,0,1,.126.589c-.4,3.711-.533,7.453-1.239,11.128a21.841,21.841,0,0,1-4.428,9.856c-.214.263-.446.511-.786.9C786.648,264.8,786.587,263.51,786.526,262.223Z" transform="translate(-7.474 -39.037)" fill="#53a4f1"/>
    <path id="Trazado_630325" data-name="Trazado 630325" d="M889.348,269.229q0-11.494,0-22.987a13.18,13.18,0,0,1,2.1-.334c.3-.029.429.068.393.372a2.43,2.43,0,0,0,0,.275q0,11.01.013,22.019c0,.569-.139.773-.718.713S889.943,269.244,889.348,269.229Z" transform="translate(-59.16 -42.783)" fill="#ec9b43"/>
    <path id="Trazado_630326" data-name="Trazado 630326" d="M858.026,219.244a2.87,2.87,0,0,1-2.212-2.926c-.013-3.185,0-6.371,0-9.556,0-1.1-.018-2.2.012-3.3a2.853,2.853,0,0,1,2.207-2.714,4.868,4.868,0,0,1,1.127,3.342q-.077,5.836,0,11.674A5.038,5.038,0,0,1,858.026,219.244Z" transform="translate(-42.3 -20.085)" fill="#f0b5aa"/>
    <path id="Trazado_630327" data-name="Trazado 630327" d="M836.747,244.222c.282-.5.606-.606,1.172-.326a6.725,6.725,0,0,0,6.72-.356.743.743,0,0,1,.909-.034,6.677,6.677,0,0,0,7.373.032c.143-.086.286-.195.438-.083a9.638,9.638,0,0,0,3.494,1.286,51.993,51.993,0,0,1-6.619,2.245c-.832.212-1.029.47-1.078,1.343l-2.79.452a1.263,1.263,0,0,0-1.446-.962,13.828,13.828,0,0,1-5.563-.976,2.412,2.412,0,0,1-1.166-.887C837.754,245.346,837.232,244.8,836.747,244.222Z" transform="translate(-32.72 -41.508)" fill="#76b6f4"/>
    <path id="Trazado_630328" data-name="Trazado 630328" d="M812.739,222.891c-.642,0-1.285-.031-1.925,0a.963.963,0,0,1-1.034-.622c-.179-.424.064-.737.35-1.022,2.691-2.689,5.362-5.4,8.078-8.062,1.678-1.646,2.276-3.477,1.266-5.695a.957.957,0,0,1-.037-.271,3.662,3.662,0,0,1,2.325,6.23c-1.678,1.722-3.394,3.407-5.094,5.107-1.117,1.117-2.229,2.24-3.356,3.347A1.783,1.783,0,0,0,812.739,222.891Z" transform="translate(-19.133 -23.339)" fill="#ec9488"/>
    <path id="Trazado_630329" data-name="Trazado 630329" d="M843.633,218.127a6,6,0,0,0,1.283-4.34c-.073-3.965-.032-7.932-.018-11.9a4.031,4.031,0,0,0-1.11-3.064.949.949,0,0,1-.137-.3,3.163,3.163,0,0,1,3.954,3.072q.075,6.735,0,13.472A3.173,3.173,0,0,1,843.633,218.127Z" transform="translate(-36.181 -18.92)" fill="#eda79b"/>
    <path id="Trazado_630330" data-name="Trazado 630330" d="M807.208,194.021a2.061,2.061,0,0,1-1.827,1.36,19.621,19.621,0,0,0-4.832,1.536.925.925,0,0,1-.508.167c-.169-1.909-.169-1.909-2.093-1.909-.573,0-1.147,0-1.721,0-.175,0-.392.055-.478-.167-.07-.179.079-.3.182-.417q2.953-3.405,5.909-6.807a20.34,20.34,0,0,1,1.987,2.237C804.978,191.331,806.164,192.616,807.208,194.021Z" transform="translate(-12.102 -13.566)" fill="#efb45f"/>
    <path id="Trazado_630331" data-name="Trazado 630331" d="M860.271,219.107a5.038,5.038,0,0,0,1.132-3.48q-.087-5.836,0-11.674a4.868,4.868,0,0,0-1.127-3.342,2.947,2.947,0,0,1,3.834,2.776q.072,6.471,0,12.943A2.95,2.95,0,0,1,860.271,219.107Z" transform="translate(-44.545 -19.947)" fill="#efa99d"/>
    <path id="Trazado_630332" data-name="Trazado 630332" d="M886.307,235.079c.007-.316.26-.47.448-.66a6.385,6.385,0,0,0,1.753-4.26c.057-.887.011-1.781.011-2.672a16.668,16.668,0,0,1,8.82,1.224l-2.307,1.276c-.4.222-.81.43-1.2.668a1.02,1.02,0,0,0-.158,1.8,12.584,12.584,0,0,1,1.8,1.795,1.138,1.138,0,0,1,.37.694c-1.053-.155-2.08-.367-3.125-.447A21.056,21.056,0,0,0,886.307,235.079Z" transform="translate(-57.633 -33.448)" fill="#75b5f2"/>
    <path id="Trazado_630333" data-name="Trazado 630333" d="M876.068,203.953a2.611,2.611,0,0,1,3.459,2.435c.046,1.833.016,3.667.016,5.5,0,2.154.03,4.309-.017,6.463a2.609,2.609,0,0,1-3.464,2.426c.015-.113-.007-.252.051-.335a5.771,5.771,0,0,0,.785-3.544q-.009-4.98,0-9.961c0-.3-.069-.591-.086-.879C876.765,205.273,876.234,204.68,876.068,203.953Z" transform="translate(-52.483 -21.625)" fill="#efa99d"/>
    <path id="Trazado_630334" data-name="Trazado 630334" d="M874.115,204.1c.166.728.7,1.32.741,2.106.016.287.086.582.086.879q0,4.981,0,9.961a5.771,5.771,0,0,1-.785,3.544c-.058.083-.036.222-.051.335a2.508,2.508,0,0,1-1.915-2.391q-.033-6.024,0-12.049A2.5,2.5,0,0,1,874.115,204.1Z" transform="translate(-50.53 -21.767)" fill="#f0b5aa"/>
    <path id="Trazado_630335" data-name="Trazado 630335" d="M853.2,173.366c.01-.886-.709-1.353-1.18-1.928-1.252-1.53-2.581-3-3.887-4.483a6.124,6.124,0,0,0-.556-.5c1.091-1.44,1.086-1.435,2.224-.11q2.782,3.237,5.57,6.467c.123.143.386.266.262.5-.1.179-.335.111-.512.1A12.84,12.84,0,0,1,853.2,173.366Z" transform="translate(-38.163 -2.297)" fill="#e89843"/>
    <path id="Trazado_630336" data-name="Trazado 630336" d="M850.562,189.605q.009-2.186.016-4.372c0-1.214.416-1.622,1.648-1.623l.82,0c.008,2.349.007,4.7.032,7.046a.781.781,0,0,1-.507.737c-.3.146-.357-.249-.492-.417A7.266,7.266,0,0,0,850.562,189.605Z" transform="translate(-39.665 -11.469)" fill="#ec9b43"/>
    <path id="Trazado_630337" data-name="Trazado 630337" d="M891.957,183.579c0-.89-.731-1.343-1.2-1.921-1.237-1.513-2.551-2.964-3.843-4.434a6.627,6.627,0,0,0-.609-.545c1.1-1.441,1.089-1.436,2.267-.064,1.833,2.133,3.676,4.258,5.509,6.391.125.146.389.275.289.495s-.369.108-.561.109C893.19,183.612,892.573,183.591,891.957,183.579Z" transform="translate(-57.631 -7.44)" fill="#ec9b43"/>
    <path id="Trazado_630338" data-name="Trazado 630338" d="M827.993,228.253l2.859-2.681a35.967,35.967,0,0,1-.13,4.984,2.343,2.343,0,0,1-.247.638c-.771,1.541-1.624,1.788-3.2.931A4.233,4.233,0,0,0,827.993,228.253Z" transform="translate(-27.959 -32.564)" fill="#eda79b"/>
    <path id="Trazado_630339" data-name="Trazado 630339" d="M813.382,192.761c-1.043-1.4-2.229-2.69-3.381-4a20.347,20.347,0,0,0-1.987-2.237c.2-.246.4-.5.607-.738.581-.673.587-.675,1.145-.03,1.54,1.781,3.069,3.572,4.62,5.343.284.325.317.5-.069.769A7.782,7.782,0,0,0,813.382,192.761Z" transform="translate(-18.277 -12.306)" fill="#ec9b43"/>
    <path id="Trazado_630340" data-name="Trazado 630340" d="M825.7,230.962a4.233,4.233,0,0,1-.717,3.873l-2.264-.731Z" transform="translate(-25.67 -35.273)" fill="#f0b5aa"/>
    <path id="Trazado_630341" data-name="Trazado 630341" d="M802.116,221.544a3.666,3.666,0,0,1,1.035-1.494c.487-.512.994-1.007,1.5-1.5a.8.8,0,0,1,.672-.276,1.318,1.318,0,0,0,.136,1.334l-2,2.063A1.258,1.258,0,0,0,802.116,221.544Z" transform="translate(-15.311 -28.893)" fill="#53a3f0"/>
    <path id="Trazado_630342" data-name="Trazado 630342" d="M824.484,201.679a6.426,6.426,0,0,0-3.362,1.376,2.985,2.985,0,0,1,2.52-2.648C823.858,200.873,824.441,201.1,824.484,201.679Z" transform="translate(-24.865 -19.913)" fill="#f0b5aa"/>
    <path id="Trazado_630343" data-name="Trazado 630343" d="M827.033,201.589c-.043-.581-.626-.805-.841-1.272a3.266,3.266,0,0,1,3.739,1.83A7.191,7.191,0,0,0,827.033,201.589Z" transform="translate(-27.414 -19.824)" fill="#eda79b"/>
    <path id="Trazado_630344" data-name="Trazado 630344" d="M808.549,218.13l.142-.167Z" transform="translate(-18.545 -28.739)" fill="#53a3f0"/>
    <path id="Trazado_630345" data-name="Trazado 630345" d="M882.034,248.776c.058-.042.118-.069.166.006,0,.008-.052.056-.08.085A.991.991,0,0,1,882.034,248.776Z" transform="translate(-55.485 -44.207)" fill="#ec9488"/>
  </g>
</svg>
