<svg xmlns="http://www.w3.org/2000/svg" width="60.362" height="72.499" viewBox="0 0 60.362 72.499">
  <g id="Grupo_955027" data-name="Grupo 955027" transform="translate(-589 -4591)">
    <g id="Grupo_955027-2" data-name="Grupo 955027" transform="translate(589 4591)">
      <path id="Trazado_630440" data-name="Trazado 630440" d="M1103.911,783.863l-.3-3.007a1.193,1.193,0,0,0,.832-1.377c-.2-1.327-.346-2.664-.591-3.982a2.481,2.481,0,0,1,.49-2.046q2.933-4.026,5.823-8.084a2.942,2.942,0,0,1,1.617-1.164c2.4-.735,4.8-1.5,7.2-2.25,1.508-.472,1.508-.471,1.846,1.1a4.649,4.649,0,0,1-2.587,5.341,13.577,13.577,0,0,0-1.337.632c-1.083.693-2.127.9-3.162-.069a.635.635,0,0,0-.187-.1.972.972,0,0,0-1.336.426.982.982,0,0,0,.28,1.38,5.364,5.364,0,0,0,.967.58.519.519,0,0,1,.316.726c-.4,1.352-.791,2.708-1.16,4.069-.094.345-.224.5-.613.481-.658-.037-1.32-.015-1.979-.009-.805.008-1.306.431-1.292,1.08.013.626.5,1.033,1.261,1.041.825.009,1.651.016,2.475,0a1.392,1.392,0,0,1,.908.29,16.909,16.909,0,0,1,3.372,3.2,1.241,1.241,0,0,0,1.715.452l1.435,2.727a1.27,1.27,0,0,0-.595,1.669,10.5,10.5,0,0,1,.182,5.374c-.435,1.851-.929,3.689-1.434,5.522a1.4,1.4,0,0,0,.349,1.542,1.3,1.3,0,0,0-.276.209q-3.837,5.034-7.665,10.074-3.358,4.425-6.706,8.859a44.5,44.5,0,0,1-3.792-2.76c-2.555-1.9-5.082-3.836-7.624-5.754a1.366,1.366,0,0,0-.32-.133c.051-.078.1-.159.152-.233q6.7-8.887,13.41-17.768a1.793,1.793,0,0,0,.441-1.427c-.28-1.815-.531-3.635-.811-5.45C1105.076,784.14,1104.816,783.928,1103.911,783.863Z" transform="translate(-1090.162 -749.728)" fill="#f5cec1"/>
      <path id="Trazado_630441" data-name="Trazado 630441" d="M1142.711,769.213a1.4,1.4,0,0,1-.349-1.542c.506-1.833,1-3.671,1.434-5.522a10.5,10.5,0,0,0-.182-5.374,1.27,1.27,0,0,1,.595-1.67c.93-.02,1.189.172,1.449,1.079a12.48,12.48,0,0,1,.482,4.4.721.721,0,0,0,.515.843,14.033,14.033,0,0,0,18.035-6.159c.189-.333-.017-.45-.2-.627a4.3,4.3,0,0,1-1.319-3.854,6.755,6.755,0,0,1,.623-1.716l-1.195-.468c-2.211-2.006-2.554-3.5-1.392-6.072l2.067-2.211a4.293,4.293,0,0,1-2.87-2.621,1.457,1.457,0,0,0-.659-.768,13.677,13.677,0,0,0-4.617-1.821c-.985-.188-1.193-.394-1.318-1.267.354-.834.647-.99,1.5-.862a21.966,21.966,0,0,1,3.175.886c.291.144.58.292.873.432.954.458.938.448,1.432-.442.151-.272.139-.395-.135-.535a15.986,15.986,0,0,0-5.987-1.873,16.379,16.379,0,0,0-7.176.5c-.182.052-.326.091-.319.362.029,1.082.152,1.188,1.183.912q.374-.1.752-.182c.883-.189,1.2-.025,1.615.815l0,.282a1.309,1.309,0,0,1-1.208,1,2.336,2.336,0,0,0-.93.268,2,2,0,0,0-1.863,1.391,5.761,5.761,0,0,1-2.867,3.09c-1,.523-2.027.986-3.054,1.451a.946.946,0,0,0-.6.695c-.273,1.069-.6,2.124-.905,3.185-.481,1.68-.481,1.68.886,2.76a.652.652,0,0,0,.126.062,28.164,28.164,0,0,1,2.409,2.536c.578.733.594,1.049.056,1.8a1.241,1.241,0,0,1-1.715-.452,16.909,16.909,0,0,0-3.372-3.2,1.392,1.392,0,0,0-.908-.289c-.825.02-1.65.013-2.475,0-.764-.008-1.248-.415-1.261-1.041-.014-.65.487-1.073,1.292-1.08.66-.006,1.322-.028,1.979.009.389.022.519-.137.613-.482q.554-2.042,1.16-4.069a.519.519,0,0,0-.317-.726,5.366,5.366,0,0,1-.967-.58.982.982,0,0,1-.281-1.38.972.972,0,0,1,1.337-.426.634.634,0,0,1,.187.1c1.035.97,2.079.761,3.162.069a13.572,13.572,0,0,1,1.337-.632,4.649,4.649,0,0,0,2.587-5.341c-.338-1.566-.338-1.567-1.846-1.1-2.4.751-4.8,1.515-7.2,2.25a2.94,2.94,0,0,0-1.617,1.164q-2.885,4.061-5.823,8.084a2.482,2.482,0,0,0-.49,2.046c.245,1.319.392,2.655.591,3.982a1.193,1.193,0,0,1-.831,1.377c-.967-.122-1.147-.284-1.3-1.254-.224-1.443-.447-2.886-.637-4.334a3.668,3.668,0,0,1,.682-2.676q3.191-4.45,6.4-8.885a3.692,3.692,0,0,1,1.926-1.368q4.438-1.4,8.877-2.8a2.22,2.22,0,0,1,2.3.474.614.614,0,0,0,.693.108c.679-.186,1.368-.345,2.061-.473.383-.07.541-.195.538-.629-.009-1.429.015-1.429-1.427-1.43-.306,0-.614.006-.919-.018a2.391,2.391,0,0,1-2.239-2.165,13.86,13.86,0,0,1,0-2.825,2.327,2.327,0,0,1,2.263-2.129c3.489-.032,6.984-.113,10.465.058a4.29,4.29,0,0,0,2.5-.471,2.862,2.862,0,0,1,3.427.675,6.018,6.018,0,0,1,.079,8.368c-.733.794-1.557,1.505-2.39,2.3a5.212,5.212,0,0,1,.569.342c.465.381.826.329,1.336-.042a3.434,3.434,0,0,1,4.252.263c.409.354.786.747,1.164,1.136a3.49,3.49,0,0,1,.592,4.453c-.2.345-.119.435.185.61a7.106,7.106,0,0,1,2.325,2.234,3.3,3.3,0,0,1,.1,3.674c-.247.429-.152.527.223.757a7.387,7.387,0,0,1,2.253,2.211,3.265,3.265,0,0,1-.368,4.228,14.7,14.7,0,0,0-3.563,5.589,18.954,18.954,0,0,1-13.284,11.163,1.956,1.956,0,0,0-1.055.617,9.492,9.492,0,0,1-7.893,3.364,1.09,1.09,0,0,0-1.047.493q-7.116,9.373-14.259,18.725c-.143.187-.28.38-.433.559a1.007,1.007,0,0,1-1.378.305,1.028,1.028,0,0,1-.453-1.342c.036-.11.089-.215.134-.322.154-.173.32-.337.46-.521q7.373-9.663,14.733-19.336a1.6,1.6,0,0,1,1.671-.736,6.958,6.958,0,0,0,5.133-1.188,2.708,2.708,0,0,0-.672-.066,19.774,19.774,0,0,1-5.818-1.03c-.438-.152-.879-.293-1.32-.438-.133.45-.268.9-.4,1.351C1144.136,769.253,1143.719,769.489,1142.711,769.213ZM1166.3,737.3c.3-.293.634-.565.907-.884a1.182,1.182,0,0,0,.19-1.507c-1.418-1.864-2.346-2.809-4.088-.7a.264.264,0,0,0-.029.064,2.213,2.213,0,0,0-1.027,2.091,2.019,2.019,0,0,0,1.472,1.863A2.192,2.192,0,0,0,1166.3,737.3Zm-7.685,26.268.014-.01c-.134.041-.27.076-.4.125a16.091,16.091,0,0,1-11.865-.073c-.213-.083-.6-.5-.706.069-.077.425-.67.976.21,1.311a17.585,17.585,0,0,0,22.488-9.1c.022-.045-.01-.116-.017-.179a2.661,2.661,0,0,1-.721.064c-.655-.128-.944.2-1.221.742a14.513,14.513,0,0,1-2.355,3.244,17.673,17.673,0,0,1-5.125,3.674A.317.317,0,0,0,1158.618,763.569Zm2.818-35.519a4.088,4.088,0,0,0,.93-.951,3.917,3.917,0,0,0-.2-4.936c-.552-.6-1.007-.587-1.644-.1-.851.646-.533,1.513-.556,2.324-.143,2.153-.922,3-2.783,3.013-1.525.014-1.517.013-1.463,1.548.011.323.067.485.439.564.892.19,1.77.446,2.646.7.243.071.421.125.625-.092C1160.088,729.419,1160.766,728.738,1161.436,728.05Zm-6.055-5.65q-3.922-.017-7.845-.037c-.382,0-.57.149-.567.538q.008.919,0,1.838c0,.391.189.54.569.537q3.922-.027,7.844-.041c.63.013,1.26.022,1.89.04.38.011.557-.155.546-.544-.081-2.894.528-2.3-2.23-2.362A1.134,1.134,0,0,0,1155.381,722.4Zm13.458,21.534c.255-.238.522-.464.763-.716a1.445,1.445,0,0,0-.008-2.228c-.287-.307-.584-.608-.9-.89a1.421,1.421,0,0,0-2.126,0c-.273.252-.514.54-.769.811-.852.839-1.729,1.653-2.547,2.524a2.161,2.161,0,0,0,3.063,3.044C1167.187,745.663,1168,744.786,1168.839,743.934Zm-.561,3.659c-.819.807-1.665,1.59-2.451,2.428a2.179,2.179,0,0,0,.033,3,2.152,2.152,0,0,0,3.047.048c.851-.806,1.65-1.666,2.472-2.5.305-.291.634-.562.91-.879a1.324,1.324,0,0,0,.123-1.756c-1.414-1.624-2.195-2.643-4.106-.4A.245.245,0,0,0,1168.278,747.593Zm-15.621-20.2c-1.249.019-1.026-.151-1.1.97-.041.65.156.895.809.793a5.291,5.291,0,0,1,.844.012c.157,0,.37.046.381-.19a2.973,2.973,0,0,0-.06-1.455C1153.383,727.215,1152.928,727.46,1152.657,727.394Z" transform="translate(-1114.471 -719.535)" fill="#040403"/>
      <path id="Trazado_630442" data-name="Trazado 630442" d="M1148.053,888.88c1.008.276,1.425.04,1.714-.965.13-.451.265-.9.4-1.351.44.146.882.286,1.319.438a19.774,19.774,0,0,0,5.818,1.031,2.7,2.7,0,0,1,.672.066,6.958,6.958,0,0,1-5.133,1.188,1.6,1.6,0,0,0-1.671.736q-7.352,9.68-14.733,19.336c-.14.183-.306.347-.46.521a14.358,14.358,0,0,1-2.57-1.859q3.352-4.429,6.706-8.858,3.826-5.041,7.665-10.074A1.293,1.293,0,0,1,1148.053,888.88Z" transform="translate(-1119.813 -839.202)" fill="#efb1a1"/>
      <path id="Trazado_630443" data-name="Trazado 630443" d="M1099.219,839.918c.906.065,1.165.277,1.3,1.159.28,1.815.531,3.635.81,5.45a1.793,1.793,0,0,1-.441,1.427q-6.715,8.876-13.41,17.768c-.055.074-.1.155-.152.233-.681.423-1.195.424-1.58-.032-.471-.556-.28-1.063.116-1.587q6.451-8.536,12.892-17.079a1.5,1.5,0,0,0,.346-1.276c-.255-1.484-.4-2.986-.658-4.469A1.256,1.256,0,0,1,1099.219,839.918Z" transform="translate(-1085.47 -805.783)" fill="#040404"/>
      <path id="Trazado_630444" data-name="Trazado 630444" d="M1184.871,772.327a2.339,2.339,0,0,1,.93-.268,1.31,1.31,0,0,0,1.208-1,5.327,5.327,0,0,1,.62.1,14.913,14.913,0,0,1,9.858,8.289c-1.162,2.567-.819,4.065,1.391,6.072a5.6,5.6,0,0,1-.131,1.037,13.624,13.624,0,0,1-1.9,6.52c-.366.647-.639,1.4-1.385,1.767-1.288-2.129-2.566-4.264-3.875-6.38a.947.947,0,0,1-.027-1.171,3.265,3.265,0,0,0-.55-4.015,3.336,3.336,0,0,0-5.519,3.37,3.313,3.313,0,0,0,3.394,2.33.728.728,0,0,1,.818.44c1.21,2.042,2.44,4.072,3.655,6.11a2.452,2.452,0,0,0,.722.845.874.874,0,0,1-.459.667c-.647.488-1.334.925-1.973,1.423-.487.38-1.172.451-1.54,1.006a13.722,13.722,0,0,1-7.169-1.126.721.721,0,0,1-.515-.843,12.477,12.477,0,0,0-.482-4.4c-.26-.907-.519-1.1-1.449-1.079l-1.435-2.727c.538-.748.522-1.064-.056-1.8a28.145,28.145,0,0,0-2.409-2.536.386.386,0,0,0,.208-.266c.331-1.2.693-2.389.986-3.6a1.514,1.514,0,0,1,.969-1.185c.547-.213,1.073-.479,1.6-.729,1.518-.713,3.056-1.4,3.837-3.047.031-.064.157-.083.239-.123-.012.117-.017.235-.037.35a4.352,4.352,0,1,0,6.142-3.18c-2.115-1-4.27-.272-5.766,1.936A20.369,20.369,0,0,0,1184.871,772.327Z" transform="translate(-1150.752 -756.451)" fill="#f5f1ef"/>
      <path id="Trazado_630445" data-name="Trazado 630445" d="M1229.605,831.387c.747-.364,1.019-1.12,1.385-1.767a13.625,13.625,0,0,0,1.9-6.52,5.623,5.623,0,0,0,.131-1.037l1.195.468a6.761,6.761,0,0,0-.623,1.716,4.3,4.3,0,0,0,1.319,3.854c.185.177.391.294.2.627a13.7,13.7,0,0,1-10.866,7.285c.368-.556,1.052-.626,1.54-1.006.639-.5,1.326-.935,1.973-1.423a.874.874,0,0,0,.459-.667C1229.415,833,1229.814,832.562,1229.605,831.387Z" transform="translate(-1184.9 -792.991)" fill="#e1dee2"/>
      <path id="Trazado_630446" data-name="Trazado 630446" d="M1181.14,779.211c-.082.04-.208.059-.239.123-.781,1.645-2.319,2.334-3.837,3.047-.532.25-1.058.516-1.6.729a1.513,1.513,0,0,0-.969,1.185c-.294,1.207-.656,2.4-.987,3.6a.387.387,0,0,1-.208.266.627.627,0,0,1-.126-.062c-1.367-1.08-1.367-1.081-.886-2.76.3-1.061.632-2.116.9-3.185a.947.947,0,0,1,.6-.7c1.027-.465,2.056-.928,3.054-1.451a5.762,5.762,0,0,0,2.867-3.091,2,2,0,0,1,1.863-1.391,20.33,20.33,0,0,1-.1,2.794Z" transform="translate(-1147.458 -759.647)" fill="#e1dee2"/>
      <path id="Trazado_630447" data-name="Trazado 630447" d="M1270.661,821.459c-.822.837-1.621,1.7-2.472,2.5a2.153,2.153,0,0,1-3.047-.048,2.179,2.179,0,0,1-.033-3c.786-.838,1.631-1.621,2.451-2.428C1268.684,818.555,1270.277,820.083,1270.661,821.459Z" transform="translate(-1213.754 -790.427)" fill="#f3cbbf"/>
      <path id="Trazado_630448" data-name="Trazado 630448" d="M1261.653,797.951c-.838.852-1.651,1.729-2.52,2.548a2.161,2.161,0,0,1-3.062-3.044c.818-.871,1.7-1.685,2.547-2.524A4.721,4.721,0,0,1,1261.653,797.951Z" transform="translate(-1207.286 -773.552)" fill="#efb1a1"/>
      <path id="Trazado_630449" data-name="Trazado 630449" d="M1208.489,732.378q-3.922.019-7.844.041c-.38,0-.572-.146-.568-.537q.009-.919,0-1.838c0-.389.185-.54.567-.538q3.922.026,7.845.037Q1208.489,730.961,1208.489,732.378Z" transform="translate(-1167.58 -726.679)" fill="#f9e078"/>
      <path id="Trazado_630450" data-name="Trazado 630450" d="M1230.793,854.854a17.675,17.675,0,0,0,5.125-3.674,14.522,14.522,0,0,0,2.355-3.244c.277-.54.566-.87,1.221-.742a2.663,2.663,0,0,0,.721-.064c.007.064.039.134.017.179a17.178,17.178,0,0,1-13.965,10.208c.757-.37,1.535-.7,2.266-1.121a5.749,5.749,0,0,0,1.971-1.423l-.014.01A.3.3,0,0,0,1230.793,854.854Z" transform="translate(-1186.343 -810.95)" fill="#f1ce53"/>
      <path id="Trazado_630451" data-name="Trazado 630451" d="M1223.806,778.35a14.913,14.913,0,0,0-9.858-8.289,5.321,5.321,0,0,0-.62-.1l0-.282a8.346,8.346,0,0,1,3.083-.016c.125.872.333,1.079,1.318,1.267a13.675,13.675,0,0,1,4.617,1.821,1.459,1.459,0,0,1,.659.768,4.292,4.292,0,0,0,2.87,2.621Z" transform="translate(-1177.071 -755.349)" fill="#e1dee2"/>
      <path id="Trazado_630452" data-name="Trazado 630452" d="M1207.437,763.475a8.347,8.347,0,0,0-3.083.016c-.41-.84-.732-1-1.615-.815q-.378.081-.752.182c-1.031.276-1.155.17-1.183-.912-.007-.271.137-.31.319-.362a16.375,16.375,0,0,1,7.176-.5,36.413,36.413,0,0,1,3.619,2.088c.1.085.367.079.2.33a21.985,21.985,0,0,0-3.175-.886C1208.084,762.484,1207.791,762.641,1207.437,763.475Z" transform="translate(-1168.1 -749.162)" fill="#f5dd77"/>
      <path id="Trazado_630453" data-name="Trazado 630453" d="M1236.614,740.3c-.67.689-1.348,1.37-2.006,2.07-.2.217-.381.163-.625.092-.876-.257-1.754-.513-2.646-.7-.372-.079-.428-.242-.44-.564-.053-1.535-.061-1.534,1.464-1.548,1.861-.016,2.641-.86,2.783-3.013.42.109.506.512.7.812A7.1,7.1,0,0,1,1236.614,740.3Z" transform="translate(-1189.649 -731.784)" fill="#eaad9e"/>
      <path id="Trazado_630454" data-name="Trazado 630454" d="M1207.763,874.35a5.75,5.75,0,0,1-1.972,1.423c-.731.416-1.508.751-2.266,1.121a17.19,17.19,0,0,1-8.523-1.113c-.881-.335-.287-.886-.211-1.311.1-.571.493-.152.706-.069a16.092,16.092,0,0,0,11.865.073C1207.493,874.426,1207.629,874.391,1207.763,874.35Z" transform="translate(-1163.602 -830.327)" fill="#f1d975"/>
      <path id="Trazado_630455" data-name="Trazado 630455" d="M1247.283,733.523a7.1,7.1,0,0,0-.767-2.854c-.2-.3-.283-.7-.7-.812.022-.812-.3-1.678.556-2.324.636-.484,1.091-.5,1.644.1a3.917,3.917,0,0,1,.2,4.936A4.091,4.091,0,0,1,1247.283,733.523Z" transform="translate(-1200.319 -725.009)" fill="#e69e8e"/>
      <path id="Trazado_630456" data-name="Trazado 630456" d="M1258.006,774.535a2.192,2.192,0,0,1-2.575.925,2.018,2.018,0,0,1-1.472-1.863,2.212,2.212,0,0,1,1.027-2.091A5.646,5.646,0,0,1,1258.006,774.535Z" transform="translate(-1206.175 -756.769)" fill="#f3cbbf"/>
      <path id="Trazado_630457" data-name="Trazado 630457" d="M1278.326,818.028c-.384-1.375-1.978-2.9-3.1-2.975a.237.237,0,0,1,.028-.064c1.912-2.238,2.693-1.22,4.106.4a1.324,1.324,0,0,1-.123,1.756C1278.96,817.466,1278.631,817.737,1278.326,818.028Z" transform="translate(-1221.419 -786.996)" fill="#eaad9e"/>
      <path id="Trazado_630458" data-name="Trazado 630458" d="M1260.629,771.342a5.646,5.646,0,0,0-3.02-3.029.273.273,0,0,1,.029-.064c1.742-2.106,2.67-1.161,4.089.7a1.182,1.182,0,0,1-.19,1.507C1261.263,770.778,1260.934,771.049,1260.629,771.342Z" transform="translate(-1208.798 -753.577)" fill="#efb1a1"/>
      <path id="Trazado_630459" data-name="Trazado 630459" d="M1269.534,794.69a4.72,4.72,0,0,0-3.036-3.02c.255-.271.5-.559.769-.811a1.421,1.421,0,0,1,2.126,0c.312.282.608.583.9.89a1.445,1.445,0,0,1,.008,2.228C1270.057,794.226,1269.789,794.452,1269.534,794.69Z" transform="translate(-1215.167 -770.291)" fill="#e69e8e"/>
      <path id="Trazado_630460" data-name="Trazado 630460" d="M1229.743,732.367q0-1.418,0-2.835a1.13,1.13,0,0,1,.207-.032c2.758.066,2.149-.531,2.23,2.362.011.39-.165.555-.546.544C1231,732.389,1230.373,732.38,1229.743,732.367Z" transform="translate(-1188.833 -726.667)" fill="#f1ce53"/>
      <path id="Trazado_630461" data-name="Trazado 630461" d="M1231.055,763.986c.168-.25-.1-.245-.2-.33a36.4,36.4,0,0,0-3.619-2.088,15.978,15.978,0,0,1,5.987,1.873c.274.14.286.263.135.535-.494.891-.479.9-1.432.442C1231.635,764.278,1231.346,764.13,1231.055,763.986Z" transform="translate(-1187.038 -749.65)" fill="#f1ce53"/>
      <path id="Trazado_630462" data-name="Trazado 630462" d="M1217.354,747.174c.271.066.726-.179.878.13a2.974,2.974,0,0,1,.06,1.455c-.012.236-.224.191-.381.19a5.286,5.286,0,0,0-.844-.012c-.653.1-.849-.143-.809-.793C1216.328,747.024,1216.1,747.193,1217.354,747.174Z" transform="translate(-1179.169 -739.316)" fill="#e69742"/>
      <path id="Trazado_630463" data-name="Trazado 630463" d="M1241.462,874.369a.3.3,0,0,1-.3.129A.317.317,0,0,1,1241.462,874.369Z" transform="translate(-1197.013 -830.465)" fill="#f1d975"/>
      <path id="Trazado_630464" data-name="Trazado 630464" d="M1203.984,780.272l.339-.894c1.5-2.208,3.65-2.931,5.765-1.936a4.351,4.351,0,1,1-6.141,3.18C1203.967,780.506,1203.972,780.388,1203.984,780.272Zm4.976-1.007a2.315,2.315,0,0,0-2.783,1.231,2.228,2.228,0,0,0,3.438,2.616,1.881,1.881,0,0,0,.627-2.318c-.387.411-.745.815-1.129,1.192a1.1,1.1,0,0,1-1.62.143,1.064,1.064,0,0,1,.111-1.614C1208,780.119,1208.424,779.756,1208.96,779.265Z" transform="translate(-1170.302 -760.708)" fill="#040404"/>
      <path id="Trazado_630465" data-name="Trazado 630465" d="M1217.567,823.333c.209,1.175-.19,1.617-1.382,1.53a2.452,2.452,0,0,1-.722-.845c-1.216-2.038-2.445-4.068-3.655-6.11a.728.728,0,0,0-.818-.44,3.313,3.313,0,0,1-3.394-2.33,3.336,3.336,0,0,1,5.519-3.37,3.265,3.265,0,0,1,.55,4.015.947.947,0,0,0,.027,1.171C1215,819.068,1216.279,821.2,1217.567,823.333Zm-5.589-9.169a1.161,1.161,0,0,0-1.183-1.206,1.206,1.206,0,0,0-1.226,1.182,1.254,1.254,0,0,0,1.2,1.226A1.205,1.205,0,0,0,1211.979,814.163Z" transform="translate(-1172.861 -784.937)" fill="#040403"/>
      <path id="Trazado_630466" data-name="Trazado 630466" d="M1214.3,784.822c-.536.491-.963.854-1.356,1.251a1.064,1.064,0,0,0-.111,1.613,1.1,1.1,0,0,0,1.62-.143c.384-.377.742-.781,1.129-1.192a1.88,1.88,0,0,1-.627,2.318,2.228,2.228,0,0,1-3.438-2.616A2.315,2.315,0,0,1,1214.3,784.822Z" transform="translate(-1175.641 -766.266)" fill="#ebe7e5"/>
      <path id="Trazado_630467" data-name="Trazado 630467" d="M1217.335,819.561a1.205,1.205,0,0,1-1.207,1.2,1.254,1.254,0,0,1-1.2-1.226,1.207,1.207,0,0,1,1.226-1.182A1.161,1.161,0,0,1,1217.335,819.561Z" transform="translate(-1178.218 -790.334)" fill="#e69742"/>
    </g>
  </g>
</svg>
