<svg xmlns="http://www.w3.org/2000/svg" width="73.124" height="65.84" viewBox="0 0 73.124 65.84">
  <g id="Grupo_955025" data-name="Grupo 955025" transform="translate(-1419.437 -117.349)">
    <path id="Trazado_630399" data-name="Trazado 630399" d="M1439.948,124.4c.25-.877.518-1.1,1.4-1.1a8.051,8.051,0,0,1,1.706.095,3.781,3.781,0,0,1,3.083,3.391c.1,1.707.061,3.424.057,5.137,0,.479-.019.749.632.528,1.184-.4,1.2-.353,1.2-1.644q0-4.069,0-8.138a4.956,4.956,0,0,1,5.358-5.324q10.569,0,21.138,0c1.846,0,2.619.751,2.587,2.594a25.39,25.39,0,0,1-.241,5.4,8.87,8.87,0,0,1-2.185,4.179c-.754.794-.3,1.709-.389,2.567-.022.209.249.154.4.18a5.252,5.252,0,0,1-.008,10.413c-.335.055-.427.15-.431.475a12.681,12.681,0,0,1-2.392,7.331c-.25.353-.14.438.21.57a10.46,10.46,0,0,1,5.675,4.948c.246.456.55.415.926.406a13.388,13.388,0,1,1-7.345,24.244,1.454,1.454,0,0,0-.914-.284q-13.211.011-26.422.005c-2.366,0-3.482-1.337-3.093-3.676.176-1.055.291-2.12.481-3.172.1-.526-.066-.633-.571-.631q-9.034.025-18.067.009a3.032,3.032,0,0,1-3.243-3.8c.081-.492.133-.99.2-1.483.562-3.881,1.08-7.769,1.7-11.639a8.2,8.2,0,0,1,4.971-6.422c.577-.264.525-.43.239-.878a9.917,9.917,0,0,1-1.561-4.969c-.018-.4-.137-.538-.547-.635a4.365,4.365,0,0,1,.029-8.521c.381-.091.491-.238.486-.616-.021-1.38.061-2.765-.023-4.139-.18-2.952,1.762-5.194,5.455-4.593a.888.888,0,0,0,1.081-.449,3,3,0,0,1,2.3-1.4,15.92,15.92,0,0,1,2.423-.041,1.088,1.088,0,0,1,1.034,1.085,1.169,1.169,0,0,1-1.371,1.042c-.451-.024-.9-.011-1.356,0a1.389,1.389,0,0,0-1.563,1.317c-.176.943-.741,1.262-1.654.9a5.451,5.451,0,0,0-2.158-.388,1.848,1.848,0,0,0-2.027,1.978c-.027.689.021,1.381-.016,2.069-.026.49.179.636.626.59.212-.022.429.01.642-.006a6.08,6.08,0,0,1,5.682,2.464,3.41,3.41,0,0,0,2.447,1.33,44.678,44.678,0,0,0,5.843.048c.36.04.79.253,1.014-.191a3.739,3.739,0,0,0,.7-2.18,21.91,21.91,0,0,1-.02-2.484c0-1.137.025-2.274-.008-3.41a1.838,1.838,0,0,0-2.1-2,5,5,0,0,0-.625-.033A1.179,1.179,0,0,1,1439.948,124.4Zm27.6,53.819h1.169c-.156-.228-.255-.381-.363-.529a12.5,12.5,0,0,1-2.169-4.644c-.139-.614-.411-.72-.929-.584-4.3-.008-8.6-.011-12.9-.033-.41,0-.522.126-.517.526q.031,2.387,0,4.776c-.006.415.13.513.527.512Q1459.952,178.221,1467.546,178.222Zm15.994,1.884a1.892,1.892,0,0,0,.268-.077,11.2,11.2,0,0,0,6.4-12.255,11.269,11.269,0,0,0-16.885-7.569,1.351,1.351,0,0,1-1.853-.107c-.217-.992-.121-1.228.744-1.758a11.757,11.757,0,0,1,3.05-1.352c.45-.122.452-.276.216-.623a9,9,0,0,0-4.043-3.264,2.191,2.191,0,0,0-2.439.292,2.934,2.934,0,0,0-1.386,2.7,6.452,6.452,0,0,1-12.9-.2,2.116,2.116,0,0,0-1.236-2.321,3.1,3.1,0,0,1-.786-.609.773.773,0,0,0-.838-.173,8.35,8.35,0,0,0-6.15,6.128,28.273,28.273,0,0,0-.6,3.723c-.131.931-.374,1.188-1.273,1.344a1.207,1.207,0,0,1-.867-1.557,10.04,10.04,0,0,0,.15-1.056c.27-2.874,1.014-5.557,3.116-7.685.257-.26.095-.405-.066-.585a6.64,6.64,0,0,0-3.1-1.942.618.618,0,0,0-.8.25,2.219,2.219,0,0,0-1.355,2.117,5.3,5.3,0,0,1-10.555.261,2.684,2.684,0,0,0-1.373-2.429,1,1,0,0,0-.913-.169,6.16,6.16,0,0,0-4.5,4.966c-.749,4.474-1.339,8.975-1.986,13.465-.106.739.229,1.12,1,1.135,1.047.02,2.095-.02,3.14.017.511.018.64-.162.635-.65-.024-2.069-.011-4.139-.008-6.208a4.315,4.315,0,0,1,.044-.781,1.044,1.044,0,0,1,2.039-.063,3.239,3.239,0,0,1,.066.777c.005,2.069.021,4.139-.009,6.208-.008.553.135.725.707.721,3.45-.024,6.9-.007,10.35-.008.474,0,.948-.028,1.422-.043.578.172.869.028.9-.645a20.52,20.52,0,0,1,.3-2.174c.157-.991.356-1.18,1.344-1.321a1.262,1.262,0,0,1,.785,1.616c-.118.507-.111,1.041-.219,1.551-.084.4-.029.552.42.546,1.57-.021,3.141-.017,4.712,0,.362,0,.518-.1.5-.482a9.633,9.633,0,0,1,.008-1.355,1.049,1.049,0,0,1,1.106-.986,1.017,1.017,0,0,1,1.013,1,7.9,7.9,0,0,1,.005,1.212c-.036.456.108.613.589.61q6.354-.029,12.708-.007c.459,0,.6-.129.611-.6a13.332,13.332,0,0,1,2.14-7.141c.5-.764.867-.88,1.735-.545.577.626.393,1.212-.013,1.863a11.187,11.187,0,0,0,1.538,13.822C1474.4,181,1479.693,182.031,1483.54,180.106Zm-14.853-49.688a7.178,7.178,0,0,0,5.941-4.972c.587-1.858.272-3.777.345-5.671.011-.28-.18-.294-.381-.289-.64.017-1.28.036-1.92.054a3.909,3.909,0,0,0-.422-.046q-9.558,0-19.116,0a2.771,2.771,0,0,0-2.961,3.012c-.015,2.448.014,4.9-.017,7.344-.007.566.151.71.712.708,5.516-.021,11.032-.012,16.548-.014A3.94,3.94,0,0,0,1468.687,130.418Zm-18.481,3.3c-.057,3.328-.078,6.657.016,9.984a9.329,9.329,0,0,0,.189,1.483,10.96,10.96,0,0,0,21.677-1.566c.107-3.588.016-7.182.014-10.773v-1.3c-2.249,1.3-4.663,1.147-7.058,1.143q-6.984-.01-13.968,0C1450.1,132.686,1450.1,132.686,1450.206,133.721Zm-23.044,5.343c0,1.333-.01,2.665,0,4a8.449,8.449,0,0,0,10.076,8.36,8.765,8.765,0,0,0,6.282-11.8,3.545,3.545,0,0,1-.361-1.147c-.034-.5-.274-.557-.687-.553-1.666.016-3.333.005-5,.007a6.444,6.444,0,0,1-5.34-2.527,3.246,3.246,0,0,0-2.779-1.331c-.547.016-1.1.028-1.642-.005-.442-.027-.57.133-.563.568C1427.177,136.113,1427.162,137.589,1427.162,139.064Zm19.3,39.175c.9,0,1.806-.017,2.709.008.387.011.54-.079.534-.5-.024-1.591-.029-3.183,0-4.775.009-.471-.17-.541-.579-.536q-2.459.03-4.919,0c-.379,0-.552.1-.6.486-.2,1.482-.413,2.961-.628,4.44-.088.607.15.894.776.884C1444.657,178.228,1445.56,178.239,1446.464,178.239Zm14.68-17.949a4.372,4.372,0,0,0,4.372-4.406c0-.432-.09-.516-.529-.382a12.78,12.78,0,0,1-7.639.005c-.527-.162-.534.019-.534.432A4.321,4.321,0,0,0,1461.144,160.29Zm-10.46-9.407-.373-.553a12.794,12.794,0,0,1-2.21-6.161c-.038-.45.083-1.024-.151-1.313s-.829-.217-1.24-.376c-.437-.169-.523-.039-.518.383a10.4,10.4,0,0,1-1.738,6.064c-.211.314-.128.409.2.537a9.965,9.965,0,0,1,1.911,1.092c.623.423,1,1.41,1.68,1.382s1.334-.649,2.047-.915c.067-.025.138-.037.2-.061S1450.621,150.91,1450.684,150.884Zm23.581-13.437c0,.9.013,1.8-.007,2.706-.008.358.1.45.451.376a3.129,3.129,0,0,0,.015-6.083c-.323-.064-.477-.019-.467.365C1474.281,135.689,1474.265,136.568,1474.265,137.447Zm-41.818,15.806a3.163,3.163,0,0,0,3.039,3.09,3.216,3.216,0,0,0,3.272-2.614c.057-.31.115-.515-.348-.386A10.669,10.669,0,0,1,1432.447,153.253Zm15.576-15.693c0-.9-.015-1.805.007-2.707.01-.413-.146-.48-.511-.393a3.132,3.132,0,0,0,0,6.046c.377.1.517.028.507-.381C1448.009,139.27,1448.024,138.415,1448.024,137.56Zm-23.007,1.35c0-.569-.017-1.14.005-1.708.018-.464-.1-.63-.555-.369a2.241,2.241,0,0,0,.06,4.009c.329.173.518.166.5-.294C1425,140,1425.017,139.457,1425.017,138.911Z" transform="translate(0 0)" fill="#030404"/>
    <path id="Trazado_630400" data-name="Trazado 630400" d="M1459.179,142a1.179,1.179,0,0,0,1.4,1.046,4.988,4.988,0,0,1,.625.033,4.357,4.357,0,0,1,.443,1.406q-.014,4.432-.022,8.863a44.686,44.686,0,0,1-5.843-.048,3.41,3.41,0,0,1-2.447-1.33,6.08,6.08,0,0,0-5.682-2.464c-.213.016-.43-.016-.642.006-.447.046-.652-.1-.626-.59.036-.688-.011-1.38.016-2.069a1.848,1.848,0,0,1,2.027-1.978,5.451,5.451,0,0,1,2.158.388c.912.361,1.478.041,1.654-.9a1.389,1.389,0,0,1,1.563-1.317c.452-.009.905-.021,1.356,0a1.169,1.169,0,0,0,1.371-1.042Z" transform="translate(-19.232 -17.598)" fill="#6e8b95"/>
    <path id="Trazado_630401" data-name="Trazado 630401" d="M1548.74,171.514c0,3.591.093,7.185-.014,10.773a10.96,10.96,0,0,1-21.677,1.566,9.371,9.371,0,0,1-.189-1.483c-.094-3.328-.073-6.656-.016-9.984q8.912-.01,17.824-.022c.33,0,.659-.04.989-.07A29.3,29.3,0,0,0,1548.74,171.514Zm-11,14.452a4.453,4.453,0,0,0,3.738-1.906,1.072,1.072,0,1,0-1.7-1.291c-1.227,1.438-2.719,1.434-3.989-.01a1.072,1.072,0,1,0-1.68,1.319A4.459,4.459,0,0,0,1537.742,185.966Zm-5.814-8.3a1.079,1.079,0,0,0-1.062,1.173,1.033,1.033,0,0,0,1.02,1.128,1.075,1.075,0,0,0,1.12-1.122A1.115,1.115,0,0,0,1531.928,177.667Zm11.708,0a1.086,1.086,0,0,0-1.04,1.2,1.038,1.038,0,0,0,1.046,1.1,1.079,1.079,0,0,0,1.095-1.147A1.108,1.108,0,0,0,1543.636,177.667Z" transform="translate(-76.637 -38.666)" fill="#f4d0ab"/>
    <path id="Trazado_630402" data-name="Trazado 630402" d="M1503.878,252.282c.9-.156,1.142-.413,1.274-1.344a28.272,28.272,0,0,1,.6-3.723,8.35,8.35,0,0,1,6.15-6.128.773.773,0,0,1,.838.173,3.1,3.1,0,0,0,.786.609,2.116,2.116,0,0,1,1.236,2.321,6.452,6.452,0,0,0,12.9.2,2.934,2.934,0,0,1,1.386-2.7,2.192,2.192,0,0,1,2.439-.292,9,9,0,0,1,4.043,3.264c.237.347.234.5-.215.623a11.748,11.748,0,0,0-3.05,1.352c-.865.53-.962.766-.745,1.758a26.4,26.4,0,0,0-1.85,1.91c-.868-.336-1.239-.22-1.735.545a13.332,13.332,0,0,0-2.14,7.141c-.009.472-.152.6-.611.6q-6.354-.019-12.708.007c-.481,0-.625-.155-.589-.61a7.852,7.852,0,0,0-.005-1.212,1.017,1.017,0,0,0-1.013-1,1.049,1.049,0,0,0-1.106.986,9.652,9.652,0,0,0-.008,1.355c.022.384-.134.485-.5.482-1.571-.015-3.141-.019-4.712,0-.448.006-.5-.15-.42-.546.108-.51.1-1.044.219-1.551a1.261,1.261,0,0,0-.784-1.616Q1503.718,253.581,1503.878,252.282Z" transform="translate(-60.049 -88.294)" fill="#3374c4"/>
    <path id="Trazado_630403" data-name="Trazado 630403" d="M1446.266,255.025c-.474.015-.948.043-1.422.043-3.45,0-6.9-.016-10.35.008-.571,0-.715-.168-.707-.721.031-2.069.014-4.139.009-6.208a3.239,3.239,0,0,0-.066-.777,1.044,1.044,0,0,0-2.039.063,4.326,4.326,0,0,0-.044.781c0,2.069-.016,4.139.008,6.208.006.489-.124.668-.635.65-1.046-.036-2.094,0-3.141-.017-.767-.015-1.1-.4-1-1.135.647-4.491,1.237-8.991,1.986-13.465a6.159,6.159,0,0,1,4.5-4.966,1,1,0,0,1,.913.169,2.683,2.683,0,0,1,1.373,2.429,5.3,5.3,0,0,0,10.555-.261,2.219,2.219,0,0,1,1.355-2.117,6.032,6.032,0,0,1,2.053,2.185.987.987,0,0,1-.019,1.309,10.432,10.432,0,0,0-1.6,3.993c-.22,1.421-.4,2.849-.607,4.272Q1446.832,251.248,1446.266,255.025Z" transform="translate(-5.302 -84.299)" fill="#84dbc3"/>
    <path id="Trazado_630404" data-name="Trazado 630404" d="M1545.319,135.762a3.942,3.942,0,0,1-1.272.13c-5.516,0-11.032-.007-16.548.014-.561,0-.719-.142-.712-.708.032-2.448,0-4.9.018-7.344a2.771,2.771,0,0,1,2.961-3.012q9.558-.019,19.116,0a3.9,3.9,0,0,1,.422.045c.005,1.166.059,2.334,0,3.5a9.7,9.7,0,0,1-1.286,4.6A11.38,11.38,0,0,1,1545.319,135.762Z" transform="translate(-76.631 -5.344)" fill="#f6db61"/>
    <path id="Trazado_630405" data-name="Trazado 630405" d="M1590.5,264.754a26.429,26.429,0,0,1,1.85-1.91,1.352,1.352,0,0,0,1.853.107,10.829,10.829,0,0,1,10.076-.775c.059.324.366.425.575.594a12.021,12.021,0,0,1,4.721,11.359,12.212,12.212,0,0,1-3.982,7.634c-.388.365-.913.583-1.17,1.09-3.847,1.925-9.143.895-12.4-2.413a11.187,11.187,0,0,1-1.538-13.822C1590.895,265.966,1591.079,265.38,1590.5,264.754Zm1.591,7.816a3.057,3.057,0,0,0,3.1,3.047c.563.021,1.284-.247,1.647.116s.1,1.084.115,1.647a3.054,3.054,0,0,0,2.979,3.1,3.087,3.087,0,0,0,3.179-2.986c.04-.608-.272-1.435.139-1.764.385-.307,1.178-.1,1.791-.126a3.061,3.061,0,0,0,.457-6.064,8.176,8.176,0,0,0-1.918-.074c-.381.007-.5-.111-.474-.483a11.356,11.356,0,0,0,0-1.425,3.108,3.108,0,0,0-3.141-2.962,3.075,3.075,0,0,0-3,3.084,9.176,9.176,0,0,0,0,1.14c.047.48-.086.7-.612.645a8.035,8.035,0,0,0-1.283,0A3.067,3.067,0,0,0,1592.093,272.571Z" transform="translate(-120.884 -102.746)" fill="#ceeee4"/>
    <path id="Trazado_630406" data-name="Trazado 630406" d="M1446.408,180.769c0-1.475.015-2.951-.009-4.426-.007-.435.121-.595.563-.568.546.033,1.095.021,1.642.005a3.246,3.246,0,0,1,2.779,1.331,6.444,6.444,0,0,0,5.34,2.527c1.666,0,3.332.009,5-.007.413,0,.653.048.687.553a3.542,3.542,0,0,0,.36,1.147,8.765,8.765,0,0,1-6.282,11.8,8.449,8.449,0,0,1-10.076-8.36C1446.4,183.434,1446.409,182.1,1446.408,180.769Zm8.617,7.981a3.727,3.727,0,0,0,2.911-1.561,1.071,1.071,0,0,0-.134-1.581,1.083,1.083,0,0,0-1.517.223c-.98,1.052-1.885,1.06-2.83.024a1.072,1.072,0,1,0-1.644,1.364A3.8,3.8,0,0,0,1455.026,188.751Zm-3.73-6.652a1.071,1.071,0,1,0-1.082,1.162A1.091,1.091,0,0,0,1451.3,182.1Zm8.158,1.162a1.141,1.141,0,0,0,.072-2.275,1.091,1.091,0,0,0-1.111,1.064A1.114,1.114,0,0,0,1459.453,183.26Z" transform="translate(-19.247 -41.705)" fill="#f3cfaa"/>
    <path id="Trazado_630407" data-name="Trazado 630407" d="M1548.358,315.639q-7.593.008-15.187.025c-.4,0-.533-.1-.527-.512q.034-2.387,0-4.776c-.005-.4.107-.528.516-.526,4.3.021,8.6.025,12.9.033a13.284,13.284,0,0,0,1.727,4.563C1548.007,314.828,1548.381,315.142,1548.358,315.639Z" transform="translate(-80.813 -137.417)" fill="#84d8f4"/>
    <path id="Trazado_630408" data-name="Trazado 630408" d="M1505.145,315.653c-.9,0-1.806-.011-2.709,0-.626.01-.864-.277-.776-.884.215-1.479.431-2.959.628-4.44.052-.386.224-.491.6-.486q2.459.031,4.919,0c.41-.005.589.065.579.536-.03,1.591-.026,3.183,0,4.775.006.425-.146.514-.534.5C1506.952,315.636,1506.048,315.653,1505.145,315.653Z" transform="translate(-58.682 -137.414)" fill="#84d8f4"/>
    <path id="Trazado_630409" data-name="Trazado 630409" d="M1554.383,255.324a4.321,4.321,0,0,1-4.33-4.351c0-.413.007-.594.534-.432a12.78,12.78,0,0,0,7.639-.005c.44-.134.528-.05.529.382A4.372,4.372,0,0,1,1554.383,255.324Z" transform="translate(-93.24 -95.034)" fill="#e6a778"/>
    <path id="Trazado_630410" data-name="Trazado 630410" d="M1643.1,285.083c.257-.506.782-.724,1.17-1.09a12.211,12.211,0,0,0,3.981-7.634A12.02,12.02,0,0,0,1643.528,265c-.208-.169-.516-.27-.575-.594a10.865,10.865,0,0,1,6.808,8.344,11.2,11.2,0,0,1-6.4,12.255A1.891,1.891,0,0,1,1643.1,285.083Z" transform="translate(-159.557 -104.977)" fill="#b4e6d9"/>
    <path id="Trazado_630411" data-name="Trazado 630411" d="M1591.548,135.75a11.378,11.378,0,0,0,2.7-2.781,9.7,9.7,0,0,0,1.286-4.6c.054-1.163,0-2.331,0-3.5.64-.018,1.28-.037,1.92-.054.2-.005.391.009.381.289-.072,1.893.242,3.813-.345,5.671A7.178,7.178,0,0,1,1591.548,135.75Z" transform="translate(-122.861 -5.332)" fill="#e1b94c"/>
    <path id="Trazado_630412" data-name="Trazado 630412" d="M1494.666,254.951q.561-3.778,1.119-7.556c.208-1.423.388-2.85.608-4.272a10.433,10.433,0,0,1,1.6-3.993.987.987,0,0,0,.019-1.309,6.03,6.03,0,0,0-2.053-2.185.617.617,0,0,1,.8-.25,6.641,6.641,0,0,1,3.1,1.942c.161.18.323.325.066.585-2.1,2.128-2.846,4.811-3.116,7.685a10.1,10.1,0,0,1-.15,1.056,1.207,1.207,0,0,0,.867,1.557q-.16,1.3-.32,2.6c-.989.14-1.188.329-1.345,1.32a20.489,20.489,0,0,0-.3,2.174C1495.535,254.979,1495.244,255.123,1494.666,254.951Z" transform="translate(-53.702 -84.225)" fill="#60c2ab"/>
    <path id="Trazado_630413" data-name="Trazado 630413" d="M1548.74,168.261a29.3,29.3,0,0,1-3.083.781c-.329.029-.658.069-.989.07q-8.912.014-17.824.022c-.11-1.035-.11-1.035.87-1.035q6.984,0,13.968,0c2.4,0,4.809.154,7.058-1.143Z" transform="translate(-76.637 -35.413)" fill="#e6a778"/>
    <path id="Trazado_630414" data-name="Trazado 630414" d="M1498.6,156.027q.01-4.431.022-8.863a4.36,4.36,0,0,0-.442-1.406,1.838,1.838,0,0,1,2.1,2c.033,1.136.008,2.273.008,3.41a21.938,21.938,0,0,0,.02,2.484,3.739,3.739,0,0,1-.7,2.18C1499.386,156.279,1498.956,156.066,1498.6,156.027Z" transform="translate(-56.208 -20.275)" fill="#57727b"/>
    <path id="Trazado_630415" data-name="Trazado 630415" d="M1611.021,180.037c0-.878.016-1.758-.007-2.635-.01-.384.144-.43.467-.365a3.13,3.13,0,0,1-.016,6.083c-.352.074-.459-.018-.451-.376C1611.034,181.842,1611.021,180.94,1611.021,180.037Z" transform="translate(-136.756 -42.591)" fill="#e6a778"/>
    <path id="Trazado_630416" data-name="Trazado 630416" d="M1464.9,242.821a10.669,10.669,0,0,0,5.963.09c.462-.129.4.076.348.386a3.216,3.216,0,0,1-3.272,2.614A3.163,3.163,0,0,1,1464.9,242.821Z" transform="translate(-32.455 -89.568)" fill="#e6a778"/>
    <path id="Trazado_630417" data-name="Trazado 630417" d="M1512.314,180.164c0,.855-.015,1.71.006,2.564.01.41-.13.478-.507.381a3.132,3.132,0,0,1,0-6.046c.365-.087.522-.02.511.393C1512.3,178.359,1512.314,179.261,1512.314,180.164Z" transform="translate(-64.29 -42.603)" fill="#e6a778"/>
    <path id="Trazado_630418" data-name="Trazado 630418" d="M1434.547,187.21c0,.546-.021,1.093.006,1.637.022.46-.166.467-.5.294a2.241,2.241,0,0,1-.06-4.009c.457-.26.573-.095.555.369C1434.53,186.07,1434.547,186.64,1434.547,187.21Z" transform="translate(-9.53 -48.299)" fill="#e6a778"/>
    <path id="Trazado_630419" data-name="Trazado 630419" d="M1581.84,315.59c.022-.5-.351-.81-.565-1.193a13.284,13.284,0,0,1-1.727-4.563c.518-.136.791-.029.929.584a12.5,12.5,0,0,0,2.168,4.644c.108.147.207.3.363.529Z" transform="translate(-114.295 -137.368)" fill="#60c2ab"/>
    <path id="Trazado_630420" data-name="Trazado 630420" d="M1555.259,212.767a4.459,4.459,0,0,1-3.633-1.888,1.072,1.072,0,1,1,1.68-1.319c1.27,1.445,2.762,1.449,3.989.01a1.072,1.072,0,1,1,1.7,1.291A4.453,4.453,0,0,1,1555.259,212.767Z" transform="translate(-94.154 -65.467)" fill="#030404"/>
    <path id="Trazado_630421" data-name="Trazado 630421" d="M1542.083,193.016a1.115,1.115,0,0,1,1.077,1.179,1.075,1.075,0,0,1-1.12,1.122,1.033,1.033,0,0,1-1.02-1.128A1.079,1.079,0,0,1,1542.083,193.016Z" transform="translate(-86.792 -54.015)" fill="#030404"/>
    <path id="Trazado_630422" data-name="Trazado 630422" d="M1583.052,193.016a1.108,1.108,0,0,1,1.1,1.155,1.079,1.079,0,0,1-1.094,1.147,1.037,1.037,0,0,1-1.046-1.1A1.086,1.086,0,0,1,1583.052,193.016Z" transform="translate(-116.054 -54.014)" fill="#030404"/>
    <path id="Trazado_630423" data-name="Trazado 630423" d="M1600.36,280.836a3.067,3.067,0,0,1,2.984-3.1,8.033,8.033,0,0,1,1.282,0c.526.054.659-.165.612-.645a9.2,9.2,0,0,1,0-1.14,3.075,3.075,0,0,1,3-3.084,3.108,3.108,0,0,1,3.141,2.962,11.333,11.333,0,0,1,0,1.425c-.023.372.093.49.474.483a8.175,8.175,0,0,1,1.918.074,3.061,3.061,0,0,1-.457,6.064c-.613.031-1.406-.181-1.791.126-.411.328-.1,1.155-.139,1.764a3.087,3.087,0,0,1-3.179,2.986,3.054,3.054,0,0,1-2.979-3.1c-.018-.563.248-1.284-.115-1.647s-1.084-.1-1.647-.116A3.056,3.056,0,0,1,1600.36,280.836Zm7.019,3.416c0,.4-.006.808,0,1.212.013.742.312,1.115.893,1.127.609.012.956-.383.969-1.145.014-.808,0-1.616.006-2.424.011-.884.373-1.263,1.251-1.283.832-.019,1.664,0,2.5-.008.7-.01,1.12-.377,1.11-.93s-.45-.92-1.132-.933c-.832-.016-1.664,0-2.5-.007-.851-.01-1.215-.365-1.228-1.208s.01-1.711-.009-2.566c-.015-.666-.436-1.126-.981-1.07a.929.929,0,0,0-.881,1.081c.01.808.011,1.616,0,2.424-.015.972-.38,1.333-1.339,1.34-.832.006-1.665-.016-2.5.008a.922.922,0,0,0-1.024.944c0,.567.361.9,1.033.915.855.016,1.712-.009,2.567.01a1.134,1.134,0,0,1,1.257,1.23C1607.392,283.4,1607.378,283.824,1607.379,284.252Z" transform="translate(-129.151 -111.012)" fill="#030404"/>
    <path id="Trazado_630424" data-name="Trazado 630424" d="M1467.755,212.728a3.8,3.8,0,0,1-3.215-1.531,1.073,1.073,0,1,1,1.645-1.364c.946,1.036,1.851,1.028,2.83-.024a1.083,1.083,0,0,1,1.517-.223,1.071,1.071,0,0,1,.134,1.581A3.726,3.726,0,0,1,1467.755,212.728Z" transform="translate(-31.976 -65.683)" fill="#030404"/>
    <path id="Trazado_630425" data-name="Trazado 630425" d="M1458.181,195.1a1.071,1.071,0,1,1-2.136.044,1.07,1.07,0,1,1,2.136-.044Z" transform="translate(-26.132 -54.71)" fill="#030404"/>
    <path id="Trazado_630426" data-name="Trazado 630426" d="M1489.42,196.263a1.113,1.113,0,0,1-1.039-1.211,1.09,1.09,0,0,1,1.111-1.064,1.141,1.141,0,0,1-.072,2.275Z" transform="translate(-49.214 -54.708)" fill="#030404"/>
    <path id="Trazado_630427" data-name="Trazado 630427" d="M1612.759,289.619c0-.428.014-.856,0-1.283a1.134,1.134,0,0,0-1.257-1.23c-.855-.019-1.712.007-2.567-.01-.672-.013-1.032-.348-1.033-.915a.922.922,0,0,1,1.024-.944c.831-.024,1.664,0,2.5-.008.959-.007,1.325-.368,1.339-1.34.012-.808.01-1.616,0-2.424a.928.928,0,0,1,.881-1.081c.545-.056.966.4.981,1.07.02.855,0,1.711.009,2.566s.377,1.2,1.228,1.208c.832.01,1.664-.009,2.5.007.682.013,1.122.391,1.132.933s-.413.919-1.11.93c-.832.012-1.664-.011-2.5.008-.878.02-1.24.4-1.251,1.283-.01.808.008,1.616-.006,2.424-.013.762-.359,1.157-.969,1.145-.58-.012-.879-.384-.892-1.127C1612.754,290.427,1612.76,290.023,1612.759,289.619Z" transform="translate(-134.532 -116.379)" fill="#54af9c"/>
  </g>
</svg>
