<svg xmlns="http://www.w3.org/2000/svg" width="60" height="60" viewBox="0 0 60 60">
  <g id="Grupo_951883" data-name="Grupo 951883" transform="translate(-410 -1150)">
    <rect id="Rectángulo_305522" data-name="Rectángulo 305522" width="60" height="60" transform="translate(410 1150)" fill="none"/>
    <g id="Grupo_951887" data-name="Grupo 951887" transform="translate(415.632 1156.337)">
      <path id="Trazado_628315" data-name="Trazado 628315" d="M1803.857,92.034c-.193-.793-.025-1.125.732-1.443a13.321,13.321,0,1,1,8.11,25.247c-.786.162-.785.162-.673.947.054.376.124.752.143,1.13.016.322.135.4.456.4,2.6-.016,5.2-.009,7.8-.009,1.284,0,2.569,0,3.853,0a2.187,2.187,0,0,1,2.31,2.333q.006,3.114,0,6.228a2.2,2.2,0,0,1-2.308,2.342c-1.538.015-3.076,0-4.614,0q-4.447,0-8.895,0a2.064,2.064,0,0,1-.752-.065c-.463-.189-.643.047-.889.385a16.777,16.777,0,0,1-12.682,7.239,17.182,17.182,0,0,1-5.438-33.827,16.393,16.393,0,0,1,5.045-.435c.337.025.482-.014.5-.419a12.814,12.814,0,0,1,1.2-4.849c.325-.7.639-.85,1.4-.67a1,1,0,0,1,.336,1.444,11.28,11.28,0,0,0,.6,10.736,2.183,2.183,0,0,1,.3.984,8.794,8.794,0,0,1-.751,4.3c-.122.265-.13.361.214.4a8.8,8.8,0,0,0,4.859-.77,1.656,1.656,0,0,1,1.365-.078,11.235,11.235,0,0,0,5.335.541,11.417,11.417,0,1,0-6.053-21.8C1804.624,92.638,1804.392,92.593,1803.857,92.034ZM1784.427,130.6c.046-.053.076-.072.082-.1a10.664,10.664,0,0,1,4.663-6.889c.282-.189.2-.3.042-.5a7.366,7.366,0,0,1,8.308-11.418c.872.307.892.308.964-.638a2.4,2.4,0,0,0-.1-1.443,13.052,13.052,0,0,1-1.7-4.846c-.032-.241-.129-.335-.39-.352a16.35,16.35,0,0,0-4.117.22,15.323,15.323,0,0,0-9.411,24.106A11.431,11.431,0,0,0,1784.427,130.6Zm10.657,4.351a15.267,15.267,0,0,0,8.531-2.614c.171-.115.323-.2.292-.477a8.9,8.9,0,0,0-4.417-6.938.494.494,0,0,0-.592.017,7.233,7.233,0,0,1-7.662-.006.492.492,0,0,0-.591,0,8.906,8.906,0,0,0-4.4,6.7.726.726,0,0,0,.4.8A15.448,15.448,0,0,0,1795.084,134.948Zm12.7-11.192a10.868,10.868,0,0,0,1.166.762,1.886,1.886,0,0,1,1.2,2.2c-.072.419.114.594.558.593q6.7-.016,13.4,0c.467,0,.592-.171.588-.619-.021-1.948-.009-3.9-.009-5.844,0-.639-.005-.645-.631-.645q-6.321,0-12.642,0c-1.439,0-1.271-.213-1.263,1.246a1.2,1.2,0,0,1-.613,1.139C1808.959,122.953,1808.4,123.343,1807.783,123.756Zm-12.749.355a5.484,5.484,0,0,0,5.2-7.3.622.622,0,0,0-.638-.5,7.953,7.953,0,0,1-1.634-.287.961.961,0,0,1-.681-1.517,2.266,2.266,0,0,1,.207-.373c.2-.255.093-.375-.162-.481a5.605,5.605,0,0,0-3.063-.409,5.462,5.462,0,0,0,.776,10.866Zm10.634,6.56a14.606,14.606,0,0,0,2.493-3.133,1.206,1.206,0,0,0-.385-1.5c-.713-.471-1.43-.937-2.137-1.416a.96.96,0,0,1,.006-1.731c.735-.495,1.47-.993,2.222-1.46a.735.735,0,0,0,.381-.729,2.163,2.163,0,0,1,1.779-2.347c.256-.066.286-.157.244-.381-.09-.482-.172-.966-.231-1.453-.036-.294-.156-.391-.46-.388a11.791,11.791,0,0,1-3.734-.607.891.891,0,0,0-.681.041,9.39,9.39,0,0,1-2.737.742c-.293.032-.328.129-.26.392a7.177,7.177,0,0,1-1.286,6.455c-.173.227-.138.309.083.452a10.55,10.55,0,0,1,2.945,2.864A11.013,11.013,0,0,1,1805.668,130.671Z" transform="translate(-1777.855 -89.503)" fill="#020302"/>
      <path id="Trazado_628316" data-name="Trazado 628316" d="M1856.355,96.9c.536.558.768.6,1.513.293a11.417,11.417,0,1,1,6.053,21.8,11.235,11.235,0,0,1-5.335-.541,1.656,1.656,0,0,0-1.365.078,8.794,8.794,0,0,1-4.859.77c-.343-.04-.335-.136-.214-.4a8.794,8.794,0,0,0,.752-4.3,2.185,2.185,0,0,0-.3-.984,11.281,11.281,0,0,1-.6-10.736,1,1,0,0,0-.336-1.444l1.374-1.93a.982.982,0,0,0,1.322.024q.556-.5.083-1.361A10.248,10.248,0,0,1,1856.355,96.9Zm-2.17,11.52q0,1.831,0,3.661a1.565,1.565,0,0,0,1.047,1.7,9.45,9.45,0,0,0,4.085.021c.551-.653,1.209-.437,1.866-.23a.29.29,0,0,0,.047.006,29.031,29.031,0,0,0,4.891.089,4.313,4.313,0,0,0,4.025-3.61,15.53,15.53,0,0,0,.052-3.557,3.08,3.08,0,0,0-2.537-2.778,4.568,4.568,0,0,0-1.089-.053c-.322.015-.448-.064-.431-.413.028-.6.024-1.2,0-1.806a2.373,2.373,0,0,0-1.74-2.141,2.145,2.145,0,0,0-2.473.956,5.463,5.463,0,0,0-.539,1.106c-.3.782-.6,1.564-.913,2.341-.1.245-.207.392-.414.032a1.655,1.655,0,0,0-1.553-.831c-.792,0-1.585,0-2.378,0a1.767,1.767,0,0,0-1.945,1.944C1854.182,106.041,1854.186,107.23,1854.186,108.419Z" transform="translate(-1830.354 -94.367)" fill="#f6cb78"/>
      <path id="Trazado_628317" data-name="Trazado 628317" d="M1859.186,102.263q.473.863-.083,1.361a.982.982,0,0,1-1.322-.024q-.528-.827.037-1.364C1858.2,101.878,1858.62,101.887,1859.186,102.263Z" transform="translate(-1835.102 -98.464)" fill="#020302"/>
      <path id="Trazado_628318" data-name="Trazado 628318" d="M1789.33,168.554a11.422,11.422,0,0,1-1.657-1.858,15.323,15.323,0,0,1,9.411-24.106,16.348,16.348,0,0,1,4.117-.22c.26.017.358.111.39.352a13.048,13.048,0,0,0,1.7,4.846,2.4,2.4,0,0,1,.1,1.443c-.072.946-.092.945-.964.638a7.366,7.366,0,0,0-8.308,11.418c.156.205.24.311-.042.5a10.665,10.665,0,0,0-4.663,6.889C1789.407,168.482,1789.376,168.5,1789.33,168.554Z" transform="translate(-1782.758 -127.46)" fill="#84dcf2"/>
      <path id="Trazado_628319" data-name="Trazado 628319" d="M1816.479,225.13a15.449,15.449,0,0,1-8.44-2.524.726.726,0,0,1-.4-.8,8.906,8.906,0,0,1,4.4-6.7.492.492,0,0,1,.591,0,7.233,7.233,0,0,0,7.662.006.494.494,0,0,1,.592-.017,8.9,8.9,0,0,1,4.417,6.938c.031.272-.121.361-.293.477A15.267,15.267,0,0,1,1816.479,225.13Z" transform="translate(-1799.25 -179.684)" fill="#f6cb78"/>
      <path id="Trazado_628320" data-name="Trazado 628320" d="M1884.187,202.127c.621-.413,1.177-.8,1.752-1.16a1.2,1.2,0,0,0,.613-1.139c-.009-1.459-.177-1.244,1.263-1.246q6.322-.011,12.643,0c.625,0,.631.006.631.645,0,1.948-.012,3.9.009,5.844,0,.449-.121.621-.587.619q-6.7-.018-13.4,0c-.444,0-.63-.175-.558-.593a1.886,1.886,0,0,0-1.2-2.2A10.909,10.909,0,0,1,1884.187,202.127Zm5.393.946a.948.948,0,0,0,.939-.977.979.979,0,0,0-.952-.931.961.961,0,0,0-.954.968A.926.926,0,0,0,1889.58,203.073Zm8.548,0a.948.948,0,0,0,.955-.961.981.981,0,0,0-.984-.948.965.965,0,0,0-.922.953A.929.929,0,0,0,1898.128,203.073Zm-4.288,0a.95.95,0,0,0,.96-.957.981.981,0,0,0-.979-.952.963.963,0,0,0-.926.948A.93.93,0,0,0,1893.84,203.074Z" transform="translate(-1854.259 -167.874)" fill="#f6f4f2"/>
      <path id="Trazado_628321" data-name="Trazado 628321" d="M1824.991,184.561a5.462,5.462,0,0,1-.777-10.866,5.606,5.606,0,0,1,3.064.409c.255.106.362.226.162.481a2.267,2.267,0,0,0-.207.373.961.961,0,0,0,.681,1.517,7.957,7.957,0,0,0,1.634.287.622.622,0,0,1,.638.5A5.484,5.484,0,0,1,1824.991,184.561Z" transform="translate(-1807.812 -149.953)" fill="#f7dbd4"/>
      <path id="Trazado_628322" data-name="Trazado 628322" d="M1864.173,196.971a11,11,0,0,0-1.757-4.2,10.549,10.549,0,0,0-2.945-2.864c-.221-.143-.256-.225-.083-.452a7.178,7.178,0,0,0,1.286-6.455c-.069-.263-.034-.36.259-.392a9.4,9.4,0,0,0,2.738-.742.891.891,0,0,1,.681-.041,11.787,11.787,0,0,0,3.734.607c.3,0,.424.095.46.388.06.486.141.971.231,1.453.042.224.012.315-.244.381a2.163,2.163,0,0,0-1.78,2.347.734.734,0,0,1-.381.729c-.753.467-1.487.965-2.222,1.46a.96.96,0,0,0-.006,1.731c.707.48,1.425.945,2.137,1.416a1.206,1.206,0,0,1,.385,1.5A14.59,14.59,0,0,1,1864.173,196.971Z" transform="translate(-1836.361 -155.802)" fill="#84dcf2"/>
      <path id="Trazado_628323" data-name="Trazado 628323" d="M1862.524,115.922c0-1.189,0-2.377,0-3.566a1.767,1.767,0,0,1,1.945-1.944c.793,0,1.586,0,2.378,0a1.655,1.655,0,0,1,1.553.831c.207.36.315.213.413-.032.313-.777.612-1.56.913-2.341a5.457,5.457,0,0,1,.539-1.106,2.145,2.145,0,0,1,2.473-.956,2.373,2.373,0,0,1,1.74,2.141c.025.6.029,1.205,0,1.806-.017.349.109.428.431.413a4.571,4.571,0,0,1,1.089.053,3.08,3.08,0,0,1,2.537,2.778,15.537,15.537,0,0,1-.052,3.557,4.314,4.314,0,0,1-4.025,3.61,29.027,29.027,0,0,1-4.891-.089.289.289,0,0,1-.047-.006c-.657-.207-1.315-.423-1.866.23a9.449,9.449,0,0,1-4.085-.021,1.565,1.565,0,0,1-1.047-1.7Q1862.523,117.753,1862.524,115.922Zm6.156.261v1.71c0,1.036-.008,1.084,1.007,1.258a20.02,20.02,0,0,0,4.972.071,2.384,2.384,0,0,0,2-2.328c.03-.854.024-1.71,0-2.564a1.248,1.248,0,0,0-1.272-1.262c-.538-.018-1.077,0-1.615-.008-.841,0-1.187-.346-1.189-1.18q0-1.353,0-2.707a.5.5,0,0,0-.375-.536c-.268-.076-.354.158-.451.33a4,4,0,0,0-.227.52c-.29.751-.561,1.509-.868,2.253a2.637,2.637,0,0,1-1.762,1.722c-.241.063-.225.216-.225.394C1868.681,114.632,1868.68,115.408,1868.68,116.183Zm-1.9-.22c0-1.107-.005-2.214,0-3.321,0-.225-.025-.345-.3-.335-.585.021-1.171.015-1.756,0-.224-.005-.3.063-.3.294q.011,3.321,0,6.642c0,.265.1.315.336.31.553-.013,1.108-.023,1.66,0,.3.014.369-.082.364-.37C1866.766,118.114,1866.777,117.039,1866.777,115.963Z" transform="translate(-1838.692 -101.87)" fill="#020302"/>
      <path id="Trazado_628324" data-name="Trazado 628324" d="M1900.88,209.693a.926.926,0,0,1-.967-.94.961.961,0,0,1,.954-.968.98.98,0,0,1,.952.931A.948.948,0,0,1,1900.88,209.693Z" transform="translate(-1865.559 -174.494)" fill="#020302"/>
      <path id="Trazado_628325" data-name="Trazado 628325" d="M1931.291,209.69a.929.929,0,0,1-.95-.956.965.965,0,0,1,.922-.953.981.981,0,0,1,.984.948A.948.948,0,0,1,1931.291,209.69Z" transform="translate(-1887.422 -174.49)" fill="#020302"/>
      <path id="Trazado_628326" data-name="Trazado 628326" d="M1916.07,209.691a.931.931,0,0,1-.945-.962.963.963,0,0,1,.927-.948.981.981,0,0,1,.979.952A.949.949,0,0,1,1916.07,209.691Z" transform="translate(-1876.489 -174.491)" fill="#020302"/>
      <path id="Trazado_628327" data-name="Trazado 628327" d="M1884.4,121.054c0-.776,0-1.551,0-2.327,0-.177-.016-.33.225-.394a2.637,2.637,0,0,0,1.761-1.722c.307-.744.578-1.5.868-2.253a4.013,4.013,0,0,1,.227-.52c.1-.173.183-.407.451-.33a.5.5,0,0,1,.375.536q-.008,1.354,0,2.707c0,.833.349,1.175,1.19,1.18.538,0,1.078-.01,1.615.008a1.248,1.248,0,0,1,1.272,1.262c.021.854.027,1.71,0,2.564a2.384,2.384,0,0,1-2,2.328,20.023,20.023,0,0,1-4.972-.071c-1.015-.174-1.006-.222-1.006-1.258Z" transform="translate(-1854.41 -106.741)" fill="#f7dbd4"/>
      <path id="Trazado_628328" data-name="Trazado 628328" d="M1871.629,130.24c0,1.075-.011,2.151.007,3.226,0,.288-.063.384-.364.37-.553-.026-1.107-.016-1.661,0-.233.005-.337-.045-.336-.31q.014-3.321,0-6.642c0-.231.076-.3.3-.294.585.012,1.171.019,1.755,0,.275-.01.3.11.3.335C1871.624,128.026,1871.629,129.133,1871.629,130.24Z" transform="translate(-1843.545 -116.147)" fill="#84dcf2"/>
    </g>
  </g>
</svg>
