<svg xmlns="http://www.w3.org/2000/svg" width="77.798" height="66.563" viewBox="0 0 77.798 66.563">
  <g id="Grupo_955024" data-name="Grupo 955024" transform="translate(-1156.219 -395.663)">
    <path id="Trazado_630361" data-name="Trazado 630361" d="M1179.894,458.588a1.317,1.317,0,0,1-1.521,1.145c-2.3-.014-4.607.012-6.909-.011a2.683,2.683,0,0,1-2.936-2.985c0-3.365-.013-6.73.012-10.095,0-.53-.133-.661-.663-.673a11.9,11.9,0,0,1-1.508-23.675,11.713,11.713,0,0,1,7.872,1.557c.885.525,1.01.9.656,1.877a1.416,1.416,0,0,1-1.863.069,8.5,8.5,0,0,0-4.672-1.3,3.146,3.146,0,0,0-.446-.053,9.618,9.618,0,0,0,.316,19.234,4.881,4.881,0,0,0,1.357-.068,9.614,9.614,0,0,0,7.121-13.916,1.381,1.381,0,0,1,.222-1.778c1.005-.3,1.351-.152,1.832.767a11.069,11.069,0,0,1,1.1,3.289c.069.406.216.524.625.52,2.026-.022,4.053-.009,6.079-.012.24,0,.53.079.5-.347-.018-.3.025-.533-.412-.643a8.927,8.927,0,0,1-6.666-6.212.512.512,0,0,0-.584-.417c-4.166-.064-6.084-4.359-4.393-7.811a.774.774,0,0,0-.105-.98,5.837,5.837,0,0,1,1.091-8.243.735.735,0,0,0,.311-.867,5.875,5.875,0,0,1,5.69-7.026.619.619,0,0,0,.66-.438,5.858,5.858,0,0,1,8.846-2.784.611.611,0,0,0,.793-.017,5.87,5.87,0,0,1,8.844,2.82.543.543,0,0,0,.591.415,5.882,5.882,0,0,1,5.719,7.12.664.664,0,0,0,.314.754,5.839,5.839,0,0,1,.99,8.42c-.3.386-.15.6,0,.918,1.318,2.853.321,6.872-3.449,7.563a2.39,2.39,0,0,0-2.062,1.724,8.566,8.566,0,0,1-6.01,5.011c-.436.113-.646.247-.6.73.058.553.459.3.689.3,1.773.024,3.546.005,5.319.02a1.506,1.506,0,0,0,1.037-.344,15.935,15.935,0,0,1,6.612-3.233c.491-.11.548-.258.382-.737a12.037,12.037,0,1,1,17.146,6.412c-.108.062-.211.132-.351.22a16.964,16.964,0,0,1,3.3,6.934,4.917,4.917,0,0,1,.177,1.043c0,.648-.444.975-1.008,1.17-.9-.066-1.218-.645-1.361-1.452a14.255,14.255,0,0,0-2.839-6.213,1.034,1.034,0,0,0-1.262-.474,7.886,7.886,0,0,1-1.873.265,11.846,11.846,0,0,1-10.224-4.79.732.732,0,0,0-.819-.347,14.824,14.824,0,0,0-11.392,10.461,2.666,2.666,0,0,1-1.023,1.525c-1.034.759-2.036,1.561-3.116,2.395,1.09.845,2.111,1.669,3.169,2.444a2.466,2.466,0,0,1,.946,1.4,14.25,14.25,0,0,0,8.87,9.807,13.823,13.823,0,0,0,11.267-.369,4.738,4.738,0,0,0,.56-.214,14.4,14.4,0,0,0,7.721-10.115c.169-.788.5-1.31,1.36-1.348.919.4,1.1.753.9,1.786A16.879,16.879,0,0,1,1205.9,460a2.37,2.37,0,0,0-1.233-.273q-10.065.008-20.13,0c-1.127,0-1.368-.171-1.674-1.138.3-.98.506-1.138,1.58-1.139q8.508,0,17.016-.005a1.329,1.329,0,0,0,.837-.1,1.866,1.866,0,0,0-.167-.242,16.819,16.819,0,0,1-4.1-7.077,1.327,1.327,0,0,0-.541-.7c-1-.77-2.011-1.536-3.009-2.314a1.927,1.927,0,0,1-.023-3.346q1.492-1.173,3.006-2.318a1.526,1.526,0,0,0,.593-.837,16.619,16.619,0,0,1,2.575-5.2c.106-.145.335-.261.194-.543-1.151,0-2.313.026-3.474-.012-.491-.016-.68.106-.783.617a4.776,4.776,0,0,1-9.416-.038c-.1-.519-.3-.578-.731-.573-1.62.018-3.241.007-4.862.007-1.4,0-1.417,0-1.673,1.4a11.754,11.754,0,0,1-8.634,9.413.488.488,0,0,0-.449.56q.025,5.348,0,10.7c0,.415.161.625.569.62,1.591-.021,3.184.076,4.774-.05.752.018,1.5.04,2.257.053C1179.385,457.465,1179.6,457.631,1179.894,458.588Zm11.3-26.844c-.452-.011-.906,0-1.355-.04-.428-.037-.5.172-.489.535.019.779-.009,1.56.011,2.339a2.507,2.507,0,0,0,5.005.111c.04-.832,0-1.667.018-2.5.009-.351-.086-.5-.464-.484C1193.008,431.737,1192.1,431.733,1191.19,431.743Zm30.852-17.388a3.392,3.392,0,0,0-.375-.031,9.736,9.736,0,0,0,.517,19.466c.151,0,.3.019.453.013a9.8,9.8,0,0,0,9.032-11.02C1230.89,417.812,1226.672,414.12,1222.042,414.355Zm-38.913-5.777a8.6,8.6,0,0,1,1.809-.147q6.987.008,13.973,0c3.191,0,5.193,1.962,5.184,5.129,0,.609.136.842.775.848a2.774,2.774,0,0,1,1.3.35c.6.347.861.055,1.133-.4a3.625,3.625,0,0,0-1.527-5.111c-1-.509-1.208-.939-.818-1.848a3.636,3.636,0,0,0-4.134-5.085c-.938.2-1.431-.177-1.593-1.131a3.762,3.762,0,0,0-.74-1.8,3.593,3.593,0,0,0-5.523-.275c-.844.845-1.294.836-2.152-.02a4.608,4.608,0,0,0-.541-.405,1.736,1.736,0,0,0-.279-.247,3.608,3.608,0,0,0-5.369,2.528c-.219,1.211-.654,1.557-1.721,1.336a3.5,3.5,0,0,0-3.549,1.182,3.54,3.54,0,0,0-.594,3.7c.425,1.245.354,1.47-.814,2.1a3.62,3.62,0,0,0-1.384,5.2c.227.364.434.575.9.313a3.166,3.166,0,0,1,1.526-.395c.506,0,.654-.185.631-.669A4.833,4.833,0,0,1,1183.129,408.578Zm2.43,2.162c-.43-.006-.861-.039-1.289-.013a2.451,2.451,0,0,0-2.362,2.41c-.023,3.339-.061,6.68.019,10.017a6.641,6.641,0,0,0,6.366,6.234c2.378.009,4.757.073,7.133.016a6.658,6.658,0,0,0,6.381-6.4c.061-3.263.032-6.527.013-9.791a2.441,2.441,0,0,0-2.445-2.486C1194.77,410.709,1190.165,410.733,1185.559,410.74Zm-5.944,8.9c0-.809-.036-1.62.013-2.426.035-.579-.22-.621-.674-.532a2.719,2.719,0,0,0-2.224,2.45q-.182,2.6,1.8,3.295a3.822,3.822,0,0,0,.511.131c.4.079.6-.016.583-.493C1179.589,421.263,1179.615,420.453,1179.615,419.644Zm24.5-.032c0,.759.047,1.521-.014,2.275-.054.659.21.776.774.654,1.421-.306,2.21-1.518,2.128-3.3a2.747,2.747,0,0,0-2.352-2.582c-.464-.067-.557.105-.543.523C1204.13,417.994,1204.111,418.8,1204.111,419.613Z" transform="translate(0 0)" fill="#030303"/>
    <path id="Trazado_630362" data-name="Trazado 630362" d="M1311.622,514.109a14.022,14.022,0,0,1,5.974-2.64.732.732,0,0,1,.819.347,11.846,11.846,0,0,0,10.224,4.79,7.885,7.885,0,0,0,1.873-.265,1.034,1.034,0,0,1,1.262.474,14.255,14.255,0,0,1,2.839,6.213c.143.807.46,1.386,1.361,1.452a7.417,7.417,0,0,1-.016,2.974c-.863.037-1.191.56-1.36,1.348a14.4,14.4,0,0,1-7.721,10.115,4.727,4.727,0,0,1-.561.214,12.016,12.016,0,0,1-4.288-.065c-6.366-1.23-10.759-4.834-12.663-11.1a15.1,15.1,0,0,1,1.464-12.338C1311.111,515.135,1311.591,514.734,1311.622,514.109Zm9.048,21.4a9.8,9.8,0,0,0,9.8-9c.014-.177.02-.354.02-.531,0-.829-.412-1.33-1.105-1.349s-1.139.444-1.175,1.279a7.292,7.292,0,0,1-2.4,5.31,7.126,7.126,0,0,1-7.825,1.475,7.263,7.263,0,0,1-4.771-6.7c-.073-.969-.491-1.417-1.247-1.356-.706.057-1.076.588-1.039,1.49A9.8,9.8,0,0,0,1320.67,535.51Zm2.492-13.828c0,.453-.03.908.007,1.358a1.025,1.025,0,0,0,1.024,1.014,1.013,1.013,0,0,0,1.18-.919,10.991,10.991,0,0,0,0-2.857,1,1,0,0,0-1.117-.909,1.039,1.039,0,0,0-1.088,1.032C1323.131,520.824,1323.16,521.254,1323.162,521.682Zm-7.13.03c0,.453-.03.908.007,1.358a1.015,1.015,0,0,0,.974.981.988.988,0,0,0,1.192-.8,8.877,8.877,0,0,0,0-3.073.979.979,0,0,0-1.117-.809,1.025,1.025,0,0,0-1.049.987C1316,520.8,1316.031,521.259,1316.032,521.711Z" transform="translate(-106.027 -80.529)" fill="#f6cf6e"/>
    <path id="Trazado_630363" data-name="Trazado 630363" d="M1225.391,547.862c-.289-.957-.51-1.123-1.491-1.14-.752-.013-1.5-.035-2.256-.053l-.009-8.065c1.057-.057,1.057-.057,1.064.966,0,.025,0,.051,0,.076.011.9.406,1.4,1.118,1.412.744.015,1.154-.492,1.163-1.437.009-1.036.009-1.036,1.02-1.043.947-.006,1.469-.411,1.469-1.14s-.515-1.132-1.467-1.141c-1.013-.009-1.029-.009-1.017-1.042.007-.667-.143-1.217-.868-1.4-.829-.211-1.406.358-1.418,1.372-.014,1.1-.014,1.1-1.063,1.045l0-4.055a12.361,12.361,0,0,0,3.741-6.787c.256-1.4.271-1.4,1.672-1.4,1.621,0,3.241.011,4.862-.007.432,0,.631.055.731.573a4.776,4.776,0,0,0,9.416.038c.1-.511.292-.633.783-.617,1.161.039,2.323.013,3.474.013.141.282-.088.4-.194.543a16.618,16.618,0,0,0-2.575,5.2,1.526,1.526,0,0,1-.593.837q-1.512,1.147-3.006,2.318a1.927,1.927,0,0,0,.023,3.346c1,.777,2,1.544,3.008,2.314a1.328,1.328,0,0,1,.541.7,16.817,16.817,0,0,0,4.1,7.077,1.869,1.869,0,0,1,.167.242,1.327,1.327,0,0,1-.836.1q-8.508.009-17.016.006c-1.074,0-1.285.159-1.58,1.139Z" transform="translate(-45.497 -89.274)" fill="#53bcf1"/>
    <path id="Trazado_630364" data-name="Trazado 630364" d="M1191.182,493.763a1.381,1.381,0,0,0-.222,1.778,9.614,9.614,0,0,1-7.121,13.916,4.88,4.88,0,0,1-1.358.068c-.4-.262-.8-.511-1.187-.79a3.055,3.055,0,0,1-1.421-1.579c.193.06.385.124.579.18a7.058,7.058,0,0,0,8.876-5.587c.248-1.673-.295-2.3-1.987-2.307q-5.316-.006-10.633-.009a6.258,6.258,0,0,1,.3-1.6c.227.107.448.228.681.32a3.068,3.068,0,0,0,4.174-2.652,1.168,1.168,0,0,0-.985-1.311,1.1,1.1,0,0,0-1.271,1.009c-.078.524-.283.893-.838.871-.622-.024-.755-.494-.764-1.019a9.486,9.486,0,0,1,4.607-4.709,8.5,8.5,0,0,1,4.672,1.3,1.416,1.416,0,0,0,1.863-.069A8.442,8.442,0,0,1,1191.182,493.763Zm-2.148,1.725a1.144,1.144,0,0,0-.987-1.3,1.1,1.1,0,0,0-1.263,1.026c-.081.488-.254.844-.774.854-.561.011-.745-.36-.824-.881a1.1,1.1,0,0,0-1.284-1,1.145,1.145,0,0,0-.967,1.244,3.053,3.053,0,0,0,6.1.051Z" transform="translate(-14.251 -65.85)" fill="#f6dd84"/>
    <path id="Trazado_630365" data-name="Trazado 630365" d="M1189.231,453.028a1.11,1.11,0,0,1-.887,1.088,1.764,1.764,0,0,1-.452.029c-1.118.024-1.118.023-1.142,1.138-.018.836-.426,1.328-1.113,1.345-.726.018-1.154-.48-1.168-1.359-.019-1.1-.019-1.1-1.159-1.123-.826-.018-1.327-.441-1.336-1.127s.489-1.131,1.306-1.154c.051,0,.1,0,.152,0,1.03-.009,1.03-.01,1.037-1.02.006-.953.407-1.471,1.139-1.469s1.135.522,1.142,1.473c.008,1.006.008,1.006,1.039,1.017C1188.735,451.873,1189.246,452.286,1189.231,453.028Z" transform="translate(-17.912 -37.357)" fill="#030303"/>
    <path id="Trazado_630366" data-name="Trazado 630366" d="M1339.392,430.731a1.119,1.119,0,0,1-1.169-1.131c-.028-.425.12-.966-.09-1.246-.231-.309-.8-.077-1.222-.11a1.143,1.143,0,1,1,.041-2.281c1.222-.055,1.222-.055,1.267-1.243a1.145,1.145,0,1,1,2.281-.006c.055,1.2.055,1.2,1.259,1.249a1.144,1.144,0,1,1-.033,2.28c-1.184.048-1.184.048-1.226,1.21C1340.472,430.229,1340.053,430.712,1339.392,430.731Z" transform="translate(-124.849 -19.347)" fill="#030303"/>
    <path id="Trazado_630367" data-name="Trazado 630367" d="M1250.43,445.136c4.605-.007,9.211-.031,13.816-.012a2.441,2.441,0,0,1,2.445,2.486c.019,3.263.048,6.528-.013,9.791a6.658,6.658,0,0,1-6.381,6.4c-2.376.057-4.755-.006-7.133-.016a.92.92,0,0,0-.107-.1,7.781,7.781,0,0,1-3.549-7.006c.041-1.589,0-3.181-.011-4.772,1.43-1.151,2.1-1.222,3.2-.337a1.157,1.157,0,0,0,1.74,0,1.178,1.178,0,0,0-.253-1.733,4.3,4.3,0,0,0-4.453-.885.458.458,0,0,1-.208-.376A4.289,4.289,0,0,1,1250.43,445.136Zm6.275,16.678a6.794,6.794,0,0,0,4.6-1.807,1.159,1.159,0,0,0,.241-1.729c-.461-.527-1.1-.521-1.74.016a4.425,4.425,0,0,1-6.121.019c-.655-.551-1.267-.57-1.741-.054a1.151,1.151,0,0,0,.2,1.727A6.757,6.757,0,0,0,1256.7,461.814Zm1.172-9.643a1.127,1.127,0,0,0-.754-1.088,1.079,1.079,0,0,0-1.335.434q-.876,1.283-1.724,2.585a.993.993,0,0,0-.022,1.209,10.337,10.337,0,0,0,2.163,2,1,1,0,0,0,1.367-.234,1.044,1.044,0,0,0,.081-1.39,1.732,1.732,0,0,0-.475-.484c-.654-.414-.665-.837-.186-1.433A3.21,3.21,0,0,0,1257.877,452.171Zm4.137-3.478a3.989,3.989,0,0,0-2.792,1.2,1.142,1.142,0,1,0,1.5,1.712,1.951,1.951,0,0,1,2.9.013,1.15,1.15,0,0,0,1.634,0,1.129,1.129,0,0,0-.1-1.683A4.187,4.187,0,0,0,1262.013,448.693Z" transform="translate(-64.87 -34.396)" fill="#f4cdbf"/>
    <path id="Trazado_630368" data-name="Trazado 630368" d="M1251.745,403.889a4.61,4.61,0,0,1,.54.405c.858.856,1.308.865,2.152.02a3.593,3.593,0,0,1,5.523.275,3.766,3.766,0,0,1,.74,1.8c.162.954.655,1.333,1.593,1.131a3.636,3.636,0,0,1,4.134,5.085c-.39.909-.182,1.339.818,1.848a3.624,3.624,0,0,1,1.527,5.111c-.272.459-.529.752-1.133.4a2.773,2.773,0,0,0-1.3-.35c-.638-.006-.776-.24-.775-.848.01-3.167-1.993-5.128-5.184-5.129q-6.986,0-13.973,0a8.593,8.593,0,0,0-1.809.147,2.978,2.978,0,0,1,.079-.592,17.61,17.61,0,0,1,3.606-6.2A29.658,29.658,0,0,1,1251.745,403.889Z" transform="translate(-61.467 -5.208)" fill="#995242"/>
    <path id="Trazado_630369" data-name="Trazado 630369" d="M1359.2,457.029c4.63-.235,8.848,3.456,9.628,8.427a9.8,9.8,0,0,1-9.032,11.02c-.151.006-.3-.008-.453-.013-.675-.459-1.37-.891-2.016-1.386-.353-.27-.831-.491-.821-1.061.147.036.3.063.44.108a7.116,7.116,0,0,0,9.2-5.383c.352-1.694-.333-2.534-2.016-2.507-3.566.057-7.134.013-10.7.01.049-.443.065-.893.154-1.328a7.091,7.091,0,0,1,1.176-3.177c.008.654.009,1.309.027,1.963a1.141,1.141,0,1,0,2.274.015c.021-.7.008-1.411,0-2.116-.006-1.045-.3-1.371-1.355-1.513A13.523,13.523,0,0,1,1359.2,457.029Zm4.338,5.563h-.02a11.775,11.775,0,0,0-.013-1.507,1.114,1.114,0,0,0-2.217.111c-.027.881-.034,1.765,0,2.645a1.071,1.071,0,0,0,1.1,1.1,1.1,1.1,0,0,0,1.145-1.068A12.641,12.641,0,0,0,1363.54,462.592Z" transform="translate(-137.16 -42.673)" fill="#f9edb2"/>
    <path id="Trazado_630370" data-name="Trazado 630370" d="M1296.549,520.191c-.031.625-.511,1.026-.793,1.517a15.1,15.1,0,0,0-1.464,12.338c1.9,6.268,6.3,9.871,12.663,11.1a12.016,12.016,0,0,0,4.288.065,13.822,13.822,0,0,1-11.267.369,14.249,14.249,0,0,1-8.87-9.807,2.466,2.466,0,0,0-.946-1.4c-1.058-.774-2.079-1.6-3.169-2.444,1.08-.834,2.082-1.636,3.116-2.395a2.666,2.666,0,0,0,1.023-1.525A13.986,13.986,0,0,1,1296.549,520.191Z" transform="translate(-90.954 -86.611)" fill="#f3c25c"/>
    <path id="Trazado_630371" data-name="Trazado 630371" d="M1235.424,403.9a29.668,29.668,0,0,0-3.464,3.1,17.615,17.615,0,0,0-3.606,6.2,2.988,2.988,0,0,0-.079.592,4.833,4.833,0,0,0-3.5,5.144c.022.485-.125.667-.631.669a3.166,3.166,0,0,0-1.526.395c-.468.262-.673.051-.9-.313a3.62,3.62,0,0,1,1.384-5.2c1.167-.625,1.239-.85.814-2.1a3.539,3.539,0,0,1,.594-3.7,3.5,3.5,0,0,1,3.549-1.182c1.067.221,1.5-.125,1.721-1.336a3.608,3.608,0,0,1,5.369-2.528A1.735,1.735,0,0,1,1235.424,403.9Z" transform="translate(-45.146 -5.221)" fill="#7e4232"/>
    <path id="Trazado_630372" data-name="Trazado 630372" d="M1209.439,557.326l.009,8.065c-1.59.126-3.182.029-4.774.05-.408.005-.57-.2-.569-.62q.014-5.348,0-10.7a.488.488,0,0,1,.449-.56,12.389,12.389,0,0,0,4.893-2.626q0,2.027,0,4.055c-.948.091-1.35.391-1.409,1.052C1207.964,556.81,1208.425,557.229,1209.439,557.326Z" transform="translate(-33.302 -107.997)" fill="#48a6e7"/>
    <path id="Trazado_630373" data-name="Trazado 630373" d="M1345.558,461.692a7.086,7.086,0,0,0-1.176,3.177c-.09.435-.105.885-.154,1.328a1.642,1.642,0,0,0-1.312,2.112,7.271,7.271,0,0,0,4.052,5.5c.058.163.186.188.336.165l.006-.006c-.01.57.467.791.821,1.061.646.5,1.341.927,2.016,1.386a9.736,9.736,0,0,1-.517-19.466,3.4,3.4,0,0,1,.374.031,13.522,13.522,0,0,0-3.5,3.06A1.444,1.444,0,0,0,1345.558,461.692Z" transform="translate(-127.962 -42.626)" fill="#f6dd84"/>
    <path id="Trazado_630374" data-name="Trazado 630374" d="M1173.6,490.229a9.485,9.485,0,0,0-4.607,4.709,1.133,1.133,0,0,0-1.468-.811c-.733.227-.842.836-.757,1.52a3.344,3.344,0,0,0,1.229,2.074,6.248,6.248,0,0,0-.3,1.6,1.633,1.633,0,0,0-1.273,2.126,7.059,7.059,0,0,0,4.438,5.6,3.054,3.054,0,0,0,1.421,1.579c.384.279.791.528,1.187.79a9.618,9.618,0,0,1-.316-19.234A3.145,3.145,0,0,1,1173.6,490.229Z" transform="translate(-5.235 -65.736)" fill="#f0ca6c"/>
    <path id="Trazado_630375" data-name="Trazado 630375" d="M1244.172,445.127a4.29,4.29,0,0,0-.91,3.438.458.458,0,0,0,.208.376c-.4.255-.816.482-1.186.773-.5.389-.868.865-.558,1.552a1.177,1.177,0,0,0,1.511.628c.007,1.591.053,3.182.011,4.772a7.782,7.782,0,0,0,3.55,7.006.913.913,0,0,1,.108.1,6.64,6.64,0,0,1-6.366-6.234c-.08-3.337-.041-6.678-.019-10.018a2.451,2.451,0,0,1,2.362-2.41C1243.311,445.088,1243.742,445.121,1244.172,445.127Z" transform="translate(-58.613 -34.387)" fill="#f1b1a0"/>
    <path id="Trazado_630376" data-name="Trazado 630376" d="M1271.043,514.068c.909-.011,1.818-.007,2.726-.039.378-.013.473.133.464.484-.021.833.022,1.669-.018,2.5a2.4,2.4,0,0,1-2.267,2.306,4.162,4.162,0,0,1-.908-2.365C1271.02,515.993,1271.041,515.031,1271.043,514.068Z" transform="translate(-79.854 -82.325)" fill="#f1b1a0"/>
    <path id="Trazado_630377" data-name="Trazado 630377" d="M1226.429,467.586c0,.809-.026,1.619.01,2.426.021.477-.187.572-.583.493a3.818,3.818,0,0,1-.511-.131q-1.985-.693-1.8-3.295a2.719,2.719,0,0,1,2.224-2.45c.454-.09.709-.047.674.532C1226.393,465.966,1226.429,466.777,1226.429,467.586Z" transform="translate(-46.815 -47.942)" fill="#e59582"/>
    <path id="Trazado_630378" data-name="Trazado 630378" d="M1313.457,467.549c0-.809.019-1.619-.008-2.427-.014-.418.079-.59.543-.523a2.747,2.747,0,0,1,2.352,2.582c.082,1.779-.707,2.991-2.128,3.3-.564.121-.827,0-.774-.654C1313.5,469.07,1313.457,468.307,1313.457,467.549Z" transform="translate(-109.346 -47.936)" fill="#f1b1a0"/>
    <path id="Trazado_630379" data-name="Trazado 630379" d="M1266.857,514.06c0,.962-.024,1.924,0,2.886a4.162,4.162,0,0,0,.908,2.365,2.421,2.421,0,0,1-2.739-2.416c-.02-.779.009-1.56-.011-2.339-.009-.363.061-.572.489-.535C1265.951,514.059,1266.4,514.049,1266.857,514.06Z" transform="translate(-75.666 -82.316)" fill="#e59582"/>
    <path id="Trazado_630380" data-name="Trazado 630380" d="M1325.835,565.62a9.8,9.8,0,0,1-9.743-9.384c-.037-.9.333-1.434,1.039-1.49.755-.061,1.174.386,1.247,1.356a7.263,7.263,0,0,0,4.771,6.7,7.126,7.126,0,0,0,7.825-1.475,7.293,7.293,0,0,0,2.4-5.31c.037-.835.472-1.3,1.175-1.279s1.1.519,1.105,1.349c0,.177-.005.354-.02.531A9.8,9.8,0,0,1,1325.835,565.62Z" transform="translate(-111.192 -110.64)" fill="#050303"/>
    <path id="Trazado_630381" data-name="Trazado 630381" d="M1356.248,539.773c0-.428-.03-.858.006-1.282a1.04,1.04,0,0,1,1.088-1.032,1,1,0,0,1,1.117.909,11.008,11.008,0,0,1,0,2.857,1.014,1.014,0,0,1-1.18.919,1.025,1.025,0,0,1-1.024-1.014C1356.219,540.681,1356.249,540.225,1356.248,539.773Z" transform="translate(-139.115 -98.62)" fill="#050303"/>
    <path id="Trazado_630382" data-name="Trazado 630382" d="M1332.832,539.8c0-.453-.034-.909.008-1.358a1.025,1.025,0,0,1,1.049-.987.979.979,0,0,1,1.117.809,8.883,8.883,0,0,1,0,3.073.988.988,0,0,1-1.192.8,1.015,1.015,0,0,1-.973-.981C1332.8,540.705,1332.832,540.25,1332.832,539.8Z" transform="translate(-122.828 -98.615)" fill="#050303"/>
    <path id="Trazado_630383" data-name="Trazado 630383" d="M1218.4,560.967c-1.014-.1-1.475-.516-1.408-1.28.059-.661.46-.961,1.409-1.052,1.049.056,1.049.056,1.063-1.045.013-1.014.589-1.583,1.418-1.372.725.184.875.734.868,1.4-.011,1.033,0,1.033,1.017,1.042.952.009,1.468.41,1.467,1.141s-.522,1.133-1.469,1.14c-1.011.007-1.011.007-1.02,1.043-.008.945-.419,1.452-1.163,1.437-.712-.014-1.107-.513-1.118-1.412,0-.025,0-.051,0-.076C1219.46,560.91,1219.46,560.91,1218.4,560.967Z" transform="translate(-42.266 -111.638)" fill="#030303"/>
    <path id="Trazado_630384" data-name="Trazado 630384" d="M1176.857,527.924a7.059,7.059,0,0,1-4.438-5.6,1.633,1.633,0,0,1,1.273-2.126q5.317,0,10.633.009c1.693,0,2.236.634,1.987,2.307a7.058,7.058,0,0,1-8.876,5.587C1177.242,528.049,1177.05,527.985,1176.857,527.924Zm2.608-1.88a4.663,4.663,0,0,0,4.369-3.017c.127-.392.061-.545-.381-.538-1.989.028-3.978.035-5.967.049-.706-.014-1.412-.007-2.116-.047-.536-.031-.584.178-.419.62A4.679,4.679,0,0,0,1179.465,526.044Z" transform="translate(-11.234 -86.618)" fill="#050303"/>
    <path id="Trazado_630385" data-name="Trazado 630385" d="M1174.831,506.6a3.345,3.345,0,0,1-1.229-2.074c-.085-.684.024-1.293.757-1.52a1.133,1.133,0,0,1,1.468.811c.009.525.142,1,.764,1.019.555.022.76-.347.838-.871a1.1,1.1,0,0,1,1.271-1.009,1.168,1.168,0,0,1,.985,1.311,3.068,3.068,0,0,1-4.174,2.652C1175.279,506.827,1175.058,506.706,1174.831,506.6Z" transform="translate(-12.073 -74.612)" fill="#050303"/>
    <path id="Trazado_630386" data-name="Trazado 630386" d="M1203.253,504.261a3.053,3.053,0,0,1-6.1-.051,1.145,1.145,0,0,1,.968-1.244,1.1,1.1,0,0,1,1.284,1c.079.521.263.892.824.881.519-.01.693-.367.773-.854a1.105,1.105,0,0,1,1.263-1.026A1.144,1.144,0,0,1,1203.253,504.261Z" transform="translate(-28.471 -74.623)" fill="#050303"/>
    <path id="Trazado_630387" data-name="Trazado 630387" d="M1261.606,490.98a6.757,6.757,0,0,1-4.56-1.828,1.151,1.151,0,0,1-.2-1.727c.475-.516,1.086-.5,1.742.054a4.425,4.425,0,0,0,6.121-.019c.644-.537,1.278-.543,1.74-.016a1.159,1.159,0,0,1-.241,1.729A6.794,6.794,0,0,1,1261.606,490.98Z" transform="translate(-69.772 -63.562)" fill="#050303"/>
    <path id="Trazado_630388" data-name="Trazado 630388" d="M1267.829,465.62a3.211,3.211,0,0,1-.885,1.6c-.479.6-.468,1.019.185,1.433a1.731,1.731,0,0,1,.476.484,1.043,1.043,0,0,1-.081,1.39,1,1,0,0,1-1.367.234,10.342,10.342,0,0,1-2.163-2,.993.993,0,0,1,.023-1.209q.849-1.3,1.724-2.585a1.078,1.078,0,0,1,1.335-.434A1.127,1.127,0,0,1,1267.829,465.62Z" transform="translate(-74.823 -47.845)" fill="#050303"/>
    <path id="Trazado_630389" data-name="Trazado 630389" d="M1283.172,456.862a4.186,4.186,0,0,1,3.14,1.244,1.129,1.129,0,0,1,.1,1.683,1.149,1.149,0,0,1-1.634,0,1.951,1.951,0,0,0-2.9-.013,1.142,1.142,0,1,1-1.5-1.712A3.989,3.989,0,0,1,1283.172,456.862Z" transform="translate(-86.029 -42.565)" fill="#050303"/>
    <path id="Trazado_630390" data-name="Trazado 630390" d="M1245.8,460.073a1.177,1.177,0,0,1-1.511-.628c-.31-.687.063-1.162.558-1.552.369-.291.789-.518,1.186-.773a4.3,4.3,0,0,1,4.453.884,1.178,1.178,0,0,1,.253,1.733,1.157,1.157,0,0,1-1.74,0C1247.9,458.851,1247.228,458.922,1245.8,460.073Z" transform="translate(-61.174 -42.567)" fill="#050303"/>
    <path id="Trazado_630391" data-name="Trazado 630391" d="M1353.068,494.907a7.271,7.271,0,0,1-4.052-5.5,1.642,1.642,0,0,1,1.312-2.112c3.567,0,7.135.047,10.7-.01,1.683-.027,2.368.813,2.016,2.507a7.116,7.116,0,0,1-9.2,5.383c-.144-.045-.293-.072-.44-.108l-.007.006Zm3.179-1.673a4.807,4.807,0,0,0,4.336-3.1c.13-.374.127-.555-.344-.55-2.04.024-4.08.029-6.12.041-.755-.012-1.51,0-2.264-.041-.513-.025-.435.21-.317.544A4.816,4.816,0,0,0,1356.247,493.233Z" transform="translate(-134.062 -63.723)" fill="#050303"/>
    <path id="Trazado_630392" data-name="Trazado 630392" d="M1381.45,469.685a12.606,12.606,0,0,1-.008,1.284,1.1,1.1,0,0,1-1.145,1.068,1.071,1.071,0,0,1-1.1-1.1c-.031-.881-.025-1.764,0-2.645a1.115,1.115,0,0,1,2.217-.111,11.8,11.8,0,0,1,.013,1.507Z" transform="translate(-155.07 -49.767)" fill="#050303"/>
    <path id="Trazado_630393" data-name="Trazado 630393" d="M1357.784,468.754a1.444,1.444,0,0,1,.949-1.651c1.054.142,1.349.468,1.355,1.513,0,.705.017,1.411,0,2.116a1.141,1.141,0,1,1-2.274-.015C1357.793,470.063,1357.792,469.408,1357.784,468.754Z" transform="translate(-140.188 -49.688)" fill="#050303"/>
    <path id="Trazado_630394" data-name="Trazado 630394" d="M1362.424,512.322l.336.165C1362.609,512.51,1362.482,512.486,1362.424,512.322Z" transform="translate(-143.418 -81.138)" fill="#f9edb2"/>
    <path id="Trazado_630395" data-name="Trazado 630395" d="M1189.168,527.761c1.989-.014,3.978-.021,5.967-.049.442-.006.508.146.381.538a4.663,4.663,0,0,1-4.369,3.017A6.851,6.851,0,0,1,1189.168,527.761Z" transform="translate(-22.916 -91.842)" fill="#ee9ca0"/>
    <path id="Trazado_630396" data-name="Trazado 630396" d="M1183.185,527.758a6.85,6.85,0,0,0,1.98,3.507,4.679,4.679,0,0,1-4.515-2.934c-.165-.442-.117-.651.419-.62C1181.772,527.751,1182.479,527.744,1183.185,527.758Z" transform="translate(-16.933 -91.839)" fill="#e59582"/>
    <path id="Trazado_630397" data-name="Trazado 630397" d="M1365.875,494.866c2.04-.012,4.08-.017,6.12-.041.471-.005.474.176.344.55a4.807,4.807,0,0,1-4.336,3.1c-.3-.309-.621-.6-.887-.931A4.3,4.3,0,0,1,1365.875,494.866Z" transform="translate(-145.819 -68.968)" fill="#ee9ca0"/>
    <path id="Trazado_630398" data-name="Trazado 630398" d="M1359.78,494.863a4.3,4.3,0,0,0,1.24,2.683c.266.334.59.622.888.931a4.816,4.816,0,0,1-4.709-3.109c-.117-.335-.2-.569.317-.544C1358.27,494.858,1359.026,494.851,1359.78,494.863Z" transform="translate(-139.724 -68.965)" fill="#e59582"/>
  </g>
</svg>
