<svg xmlns="http://www.w3.org/2000/svg" width="51.504" height="68.249" viewBox="0 0 51.504 68.249">
  <g id="Grupo_980825" data-name="Grupo 980825" transform="translate(-345.26 -161.769)">
    <path id="Trazado_640896" data-name="Trazado 640896" d="M385.361,193.173l-2.614-.006c-.163-.749-.67-.941-1.378-.94q-9.353.018-18.708.006c-.51,0-1.022-.021-1.531.009-.363.021-.449-.116-.436-.454.024-.62-.024-1.244.015-1.863a1.39,1.39,0,0,0-.746-1.368c-1.03-.652-2.032-1.346-3.063-2-.382-.241-.475-.361-.02-.643,1.074-.663,2.111-1.386,3.173-2.07a1.265,1.265,0,0,0,.655-1.214c-.029-.576.037-1.158-.018-1.729s.142-.681.685-.679c7.124.02,14.247.012,21.371.014,1.487,0,2.973.014,4.46.021v11.949C386.433,192.23,385.6,192.139,385.361,193.173Zm-10.613-8.1q4.56,0,9.119,0c.736,0,1.179-.367,1.2-.955.021-.612-.443-1.017-1.2-1.043-.111,0-.222,0-.334,0q-8.75,0-17.5,0a3.518,3.518,0,0,0-.728.043.944.944,0,0,0-.774,1.13c.116.65.57.83,1.168.829Q370.223,185.068,374.748,185.072Zm-3.33,2.33c-1.884,0-3.768,0-5.652,0-.818,0-1.235.326-1.255.95-.021.653.428,1.046,1.247,1.048q5.655.007,11.306,0c.824,0,1.272-.387,1.255-1.04-.017-.629-.431-.955-1.247-.958C375.188,187.4,373.3,187.4,371.418,187.4Z" transform="translate(5.919 9.656)" fill="#ebf5f6"/>
    <path id="Trazado_640897" data-name="Trazado 640897" d="M367.939,209.443h-2.618a1.071,1.071,0,0,0-1.226-.949c-.687.02-1.375,0-2.064,0-1.276,0-1.269,0-1.278-1.269-.015-2.19.253-1.723-1.587-2.966-.874-.589-1.764-1.159-2.693-1.77,1.246-.821,2.4-1.6,3.576-2.347a1.343,1.343,0,0,0,.713-1.316c-.035-.553.037-1.113-.02-1.662-.059-.576.152-.678.692-.676q12.081.027,24.161.014c.554,0,1.109.015,1.663.024l0,11.941c-.244.009-.486.024-.73.024-5.739,0-11.477.009-17.216-.009A1.2,1.2,0,0,0,367.939,209.443Zm6.933-8.112q1.764,0,3.528,0c1.886,0,3.771.008,5.657,0a.99.99,0,0,0,1.062-.957,1.02,1.02,0,0,0-1-1.033c-.154-.015-.311-.006-.466-.006q-8.819,0-17.636,0a2.994,2.994,0,0,0-.663.035.992.992,0,0,0-.635,1.511,1.141,1.141,0,0,0,1.1.457Q370.346,201.326,374.872,201.331Zm-3.438,4.326q2.728,0,5.454,0a3.4,3.4,0,0,0,.727-.052.98.98,0,0,0-.062-1.921,3.709,3.709,0,0,0-.6-.03q-5.485,0-10.974,0a3.3,3.3,0,0,0-.661.043.885.885,0,0,0-.752.886.9.9,0,0,0,.688,1,2.677,2.677,0,0,0,.725.067C367.8,205.66,369.617,205.657,371.435,205.657Z" transform="translate(5.866 18.166)" fill="#ebf5f6"/>
    <path id="Trazado_640898" data-name="Trazado 640898" d="M368.326,177.025H365.7c-.167-.806-.451-1.049-1.263-1.056-1.021-.008-2.044-.038-3.061.012-.554.029-.675-.171-.634-.666.04-.463-.032-.937.018-1.4a1.641,1.641,0,0,0-.924-1.739c-1.126-.675-2.2-1.435-3.363-2.2,1.244-.819,2.4-1.6,3.573-2.344a1.343,1.343,0,0,0,.713-1.316c-.035-.553.032-1.113-.018-1.663s.123-.693.681-.691q12.218.03,24.435.015c.466,0,.931.015,1.4.024l0,11.941c-.244.009-.486.024-.73.024q-8.4,0-16.8,0C368.792,175.968,368.543,176.161,368.326,177.025Zm6.47-8.2h8.785a5.6,5.6,0,0,0,.6-.014.957.957,0,0,0,.932-.949.98.98,0,0,0-.926-1.024,3.836,3.836,0,0,0-.53-.018q-8.819,0-17.638,0a2.84,2.84,0,0,0-.789.075.98.98,0,0,0,.055,1.873,3.2,3.2,0,0,0,.727.052Q370.4,168.826,374.8,168.823Zm-3.333,2.32q-2.826,0-5.654,0c-.813,0-1.231.327-1.247.96-.017.649.44,1.037,1.255,1.037q5.655.007,11.308,0c.786,0,1.232-.361,1.247-.979.017-.656-.419-1.016-1.255-1.017Q374.289,171.139,371.464,171.142Z" transform="translate(5.867 1.147)" fill="#ebf5f6"/>
    <path id="Trazado_640899" data-name="Trazado 640899" d="M369.3,177.708c.216-.864.466-1.057,1.4-1.057q8.4,0,16.8,0c.244,0,.486-.015.73-.024.332.009.667-.009.995.032.513.065.663-.105.659-.638-.027-3.285-.014-6.571-.014-9.856,0-1.579,0-1.579-1.642-1.479-.466-.009-.931-.024-1.4-.024q-12.216,0-24.435-.015c-.557,0-.734.137-.681.691s-.017,1.11.018,1.663a1.343,1.343,0,0,1-.713,1.316c-1.174.748-2.329,1.525-3.573,2.344,1.164.769,2.237,1.529,3.363,2.2a1.641,1.641,0,0,1,.924,1.739c-.05.46.021.934-.018,1.4-.041.495.079.695.634.666,1.017-.05,2.041-.02,3.061-.012.812.006,1.1.25,1.263,1.056a1.071,1.071,0,0,1-1.223.949c-1.509-.02-3.019,0-4.528-.008-.847,0-1.188-.358-1.2-1.229-.006-.777-.029-1.557.011-2.33a.847.847,0,0,0-.469-.847c-1.289-.821-2.56-1.671-3.837-2.512-1.1-.727-1.112-1.415-.029-2.126,1.3-.853,2.585-1.715,3.893-2.548a.8.8,0,0,0,.44-.8c-.034-.754-.012-1.509-.009-2.263,0-1.016.331-1.34,1.365-1.34h27.166c.821,0,1.643-.009,2.464,0a1,1,0,0,1,1.141,1.147q.011,6.859,0,13.72c0,.778-.366,1.119-1.156,1.119q-10.089.007-20.177.011A1.112,1.112,0,0,1,369.3,177.708Z" transform="translate(4.888 0.463)" fill="#030303"/>
    <path id="Trazado_640900" data-name="Trazado 640900" d="M368.913,210.126a1.2,1.2,0,0,1,1.372-.953c5.739.018,11.477.011,17.216.009.244,0,.486-.015.73-.024a7.865,7.865,0,0,1,.929.032c.583.088.734-.12.728-.713-.034-3.24-.015-6.481-.015-9.722,0-1.64,0-1.64-1.64-1.538-.554-.009-1.109-.024-1.663-.024q-12.081,0-24.161-.014c-.539,0-.751.1-.692.676.056.548-.015,1.109.02,1.662a1.343,1.343,0,0,1-.713,1.316c-1.174.748-2.33,1.526-3.576,2.347.929.611,1.819,1.18,2.693,1.77,1.84,1.243,1.572.775,1.587,2.966.009,1.269,0,1.269,1.278,1.269.688,0,1.377.015,2.064,0a1.071,1.071,0,0,1,1.226.949c-.161.807-.443,1.051-1.257,1.054q-2.031.007-4.062,0c-.888,0-1.235-.362-1.247-1.258,0-.021,0-.044,0-.065-.017-.928.26-2.017-.133-2.739s-1.458-1.088-2.231-1.6c-.72-.478-1.453-.937-2.167-1.423a1,1,0,0,1,0-1.829c1.363-.912,2.731-1.816,4.114-2.7a.8.8,0,0,0,.423-.8c-.027-.754-.011-1.509-.008-2.263,0-.99.323-1.313,1.313-1.313h20.507q4.494,0,8.989,0c1.036,0,1.33.3,1.33,1.351q0,6.66,0,13.32c0,.995-.326,1.321-1.307,1.321q-10.153,0-20.308,0C369.384,211.181,369.149,210.993,368.913,210.126Z" transform="translate(4.891 17.483)" fill="#030303"/>
    <path id="Trazado_640901" data-name="Trazado 640901" d="M388.233,180.945c-1.487-.008-2.973-.021-4.46-.021-7.124,0-14.247.006-21.371-.014-.544,0-.742.111-.685.679s-.011,1.153.018,1.729a1.265,1.265,0,0,1-.655,1.214c-1.062.684-2.1,1.407-3.173,2.07-.455.282-.363.4.02.643,1.031.649,2.033,1.343,3.063,2a1.39,1.39,0,0,1,.746,1.368c-.04.618.009,1.243-.015,1.863-.014.338.073.475.436.454.509-.03,1.02-.009,1.531-.009q9.353,0,18.708-.006c.708,0,1.215.19,1.378.94-.177.856-.428,1.065-1.31,1.066q-10.724,0-21.447,0c-.943,0-1.281-.337-1.287-1.276,0-.71-.029-1.423.009-2.131a1.026,1.026,0,0,0-.557-1.068c-1.321-.812-2.6-1.689-3.893-2.548-.9-.6-.9-1.342-.009-1.936,1.33-.883,2.656-1.771,4-2.626a.844.844,0,0,0,.455-.853c-.034-.8-.02-1.6-.008-2.4.012-.78.373-1.151,1.142-1.151q14.919-.007,29.838,0c.784,0,1.153.35,1.155,1.129q.011,6.861,0,13.723c0,.783-.367,1.129-1.148,1.136-.978.009-1.954,0-2.93,0-.955,0-1.153-.152-1.4-1.06.244-1.034,1.072-.943,1.844-.961a9.782,9.782,0,0,1,.992.027c.5.059.667-.085.661-.629-.029-3.272-.014-6.545-.014-9.818C389.871,180.859,389.871,180.859,388.233,180.945Z" transform="translate(4.891 8.974)" fill="#020202"/>
    <path id="Trazado_640902" data-name="Trazado 640902" d="M345.26,185.837a4.185,4.185,0,0,1,2.751-3.939,1.221,1.221,0,0,0,.658-.49.939.939,0,0,1,1.613,0,1.26,1.26,0,0,0,.658.487,4.109,4.109,0,0,1,2.49,2.513.573.573,0,0,0,.661.468c.663-.034,1.33-.021,2,0,.707.017,1.094.372,1.1.973s-.372.985-1.069,1.016-1.375.017-2.064.006c-.288,0-.48.034-.6.363a4.1,4.1,0,0,1-2.69,2.647.83.83,0,0,0-.437.367.954.954,0,0,1-1.689.029,1.113,1.113,0,0,0-.615-.442A4.2,4.2,0,0,1,345.26,185.837Zm2.58,1.485a2.159,2.159,0,0,0,3.218.1,2.184,2.184,0,0,0-.142-3.224,2.159,2.159,0,0,0-3.049.122A2.192,2.192,0,0,0,347.84,187.322Z" transform="translate(0 10.034)" fill="#040404"/>
    <path id="Trazado_640903" data-name="Trazado 640903" d="M354.863,170.6a1.339,1.339,0,0,0-1.755,1.091,3.126,3.126,0,0,1-1.5,1.552c-.529.323-1.156.436-1.564,1.024a.832.832,0,0,1-1.325-.158,1.539,1.539,0,0,0-.818-.6,4.22,4.22,0,0,1-.008-7.826,1.581,1.581,0,0,0,.821-.6.919.919,0,0,1,1.528.011,1.513,1.513,0,0,0,.763.568,4.042,4.042,0,0,1,2.426,2.486.575.575,0,0,0,.67.455c.664-.03,1.331-.021,2,0,.7.02,1.088.387,1.088.988s-.4.972-1.084,1.005C355.748,170.618,355.393,170.6,354.863,170.6Zm-3.951-2.665a2.164,2.164,0,0,0-2.993.067,2.193,2.193,0,0,0-.091,3.042,2.2,2.2,0,1,0,3.084-3.109Z" transform="translate(0 1.527)" fill="#040404"/>
    <path id="Trazado_640904" data-name="Trazado 640904" d="M345.26,202.125a4.2,4.2,0,0,1,2.664-3.934,1.411,1.411,0,0,0,.772-.55.919.919,0,0,1,1.567.009,1.341,1.341,0,0,0,.711.522,4.079,4.079,0,0,1,2.445,2.472.607.607,0,0,0,.711.481c.643-.03,1.287-.021,1.93,0,.73.018,1.141.408,1.126,1.028-.014.6-.4.938-1.11.969a4.9,4.9,0,0,1-.6,0c-1.1-.1-2.091-.111-2.495,1.293a2.729,2.729,0,0,1-1.516,1.435,3.583,3.583,0,0,0-1.388.928.867.867,0,0,1-1.38-.163,1.375,1.375,0,0,0-.768-.562A4.165,4.165,0,0,1,345.26,202.125Zm2.594,1.479a2.2,2.2,0,1,0,0-3A2.172,2.172,0,0,0,347.854,203.6Z" transform="translate(0 18.538)" fill="#040404"/>
    <path id="Trazado_640905" data-name="Trazado 640905" d="M347.381,179.551c0-.2-.012-.4,0-.6a.993.993,0,0,1,1.985-.021,8.975,8.975,0,0,1,.006,1.2,1,1,0,1,1-2-.044c-.006-.177,0-.355,0-.533Z" transform="translate(1.107 8.477)" fill="#050606"/>
    <path id="Trazado_640906" data-name="Trazado 640906" d="M347.378,189.808c0-1.081.311-1.546,1.021-1.528.688.017.979.466.979,1.514,0,.222.014.445,0,.666a1.026,1.026,0,0,1-1.028,1.008,1.012,1.012,0,0,1-.966-1.06C347.37,190.208,347.378,190.007,347.378,189.808Z" transform="translate(1.107 13.868)" fill="#050606"/>
    <path id="Trazado_640907" data-name="Trazado 640907" d="M349.371,176.619a5.1,5.1,0,0,1,0,.666.977.977,0,0,1-1.054.894.938.938,0,0,1-.925-.949,11.651,11.651,0,0,1,0-1.2,1,1,0,0,1,.985-1.039,1.02,1.02,0,0,1,1.008,1.028c.014.2,0,.4,0,.6Z" transform="translate(1.104 6.917)" fill="#050606"/>
    <path id="Trazado_640908" data-name="Trazado 640908" d="M349.369,192.887c.009,1.068-.311,1.564-1,1.564s-.993-.489-.992-1.569c0-.222-.012-.445.006-.666a.942.942,0,0,1,.923-.952.973.973,0,0,1,1.056.889A5.594,5.594,0,0,1,349.369,192.887Z" transform="translate(1.106 15.427)" fill="#050606"/>
    <path id="Trazado_640909" data-name="Trazado 640909" d="M347.381,173.608a6.491,6.491,0,0,1,0-.666.931.931,0,0,1,.949-.923.917.917,0,0,1,1.016.851,5.583,5.583,0,0,1,0,1.461.939.939,0,0,1-1.01.865.977.977,0,0,1-.96-.988C347.369,174.009,347.38,173.808,347.381,173.608Z" transform="translate(1.106 5.362)" fill="#050606"/>
    <path id="Trazado_640910" data-name="Trazado 640910" d="M349.371,195.866a4.848,4.848,0,0,1-.006.666.977.977,0,0,1-1.056.891.94.94,0,0,1-.922-.955c-.023-.4-.02-.8,0-1.2a1,1,0,0,1,.989-1.031,1.015,1.015,0,0,1,1.005,1.03c.014.2,0,.4,0,.6Z" transform="translate(1.104 16.985)" fill="#050606"/>
    <path id="Trazado_640911" data-name="Trazado 640911" d="M349.383,163.1a1.157,1.157,0,0,1-.448,1.17.935.935,0,0,1-1.307-.177,1.875,1.875,0,0,1,.024-1.979.931.931,0,0,1,1.31-.133A1.131,1.131,0,0,1,349.383,163.1Z" transform="translate(1.098)" fill="#050606"/>
    <path id="Trazado_640912" data-name="Trazado 640912" d="M349.381,206.158c0,.985-.6,1.557-1.345,1.267-.6-.235-.664-.737-.666-1.3s.1-1.014.667-1.234C348.78,204.6,349.382,205.172,349.381,206.158Z" transform="translate(1.104 22.518)" fill="#050606"/>
    <path id="Trazado_640913" data-name="Trazado 640913" d="M372.022,184.1q-4.526,0-9.05,0c-.6,0-1.052-.178-1.168-.829a.944.944,0,0,1,.774-1.13,3.518,3.518,0,0,1,.728-.043q8.753,0,17.5,0c.111,0,.222,0,.334,0,.754.026,1.219.431,1.2,1.043-.02.588-.463.953-1.2.955Q376.581,184.1,372.022,184.1Z" transform="translate(8.645 10.633)" fill="#050606"/>
    <path id="Trazado_640914" data-name="Trazado 640914" d="M368.693,184.938c1.884,0,3.77,0,5.654,0,.816,0,1.231.329,1.247.958.017.653-.431,1.039-1.255,1.04q-5.652.007-11.306,0c-.819,0-1.269-.395-1.247-1.048.02-.624.437-.949,1.255-.95C364.924,184.935,366.808,184.938,368.693,184.938Z" transform="translate(8.644 12.12)" fill="#050606"/>
    <path id="Trazado_640915" data-name="Trazado 640915" d="M376.685,180.261c1.639-.087,1.639-.087,1.639,1.529,0,3.273-.015,6.546.014,9.818.006.544-.163.688-.661.629a9.782,9.782,0,0,0-.992-.027Z" transform="translate(16.439 9.658)" fill="#d7edf8"/>
    <path id="Trazado_640916" data-name="Trazado 640916" d="M372.1,200.358q-4.526,0-9.052,0a1.141,1.141,0,0,1-1.1-.457.992.992,0,0,1,.635-1.511,2.994,2.994,0,0,1,.663-.035q8.819,0,17.636,0c.155,0,.312-.009.466.006a1.02,1.02,0,0,1,1,1.033.99.99,0,0,1-1.062.957c-1.886.012-3.771,0-5.657,0Q373.86,200.36,372.1,200.358Z" transform="translate(8.642 19.139)" fill="#040404"/>
    <path id="Trazado_640917" data-name="Trazado 640917" d="M368.655,203.2c-1.817,0-3.636,0-5.453,0a2.677,2.677,0,0,1-.725-.067.9.9,0,0,1-.688-1,.885.885,0,0,1,.752-.886,3.3,3.3,0,0,1,.661-.043q5.488,0,10.974,0a3.709,3.709,0,0,1,.6.03.98.98,0,0,1,.063,1.921,3.4,3.4,0,0,1-.727.052Q371.381,203.2,368.655,203.2Z" transform="translate(8.645 20.624)" fill="#070808"/>
    <path id="Trazado_640918" data-name="Trazado 640918" d="M376.685,196.533c1.64-.1,1.64-.1,1.64,1.538,0,3.241-.018,6.482.015,9.722.006.592-.145.8-.728.713a7.865,7.865,0,0,0-.929-.032Q376.684,202.5,376.685,196.533Z" transform="translate(16.439 18.166)" fill="#d6e9f2"/>
    <path id="Trazado_640919" data-name="Trazado 640919" d="M372.018,167.842q-4.391,0-8.785,0a3.2,3.2,0,0,1-.727-.052.98.98,0,0,1-.055-1.873,2.84,2.84,0,0,1,.789-.075q8.819-.007,17.638,0a3.836,3.836,0,0,1,.53.018.98.98,0,0,1,.926,1.024.957.957,0,0,1-.932.949,5.6,5.6,0,0,1-.6.014Z" transform="translate(8.645 2.128)" fill="#070808"/>
    <path id="Trazado_640920" data-name="Trazado 640920" d="M368.686,168.676q2.826,0,5.654,0c.836,0,1.272.361,1.255,1.017-.015.618-.461.979-1.247.979q-5.654.007-11.308,0c-.815,0-1.272-.388-1.255-1.037.017-.632.434-.958,1.247-.96Q365.861,168.673,368.686,168.676Z" transform="translate(8.644 3.613)" fill="#040404"/>
    <path id="Trazado_640921" data-name="Trazado 640921" d="M376.684,164c1.642-.1,1.642-.1,1.642,1.479,0,3.285-.014,6.571.014,9.856,0,.533-.146.7-.659.638-.328-.041-.663-.023-.995-.032Q376.683,169.971,376.684,164Z" transform="translate(16.439 1.148)" fill="#d6e9f2"/>
    <path id="Trazado_640922" data-name="Trazado 640922" d="M347.153,186.4a2.192,2.192,0,0,1,.027-3,2.159,2.159,0,0,1,3.049-.122A3.1,3.1,0,0,1,347.153,186.4Z" transform="translate(0.687 10.953)" fill="#f4cd73"/>
    <path id="Trazado_640923" data-name="Trazado 640923" d="M346.954,186.206a3.1,3.1,0,0,0,3.077-3.124,2.184,2.184,0,0,1,.142,3.224A2.159,2.159,0,0,1,346.954,186.206Z" transform="translate(0.886 11.149)" fill="#f1bf63"/>
    <path id="Trazado_640924" data-name="Trazado 640924" d="M347.141,170.126a2.193,2.193,0,0,1,.091-3.042,2.164,2.164,0,0,1,2.993-.067A3.1,3.1,0,0,1,347.141,170.126Z" transform="translate(0.687 2.449)" fill="#badfa3"/>
    <path id="Trazado_640925" data-name="Trazado 640925" d="M346.946,169.931a3.1,3.1,0,0,0,3.084-3.109,2.2,2.2,0,1,1-3.084,3.109Z" transform="translate(0.882 2.643)" fill="#9fcea4"/>
    <path id="Trazado_640926" data-name="Trazado 640926" d="M347.167,202.682a2.192,2.192,0,0,1,0-3,2.159,2.159,0,0,1,3.042-.168A3.12,3.12,0,0,1,347.167,202.682Z" transform="translate(0.686 19.461)" fill="#d593ca"/>
    <path id="Trazado_640927" data-name="Trazado 640927" d="M346.963,202.495A3.12,3.12,0,0,0,350,199.328a2.2,2.2,0,1,1-3.037,3.167Z" transform="translate(0.891 19.648)" fill="#cc77b9"/>
  </g>
</svg>
