<svg xmlns="http://www.w3.org/2000/svg" width="64.09" height="64.284" viewBox="0 0 64.09 64.284">
  <g id="Grupo_980823" data-name="Grupo 980823" transform="translate(-249.631 -86.518)">
    <path id="Trazado_640965" data-name="Trazado 640965" d="M261.862,143.65c-3.893,0-7.786-.008-11.679.011-.438,0-.55-.1-.547-.544q.025-7.941,0-15.881c0-.438.1-.547.544-.547q11.711.023,23.423,0c.438,0,.548.1.547.545q-.025,7.939,0,15.88c0,.438-.1.55-.545.547C269.691,143.642,265.777,143.65,261.862,143.65Zm.975-15.047q-5.463-.009-10.926-.026c-.3,0-.388.079-.388.382q.014,6.215,0,12.43c0,.3.089.384.388.382q5.463-.023,10.926-.026c3.013.006,6.026.009,9.04.027.3,0,.384-.083.383-.384q-.014-6.213,0-12.428c0-.3-.082-.386-.383-.384C268.864,128.594,265.85,128.6,262.837,128.6Z" transform="translate(0.001 6.9)"/>
    <path id="Trazado_640966" data-name="Trazado 640966" d="M281.7,98.738c-.048.948-.048.948-1.032.948q-15.167,0-30.333.015c-.591,0-.711-.169-.7-.723.033-2.093.023-4.186,0-6.277,0-.411.063-.574.531-.573q15.511.021,31.024,0c.376,0,.544.091.507.471-.006.209-.016.417-.018.626,0,.814,0,.814-.842.814h-21.53c-2.406,0-4.812.011-7.218-.009-.423,0-.586.084-.565.541a23.886,23.886,0,0,1,0,2.509c-.035.571.134.718.709.717q14.218-.03,28.436-.014C281.652,97.784,281.652,97.784,281.7,98.738Z" transform="translate(0 0.964)" fill="#0e0e0a"/>
    <path id="Trazado_640967" data-name="Trazado 640967" d="M281.422,98.67c-.047-.954-.047-.954-1.032-.954q-14.218,0-28.436.014c-.575,0-.744-.146-.709-.717a23.886,23.886,0,0,0,0-2.509c-.021-.457.142-.545.565-.541,2.406.02,4.813.009,7.218.009h21.53c.841,0,.84,0,.842-.814,0-.209.012-.417.018-.626l1.844-.007q0,3.074,0,6.148Z" transform="translate(0.277 1.032)" fill="#f8e051"/>
    <path id="Trazado_640968" data-name="Trazado 640968" d="M281.785,110.519c-.072-.546.13-.716.711-.715q12.527.033,25.051,0c.523,0,.66.122.652.648-.033,2.134-.026,4.268,0,6.4,0,.419-.116.518-.521.518q-12.683-.016-25.365.009c-.67,0-.462-.4-.524-.717.006-.125.015-.25.016-.375.006-.833.006-.833.83-.833h7.34c5.248,0,10.5-.007,15.745.011.471,0,.613-.12.589-.591a21.513,21.513,0,0,1,0-2.444c.038-.579-.146-.721-.717-.718q-11.26.028-22.52.013C281.838,111.728,281.838,111.728,281.785,110.519Z" transform="translate(5.521 4)" fill="#090c0d"/>
    <path id="Trazado_640969" data-name="Trazado 640969" d="M278.569,99.159q0-3.074,0-6.148c.006-.955.023-1.911.011-2.866,0-.32.088-.419.418-.431,1.473-.054,1.471-.066,1.473,1.367,0,.643.011,1.288.016,1.931q0,3.074,0,6.147,0,7.409,0,14.819v26.852c-.007,1.943-.032,3.886-.009,5.828.006.5-.1.687-.641.671-1.254-.036-1.253-.007-1.256-1.235q-.007-2.633-.02-5.265V113.977Q278.568,106.569,278.569,99.159Z" transform="translate(4.971 0.546)" fill="#ea4c40"/>
    <path id="Trazado_640970" data-name="Trazado 640970" d="M280.212,116.556V110.42l1.842-.006c.053,1.209.053,1.209,1.285,1.209q11.26,0,22.52-.013c.571,0,.755.139.717.718a21.513,21.513,0,0,0,0,2.444c.023.471-.118.592-.589.591-5.248-.018-10.5-.011-15.745-.011H282.9c-.824,0-.824,0-.83.833,0,.125-.011.25-.016.375Z" transform="translate(5.253 4.105)" fill="#459fd4"/>
    <path id="Trazado_640971" data-name="Trazado 640971" d="M268.522,108.518c-2.907,0-5.813-.008-8.72.008-.4,0-.524-.084-.519-.505.022-2.195.018-4.389,0-6.584,0-.337.062-.462.435-.461q8.878.018,17.754,0c.316,0,.427.068.424.409-.015,2.236-.023,4.473,0,6.71.006.473-.238.423-.535.422Q272.944,108.515,268.522,108.518Zm.046-1.883c2.3,0,4.6-.013,6.9.011.443,0,.566-.118.55-.555-.034-.919-.022-1.839,0-2.758.007-.333-.061-.473-.438-.472q-6.994.019-13.985,0c-.335,0-.427.1-.419.427.02.94.034,1.881,0,2.82-.019.462.148.54.567.537C264.011,106.624,266.29,106.635,268.568,106.635Z" transform="translate(1.658 2.484)"/>
    <path id="Trazado_640972" data-name="Trazado 640972" d="M290.888,126.2c-2.656,0-5.313-.011-7.969.009-.414,0-.519-.108-.514-.516q.03-3.26,0-6.523c0-.408.1-.516.514-.514q7.969.021,15.937,0c.407,0,.53.1.525.516q-.032,3.26,0,6.522c0,.419-.118.518-.525.516C296.2,126.189,293.543,126.2,290.888,126.2Zm-.071-1.884q3.076,0,6.152,0c.271,0,.539.064.526-.384-.028-1-.02-2.007,0-3.011.006-.323-.132-.375-.411-.375q-6.182.011-12.365,0c-.329,0-.43.093-.423.422.02.962.029,1.925,0,2.886-.014.41.135.476.5.472C286.8,124.3,288.808,124.314,290.816,124.314Z" transform="translate(5.63 5.52)" fill="#020201"/>
    <path id="Trazado_640973" data-name="Trazado 640973" d="M279.142,116.666c.07.546-.129.718-.711.715q-6.651-.042-13.3,0c-.493,0-.621-.125-.614-.618.028-2.131.025-4.265,0-6.4,0-.437.109-.554.551-.552,4.455.016,8.91.022,13.365-.006.582,0,.782.169.71.715,0,.083-.015.166-.016.25-.011.959-.011.959-.955.959-3.722,0-7.443.008-11.165-.011-.466,0-.618.116-.6.591.039.834.043,1.673,0,2.508-.028.526.139.659.659.655,3.6-.022,7.192-.012,10.789-.012C279.088,115.458,279.088,115.458,279.142,116.666Z" transform="translate(2.556 4)" fill="#080b0c"/>
    <path id="Trazado_640974" data-name="Trazado 640974" d="M278.864,116.561c-.054-1.208-.054-1.208-1.287-1.208-3.6,0-7.192-.011-10.789.012-.519,0-.687-.129-.659-.655.045-.834.04-1.673,0-2.508-.022-.475.129-.593.6-.591,3.722.019,7.443.011,11.165.011.944,0,.944,0,.955-.959,0-.083.012-.166.016-.25l1.842,0v6.138Z" transform="translate(2.834 4.105)" fill="#459fd4"/>
    <path id="Trazado_640975" data-name="Trazado 640975" d="M281.785,128.2c-.07-.545.125-.723.71-.716,3.031.034,6.064.026,9.1,0,.465,0,.6.108.6.586q-.042,3.2,0,6.4c.006.478-.132.589-.6.586-3.031-.021-6.064-.029-9.1.006-.585.006-.78-.172-.71-.717.006-.1.015-.207.016-.312.007-.9.007-.9.888-.9,2.339,0,4.677-.009,7.015.009.431,0,.586-.111.57-.559-.032-.875-.032-1.753,0-2.628.016-.448-.138-.562-.57-.559-2.213.02-4.426.009-6.639.009C281.837,129.408,281.837,129.408,281.785,128.2Z" transform="translate(5.521 7.037)" fill="#0a0d0e"/>
    <path id="Trazado_640976" data-name="Trazado 640976" d="M282.053,128.094c.052,1.209.052,1.209,1.281,1.209,2.214,0,4.426.011,6.639-.009.431,0,.586.111.57.559-.032.875-.032,1.753,0,2.628.016.448-.138.562-.57.559-2.339-.019-4.677-.009-7.015-.009-.881,0-.881,0-.888.9,0,.1-.011.209-.016.312l-1.841,0V128.1Z" transform="translate(5.253 7.142)" fill="#459fd4"/>
    <path id="Trazado_640977" data-name="Trazado 640977" d="M281.785,92.6c-.006-.3.054-.475.445-.471,2.15.023,4.3.016,6.452,0,.321,0,.431.083.429.418-.013,2.233-.02,4.467,0,6.7,0,.459-.227.436-.539.435-2.025,0-4.051-.026-6.076.012-.574.012-.8-.144-.7-.712a1,1,0,0,0-.018-.248c.047-.951.047-.951,1.032-.951,1.3,0,2.593-.018,3.889.009.419.008.529-.124.516-.527-.028-.919-.029-1.84,0-2.758.014-.4-.13-.486-.5-.479-1.171.021-2.341.018-3.512,0-.455-.006-1.053.2-1.323-.1-.224-.251-.075-.834-.093-1.27A.572.572,0,0,0,281.785,92.6Z" transform="translate(5.52 0.964)" fill="#0b0b08"/>
    <path id="Trazado_640978" data-name="Trazado 640978" d="M282.052,92.532a.572.572,0,0,1,.011.062c.018.436-.131,1.019.093,1.27.27.3.868.1,1.323.1,1.171.014,2.341.018,3.512,0,.37-.007.514.076.5.479-.03.919-.029,1.84,0,2.758.013.4-.1.536-.516.527-1.3-.027-2.593-.009-3.889-.009-.985,0-.985,0-1.032.951l-1.842,0q0-3.074,0-6.147Z" transform="translate(5.252 1.032)" fill="#f8e051"/>
    <path id="Trazado_640979" data-name="Trazado 640979" d="M277.725,134.345c.071.547-.128.738-.712.715-1.253-.052-2.509-.03-3.764-.007-.383.007-.5-.1-.495-.487q.03-3.294,0-6.587c0-.391.111-.494.495-.487,1.254.023,2.511.045,3.764-.007.585-.023.784.168.712.715-.054,1.207-.054,1.188-1.1,1.213-.637.015-1.464-.284-1.861.136-.363.384-.1,1.2-.1,1.819,0,.559-.238,1.283.091,1.637.364.394,1.1.117,1.679.128C277.671,133.156,277.671,133.139,277.725,134.345Z" transform="translate(3.972 7.037)" fill="#07090a"/>
    <path id="Trazado_640980" data-name="Trazado 640980" d="M277.458,134.24c-.054-1.206-.054-1.189-1.287-1.214-.574-.011-1.315.266-1.679-.128-.329-.354-.094-1.078-.091-1.637,0-.623-.265-1.434.1-1.819.4-.42,1.223-.121,1.861-.136,1.044-.025,1.044-.006,1.1-1.213l1.842,0v6.137Z" transform="translate(4.239 7.142)" fill="#459fd4"/>
    <path id="Trazado_640981" data-name="Trazado 640981" d="M279.523,88.4c-.95,0-.95,0-.95-1.145,0-.739,0-.739,1.142-.738.744,0,.676,0,.764,1.206C280.55,88.665,279.943,88.353,279.523,88.4Z" transform="translate(4.972 0)" fill="#020201"/>
    <path id="Trazado_640982" data-name="Trazado 640982" d="M279.522,139.773c.953,0,.953,0,.953,1.146,0,.737,0,.737-1.21.737-.675,0-.606-.006-.7-1.208C278.5,139.506,279.106,139.822,279.522,139.773Z" transform="translate(4.97 9.146)"/>
    <path id="Trazado_640983" data-name="Trazado 640983" d="M262.561,141.469q-5.463.009-10.926.026c-.3,0-.388-.079-.388-.382q.014-6.215,0-12.43c0-.3.089-.384.388-.382q5.463.023,10.926.026v1.842c-1.424.007-2.846.016-4.269.02-1.4,0-1.385,0-1.4,1.382,0,.415.111.517.518.513,1.715-.016,3.431,0,5.148.011v1.842c-1.424.007-2.846.016-4.269.02-1.4,0-1.385,0-1.4,1.382,0,.414.111.516.518.512,1.715-.016,3.431,0,5.148.011V137.7c-.165.006-.33.019-.5.019-1.441.006-1.431,0-1.4,1.473.006.312.063.442.407.424.494-.026.992,0,1.489.012Zm-8.483-9.4c1.084-.015.933.132.941-.783.011-1.1,0-1.1-.812-1.1-1.069,0-1.069,0-1.069.846C253.137,132.073,253.137,132.073,254.078,132.073Zm.943,2.87c0-.985,0-.985-.739-.987-1.144,0-1.144,0-1.144.772,0,1.111,0,1.111.8,1.112C255.021,135.84,255.021,135.84,255.021,134.943Zm-.906,2.781c-1.09.014-.977-.135-.974.812,0,1.208-.155,1.067.84,1.067,1.182,0,1.036.155,1.036-.871C255.018,137.58,255.17,137.741,254.116,137.723Zm3.688,1.883c1.066-.013.988.134.984-.819,0-1.152.148-1.065-.8-1.062-1.185,0-1.079-.151-1.077.847C256.911,139.718,256.76,139.595,257.8,139.606Z" transform="translate(0.278 7.177)" fill="#c2eafc"/>
    <path id="Trazado_640984" data-name="Trazado 640984" d="M260.9,133.936v-1.842q3.106-.011,6.214-.02c1.325,0,1.3,0,1.332-1.319.012-.471-.111-.581-.579-.578-2.322.021-4.645,0-6.967-.008v-1.842c3.013-.006,6.026-.009,9.04-.027.3,0,.384.083.383.384q-.014,6.213,0,12.428c0,.3-.082.386-.383.384-3.014-.018-6.028-.021-9.04-.027v-1.841a1.752,1.752,0,0,1,.374-.016c.47.08.657-.1.574-.573a1.843,1.843,0,0,1,0-.312c0-.98,0-.98-.946-1.026V135.86c.794-.007,1.589-.018,2.383-.02,1.419,0,1.4,0,1.392-1.444,0-.355-.1-.453-.451-.449C263.119,133.964,262.009,133.943,260.9,133.936Zm5.178,5.67h.94c1.462,0,1.445,0,1.427-1.468,0-.391-.154-.428-.475-.422-.94.018-1.881.007-2.82.007-1.491,0-1.48,0-1.437,1.468.009.323.09.435.422.423C264.784,139.59,265.432,139.606,266.08,139.606Zm1.406-5.65c-.367.084-1.022-.322-.955.65.083,1.228.019,1.233.669,1.234,1.235,0,1.235,0,1.235-.712C268.436,133.956,268.436,133.956,267.486,133.956Z" transform="translate(1.936 7.177)" fill="#fefefe"/>
    <path id="Trazado_640985" data-name="Trazado 640985" d="M268.292,106.358c-2.278,0-4.557-.011-6.835.009-.419,0-.586-.075-.567-.537.039-.94.025-1.881,0-2.82-.007-.326.084-.427.419-.427q6.992.016,13.985,0c.377,0,.445.139.438.472-.019.92-.03,1.84,0,2.758.016.437-.107.56-.55.555C272.892,106.346,270.593,106.358,268.292,106.358Z" transform="translate(1.934 2.76)" fill="#ed726e"/>
    <path id="Trazado_640986" data-name="Trazado 640986" d="M290.54,124.037c-2.008,0-4.017-.009-6.025.007-.367,0-.516-.062-.5-.472.033-.961.023-1.924,0-2.886-.007-.329.094-.422.423-.422q6.182.016,12.365,0c.279,0,.417.052.411.375-.018,1-.026,2.008,0,3.011.013.449-.255.384-.526.384Q293.616,124.035,290.54,124.037Z" transform="translate(5.906 5.797)" fill="#f8e051"/>
    <path id="Trazado_640987" data-name="Trazado 640987" d="M261.733,129.9c2.322.007,4.645.029,6.967.008.468,0,.591.107.579.578-.03,1.318-.007,1.316-1.332,1.319q-3.107.007-6.214.02c-1.717-.007-3.432-.027-5.148-.011-.407,0-.521-.1-.518-.513.012-1.38-.007-1.378,1.4-1.382C258.886,129.911,260.309,129.9,261.733,129.9Z" transform="translate(1.106 7.451)"/>
    <path id="Trazado_640988" data-name="Trazado 640988" d="M261.733,133.11c1.107.007,2.217.028,3.324.012.355,0,.448.094.451.449.013,1.444.027,1.441-1.392,1.444-.794,0-1.589.013-2.383.02-1.717-.007-3.432-.027-5.148-.011-.407,0-.521-.1-.518-.512.012-1.38-.007-1.378,1.4-1.382C258.886,133.126,260.309,133.117,261.733,133.11Z" transform="translate(1.106 8.003)"/>
    <path id="Trazado_640989" data-name="Trazado 640989" d="M261.18,136.323c.946.047.946.047.946,1.026a1.843,1.843,0,0,0,0,.312c.083.471-.1.653-.574.573a1.752,1.752,0,0,0-.374.016c-.5-.007-.995-.037-1.489-.012-.343.018-.4-.112-.407-.424-.03-1.468-.041-1.467,1.4-1.473C260.85,136.342,261.015,136.329,261.18,136.323Z" transform="translate(1.657 8.555)" fill="#07090a"/>
    <path id="Trazado_640990" data-name="Trazado 640990" d="M253.8,131.8c-.941,0-.941,0-.94-1.037,0-.846,0-.846,1.069-.846.816,0,.823,0,.812,1.1C254.734,131.928,254.885,131.781,253.8,131.8Z" transform="translate(0.555 7.454)" fill="#ed726e"/>
    <path id="Trazado_640991" data-name="Trazado 640991" d="M254.744,134.114c0,.9,0,.9-1.08.9-.8,0-.8,0-.8-1.112,0-.773,0-.773,1.144-.772C254.744,133.128,254.744,133.128,254.744,134.114Z" transform="translate(0.555 8.006)" fill="#f8e051"/>
    <path id="Trazado_640992" data-name="Trazado 640992" d="M253.839,136.342c1.055.018.9-.143.9,1.009,0,1.025.146.869-1.036.871-.995,0-.838.141-.84-1.067C252.862,136.207,252.749,136.356,253.839,136.342Z" transform="translate(0.554 8.559)" fill="#54b3ec"/>
    <path id="Trazado_640993" data-name="Trazado 640993" d="M256.974,138.226c-1.043-.012-.892.111-.894-1.034,0-1-.108-.842,1.077-.847.949,0,.8-.09.8,1.062C257.962,138.359,258.04,138.213,256.974,138.226Z" transform="translate(1.107 8.558)" fill="#fefefe"/>
    <path id="Trazado_640994" data-name="Trazado 640994" d="M265.669,138.226c-.648,0-1.3-.016-1.943.008-.332.012-.412-.1-.422-.423-.043-1.469-.054-1.468,1.437-1.468.94,0,1.881.011,2.82-.007.321-.006.47.03.475.422.018,1.469.035,1.468-1.427,1.468Z" transform="translate(2.347 8.558)" fill="#020201"/>
    <path id="Trazado_640995" data-name="Trazado 640995" d="M266.662,133.129c.949,0,.949,0,.949,1.172,0,.712,0,.712-1.235.712-.65,0-.586-.006-.669-1.234C265.64,132.807,266.295,133.214,266.662,133.129Z" transform="translate(2.761 8.004)"/>
  </g>
</svg>
