<svg xmlns="http://www.w3.org/2000/svg" width="58.686" height="58.667" viewBox="0 0 58.686 58.667">
  <g id="Grupo_980820" data-name="Grupo 980820" transform="translate(-438.316 -241.529)">
    <path id="Trazado_640843" data-name="Trazado 640843" d="M494.983,279.376h.643c1.119,0,1.375.262,1.375,1.4v18.1c0,1.039-.286,1.319-1.339,1.319H458.569c-1.043,0-1.321-.282-1.321-1.336,0-2.227-.014-4.455.011-6.682,0-.425-.118-.51-.522-.508q-6.656.022-13.311.009a4.757,4.757,0,0,1-5.109-5.135V251.354a4.751,4.751,0,0,1,5.09-5.095c.474,0,1.05.163,1.392-.051.385-.239.1-.862.155-1.314a3.792,3.792,0,0,1,7.56.343c.025,1.021.025,1.021,1.054,1.021h6.566c.891,0,.891,0,.9-.877a3.786,3.786,0,0,1,7.569-.219c.042,1.1.042,1.1,1.159,1.1,2.268,0,4.536-.014,6.8.013.466.005.575-.123.571-.578a3.789,3.789,0,1,1,7.558-.484c.033,1.05.033,1.057,1.084,1.048a6.692,6.692,0,0,1,2.449.293,4.756,4.756,0,0,1,3.094,4.587q.008,10.055-.009,20.107c0,.461.108.607.573.569a2.839,2.839,0,0,1,2.631,4.535.265.265,0,0,0-.023.358A2.873,2.873,0,0,1,494.983,279.376ZM456.3,281.289c-.824-.007-1.65,0-2.474-.025-.284-.007-.374.085-.367.367.022.824.018,1.65.024,2.474a2.606,2.606,0,0,1-.02.293c-.1.537.119.7.658.669.9-.047,1.806-.027,2.707-.005.334.009.437-.094.428-.428-.022-.842-.007-1.686-.007-2.53s0-.853-.831-.83C456.375,281.274,456.337,281.283,456.3,281.289Zm25.583-2.859c.108.71.385.945,1.149.947q4.511,0,9.02,0c.734,0,1.168-.367,1.162-.956s-.439-.929-1.18-.916c-3.06-.007-6.12-.018-9.18-.014C482.247,277.491,481.981,277.779,481.88,278.43Zm0-3.786c.107.712.383.947,1.148.947q4.511.005,9.022,0c.736,0,1.169-.363,1.162-.954s-.432-.929-1.18-.918c-3.06-.005-6.12-.018-9.18-.013C482.247,273.705,481.981,273.991,481.88,274.643Zm-.972-31.2a1.842,1.842,0,0,0-1.883,1.836c-.02,1.075.007,2.151.014,3.228-.007.215-.027.432-.018.649a1.9,1.9,0,0,0,1.869,1.836,1.88,1.88,0,0,0,1.907-1.854c.025-1.28.023-2.561,0-3.842A1.852,1.852,0,0,0,480.908,243.439ZM462.946,248.5c-.005.215-.025.432-.016.649a1.9,1.9,0,0,0,1.869,1.836,1.881,1.881,0,0,0,1.907-1.854c.023-1.28.022-2.561,0-3.842a1.887,1.887,0,0,0-3.774-.016C462.914,246.351,462.941,247.426,462.946,248.5Zm-16.091,0c-.007.215-.027.432-.018.649a1.9,1.9,0,0,0,1.869,1.836,1.881,1.881,0,0,0,1.909-1.854q.035-1.919,0-3.842a1.887,1.887,0,0,0-3.774-.016C446.823,246.351,446.848,247.426,446.856,248.5Zm46.355,32.785c-.235-.007-.472-.018-.708-.018q-11.557,0-23.116,0h-9.7c-.291,0-.564-.076-.56.419.025,4.905.024,9.81.029,14.715-.005.434.022.869-.027,1.3-.056.508.145.609.625.609q17.356-.022,34.712,0c.515,0,.656-.114.654-.643-.023-4.867-.009-9.734-.02-14.6,0-.584.266-1.37-.117-1.7S493.817,281.276,493.21,281.289Zm-28.373-23.674q-12.034,0-24.07-.013c-.472,0-.569.13-.567.58q.022,8.838.011,17.677,0,5.5,0,11a2.8,2.8,0,0,0,2.716,2.917c4.652.027,9.306.009,13.958.018.276,0,.376-.067.367-.358-.02-.689-.023-1.379,0-2.069.011-.333-.085-.428-.423-.425-1.359.02-2.72.011-4.081.007-.849,0-1.18-.331-1.182-1.177-.005-1.655,0-3.311,0-4.966,0-1.177.246-1.426,1.408-1.426h26.436c.137,0,.277-.011.412,0,.264.023.287-.1.229-.315a2.6,2.6,0,0,1,.465-2.288c.117-.164.163-.264.025-.452a2.681,2.681,0,0,1-.186-3.1,2.866,2.866,0,0,1,2.733-1.421c1.912.023,3.824-.011,5.737.018.473.007.62-.083.618-.595q-.038-6.474,0-12.946c0-.512-.09-.68-.652-.68Q476.813,257.631,464.837,257.614Zm-.027-1.894h16.447c2.543,0,5.088-.005,7.63.007.383,0,.562-.058.553-.5-.029-1.419-.005-2.838-.013-4.258A2.784,2.784,0,0,0,488.6,249a3.4,3.4,0,0,0-2.781-.857c-1.092.027-1.092.005-1.126,1.1a3.787,3.787,0,0,1-7.569-.291c-.005-.808-.005-.808-.822-.808h-6.566c-1.1,0-1.1,0-1.133,1.092a3.786,3.786,0,1,1-7.557-.454c.005-.522-.126-.658-.651-.651-2.288.031-4.576.013-6.862.013-1,0-1,0-1.021,1.027a3.784,3.784,0,0,1-7.468.792,5.291,5.291,0,0,1-.1-1.41c.007-.3-.08-.428-.4-.414-.472.022-.947,0-1.419.007a2.841,2.841,0,0,0-2.919,2.912c-.007,1.341.027,2.682-.014,4.021-.016.531.139.649.654.647Q452.83,255.706,464.81,255.72Z" transform="translate(0 0)" fill="#010101"/>
    <path id="Trazado_640844" data-name="Trazado 640844" d="M446.913,276.525c-1.518,0-3.036.005-4.554,0a2.841,2.841,0,1,1-.014-5.675q4.584-.008,9.167,0a2.841,2.841,0,1,1,.016,5.675C449.989,276.53,448.451,276.525,446.913,276.525Zm-5.633-2.839c.1.692.383.943,1.09.945q4.571.008,9.138,0c.687,0,1.11-.381,1.1-.954-.005-.6-.432-.929-1.178-.918-3.062-.005-6.121-.016-9.181-.013C441.647,272.748,441.381,273.033,441.28,273.686Z" transform="translate(0.846 23.668)" fill="#010101"/>
    <path id="Trazado_640845" data-name="Trazado 640845" d="M464,250.436q11.977,0,23.951-.016c.562,0,.656.168.652.68q-.03,6.471,0,12.946c0,.511-.145.6-.618.595-1.912-.029-3.824.005-5.737-.018a2.866,2.866,0,0,0-2.733,1.421,2.681,2.681,0,0,0,.186,3.1c.137.188.092.287-.025.452a2.6,2.6,0,0,0-.465,2.288c.058.217.034.338-.23.315-.136-.013-.275,0-.412,0H452.134c-1.162,0-1.408.249-1.408,1.426,0,1.655,0,3.311,0,4.966,0,.846.333,1.173,1.182,1.177,1.361,0,2.722.013,4.081-.007.338,0,.434.092.423.425-.025.69-.022,1.381,0,2.069.009.291-.09.358-.367.358-4.652-.009-9.306.009-13.958-.018a2.8,2.8,0,0,1-2.716-2.917q-.011-5.5,0-11,0-8.838-.011-17.677c0-.45.1-.582.567-.58Q451.962,250.448,464,250.436Zm3.768,6.626c0-.886.005-1.771,0-2.657-.005-.775-.345-1.126-1.108-1.13q-2.687-.008-5.375,0a.958.958,0,0,0-1.084,1.092q-.011,2.687,0,5.373c0,.761.354,1.1,1.135,1.1q2.659.008,5.317,0c.766,0,1.11-.351,1.115-1.122C467.769,258.833,467.764,257.948,467.764,257.062Zm5.679-3.788c-.905,0-1.811-.007-2.716,0a.948.948,0,0,0-1.066,1.05q-.014,2.716,0,5.433a.959.959,0,0,0,1.1,1.081q2.689.011,5.375,0a.961.961,0,0,0,1.1-1.083q.014-2.687,0-5.373c0-.764-.352-1.1-1.126-1.11C475.214,253.268,474.328,253.274,473.443,253.274Zm5.68,3.745c0,.887,0,1.773,0,2.659.005.817.336,1.162,1.133,1.166q2.657.008,5.315,0c.77,0,1.119-.349,1.122-1.117q.008-2.657,0-5.313c0-.779-.343-1.131-1.1-1.135q-2.687-.011-5.375,0a.96.96,0,0,0-1.09,1.086C479.116,255.247,479.123,256.133,479.123,257.019Zm-30.289,19.024c0-.924.007-1.849,0-2.774a.949.949,0,0,0-1.05-1.066q-2.716-.016-5.435,0a.959.959,0,0,0-1.083,1.1q-.011,2.687,0,5.373a.961.961,0,0,0,1.081,1.1q2.687.014,5.373,0c.766,0,1.108-.352,1.115-1.124C448.839,277.776,448.834,276.91,448.834,276.043Zm24.609-13.306c-.905,0-1.811-.009-2.716,0a.948.948,0,0,0-1.066,1.05q-.014,2.716,0,5.433a.961.961,0,0,0,1.1,1.083q2.687.011,5.375,0a.962.962,0,0,0,1.1-1.083q.014-2.687,0-5.373c0-.765-.352-1.1-1.126-1.112C475.216,262.732,474.33,262.737,473.443,262.737Zm-5.679,3.776c0-.886.005-1.771,0-2.657-.005-.768-.349-1.115-1.119-1.117q-2.659-.011-5.315,0c-.781,0-1.131.342-1.133,1.1q-.011,2.687,0,5.373a.96.96,0,0,0,1.088,1.09q2.687.011,5.375,0c.761,0,1.1-.356,1.1-1.133C467.769,268.285,467.764,267.4,467.764,266.513Zm-13.192-3.776c-.925,0-1.851-.009-2.776,0a.947.947,0,0,0-1.066,1.05q-.014,2.744,0,5.491a.933.933,0,0,0,1.032,1.023q2.746.016,5.494,0a.934.934,0,0,0,1.036-1.021q.019-2.744,0-5.491a.949.949,0,0,0-1.064-1.052C456.345,262.728,455.458,262.737,454.572,262.737Zm-13.311,3.725c0,.945-.011,1.891,0,2.834a.924.924,0,0,0,.992,1q2.776.019,5.552,0a.936.936,0,0,0,1.021-1.036q.014-2.743,0-5.491a.935.935,0,0,0-1.023-1.034q-2.746-.016-5.492,0a.95.95,0,0,0-1.052,1.066C441.252,264.691,441.261,265.576,441.261,266.462Zm7.573-9.4c0-.866,0-1.731,0-2.6s-.325-1.189-1.166-1.191q-2.627-.008-5.258,0c-.808,0-1.144.34-1.146,1.149q-.008,2.627,0,5.254c0,.815.336,1.16,1.135,1.164q2.657.008,5.315,0c.768,0,1.112-.351,1.119-1.119C448.839,258.837,448.834,257.951,448.834,257.064Zm3.506,3.494c.107-.1.2-.17.278-.251.5-.5,1.025-.985,1.5-1.509.282-.313.463-.38.774-.022.452.521.983.971,1.448,1.478.255.28.425.318.681.007.3-.361.9-.685.9-1.025s-.578-.681-.9-1.028c-.356-.389-1.041-.721-1.012-1.148.029-.407.652-.772,1.016-1.155.322-.343.9-.689.9-1.028s-.6-.663-.9-1.027c-.264-.32-.436-.253-.683.016-.468.506-.987.967-1.451,1.477-.266.291-.439.345-.73.018-.457-.515-.983-.969-1.448-1.477-.269-.293-.463-.349-.723-.007-.282.369-.907.622-.878,1.025.025.349.564.66.877.985.369.381,1.01.746,1.034,1.148.027.463-.669.793-1.036,1.2-.3.333-.853.64-.873.985-.025.4.58.669.886,1.019C452.1,260.349,452.217,260.443,452.34,260.557Z" transform="translate(0.841 7.178)" fill="#e2e6f4"/>
    <path id="Trazado_640846" data-name="Trazado 640846" d="M449.863,278.654c-.007-4.905-.005-9.81-.031-14.715,0-.5.269-.419.56-.419h9.7q11.557,0,23.116,0c.237,0,.473.011.708.018L483.879,266a1.152,1.152,0,0,0-1.128-.6c-2.639.014-5.279.005-7.92.005-1.337,0-1.316,0-1.337,1.357-.007.454.13.549.562.546,2.463-.022,4.925,0,7.388-.02.446,0,.6.09.593.573q-.038,4.164,0,8.332c0,.474-.132.582-.587.578-2.483-.023-4.966,0-7.448-.018-.369,0-.535.072-.5.481.038.47.014.943.018,1.417l-4.724,0c.081-.26.345-.231.528-.311a3.786,3.786,0,0,0-1.529-7.262,1.88,1.88,0,0,1-.4-3.71,1.7,1.7,0,0,1,2.111,1.061c.2.8.654.813,1.256.766a1.447,1.447,0,0,1,.354,0c.511.087.549-.193.472-.582a3.8,3.8,0,0,0-2.384-2.939c-.217-.09-.492-.125-.419-.454.172-.784-.3-.815-.862-.763a2.569,2.569,0,0,1-.589,0c-.381-.051-.508.117-.445.466.081.443-.11.642-.526.811a3.55,3.55,0,0,0-2.29,3.054,3.627,3.627,0,0,0,1.567,3.488,4,4,0,0,0,2.27.714,1.877,1.877,0,0,1,1.807,1.717,1.9,1.9,0,0,1-1.433,1.979,1.708,1.708,0,0,1-2.12-1.037c-.2-.775-.62-.855-1.245-.783a1.591,1.591,0,0,1-.414,0c-.428-.067-.5.15-.437.51a3.827,3.827,0,0,0,2.272,2.964c.183.083.446.049.528.309l-4.723,0c0-.454-.027-.911.018-1.359.049-.466-.141-.544-.564-.54-2.483.018-4.966,0-7.45.018-.414,0-.526-.107-.524-.522.02-2.8.025-5.6,0-8.393-.005-.5.166-.569.6-.566,2.187.02,4.376.009,6.562.009,1.383,0,1.366,0,1.377-1.374,0-.408-.1-.531-.519-.528-2.917.018-5.834.007-8.751.011-.821,0-1.149.327-1.151,1.142,0,3.645.005,7.291-.007,10.936a1.151,1.151,0,0,0,.6,1.126Zm7.578-5.671h.472c1.419,0,1.406,0,1.4-1.4,0-.369-.076-.522-.483-.5-.647.033-1.3.009-1.946.009-1.4,0-1.386,0-1.374,1.428,0,.345.069.5.452.472C456.456,272.955,456.949,272.982,457.441,272.982Zm20.811,0h.473c1.446,0,1.446,0,1.406-1.448a1.453,1.453,0,0,1,0-.177c.016-.208-.09-.269-.284-.269-1.083.005-2.163,0-3.246,0-.164,0-.259.058-.255.237a3.993,3.993,0,0,0,.092,1.556c.146.289.8.065,1.224.1C477.858,272.993,478.057,272.982,478.252,272.982Z" transform="translate(9.297 17.75)" fill="#7fbd50"/>
    <path id="Trazado_640847" data-name="Trazado 640847" d="M463.971,252.768q-11.98,0-23.96.013c-.515,0-.671-.116-.654-.647.042-1.339.007-2.68.014-4.021a2.841,2.841,0,0,1,2.919-2.912c.472-.005.947.014,1.419-.007.32-.014.407.116.4.414a5.29,5.29,0,0,0,.1,1.41,3.784,3.784,0,0,0,7.468-.792c.022-1.027.022-1.027,1.021-1.027,2.286,0,4.574.018,6.862-.013.524-.007.656.128.651.651a3.786,3.786,0,1,0,7.556.454c.031-1.092.031-1.092,1.133-1.092h6.566c.817,0,.817,0,.822.808a3.787,3.787,0,0,0,7.569.291c.034-1.1.034-1.077,1.126-1.1a3.4,3.4,0,0,1,2.781.857,2.784,2.784,0,0,1,.826,1.963c.007,1.421-.016,2.839.013,4.258.009.446-.17.506-.553.5-2.543-.013-5.088-.007-7.631-.007Z" transform="translate(0.839 2.952)" fill="#40588d"/>
    <path id="Trazado_640848" data-name="Trazado 640848" d="M462.141,278.69l4.723,0c.049.952.049.952.907.952.976,0,.976,0,1.025-.952l4.724,0,9.167,0c.924,0,1.234-.315,1.234-1.247q0-5.381,0-10.763c0-.215-.025-.432-.038-.647l.034-2.463c.607-.013,1.377-.257,1.775.083s.116,1.111.117,1.7c.011,4.867,0,9.734.02,14.6,0,.53-.139.645-.654.643q-17.356-.022-34.712,0c-.481,0-.681-.1-.625-.609a12.992,12.992,0,0,0,.027-1.3l2.465-.036c.2.014.392.04.587.04Q457.528,278.692,462.141,278.69Z" transform="translate(9.294 17.717)" fill="#66973f"/>
    <path id="Trazado_640849" data-name="Trazado 640849" d="M444.921,242.586a1.851,1.851,0,0,1,1.889,1.853q.033,1.922,0,3.842a1.881,1.881,0,0,1-1.909,1.854,1.9,1.9,0,0,1-1.869-1.836c-.009-.217.011-.434.018-.649l.412,0c1.133,0,1.46-.331,1.46-1.475Q444.922,244.382,444.921,242.586Z" transform="translate(3.806 0.853)" fill="#c6cae7"/>
    <path id="Trazado_640850" data-name="Trazado 640850" d="M453.823,242.586a1.852,1.852,0,0,1,1.89,1.853c.02,1.281.022,2.563,0,3.842a1.881,1.881,0,0,1-1.907,1.854,1.9,1.9,0,0,1-1.869-1.836c-.009-.217.011-.434.016-.649l.412,0c1.133,0,1.462-.331,1.46-1.475Q453.825,244.382,453.823,242.586Z" transform="translate(10.994 0.853)" fill="#c6cae7"/>
    <path id="Trazado_640851" data-name="Trazado 640851" d="M462.726,242.586a1.852,1.852,0,0,1,1.891,1.853c.022,1.281.023,2.563,0,3.842a1.88,1.88,0,0,1-1.907,1.854,1.9,1.9,0,0,1-1.869-1.836c-.009-.217.011-.434.018-.649l.412,0c1.133,0,1.46-.331,1.46-1.475Q462.73,244.382,462.726,242.586Z" transform="translate(18.182 0.853)" fill="#c6cae7"/>
    <path id="Trazado_640852" data-name="Trazado 640852" d="M472.572,259.339c.748-.011,1.173.322,1.18.918s-.427.954-1.162.954q-4.511.005-9.022,0c-.765,0-1.041-.235-1.148-.947q4.527,0,9.051,0C472.19,260.265,472.51,259.988,472.572,259.339Z" transform="translate(19.46 14.379)" fill="#f0cf76"/>
    <path id="Trazado_640853" data-name="Trazado 640853" d="M472.572,261.434c.741-.013,1.173.324,1.18.916s-.428.954-1.162.956q-4.511,0-9.02,0c-.765,0-1.041-.237-1.149-.947q4.525,0,9.051,0C472.189,262.358,472.512,262.079,472.572,261.434Z" transform="translate(19.46 16.07)" fill="#e7a951"/>
    <path id="Trazado_640854" data-name="Trazado 640854" d="M472.572,259.345c-.062.649-.381.925-1.1.927q-4.525,0-9.051,0c.1-.652.367-.938.972-.938C466.452,259.327,469.512,259.34,472.572,259.345Z" transform="translate(19.46 14.372)" fill="#f7e4a0"/>
    <path id="Trazado_640855" data-name="Trazado 640855" d="M472.572,261.441c-.06.645-.383.924-1.1.925q-4.525,0-9.051,0c.1-.651.367-.938.972-.94C466.452,261.423,469.512,261.434,472.572,261.441Z" transform="translate(19.46 16.063)" fill="#ebb957"/>
    <path id="Trazado_640856" data-name="Trazado 640856" d="M462.726,242.586q0,1.8,0,3.591c0,1.144-.327,1.475-1.46,1.475l-.412,0c-.007-1.077-.034-2.153-.014-3.228A1.842,1.842,0,0,1,462.726,242.586Z" transform="translate(18.181 0.853)" fill="#e2e6f4"/>
    <path id="Trazado_640857" data-name="Trazado 640857" d="M453.823,242.586q0,1.8,0,3.591c0,1.144-.327,1.475-1.46,1.475l-.412,0c-.005-1.077-.033-2.153-.013-3.228A1.842,1.842,0,0,1,453.823,242.586Z" transform="translate(10.993 0.853)" fill="#e2e6f4"/>
    <path id="Trazado_640858" data-name="Trazado 640858" d="M444.921,242.586q0,1.8,0,3.591c0,1.144-.327,1.475-1.46,1.475l-.412,0c-.007-1.077-.032-2.153-.014-3.228A1.842,1.842,0,0,1,444.921,242.586Z" transform="translate(3.805 0.853)" fill="#e2e6f4"/>
    <path id="Trazado_640859" data-name="Trazado 640859" d="M446.717,266.355c-.005-.824,0-1.65-.024-2.474-.007-.282.083-.374.367-.367.824.022,1.65.018,2.474.025,0,.609.013,1.218,0,1.825a.909.909,0,0,1-.991.99C447.935,266.368,447.326,266.357,446.717,266.355Z" transform="translate(6.763 17.749)" fill="#7e9fcf"/>
    <path id="Trazado_640860" data-name="Trazado 640860" d="M446.725,266.354c.609,0,1.218.013,1.827,0a.909.909,0,0,0,.99-.99c.013-.607,0-1.216,0-1.825.04-.005.078-.014.117-.016.831-.023.831-.023.831.83s-.014,1.688.007,2.53c.009.334-.094.437-.428.428-.9-.022-1.807-.042-2.707.005-.539.029-.754-.132-.658-.669A2.607,2.607,0,0,0,446.725,266.354Z" transform="translate(6.755 17.751)" fill="#6686c4"/>
    <path id="Trazado_640861" data-name="Trazado 640861" d="M450.576,271.9c.746-.011,1.173.32,1.178.918.007.573-.416.952-1.1.954q-4.568.008-9.138,0c-.707,0-.985-.253-1.09-.945q4.525,0,9.049,0C450.193,272.829,450.514,272.551,450.576,271.9Z" transform="translate(1.702 24.523)" fill="#e7a951"/>
    <path id="Trazado_640862" data-name="Trazado 640862" d="M450.576,271.91c-.061.647-.383.925-1.1.927q-4.525,0-9.049,0c.1-.652.367-.938.971-.94C444.454,271.894,447.514,271.9,450.576,271.91Z" transform="translate(1.702 24.517)" fill="#ebb957"/>
    <path id="Trazado_640863" data-name="Trazado 640863" d="M458.459,255.789c0,.886.005,1.771,0,2.657-.005.772-.349,1.121-1.115,1.122q-2.659.011-5.317,0c-.781,0-1.133-.342-1.135-1.1q-.011-2.687,0-5.373A.958.958,0,0,1,451.974,252q2.687-.011,5.375,0c.763,0,1.1.354,1.108,1.13C458.464,254.017,458.459,254.9,458.459,255.789Zm-2.841-1.876c-.826-.005-1.652,0-2.476-.025-.284-.007-.374.085-.367.367.022.824.018,1.65.025,2.474a2.606,2.606,0,0,1-.022.293c-.094.537.119.7.66.669.9-.047,1.8-.027,2.706-.005.336.009.437-.094.43-.428-.023-.842-.007-1.686-.007-2.53s0-.853-.833-.83C455.693,253.9,455.655,253.907,455.617,253.912Z" transform="translate(10.147 8.452)" fill="#010101"/>
    <path id="Trazado_640864" data-name="Trazado 640864" d="M459.909,252c.886,0,1.771-.005,2.659,0,.774.005,1.124.345,1.126,1.11q.011,2.687,0,5.373a.961.961,0,0,1-1.1,1.083q-2.687.011-5.375,0a.959.959,0,0,1-1.1-1.081q-.011-2.716,0-5.433a.948.948,0,0,1,1.066-1.05C458.1,251.993,459,252,459.909,252Zm-1.872,4.728c-.007.1,0,.2-.02.293-.1.537.119.7.658.669.9-.047,1.8-.027,2.707-.005.334.009.437-.094.428-.428-.022-.842-.007-1.686-.007-2.53s0-.853-.833-.83c-.038,0-.078.011-.116.016-.826-.005-1.65,0-2.476-.025-.282-.007-.374.085-.367.367C458.033,255.078,458.03,255.9,458.037,256.728Z" transform="translate(14.374 8.452)" fill="#010101"/>
    <path id="Trazado_640865" data-name="Trazado 640865" d="M461.361,255.745c0-.886-.007-1.771,0-2.657a.96.96,0,0,1,1.09-1.086q2.689-.011,5.375,0c.761,0,1.1.356,1.1,1.135q.008,2.657,0,5.313c0,.768-.352,1.115-1.122,1.117q-2.657.011-5.315,0c-.8,0-1.128-.349-1.133-1.166C461.358,257.518,461.361,256.633,461.361,255.745Zm1.912.983a2.621,2.621,0,0,1-.02.293c-.1.537.119.7.658.669.9-.047,1.806-.027,2.707-.005.334.009.437-.094.428-.428-.022-.842-.007-1.686-.007-2.53s0-.853-.831-.83c-.04,0-.078.011-.117.016-.826-.005-1.65,0-2.476-.025-.282-.007-.372.085-.365.367C463.272,255.078,463.268,255.9,463.273,256.729Z" transform="translate(18.603 8.451)" fill="#010101"/>
    <path id="Trazado_640866" data-name="Trazado 640866" d="M447.985,266.316c0,.868.005,1.733,0,2.6-.007.772-.349,1.122-1.115,1.124q-2.687.011-5.373,0a.961.961,0,0,1-1.081-1.1q-.011-2.687,0-5.373a.959.959,0,0,1,1.083-1.1q2.716-.011,5.435,0a.948.948,0,0,1,1.05,1.066C447.993,264.467,447.985,265.392,447.985,266.316Zm-5.661.884a2.619,2.619,0,0,1-.02.293c-.1.537.119.7.658.669.9-.047,1.805-.027,2.707-.005.334.009.437-.094.428-.428-.022-.842-.007-1.686-.007-2.53s0-.853-.831-.83c-.04,0-.078.011-.117.016-.826-.007-1.65,0-2.476-.025-.282-.007-.372.085-.365.367C442.323,265.55,442.319,266.376,442.325,267.2Z" transform="translate(1.69 16.905)" fill="#010101"/>
    <path id="Trazado_640867" data-name="Trazado 640867" d="M459.909,257.237c.887,0,1.773-.005,2.659,0,.774.007,1.124.347,1.126,1.112q.011,2.687,0,5.373a.962.962,0,0,1-1.1,1.083q-2.687.011-5.375,0a.961.961,0,0,1-1.1-1.083q-.011-2.716,0-5.433a.948.948,0,0,1,1.066-1.05C458.1,257.228,459,257.237,459.909,257.237Zm.945,1.912c-.826-.007-1.65,0-2.476-.025-.282-.007-.374.083-.367.367.022.824.018,1.648.025,2.474-.007.1,0,.2-.02.293-.1.535.119.7.658.669.9-.047,1.8-.027,2.707-.005.334.007.437-.094.428-.43-.022-.842-.007-1.686-.007-2.528s0-.855-.833-.83A.845.845,0,0,0,460.855,259.149Z" transform="translate(14.374 12.678)" fill="#010101"/>
    <path id="Trazado_640868" data-name="Trazado 640868" d="M458.459,261.012c0,.887.005,1.773,0,2.659-.005.777-.343,1.13-1.1,1.133q-2.689.011-5.375,0a.96.96,0,0,1-1.088-1.09q-.011-2.687,0-5.373c0-.763.352-1.1,1.133-1.1q2.657-.008,5.315,0c.77,0,1.113.349,1.119,1.117C458.464,259.241,458.459,260.127,458.459,261.012Zm-2.841-1.863c-.826-.007-1.652,0-2.476-.025-.284-.007-.374.083-.367.367.022.824.018,1.648.025,2.474a2.608,2.608,0,0,1-.022.293c-.094.535.119.7.66.669.9-.047,1.8-.027,2.706-.005.336.007.437-.094.43-.43-.023-.842-.007-1.686-.007-2.528s0-.855-.833-.83A.808.808,0,0,0,455.617,259.149Z" transform="translate(10.147 12.678)" fill="#010101"/>
    <path id="Trazado_640869" data-name="Trazado 640869" d="M449.5,257.237c.886,0,1.773-.009,2.659,0a.949.949,0,0,1,1.064,1.052q.014,2.746,0,5.491a.934.934,0,0,1-1.036,1.021q-2.746.016-5.494,0a.933.933,0,0,1-1.032-1.023q-.019-2.746,0-5.491a.947.947,0,0,1,1.066-1.05C447.645,257.228,448.57,257.237,449.5,257.237Zm-1.934,4.728a2.621,2.621,0,0,1-.02.293c-.1.535.119.7.658.669.9-.047,1.806-.027,2.707-.005.334.007.437-.094.428-.43-.022-.842-.007-1.686-.007-2.528s0-.855-.831-.83a.869.869,0,0,0-.117.016c-.824-.007-1.65,0-2.474-.025-.284-.007-.374.083-.367.367C447.56,260.314,447.556,261.139,447.562,261.965Z" transform="translate(5.918 12.678)" fill="#010101"/>
    <path id="Trazado_640870" data-name="Trazado 640870" d="M440.413,260.962c0-.886-.009-1.771,0-2.657a.95.95,0,0,1,1.052-1.066q2.746-.014,5.492,0a.935.935,0,0,1,1.023,1.034q.014,2.746,0,5.491a.936.936,0,0,1-1.021,1.036q-2.776.019-5.552,0a.924.924,0,0,1-.992-1C440.4,262.853,440.413,261.907,440.413,260.962Zm4.73-1.813c-.826-.007-1.65,0-2.476-.025-.282-.007-.372.083-.365.367.022.824.018,1.648.023,2.474a2.621,2.621,0,0,1-.02.293c-.1.535.119.7.658.669.9-.047,1.806-.027,2.707-.005.334.007.437-.094.428-.43-.022-.842-.007-1.686-.007-2.528s0-.855-.831-.83A.873.873,0,0,0,445.143,259.149Z" transform="translate(1.69 12.678)" fill="#010101"/>
    <path id="Trazado_640871" data-name="Trazado 640871" d="M447.985,255.79c0,.887.005,1.773,0,2.659-.007.768-.351,1.117-1.119,1.119q-2.659.011-5.315,0c-.8,0-1.133-.349-1.135-1.164q-.008-2.627,0-5.254c0-.81.338-1.148,1.146-1.149q2.63-.008,5.258,0c.84,0,1.162.334,1.166,1.191S447.985,254.924,447.985,255.79Zm-2.843-1.878c-.826-.005-1.65,0-2.476-.025-.282-.007-.372.085-.365.367.022.824.018,1.65.023,2.474a2.615,2.615,0,0,1-.02.293c-.1.537.119.7.658.669.9-.047,1.806-.027,2.707-.005.334.009.437-.094.428-.428-.022-.842-.007-1.686-.007-2.53s0-.853-.831-.83C445.22,253.9,445.182,253.907,445.142,253.912Z" transform="translate(1.69 8.452)" fill="#010101"/>
    <path id="Trazado_640872" data-name="Trazado 640872" d="M447.092,259.121c-.123-.114-.244-.208-.345-.322-.305-.351-.911-.62-.886-1.019.02-.345.569-.652.873-.985.367-.4,1.063-.734,1.036-1.2-.023-.4-.665-.766-1.034-1.148-.313-.325-.851-.636-.877-.985-.029-.4.6-.656.878-1.025.26-.342.454-.286.723.007.465.508.99.961,1.448,1.477.291.327.465.273.73-.018.464-.51.983-.971,1.451-1.477.248-.269.419-.336.683-.016.3.363.9.683.9,1.027s-.575.685-.9,1.028c-.363.383-.987.748-1.016,1.155-.029.427.656.759,1.012,1.148.318.347.9.685.9,1.028s-.6.663-.9,1.025c-.257.311-.427.273-.681-.007-.464-.508-1-.958-1.448-1.478-.311-.358-.492-.291-.774.022-.475.524-1,1.009-1.5,1.509C447.289,258.951,447.2,259.025,447.092,259.121Z" transform="translate(6.089 8.615)" fill="#060404"/>
    <path id="Trazado_640873" data-name="Trazado 640873" d="M473.309,265.157c.013.215.038.432.038.647q.005,5.381,0,10.763c0,.933-.311,1.245-1.234,1.247l-9.167,0c0-.474.02-.947-.018-1.417-.033-.408.134-.483.5-.481,2.481.014,4.965-.005,7.448.018.455,0,.591-.1.587-.578q-.035-4.167,0-8.332c.005-.483-.146-.577-.593-.573-2.463.02-4.925,0-7.388.02-.432,0-.569-.092-.562-.546.022-1.357,0-1.357,1.337-1.357,2.641,0,5.281.009,7.92-.005A1.152,1.152,0,0,1,473.309,265.157Z" transform="translate(19.867 18.595)"/>
    <path id="Trazado_640874" data-name="Trazado 640874" d="M461.29,277.814q-4.611,0-9.225,0c-.2,0-.392-.025-.587-.04a1.151,1.151,0,0,1-.6-1.126c.013-3.645.005-7.291.007-10.936,0-.815.331-1.142,1.151-1.142,2.917,0,5.834.007,8.751-.011.421,0,.522.119.519.528-.011,1.374.005,1.374-1.377,1.374-2.187,0-4.376.011-6.562-.009-.436,0-.607.07-.6.566.027,2.8.022,5.6,0,8.393,0,.416.11.526.524.522,2.483-.02,4.967,0,7.45-.018.423,0,.613.074.564.54C461.263,276.9,461.294,277.36,461.29,277.814Z" transform="translate(10.145 18.593)"/>
    <path id="Trazado_640875" data-name="Trazado 640875" d="M462.446,278.237c-.049.952-.049.952-1.025.952-.859,0-.859,0-.907-.952-.081-.26-.345-.226-.528-.309a3.827,3.827,0,0,1-2.272-2.964c-.067-.36.009-.577.437-.51a1.59,1.59,0,0,0,.414,0c.625-.072,1.041.007,1.245.783a1.708,1.708,0,0,0,2.12,1.037,1.9,1.9,0,0,0,1.433-1.979,1.877,1.877,0,0,0-1.807-1.717,4,4,0,0,1-2.27-.714,3.627,3.627,0,0,1-1.567-3.488,3.55,3.55,0,0,1,2.29-3.054c.416-.17.607-.369.526-.811-.063-.349.063-.517.445-.466a2.572,2.572,0,0,0,.589,0c.564-.052,1.034-.022.862.763-.072.329.2.363.419.454a3.8,3.8,0,0,1,2.384,2.939c.078.389.04.669-.472.582a1.447,1.447,0,0,0-.354,0c-.6.047-1.052.038-1.256-.766a1.7,1.7,0,0,0-2.111-1.061,1.88,1.88,0,0,0,.4,3.71,3.786,3.786,0,0,1,1.529,7.262C462.791,278.006,462.527,277.977,462.446,278.237Z" transform="translate(15.644 18.166)" fill="#010101"/>
    <path id="Trazado_640876" data-name="Trazado 640876" d="M454.9,269.6c-.492,0-.985-.027-1.475.007-.383.027-.45-.126-.452-.472-.013-1.43-.023-1.428,1.374-1.428.649,0,1.3.023,1.947-.009.407-.022.483.132.483.5,0,1.4.014,1.4-1.4,1.4Z" transform="translate(11.834 21.129)"/>
    <path id="Trazado_640877" data-name="Trazado 640877" d="M466.421,269.6c-.2,0-.394.011-.589,0-.425-.031-1.077.193-1.224-.1a4,4,0,0,1-.092-1.556c0-.179.09-.237.255-.237,1.083,0,2.163,0,3.246,0,.193,0,.3.061.284.269a1.46,1.46,0,0,0,0,.177c.04,1.448.04,1.448-1.406,1.448Z" transform="translate(21.129 21.133)"/>
    <path id="Trazado_640878" data-name="Trazado 640878" d="M451.956,255.884c-.007-.824,0-1.65-.025-2.474-.007-.282.083-.374.367-.367.824.022,1.65.02,2.476.025,0,.609.011,1.218,0,1.825a.909.909,0,0,1-.99.99C453.174,255.9,452.565,255.886,451.956,255.884Z" transform="translate(10.991 9.296)" fill="#7e9fcf"/>
    <path id="Trazado_640879" data-name="Trazado 640879" d="M451.963,255.883c.609,0,1.218.013,1.825,0a.909.909,0,0,0,.99-.99c.013-.607,0-1.216,0-1.825.038-.005.076-.014.116-.016.833-.024.833-.024.833.83s-.016,1.688.007,2.53c.007.334-.094.437-.43.428-.9-.022-1.805-.042-2.706.005-.54.029-.754-.132-.66-.669A2.606,2.606,0,0,0,451.963,255.883Z" transform="translate(10.983 9.297)" fill="#6686c4"/>
    <path id="Trazado_640880" data-name="Trazado 640880" d="M457.192,255.884c-.007-.824,0-1.65-.025-2.474-.007-.282.085-.374.367-.367.826.022,1.65.02,2.476.025,0,.609.013,1.218,0,1.825a.91.91,0,0,1-.99.99C458.411,255.9,457.8,255.886,457.192,255.884Z" transform="translate(15.219 9.296)" fill="#7e9fcf"/>
    <path id="Trazado_640881" data-name="Trazado 640881" d="M457.2,255.883c.609,0,1.218.013,1.827,0a.909.909,0,0,0,.99-.99c.013-.607,0-1.216,0-1.825.038-.005.078-.014.116-.016.833-.024.833-.024.833.83s-.015,1.688.007,2.53c.009.334-.094.437-.428.428-.9-.022-1.807-.042-2.707.005-.539.029-.754-.132-.658-.669C457.2,256.08,457.192,255.98,457.2,255.883Z" transform="translate(15.212 9.297)" fill="#6686c4"/>
    <path id="Trazado_640882" data-name="Trazado 640882" d="M462.429,255.884c-.005-.824,0-1.65-.023-2.474-.007-.282.083-.374.365-.367.826.022,1.65.02,2.476.025,0,.609.013,1.218,0,1.825a.909.909,0,0,1-.99.99C463.647,255.9,463.038,255.886,462.429,255.884Z" transform="translate(19.448 9.296)" fill="#7e9fcf"/>
    <path id="Trazado_640883" data-name="Trazado 640883" d="M462.437,255.883c.609,0,1.218.013,1.827,0a.91.91,0,0,0,.991-.99c.013-.607,0-1.216,0-1.825.04-.005.078-.014.117-.016.831-.024.831-.024.831.83s-.014,1.688.007,2.53c.009.334-.094.437-.428.428-.9-.022-1.807-.042-2.707.005-.539.029-.754-.132-.658-.669A2.627,2.627,0,0,0,462.437,255.883Z" transform="translate(19.44 9.297)" fill="#6686c4"/>
    <path id="Trazado_640884" data-name="Trazado 640884" d="M441.48,266.355c-.005-.824,0-1.65-.023-2.474-.007-.282.083-.374.365-.367.826.022,1.65.018,2.476.025,0,.609.013,1.218,0,1.825a.909.909,0,0,1-.99.99C442.7,266.368,442.089,266.357,441.48,266.355Z" transform="translate(2.535 17.749)" fill="#7e9fcf"/>
    <path id="Trazado_640885" data-name="Trazado 640885" d="M441.488,266.354c.609,0,1.218.013,1.827,0a.909.909,0,0,0,.99-.99c.013-.607,0-1.216,0-1.825.04-.005.078-.014.117-.016.831-.023.831-.023.831.83s-.014,1.688.007,2.53c.009.334-.094.437-.428.428-.9-.022-1.807-.042-2.707.005-.539.029-.754-.132-.658-.669A2.614,2.614,0,0,0,441.488,266.354Z" transform="translate(2.527 17.751)" fill="#6686c4"/>
    <path id="Trazado_640886" data-name="Trazado 640886" d="M457.192,261.12c-.007-.826,0-1.65-.025-2.474-.007-.284.085-.374.367-.367.826.022,1.65.018,2.476.025,0,.607.013,1.216,0,1.825a.91.91,0,0,1-.99.99C458.411,261.133,457.8,261.12,457.192,261.12Z" transform="translate(15.219 13.523)" fill="#7e9fcf"/>
    <path id="Trazado_640887" data-name="Trazado 640887" d="M457.2,261.119c.609,0,1.218.013,1.827,0a.91.91,0,0,0,.99-.99c.013-.609,0-1.218,0-1.825a.856.856,0,0,1,.116-.016c.833-.025.833-.024.833.83s-.015,1.686.007,2.529c.009.336-.094.437-.428.43-.9-.022-1.807-.042-2.707.005-.539.027-.754-.134-.658-.669C457.2,261.316,457.192,261.217,457.2,261.119Z" transform="translate(15.212 13.524)" fill="#6686c4"/>
    <path id="Trazado_640888" data-name="Trazado 640888" d="M451.956,261.12c-.007-.826,0-1.65-.025-2.474-.007-.284.083-.374.367-.367.824.022,1.65.018,2.476.025,0,.607.011,1.216,0,1.825a.91.91,0,0,1-.99.99C453.174,261.133,452.565,261.12,451.956,261.12Z" transform="translate(10.991 13.523)" fill="#7e9fcf"/>
    <path id="Trazado_640889" data-name="Trazado 640889" d="M451.963,261.119c.609,0,1.218.013,1.825,0a.91.91,0,0,0,.99-.99c.013-.609,0-1.218,0-1.825a.817.817,0,0,1,.116-.016c.833-.025.833-.024.833.83s-.016,1.686.007,2.529c.007.336-.094.437-.43.43-.9-.022-1.805-.042-2.706.005-.54.027-.754-.134-.66-.669A2.609,2.609,0,0,0,451.963,261.119Z" transform="translate(10.983 13.524)" fill="#6686c4"/>
    <path id="Trazado_640890" data-name="Trazado 640890" d="M446.717,261.12c-.005-.826,0-1.65-.024-2.474-.007-.284.083-.374.367-.367.824.022,1.65.018,2.474.025,0,.607.013,1.216,0,1.825a.91.91,0,0,1-.991.99C447.935,261.133,447.326,261.12,446.717,261.12Z" transform="translate(6.763 13.523)" fill="#7e9fcf"/>
    <path id="Trazado_640891" data-name="Trazado 640891" d="M446.725,261.119c.609,0,1.218.013,1.827,0a.91.91,0,0,0,.99-.99c.013-.609,0-1.218,0-1.825a.879.879,0,0,1,.117-.016c.831-.025.831-.024.831.83s-.014,1.686.007,2.529c.009.336-.094.437-.428.43-.9-.022-1.807-.042-2.707.005-.539.027-.754-.134-.658-.669A2.608,2.608,0,0,0,446.725,261.119Z" transform="translate(6.755 13.524)" fill="#6686c4"/>
    <path id="Trazado_640892" data-name="Trazado 640892" d="M441.48,261.12c-.005-.826,0-1.65-.023-2.474-.007-.284.083-.374.365-.367.826.022,1.65.018,2.476.025,0,.607.013,1.216,0,1.825a.91.91,0,0,1-.99.99C442.7,261.133,442.089,261.12,441.48,261.12Z" transform="translate(2.535 13.523)" fill="#7e9fcf"/>
    <path id="Trazado_640893" data-name="Trazado 640893" d="M441.488,261.119c.609,0,1.218.013,1.827,0a.91.91,0,0,0,.99-.99c.013-.609,0-1.218,0-1.825a.884.884,0,0,1,.117-.016c.831-.025.831-.024.831.83s-.014,1.686.007,2.529c.009.336-.094.437-.428.43-.9-.022-1.807-.042-2.707.005-.539.027-.754-.134-.658-.669A2.615,2.615,0,0,0,441.488,261.119Z" transform="translate(2.527 13.524)" fill="#6686c4"/>
    <path id="Trazado_640894" data-name="Trazado 640894" d="M441.48,255.884c-.005-.824,0-1.65-.023-2.474-.007-.282.083-.374.365-.367.826.022,1.65.02,2.476.025,0,.609.013,1.218,0,1.825a.91.91,0,0,1-.99.99C442.7,255.9,442.089,255.886,441.48,255.884Z" transform="translate(2.535 9.296)" fill="#7e9fcf"/>
    <path id="Trazado_640895" data-name="Trazado 640895" d="M441.488,255.883c.609,0,1.218.013,1.827,0a.909.909,0,0,0,.99-.99c.013-.607,0-1.216,0-1.825.04-.005.078-.014.117-.016.831-.024.831-.024.831.83s-.014,1.688.007,2.53c.009.334-.094.437-.428.428-.9-.022-1.807-.042-2.707.005-.539.029-.754-.132-.658-.669A2.613,2.613,0,0,0,441.488,255.883Z" transform="translate(2.527 9.297)" fill="#6686c4"/>
  </g>
</svg>
