<svg xmlns="http://www.w3.org/2000/svg" width="60" height="60" viewBox="0 0 60 60">
  <g id="Grupo_951881" data-name="Grupo 951881" transform="translate(-410 -1150)">
    <rect id="Rectángulo_305522" data-name="Rectángulo 305522" width="60" height="60" transform="translate(410 1150)" fill="none"/>
    <g id="Grupo_951885" data-name="Grupo 951885" transform="translate(416.56 1156.56)">
      <path id="Trazado_628272" data-name="Trazado 628272" d="M1792.091,359.519a8.47,8.47,0,0,1,3.319-1.645,2.122,2.122,0,0,1,.643-.13c.633.064.766-.307.941-.818a1.983,1.983,0,0,0-.516-2.264,10.989,10.989,0,0,1-2.869-7.864,7.548,7.548,0,0,1,15.021-.806,11.107,11.107,0,0,1-3.233,9.2.819.819,0,0,0-.248.941,9.01,9.01,0,0,1,.3,1.186c.051.261.184.343.438.378a8.274,8.274,0,0,1,7.371,8.441c0,1.024-.019,2.047.01,3.07.011.395-.064.519-.5.518-5.292-.019-10.583-.012-15.875-.012q-12.733,0-25.466.012c-.45,0-.522-.136-.519-.542.017-2.991,0-5.983.017-8.974a.655.655,0,0,0-.385-.651,8.045,8.045,0,0,1-4.127-7.907,11.533,11.533,0,0,1,8.641-10.435c.252-.068.586-.006.674-.388.039-.17.048-.284-.134-.383a4.442,4.442,0,0,1-2.3-3.015c-.043-.184-.119-.214-.279-.224a3,3,0,0,1-2.327-4.69.526.526,0,0,0,.039-.484c-.167-.719-.375-1.431-.489-2.158a6.114,6.114,0,0,1,5.951-7.017c1.937-.021,3.874-.007,5.811,0a6.144,6.144,0,0,1,6.1,7.732c-.04.168-.081.336-.133.5a2.569,2.569,0,0,0,.095,2.036,2.942,2.942,0,0,1-2.49,4.071.423.423,0,0,0-.45.388,4.456,4.456,0,0,1-2.053,2.767c-.144.09-.427.081-.352.4.063.275.229.362.477.427a11.388,11.388,0,0,1,8.13,7.141,11.034,11.034,0,0,1,.761,4.15v7.047Zm-11.914-30.606a3.306,3.306,0,0,0-.143-.878c-.1-.636-.1-.645.517-.645.189,0,.379.011.567,0,.256-.019.387.028.415.341a3.159,3.159,0,0,0,.807,1.824c.413.474,1.04.675,1.458,1.107a1.613,1.613,0,0,0,1.519.5c.365-.055.795.332,1.039.033a2.805,2.805,0,0,0,.315-1.12,4.634,4.634,0,0,0-4.5-5.7c-1.953-.016-3.906,0-5.859,0a4.658,4.658,0,0,0-4.406,6.115c.077.255.067.582.227.754.185.2.483-.056.738-.057a.934.934,0,0,1,.141-.006c.3.048.394-.117.491-.371a4.379,4.379,0,0,1,1.519-2c.759-.559.754-.565,1.265.2.335.52.337.522-.19.886a3.037,3.037,0,0,0-1.4,2.633c0,1.306-.009,2.612,0,3.918a3.015,3.015,0,0,0,3.016,3.042q1.511.019,3.022,0a3.019,3.019,0,0,0,3.03-3.029c.011-.834-.021-1.668.008-2.5a2.479,2.479,0,0,0-1.383-2.429,4.69,4.69,0,0,1-2.012-2.244C1780.328,329.15,1780.247,329.033,1780.177,328.912Zm20.955,39.291c1.889,0,3.779-.008,5.669.008.322,0,.428-.065.42-.406-.025-1.007-.009-2.015-.009-3.022,0-1.137,0-1.125,1.16-1.123.3,0,.363.087.36.371-.016,1.243.011,2.488-.017,3.73-.009.39.121.463.472.45.723-.026,1.449-.021,2.172,0,.3.008.411-.055.4-.38-.028-.676,0-1.354-.011-2.03a6.8,6.8,0,0,0-6.677-6.66q-3.9-.034-7.795,0a6.8,6.8,0,0,0-6.523,5.29,18.575,18.575,0,0,0-.172,3.574c-.009.271.188.2.327.2.787,0,1.575-.008,2.362.008.265.006.346-.069.342-.338-.015-1.023-.006-2.046-.006-3.07,0-1.151,0-1.137,1.14-1.142.325,0,.382.107.378.4-.015,1.212.01,2.425-.016,3.636-.008.394.062.529.5.521C1797.447,368.187,1799.29,368.2,1801.132,368.2Zm.007-13.6q1.2,0,2.409,0a.589.589,0,0,0,.473-.149,9.717,9.717,0,0,0,3.1-8.308,5.993,5.993,0,0,0-6.331-5.141,6.075,6.075,0,0,0-5.662,5.794,10.058,10.058,0,0,0,3.113,7.59.69.69,0,0,0,.54.218C1799.564,354.592,1800.352,354.6,1801.139,354.6Zm-18.83-4.535c.359,0,.7,0,1.039,0,.375,0,.873-.126,1.094.063.262.224.066.737.085,1.124a3.059,3.059,0,0,1-1.28,2.785,5.239,5.239,0,0,1-1.029.5c.081.13.156.248.229.367a3.465,3.465,0,0,1-.248,4.214,2.625,2.625,0,0,0-.7,2.193,2.076,2.076,0,0,1,0,.471c-.048.329.106.382.4.378,1.228-.014,2.456-.019,3.684,0,.358.006.47-.074.469-.456-.016-4.045-.01-8.09-.01-12.135,0-1.024,0-1,1.017-1.034.428-.015.508.113.506.517-.018,3.226-.007,6.453-.015,9.68,0,.283.037.418.374.405.77-.028,1.543-.018,2.314,0,.258.005.358-.057.348-.334-.021-.566,0-1.133-.008-1.7-.04-1.966.109-3.935-.086-5.9a10.053,10.053,0,0,0-7.685-8.568c-.136-.03-.271-.09-.4.037-.54.545-1.083,1.088-1.631,1.638C1783.112,345.765,1783.56,347.453,1782.31,350.064Zm-6.117,0c-1.3-2.328-.846-4.217,1.3-5.606.216-.139.15-.21.022-.336-.437-.431-.879-.858-1.3-1.305a.553.553,0,0,0-.624-.161,9.853,9.853,0,0,0-5.7,3.782,9.2,9.2,0,0,0-1.846,7.338,6.685,6.685,0,0,0,7.142,5.366c.246-.016.276-.107.274-.312-.008-.819-.013-1.638,0-2.456.005-.255-.08-.33-.328-.388a5.251,5.251,0,0,1-3.829-3.192,7.512,7.512,0,0,1-.387-3.112c.006-1.151,0-1.141,1.149-1.136.28,0,.383.057.372.36-.024.676-.019,1.354,0,2.031a3.787,3.787,0,0,0,3.245,3.626c.121.016.249.058.316-.122a3.044,3.044,0,0,1-2.009-2.366,13.3,13.3,0,0,1-.048-1.791c-.012-.26.16-.218.313-.218Zm3.041,13.605q-3.211,0-6.423,0c-.214,0-.388-.026-.383.3.017,1.322.01,2.644,0,3.966,0,.2.052.276.264.275q2.763-.01,5.525,0c.212,0,.269-.075.265-.274a11.058,11.058,0,0,0-.017-1.461c-.124-.786.205-1.168.907-1.471,1.112-.479,1.086-.523,1.582.585.089.2.107.338-.121.4-.811.2-.958.767-.844,1.49a1.254,1.254,0,0,1,0,.377c-.046.3.087.363.369.361,1.763-.012,3.526-.017,5.289,0,.354,0,.4-.123.4-.432-.016-1.227-.021-2.455,0-3.682.007-.358-.093-.44-.443-.438C1783.483,363.678,1781.358,363.67,1779.233,363.67Zm-2.261-6.293a11.293,11.293,0,0,0,.047,1.726c.578.01,1.156.022,1.735.03a3.386,3.386,0,0,0,1.255-.136,2.27,2.27,0,0,0,1.49-2,2.139,2.139,0,0,0-1.247-2.146,2.484,2.484,0,0,0-2.708.258,1.213,1.213,0,0,0-.583,1.228A9.489,9.489,0,0,1,1776.972,357.377Zm4.533-9.573a2.267,2.267,0,1,0-2.251,2.26A2.279,2.279,0,0,0,1781.5,347.8Zm6.05,16.62v2.641c0,1.2,0,1.2,1.226,1.145.224-.009.3-.065.291-.292-.014-.644-.005-1.289,0-1.934a8.3,8.3,0,0,1,1.332-4.543.905.905,0,0,0,.17-.328c.034-.263.077-.508-.371-.48-.767.048-1.541.025-2.311.007-.27-.006-.34.078-.337.341C1787.562,362.129,1787.555,363.277,1787.555,364.424Zm-8.267-12.848c-1.179,0-2.359.008-3.538-.006-.273,0-.318.083-.262.326a1.512,1.512,0,0,0,1.412,1.184q2.335.027,4.671,0a1.5,1.5,0,0,0,1.4-1.134c.079-.28.038-.384-.288-.378C1781.553,351.588,1780.42,351.576,1779.288,351.576Zm21.872,6.047c.535,0,1.071.012,1.606,0,.385-.012.925.18,1.113-.082s-.14-.731-.2-1.118c-.038-.247-.159-.317-.41-.314-1.133.015-2.267.007-3.4.007-1.2,0-1.192,0-1.438,1.168-.054.257-.024.357.275.35C1799.522,357.61,1800.341,357.622,1801.16,357.623Zm-28.726,2.718c0,.5.022.94-.007,1.378-.023.339.056.46.428.449,1.007-.03,2.015-.01,3.022-.01,1.1,0,1.082,0,1.1-1.088.007-.366-.1-.432-.446-.432A13.759,13.759,0,0,1,1772.434,360.341Zm6.818-19.351c-.565,0-1.13,0-1.695,0-.166,0-.315-.011-.36.2-.038.173-.16.329.028.512.62.6,1.225,1.215,1.831,1.829.117.118.2.165.343.021q.922-.942,1.862-1.864c.189-.185.043-.343.008-.514s-.172-.182-.323-.18C1780.382,340.993,1779.817,340.989,1779.252,340.99Zm7.545-6.779a1.53,1.53,0,0,0-1.335-1.52c-.13-.01-.31-.066-.26.186a13.91,13.91,0,0,1,.077,2.539c0,.283.1.31.332.255A1.547,1.547,0,0,0,1786.8,334.211Zm-13.608-.036c0-.408-.012-.817,0-1.224.01-.243-.076-.292-.3-.248a1.52,1.52,0,0,0-.013,2.975c.267.059.321-.035.311-.279C1773.177,334.991,1773.189,334.583,1773.189,334.175Zm6.8,27.2c0-.745,0-.745-.711-.73h-.047c-.753.011-.753.011-.753.766s0,.745.727.745C1779.994,362.157,1779.994,362.157,1779.994,361.376Z" transform="translate(-1766.391 -322.848)" fill="#020201"/>
      <path id="Trazado_628273" data-name="Trazado 628273" d="M1874.424,328.063c1.811,0,3.622,0,5.432,0a3.448,3.448,0,0,1,3.483,4.445c-.292,1.173-.577,2.348-.887,3.517a3.41,3.41,0,0,1-3.383,2.618c-1.071.008-2.142.011-3.212-.005a.812.812,0,0,0-.653.279c-.69.712-1.4,1.4-2.1,2.107a1.843,1.843,0,0,1-3.231-1.348c.007-.315.1-.691-.032-.928s-.568-.107-.866-.181a3.33,3.33,0,0,1-2.562-2.387c-.386-1.325-.71-2.672-.992-4.023a3.4,3.4,0,0,1,3.287-4.086c1.905-.026,3.811-.006,5.716-.006Zm.015,1.512c-1.873,0-3.746-.008-5.619,0a1.911,1.911,0,0,0-1.935,2.253c.282,1.3.619,2.6.971,3.883a1.882,1.882,0,0,0,1.888,1.418c.394.006.788.022,1.18,0,.344-.024.5.047.474.445-.039.674-.009,1.353-.012,2.029,0,.208-.021.421.222.518s.346-.092.475-.22c.826-.821,1.657-1.637,2.467-2.473a.917.917,0,0,1,.74-.3c1.243.015,2.487.01,3.73,0a1.942,1.942,0,0,0,1.991-1.542q.449-1.732.863-3.473a1.934,1.934,0,0,0-2.005-2.541Q1877.155,329.571,1874.439,329.575Z" transform="translate(-1836.615 -326.545)" fill="#020202"/>
      <path id="Trazado_628274" data-name="Trazado 628274" d="M1860.243,456.862c-1.842,0-3.685-.017-5.527.013-.437.007-.508-.128-.5-.521.026-1.211,0-2.424.016-3.636,0-.293-.053-.4-.378-.4-1.141.006-1.141-.009-1.141,1.142,0,1.023-.009,2.047.006,3.07,0,.269-.076.344-.342.338-.787-.017-1.574,0-2.362-.008-.139,0-.336.074-.327-.2a18.536,18.536,0,0,1,.172-3.574,6.8,6.8,0,0,1,6.523-5.29q3.9-.029,7.794,0a6.8,6.8,0,0,1,6.677,6.659c.01.677-.017,1.355.011,2.03.013.325-.1.388-.4.38-.724-.02-1.449-.024-2.172,0-.351.012-.482-.06-.473-.45.029-1.243,0-2.487.018-3.73,0-.284-.06-.37-.36-.371-1.16,0-1.16-.015-1.16,1.123,0,1.008-.016,2.015.009,3.022.008.342-.1.409-.42.406C1864.022,456.854,1862.132,456.862,1860.243,456.862Z" transform="translate(-1825.502 -411.507)" fill="#f5d67e"/>
      <path id="Trazado_628275" data-name="Trazado 628275" d="M1871.355,398.941c-.788,0-1.575-.007-2.362,0a.69.69,0,0,1-.54-.218,10.057,10.057,0,0,1-3.113-7.59,6.075,6.075,0,0,1,5.662-5.794,5.993,5.993,0,0,1,6.331,5.141,9.717,9.717,0,0,1-3.1,8.308.589.589,0,0,1-.473.149Q1872.56,398.939,1871.355,398.941Z" transform="translate(-1836.607 -367.19)" fill="#656c76"/>
      <path id="Trazado_628276" data-name="Trazado 628276" d="M1817.473,398.336c1.25-2.611.8-4.3-1.531-5.749.548-.55,1.091-1.092,1.631-1.638.125-.127.26-.067.4-.037a10.052,10.052,0,0,1,7.685,8.568c.2,1.962.046,3.932.086,5.9.011.566-.013,1.134.008,1.7.01.278-.09.339-.348.334-.771-.015-1.544-.024-2.314,0-.337.012-.375-.122-.374-.405.009-3.227,0-6.453.015-9.68,0-.4-.078-.532-.506-.517-1.016.036-1.017.01-1.017,1.034,0,4.045-.006,8.09.01,12.135,0,.382-.11.462-.469.456-1.228-.022-2.456-.017-3.684,0-.291,0-.446-.049-.4-.378a2.069,2.069,0,0,0,0-.471,2.627,2.627,0,0,1,.7-2.193,3.465,3.465,0,0,0,.248-4.214c-.073-.119-.148-.237-.229-.367a5.239,5.239,0,0,0,1.029-.5,3.058,3.058,0,0,0,1.28-2.785c-.02-.387.176-.9-.085-1.124-.221-.189-.719-.058-1.094-.063C1818.171,398.333,1817.831,398.336,1817.473,398.336Z" transform="translate(-1801.554 -371.12)" fill="#bbd989"/>
      <path id="Trazado_628277" data-name="Trazado 628277" d="M1779.85,398.395h-1.936c-.153,0-.324-.042-.313.218a13.321,13.321,0,0,0,.048,1.791,3.044,3.044,0,0,0,2.009,2.366c-.066.18-.195.138-.316.122a3.787,3.787,0,0,1-3.245-3.625c-.017-.677-.022-1.355,0-2.031.011-.3-.092-.359-.373-.36-1.148,0-1.143-.014-1.149,1.136a7.508,7.508,0,0,0,.386,3.112,5.251,5.251,0,0,0,3.829,3.192c.249.057.333.132.328.388-.016.819-.011,1.638,0,2.456,0,.205-.029.3-.274.312a6.685,6.685,0,0,1-7.142-5.366,9.2,9.2,0,0,1,1.846-7.338,9.853,9.853,0,0,1,5.7-3.782.553.553,0,0,1,.624.161c.421.447.863.874,1.3,1.305.128.127.194.2-.022.336C1779,394.177,1778.553,396.066,1779.85,398.395Z" transform="translate(-1770.049 -371.178)" fill="#bad989"/>
      <path id="Trazado_628278" data-name="Trazado 628278" d="M1800.479,343.653c.07.121.15.237.207.364a4.69,4.69,0,0,0,2.012,2.244,2.479,2.479,0,0,1,1.383,2.429c-.028.833,0,1.668-.008,2.5a3.019,3.019,0,0,1-3.03,3.029q-1.511.017-3.022,0a3.016,3.016,0,0,1-3.016-3.042c-.011-1.306,0-2.612,0-3.918a3.037,3.037,0,0,1,1.4-2.633c.526-.364.525-.366.19-.886.239-.215.539-.034.8-.122a7.282,7.282,0,0,0,1.112,2.247c.481.6.476.608,1.031.053a3.856,3.856,0,0,1,.334-.329c.2-.157.162-.276.007-.452a3.241,3.241,0,0,1-.827-1.5Zm-1.459,9.059v0c.456,0,.912.013,1.367,0a2.281,2.281,0,0,0,2.073-1.583c.2-.654.185-.679-.479-.679-.157,0-.315.008-.471,0-.26-.017-.457-.01-.555.321s-.414.44-.758.438c-.6,0-1.194,0-1.792,0-1.2,0-1.193,0-1.141,1.228.01.226.069.3.294.289C1798.046,352.7,1798.533,352.712,1799.02,352.712Z" transform="translate(-1786.693 -337.589)" fill="#e9cfb5"/>
      <path id="Trazado_628279" data-name="Trazado 628279" d="M1793.107,332.612l-1.435-.011c-.056-.177-.1-.359-.171-.528-.135-.315.114-.8-.262-.954a3.31,3.31,0,0,0-1.072-.033c-.207-.007-.286.079-.267.278.039.4.077.81.115,1.215-.259.088-.559-.093-.8.122-.51-.766-.505-.759-1.265-.2a4.378,4.378,0,0,0-1.519,2c-.1.254-.2.418-.491.37a.934.934,0,0,0-.141.006c-.255,0-.553.256-.738.057-.161-.172-.151-.5-.227-.754a4.658,4.658,0,0,1,4.406-6.115c1.953,0,3.906-.013,5.859,0a4.634,4.634,0,0,1,4.5,5.7,2.809,2.809,0,0,1-.315,1.12c-.244.3-.673-.088-1.039-.033a1.613,1.613,0,0,1-1.519-.5c-.418-.432-1.045-.633-1.458-1.107a3.16,3.16,0,0,1-.807-1.824c-.027-.313-.159-.36-.415-.341-.188.014-.378,0-.567,0-.618,0-.618.01-.517.646A3.305,3.305,0,0,1,1793.107,332.612Z" transform="translate(-1779.321 -326.548)" fill="#656c76"/>
      <path id="Trazado_628280" data-name="Trazado 628280" d="M1793.983,463.415c2.125,0,4.251.008,6.376-.009.35,0,.45.079.443.438-.024,1.227-.019,2.455,0,3.682,0,.308-.046.436-.4.432-1.763-.019-3.526-.015-5.289,0-.282,0-.414-.06-.369-.361a1.25,1.25,0,0,0,0-.377c-.114-.723.034-1.288.844-1.49.228-.057.21-.2.121-.4-.5-1.108-.47-1.064-1.582-.585-.7.3-1.031.684-.908,1.471a11.077,11.077,0,0,1,.017,1.461c0,.2-.053.275-.265.274q-2.763-.01-5.526,0c-.212,0-.265-.077-.264-.275.006-1.322.013-2.644,0-3.966,0-.325.17-.3.383-.3Q1790.772,463.417,1793.983,463.415Z" transform="translate(-1781.141 -422.593)" fill="#caa072"/>
      <path id="Trazado_628281" data-name="Trazado 628281" d="M1802.765,434.9a9.489,9.489,0,0,0-.011-1.035,1.213,1.213,0,0,1,.583-1.228,2.484,2.484,0,0,1,2.708-.258,2.138,2.138,0,0,1,1.247,2.146,2.269,2.269,0,0,1-1.49,2,3.386,3.386,0,0,1-1.255.136c-.578-.008-1.156-.02-1.735-.03A11.262,11.262,0,0,1,1802.765,434.9Z" transform="translate(-1792.184 -400.376)" fill="#e9cfb5"/>
      <path id="Trazado_628282" data-name="Trazado 628282" d="M1807.36,403.237a2.267,2.267,0,1,1-2.237-2.274A2.28,2.28,0,0,1,1807.36,403.237Z" transform="translate(-1792.246 -378.282)" fill="#a9b0ba"/>
      <path id="Trazado_628283" data-name="Trazado 628283" d="M1839.262,456.763c0-1.147.008-2.3-.006-3.443,0-.264.067-.348.337-.342.77.018,1.543.041,2.311-.007.448-.028.405.217.371.48a.905.905,0,0,1-.169.328,8.3,8.3,0,0,0-1.332,4.543c0,.645-.009,1.29,0,1.934.005.227-.067.283-.291.292-1.226.051-1.226.058-1.226-1.145Z" transform="translate(-1818.099 -415.187)" fill="#e9cfb5"/>
      <path id="Trazado_628284" data-name="Trazado 628284" d="M1801.466,421.768c1.132,0,2.265.012,3.4-.007.326-.006.367.1.288.378a1.5,1.5,0,0,1-1.4,1.134q-2.336.025-4.671,0a1.512,1.512,0,0,1-1.412-1.184c-.056-.243-.011-.329.262-.326C1799.107,421.776,1800.287,421.768,1801.466,421.768Z" transform="translate(-1788.57 -393.04)" fill="#cbcfd6"/>
      <path id="Trazado_628285" data-name="Trazado 628285" d="M1879.406,438.9c-.819,0-1.638-.013-2.456.007-.3.007-.329-.093-.275-.35.246-1.167.241-1.168,1.438-1.168,1.134,0,2.268.008,3.4-.007.25,0,.372.067.41.314.06.387.384.859.2,1.118s-.728.071-1.113.082C1880.477,438.912,1879.941,438.9,1879.406,438.9Z" transform="translate(-1844.637 -404.125)" fill="#f5c64e"/>
      <path id="Trazado_628286" data-name="Trazado 628286" d="M1787.175,451.971a13.759,13.759,0,0,0,4.1.3c.341,0,.453.066.446.432-.021,1.087,0,1.088-1.1,1.088-1.007,0-2.016-.019-3.022.01-.372.011-.45-.111-.428-.449C1787.2,452.911,1787.175,452.471,1787.175,451.971Z" transform="translate(-1781.133 -414.478)" fill="#bbd989"/>
      <path id="Trazado_628287" data-name="Trazado 628287" d="M1805.481,385.318c.565,0,1.13,0,1.695,0,.151,0,.285,0,.323.18s.181.329-.008.514q-.942.921-1.862,1.864c-.141.145-.227.1-.344-.021-.606-.614-1.211-1.229-1.831-1.829-.188-.183-.066-.339-.028-.512.045-.207.194-.2.36-.2C1804.351,385.323,1804.916,385.319,1805.481,385.318Z" transform="translate(-1792.62 -367.177)" fill="#e9cfb5"/>
      <path id="Trazado_628288" data-name="Trazado 628288" d="M1832.747,358.235a1.547,1.547,0,0,1-1.187,1.461c-.235.055-.328.027-.332-.256a13.877,13.877,0,0,0-.077-2.539c-.05-.252.13-.2.26-.186A1.53,1.53,0,0,1,1832.747,358.235Z" transform="translate(-1812.341 -346.873)" fill="#e9cfb5"/>
      <path id="Trazado_628289" data-name="Trazado 628289" d="M1786.111,358.223c0,.408-.012.817,0,1.224.01.244-.044.338-.311.279a1.52,1.52,0,0,1,.012-2.975c.224-.044.309,0,.3.248C1786.1,357.406,1786.111,357.815,1786.111,358.223Z" transform="translate(-1779.314 -346.897)" fill="#e9cfb5"/>
      <path id="Trazado_628290" data-name="Trazado 628290" d="M1809.543,453.743c0,.781,0,.781-.785.781-.727,0-.727,0-.727-.745s0-.756.753-.766h.047C1809.543,453,1809.543,453,1809.543,453.743Z" transform="translate(-1795.941 -415.216)" fill="#969ea8"/>
      <path id="Trazado_628291" data-name="Trazado 628291" d="M1878.094,333.277q2.715,0,5.431,0a1.934,1.934,0,0,1,2.006,2.541q-.412,1.741-.864,3.473a1.942,1.942,0,0,1-1.991,1.542c-1.244.005-2.487.01-3.73,0a.917.917,0,0,0-.74.3c-.81.837-1.642,1.653-2.468,2.473-.129.128-.244.312-.475.22s-.223-.31-.222-.518c0-.677-.027-1.355.012-2.029.023-.4-.129-.468-.474-.445-.392.027-.787.011-1.18,0a1.883,1.883,0,0,1-1.888-1.418c-.353-1.287-.689-2.579-.971-3.883a1.911,1.911,0,0,1,1.935-2.253C1874.348,333.269,1876.221,333.278,1878.094,333.277Zm-.045,3.023h4.2c1.116,0,1.1,0,1.115-1.116,0-.344-.1-.4-.42-.4-3.007.012-6.014.008-9.02.008-1.177,0-1.163,0-1.162,1.164,0,.306.1.356.373.354C1874.775,336.294,1876.412,336.3,1878.049,336.3Zm.027,1.512h-4.3c-1.006,0-.988,0-1.014,1.029-.01.378.065.5.474.494,3.007-.021,6.013-.011,9.02-.011,1.111,0,1.094,0,1.109-1.123,0-.354-.119-.4-.427-.4C1881.319,337.82,1879.7,337.812,1878.076,337.812Z" transform="translate(-1840.269 -330.247)" fill="#e4e7ea"/>
      <path id="Trazado_628292" data-name="Trazado 628292" d="M1804.513,369.372c-.487,0-.975-.011-1.461,0-.225.007-.284-.063-.294-.289-.052-1.228-.059-1.228,1.141-1.228.6,0,1.194,0,1.792,0,.343,0,.659-.1.758-.438s.295-.338.555-.321c.156.01.314,0,.471,0,.664,0,.683.026.479.679a2.281,2.281,0,0,1-2.073,1.583c-.455.016-.911,0-1.367,0Z" transform="translate(-1792.187 -354.249)" fill="#020201"/>
      <path id="Trazado_628293" data-name="Trazado 628293" d="M1802.932,339.9c-.038-.405-.076-.81-.115-1.215-.019-.2.06-.285.267-.278a3.311,3.311,0,0,1,1.072.033c.376.154.127.639.262.954.072.17.115.352.172.528a3.243,3.243,0,0,0,.827,1.5c.155.176.193.3-.007.452a3.846,3.846,0,0,0-.334.329c-.555.555-.55.551-1.031-.053A7.282,7.282,0,0,1,1802.932,339.9Z" transform="translate(-1792.238 -333.867)" fill="#020202"/>
      <path id="Trazado_628294" data-name="Trazado 628294" d="M1883.586,339.983c-1.637,0-3.274-.006-4.911.006-.277,0-.373-.047-.373-.354,0-1.164-.014-1.164,1.163-1.164,3.007,0,6.013,0,9.02-.008.319,0,.426.059.421.4-.016,1.116,0,1.116-1.115,1.116Z" transform="translate(-1845.807 -333.93)"/>
      <path id="Trazado_628295" data-name="Trazado 628295" d="M1883.611,348.885c1.621,0,3.243.008,4.865-.007.308,0,.432.042.427.4-.015,1.123,0,1.123-1.109,1.123-3.007,0-6.014-.01-9.02.011-.409,0-.484-.116-.475-.494.026-1.028.008-1.028,1.014-1.028Z" transform="translate(-1845.804 -341.32)"/>
    </g>
  </g>
</svg>
