<svg xmlns="http://www.w3.org/2000/svg" width="60.805" height="60.79" viewBox="0 0 60.805 60.79">
  <g id="Grupo_980819" data-name="Grupo 980819" transform="translate(-348.434 -220.72)">
    <path id="Trazado_640836" data-name="Trazado 640836" d="M392.52,263.459c-.2.876-.556,1.178-1.423,1.184-.495,0-.991.01-1.484,0a1.182,1.182,0,0,1-1.263-1.264c-.014-1.009-.019-2.018,0-3.027.009-.351-.061-.515-.446-.46a4.036,4.036,0,0,1-.712,0,1.18,1.18,0,0,1-1.22-1.245c-.015-1.029-.019-2.058,0-3.087.008-.34-.1-.425-.427-.422-1.7.017-3.4.01-5.106.008-1.016,0-1.452-.431-1.46-1.437-.006-.911-.038-1.823.013-2.731.029-.524-.158-.6-.624-.593-3.5.02-7.007.013-10.511.011-1.112,0-1.5-.389-1.508-1.491,0-.909-.019-1.821.009-2.731.011-.392-.06-.542-.5-.539q-5.7.029-11.4,0c-.384,0-.446.116-.445.465q.013,14.69-.006,29.382c0,.533.285.439.586.439h51.242a5.957,5.957,0,0,0-.7-1.23,1.2,1.2,0,1,1,2.012-1.259c.619.964,1.217,1.941,1.839,2.9a1.305,1.305,0,0,1,0,1.548c-.631.979-1.239,1.974-1.87,2.953a1.192,1.192,0,1,1-2.012-1.255c.24-.4.493-.794.8-1.285h-4.4c-.808,0-.806,0-.808.8a6.648,6.648,0,0,1-.012.712,1.182,1.182,0,0,1-2.355-.013,3.335,3.335,0,0,1-.009-.356c-.008-1.141-.008-1.141-1.178-1.141-1.82,0-3.641.01-5.463-.008-.369,0-.539.066-.493.476a5.226,5.226,0,0,1,0,1.007,1.2,1.2,0,0,1-1.179,1.11,1.216,1.216,0,0,1-1.18-1.114c-.006-.059,0-.118-.006-.178-.012-.411.134-.963-.076-1.2-.252-.281-.816-.088-1.244-.09-1.722-.011-3.445.024-5.166-.02-.572-.015-.707.178-.645.686a3.942,3.942,0,0,1-.005.831,1.18,1.18,0,0,1-2.352.005,6.806,6.806,0,0,1-.006-1.127c.025-.329-.108-.385-.4-.384-2.118.01-4.235.014-6.353,0-.331,0-.4.113-.382.406a8.3,8.3,0,0,1-.005,1.067,1.2,1.2,0,0,1-1.17,1.12,1.214,1.214,0,0,1-1.189-1.1c-.006-.059,0-.12-.008-.178-.038-.426.2-1.009-.1-1.236-.28-.211-.833-.065-1.267-.066-1.762,0-3.523.013-5.285-.011-.4-.005-.515.113-.477.492a5.915,5.915,0,0,1,0,.949,1.2,1.2,0,0,1-1.2,1.155,1.217,1.217,0,0,1-1.168-1.129c0-.019,0-.039,0-.059-.015-.45.142-1.086-.09-1.3-.314-.294-.936-.085-1.426-.089-1.445-.011-2.89.009-4.334-.014-.369-.006-.478.089-.454.457.033.513.022,1.029,0,1.543a1.184,1.184,0,1,1-2.367-.022c-.015-.514-.023-1.03,0-1.543.017-.326-.066-.454-.416-.434-.513.031-1.029.019-1.543.005a1.187,1.187,0,1,1,0-2.369c.514-.011,1.029-.014,1.543,0,.278.008.418-.029.415-.374-.019-1.859-.017-3.72,0-5.58,0-.305-.111-.362-.378-.348a9.346,9.346,0,0,1-1.068,0,1.18,1.18,0,0,1-.01-2.359,9.271,9.271,0,0,1,1.128,0c.27.015.327-.089.327-.34q-.013-3.236,0-6.47c0-.271-.092-.337-.341-.326-.355.018-.714.018-1.068,0a1.184,1.184,0,0,1-.023-2.367c.06,0,.12,0,.178,0,1.249-.025,1.249-.025,1.249-1.248,0-1.8-.013-3.6.009-5.4.005-.39-.1-.52-.487-.482a5.453,5.453,0,0,1-1.009,0,1.2,1.2,0,0,1-1.1-1.189,1.218,1.218,0,0,1,1.124-1.17c.039,0,.079,0,.118,0,.431-.014,1.016.136,1.251-.085.282-.266.087-.856.089-1.3.009-1.761-.006-3.522.013-5.283,0-.356-.071-.5-.452-.459a5.807,5.807,0,0,1-1.009,0,1.182,1.182,0,0,1,.011-2.362c.118-.01.238-.005.356-.005,1.084,0,1.084,0,1.084-1.115,0-1.84-.01-3.681.008-5.521,0-.366-.061-.542-.473-.495a5.347,5.347,0,0,1-1.009,0,1.2,1.2,0,0,1-1.113-1.178,1.217,1.217,0,0,1,1.112-1.182c.06-.005.12,0,.178-.005.412-.011.963.135,1.2-.075.284-.251.086-.815.092-1.243.014-1.259.005-2.518.005-3.884-.493.307-.9.571-1.318.815a1.187,1.187,0,1,1-1.239-2.017c1-.642,2.007-1.262,3-1.9a1.275,1.275,0,0,1,1.5.009c.982.627,1.975,1.236,2.954,1.87a1.195,1.195,0,1,1-1.274,2c-.385-.234-.763-.478-1.14-.716-.184.141-.106.312-.106.454-.005,4.472,0,8.944-.017,13.415,0,.453.118.542.552.541q10.807-.021,21.614-.01c1.273,0,1.619.346,1.62,1.617,0,.871.022,1.742-.009,2.611-.014.4.078.544.51.533,1.207-.032,2.415-.014,3.622-.01a1.241,1.241,0,0,1,1.418,1.419c.008.95.02,1.9-.008,2.849-.011.384.09.5.483.49,1.6-.023,3.206-.013,4.81-.008.982,0,1.4.422,1.405,1.413.005.949.019,1.9-.008,2.849-.01.382.089.5.486.495,1.683-.022,3.365-.011,5.047-.009,1.052,0,1.461.418,1.464,1.484,0,.93.02,1.861-.009,2.789-.013.391.1.488.486.485,2-.019,4-.01,6-.008,1.065,0,1.482.412,1.483,1.465q.006,2.137,0,4.273a1.221,1.221,0,0,1-1.386,1.384c-.455.005-.911,0-1.366,0-.867-.006-1.229-.309-1.421-1.184.19-.884.5-1.163,1.414-1.18.315-.006.4-.093.39-.4-.024-.532-.025-1.067,0-1.6.015-.32-.1-.39-.4-.389q-5.544.013-11.088,0c-.3,0-.418.066-.4.389.027.532.024,1.067,0,1.6-.013.307.074.394.39.4C392.019,262.3,392.327,262.573,392.52,263.459Zm-27.8-20.188c3.381,0,6.762-.01,10.143.013.482,0,.61-.142.567-.59a5.741,5.741,0,0,1,0-1.126c.053-.513-.084-.688-.652-.686-6.326.024-12.654.014-18.981.017-.57,0-1.338-.2-1.656.092-.369.335-.048,1.118-.125,1.7-.067.525.153.6.621.594C357.993,243.262,361.355,243.271,364.716,243.271Zm10.156,2.376c-1.9,0-3.794.01-5.69-.009-.361,0-.486.083-.462.455a13.231,13.231,0,0,1,0,1.54c-.015.317.092.394.4.394q5.72-.015,11.439,0c.3,0,.425-.07.407-.393a11.488,11.488,0,0,1,0-1.48c.034-.427-.122-.52-.528-.516C378.586,245.659,376.729,245.647,374.872,245.647Zm9.642,7.124c.413,0,.829.015,1.243,0,.623-.028,1.48.276,1.8-.122.312-.383.065-1.207.1-1.834.019-.345-.106-.426-.431-.422-1.323.018-2.644-.006-3.967.014-.622.009-1.474-.281-1.8.123-.313.384-.071,1.2-.108,1.83-.019.351.116.429.44.421C382.7,252.758,383.606,252.771,384.514,252.771Zm7.04,2.375c-.434,0-.87-.014-1.3,0-.624.025-1.482-.273-1.807.12s-.07,1.2-.1,1.833c-.018.337.09.431.425.426,1.324-.019,2.648.005,3.972-.013.625-.009,1.482.276,1.807-.118.313-.378.07-1.2.1-1.833.019-.336-.09-.434-.425-.426C393.333,255.16,392.444,255.145,391.554,255.145Z" transform="translate(0 0)" fill="#010101"/>
    <path id="Trazado_640837" data-name="Trazado 640837" d="M383.483,255.087c-.193-.886-.5-1.164-1.416-1.18-.317-.006-.4-.094-.39-.4.024-.533.027-1.068,0-1.6-.017-.323.1-.39.4-.389q5.544.013,11.088,0c.3,0,.417.069.4.389-.027.533-.025,1.068,0,1.6.014.308-.075.394-.39.4-.914.018-1.225.3-1.414,1.18h-2.934c-.17-.8-.589-1.2-1.236-1.188-.624.015-1.012.407-1.176,1.188Z" transform="translate(9.037 8.372)" fill="#a6c7f9"/>
    <path id="Trazado_640838" data-name="Trazado 640838" d="M385.4,254.578c.164-.781.552-1.173,1.176-1.188.647-.017,1.066.385,1.236,1.188-.175.8-.591,1.2-1.236,1.183C385.957,255.746,385.572,255.358,385.4,254.578Z" transform="translate(10.05 8.881)" fill="#060707"/>
    <path id="Trazado_640839" data-name="Trazado 640839" d="M363.536,238.972c-3.362,0-6.723-.009-10.083.011-.468,0-.688-.069-.621-.594.076-.58-.244-1.363.125-1.7.318-.289,1.086-.092,1.656-.092,6.327,0,12.655.008,18.981-.017.569,0,.706.173.652.686a5.739,5.739,0,0,0,0,1.126c.043.448-.085.594-.567.59C370.3,238.962,366.917,238.972,363.536,238.972Z" transform="translate(1.18 4.299)" fill="#a6c7f9"/>
    <path id="Trazado_640840" data-name="Trazado 640840" d="M370.536,240.321c1.857,0,3.714.011,5.571-.01.406,0,.562.089.528.516a11.488,11.488,0,0,0,0,1.48c.018.323-.107.394-.407.393q-5.719-.013-11.439,0c-.308,0-.415-.078-.4-.394a13.218,13.218,0,0,0,0-1.54c-.024-.373.1-.459.462-.455C366.743,240.331,368.639,240.321,370.536,240.321Z" transform="translate(4.336 5.326)" fill="#a6c7f8"/>
    <path id="Trazado_640841" data-name="Trazado 640841" d="M377.49,246.446c-.908,0-1.816-.013-2.723.006-.324.008-.459-.07-.44-.421.037-.626-.2-1.446.108-1.83.328-.4,1.18-.114,1.8-.123,1.323-.02,2.644,0,3.967-.014.326,0,.45.078.431.422-.033.627.214,1.451-.1,1.834-.324.4-1.182.094-1.8.122C378.319,246.461,377.9,246.446,377.49,246.446Z" transform="translate(7.024 6.325)" fill="#a6c6f8"/>
    <path id="Trazado_640842" data-name="Trazado 640842" d="M383.037,247.8c.89,0,1.779.015,2.668-.008.334-.008.444.09.425.426-.033.628.21,1.455-.1,1.833-.326.394-1.183.109-1.807.118-1.324.018-2.648-.006-3.972.013-.334.005-.443-.089-.425-.426.033-.628-.21-1.454.1-1.833s1.183-.094,1.807-.12C382.167,247.79,382.6,247.8,383.037,247.8Z" transform="translate(8.517 7.341)" fill="#a6c7f9"/>
  </g>
</svg>
