<svg xmlns="http://www.w3.org/2000/svg" width="78.274" height="48.235" viewBox="0 0 78.274 48.235">
  <g id="Grupo_956507" data-name="Grupo 956507" transform="translate(-616.273 -305.485)">
    <path id="Trazado_631286" data-name="Trazado 631286" d="M680.4,318.33l1.965.514a1.9,1.9,0,0,1-.092.207c-2.686,4.611-5.387,9.214-8.052,13.838a3.044,3.044,0,0,0,1.557,4.58,8.214,8.214,0,0,0,9.388-2.2c.8-.92,1.539-1.9,2.253-2.888.32-.444.531-.44.938-.115a10.689,10.689,0,0,0,5.526,2.385,1.4,1.4,0,0,1,.8.381c1.288,1.119,2.585,2.226,3.875,3.342q4.82,4.172,9.635,8.349a4.139,4.139,0,0,1-2.812,3.119c-1.143-.967-2.274-1.949-3.435-2.894a1.1,1.1,0,0,0-1.635.085,1.149,1.149,0,0,0,.15,1.635c.36.357.752.681,1.13,1.02a8.517,8.517,0,0,1-2.194,2.666c-.184.173-.436.269-.42.578-.24-.184-.488-.358-.718-.554-.846-.721-1.673-1.466-2.533-2.171a1.124,1.124,0,0,0-1.69.04,1.172,1.172,0,0,0,.187,1.683c.215.21.436.415.654.622l-1.831,2.129a3.47,3.47,0,0,1-2.89,1.4c.056-2.882-1.454-4.486-4.312-4.516-.473,0-.451-.294-.545-.562a3.946,3.946,0,0,0-4.582-2.646c-.432.089-.543-.016-.711-.382a3.908,3.908,0,0,0-4.607-2.214c-.451.115-.594.007-.8-.382a3.969,3.969,0,0,0-5.982-1.37,1.126,1.126,0,0,1-.827.284c-.963-.088-1.929-.2-2.893-.2-.742,0-.845-.288-.762-.941q1.234-9.722,2.415-19.452c.052-.424.164-.561.6-.524,1.243.1,2.493.127,3.733.248a1.457,1.457,0,0,0,1.633-.938c.456-.963.948-1.912,1.456-2.849a2.028,2.028,0,0,1,2.528-1.165c.742.17,1.468.407,2.206.6A1.258,1.258,0,0,0,680.4,318.33Z" transform="translate(-33.18 -8.909)" fill="#efc19a"/>
    <path id="Trazado_631287" data-name="Trazado 631287" d="M719.406,313.684l2.247-.269a1.214,1.214,0,0,0,1.483,1.071c.354-.036.715-.027,1.065-.089a4.589,4.589,0,0,1,3.215.623c2.065,1.2,4.166,2.339,6.238,3.53a2.469,2.469,0,0,0,1.677.327c.5-.077,1.016-.1,1.511-.21.437-.1.557.021.609.465.321,2.752.688,5.5,1.02,8.249.336,2.775.65,5.552.974,8.329-.751.1-1.5.249-2.252.3-1.581.11-3.119.294-4.284,1.544a3.386,3.386,0,0,1-.417.328q-3.945-3.377-7.886-6.758c-.043-.037-.036-.13-.059-.223a14.168,14.168,0,0,0,6.341-4.62c.571-.658.609-1.361.089-1.82s-1.2-.366-1.8.309a18,18,0,0,1-2.279,2.253,7.763,7.763,0,0,1-5.549,1.95,8.946,8.946,0,0,1-5.462-2.63c-1.1-1.031-1.588-1-2.525.207-.951,1.228-1.863,2.489-2.863,3.675a5.919,5.919,0,0,1-6.7,1.79c-.847-.3-1.015-.724-.556-1.516q3.864-6.668,7.742-13.327a3.458,3.458,0,0,1,2.906-1.819c1.4-.1,2.786-.286,4.182-.4A1.265,1.265,0,0,0,719.406,313.684Z" transform="translate(-60.147 -5.5)" fill="#e5a167"/>
    <path id="Trazado_631288" data-name="Trazado 631288" d="M734.221,330.211c-.324-2.776-.638-5.554-.974-8.329-.333-2.751-.7-5.5-1.02-8.249-.052-.443-.172-.562-.609-.465-.495.109-1.008.132-1.511.21a2.469,2.469,0,0,1-1.677-.327c-2.071-1.191-4.172-2.33-6.238-3.53a4.589,4.589,0,0,0-3.215-.623c-.349.062-.71.053-1.064.089a1.214,1.214,0,0,1-1.483-1.071c.075-.794.569-1.1,1.309-1.228a8.543,8.543,0,0,1,6.4,1.273c1.609,1.055,3.36,1.892,5.027,2.863.883.514,1.726.04,2.586-.006.245-.013.144-.284.166-.443a4.263,4.263,0,0,1,3.967-3.856c2.727-.319,5.45-.668,8.174-1.011.818-.1,1.377.149,1.573.738.214.643-.068,1.119-.9,1.52l-8.476,1.035a2.041,2.041,0,0,0-2,2.618c.352,2.67.668,5.344,1,8.016q.937,7.525,1.876,15.05c.106,2.307.836,2.92,3.1,2.638,2.673-.334,5.347-.651,8.02-.975.829.141,1.241.543,1.219,1.187s-.478,1.032-1.3,1.134q-4.166.518-8.333,1.037a4.226,4.226,0,0,1-4.707-2.908c-.077-.222-.085-.446-.405-.444-.98.008-1.961,0-3.086,0,.455.433.815.74,1.133,1.085a3.321,3.321,0,0,1,.774,3.606c-.8,2.082-3.1,4.137-5.963,3.117-.38-.135-.54,0-.76.247a9.511,9.511,0,0,1-2.451,2.369,4.172,4.172,0,0,1-3.39.3.691.691,0,0,0-.891.254,9.375,9.375,0,0,1-2.317,2.3,4.444,4.444,0,0,1-2.186.571c-1.051.02-1.457-.444-1.431-1.578a1.54,1.54,0,0,1,1.474-.734,1.981,1.981,0,0,0,1.6-.735c.385-.435.746-.892,1.146-1.313.244-.257.177-.41-.066-.6-.571-.455-1.128-.929-1.691-1.395-.218-.207-.439-.411-.654-.622a1.172,1.172,0,0,1-.187-1.683,1.124,1.124,0,0,1,1.69-.04c.86.7,1.687,1.449,2.533,2.171.23.2.478.37.718.554a2.042,2.042,0,0,0,3.242.006c1.414-1.5,1.415-1.5-.042-2.773-.19-.165-.391-.318-.586-.476-.378-.339-.77-.663-1.13-1.02a1.149,1.149,0,0,1-.15-1.635,1.1,1.1,0,0,1,1.635-.085c1.161.945,2.292,1.927,3.435,2.894a1.633,1.633,0,0,0,.145.171q1.938,1.733,3.552-.151c1.009-1.175.895-1.71-.635-2.971a3.009,3.009,0,0,0-.25-.168q-4.817-4.175-9.635-8.349c-1.29-1.117-2.587-2.223-3.875-3.342a1.4,1.4,0,0,0-.8-.381,10.688,10.688,0,0,1-5.526-2.385c-.408-.325-.618-.329-.939.115-.715.989-1.453,1.967-2.253,2.888a8.214,8.214,0,0,1-9.388,2.2,3.044,3.044,0,0,1-1.557-4.58c2.665-4.623,5.366-9.226,8.052-13.838a1.891,1.891,0,0,0,.092-.207,5.9,5.9,0,0,1,4.536-2.39c1.313-.073,2.619-.251,3.929-.375.925-.088,1.237.114,1.608,1.015a1.265,1.265,0,0,1-1.334,1.272c-1.4.111-2.786.293-4.182.4a3.458,3.458,0,0,0-2.906,1.819q-3.872,6.663-7.742,13.327c-.459.793-.291,1.217.556,1.516a5.919,5.919,0,0,0,6.7-1.79c1-1.186,1.912-2.448,2.863-3.675.937-1.209,1.426-1.238,2.525-.207a8.946,8.946,0,0,0,5.462,2.63,7.763,7.763,0,0,0,5.549-1.95,18.008,18.008,0,0,0,2.278-2.253c.6-.675,1.27-.773,1.8-.309s.482,1.162-.089,1.82a14.168,14.168,0,0,1-6.341,4.62c.023.093.017.186.059.223q3.939,3.384,7.886,6.758c.644.574,1.289,1.147,1.93,1.724.183.165.352.284.586.071a1.749,1.749,0,0,1,1.3-.316c1.018,0,2.036-.01,3.053,0,.363,0,.59-.048.523-.5C734.5,332.319,734.364,331.264,734.221,330.211Z" transform="translate(-54.925 0)" fill="#030303"/>
    <path id="Trazado_631289" data-name="Trazado 631289" d="M647.219,309.421a1.258,1.258,0,0,1-1.69.742c-.737-.192-1.464-.429-2.206-.6a2.028,2.028,0,0,0-2.528,1.165c-.508.937-1,1.886-1.456,2.849a1.457,1.457,0,0,1-1.634.938c-1.241-.121-2.49-.144-3.733-.248-.439-.037-.552.1-.6.524q-1.184,9.729-2.415,19.452c-.083.653.02.944.762.941.964,0,1.93.111,2.893.2a1.125,1.125,0,0,0,.827-.284,3.969,3.969,0,0,1,5.982,1.37c.2.388.344.5.8.382a3.908,3.908,0,0,1,4.607,2.214c.168.366.279.471.711.382a3.946,3.946,0,0,1,4.582,2.646c.094.268.072.557.545.562,2.858.03,4.368,1.634,4.312,4.517a4.764,4.764,0,0,1-.932,2.064c-.626.832-1.239,1.674-1.858,2.512a4.752,4.752,0,0,1-2.605,1.865,3.933,3.933,0,0,1-4.754-2.77c-.115-.4-.225-.6-.741-.587a3.816,3.816,0,0,1-3.819-2.9c-.106-.389-.237-.51-.658-.512a3.937,3.937,0,0,1-3.924-3c-.075-.259-.1-.438-.459-.468-3.414-.294-4.851-2.428-3.861-5.78-.913-.064-1.815-.112-2.714-.2-.349-.033-.491.167-.662.4a4.12,4.12,0,0,1-4,1.719c-2.832-.327-5.659-.695-8.488-1.047-.674-.084-1.166-.386-1.221-1.125-.048-.644.383-1.049,1.211-1.189l7.26.9c.428.053.858.1,1.285.162,1.649.23,2.443-.607,2.579-2.723q.507-4.046,1.014-8.091.952-7.638,1.9-15.277a1.921,1.921,0,0,0-1.728-2.281c-2.923-.382-5.851-.717-8.778-1.072-.834-.4-1.117-.875-.9-1.519.2-.59.754-.842,1.573-.739,2.726.343,5.451.693,8.179,1.011a4.223,4.223,0,0,1,3.934,4.776c-.054.548.06.712.6.723.864.017,1.729.087,2.591.165a.61.61,0,0,0,.7-.408q.519-1.1,1.1-2.171A4.362,4.362,0,0,1,644,307.349c.713.184,1.42.39,2.13.584A1.258,1.258,0,0,1,647.219,309.421Zm1.751,40.324a1.608,1.608,0,0,0,1.092,1.574,1.642,1.642,0,0,0,1.964-.6c.747-.93,1.458-1.89,2.166-2.851a1.773,1.773,0,0,0-.139-2.582,1.746,1.746,0,0,0-2.577.534c-.689.88-1.357,1.776-2.027,2.67A1.865,1.865,0,0,0,648.97,349.744Zm-2.857-1.778a1.4,1.4,0,0,0,1.1-.44,22.529,22.529,0,0,0,2.609-3.464,1.649,1.649,0,0,0-2.608-1.942,18.1,18.1,0,0,0-2.614,3.457A1.619,1.619,0,0,0,646.113,347.967Zm-1.256-7.309a1.672,1.672,0,0,0-.982-1.5,1.5,1.5,0,0,0-1.769.249,13.19,13.19,0,0,0-2.094,2.785,1.468,1.468,0,0,0,.213,1.7,1.585,1.585,0,0,0,1.614.622C642.783,344.332,644.876,341.634,644.857,340.658Zm-5.329-2.65a1.489,1.489,0,0,0-.933-1.242,1.565,1.565,0,0,0-1.777.2,5.244,5.244,0,0,0-1.329,1.738,1.576,1.576,0,0,0,.255,1.835,1.6,1.6,0,0,0,1.728.483A3.907,3.907,0,0,0,639.528,338.007Z" transform="translate(0 0)" fill="#040302"/>
    <path id="Trazado_631290" data-name="Trazado 631290" d="M824.861,339.647q-.938-7.525-1.876-15.05c-.333-2.672-.649-5.347-1-8.016a2.041,2.041,0,0,1,2-2.618l8.476-1.035c.273,2.343.535,4.687.821,7.027.379,3.1.784,6.189,1.167,9.284.405,3.271.8,6.544,1.2,9.816-.331-.008-.67.091-.977.075-.64-.032-1.268.5-1.906.042.091-.209.194-.413.271-.627a3.354,3.354,0,0,0-5.685-3.343c-1.211,1.388-1.1,3.12.29,4.742C826.652,340.394,825.766,339.929,824.861,339.647Z" transform="translate(-142.653 -5.163)" fill="#689be5"/>
    <path id="Trazado_631291" data-name="Trazado 631291" d="M624.52,312.926c2.927.354,5.855.69,8.778,1.072a1.921,1.921,0,0,1,1.728,2.281q-.932,7.64-1.9,15.277-.5,4.046-1.014,8.091c-.287.076-.57.173-.861.225a2.765,2.765,0,0,1-1.87-.087c.121-.163.249-.321.363-.488a3.361,3.361,0,1,0-5.637-.111c-.936.1-1.849-.257-2.785-.137q.749-6.076,1.5-12.153.729-5.889,1.461-11.777C624.375,314.39,624.442,313.657,624.52,312.926Z" transform="translate(-3.505 -5.161)" fill="#da6075"/>
    <path id="Trazado_631292" data-name="Trazado 631292" d="M628.629,398.859a2.765,2.765,0,0,0,1.87.087c.291-.053.574-.149.861-.225-.136,2.116-.93,2.953-2.579,2.723-.427-.06-.857-.109-1.285-.162l-7.26-.9q.167-1.131.334-2.261c.936-.121,1.849.24,2.785.137C624.957,400.153,626.64,400.344,628.629,398.859Z" transform="translate(-2.749 -64.236)" fill="#b9455f"/>
    <path id="Trazado_631293" data-name="Trazado 631293" d="M839.354,398.313c.639.454,1.266-.074,1.906-.042.307.016.646-.083.977-.075q.17,1.127.339,2.254c-2.674.325-5.348.642-8.021.975-2.263.283-2.993-.331-3.1-2.638.9.282,1.79.747,2.774.3C836.259,400.381,837.813,400.147,839.354,398.313Z" transform="translate(-149.249 -64.303)" fill="#467ec9"/>
    <path id="Trazado_631294" data-name="Trazado 631294" d="M739.993,438.12c.619-.838,1.232-1.68,1.858-2.512a4.765,4.765,0,0,0,.932-2.064,3.469,3.469,0,0,0,2.89-1.4l1.831-2.129c.563.466,1.12.939,1.691,1.395.243.193.31.346.066.6-.4.421-.76.878-1.146,1.313a1.981,1.981,0,0,1-1.6.735,1.54,1.54,0,0,0-1.474.734c-.482-.316-.8-.12-1.129.286-.568.707-1.166,1.393-1.786,2.055A2.937,2.937,0,0,1,739.993,438.12Z" transform="translate(-85.811 -86.371)" fill="#d79f71"/>
    <path id="Trazado_631295" data-name="Trazado 631295" d="M780.5,420.669c.2.159.4.311.586.476,1.457,1.27,1.456,1.271.042,2.773a2.042,2.042,0,0,1-3.242-.006c-.016-.309.236-.4.42-.578A8.517,8.517,0,0,0,780.5,420.669Z" transform="translate(-112.092 -79.89)" fill="#d69e70"/>
    <path id="Trazado_631296" data-name="Trazado 631296" d="M801.6,410.993c.083.056.172.1.25.168,1.53,1.261,1.644,1.8.635,2.971q-1.617,1.883-3.552.151a1.622,1.622,0,0,1-.145-.171A4.138,4.138,0,0,0,801.6,410.993Z" transform="translate(-126.592 -73.179)" fill="#d69e70"/>
    <path id="Trazado_631297" data-name="Trazado 631297" d="M806.213,386.18c.143,1.053.278,2.108.435,3.16.067.448-.16.5-.523.5-1.017-.013-2.035,0-3.053,0a1.749,1.749,0,0,0-1.3.316c-.233.213-.4.093-.586-.071-.641-.577-1.287-1.149-1.93-1.724a3.362,3.362,0,0,0,.417-.328c1.165-1.25,2.7-1.434,4.284-1.544C804.714,386.429,805.462,386.283,806.213,386.18Z" transform="translate(-126.917 -55.969)" fill="#c57e4d"/>
    <path id="Trazado_631298" data-name="Trazado 631298" d="M722.974,439a1.865,1.865,0,0,1,.479-1.254c.67-.894,1.338-1.79,2.027-2.67a1.746,1.746,0,0,1,2.577-.534,1.773,1.773,0,0,1,.139,2.582c-.708.961-1.419,1.921-2.166,2.851a1.642,1.642,0,0,1-1.964.6A1.608,1.608,0,0,1,722.974,439Z" transform="translate(-74.004 -89.26)" fill="#e39f66"/>
    <path id="Trazado_631299" data-name="Trazado 631299" d="M709.751,429.824a1.619,1.619,0,0,1-1.515-2.389,18.109,18.109,0,0,1,2.614-3.457,1.649,1.649,0,0,1,2.608,1.942,22.527,22.527,0,0,1-2.609,3.464A1.4,1.4,0,0,1,709.751,429.824Z" transform="translate(-63.638 -81.858)" fill="#e39f66"/>
    <path id="Trazado_631300" data-name="Trazado 631300" d="M698.178,416.474c.018.977-2.074,3.674-3.017,3.856a1.585,1.585,0,0,1-1.614-.622,1.468,1.468,0,0,1-.213-1.7,13.191,13.191,0,0,1,2.094-2.785,1.5,1.5,0,0,1,1.769-.249A1.672,1.672,0,0,1,698.178,416.474Z" transform="translate(-53.32 -75.817)" fill="#e39f66"/>
    <path id="Trazado_631301" data-name="Trazado 631301" d="M682.611,408.391a3.907,3.907,0,0,1-2.056,3.009,1.6,1.6,0,0,1-1.728-.483,1.576,1.576,0,0,1-.255-1.835,5.245,5.245,0,0,1,1.329-1.738,1.565,1.565,0,0,1,1.777-.2A1.49,1.49,0,0,1,682.611,408.391Z" transform="translate(-43.083 -70.384)" fill="#e39f66"/>
    <path id="Trazado_631302" data-name="Trazado 631302" d="M843.081,386.978c-1.541,1.834-3.1,2.068-5.124.772-1.394-1.622-1.5-3.354-.29-4.742a3.354,3.354,0,0,1,5.685,3.343C843.275,386.565,843.172,386.769,843.081,386.978Zm-2.906-2.837a1.112,1.112,0,0,0-1.045,1.1,1.065,1.065,0,0,0,2.128-.038A1.109,1.109,0,0,0,840.175,384.141Z" transform="translate(-152.976 -52.968)" fill="#020304"/>
    <path id="Trazado_631303" data-name="Trazado 631303" d="M634.583,387.62c-1.989,1.485-3.672,1.293-5.274-.6a3.368,3.368,0,1,1,5.637.111C634.831,387.3,634.7,387.457,634.583,387.62Zm-1.355-2.406a1.056,1.056,0,1,0-1.049,1.068A1.041,1.041,0,0,0,633.228,385.213Z" transform="translate(-8.702 -52.996)" fill="#030202"/>
    <path id="Trazado_631304" data-name="Trazado 631304" d="M845.38,389.322a1.109,1.109,0,0,1,1.083,1.065,1.065,1.065,0,0,1-2.128.038A1.112,1.112,0,0,1,845.38,389.322Z" transform="translate(-158.181 -58.148)" fill="#e1e4e7"/>
    <path id="Trazado_631305" data-name="Trazado 631305" d="M638.419,390.374a1.041,1.041,0,0,1-1.049,1.068,1.053,1.053,0,1,1,1.049-1.068Z" transform="translate(-13.894 -58.156)" fill="#e1e4e7"/>
  </g>
</svg>
