<svg xmlns="http://www.w3.org/2000/svg" width="50.137" height="61.196" viewBox="0 0 50.137 61.196">
  <g id="Grupo_980821" data-name="Grupo 980821" transform="translate(-429.639 -186.9)">
    <path id="Trazado_640928" data-name="Trazado 640928" d="M430.244,224.354V222c.765-.213.9-.4.9-1.3q0-12.332,0-24.664a1.209,1.209,0,0,1,.074-.681c.431.323.812.639,1.224.912a25.242,25.242,0,0,0,8.209,3.255A59.522,59.522,0,0,0,452,200.973q0,14.538,0,29.076,0,5.792-.009,11.583a49.173,49.173,0,0,1-13.735-2.151,16.221,16.221,0,0,1-5.7-2.888,3.678,3.678,0,0,1-1.432-3.057c.059-2.665.02-5.332.016-8C431.139,224.757,430.979,224.558,430.244,224.354Z" transform="translate(0.328 4.593)" fill="#89b3f3"/>
    <path id="Trazado_640929" data-name="Trazado 640929" d="M452.327,205.566a59.521,59.521,0,0,1-11.345-1.452,25.242,25.242,0,0,1-8.209-3.255c-.412-.273-.793-.59-1.224-.912a1.209,1.209,0,0,0-.074.681q0,12.332,0,24.664c0,.9-.133,1.09-.9,1.3-.764-.211-.9-.4-.9-1.3q0-9.795,0-19.589c0-2.846.083-5.7-.026-8.539a5.841,5.841,0,0,1,2.716-5.247,22.51,22.51,0,0,1,7.84-3.346,60.4,60.4,0,0,1,17.648-1.594c1.591.073,3.178.191,4.76.383.711.086.977.361.978,1.082.006,2.289-.009,4.579.011,6.868a1.021,1.021,0,0,1-.869,1.156c-.756-.211-.932-.435-.935-1.221,0-1.353,0-2.709,0-4.062v-.762l-1.438,1.5c-1.454,1.44-2.9,2.883-4.368,4.312a1.127,1.127,0,0,0-.369.887c.012,4.233.006,8.468.011,12.7,0,.164-.076.353.059.466l4.769-4.658c.258-.244.5-.508.778-.727a1.468,1.468,0,0,0,.573-1.332c-.048-1.205-.02-2.412-.012-3.619,0-.728.219-.98.934-1.136a.945.945,0,0,1,.864,1.082c-.014,1.133.017,2.269-.014,3.4-.012.461.1.631.6.705a34.953,34.953,0,0,1,11.1,3.21,10.393,10.393,0,0,1,3.384,2.593,4.683,4.683,0,0,1,1.119,3.067q-.011,8.714,0,17.427c0,.838-.139,1.023-.887,1.256-.755-.221-.9-.4-.9-1.178-.006-1.284,0-2.568,0-3.979a19.584,19.584,0,0,1-1.988,1.483,28.161,28.161,0,0,1-6.474,2.525,57.3,57.3,0,0,1-13.342,1.719c-.441.009-.565.128-.563.576q.025,6.507,0,13.018c0,.5.161.582.607.568a64.009,64.009,0,0,0,9.085-.863,32.926,32.926,0,0,0,6.389-1.665,14.045,14.045,0,0,0,4.957-2.654,3.513,3.513,0,0,0,1.343-2.983c-.054-1.012-.015-2.029-.009-3.046,0-.784.145-.958.9-1.179a.96.96,0,0,1,.889,1.019c0,1.293.011,2.588-.011,3.883a4.792,4.792,0,0,1-1.656,3.4,14.576,14.576,0,0,1-5.093,3.02,43.883,43.883,0,0,1-11.377,2.519,66.144,66.144,0,0,1-11.1.224,46.238,46.238,0,0,1-14.665-2.974,13.927,13.927,0,0,1-4.542-2.795,5.139,5.139,0,0,1-1.67-3.939c.04-2.707.008-5.417.012-8.126,0-.772.17-.98.9-1.181.735.2.9.4.9,1.182,0,2.667.043,5.334-.015,8a3.678,3.678,0,0,0,1.432,3.057,16.22,16.22,0,0,0,5.7,2.888,49.173,49.173,0,0,0,13.735,2.151c.218.02.434.049.651.056.86.02.86.017.86-.83V206.972C453.833,205.514,453.833,205.514,452.327,205.566Zm23.553,6.181c.435.008.872.026,1.307.019.165,0,.394.1.483-.086s-.1-.326-.2-.465a4.8,4.8,0,0,0-.528-.64,12.041,12.041,0,0,0-4.528-2.636.462.462,0,0,0-.346-.13.235.235,0,0,0-.25-.1,1.591,1.591,0,0,0-.21-.11,44.866,44.866,0,0,0-8.224-1.923.718.718,0,0,0-.668.279q-2.081,2.1-4.176,4.181c-.512.512-1.029,1.022-1.65,1.637h.787q6.716,0,13.431,0C472.7,211.767,474.288,211.755,475.879,211.747Zm-12.791,18.048a37.637,37.637,0,0,0,7.683-1.624,17.82,17.82,0,0,0,5.3-2.525,5.808,5.808,0,0,0,1.488-1.533c.16-.253.234-.432-.194-.414-.537.022-1.074.019-1.611.025-.219-.006-.437-.019-.656-.019q-8.841,0-17.682,0c-.478,0-.957.008-1.434,0-.23,0-.367.025-.366.315.009,1.989.006,3.98,0,5.971,0,.236.051.369.33.36A54.133,54.133,0,0,0,463.088,229.795Zm13.027-7.9c.415.008.835-.012,1.247.029.482.049.645-.093.637-.607-.031-2-.012-4.008-.012-6.013,0-1.841,0-1.841-1.875-1.712a1.36,1.36,0,0,0-.177-.02q-9.91,0-19.822-.011c-.411,0-.5.139-.494.514.014,2.408.022,4.815,0,7.223,0,.492.117.63.619.628,3.722-.023,7.443-.011,11.166-.014Q471.756,221.906,476.116,221.89ZM452.33,203.731a6.45,6.45,0,0,1,.83.043c.579.1.677-.157.671-.678-.026-2.107,0-4.213-.02-6.32a1.929,1.929,0,0,1,.617-1.529c1.962-1.917,3.891-3.868,5.828-5.811.131-.133.323-.228.366-.488l-1.716-.113a62.375,62.375,0,0,0-11.323.235,41.609,41.609,0,0,0-10.215,2.259,13.061,13.061,0,0,0-4.855,2.824,2.626,2.626,0,0,0-.011,4.172,10.161,10.161,0,0,0,2.891,1.974,31.339,31.339,0,0,0,8.167,2.517A53.3,53.3,0,0,0,452.33,203.731Z" transform="translate(0)" fill="#040404"/>
    <path id="Trazado_640930" data-name="Trazado 640930" d="M464.078,219.994c-.753.221-.894.4-.9,1.179-.006,1.017-.045,2.034.009,3.046a3.514,3.514,0,0,1-1.343,2.983,14.045,14.045,0,0,1-4.957,2.654c.009-.17.144-.225.265-.289a13.541,13.541,0,0,0,2.153-1.38,4.745,4.745,0,0,0,2.017-3.918c-.032-3.2-.008-6.409-.014-9.615,0-.227.09-.481-.122-.676a19.58,19.58,0,0,0,1.988-1.483c0,1.411,0,2.695,0,3.979,0,.781.147.957.9,1.178Q464.077,218.822,464.078,219.994Z" transform="translate(14.805 13.907)" fill="#dcad56"/>
    <path id="Trazado_640931" data-name="Trazado 640931" d="M449.542,190.684l1.438-1.5v.762c0,1.353,0,2.708,0,4.062,0,.786.179,1.009.935,1.221v2.352c-.715.156-.929.407-.934,1.136-.008,1.207-.036,2.414.012,3.619a1.468,1.468,0,0,1-.573,1.332c-.278.219-.52.483-.778.727q0-6.57,0-13.141C449.644,191.06,449.707,190.85,449.542,190.684Z" transform="translate(10.813 1.24)" fill="#5382eb"/>
    <path id="Trazado_640932" data-name="Trazado 640932" d="M444.342,199c1.506-.052,1.506-.052,1.506,1.406v38.478c0,.847,0,.85-.86.83-.218-.006-.434-.035-.651-.056q.007-5.79.009-11.583Q444.346,213.538,444.342,199Z" transform="translate(7.985 6.566)" fill="#699be7"/>
    <path id="Trazado_640933" data-name="Trazado 640933" d="M466.85,213.458c.211.194.122.449.122.676.006,3.205-.018,6.411.014,9.615a4.745,4.745,0,0,1-2.017,3.918,13.539,13.539,0,0,1-2.153,1.38c-.122.063-.256.119-.265.289A32.928,32.928,0,0,1,456.161,231a64.011,64.011,0,0,1-9.085.863c-.446.014-.61-.073-.607-.568q.03-6.51,0-13.018c0-.448.122-.566.563-.576a57.3,57.3,0,0,0,13.342-1.719A28.163,28.163,0,0,0,466.85,213.458Z" transform="translate(9.144 14.429)" fill="#f5c264"/>
    <path id="Trazado_640934" data-name="Trazado 640934" d="M451.683,203.1a53.3,53.3,0,0,1-8.771-.914,31.338,31.338,0,0,1-8.167-2.517,10.16,10.16,0,0,1-2.891-1.974,2.626,2.626,0,0,1,.011-4.172,13.061,13.061,0,0,1,4.855-2.824,41.61,41.61,0,0,1,10.215-2.259,62.375,62.375,0,0,1,11.323-.235c-.022.272-.249.4-.412.563q-2.658,2.665-5.321,5.323a2.679,2.679,0,0,0-.852,2.019C451.7,198.444,451.683,200.774,451.683,203.1Z" transform="translate(0.647 0.627)" fill="#a3c5f4"/>
    <path id="Trazado_640935" data-name="Trazado 640935" d="M466.971,212.505q-4.359.009-8.717.019c-3.722,0-7.443-.009-11.166.014-.5,0-.624-.136-.619-.628.026-2.408.018-4.815,0-7.223,0-.375.083-.515.494-.514q9.91.019,19.822.011a1.359,1.359,0,0,1,.177.02Z" transform="translate(9.144 9.384)" fill="#d079bc"/>
    <path id="Trazado_640936" data-name="Trazado 640936" d="M453.943,216.839a54.136,54.136,0,0,1-7.136.553c-.279.009-.332-.123-.33-.36,0-1.991.006-3.982,0-5.971,0-.29.136-.319.366-.315.477.011.955,0,1.434,0q8.841,0,17.682,0c.219,0,.437.012.656.019a6.5,6.5,0,0,1-1.587,1.674,24.032,24.032,0,0,1-7.385,3.335C456.415,216.165,455.14,216.367,453.943,216.839Z" transform="translate(9.146 12.956)" fill="#f9df8a"/>
    <path id="Trazado_640937" data-name="Trazado 640937" d="M462.473,201.2a.462.462,0,0,1,.346.13c.191.509.715.644,1.088.94a6.237,6.237,0,0,1,2.38,2.869c-1.591.008-3.182.02-4.773.022q-6.716,0-13.431,0h-.787c.62-.616,1.137-1.125,1.65-1.637q2.09-2.088,4.176-4.181a.718.718,0,0,1,.668-.279,44.864,44.864,0,0,1,8.224,1.923,1.59,1.59,0,0,1,.21.11A.236.236,0,0,0,462.473,201.2Z" transform="translate(9.593 6.605)" fill="#dfacd9"/>
    <path id="Trazado_640938" data-name="Trazado 640938" d="M451.213,190.155c.165.167.1.377.1.568q0,6.57,0,13.141l-4.769,4.658c-.134-.113-.057-.3-.059-.466,0-4.233,0-8.468-.011-12.7a1.126,1.126,0,0,1,.369-.887C448.31,193.038,449.759,191.595,451.213,190.155Z" transform="translate(9.142 1.768)" fill="#5f8fee"/>
    <path id="Trazado_640939" data-name="Trazado 640939" d="M444.345,203.05c0-2.33.019-4.661-.009-6.99a2.679,2.679,0,0,1,.852-2.019q2.662-2.658,5.321-5.323c.164-.165.391-.292.412-.563l1.716.113c-.043.259-.235.355-.366.488-1.937,1.943-3.866,3.894-5.828,5.811a1.929,1.929,0,0,0-.617,1.529c.025,2.107-.006,4.213.02,6.32.006.52-.093.782-.671.678A6.45,6.45,0,0,0,444.345,203.05Z" transform="translate(7.985 0.682)" fill="#89b3f3"/>
    <path id="Trazado_640940" data-name="Trazado 640940" d="M459.755,212.512l0-8.3c1.875-.13,1.875-.13,1.875,1.712,0,2-.019,4.01.012,6.013.008.514-.156.656-.637.607C460.59,212.5,460.17,212.519,459.755,212.512Z" transform="translate(16.361 9.378)" fill="#c159a5"/>
    <path id="Trazado_640941" data-name="Trazado 640941" d="M451.313,216.84c1.2-.472,2.472-.674,3.7-1.06a24.033,24.033,0,0,0,7.385-3.335,6.5,6.5,0,0,0,1.587-1.674c.537-.006,1.074,0,1.611-.025.429-.019.355.16.194.414a5.808,5.808,0,0,1-1.488,1.533,17.82,17.82,0,0,1-5.3,2.525A37.636,37.636,0,0,1,451.313,216.84Z" transform="translate(11.776 12.955)" fill="#f2cb73"/>
    <path id="Trazado_640942" data-name="Trazado 640942" d="M460.822,204.341a6.237,6.237,0,0,0-2.38-2.869c-.374-.3-.9-.431-1.088-.94a12.041,12.041,0,0,1,4.528,2.636,4.792,4.792,0,0,1,.528.64c.1.139.282.292.2.465s-.318.085-.483.086C461.694,204.367,461.257,204.349,460.822,204.341Z" transform="translate(15.058 7.406)" fill="#d392c9"/>
    <path id="Trazado_640943" data-name="Trazado 640943" d="M457.218,200.485a.236.236,0,0,1-.25-.1A.236.236,0,0,1,457.218,200.485Z" transform="translate(14.848 7.323)" fill="#d392c9"/>
  </g>
</svg>
