<svg xmlns="http://www.w3.org/2000/svg" width="64.399" height="64.36" viewBox="0 0 64.399 64.36">
  <g id="Grupo_956511" data-name="Grupo 956511" transform="translate(-937.492 -728.896)">
    <path id="Trazado_631376" data-name="Trazado 631376" d="M960.353,764.727c0-2.04.02-4.08-.013-6.119-.009-.524.1-.718.656-.672.687.056,1.383,0,2.074.02.3.009.411-.068.4-.39-.021-1.167.026-2.337-.025-3.5a4.229,4.229,0,0,0-1.658-3.106,12.437,12.437,0,0,1,6.3-21.96,12.356,12.356,0,0,1,13.867,10.291,11.894,11.894,0,0,1-4.148,11.459,4.915,4.915,0,0,0-1.9,4.179c.048.862.022,1.73,0,2.594-.008.329.072.451.424.437.734-.028,1.471.015,2.2-.018.4-.018.508.084.5.494-.023,2.1-.011,4.194.073,6.318.142-.409.288-.816.425-1.226.567-1.7,1.141-3.391,1.687-5.095a.584.584,0,0,1,.666-.491c6.487.014,12.973.008,19.459.017.188,0,.525-.171.513.26a43.394,43.394,0,0,1-.212,6.6,13.485,13.485,0,0,1-7.53,10.077c-.857.436-.457,1.075-.557,1.644-.095.536.394.489.672.6a12,12,0,0,1,7.622,10.919c.02,1.578-.007,3.157.015,4.735,0,.37-.1.512-.467.455a1.688,1.688,0,0,0-.259,0q-31.46,0-62.919.013c-.579,0-.76-.126-.732-.725a53.833,53.833,0,0,1,.14-5.829,11.773,11.773,0,0,1,7.5-9.559c.278-.118.764-.071.672-.6-.1-.57.294-1.2-.554-1.646a13.6,13.6,0,0,1-7.743-12.654c-.019-1.275.009-2.552-.011-3.827-.005-.353.072-.491.454-.474.69.032,1.385-.023,2.075.02.473.029.609-.09.606-.589-.024-4.238-.015-8.476-.013-12.714a10.815,10.815,0,0,1,2.061-8.713c.875-1.756,1.76-3.506,2.62-5.27a2.766,2.766,0,0,1,5.171.009q2.2,4.466,4.449,8.912a2.1,2.1,0,0,1,.235.986c-.007,5.579,0,11.157-.014,16.736,0,.474.07.7.613.645.578-.055,1.168.016,1.75-.023.374-.024.52.112.631.453.649,2.01,1.321,4.012,1.988,6.016.038.113.091.22.137.331Zm-1.035-23.341a8.373,8.373,0,0,0,.187,1.914,10.463,10.463,0,0,0,3.746,6.184,6.636,6.636,0,0,1,2.025,3.03c.143.418-.021,1.031.38,1.231.365.182.891.014,1.341.06.494.05.546-.162.514-.588-.183-2.457-.332-4.916-.508-7.374-.032-.446.154-1.026-.157-1.3s-.868-.07-1.318-.083a3.118,3.118,0,0,1-.479-6.2,3.187,3.187,0,0,1,3.623,2.239,9.7,9.7,0,0,1,.164,1.478c.024.18-.009.362.286.41,1.2.2,1.413.044,1.48-1.144,0-.065,0-.13.01-.194a3.179,3.179,0,1,1,3.359,3.405c-.49.024-1.148-.215-1.424.108-.261.3-.143.941-.176,1.432q-.247,3.655-.48,7.311c-.01.154-.124.437.076.454a15.132,15.132,0,0,0,1.808.007c.145-.005.133-.206.148-.324a6.875,6.875,0,0,1,2.557-4.286,10.01,10.01,0,0,0,3.48-9.228,10.359,10.359,0,0,0-10.985-8.952A10.464,10.464,0,0,0,959.318,741.386Zm10.4,18.639c-2.247,0-4.495.008-6.742-.008-.387,0-.558.048-.555.509.023,3.285,0,6.57.018,9.854a4.127,4.127,0,0,0,4.1,4.157c2.117.031,4.236.034,6.353,0a4.118,4.118,0,0,0,4.069-4.116c.024-3.306,0-6.613.018-9.919,0-.425-.139-.487-.515-.485C974.209,760.034,971.962,760.026,969.715,760.026Zm17.56,31.139c1.946,0,3.892-.01,5.837.008.368,0,.469-.1.464-.465-.021-1.4-.008-2.811-.008-4.216,0-1.576,0-1.557,1.563-1.567.437,0,.529.13.523.541-.022,1.729,0,3.459-.016,5.189,0,.361.033.538.474.523,1.08-.037,2.162-.03,3.242,0,.391.01.458-.134.449-.481-.024-.886,0-1.773-.016-2.659a9.947,9.947,0,0,0-6.517-9.059,1.527,1.527,0,0,0-1.238.013c-.923.416-1.874.77-2.8,1.179a12.837,12.837,0,0,0-8.022,10.488c-.069.478.093.52.487.516C983.556,791.156,985.415,791.165,987.275,791.165Zm-35.225-12.447c0-.922-.026-1.784.011-2.644.018-.424-.135-.494-.513-.49-.509.006-1.206.239-1.48-.1-.257-.317-.051-.989-.1-1.5-.045-.441.159-.483.521-.476,1.058.02,2.117.018,3.175,0a2.493,2.493,0,0,0,2.538-2.546,15.481,15.481,0,0,0-.014-2.072,1.443,1.443,0,0,1,1.038-1.751,1.515,1.515,0,0,0,.928-2.114c-.5-1.538-1.03-3.063-1.523-4.6-.1-.3-.213-.412-.534-.411q-3.888.018-7.777,0c-.349,0-.43.109-.426.439.017,1.318-.037,2.637.025,3.952.032.688-.178.9-.839.815a1.007,1.007,0,0,0-1.157.631,1.2,1.2,0,0,0,.313,1.415c.388.376.742.789,1.152,1.138a1.431,1.431,0,0,1,.527,1.229c-.03,2.289-.008,4.58-.019,6.869,0,.308.043.505.372.636C949.5,777.635,950.727,778.164,952.049,778.718Zm35.291,0c1.28-.538,2.48-1.065,3.7-1.542a.627.627,0,0,0,.459-.708c-.016-2.311,0-4.623-.016-6.934a1.206,1.206,0,0,1,.41-1.016c.468-.415.9-.874,1.332-1.325a1.162,1.162,0,0,0,.2-1.432,1.179,1.179,0,0,0-1.346-.539c-.485.054-.616-.1-.6-.593.037-1.382.008-2.765.017-4.147,0-.292-.008-.47-.4-.467-2.614.018-5.227.011-7.841.005a.407.407,0,0,0-.47.319c-.523,1.619-1.08,3.228-1.6,4.85a1.528,1.528,0,0,0,.771,1.87,6.232,6.232,0,0,0,.807.406.611.611,0,0,1,.429.686c-.032.906-.016,1.814-.009,2.721a2.506,2.506,0,0,0,2.64,2.643c1.037.008,2.074.014,3.111-.005.341-.006.481.054.487.446.026,1.618.042,1.618-1.557,1.637a.863.863,0,0,1-.129,0c-.3-.043-.416.062-.408.385C987.354,776.865,987.341,777.751,987.341,778.719Zm-22.367,10.418c-.1-.4-.16-.623-.21-.847q-.834-3.726-1.661-7.452c-.06-.275-.051-.506-.462-.327a10.721,10.721,0,0,0-4.374,3.449.448.448,0,0,0-.015.579,14.531,14.531,0,0,1,2.006,6.162c.029.333.136.472.509.472q8.915-.019,17.829,0c.349,0,.5-.092.529-.449a14.426,14.426,0,0,1,2-6.163.488.488,0,0,0-.024-.634,10.573,10.573,0,0,0-4.322-3.411c-.351-.151-.424-.054-.492.287-.23,1.141-.5,2.275-.755,3.411-.354,1.585-.708,3.17-1.081,4.841-.234-.22-.392-.36-.541-.509-1.239-1.236-2.5-2.452-3.7-3.724-.428-.452-.655-.382-1.042.023-1.074,1.125-2.194,2.207-3.29,3.311C965.592,788.442,965.33,788.749,964.974,789.138Zm-10.018-5.6c-.429.85-.839,1.609-1.2,2.391-.175.385-.313.448-.694.214q-2.758-1.7-5.556-3.328a1.3,1.3,0,0,1-.675-.944c-.163-.781-.416-1.543-.571-2.325-.094-.474-.244-.541-.681-.346a9.956,9.956,0,0,0-5.311,5.491c-.826,2-.672,4.111-.678,6.2,0,.37.267.266.457.267,1.081.007,2.162-.013,3.243.012.378.009.465-.12.461-.476-.018-1.427-.008-2.854-.008-4.281,0-1.493,0-1.474,1.516-1.491.452-.005.58.107.572.567-.03,1.708.007,3.416-.024,5.124-.009.469.136.572.578.559,1.124-.032,2.248-.011,3.372-.011,2.638,0,5.276,0,7.913.005.377,0,.573-.016.511-.511A13.083,13.083,0,0,0,954.956,783.536Zm1.819-1.087a12.347,12.347,0,0,1,7.2-4.514,1.254,1.254,0,0,0,1.1-1.1c.078-.309.039-.381-.263-.485a6.2,6.2,0,0,1-4.462-6.32q0-1.72,0-3.439c-.313.624-.539,1.337-1.111,1.652-1.037.571-1.031,1.444-.967,2.4.009.129,0,.259,0,.389a4.48,4.48,0,0,1-3.69,4.44c-.389.075-.476.222-.469.589.023,1.187.01,2.375.008,3.563a.583.583,0,0,0,.215.564A15.729,15.729,0,0,1,956.775,782.449ZM979.036,766.6q0,1.718,0,3.436a6.241,6.241,0,0,1-4.472,6.329c-.116.041-.264.015-.315.176a1.713,1.713,0,0,0,.741,1.271,12.381,12.381,0,0,1,7.372,4.349c.21.254.321.252.523.016a11.9,11.9,0,0,1,2.091-1.928.7.7,0,0,0,.292-.661c-.012-1.167-.023-2.335,0-3.5.009-.4-.1-.547-.508-.622a4.439,4.439,0,0,1-3.55-3.514,15.9,15.9,0,0,1-.118-2.52c-.012-.233.029-.456-.244-.611A4.341,4.341,0,0,1,979.036,766.6Zm-36.328-16.948c0,2.592.01,5.185-.01,7.777,0,.421.106.547.532.535,1.058-.031,2.117-.027,3.175,0,.375.009.462-.113.461-.472q-.016-7.842,0-15.684c0-.364-.1-.476-.465-.468-1.058.024-2.117.031-3.175,0-.434-.014-.531.125-.528.539C942.718,744.462,942.709,747.055,942.709,749.648Zm10.378.025c0-2.552-.014-5.1.012-7.654,0-.508-.071-.723-.65-.691-.992.055-1.989.035-2.983.005-.421-.013-.541.106-.539.534q.023,7.784,0,15.568c0,.447.148.533.551.522,1.015-.025,2.033-.033,3.048,0,.453.016.578-.109.573-.568C953.075,754.819,953.087,752.246,953.087,749.673Zm40.482,23.12a2.934,2.934,0,0,0,.294-.118,11.807,11.807,0,0,0,4.369-4.327c1.48-2.489,1.662-5.223,1.57-8.018-.012-.35-.21-.3-.425-.3-1.794,0-3.589.009-5.383-.008-.34,0-.445.089-.435.433.024.821.021,1.643,0,2.464a.565.565,0,0,0,.374.581,3.229,3.229,0,0,1,.85,5.077c-.3.336-.639.645-.956.97-.117.12-.264.217-.262.422C993.573,770.885,993.57,771.806,993.57,772.793Zm-50.856-12.767c-.843,0-1.688.032-2.529-.012-.508-.027-.627.156-.6.625.039.646-.007,1.3.014,1.945a11.588,11.588,0,0,0,5.207,9.639c.291.2.626.6.935.429.239-.134.037-.641.084-.978a3.292,3.292,0,0,0-1.184-3.117,3,3,0,0,1,.243-4.616,2.157,2.157,0,0,0,.943-2.255,10.263,10.263,0,0,1,0-1.232c.022-.353-.128-.441-.454-.435C944.487,760.037,943.6,760.026,942.714,760.026Zm9.635-20.787a.944.944,0,0,0-.2-.557q-1.742-3.5-3.495-7c-.165-.33-.312-.694-.762-.692s-.595.367-.76.7q-1.749,3.5-3.494,7a.893.893,0,0,0-.192.553Zm17.369,37.385h-.97c-1.515,0-1.506,0-1.913,1.45a.548.548,0,0,0,.165.619c.814.8,1.624,1.605,2.417,2.426.225.233.36.2.567-.013a15.713,15.713,0,0,1,1.7-1.682,1.663,1.663,0,0,0,.525-2.41c-.144-.264-.235-.405-.547-.4C971.011,776.638,970.365,776.624,969.718,776.624Zm-.058-18.675h2.652c1.548,0,1.528,0,1.546-1.52.005-.457-.119-.572-.57-.566-2.07.025-4.14.011-6.21.011-1.567,0-1.551,0-1.545,1.585,0,.4.108.508.5.5C967.245,757.932,968.453,757.949,969.66,757.949Zm-21.2,21.53a2.388,2.388,0,0,0,1.515,2.388,15.383,15.383,0,0,1,1.783,1.052c.905.544.88.53,1.38-.392.214-.395.133-.573-.208-.82A20.328,20.328,0,0,0,948.457,779.479Zm21.132-26.259a.3.3,0,0,0,.235-.326c.173-2.631.326-5.264.538-7.893.048-.6-.237-.568-.628-.547-.359.018-.759-.148-.7.534C969.246,747.723,969.406,750.463,969.589,753.22Zm-3.426,31.805c.651-.69,1.162-1.266,1.713-1.8.277-.269.32-.431.014-.715-.632-.586-1.216-1.223-1.836-1.822a3.628,3.628,0,0,0-1.046-.893Zm7.077-.07,1.139-5.142c-.323.193-2.957,2.74-3.068,2.9a.224.224,0,0,0,.042.334C971.952,783.649,972.549,784.256,973.24,784.955Zm-7.279-42.576c.811,0,.811,0,.763-.8a3.381,3.381,0,0,0-.025-.385,1.07,1.07,0,0,0-1.22-.886,1.036,1.036,0,0,0,.1,2.069C965.7,742.385,965.833,742.378,965.961,742.379Zm7.381,0c1.039,0,1.524-.333,1.538-1.019a1.052,1.052,0,0,0-1.128-1.056c-.794.015-1.147.555-1.119,1.751C972.649,742.685,973.158,742.225,973.342,742.379Z" transform="translate(0 0)" fill="#020202"/>
    <path id="Trazado_631377" data-name="Trazado 631377" d="M1122.358,751.105c-.53-1.794.4-2.867,1.794-3.765a20.943,20.943,0,0,0,1.927-1.53,3.817,3.817,0,0,0,1.24-4.309,3.858,3.858,0,0,0-3.666-2.587c-2.643-.04-4.051,1.188-4.4,3.86-.028.216-.072.305-.3.3-.323-.014-.648,0-.972,0-.889,0-.889,0-.793-.87a5.98,5.98,0,0,1,5.913-5.359c3.183-.048,5.557,1.589,6.3,4.408a5.653,5.653,0,0,1-1.711,5.894c-.848.8-1.788,1.5-2.713,2.207a1.2,1.2,0,0,0-.557,1.123c.05.84-.006,1.685.022,2.527.013.376-.112.455-.469.459-1.617.018-1.617.03-1.617-1.572Z" transform="translate(-132.943 -5.875)" fill="#030303"/>
    <path id="Trazado_631378" data-name="Trazado 631378" d="M1132.323,814.925a3.113,3.113,0,1,1,3.106-3.088A3.127,3.127,0,0,1,1132.323,814.925Zm-.013-4.145a1.032,1.032,0,1,0,1.039,1.026A1.043,1.043,0,0,0,1132.31,810.78Z" transform="translate(-141.863 -59.053)" fill="#030303"/>
    <path id="Trazado_631379" data-name="Trazado 631379" d="M1021.417,747.252a10.464,10.464,0,0,1,9.657-10.408,10.359,10.359,0,0,1,10.985,8.952,10.01,10.01,0,0,1-3.48,9.228,6.874,6.874,0,0,0-2.557,4.286c-.016.117,0,.318-.148.324a15.144,15.144,0,0,1-1.808-.007c-.2-.017-.086-.3-.076-.454q.231-3.656.48-7.311c.033-.491-.085-1.128.176-1.432.277-.323.934-.084,1.424-.108a3.123,3.123,0,1,0-3.359-3.405c-.006.065-.007.13-.01.194-.067,1.189-.28,1.34-1.48,1.144-.3-.048-.263-.23-.286-.41a9.7,9.7,0,0,0-.164-1.478,3.187,3.187,0,0,0-3.623-2.239,3.118,3.118,0,0,0,.479,6.2c.449.013,1.013-.188,1.318.083s.125.857.157,1.3c.177,2.457.325,4.917.508,7.374.032.426-.02.638-.514.588-.449-.045-.976.122-1.341-.06-.4-.2-.237-.812-.38-1.231a6.635,6.635,0,0,0-2.025-3.03,10.463,10.463,0,0,1-3.746-6.184A8.375,8.375,0,0,1,1021.417,747.252Z" transform="translate(-62.099 -5.865)" fill="#f9e7ad"/>
    <path id="Trazado_631380" data-name="Trazado 631380" d="M1040.649,848.593c2.247,0,4.495.008,6.742-.008.375,0,.517.06.515.485-.021,3.306.005,6.613-.019,9.919a4.118,4.118,0,0,1-4.069,4.116c-2.117.036-4.235.032-6.353,0a4.127,4.127,0,0,1-4.1-4.157c-.019-3.285.005-6.569-.018-9.854,0-.462.168-.512.555-.509C1036.155,848.6,1038.4,848.593,1040.649,848.593Zm-.785,10.379c.6,0,1.208.01,1.812,0a3.1,3.1,0,0,0,3.006-2.381c.185-.73.185-.73-.584-.731-.323,0-.648.017-.97-.005a.4.4,0,0,0-.5.339.988.988,0,0,1-1.044.7h-2.524c-1.57,0-1.549,0-1.557,1.57,0,.45.151.534.549.515C1038.655,858.951,1039.26,858.973,1039.864,858.972Z" transform="translate(-70.935 -88.568)" fill="#ead0b6"/>
    <path id="Trazado_631381" data-name="Trazado 631381" d="M1111.645,933.33c-1.859,0-3.719-.009-5.578.007-.394,0-.556-.038-.487-.516a12.837,12.837,0,0,1,8.022-10.488c.926-.409,1.877-.762,2.8-1.179a1.527,1.527,0,0,1,1.238-.013,9.947,9.947,0,0,1,6.517,9.059c.02.886-.008,1.773.016,2.659.009.346-.059.49-.449.481-1.08-.028-2.163-.035-3.242,0-.441.015-.478-.162-.474-.523.016-1.729-.006-3.459.016-5.189.005-.41-.086-.543-.523-.541-1.562.01-1.562-.009-1.562,1.567,0,1.405-.012,2.811.008,4.216.005.366-.1.469-.464.465C1115.536,933.321,1113.591,933.33,1111.645,933.33Z" transform="translate(-124.37 -142.166)" fill="#e4e7ea"/>
    <path id="Trazado_631382" data-name="Trazado 631382" d="M975.724,867.286c-1.323-.554-2.547-1.083-3.785-1.576-.329-.131-.373-.328-.372-.636.011-2.29-.011-4.58.019-6.869a1.431,1.431,0,0,0-.527-1.229c-.41-.349-.764-.762-1.152-1.138a1.2,1.2,0,0,1-.313-1.415,1.007,1.007,0,0,1,1.157-.631c.661.087.872-.127.839-.815-.061-1.315-.008-2.635-.025-3.952,0-.329.078-.44.426-.439q3.888.022,7.777,0c.321,0,.438.115.534.411.493,1.539,1.027,3.064,1.523,4.6a1.514,1.514,0,0,1-.928,2.114,1.444,1.444,0,0,0-1.038,1.752,15.46,15.46,0,0,1,.014,2.072,2.493,2.493,0,0,1-2.538,2.546c-1.058.015-2.117.016-3.175,0-.361-.007-.565.034-.521.476.052.51-.154,1.182.1,1.5.273.337.97.1,1.48.1.378,0,.531.066.513.49C975.7,865.5,975.724,866.365,975.724,867.286Z" transform="translate(-23.675 -88.568)" fill="#ead0b6"/>
    <path id="Trazado_631383" data-name="Trazado 631383" d="M1111.468,867.284c0-.969.014-1.854-.007-2.739-.008-.323.108-.429.408-.385a.849.849,0,0,0,.13,0c1.6-.019,1.583-.019,1.557-1.637-.006-.392-.146-.453-.487-.446-1.036.019-2.074.013-3.111.005a2.506,2.506,0,0,1-2.64-2.643c-.007-.907-.022-1.815.009-2.721a.611.611,0,0,0-.429-.686,6.238,6.238,0,0,1-.807-.406,1.527,1.527,0,0,1-.77-1.87c.515-1.622,1.073-3.23,1.6-4.85a.407.407,0,0,1,.47-.319c2.614.006,5.228.012,7.841-.005.389,0,.4.175.4.467-.01,1.382.02,2.766-.017,4.147-.013.49.118.647.6.593a1.179,1.179,0,0,1,1.346.539,1.162,1.162,0,0,1-.2,1.432c-.435.451-.864.91-1.332,1.325a1.207,1.207,0,0,0-.41,1.016c.017,2.311,0,4.623.016,6.934a.627.627,0,0,1-.459.708C1113.948,866.219,1112.749,866.746,1111.468,867.284Z" transform="translate(-124.128 -88.565)" fill="#ead0b6"/>
    <path id="Trazado_631384" data-name="Trazado 631384" d="M1023.778,935.84c.356-.389.618-.7.9-.982,1.1-1.1,2.215-2.187,3.29-3.311.387-.405.614-.476,1.042-.023,1.2,1.271,2.463,2.487,3.7,3.724.15.149.307.29.541.509.373-1.671.727-3.256,1.081-4.841.254-1.137.524-2.27.755-3.411.069-.34.141-.438.492-.287a10.573,10.573,0,0,1,4.322,3.411.488.488,0,0,1,.024.634,14.422,14.422,0,0,0-2,6.163c-.031.357-.179.45-.529.449q-8.914-.016-17.829,0c-.373,0-.48-.139-.509-.472a14.531,14.531,0,0,0-2.006-6.162.448.448,0,0,1,.015-.579,10.721,10.721,0,0,1,4.374-3.449c.411-.179.4.052.461.327q.821,3.728,1.66,7.452C1023.619,935.218,1023.678,935.439,1023.778,935.84Z" transform="translate(-58.804 -146.703)" fill="#6dbde3"/>
    <path id="Trazado_631385" data-name="Trazado 631385" d="M960.915,926.4a13.084,13.084,0,0,1,3.229,7.123c.063.5-.134.513-.511.511-2.638-.01-5.275-.005-7.913-.005-1.124,0-2.249-.021-3.372.011-.443.013-.587-.09-.579-.559.03-1.708-.006-3.416.024-5.124.008-.46-.12-.572-.572-.567-1.516.017-1.516,0-1.516,1.491,0,1.427-.011,2.854.008,4.281,0,.356-.082.485-.461.476-1.08-.025-2.162-.005-3.243-.012-.19,0-.458.1-.457-.267.006-2.092-.148-4.2.678-6.2a9.956,9.956,0,0,1,5.311-5.491c.437-.2.587-.128.681.346.155.782.408,1.544.571,2.325a1.3,1.3,0,0,0,.675.944q2.8,1.635,5.556,3.328c.381.234.518.172.694-.214C960.076,928.008,960.486,927.249,960.915,926.4Z" transform="translate(-5.96 -142.863)" fill="#bbd989"/>
    <path id="Trazado_631386" data-name="Trazado 631386" d="M957.527,785.035c0-2.592.009-5.185-.009-7.777,0-.414.094-.553.528-.539,1.057.033,2.117.026,3.175,0,.369-.008.466.1.465.468q-.017,7.842,0,15.684c0,.359-.086.481-.461.472-1.058-.025-2.118-.03-3.175,0-.427.013-.535-.113-.532-.534C957.537,790.22,957.527,787.627,957.527,785.035Z" transform="translate(-14.818 -35.387)" fill="#83d3ef"/>
    <path id="Trazado_631387" data-name="Trazado 631387" d="M985.627,785.042c0,2.573-.012,5.146.011,7.719,0,.459-.12.583-.573.568-1.015-.035-2.033-.028-3.048,0-.4.01-.553-.076-.551-.522q.025-7.784,0-15.568c0-.428.118-.547.54-.534.994.03,1.991.049,2.982-.005.579-.032.655.184.65.691C985.613,779.939,985.627,782.49,985.627,785.042Z" transform="translate(-32.54 -35.369)" fill="#df7a85"/>
    <path id="Trazado_631388" data-name="Trazado 631388" d="M1153.13,861.361c0-.987,0-1.907,0-2.828,0-.205.146-.3.262-.422.316-.325.651-.634.956-.97a3.229,3.229,0,0,0-.85-5.077.565.565,0,0,1-.374-.581c.02-.821.023-1.644,0-2.464-.01-.344.095-.436.435-.433,1.794.016,3.589.008,5.383.008.215,0,.413-.046.425.3.092,2.8-.09,5.529-1.57,8.018a11.807,11.807,0,0,1-4.369,4.327A2.936,2.936,0,0,1,1153.13,861.361Z" transform="translate(-159.56 -88.568)" fill="#f4d57e"/>
    <path id="Trazado_631389" data-name="Trazado 631389" d="M948.661,848.576c.886,0,1.773.011,2.659-.005.326-.006.476.082.454.435a10.251,10.251,0,0,0,0,1.232,2.157,2.157,0,0,1-.943,2.255,3,3,0,0,0-.243,4.616,3.292,3.292,0,0,1,1.184,3.117c-.046.336.155.843-.084.978-.308.174-.644-.227-.935-.429a11.589,11.589,0,0,1-5.207-9.639c-.021-.648.025-1.3-.013-1.946-.028-.47.091-.652.6-.625C946.973,848.608,947.817,848.576,948.661,848.576Z" transform="translate(-5.947 -88.55)" fill="#656c76"/>
    <path id="Trazado_631390" data-name="Trazado 631390" d="M969.288,745.2h-8.9c-.033-.233.109-.386.192-.553q1.741-3.5,3.494-7c.165-.33.31-.7.76-.7s.6.362.762.692q1.749,3.5,3.495,7A.944.944,0,0,1,969.288,745.2Z" transform="translate(-16.939 -5.965)" fill="#969da7"/>
    <path id="Trazado_631391" data-name="Trazado 631391" d="M1053.131,912.431c.646,0,1.293.014,1.939-.006.312-.01.4.132.547.4a1.664,1.664,0,0,1-.524,2.41,15.729,15.729,0,0,0-1.7,1.682c-.207.217-.342.246-.567.013-.793-.821-1.6-1.625-2.417-2.426a.547.547,0,0,1-.165-.619c.407-1.447.4-1.45,1.913-1.45Z" transform="translate(-83.413 -135.807)" fill="#ead0b6"/>
    <path id="Trazado_631392" data-name="Trazado 631392" d="M1049.458,834.692c-1.208,0-2.416-.017-3.623.01-.4.009-.5-.1-.5-.5-.006-1.585-.022-1.585,1.545-1.585,2.07,0,4.14.014,6.21-.011.452-.005.576.109.571.566-.018,1.52,0,1.52-1.546,1.52Z" transform="translate(-79.798 -76.744)" fill="#aab1bb"/>
    <path id="Trazado_631393" data-name="Trazado 631393" d="M979.663,923.431a20.33,20.33,0,0,1,4.471,2.228c.34.247.422.425.208.82-.5.922-.475.936-1.38.392a15.4,15.4,0,0,0-1.783-1.052A2.388,2.388,0,0,1,979.663,923.431Z" transform="translate(-31.206 -143.952)" fill="#bbd989"/>
    <path id="Trazado_631394" data-name="Trazado 631394" d="M1059.324,797.472c-.182-2.757-.343-5.5-.56-8.232-.054-.682.346-.515.7-.534.391-.02.676-.05.628.547-.212,2.628-.365,5.261-.538,7.893A.3.3,0,0,1,1059.324,797.472Z" transform="translate(-89.735 -44.252)" fill="#f9e7ad"/>
    <path id="Trazado_631395" data-name="Trazado 631395" d="M1044.466,929.874l-1.156-5.231a3.626,3.626,0,0,1,1.046.893c.62.6,1.2,1.236,1.836,1.822.306.284.264.446-.014.715C1045.628,928.608,1045.117,929.184,1044.466,929.874Z" transform="translate(-78.303 -144.849)" fill="#5aaad2"/>
    <path id="Trazado_631396" data-name="Trazado 631396" d="M1069.321,929.859c-.691-.7-1.289-1.306-1.888-1.911a.224.224,0,0,1-.042-.334c.112-.158,2.746-2.7,3.068-2.9Z" transform="translate(-96.081 -144.904)" fill="#5aaad2"/>
    <path id="Trazado_631397" data-name="Trazado 631397" d="M1042.847,774.837c-.129,0-.258.006-.386,0a1.036,1.036,0,0,1-.1-2.069,1.07,1.07,0,0,1,1.22.886,3.409,3.409,0,0,1,.025.385C1043.658,774.839,1043.658,774.839,1042.847,774.837Z" transform="translate(-76.885 -32.459)" fill="#f4d57e"/>
    <path id="Trazado_631398" data-name="Trazado 631398" d="M1073.347,774.847c-.184-.155-.693.305-.709-.324-.028-1.2.325-1.735,1.119-1.751a1.052,1.052,0,0,1,1.127,1.056C1074.871,774.514,1074.386,774.846,1073.347,774.847Z" transform="translate(-100.005 -32.468)" fill="#f4d57e"/>
    <path id="Trazado_631399" data-name="Trazado 631399" d="M1138.232,816.7a1.032,1.032,0,1,1-1.025,1.039A1.043,1.043,0,0,1,1138.232,816.7Z" transform="translate(-147.785 -64.974)" fill="#df7a85"/>
    <path id="Trazado_631400" data-name="Trazado 631400" d="M1051.675,879.648c-.6,0-1.209-.022-1.812.008-.4.02-.552-.065-.549-.515.009-1.569-.012-1.57,1.557-1.57h2.524a.988.988,0,0,0,1.044-.7.4.4,0,0,1,.5-.339c.322.023.647.005.97.005.769,0,.769,0,.584.731a3.1,3.1,0,0,1-3.006,2.381C1052.884,879.657,1052.28,879.648,1051.675,879.648Z" transform="translate(-82.746 -109.243)" fill="#020202"/>
  </g>
</svg>
