<svg xmlns="http://www.w3.org/2000/svg" width="295" height="130" viewBox="0 0 295 130">
  <g id="Grupo_980844" data-name="Grupo 980844" transform="translate(-1125 -1645)">
    <rect id="Rect치ngulo_306680" data-name="Rect치ngulo 306680" width="295" height="130" transform="translate(1125 1645)" fill="#f7e9e1" opacity="0.7"/>
    <g id="Grupo_955071" data-name="Grupo 955071" transform="translate(1154.5 -4432)">
      <rect id="Rect치ngulo_34178" data-name="Rect치ngulo 34178" width="85" height="85" transform="translate(180 6099)" fill="none"/>
      <g id="Grupo_955177" data-name="Grupo 955177" transform="translate(-684.943 5858.109)">
        <path id="Trazado_630740" data-name="Trazado 630740" d="M878.957,300.793a1.189,1.189,0,0,1-1.592-.871,33.769,33.769,0,0,1-2.547-12.711c0-1.029.363-1.41,1.411-1.41q9.654,0,19.308,0c1.081,0,1.448.368,1.48,1.448A11.9,11.9,0,0,0,920.7,288.6a11.786,11.786,0,0,0-11.316-13.546c-6.334-.155-12.675-.046-19.013-.054-1.444,0-2.888.019-4.331-.011-.472-.009-.628.108-.615.6q.051,2.091,0,4.185a2.135,2.135,0,0,1-2.693,2.188,1.729,1.729,0,0,1-1.162-.812c-3.012-5-6.044-9.986-9.049-14.99a4.032,4.032,0,0,1-.03-4.385q4.521-7.539,9.087-15.052a1.992,1.992,0,0,1,2.242-.824,2.1,2.1,0,0,1,1.6,2.046c.04,1.345.063,2.694,0,4.037-.034.712.222.824.853.813,2.226-.035,4.453-.019,6.68-.011.921,0,1.186.22,1.451,1.119-.291.923-.494,1.08-1.471,1.081q-4,.007-8,0c-1.431,0-1.7-.272-1.7-1.718,0-1.6,0-3.193,0-4.977-.217.333-.325.488-.422.649-2.73,4.516-5.444,9.043-8.2,13.543a2.517,2.517,0,0,0,.014,2.926c2.733,4.458,5.422,8.942,8.127,13.416.118.2.241.388.362.582.119-1.626.119-3.207.119-4.788s.236-1.833,1.819-1.833q10.972,0,21.944.013c.614,0,.833-.11.829-.789q-.046-8.147-.005-16.295c0-.567-.136-.749-.728-.743-2.862.031-5.724.018-8.587.011-.909,0-1.152-.207-1.379-1.084.208-.857.494-1.12,1.364-1.113,4.159.03,8.322-.142,12.477.091a34.045,34.045,0,0,1,31.3,26.94c2.248,11.34-.435,21.45-8.165,30.076a31.775,31.775,0,0,1-20.359,10.762c-14.334,1.684-25.6-3.638-33.708-15.585-.537-.79-.488-1.1.127-1.819a1.192,1.192,0,0,1,1.679.544c.15.252.319.492.481.737a31.711,31.711,0,0,0,7.8,8.193c.266.2.458.4.74-.036q4.573-7.13,9.184-14.236c.18-.277.187-.419-.09-.651a13.866,13.866,0,0,1-5.049-9.219c-.058-.464-.216-.589-.677-.588q-8.261.025-16.521,0c-.563,0-.7.144-.662.694A31.782,31.782,0,0,0,879.386,299,1.278,1.278,0,0,1,878.957,300.793Zm53.608-18.213c-3.089.712-6.174,1.436-9.268,2.122-.428.095-.417.288-.371.609a12.417,12.417,0,0,1-.113,4.086,14.008,14.008,0,0,1-4.993,8.459c-.212.175-.5.281-.234.682,1.856,2.751,3.689,5.518,5.53,8.28,1.286,1.961,2.579,3.916,3.849,5.887.219.34.384.255.633.071a32.139,32.139,0,0,0,13.152-23.634,31.043,31.043,0,0,0-.421-7.893c-.049-.278-.075-.5-.5-.394C937.414,281.449,934.988,282.009,932.565,282.58Zm-10.95,26.1q-2.939-4.475-5.87-8.954c-.21-.322-.4-.247-.664-.121a13.857,13.857,0,0,1-12.508-.089c-.374-.181-.53-.125-.738.212-.668,1.081-1.372,2.141-2.062,3.209q-3.482,5.391-6.961,10.784c-.167.259-.487.514.036.8a27.275,27.275,0,0,0,5.324,2.414,2.856,2.856,0,0,0,.323.156,31.829,31.829,0,0,0,17.542.927,31.324,31.324,0,0,0,8.76-3.432c.3-.173.615-.279.3-.745C923.915,312.131,922.771,310.4,921.615,308.678Zm10.661-28.351c2.259-.518,4.512-1.062,6.78-1.536.628-.131.64-.354.478-.885a31.777,31.777,0,0,0-12.794-17.439,32.721,32.721,0,0,0-16.032-5.412c-.542-.035-.707.085-.7.655q.033,8.261,0,16.521c0,.449.105.6.585.675a13.915,13.915,0,0,1,11.59,9.237c.137.349.282.5.684.409C926,281.8,929.139,281.066,932.276,280.326Z" transform="translate(0 0)" fill="#040403"/>
        <path id="Trazado_630741" data-name="Trazado 630741" d="M902.611,259.818c.227.876.47,1.082,1.379,1.084,2.862.007,5.725.019,8.587-.011.591-.006.73.176.728.743q-.031,8.147,0,16.295c0,.678-.215.79-.829.789q-10.972-.03-21.944-.013c-1.583,0-1.819.24-1.819,1.833s0,3.162-.119,4.788c-.121-.194-.244-.386-.362-.582-2.706-4.474-5.394-8.958-8.127-13.416a2.517,2.517,0,0,1-.014-2.926c2.756-4.5,5.47-9.027,8.2-13.543.1-.161.205-.316.422-.649,0,1.785,0,3.381,0,4.977,0,1.446.268,1.717,1.7,1.718q4,0,8,0c.978,0,1.18-.158,1.471-1.081Zm-3.179,8.071c2.4,0,4.792,0,7.189,0,.87,0,1.351-.4,1.36-1.092s-.456-1.1-1.329-1.109c-1.223-.008-2.445,0-3.668,0H892.641c-.171,0-.343,0-.514,0-.843.016-1.358.445-1.342,1.116s.53,1.085,1.384,1.086C894.591,267.892,897.011,267.889,899.432,267.889Zm-5.275,3.831c-.71,0-1.42-.01-2.129,0a1.1,1.1,0,1,0-.05,2.194q2.2.028,4.405,0a1.1,1.1,0,1,0-.023-2.192C895.626,271.707,894.891,271.72,894.157,271.72Zm10.434,2.2c.734,0,1.468.015,2.2,0a1.088,1.088,0,0,0,1.188-1.112,1.076,1.076,0,0,0-1.207-1.084q-2.164-.019-4.329,0a1.11,1.11,0,0,0-1.208,1.1,1.136,1.136,0,0,0,1.226,1.094C903.172,273.936,903.882,273.923,904.591,273.923Z" transform="translate(-5.487 -5.919)" fill="#f0aa6b"/>
        <path id="Trazado_630742" data-name="Trazado 630742" d="M891.386,401.909a1.278,1.278,0,0,0,.429-1.791,31.782,31.782,0,0,1-2.341-10.317c-.034-.549.1-.7.662-.694q8.261.034,16.521,0c.46,0,.619.124.677.588a13.867,13.867,0,0,0,5.049,9.219c.277.232.27.374.09.651q-4.606,7.109-9.184,14.236c-.283.441-.474.231-.74.036a31.713,31.713,0,0,1-7.8-8.193c-.162-.245-.331-.485-.481-.737a1.192,1.192,0,0,0-1.679-.544Zm10.993-2.6c0-.733-.027-1.467.005-2.2.122-2.773-.563-2.427-2.608-2.422a1.065,1.065,0,0,0-1.111,1.036,1.032,1.032,0,0,0,1,1.132c.512.024.516.26.514.637q-.018,2.564,0,5.129c0,.816.4,1.292,1.061,1.308.685.016,1.128-.483,1.139-1.325C902.39,401.507,902.38,400.408,902.38,399.309Z" transform="translate(-12.43 -101.115)" fill="#88cbf2"/>
        <path id="Trazado_630743" data-name="Trazado 630743" d="M1023.746,302.45c-3.137.74-6.275,1.474-9.409,2.225-.4.1-.547-.06-.684-.409a13.915,13.915,0,0,0-11.59-9.237c-.48-.072-.586-.226-.585-.675q.02-8.26,0-16.521c0-.57.163-.69.7-.655a28.594,28.594,0,0,1,7.329,1.319c.092.326.414.4.642.566a32.778,32.778,0,0,1,6.764,6.414,32.2,32.2,0,0,1,4.936,8.683A26.338,26.338,0,0,1,1023.746,302.45Zm-7.239-13.6h-.022c0-.587.034-1.177-.009-1.761a1.535,1.535,0,0,0-2.874-.763c-1.062,1.613-1.972,3.317-2.888,5.014a1.057,1.057,0,0,0,.946,1.611,8.95,8.95,0,0,0,1.613,0c.786-.094,1.065.136,1.014.976a1.078,1.078,0,0,0,1.552,1.125,1.18,1.18,0,0,0,.632-1.223c-.006-.466,0-.842.532-1.133a.957.957,0,0,0,.04-1.616,1.083,1.083,0,0,1-.539-1.2C1016.521,289.533,1016.508,289.189,1016.508,288.847Z" transform="translate(-91.47 -22.123)" fill="#b3e4aa"/>
        <path id="Trazado_630744" data-name="Trazado 630744" d="M947.814,445.433a27.276,27.276,0,0,1-5.324-2.414c-.523-.288-.2-.543-.036-.8q3.476-5.4,6.961-10.784c.69-1.068,1.394-2.128,2.062-3.209.208-.337.364-.393.738-.212a13.857,13.857,0,0,0,12.508.089c.268-.126.454-.2.664.121q2.922,4.486,5.87,8.954c-.789.173-1.24.838-1.829,1.291a32.914,32.914,0,0,1-11.788,5.819A37.928,37.928,0,0,1,947.814,445.433Zm12.051-5.6c.467-.656.837-1.172,1.2-1.69a6.3,6.3,0,0,0,.948-1.808,2.847,2.847,0,0,0-2.117-3.6,2.919,2.919,0,0,0-3.494,2.228,1.052,1.052,0,0,0,.726,1.278,1.023,1.023,0,0,0,1.308-.516c.074-.123.1-.275.168-.4a.659.659,0,0,1,.9-.4.622.622,0,0,1,.348.908,6,6,0,0,1-.618,1.076c-.763,1.076-1.571,2.12-2.317,3.208a1.135,1.135,0,0,0,.886,1.9c1.2.049,2.4.037,3.592,0a1.091,1.091,0,0,0-.024-2.181C960.915,439.816,960.457,439.837,959.865,439.837Z" transform="translate(-49.643 -128.499)" fill="#d85e6a"/>
        <path id="Trazado_630745" data-name="Trazado 630745" d="M1055.475,366.521c2.423-.572,4.849-1.131,7.267-1.725.423-.1.448.116.5.394a31.043,31.043,0,0,1,.421,7.893,32.139,32.139,0,0,1-13.152,23.634c-.249.184-.414.269-.633-.071-1.271-1.97-2.564-3.926-3.849-5.887a12.52,12.52,0,0,0,2.6-2.822,18.14,18.14,0,0,0,2.593-4.1c2.865.059,4.177-1.852,3.025-4.426a.491.491,0,0,1,.024-.531,2.911,2.911,0,0,0,.071-2.991c.215-.128.23-.345.279-.563A34.7,34.7,0,0,0,1055.475,366.521Z" transform="translate(-122.91 -83.941)" fill="#f0ba68"/>
        <path id="Trazado_630746" data-name="Trazado 630746" d="M1037.7,388.038a18.145,18.145,0,0,1-2.593,4.1,12.516,12.516,0,0,1-2.6,2.822c-1.841-2.762-3.673-5.529-5.53-8.28-.27-.4.023-.507.234-.682a14.008,14.008,0,0,0,4.993-8.459,12.42,12.42,0,0,0,.113-4.086c-.046-.321-.057-.514.371-.609,3.094-.687,6.18-1.411,9.268-2.123a34.7,34.7,0,0,1-.856,8.808c-.049.218-.064.435-.279.563-.137-.172-.264-.353-.413-.514a2.919,2.919,0,0,0-4.883,1.064,1.18,1.18,0,0,0,.613,1.595c.592.223,1.124-.046,1.434-.759.173-.4.4-.7.875-.593a.647.647,0,0,1,.538.7.716.716,0,0,1-.728.687,1.028,1.028,0,0,0-1.044,1.094,1.05,1.05,0,0,0,1.048,1.1c.463.06.741.29.719.752a.616.616,0,0,1-.609.619c-.483.034-.7-.248-.794-.685-.181-.8-.661-1.193-1.286-1.071a1.19,1.19,0,0,0-.861,1.537A2.988,2.988,0,0,0,1037.7,388.038Z" transform="translate(-109.39 -88.14)" fill="#f6d580"/>
        <path id="Trazado_630747" data-name="Trazado 630747" d="M1043.01,305.626a26.338,26.338,0,0,0-1.9-8.291,32.2,32.2,0,0,0-4.936-8.683,32.78,32.78,0,0,0-6.764-6.414c-.229-.164-.551-.24-.642-.566a28.351,28.351,0,0,1,8.7,4.093,31.777,31.777,0,0,1,12.794,17.439c.161.53.15.753-.478.885C1047.522,304.564,1045.269,305.108,1043.01,305.626Z" transform="translate(-110.733 -25.3)" fill="#94d6af"/>
        <path id="Trazado_630748" data-name="Trazado 630748" d="M961.266,467.651a37.927,37.927,0,0,0,9.828-1.146,32.915,32.915,0,0,0,11.788-5.819c.588-.453,1.04-1.117,1.828-1.291,1.156,1.723,2.3,3.454,3.476,5.163.32.465.006.571-.3.745a31.325,31.325,0,0,1-8.761,3.432,31.829,31.829,0,0,1-17.542-.927A2.846,2.846,0,0,1,961.266,467.651Z" transform="translate(-63.095 -150.717)" fill="#d14752"/>
        <path id="Trazado_630749" data-name="Trazado 630749" d="M926.175,295.4c-2.421,0-4.841,0-7.262,0-.854,0-1.368-.417-1.384-1.086s.5-1.1,1.342-1.116c.171,0,.342,0,.514,0h10.343c1.223,0,2.445-.006,3.668,0,.872.006,1.338.4,1.329,1.109s-.49,1.09-1.36,1.092C930.967,295.4,928.571,295.4,926.175,295.4Z" transform="translate(-32.23 -33.429)" fill="#040302"/>
        <path id="Trazado_630750" data-name="Trazado 630750" d="M920.9,313.7c.734,0,1.469-.012,2.2,0a1.1,1.1,0,1,1,.024,2.192q-2.2.033-4.406,0a1.1,1.1,0,1,1,.05-2.194C919.482,313.688,920.192,313.7,920.9,313.7Z" transform="translate(-32.232 -47.896)" fill="#030201"/>
        <path id="Trazado_630751" data-name="Trazado 630751" d="M956.395,315.9c-.709,0-1.419.013-2.128,0a1.136,1.136,0,0,1-1.226-1.094,1.11,1.11,0,0,1,1.208-1.1q2.164-.022,4.329,0a1.076,1.076,0,0,1,1.207,1.084,1.088,1.088,0,0,1-1.188,1.112C957.862,315.912,957.128,315.9,956.395,315.9Z" transform="translate(-57.291 -47.893)" fill="#030201"/>
        <path id="Trazado_630752" data-name="Trazado 630752" d="M924.424,412.656c0,1.1.01,2.2,0,3.3-.01.843-.454,1.342-1.139,1.325-.658-.016-1.057-.492-1.061-1.308q-.012-2.564,0-5.129c0-.378,0-.614-.514-.637a1.032,1.032,0,0,1-1-1.132,1.065,1.065,0,0,1,1.111-1.036c2.045-.006,2.73-.352,2.608,2.422C924.4,411.189,924.424,411.923,924.424,412.656Z" transform="translate(-34.474 -114.462)" fill="#030405"/>
        <path id="Trazado_630753" data-name="Trazado 630753" d="M1038.291,308.9c0,.342.014.686,0,1.027a1.083,1.083,0,0,0,.54,1.2.957.957,0,0,1-.04,1.616c-.532.291-.538.668-.532,1.133a1.18,1.18,0,0,1-.632,1.223,1.078,1.078,0,0,1-1.552-1.125c.051-.84-.229-1.069-1.014-.976a8.944,8.944,0,0,1-1.613,0,1.057,1.057,0,0,1-.946-1.611c.917-1.7,1.826-3.4,2.888-5.014a1.535,1.535,0,0,1,2.874.763c.043.584.009,1.174.009,1.761Zm-2.945,1.863c.833.049.833.049.652-1.138Z" transform="translate(-113.254 -42.174)" fill="#030403"/>
        <path id="Trazado_630754" data-name="Trazado 630754" d="M993.859,451.228c.593,0,1.05-.021,1.5.005a1.091,1.091,0,0,1,.024,2.18c-1.2.033-2.4.046-3.592,0a1.135,1.135,0,0,1-.886-1.9c.746-1.087,1.554-2.132,2.317-3.208a6.007,6.007,0,0,0,.618-1.076.622.622,0,0,0-.349-.908.659.659,0,0,0-.9.4c-.067.129-.094.28-.168.4a1.023,1.023,0,0,1-1.307.516,1.052,1.052,0,0,1-.726-1.278,2.919,2.919,0,0,1,3.494-2.228,2.847,2.847,0,0,1,2.117,3.6,6.3,6.3,0,0,1-.948,1.808C994.7,450.056,994.326,450.573,993.859,451.228Z" transform="translate(-83.638 -139.89)" fill="#030102"/>
        <path id="Trazado_630755" data-name="Trazado 630755" d="M1058.147,407.084a2.988,2.988,0,0,1-2.273-2.422,1.19,1.19,0,0,1,.861-1.537c.626-.123,1.105.267,1.286,1.071.1.436.311.718.794.685a.616.616,0,0,0,.609-.619c.023-.462-.255-.692-.718-.752a1.05,1.05,0,0,1-1.048-1.1,1.028,1.028,0,0,1,1.044-1.094.716.716,0,0,0,.728-.687.647.647,0,0,0-.538-.7c-.47-.1-.7.2-.874.593-.31.714-.842.982-1.434.759a1.18,1.18,0,0,1-.613-1.595,2.919,2.919,0,0,1,4.883-1.065c.149.161.276.342.413.514a2.912,2.912,0,0,1-.071,2.991.491.491,0,0,0-.024.531C1062.323,405.231,1061.012,407.142,1058.147,407.084Z" transform="translate(-129.837 -107.186)" fill="#040402"/>
        <path id="Trazado_630756" data-name="Trazado 630756" d="M1042.549,320.442l.652-1.138C1043.382,320.492,1043.382,320.492,1042.549,320.442Z" transform="translate(-120.457 -51.856)" fill="#94d6af"/>
      </g>
    </g>
  </g>
</svg>
